<?xml version="1.0" standalone="no"?>
<!DOCTYPE svg PUBLIC "-//W3C//DTD SVG 20010904//EN"
 "http://www.w3.org/TR/2001/REC-SVG-20010904/DTD/svg10.dtd">
<svg version="1.0" xmlns="http://www.w3.org/2000/svg"
 width="272.000000pt" height="200.000000pt" viewBox="0 0 272.000000 200.000000"
 preserveAspectRatio="xMidYMid meet">
<metadata>
Created by potrace 1.16, written by Peter Selinger 2001-2019
</metadata>
<rect x="0" y="0" width="272" height="200" fill="#ffffff"/>
<g transform="translate(0.000000,200.000000) scale(0.100000,-0.100000)"
fill="#000000" stroke="none">
<path d="M515 1748 c-44 -5 -105 -20 -135 -33 -30 -13 -71 -29 -92 -35 -49
-15 -125 -96 -134 -144 -3 -20 -4 -64 -2 -97 4 -54 8 -64 44 -100 41 -40 149
-89 197 -89 13 0 50 -9 82 -21 55 -19 67 -20 150 -10 82 11 192 39 303 78 23
8 59 30 78 48 l36 34 -4 125 c-3 110 -5 128 -23 145 -33 31 -164 81 -255 96
-93 16 -126 16 -245 3z m188 -227 c56 -22 32 -84 -38 -97 -45 -8 -139 2 -174
19 -34 16 -39 50 -9 71 26 18 179 23 221 7z"/>
<path d="M1955 1746 c-79 -14 -220 -68 -250 -97 -17 -17 -20 -35 -23 -145 l-4
-125 36 -34 c19 -18 55 -40 78 -48 111 -39 221 -67 303 -78 83 -10 95 -9 150
10 32 12 69 21 82 21 48 0 156 49 197 89 36 36 40 46 44 100 2 33 1 77 -2 97
-9 48 -85 129 -134 144 -21 6 -62 22 -92 35 -33 14 -94 27 -155 34 -116 13
-135 13 -230 -3z m283 -232 c30 -21 25 -55 -9 -71 -35 -17 -129 -27 -174 -19
-68 13 -95 75 -41 96 39 16 199 12 224 -6z"/>
<path d="M1320 1119 c-40 -16 -109 -89 -120 -128 -6 -20 -22 -61 -35 -91 -35
-82 -51 -246 -34 -358 13 -93 68 -243 100 -277 17 -17 35 -20 145 -23 l125 -4
34 36 c18 19 40 55 48 78 38 106 67 220 77 303 11 83 10 95 -9 150 -12 32 -21
67 -21 76 0 9 -9 47 -20 83 -22 70 -64 127 -111 152 -32 16 -141 18 -179 3z
m118 -331 c16 -33 27 -146 18 -182 -16 -62 -77 -81 -97 -29 -16 42 -11 195 7
221 21 30 55 25 72 -10z"/>
</g>
</svg>
