<?xml version="1.0" standalone="no"?>
<!DOCTYPE svg PUBLIC "-//W3C//DTD SVG 20010904//EN"
 "http://www.w3.org/TR/2001/REC-SVG-20010904/DTD/svg10.dtd">
<svg version="1.0" xmlns="http://www.w3.org/2000/svg"
 width="472.000000pt" height="320.000000pt" viewBox="0 0 472.000000 320.000000"
 preserveAspectRatio="xMidYMid meet">
<metadata>
Created by potrace 1.16, written by Peter Selinger 2001-2019
</metadata>
<rect x="0" y="0" width="472" height="320" fill="#ffffff"/>
<g transform="translate(0.000000,320.000000) scale(0.100000,-0.100000)"
fill="#000000" stroke="none">
<path d="M2170 3168 c-8 -18 -31 -41 -50 -52 -53 -31 -117 -76 -164 -116 -22
-20 -59 -49 -80 -65 -78 -57 -307 -299 -352 -370 -10 -16 -33 -48 -51 -69 -18
-22 -33 -45 -33 -51 0 -7 -14 -31 -31 -55 -18 -24 -41 -64 -52 -89 -11 -25
-30 -62 -43 -81 -12 -19 -30 -62 -38 -96 -9 -33 -25 -81 -36 -106 -11 -25 -25
-78 -31 -119 -15 -97 -23 -117 -56 -130 -20 -8 -42 -5 -96 11 -59 18 -91 21
-226 19 -118 -2 -163 1 -181 12 -17 9 -60 14 -130 14 -58 1 -164 5 -236 10
-72 4 -143 5 -158 1 -14 -3 -39 -20 -54 -37 -15 -17 -37 -35 -50 -40 -21 -8
-23 -14 -20 -71 3 -58 4 -62 33 -71 17 -5 42 -21 57 -35 26 -24 31 -25 149
-23 67 1 147 8 176 16 38 10 153 16 391 21 332 6 337 6 363 -14 21 -17 27 -33
32 -83 4 -33 13 -71 19 -83 43 -74 58 -95 103 -144 27 -30 68 -63 90 -74 22
-12 52 -31 66 -42 14 -12 84 -42 155 -66 l129 -44 178 -4 c218 -5 314 7 418
54 42 19 79 34 83 34 9 0 139 87 159 107 11 10 39 50 64 90 41 68 45 79 55
175 5 57 14 111 19 120 14 25 55 33 98 18 20 -7 109 -16 202 -19 145 -5 170
-9 188 -25 26 -24 26 -46 2 -94 -10 -20 -24 -62 -30 -91 -6 -30 -23 -70 -37
-88 -13 -18 -32 -52 -40 -75 -8 -24 -25 -54 -38 -68 -13 -14 -34 -47 -46 -73
-13 -26 -30 -52 -39 -57 -9 -4 -27 -27 -41 -49 -14 -23 -28 -41 -32 -41 -4 0
-26 -25 -48 -55 -42 -57 -248 -265 -262 -265 -4 0 -41 -32 -80 -71 -40 -39
-86 -78 -103 -86 -16 -9 -46 -28 -65 -43 -19 -15 -54 -37 -77 -50 -24 -13 -43
-27 -43 -31 0 -5 -20 -20 -44 -34 -33 -19 -49 -38 -65 -75 -26 -61 -26 -96 -1
-151 11 -24 20 -56 20 -71 l0 -28 118 0 118 0 12 32 c8 21 38 53 84 90 70 54
332 316 430 429 82 95 198 250 198 266 0 4 18 30 39 56 22 26 43 58 47 70 3
12 17 37 31 55 13 18 32 54 40 80 9 26 29 65 44 87 16 22 33 62 39 88 6 27 22
76 36 109 14 33 29 94 34 134 4 41 14 82 21 91 13 14 40 15 264 9 166 -4 269
-12 307 -21 31 -8 85 -14 120 -13 37 1 73 -4 88 -12 14 -7 50 -14 80 -15 30
-2 89 -6 131 -10 82 -8 114 2 155 47 36 39 46 67 45 128 0 83 -20 125 -67 140
-43 14 -390 7 -503 -11 -35 -5 -89 -7 -120 -3 -41 4 -69 1 -106 -12 -38 -13
-76 -17 -157 -15 -81 2 -114 -2 -137 -13 -38 -20 -75 -20 -91 -2 -6 8 -18 38
-25 66 -7 28 -24 66 -38 83 -13 18 -32 47 -41 65 -26 50 -121 141 -170 163
-23 10 -55 28 -70 40 -25 20 -167 68 -261 89 -79 18 -243 33 -276 25 -19 -4
-68 -11 -109 -15 -41 -4 -109 -19 -150 -33 -41 -15 -87 -28 -101 -31 -39 -8
-171 -117 -233 -192 -57 -69 -76 -120 -76 -204 0 -43 -18 -67 -57 -76 -46 -12
-392 5 -429 21 -38 16 -45 46 -20 93 8 16 22 56 31 91 9 35 27 79 40 100 13
20 31 56 40 80 8 24 31 61 50 82 19 22 35 44 35 49 0 26 225 262 362 379 114
97 139 116 183 141 22 12 52 33 67 45 15 13 44 29 65 36 49 16 75 36 146 115
l57 65 0 69 0 70 -147 0 -148 0 -15 -32z m593 -1008 c59 -7 111 -20 155 -39
37 -16 79 -32 94 -36 15 -4 62 -37 105 -75 58 -50 86 -84 110 -130 34 -66 33
-89 -4 -106 -10 -4 -152 -10 -315 -12 l-297 -4 -58 27 c-92 42 -130 43 -205 6
-59 -29 -73 -31 -167 -31 -95 0 -104 2 -127 25 -19 19 -23 31 -18 52 28 117
117 214 251 276 66 31 100 40 179 48 54 6 101 13 104 16 3 3 28 2 55 -1 28 -4
90 -11 138 -16z m-232 -525 c32 -17 69 -69 69 -98 0 -10 -14 -52 -31 -92 -37
-90 -86 -138 -196 -194 -91 -45 -215 -71 -341 -71 -120 1 -271 24 -322 50 -24
12 -68 31 -98 41 -40 14 -69 34 -115 82 -136 139 -164 200 -117 247 19 19 33
20 299 20 l279 0 76 -40 c113 -60 161 -56 276 24 33 23 61 33 105 37 33 3 66
7 73 7 7 1 26 -5 43 -13z"/>
</g>
</svg>
