<?xml version="1.0" standalone="no"?>
<!DOCTYPE svg PUBLIC "-//W3C//DTD SVG 20010904//EN"
 "http://www.w3.org/TR/2001/REC-SVG-20010904/DTD/svg10.dtd">
<svg version="1.0" xmlns="http://www.w3.org/2000/svg"
 width="272.000000pt" height="304.000000pt" viewBox="0 0 272.000000 304.000000"
 preserveAspectRatio="xMidYMid meet">
<metadata>
Created by potrace 1.16, written by Peter Selinger 2001-2019
</metadata>
<rect x="0" y="0" width="272" height="304" fill="#ffffff"/>
<g transform="translate(0.000000,304.000000) scale(0.100000,-0.100000)"
fill="#000000" stroke="none">
<path d="M1016 3025 c-11 -8 -32 -15 -47 -15 -15 0 -51 -9 -81 -19 -29 -11
-84 -29 -123 -41 -89 -28 -152 -63 -296 -169 -161 -119 -237 -216 -339 -431
l-45 -95 0 -220 0 -220 27 -40 c15 -22 30 -60 34 -83 6 -38 19 -56 98 -136 73
-75 102 -97 147 -114 31 -11 73 -32 93 -46 20 -13 59 -32 86 -41 28 -9 53 -21
56 -27 12 -19 129 -68 162 -68 36 0 173 -63 229 -106 18 -14 55 -32 81 -39 52
-16 82 -42 101 -91 7 -17 28 -46 47 -65 l34 -33 0 -463 0 -463 124 0 124 0 10
30 c8 22 25 36 64 55 67 31 125 76 183 141 38 44 45 59 45 93 0 33 7 49 35 80
34 38 35 40 35 127 0 101 -21 159 -89 249 -21 27 -44 67 -51 88 -8 27 -50 77
-143 171 -138 139 -159 156 -201 156 -14 0 -40 13 -58 29 -43 37 -71 51 -103
51 -16 0 -41 15 -68 40 -27 24 -59 43 -85 48 -24 6 -59 25 -80 44 -34 30 -47
36 -107 41 -55 5 -78 13 -112 37 -26 19 -63 34 -93 39 -36 6 -60 18 -89 44
-22 20 -56 39 -75 43 -44 8 -117 78 -151 146 -14 26 -30 50 -36 54 -6 3 -20
25 -30 48 -14 32 -19 65 -19 148 0 94 4 119 31 200 35 104 45 119 156 234 107
111 172 161 294 226 149 80 389 163 436 152 47 -12 53 -35 53 -220 0 -205 2
-201 -117 -216 -128 -17 -233 -45 -270 -74 -42 -32 -150 -175 -161 -212 -4
-15 -7 -70 -7 -124 0 -91 2 -99 30 -140 24 -33 51 -53 119 -88 l88 -45 245 -9
c260 -10 261 -10 433 37 52 14 124 31 160 37 138 24 310 123 395 226 131 159
135 169 135 375 0 100 -5 179 -12 200 -17 50 -94 155 -168 229 -93 92 -205
153 -323 175 -103 19 -145 34 -166 58 -12 15 -47 17 -320 17 -253 -1 -309 -3
-325 -15z m684 -249 c19 -12 52 -28 72 -35 57 -19 112 -64 162 -134 53 -75
118 -234 119 -293 0 -49 -34 -103 -120 -185 -58 -57 -185 -149 -204 -149 -6 0
-44 -13 -86 -30 -85 -34 -156 -39 -185 -13 -17 15 -18 41 -18 421 0 363 2 407
17 424 13 15 32 18 112 18 85 0 101 -3 131 -24z m-488 -586 c57 -16 68 -40 68
-147 0 -125 -8 -133 -125 -133 -130 0 -195 41 -195 121 0 71 93 145 210 168 3
0 22 -4 42 -9z m291 -1322 c8 -7 30 -53 47 -102 16 -50 46 -113 65 -141 19
-27 35 -58 35 -66 0 -9 -16 -41 -36 -70 -20 -29 -50 -91 -66 -138 -26 -76 -48
-111 -68 -111 -3 0 -14 6 -24 13 -17 12 -18 36 -18 305 0 295 3 322 36 322 7
0 20 -6 29 -12z"/>
</g>
</svg>
