<?xml version="1.0" standalone="no"?>
<!DOCTYPE svg PUBLIC "-//W3C//DTD SVG 20010904//EN"
 "http://www.w3.org/TR/2001/REC-SVG-20010904/DTD/svg10.dtd">
<svg version="1.0" xmlns="http://www.w3.org/2000/svg"
 width="264.000000pt" height="488.000000pt" viewBox="0 0 264.000000 488.000000"
 preserveAspectRatio="xMidYMid meet">
<metadata>
Created by potrace 1.16, written by Peter Selinger 2001-2019
</metadata>
<rect x="0" y="0" width="264" height="488" fill="#ffffff"/>
<g transform="translate(0.000000,488.000000) scale(0.100000,-0.100000)"
fill="#000000" stroke="none">
<path d="M1118 4802 c-54 -113 -57 -148 -18 -228 17 -36 47 -86 66 -111 63
-83 40 -153 -51 -153 -24 0 -66 -12 -105 -31 -36 -17 -91 -35 -124 -39 -35 -5
-73 -19 -95 -34 -20 -14 -56 -32 -81 -41 -25 -9 -56 -26 -70 -39 -14 -13 -44
-33 -68 -44 -55 -27 -96 -59 -224 -179 -50 -47 -162 -199 -189 -257 -11 -22
-30 -55 -43 -73 -13 -17 -29 -59 -35 -92 -10 -50 -18 -66 -46 -88 l-35 -28 0
-362 0 -362 29 -16 c22 -11 34 -29 47 -67 9 -29 28 -66 41 -82 13 -16 33 -48
44 -70 29 -62 258 -289 329 -326 14 -7 42 -28 63 -46 20 -19 43 -34 51 -34 8
0 33 -16 56 -35 23 -19 54 -38 69 -41 54 -12 63 -16 92 -45 16 -16 39 -31 52
-33 12 -3 34 -7 48 -10 14 -3 40 -19 57 -35 31 -30 41 -34 115 -46 24 -4 53
-19 75 -40 l37 -34 -1 -538 -1 -539 -27 -59 c-50 -109 -72 -327 -41 -401 11
-28 26 -40 78 -63 36 -16 68 -34 71 -40 11 -17 37 -13 60 8 12 11 39 26 61 33
26 9 50 28 73 58 34 44 34 46 30 125 -4 62 -11 91 -32 132 -25 47 -29 68 -37
200 -5 81 -14 180 -21 218 -18 98 -18 891 0 955 6 25 15 116 18 203 7 181 10
187 82 187 57 0 133 20 189 48 22 12 61 24 85 28 61 8 92 22 117 49 11 14 33
27 48 30 15 4 39 8 51 11 13 3 33 15 45 28 12 13 38 31 57 41 90 46 309 261
361 355 7 14 26 45 41 70 15 25 34 77 43 114 19 81 38 121 65 139 19 11 20 24
20 219 0 199 -1 207 -20 213 -30 9 -49 44 -61 111 -6 32 -22 79 -37 104 -15
25 -35 63 -46 84 -26 51 -236 261 -279 279 -18 8 -41 26 -50 40 -12 18 -35 32
-71 42 -30 9 -60 23 -68 32 -18 22 -71 43 -108 43 -17 0 -57 13 -89 30 -68 34
-153 50 -266 50 -89 0 -125 15 -125 53 0 26 40 107 75 156 21 28 25 46 27 110
3 112 0 133 -22 163 -11 15 -25 39 -30 53 l-10 25 -152 0 -153 -1 -37 -77z
m402 -782 c19 -6 87 -15 151 -19 105 -9 122 -13 183 -45 37 -20 80 -36 94 -36
26 0 40 -7 122 -65 153 -105 234 -194 312 -339 27 -50 58 -200 58 -279 -1
-107 -41 -279 -78 -330 -16 -23 -32 -52 -36 -65 -10 -29 -180 -202 -200 -202
-9 0 -33 -15 -54 -34 -24 -22 -58 -40 -96 -49 -32 -9 -76 -28 -99 -44 -39 -27
-44 -28 -191 -31 l-151 -4 -55 38 c-50 35 -61 39 -121 39 -57 0 -70 -4 -103
-29 -21 -15 -58 -55 -82 -88 -55 -76 -56 -97 -8 -277 43 -163 43 -221 2 -235
-24 -8 -32 -5 -72 32 -34 31 -54 42 -78 42 -18 0 -45 8 -59 18 -78 52 -96 62
-111 62 -9 0 -37 18 -62 39 -25 22 -56 43 -68 47 -13 3 -40 22 -61 40 -20 19
-43 34 -50 34 -7 0 -32 20 -55 45 -23 25 -46 45 -50 45 -5 0 -15 12 -22 26 -8
14 -26 32 -40 41 -26 15 -59 56 -120 148 -19 28 -43 63 -53 77 -10 14 -27 58
-38 98 -11 39 -29 91 -41 113 -11 23 -23 69 -26 102 -4 52 2 79 36 185 22 69
43 140 47 159 9 42 89 200 135 266 31 43 112 128 242 251 20 20 53 40 72 45
20 5 48 20 63 33 38 31 61 42 108 51 22 3 63 19 90 35 33 19 78 33 134 41 78
12 84 12 97 -6 22 -30 17 -53 -21 -92 -62 -64 -62 -165 1 -235 20 -24 47 -48
58 -55 22 -13 142 -18 170 -7 9 3 37 38 63 77 58 87 60 119 14 191 -36 59 -43
128 -13 145 22 13 20 13 62 1z"/>
</g>
</svg>
