<?xml version="1.0" standalone="no"?>
<!DOCTYPE svg PUBLIC "-//W3C//DTD SVG 20010904//EN"
 "http://www.w3.org/TR/2001/REC-SVG-20010904/DTD/svg10.dtd">
<svg version="1.0" xmlns="http://www.w3.org/2000/svg"
 width="408.000000pt" height="464.000000pt" viewBox="0 0 408.000000 464.000000"
 preserveAspectRatio="xMidYMid meet">
<metadata>
Created by potrace 1.16, written by Peter Selinger 2001-2019
</metadata>
<rect x="0" y="0" width="408" height="464" fill="#ffffff"/>
<g transform="translate(0.000000,464.000000) scale(0.100000,-0.100000)"
fill="#000000" stroke="none">
<path d="M1965 4620 c-3 -11 -24 -36 -47 -57 -51 -48 -68 -87 -68 -157 0 -64
11 -97 45 -138 29 -34 51 -106 37 -120 -30 -30 -153 -59 -287 -68 -124 -9
-146 -14 -196 -39 -31 -17 -87 -34 -129 -40 -44 -7 -101 -25 -143 -46 -39 -19
-81 -35 -94 -35 -33 0 -85 -23 -107 -48 -10 -12 -35 -25 -55 -28 -45 -8 -81
-26 -105 -52 -10 -12 -31 -24 -47 -27 -17 -4 -50 -24 -75 -46 -25 -21 -51 -39
-58 -39 -7 0 -31 -16 -52 -35 -21 -19 -63 -56 -93 -82 -29 -27 -63 -58 -75
-71 -11 -13 -39 -43 -61 -67 -59 -64 -90 -105 -113 -151 -12 -23 -33 -55 -47
-72 -14 -16 -32 -49 -40 -72 -8 -23 -23 -53 -34 -68 -22 -32 -41 -95 -41 -140
0 -18 -11 -59 -25 -92 -33 -78 -36 -216 -5 -288 11 -26 26 -78 34 -117 15 -74
56 -154 123 -238 86 -110 150 -180 180 -199 18 -11 33 -23 33 -28 0 -5 16 -18
36 -31 20 -12 56 -38 80 -58 60 -50 100 -77 164 -107 30 -14 69 -36 85 -48 17
-13 52 -30 79 -39 27 -9 63 -28 81 -41 17 -14 58 -31 90 -40 31 -8 67 -23 79
-34 31 -28 41 -32 102 -42 39 -7 66 -18 90 -40 19 -16 40 -30 47 -30 7 -1 45
-5 84 -9 60 -7 79 -14 108 -40 20 -17 41 -31 48 -32 95 -4 167 -19 205 -43 23
-14 66 -31 94 -37 29 -5 63 -12 75 -14 33 -7 39 -48 32 -200 -5 -111 -11 -151
-28 -195 -19 -45 -22 -66 -16 -116 4 -41 1 -80 -9 -120 -10 -39 -17 -139 -22
-291 l-7 -233 42 -45 c22 -24 41 -51 41 -60 0 -12 16 -15 88 -15 l87 1 29 47
c16 26 37 69 46 96 17 46 17 53 2 100 -13 44 -15 151 -16 766 -1 698 -1 716
19 749 42 70 56 75 258 83 208 7 277 18 339 49 28 15 73 25 132 30 71 7 103
16 160 44 39 19 83 35 98 35 39 0 76 17 115 50 19 17 43 30 54 30 26 0 56 16
97 51 18 16 41 29 52 29 10 0 40 18 65 40 25 22 52 40 59 40 18 0 207 189 248
247 18 26 47 74 63 107 22 45 37 62 55 66 l25 6 3 290 2 290 -32 15 c-27 12
-37 25 -54 76 -22 65 -44 98 -109 168 -22 24 -50 54 -61 67 -19 21 -36 38 -84
83 -51 49 -110 95 -145 113 -22 11 -49 29 -59 41 -11 12 -36 26 -56 31 -21 6
-54 24 -75 40 -21 17 -50 33 -64 36 -53 12 -82 24 -115 49 -24 18 -53 28 -103
34 -48 6 -83 17 -109 35 -50 32 -121 46 -242 46 -85 0 -100 3 -140 26 -37 22
-53 26 -93 21 -29 -4 -71 0 -104 8 -31 8 -82 15 -113 15 -32 0 -63 5 -70 12
-22 22 -14 67 17 96 38 35 51 70 51 141 0 78 -14 113 -59 149 -21 17 -44 44
-51 61 l-12 31 -114 0 c-103 0 -113 -2 -119 -20z m23 -792 c21 -21 14 -72 -17
-114 -15 -21 -33 -54 -40 -73 -14 -43 -15 -216 0 -242 11 -22 128 -79 160 -79
29 0 135 56 143 75 9 24 7 222 -3 273 -6 29 -19 53 -40 72 -34 32 -39 60 -15
84 25 25 241 22 327 -4 36 -11 100 -25 142 -30 42 -5 80 -12 84 -15 5 -2 65
-9 134 -14 103 -8 139 -15 203 -41 43 -17 109 -35 147 -40 52 -6 80 -16 111
-38 23 -17 66 -35 99 -42 37 -7 70 -22 90 -39 18 -16 50 -38 72 -50 79 -42
255 -209 255 -241 0 -5 18 -29 39 -54 36 -41 40 -52 46 -122 4 -42 5 -120 3
-174 -5 -103 -5 -101 -81 -240 -51 -92 -198 -239 -283 -283 -17 -9 -37 -23
-45 -33 -8 -9 -39 -28 -69 -41 -30 -14 -64 -35 -76 -48 -23 -25 -37 -30 -115
-40 -27 -3 -66 -19 -93 -37 -35 -23 -64 -32 -119 -39 -156 -19 -197 -28 -229
-51 -31 -22 -42 -23 -230 -26 -188 -3 -198 -2 -218 18 l-20 20 25 48 c14 26
25 63 25 82 0 35 16 66 51 101 9 9 20 36 24 59 4 26 20 57 39 79 17 20 44 54
59 76 76 112 187 224 237 240 25 8 108 109 116 142 9 34 -20 124 -49 151 -46
43 -92 44 -382 5 -175 -23 -658 -29 -725 -8 -25 8 -116 18 -202 24 -146 8
-162 11 -221 40 -81 40 -178 51 -224 27 -46 -23 -68 -57 -97 -147 -31 -96 -31
-95 -6 -150 13 -30 20 -66 20 -114 0 -83 11 -125 44 -174 13 -20 31 -61 40
-92 9 -31 23 -62 32 -70 9 -7 26 -35 39 -62 46 -93 227 -280 292 -301 12 -4
32 -20 43 -36 15 -21 38 -35 75 -45 29 -9 59 -23 66 -31 19 -23 45 -34 103
-44 29 -5 74 -22 101 -39 40 -25 59 -31 107 -31 45 0 63 -5 78 -20 26 -26 25
-44 -6 -98 -21 -35 -25 -52 -20 -85 7 -56 -12 -109 -45 -124 -42 -20 -171 1
-237 39 -41 23 -70 31 -138 38 -73 6 -89 11 -113 34 -21 20 -49 32 -102 42
-41 9 -98 29 -127 45 -28 16 -74 34 -102 40 -27 6 -66 24 -86 40 -21 16 -49
32 -63 35 -53 12 -63 16 -94 44 -18 15 -51 33 -73 39 -22 6 -51 23 -65 37 -13
14 -42 35 -64 46 -22 11 -56 35 -76 52 -20 17 -60 49 -89 71 -29 22 -60 49
-69 59 -9 11 -31 34 -50 50 -18 17 -42 49 -52 71 -11 22 -30 55 -43 73 -14 18
-29 55 -35 83 -6 27 -22 71 -36 98 -39 77 -42 122 -13 178 14 26 33 82 43 123
20 83 29 106 56 135 10 11 25 40 34 64 16 45 27 59 174 206 131 132 179 175
196 175 8 0 30 14 49 30 19 17 56 38 83 47 26 9 62 27 79 40 17 12 57 32 90
43 32 11 75 32 96 46 27 19 58 28 115 35 59 7 90 17 128 41 46 28 61 32 170
40 66 4 143 14 170 20 28 7 67 11 88 9 28 -2 44 3 68 23 33 28 68 33 87 14z
m400 -960 c21 -21 13 -59 -19 -89 -17 -16 -37 -49 -45 -75 -7 -25 -26 -61 -42
-79 -19 -21 -33 -52 -41 -92 -6 -33 -23 -75 -36 -93 -28 -38 -45 -89 -45 -137
0 -51 -39 -143 -65 -155 -32 -15 -168 17 -205 48 -15 13 -47 31 -70 39 -40 14
-57 27 -160 128 -60 59 -120 143 -138 192 -7 22 -27 61 -44 87 -61 96 -47 170
36 182 24 4 55 15 68 25 13 10 30 21 38 24 8 3 182 6 386 6 275 1 373 -2 382
-11z"/>
</g>
</svg>
