<?xml version="1.0" standalone="no"?>
<!DOCTYPE svg PUBLIC "-//W3C//DTD SVG 20010904//EN"
 "http://www.w3.org/TR/2001/REC-SVG-20010904/DTD/svg10.dtd">
<svg version="1.0" xmlns="http://www.w3.org/2000/svg"
 width="408.000000pt" height="472.000000pt" viewBox="0 0 408.000000 472.000000"
 preserveAspectRatio="xMidYMid meet">
<metadata>
Created by potrace 1.16, written by Peter Selinger 2001-2019
</metadata>
<rect x="0" y="0" width="408" height="472" fill="#ffffff"/>
<g transform="translate(0.000000,472.000000) scale(0.100000,-0.100000)"
fill="#000000" stroke="none">
<path d="M2012 4695 c-6 -13 -33 -36 -61 -49 -86 -44 -116 -103 -109 -217 3
-64 6 -72 39 -103 35 -35 59 -90 59 -138 0 -40 -33 -61 -98 -64 -31 -1 -74 -9
-95 -18 -22 -10 -88 -20 -161 -26 -129 -10 -160 -17 -208 -51 -20 -15 -56 -24
-111 -30 -45 -6 -91 -16 -102 -24 -11 -8 -30 -22 -43 -31 -12 -9 -43 -21 -69
-25 -26 -5 -63 -20 -83 -34 -20 -14 -59 -32 -87 -40 -36 -11 -59 -25 -73 -45
-14 -19 -36 -33 -63 -41 -23 -6 -53 -21 -67 -34 -14 -13 -39 -31 -56 -41 -17
-11 -46 -34 -65 -52 -19 -19 -65 -60 -104 -91 -38 -32 -83 -77 -100 -101 -16
-23 -46 -61 -66 -84 -20 -22 -46 -60 -58 -83 -11 -23 -26 -45 -32 -49 -6 -3
-21 -27 -33 -53 -12 -25 -34 -67 -49 -93 -19 -31 -30 -67 -33 -105 -7 -77 -21
-109 -55 -134 l-29 -20 0 -137 0 -137 37 -31 c33 -27 37 -37 44 -97 6 -50 18
-83 48 -134 41 -71 100 -149 140 -186 12 -12 30 -31 40 -41 9 -11 26 -29 39
-40 13 -12 43 -39 67 -61 70 -65 111 -95 163 -120 26 -13 54 -31 62 -40 7 -9
34 -28 59 -41 25 -14 61 -36 80 -49 19 -14 43 -25 55 -25 20 0 38 -10 100 -54
15 -10 48 -23 74 -27 26 -5 66 -22 90 -39 23 -16 64 -35 90 -41 26 -6 70 -24
97 -40 29 -16 80 -33 120 -39 40 -6 91 -23 120 -39 28 -16 81 -34 119 -41 39
-6 97 -24 130 -40 37 -17 87 -31 126 -35 117 -11 145 -37 121 -107 -7 -18 -16
-98 -21 -178 -7 -113 -15 -161 -34 -216 -29 -81 -44 -236 -48 -504 l-2 -166
35 -57 34 -56 95 0 95 0 33 54 33 54 2 478 c2 472 2 479 25 531 28 68 39 114
51 233 7 74 16 110 39 155 16 33 35 85 41 116 7 33 24 71 40 92 16 20 34 56
40 80 6 24 22 58 36 75 14 16 33 50 41 76 9 25 25 50 36 56 29 15 152 -8 213
-40 49 -26 53 -26 250 -26 l200 0 72 33 c39 17 86 32 105 32 18 0 47 8 65 18
17 9 55 30 85 46 67 36 148 105 236 199 9 10 34 35 54 56 21 21 45 55 53 75 9
21 27 55 40 75 12 20 31 60 40 89 11 34 27 60 46 74 l29 22 0 298 c0 276 -1
299 -17 304 -38 12 -48 23 -69 75 -24 62 -77 143 -126 193 -18 19 -41 43 -50
53 -64 69 -190 169 -237 189 -20 8 -47 26 -61 39 -14 13 -45 31 -69 40 -25 8
-59 26 -77 40 -17 13 -53 29 -80 36 -27 6 -70 25 -95 41 -28 17 -72 33 -109
39 -34 5 -83 20 -109 33 -61 31 -135 46 -229 46 -55 0 -89 6 -121 20 -24 11
-55 20 -70 20 -14 0 -51 7 -81 15 -30 8 -98 15 -152 15 -135 0 -146 13 -95
115 11 22 32 54 47 72 32 36 48 129 31 176 -18 47 -74 114 -114 137 -21 12
-43 33 -49 46 -10 21 -18 24 -68 24 -51 0 -58 -3 -68 -25z m490 -875 c34 -11
86 -20 114 -20 28 0 69 -6 91 -14 22 -8 99 -17 172 -21 113 -7 139 -11 189
-35 54 -25 110 -41 193 -55 20 -3 54 -18 76 -34 21 -15 62 -36 90 -45 28 -9
57 -24 64 -33 8 -8 38 -27 67 -41 30 -14 56 -31 59 -39 3 -7 25 -25 50 -40 60
-35 223 -241 223 -283 0 -10 -9 -24 -21 -30 -12 -7 -124 -15 -272 -20 -139 -5
-279 -14 -312 -19 -38 -7 -364 -10 -885 -10 -676 0 -836 3 -885 14 -44 11
-182 17 -510 23 -467 9 -497 12 -510 52 -10 31 12 64 84 125 39 33 94 79 122
103 27 23 56 42 64 42 8 0 30 14 49 30 19 17 55 38 81 47 26 8 69 31 96 49 32
21 68 36 100 40 32 4 62 17 86 36 39 31 49 34 131 42 30 3 82 19 118 36 55 27
80 33 193 41 71 5 162 16 202 24 48 9 80 10 97 4 22 -8 23 -13 18 -47 -4 -20
-9 -91 -12 -158 l-6 -121 44 -35 c86 -70 128 -75 201 -27 72 48 77 58 77 179
0 109 0 109 -53 182 -20 29 -14 56 17 68 43 18 230 11 298 -10z m681 -952 c32
-16 14 -42 -55 -78 -117 -61 -152 -82 -193 -116 -22 -19 -62 -52 -88 -74 -27
-22 -52 -40 -57 -40 -17 0 -282 -276 -302 -315 -12 -22 -36 -58 -54 -79 -19
-22 -34 -44 -34 -50 0 -6 -16 -31 -35 -55 -19 -24 -37 -59 -41 -78 -4 -19 -21
-52 -40 -74 -18 -22 -36 -57 -40 -77 -8 -44 -19 -68 -50 -104 -14 -17 -26 -53
-34 -96 -20 -120 -61 -157 -147 -132 -21 6 -71 15 -110 20 -40 5 -92 19 -115
31 -61 31 -93 40 -180 48 -66 7 -82 12 -112 38 -26 24 -51 34 -105 43 -46 8
-85 22 -114 41 -24 16 -68 33 -97 39 -34 6 -64 20 -86 39 -18 17 -51 33 -71
37 -45 8 -68 19 -106 50 -15 13 -45 28 -66 34 -20 5 -48 22 -62 36 -13 14 -42
35 -64 46 -22 12 -55 34 -73 49 -18 16 -39 29 -46 29 -7 0 -28 17 -48 38 -19
20 -42 44 -51 52 -40 35 -117 119 -117 128 0 5 -13 26 -29 46 -17 21 -38 61
-47 89 -9 29 -29 70 -43 91 -23 34 -26 52 -29 138 -5 143 -23 133 266 142 156
5 257 12 295 22 42 11 88 13 166 9 101 -5 110 -4 137 17 l29 23 975 5 c536 3
993 4 1015 2 22 -3 48 -9 58 -14z m705 -97 c2 -13 -6 -37 -18 -53 -11 -15 -30
-47 -40 -71 -11 -23 -39 -66 -63 -95 -46 -57 -154 -152 -173 -152 -6 0 -28
-16 -48 -35 -21 -19 -49 -37 -64 -41 -75 -15 -123 -30 -177 -56 -59 -27 -64
-28 -230 -27 -177 1 -215 9 -215 45 0 20 63 80 112 105 20 10 46 32 57 48 12
16 38 35 59 42 20 6 51 24 69 39 17 16 49 34 70 40 21 7 52 24 69 37 17 12 57
32 90 43 32 11 75 31 94 45 19 13 68 31 108 39 40 8 89 25 108 37 48 29 81 38
139 36 44 -2 50 -5 53 -26z"/>
</g>
</svg>
