<?xml version="1.0" standalone="no"?>
<!DOCTYPE svg PUBLIC "-//W3C//DTD SVG 20010904//EN"
 "http://www.w3.org/TR/2001/REC-SVG-20010904/DTD/svg10.dtd">
<svg version="1.0" xmlns="http://www.w3.org/2000/svg"
 width="416.000000pt" height="416.000000pt" viewBox="0 0 416.000000 416.000000"
 preserveAspectRatio="xMidYMid meet">
<metadata>
Created by potrace 1.16, written by Peter Selinger 2001-2019
</metadata>
<rect x="0" y="0" width="416" height="416" fill="#ffffff"/>
<g transform="translate(0.000000,416.000000) scale(0.100000,-0.100000)"
fill="#000000" stroke="none">
<path d="M1906 4144 c-6 -16 -29 -16 -67 0 -10 4 -27 -4 -47 -23 -37 -36 -45
-38 -185 -45 -68 -4 -126 -13 -160 -25 -123 -45 -144 -51 -188 -56 -28 -4 -65
-18 -92 -36 -26 -17 -68 -34 -96 -38 -49 -8 -101 -33 -101 -50 0 -9 -38 -26
-82 -35 -15 -4 -43 -19 -61 -35 -18 -17 -46 -33 -61 -37 -15 -3 -48 -24 -73
-45 -24 -22 -50 -39 -57 -39 -8 0 -32 -17 -54 -37 -22 -21 -64 -58 -92 -83
-63 -56 -70 -63 -123 -127 -89 -108 -107 -132 -129 -170 -12 -21 -32 -50 -44
-65 -12 -15 -30 -52 -38 -82 -9 -30 -21 -58 -27 -62 -26 -16 -49 -90 -49 -159
0 -52 -5 -78 -20 -102 -11 -18 -24 -33 -29 -33 -4 0 -8 -36 -8 -80 0 -44 4
-80 8 -80 23 0 49 -67 49 -125 0 -63 23 -129 53 -154 9 -7 21 -30 27 -50 9
-34 53 -96 136 -189 69 -80 160 -157 277 -239 18 -12 44 -31 58 -42 15 -12 49
-30 75 -42 27 -11 62 -31 79 -43 16 -13 52 -30 79 -39 27 -9 63 -27 80 -40 17
-13 53 -31 81 -40 27 -10 65 -28 85 -42 20 -14 61 -28 99 -34 47 -8 72 -18 92
-37 19 -19 47 -30 99 -40 39 -7 95 -27 123 -43 40 -23 73 -32 140 -39 69 -8
96 -15 127 -37 45 -31 94 -44 167 -45 63 0 102 -16 109 -45 3 -13 -9 -71 -26
-131 -25 -88 -33 -137 -40 -259 -6 -103 -14 -164 -25 -191 -28 -65 -54 -267
-55 -422 0 -110 1 -115 33 -173 l32 -59 112 0 111 0 10 30 c6 16 22 45 36 62
18 25 26 51 31 108 6 69 5 77 -17 105 l-23 30 0 325 c0 315 1 327 23 378 25
59 52 221 52 310 0 47 5 66 25 93 36 49 42 66 49 142 6 55 13 74 41 107 21 25
35 55 39 84 4 24 18 59 31 78 14 18 32 49 40 68 39 90 31 85 130 82 62 -2 103
-9 134 -23 106 -47 314 -65 401 -34 23 8 55 15 70 15 15 0 47 9 71 20 24 11
60 20 80 20 20 0 56 11 80 25 24 13 67 36 96 49 28 13 56 34 62 45 7 12 29 30
49 40 21 11 55 39 75 63 21 23 60 69 87 101 28 31 50 61 50 66 0 4 13 25 30
46 16 21 35 56 41 78 6 22 22 57 36 78 19 30 29 63 39 144 14 104 26 144 61
198 17 26 17 28 0 55 -34 51 -48 93 -58 173 -8 62 -19 98 -56 169 -25 50 -54
95 -65 101 -10 5 -27 26 -37 47 -24 45 -164 184 -208 206 -18 9 -37 25 -43 36
-6 11 -30 30 -53 41 -23 12 -55 32 -70 45 -15 13 -45 28 -66 34 -21 5 -55 24
-76 40 -21 17 -48 32 -59 35 -68 13 -86 20 -136 51 -38 23 -68 34 -94 34 -20
0 -68 13 -106 30 -74 33 -167 49 -275 50 -52 0 -78 5 -102 20 -18 11 -33 24
-33 29 0 16 -28 20 -60 8 -27 -10 -33 -10 -44 6 -12 15 -38 17 -299 17 -253 0
-286 -2 -291 -16z m654 -334 c32 -13 66 -19 81 -16 15 3 42 0 61 -5 18 -6 104
-17 190 -24 139 -11 163 -16 203 -40 25 -14 80 -33 122 -41 42 -8 99 -27 127
-43 28 -16 74 -36 102 -45 29 -9 60 -26 70 -37 10 -12 35 -29 55 -39 75 -35
206 -156 257 -235 14 -22 39 -54 55 -72 38 -41 46 -86 46 -253 0 -163 -8 -213
-42 -248 -14 -15 -35 -49 -46 -75 -21 -48 -69 -114 -105 -146 -11 -9 -33 -31
-50 -49 -17 -18 -49 -42 -71 -52 -22 -11 -52 -29 -66 -40 -14 -12 -45 -26 -70
-31 -24 -6 -73 -24 -109 -42 l-65 -32 -210 0 -210 0 -42 28 c-22 16 -67 35
-99 44 -38 9 -72 27 -96 49 -21 19 -42 34 -48 34 -9 0 -60 64 -125 155 -16 24
-38 54 -48 69 -11 14 -28 60 -38 102 -19 71 -19 80 -5 122 10 29 16 81 16 144
l0 99 -45 48 c-25 27 -59 54 -75 61 -16 6 -32 19 -35 28 -4 10 -10 141 -12
293 l-6 276 23 23 c22 22 28 22 139 18 87 -4 130 -11 171 -28z m-592 -98 l31
-67 3 -228 3 -229 -32 -28 c-34 -30 -40 -32 -193 -49 -55 -6 -127 -22 -170
-38 -75 -28 -75 -28 -383 -31 l-308 -3 -46 27 c-38 22 -53 26 -94 21 -29 -4
-71 0 -104 8 -31 8 -82 15 -113 15 -64 0 -82 11 -82 50 0 20 20 45 80 103 44
42 98 88 119 101 22 14 42 30 46 36 3 6 25 20 48 31 23 12 57 34 74 50 18 15
50 33 72 39 21 5 55 24 76 40 38 30 46 33 117 45 21 3 55 21 78 40 36 30 49
35 94 35 50 0 100 14 211 58 35 13 87 22 172 27 67 3 143 12 170 19 73 19 95
8 131 -72z m-313 -831 c87 -6 120 -13 160 -33 54 -28 136 -48 191 -48 50 0 71
-14 84 -57 7 -21 23 -54 36 -74 14 -20 29 -61 34 -92 10 -61 20 -87 44 -106 8
-7 22 -34 31 -60 9 -27 27 -59 41 -72 14 -13 33 -37 41 -53 8 -15 42 -57 74
-92 l60 -64 -28 -52 c-15 -28 -43 -65 -61 -83 -17 -18 -38 -53 -46 -78 -8 -26
-26 -60 -40 -77 -14 -17 -30 -50 -37 -73 -6 -23 -23 -64 -39 -92 -15 -27 -33
-75 -39 -106 -7 -32 -21 -65 -32 -75 -19 -17 -22 -17 -72 -1 -29 10 -91 21
-138 27 -64 6 -102 17 -145 39 -38 20 -86 35 -133 41 -49 7 -92 20 -125 39
-28 16 -76 34 -107 40 -31 5 -87 26 -124 45 -36 20 -80 36 -96 36 -36 0 -66
15 -96 46 -12 13 -33 26 -47 29 -14 3 -38 7 -52 10 -14 3 -36 17 -48 30 -13
13 -44 34 -71 45 -26 11 -63 34 -82 50 -18 17 -39 30 -46 30 -7 0 -34 18 -61
40 -26 22 -53 40 -58 40 -17 0 -198 181 -234 235 -18 28 -41 60 -50 72 -27 37
-54 162 -60 271 -4 98 -3 104 20 127 13 13 43 28 67 34 24 6 73 21 109 33 55
19 93 24 245 29 283 8 809 9 930 0z"/>
</g>
</svg>
