<?xml version="1.0" standalone="no"?>
<!DOCTYPE svg PUBLIC "-//W3C//DTD SVG 20010904//EN"
 "http://www.w3.org/TR/2001/REC-SVG-20010904/DTD/svg10.dtd">
<svg version="1.0" xmlns="http://www.w3.org/2000/svg"
 width="408.000000pt" height="416.000000pt" viewBox="0 0 408.000000 416.000000"
 preserveAspectRatio="xMidYMid meet">
<metadata>
Created by potrace 1.16, written by Peter Selinger 2001-2019
</metadata>
<rect x="0" y="0" width="408" height="416" fill="#ffffff"/>
<g transform="translate(0.000000,416.000000) scale(0.100000,-0.100000)"
fill="#000000" stroke="none">
<path d="M1737 4146 c-8 -21 -151 -62 -261 -75 -68 -8 -119 -20 -166 -41 -38
-17 -86 -30 -106 -30 -26 0 -56 -11 -94 -34 -31 -19 -67 -37 -80 -40 -14 -2
-37 -7 -51 -10 -14 -3 -43 -19 -64 -36 -21 -16 -55 -35 -76 -40 -21 -6 -51
-22 -68 -35 -16 -14 -45 -32 -65 -40 -19 -8 -45 -28 -57 -45 -13 -16 -38 -35
-57 -41 -49 -16 -308 -276 -349 -350 -18 -31 -39 -59 -47 -62 -9 -4 -27 -30
-41 -59 -14 -29 -34 -69 -44 -88 -11 -19 -25 -64 -30 -99 -10 -65 -29 -96 -62
-106 -18 -6 -19 -20 -19 -217 l0 -211 34 -37 c19 -21 41 -61 50 -91 30 -103
116 -212 307 -393 20 -19 49 -41 65 -49 16 -8 38 -25 49 -37 11 -12 43 -32 70
-45 28 -12 56 -30 64 -39 8 -10 35 -29 60 -42 25 -14 61 -36 80 -49 19 -14 43
-25 53 -25 23 0 70 -23 87 -43 6 -9 35 -21 64 -27 29 -7 78 -28 110 -47 38
-23 78 -37 118 -43 45 -7 68 -16 95 -39 19 -17 40 -31 47 -31 7 -1 45 -5 84
-9 60 -7 79 -14 108 -40 20 -17 41 -31 48 -32 93 -4 167 -19 203 -42 22 -14
58 -30 79 -36 48 -13 85 -47 85 -79 0 -13 -7 -63 -15 -111 -8 -51 -18 -216
-23 -406 -8 -297 -11 -324 -31 -375 -29 -70 -23 -161 14 -212 13 -18 34 -50
47 -70 l23 -38 88 0 c67 0 87 3 87 14 0 7 19 32 42 55 l43 41 0 523 1 522 26
60 c34 77 35 81 52 203 12 83 21 113 45 151 21 32 34 68 39 109 6 46 16 70 35
90 14 15 37 52 51 82 35 73 92 162 112 173 9 5 30 3 55 -7 22 -9 56 -16 77
-16 20 0 57 -10 82 -21 40 -19 64 -21 230 -21 166 0 190 2 230 21 25 11 66 21
92 21 54 0 94 13 124 41 11 11 43 28 70 38 95 35 211 136 313 275 28 38 51 74
51 81 0 7 13 29 30 50 32 40 33 44 51 130 9 47 19 67 45 92 l34 32 0 228 0
228 -30 17 c-22 13 -33 30 -46 75 -9 32 -26 72 -38 88 -12 17 -34 51 -49 78
-16 26 -32 47 -37 47 -5 0 -21 20 -36 45 -14 25 -30 45 -34 45 -5 0 -29 19
-53 43 -71 67 -125 108 -176 132 -26 13 -53 31 -61 40 -7 9 -32 26 -54 37 -23
11 -53 31 -68 44 -15 12 -51 28 -80 34 -29 6 -78 26 -108 45 -38 25 -66 35
-95 35 -22 0 -65 12 -95 26 -69 32 -160 54 -225 54 -60 0 -195 42 -207 64 -8
14 -56 16 -427 16 -349 0 -420 -2 -424 -14z m910 -331 c29 -17 55 -25 80 -24
21 1 54 -3 73 -9 19 -7 80 -16 135 -20 73 -6 116 -16 160 -35 33 -15 89 -33
125 -42 64 -14 244 -97 278 -128 10 -9 36 -24 57 -33 52 -21 259 -232 291
-296 54 -107 61 -105 -513 -117 -257 -5 -493 -14 -523 -20 -59 -12 -600 -14
-618 -2 -21 13 -32 64 -32 147 0 68 5 96 25 144 20 48 24 70 19 112 -4 36 -1
67 10 97 9 24 16 74 16 112 0 69 12 118 33 131 7 4 86 8 176 8 158 0 166 -1
208 -25z m-761 -43 c3 -15 12 -54 19 -87 9 -38 16 -152 20 -307 5 -243 5 -248
-16 -269 -15 -15 -27 -19 -42 -14 -24 9 -130 12 -747 24 -402 8 -428 10 -484
31 -39 14 -71 19 -91 16 -43 -8 -70 13 -61 48 10 39 115 135 241 220 28 18 59
43 69 55 11 12 36 26 56 31 21 6 54 23 74 39 20 16 59 34 86 40 28 6 74 24
102 40 29 16 90 36 135 45 44 9 107 28 140 43 44 20 82 29 158 34 55 4 118 14
140 22 22 8 75 15 117 15 77 1 78 1 84 -26z m50 -907 c24 -24 24 -28 20 -137
-5 -99 -3 -121 17 -178 21 -62 22 -79 22 -415 0 -342 -1 -351 -23 -402 -18
-42 -21 -63 -16 -106 8 -68 -5 -94 -52 -103 -28 -5 -47 0 -92 23 -56 29 -112
46 -202 59 -25 3 -67 19 -95 34 -27 16 -76 33 -108 39 -60 11 -86 22 -125 52
-13 10 -44 21 -70 24 -70 10 -80 14 -113 46 -16 16 -42 31 -57 34 -15 4 -38 8
-50 11 -13 3 -33 15 -45 28 -29 30 -60 46 -91 46 -15 0 -42 14 -63 34 -21 18
-54 41 -73 51 -19 10 -50 31 -68 46 -18 16 -39 29 -46 29 -7 0 -28 17 -48 38
-19 20 -43 44 -54 53 -10 10 -28 28 -40 40 -11 13 -29 31 -40 40 -36 30 -79
94 -128 189 l-50 95 -4 118 c-3 79 0 122 7 131 8 10 52 16 154 21 78 3 178 13
222 21 51 9 103 12 142 8 54 -5 67 -3 100 17 38 24 40 24 433 29 217 3 444 6
503 8 103 2 109 1 133 -23z m1197 6 c32 -26 20 -51 -35 -77 -126 -60 -187
-101 -288 -193 -25 -23 -78 -69 -117 -102 -40 -33 -85 -76 -100 -96 -16 -20
-48 -60 -73 -89 -79 -94 -97 -118 -118 -160 -12 -23 -32 -54 -44 -70 -45 -55
-96 -149 -113 -206 -24 -82 -55 -109 -86 -72 -11 14 -13 106 -10 505 3 483 7
554 33 571 7 4 220 7 474 6 373 -3 464 -6 477 -17z m717 -96 c12 -34 -13 -102
-55 -151 -93 -107 -204 -213 -246 -232 -24 -12 -55 -31 -69 -42 -16 -13 -62
-27 -125 -39 -55 -11 -124 -29 -153 -40 -77 -31 -176 -37 -232 -16 -25 10 -62
20 -82 22 -21 3 -38 7 -38 9 0 20 66 104 89 114 16 6 38 21 48 32 10 11 36 29
58 40 22 11 54 36 71 54 21 22 41 34 59 34 32 0 63 15 92 46 12 13 33 26 47
29 14 3 37 7 51 10 13 3 38 19 55 35 31 30 42 34 118 45 23 3 72 21 109 41 59
31 73 35 131 32 54 -3 66 -6 72 -23z"/>
</g>
</svg>
