<?xml version="1.0" standalone="no"?>
<!DOCTYPE svg PUBLIC "-//W3C//DTD SVG 20010904//EN"
 "http://www.w3.org/TR/2001/REC-SVG-20010904/DTD/svg10.dtd">
<svg version="1.0" xmlns="http://www.w3.org/2000/svg"
 width="400.000000pt" height="432.000000pt" viewBox="0 0 400.000000 432.000000"
 preserveAspectRatio="xMidYMid meet">
<metadata>
Created by potrace 1.16, written by Peter Selinger 2001-2019
</metadata>
<rect x="0" y="0" width="400" height="432" fill="#ffffff"/>
<g transform="translate(0.000000,432.000000) scale(0.100000,-0.100000)"
fill="#000000" stroke="none">
<path d="M1705 4297 c-20 -32 -52 -45 -138 -58 -55 -8 -81 -18 -111 -41 -21
-17 -56 -35 -79 -40 -23 -5 -57 -24 -79 -43 -21 -19 -44 -35 -52 -35 -20 0
-107 -72 -201 -165 -89 -90 -133 -143 -166 -201 -12 -21 -32 -51 -44 -66 -12
-14 -27 -46 -34 -71 -6 -25 -22 -58 -35 -74 -14 -16 -30 -50 -37 -76 -6 -25
-18 -52 -27 -59 -12 -10 -79 -12 -303 -9 l-287 3 -56 -33 -55 -34 -1 -77 0
-76 30 -7 c17 -4 42 -22 61 -46 30 -39 31 -39 100 -39 39 0 100 7 136 17 52
13 77 14 115 6 34 -7 54 -6 67 1 70 41 85 47 107 42 34 -9 46 -38 35 -85 -4
-21 -5 -89 -1 -149 6 -85 12 -119 28 -147 12 -19 29 -63 37 -97 9 -33 27 -75
40 -92 13 -17 33 -52 44 -79 11 -26 27 -50 36 -53 9 -4 27 -26 41 -50 30 -50
241 -257 287 -281 18 -8 47 -29 65 -44 18 -16 49 -36 70 -45 20 -8 48 -26 62
-39 14 -13 45 -31 69 -40 25 -8 59 -26 76 -39 17 -13 49 -29 72 -35 22 -6 58
-24 81 -41 22 -16 68 -36 102 -45 73 -19 132 -55 149 -91 7 -17 11 -137 11
-388 0 -331 -2 -368 -19 -418 -26 -74 -49 -216 -60 -363 -6 -80 -16 -138 -30
-173 -29 -72 -26 -107 12 -171 29 -48 41 -58 100 -84 l67 -30 75 33 c42 18 80
41 85 51 15 27 12 257 -5 369 -8 54 -25 123 -37 152 l-23 53 0 625 0 625 23
53 c12 29 22 68 22 87 0 18 7 41 16 49 17 17 25 19 123 35 39 6 80 21 104 37
26 17 62 29 103 34 44 6 73 16 97 34 19 14 56 34 83 43 27 9 63 26 79 38 17
12 51 34 78 49 26 15 47 31 47 36 0 5 19 21 43 35 24 13 49 36 56 49 7 13 24
30 38 37 14 7 31 26 39 41 8 15 26 35 40 44 14 10 35 35 46 58 11 23 31 55 43
71 12 17 28 48 35 70 7 22 22 56 34 75 13 19 29 53 36 75 16 52 47 85 79 85
14 0 62 -7 106 -15 88 -17 367 -32 407 -22 17 5 37 25 57 57 17 28 42 56 56
62 22 10 25 17 25 64 0 42 -4 54 -18 59 -11 3 -33 23 -50 44 -22 28 -49 46
-89 61 -66 25 -118 23 -221 -10 -49 -15 -92 -20 -187 -20 -153 0 -155 1 -155
108 -1 80 -16 140 -45 172 -9 10 -23 39 -30 64 -14 46 -86 156 -135 207 -14
15 -37 39 -51 55 -62 68 -198 171 -254 193 -22 9 -60 28 -85 43 -25 14 -72 32
-104 38 -77 16 -102 27 -121 57 l-15 23 -360 0 -360 0 -15 -23z m458 -269 c12
-6 89 -17 171 -24 139 -11 151 -14 190 -42 23 -17 66 -35 98 -41 37 -8 72 -24
97 -44 22 -18 53 -41 70 -52 82 -55 143 -109 165 -148 14 -24 37 -54 51 -67
14 -13 32 -47 40 -75 9 -29 27 -62 45 -78 31 -30 37 -55 20 -88 -8 -15 -22
-19 -58 -19 -26 0 -69 -7 -97 -15 -37 -12 -77 -14 -155 -10 -91 4 -114 2 -170
-18 -59 -20 -84 -22 -261 -22 -223 0 -223 0 -263 85 -19 42 -21 65 -24 309 -4
279 -1 321 24 346 19 18 28 19 57 3z m-303 -48 c12 -12 20 -33 20 -54 0 -19 9
-53 20 -77 16 -36 20 -66 20 -169 0 -112 -3 -130 -25 -178 -13 -29 -30 -82
-36 -117 -18 -103 -11 -100 -206 -103 -161 -3 -170 -2 -213 21 -43 22 -52 23
-240 21 -158 -2 -199 0 -217 12 -34 22 -30 66 11 111 18 21 43 56 54 79 21 40
187 215 253 265 19 15 54 37 79 49 25 13 57 33 72 45 15 13 51 28 80 35 29 7
73 24 98 39 60 35 74 39 148 40 50 1 66 -3 82 -19z m-66 -850 c15 -5 33 -24
42 -42 11 -24 34 -43 77 -66 34 -18 70 -32 80 -32 35 0 145 70 166 105 13 23
28 35 48 37 15 2 223 -1 461 -7 465 -11 451 -9 452 -62 0 -12 -12 -35 -26 -52
-14 -17 -36 -57 -49 -90 -37 -94 -164 -244 -240 -283 -22 -11 -54 -33 -71 -48
-18 -16 -49 -30 -75 -34 -24 -4 -68 -21 -99 -39 -55 -32 -56 -32 -211 -35
l-156 -4 -47 41 c-44 38 -52 41 -106 41 -58 0 -60 -1 -131 -62 l-72 -63 7
-215 c4 -118 7 -224 7 -235 0 -18 -25 -45 -42 -45 -3 0 -24 12 -45 26 -21 15
-61 33 -88 40 -27 7 -61 24 -75 37 -14 14 -43 30 -63 37 -21 6 -56 27 -79 46
-22 19 -47 34 -54 34 -8 0 -35 18 -60 40 -25 22 -51 40 -56 40 -18 0 -218 201
-250 251 -17 27 -35 49 -40 49 -8 0 -19 20 -58 110 -6 14 -21 37 -33 53 -26
32 -37 109 -37 270 -1 155 -15 147 257 148 198 2 617 13 634 17 4 1 18 -2 32
-8z"/>
</g>
</svg>
