<?xml version="1.0" standalone="no"?>
<!DOCTYPE svg PUBLIC "-//W3C//DTD SVG 20010904//EN"
 "http://www.w3.org/TR/2001/REC-SVG-20010904/DTD/svg10.dtd">
<svg version="1.0" xmlns="http://www.w3.org/2000/svg"
 width="400.000000pt" height="472.000000pt" viewBox="0 0 400.000000 472.000000"
 preserveAspectRatio="xMidYMid meet">
<metadata>
Created by potrace 1.16, written by Peter Selinger 2001-2019
</metadata>
<rect x="0" y="0" width="400" height="472" fill="#ffffff"/>
<g transform="translate(0.000000,472.000000) scale(0.100000,-0.100000)"
fill="#000000" stroke="none">
<path d="M1920 4709 c0 -6 -27 -36 -61 -67 -33 -31 -67 -69 -75 -84 -22 -43
-18 -102 11 -136 27 -32 33 -83 13 -100 -7 -6 -31 -13 -53 -17 -22 -4 -58 -18
-80 -31 -22 -12 -57 -25 -77 -28 -21 -3 -54 -8 -72 -11 -19 -3 -54 -21 -76
-40 -23 -19 -51 -35 -61 -35 -25 0 -71 -23 -89 -45 -7 -9 -29 -22 -47 -30 -19
-8 -55 -31 -80 -52 -51 -42 -190 -179 -239 -237 l-31 -36 -191 0 c-162 0 -200
3 -254 20 -34 11 -85 20 -113 20 -27 0 -75 7 -105 15 -81 22 -95 19 -150 -30
-28 -25 -60 -45 -70 -45 -18 0 -20 -7 -20 -89 l0 -89 68 -32 67 -32 95 12 c54
6 180 10 294 8 172 -3 200 -5 209 -20 13 -20 -25 -183 -55 -233 -47 -80 -47
-450 1 -530 11 -20 28 -63 36 -97 9 -33 27 -75 41 -93 13 -17 29 -47 35 -66
22 -64 308 -368 377 -401 24 -12 46 -28 49 -36 3 -8 33 -26 67 -42 34 -15 68
-35 76 -45 8 -9 37 -28 65 -41 27 -13 64 -35 82 -48 18 -13 49 -26 71 -29 21
-4 57 -20 80 -37 23 -16 62 -34 88 -40 60 -14 94 -32 138 -73 l36 -34 0 -369
c0 -346 -2 -372 -20 -413 -11 -24 -20 -55 -20 -70 0 -14 -5 -42 -11 -61 -6
-19 -17 -105 -24 -190 -10 -112 -19 -168 -34 -200 -33 -75 -36 -119 -11 -178
27 -63 39 -73 123 -107 l68 -27 65 28 c99 42 104 52 104 203 -1 169 -21 311
-52 353 l-23 33 -3 654 -2 654 25 43 c17 30 24 51 19 68 -8 32 2 62 24 71 9 4
54 13 100 20 58 9 95 21 124 40 27 18 62 30 104 35 44 6 73 16 97 34 19 14 56
34 83 43 27 9 63 26 79 38 17 12 51 34 78 49 26 15 47 31 47 36 0 5 19 21 43
35 24 13 49 35 56 48 7 13 26 31 42 41 16 9 29 21 29 27 0 5 15 26 34 46 53
59 122 165 136 209 6 21 22 55 35 75 39 61 45 103 45 341 0 193 2 229 16 242
23 24 164 21 245 -3 99 -30 243 -55 274 -47 47 12 124 95 145 156 22 64 18 79
-45 160 -32 41 -54 60 -76 65 -42 9 -264 -5 -314 -20 -22 -6 -56 -10 -77 -7
-26 3 -48 -3 -80 -22 -49 -28 -106 -34 -171 -15 -30 8 -45 21 -65 55 -32 54
-199 223 -274 278 -29 22 -75 47 -102 57 -27 10 -59 27 -70 37 -31 28 -39 31
-103 43 -31 6 -78 21 -103 34 -52 26 -151 45 -236 45 -33 0 -65 5 -72 12 -17
17 -15 60 4 108 29 72 -2 167 -64 199 -24 12 -44 32 -52 50 -12 30 -15 31 -76
31 -40 0 -64 -4 -64 -11z m251 -683 c19 -8 88 -17 154 -21 124 -8 141 -12 188
-51 15 -13 48 -26 75 -30 69 -9 201 -77 225 -115 14 -22 2 -48 -25 -57 -13 -4
-173 -5 -356 -2 -281 4 -334 7 -342 20 -5 8 -10 63 -10 123 0 94 2 109 20 127
24 24 28 24 71 6z m-267 -38 c12 -16 16 -47 16 -109 0 -136 19 -128 -308 -130
-237 -2 -275 -1 -288 13 -26 26 -8 54 54 83 31 15 64 33 72 40 8 7 47 22 85
34 39 11 88 33 110 48 30 20 57 29 110 34 126 11 133 11 149 -13z m-22 -503
c-1 -38 -7 -84 -13 -102 -5 -17 -14 -70 -19 -117 -11 -107 -21 -126 -63 -126
-18 0 -38 5 -45 12 -6 6 -38 15 -69 19 -32 4 -85 12 -118 18 -68 12 -314 15
-331 3 -23 -16 -75 -125 -70 -146 10 -39 65 -116 98 -137 46 -28 134 -22 208
16 49 25 71 29 204 37 l149 9 36 -35 c45 -44 78 -56 147 -56 48 0 59 4 86 30
44 44 59 50 135 50 68 0 74 -2 149 -55 40 -28 235 -35 283 -11 55 29 71 68 71
176 0 109 -6 122 -77 169 -66 44 -139 44 -208 0 -31 -20 -70 -34 -107 -39 -32
-5 -73 -13 -92 -20 -51 -16 -79 0 -110 62 -55 113 -62 278 -13 309 17 12 638
10 697 -2 30 -6 90 -13 132 -16 77 -5 78 -6 123 -52 25 -26 47 -59 51 -76 3
-17 4 -105 2 -196 -3 -161 -4 -167 -30 -205 -15 -21 -35 -62 -46 -90 -32 -85
-163 -238 -237 -276 -22 -11 -54 -33 -71 -48 -18 -16 -49 -30 -75 -34 -24 -4
-68 -21 -99 -39 -55 -32 -56 -32 -211 -35 l-156 -4 -47 41 c-44 38 -52 41
-106 41 -57 0 -60 -2 -125 -57 -36 -32 -68 -68 -72 -82 -3 -13 -3 -120 0 -238
4 -181 3 -216 -10 -228 -19 -20 -24 -19 -69 11 -21 15 -61 33 -88 40 -27 7
-58 22 -70 33 -11 11 -43 29 -70 41 -27 11 -64 34 -83 50 -18 17 -40 30 -48
30 -8 0 -32 15 -52 34 -21 18 -51 40 -68 49 -30 15 -208 195 -278 280 -21 26
-44 69 -52 96 -9 27 -22 54 -31 62 -42 35 -48 66 -48 269 -1 225 5 274 41 327
15 21 32 61 39 90 9 39 25 67 65 113 30 33 63 63 74 65 11 2 29 6 40 9 11 2
184 3 385 3 l365 -2 -3 -70z"/>
</g>
</svg>
