<?xml version="1.0" standalone="no"?>
<!DOCTYPE svg PUBLIC "-//W3C//DTD SVG 20010904//EN"
 "http://www.w3.org/TR/2001/REC-SVG-20010904/DTD/svg10.dtd">
<svg version="1.0" xmlns="http://www.w3.org/2000/svg"
 width="336.000000pt" height="456.000000pt" viewBox="0 0 336.000000 456.000000"
 preserveAspectRatio="xMidYMid meet">
<metadata>
Created by potrace 1.16, written by Peter Selinger 2001-2019
</metadata>
<rect x="0" y="0" width="336" height="456" fill="#ffffff"/>
<g transform="translate(0.000000,456.000000) scale(0.100000,-0.100000)"
fill="#000000" stroke="none">
<path d="M1274 4538 c-4 -13 -22 -41 -42 -62 l-35 -39 6 -80 c4 -46 2 -87 -3
-98 -6 -10 -29 -23 -53 -29 -23 -7 -60 -23 -81 -37 -33 -21 -115 -41 -182 -43
-6 0 -28 -13 -49 -30 -21 -16 -55 -35 -76 -40 -21 -6 -51 -21 -66 -34 -15 -13
-47 -33 -70 -45 -23 -11 -47 -30 -53 -41 -6 -11 -27 -29 -48 -39 -43 -22 -182
-162 -205 -206 -8 -17 -25 -39 -37 -50 -12 -11 -31 -38 -42 -60 -11 -22 -30
-53 -43 -70 -12 -16 -30 -57 -40 -90 -9 -33 -25 -71 -35 -85 -25 -35 -40 -95
-40 -158 0 -57 -16 -96 -50 -125 -15 -13 -19 -23 -13 -35 4 -9 8 -76 8 -148 1
-114 3 -134 22 -165 12 -18 26 -67 32 -107 12 -77 29 -119 55 -141 9 -8 21
-31 26 -52 6 -21 21 -51 34 -66 13 -15 30 -41 39 -58 8 -16 30 -44 49 -61 18
-17 43 -42 54 -55 19 -22 35 -37 84 -84 36 -35 107 -92 135 -109 17 -10 41
-29 55 -41 14 -12 42 -28 62 -35 21 -6 47 -24 58 -40 14 -20 37 -34 73 -44 30
-9 62 -24 71 -35 10 -11 47 -30 81 -41 35 -12 69 -28 77 -37 19 -23 72 -43
114 -43 31 0 45 -8 85 -49 l49 -48 0 -254 c0 -235 -2 -257 -21 -299 -16 -35
-21 -69 -23 -150 -2 -58 -8 -123 -14 -145 -9 -37 -19 -227 -24 -510 -3 -110
-3 -110 32 -167 l35 -57 110 0 110 0 37 77 c51 106 55 145 25 218 -23 56 -25
72 -31 351 -4 160 -12 307 -17 325 -6 18 -12 89 -13 158 -2 98 -7 134 -22 165
-17 36 -19 71 -22 394 -3 311 -1 355 13 371 12 13 38 18 120 22 90 5 114 10
167 36 47 23 151 52 183 52 1 0 19 13 39 30 21 16 61 36 90 44 30 9 59 23 67
32 7 8 29 24 48 34 20 10 50 34 68 54 17 20 38 36 45 36 17 0 198 182 198 199
0 6 16 28 35 50 19 21 41 56 49 78 18 51 81 149 100 156 8 3 54 3 100 0 83 -6
93 -9 160 -57 22 -15 51 -20 146 -24 173 -7 178 -4 216 136 16 60 16 67 0 117
-12 39 -27 62 -54 83 -57 44 -76 52 -134 52 -43 0 -64 -6 -103 -31 -30 -19
-70 -34 -104 -39 -31 -4 -76 -13 -100 -20 -24 -6 -54 -9 -67 -6 -32 8 -48 64
-40 141 4 43 1 81 -9 121 -23 88 -8 119 52 102 18 -5 93 -13 166 -17 125 -7
135 -9 181 -39 41 -26 60 -32 107 -32 47 0 62 5 94 30 21 17 48 30 61 30 l24
0 0 134 0 133 -64 33 c-60 31 -67 32 -147 28 -64 -4 -103 -13 -164 -38 -71
-29 -94 -33 -229 -41 -83 -5 -157 -7 -166 -4 -15 6 -59 56 -161 183 -27 34
-56 62 -63 62 -7 0 -28 17 -47 38 -19 20 -48 45 -65 55 -16 9 -44 28 -63 42
-19 14 -44 25 -57 25 -12 0 -41 16 -64 35 -42 35 -50 38 -124 50 -22 4 -61 18
-88 31 -52 26 -148 43 -245 44 -87 0 -94 9 -91 118 3 84 2 89 -29 136 -18 27
-33 53 -33 58 0 4 -40 8 -89 8 -84 0 -90 -1 -97 -22z m438 -613 c93 -9 146
-19 168 -32 81 -46 97 -53 132 -53 27 0 47 -8 70 -29 18 -15 52 -38 75 -49 73
-38 66 -90 -12 -94 -22 -1 -166 2 -319 6 -336 11 -316 2 -316 134 0 93 14 132
48 132 9 0 78 -7 154 -15z m-492 -25 c27 -27 26 -135 -2 -247 -24 -100 -19
-140 25 -190 l32 -36 3 -506 2 -506 -35 -55 c-19 -30 -35 -64 -35 -76 0 -11
13 -41 30 -65 35 -51 37 -65 44 -222 4 -107 3 -120 -15 -138 -28 -28 -61 -23
-99 16 -24 25 -47 37 -86 45 -30 7 -68 24 -90 41 -20 16 -54 34 -75 39 -22 6
-54 24 -72 39 -17 16 -50 38 -73 49 -22 11 -46 28 -54 37 -7 9 -27 23 -44 32
-33 17 -276 257 -276 273 0 5 -14 25 -30 44 -17 19 -39 59 -50 90 -10 30 -31
77 -47 103 -28 48 -28 49 -28 223 l0 175 32 55 c17 30 36 82 42 115 7 37 22
76 41 101 16 23 34 54 40 69 14 36 68 102 161 194 96 97 153 142 209 169 25
12 60 33 79 47 19 14 55 27 83 31 29 4 61 16 76 29 46 38 65 44 130 45 49 0
66 -4 82 -20z m1182 -443 c62 -32 76 -67 87 -228 8 -110 7 -138 -4 -155 -21
-33 -70 -35 -149 -8 -38 13 -81 24 -95 24 -14 0 -58 7 -96 15 -43 9 -125 15
-211 15 -159 0 -153 3 -193 -86 l-23 -51 21 -49 c55 -124 156 -157 277 -92 56
29 68 32 217 40 87 6 165 7 174 4 22 -9 11 -81 -17 -115 -11 -14 -34 -46 -50
-70 -16 -24 -41 -52 -54 -60 -14 -9 -34 -29 -46 -43 -12 -15 -40 -37 -63 -48
-23 -11 -57 -31 -76 -45 -18 -13 -50 -27 -70 -30 -43 -7 -65 -17 -110 -50 -32
-24 -41 -25 -177 -25 -78 0 -155 5 -170 10 -24 9 -58 34 -116 85 -17 14 -18
43 -18 345 0 314 1 333 22 392 14 41 21 81 19 114 -3 81 14 90 191 99 78 4
158 13 178 20 24 9 106 13 272 13 224 0 240 -1 280 -21z"/>
</g>
</svg>
