<?xml version="1.0" standalone="no"?>
<!DOCTYPE svg PUBLIC "-//W3C//DTD SVG 20010904//EN"
 "http://www.w3.org/TR/2001/REC-SVG-20010904/DTD/svg10.dtd">
<svg version="1.0" xmlns="http://www.w3.org/2000/svg"
 width="400.000000pt" height="472.000000pt" viewBox="0 0 400.000000 472.000000"
 preserveAspectRatio="xMidYMid meet">
<metadata>
Created by potrace 1.16, written by Peter Selinger 2001-2019
</metadata>
<rect x="0" y="0" width="400" height="472" fill="#ffffff"/>
<g transform="translate(0.000000,472.000000) scale(0.100000,-0.100000)"
fill="#000000" stroke="none">
<path d="M1927 4701 c-2 -11 -23 -32 -45 -48 -44 -31 -98 -110 -108 -159 -5
-25 1 -38 30 -73 56 -66 43 -108 -34 -118 -25 -3 -66 -16 -91 -29 -37 -18
-140 -43 -181 -44 -3 0 -25 -16 -48 -35 -23 -19 -51 -35 -62 -35 -25 0 -55
-16 -96 -51 -18 -16 -39 -29 -47 -29 -17 0 -178 -141 -240 -210 -22 -25 -54
-60 -71 -77 l-32 -33 -190 0 c-162 0 -200 3 -254 20 -34 11 -84 20 -110 20
-25 0 -74 7 -107 16 -73 18 -92 13 -149 -37 -24 -21 -53 -39 -65 -41 -20 -3
-22 -10 -25 -74 l-3 -71 53 -36 c61 -42 128 -58 190 -46 24 4 145 8 270 9 207
0 228 -2 237 -18 6 -12 4 -28 -6 -52 -8 -19 -18 -62 -23 -96 -5 -41 -17 -75
-36 -104 l-29 -44 0 -205 0 -206 32 -49 c26 -38 33 -60 33 -96 0 -36 7 -58 30
-91 32 -48 38 -90 16 -108 -11 -10 -26 -9 -67 3 -33 10 -91 16 -154 16 l-102
0 -56 -57 c-53 -52 -57 -59 -57 -103 0 -36 7 -56 30 -88 16 -23 39 -46 50 -52
15 -8 119 -11 346 -8 l325 3 37 -38 c35 -37 168 -137 181 -137 3 0 22 -10 41
-22 19 -13 59 -32 89 -43 109 -41 90 -85 -38 -85 -64 0 -82 4 -128 30 -34 20
-74 33 -111 36 l-59 6 -54 -47 c-72 -63 -79 -73 -79 -114 0 -95 34 -140 126
-167 47 -13 59 -13 106 0 29 8 114 17 188 21 74 3 153 10 175 16 22 6 104 12
182 14 132 3 142 2 160 -17 17 -19 18 -45 18 -412 l0 -391 -24 -32 c-17 -23
-22 -40 -19 -64 3 -19 -1 -52 -8 -74 -8 -22 -18 -101 -22 -176 -7 -119 -11
-139 -32 -169 -31 -44 -29 -74 11 -144 31 -54 40 -62 101 -89 l66 -29 69 27
c37 15 76 34 85 42 28 25 42 116 29 197 -5 39 -13 107 -17 151 -4 44 -13 97
-20 119 -8 21 -14 51 -14 66 0 15 -9 47 -20 71 -18 42 -20 67 -20 465 0 511
-15 467 153 460 62 -2 133 -9 157 -15 25 -6 98 -15 162 -20 95 -8 127 -15 170
-37 36 -18 75 -29 119 -32 l66 -4 56 55 c65 63 77 88 77 158 0 58 -6 71 -52
120 -48 51 -68 59 -147 59 -89 0 -162 -16 -226 -48 -52 -26 -67 -27 -407 -45
-95 -5 -113 1 -123 43 -4 18 2 37 20 64 18 26 26 50 25 75 -4 71 0 90 24 118
20 23 37 30 101 39 54 9 89 21 118 41 37 25 53 28 134 31 86 4 96 2 139 -23
42 -24 52 -26 112 -20 49 4 79 2 109 -9 30 -11 105 -17 250 -22 190 -6 213 -8
262 -30 65 -29 76 -30 143 -3 61 24 79 38 119 93 21 28 29 51 29 82 0 37 -7
51 -56 108 l-56 66 -127 0 c-69 0 -173 -7 -231 -16 -58 -8 -124 -17 -148 -19
-23 -2 -57 -13 -76 -24 -43 -27 -92 -28 -106 -1 -14 25 1 56 32 66 29 9 204
180 225 219 8 17 23 39 33 50 10 11 25 43 34 72 10 28 25 62 35 75 36 46 43
72 50 178 6 86 11 112 29 137 29 40 28 81 -3 134 -32 56 -34 128 -5 154 17 16
33 17 132 13 80 -4 128 -12 163 -26 28 -11 85 -26 126 -33 95 -16 121 -7 187
66 26 29 58 57 70 64 18 10 22 20 22 64 0 47 -3 54 -30 69 -16 9 -42 35 -57
57 -41 58 -64 65 -196 57 -61 -4 -132 -12 -157 -18 -25 -6 -69 -10 -98 -9 -40
1 -63 -5 -96 -24 -78 -45 -180 -29 -224 36 -27 41 -101 133 -124 157 -68 66
-174 142 -247 178 -30 14 -67 36 -82 49 -18 14 -52 27 -95 34 -37 7 -88 22
-113 35 -53 27 -152 46 -237 46 -33 0 -65 5 -72 12 -19 19 -14 60 13 103 13
22 25 48 25 57 0 33 -71 148 -102 164 -16 8 -34 26 -40 39 -10 23 -17 25 -73
25 -54 0 -63 -3 -68 -19z m261 -676 c26 -8 103 -18 171 -24 114 -8 126 -11
166 -40 24 -17 66 -36 94 -42 28 -6 67 -22 87 -35 20 -14 54 -32 76 -41 52
-21 67 -49 40 -76 -24 -23 3 -22 -404 -19 -263 2 -309 4 -322 18 -20 19 -23
202 -5 237 22 41 31 43 97 22z m-284 -37 c12 -16 16 -47 16 -109 0 -136 19
-128 -308 -130 -242 -3 -274 -1 -289 14 -26 26 -4 61 49 79 24 8 60 27 81 41
21 14 60 30 88 36 28 6 70 25 94 42 34 25 58 32 116 39 127 13 136 12 153 -12z
m-9 -442 c28 -20 29 -77 2 -117 -13 -20 -27 -57 -30 -85 -12 -107 -26 -176
-38 -190 -15 -18 -68 -18 -93 1 -11 8 -34 15 -50 15 -17 0 -63 7 -101 15 -43
9 -125 15 -211 15 -160 0 -156 2 -194 -87 l-22 -51 22 -49 c54 -123 155 -156
276 -91 53 28 71 32 184 39 69 4 136 8 150 8 24 1 47 -11 119 -64 59 -44 145
-32 230 30 27 20 46 25 90 25 55 0 65 -4 135 -54 22 -15 51 -20 146 -24 192
-8 210 8 210 187 l0 110 -42 34 c-62 49 -80 57 -140 57 -43 0 -64 -6 -103 -31
-32 -21 -70 -34 -111 -40 -34 -5 -74 -13 -89 -19 -15 -6 -36 -8 -46 -5 -26 9
-59 54 -59 82 0 13 -11 50 -25 83 -34 82 -31 188 7 211 18 12 638 10 698 -1
30 -6 92 -14 137 -18 72 -6 85 -10 113 -37 48 -45 57 -71 64 -180 10 -149 -5
-275 -38 -325 -14 -22 -35 -64 -46 -92 -24 -64 -155 -211 -238 -266 -30 -20
-66 -44 -79 -53 -14 -9 -43 -20 -66 -23 -23 -4 -66 -21 -97 -39 -55 -32 -56
-32 -211 -35 l-156 -4 -47 41 c-44 38 -51 41 -108 41 l-60 0 -82 -80 -82 -80
-333 0 c-385 0 -382 -1 -435 82 -18 29 -43 62 -55 72 -12 11 -28 42 -36 70 -8
27 -27 62 -42 78 -23 24 -27 39 -35 125 -12 137 -1 347 22 399 10 23 23 44 29
48 6 4 18 33 27 64 15 54 91 183 117 199 28 17 105 21 444 21 255 0 367 -4
378 -12z m-69 -1327 c14 -15 20 -44 25 -112 4 -51 11 -106 14 -123 10 -45 -16
-51 -79 -19 -28 14 -71 32 -95 40 -25 9 -60 27 -78 41 -18 14 -47 30 -64 36
-37 13 -137 70 -161 92 -22 20 -22 30 -2 50 13 14 47 16 218 16 192 0 204 -1
222 -21z"/>
</g>
</svg>
