<?xml version="1.0" standalone="no"?>
<!DOCTYPE svg PUBLIC "-//W3C//DTD SVG 20010904//EN"
 "http://www.w3.org/TR/2001/REC-SVG-20010904/DTD/svg10.dtd">
<svg version="1.0" xmlns="http://www.w3.org/2000/svg"
 width="400.000000pt" height="464.000000pt" viewBox="0 0 400.000000 464.000000"
 preserveAspectRatio="xMidYMid meet">
<metadata>
Created by potrace 1.16, written by Peter Selinger 2001-2019
</metadata>
<rect x="0" y="0" width="400" height="464" fill="#ffffff"/>
<g transform="translate(0.000000,464.000000) scale(0.100000,-0.100000)"
fill="#000000" stroke="none">
<path d="M1868 4593 c-34 -72 -31 -182 7 -247 23 -39 26 -51 17 -71 -12 -25
-63 -45 -118 -45 -17 0 -56 -13 -86 -29 -41 -22 -140 -51 -173 -51 -1 0 -19
-13 -40 -30 -21 -16 -55 -35 -76 -40 -21 -6 -51 -21 -66 -34 -15 -13 -47 -33
-70 -45 -23 -11 -47 -30 -53 -41 -6 -11 -27 -28 -48 -39 -39 -20 -136 -117
-187 -186 -17 -22 -34 -43 -40 -47 -5 -4 -102 -8 -214 -8 -202 0 -205 0 -248
26 -40 23 -51 25 -111 19 -50 -5 -76 -2 -104 9 -21 9 -49 16 -63 16 -45 0
-165 -129 -165 -177 1 -31 54 -117 81 -130 31 -15 41 -15 384 -5 247 8 281 7
293 -6 20 -26 14 -51 -23 -89 -19 -20 -35 -41 -36 -47 0 -6 -4 -63 -8 -127 -6
-99 -10 -119 -30 -145 -21 -27 -22 -35 -16 -104 4 -41 15 -91 25 -110 10 -21
20 -68 23 -115 4 -69 11 -94 51 -178 44 -93 80 -150 144 -227 15 -19 39 -52
51 -72 12 -21 26 -38 30 -38 5 0 53 -39 109 -88 109 -94 165 -137 221 -166 20
-10 51 -31 68 -47 18 -15 51 -33 72 -39 25 -7 48 -22 61 -40 15 -21 36 -34 66
-41 24 -6 60 -24 80 -40 20 -16 53 -31 73 -34 74 -12 83 -17 127 -61 l44 -46
0 -372 c0 -355 -1 -376 -21 -432 -16 -44 -22 -86 -24 -164 -1 -58 -6 -116 -12
-130 -12 -29 -27 -327 -18 -352 4 -9 23 -28 44 -41 21 -14 44 -39 51 -56 11
-29 16 -31 60 -31 44 0 49 3 60 30 14 35 29 45 82 54 21 4 50 18 66 31 16 14
51 34 78 45 27 12 58 30 69 40 11 11 41 28 67 40 26 11 50 25 53 30 4 6 30 26
58 45 174 118 311 257 343 348 8 23 26 59 41 79 32 46 42 97 43 208 0 112 -15
198 -39 224 -11 12 -28 41 -39 66 -11 25 -37 69 -58 99 -43 58 -161 181 -175
181 -5 0 -26 15 -46 34 -21 18 -55 39 -76 46 -21 6 -52 25 -68 41 -16 16 -41
31 -54 34 -14 3 -36 7 -48 10 -13 2 -41 18 -61 34 -22 18 -55 33 -82 37 -24 3
-55 15 -68 25 -23 18 -23 21 -21 191 2 184 15 247 56 268 10 6 58 10 108 10
75 0 101 5 163 29 40 16 106 34 147 40 46 7 101 25 144 46 39 19 77 35 84 35
7 0 27 13 45 29 18 15 56 40 83 54 70 36 212 183 252 260 8 18 26 44 38 59 13
15 27 52 33 87 6 33 23 78 38 100 25 38 27 50 32 176 4 112 2 142 -12 179 -32
82 0 101 162 95 72 -3 94 -8 111 -24 21 -18 56 -26 187 -41 46 -6 54 -4 85 23
42 37 72 53 98 53 20 0 21 5 21 115 0 93 -3 115 -14 115 -8 0 -36 19 -62 41
l-48 41 -126 -6 c-69 -4 -141 -11 -160 -16 -20 -6 -67 -12 -105 -14 -40 -3
-89 -13 -115 -25 -50 -23 -127 -27 -150 -8 -8 7 -28 30 -44 52 -51 69 -230
246 -263 260 -17 7 -36 22 -42 33 -15 28 -185 112 -248 122 -28 5 -69 20 -90
34 -49 33 -120 46 -244 46 -86 0 -102 3 -119 20 -18 18 -20 28 -14 103 4 45
12 97 19 116 10 29 8 44 -9 98 l-21 63 -127 0 -127 0 -23 -47z m507 -672 c87
-7 107 -13 149 -39 26 -17 62 -34 80 -37 47 -10 233 -103 240 -120 7 -20 -2
-42 -22 -50 -9 -4 -156 -7 -326 -5 -390 2 -376 -3 -376 136 0 66 3 78 25 99
27 28 57 30 230 16z m-467 -13 c8 -8 12 -46 12 -103 0 -77 -3 -95 -19 -109
-15 -14 -56 -18 -267 -25 -152 -5 -256 -5 -266 0 -19 10 -24 45 -10 66 4 7 28
19 52 28 25 9 61 27 80 40 19 13 58 29 85 35 28 6 70 23 95 38 25 14 61 29 80
33 59 11 145 10 158 -3z m-540 -451 c6 -31 -19 -87 -49 -109 -18 -14 -35 -39
-43 -68 -8 -25 -27 -70 -42 -99 -28 -53 -29 -59 -28 -193 2 -134 3 -141 33
-201 17 -34 35 -80 41 -102 20 -80 168 -249 255 -291 28 -13 61 -33 76 -44 14
-12 50 -25 85 -30 67 -9 176 -68 203 -109 19 -29 35 -314 20 -343 -5 -10 -21
-21 -36 -24 -21 -6 -32 -1 -54 24 -35 39 -60 52 -102 52 -21 0 -50 11 -73 27
-21 14 -61 35 -88 45 -28 11 -65 32 -83 48 -18 16 -51 34 -73 40 -24 6 -47 21
-57 36 -9 14 -31 33 -49 42 -53 27 -232 200 -256 245 -11 23 -35 56 -53 72
-23 21 -35 43 -40 74 -4 24 -23 77 -42 117 l-35 73 4 153 c3 149 4 154 35 213
17 33 35 81 38 108 4 26 18 62 31 80 13 17 31 48 39 67 27 61 30 64 86 91 48
24 65 27 154 25 87 -1 100 -3 103 -19z m1512 8 c30 -8 77 -15 103 -15 100 0
129 -29 143 -143 3 -29 12 -74 20 -101 10 -37 11 -59 3 -88 -5 -21 -14 -76
-19 -121 -7 -56 -16 -90 -30 -107 -11 -14 -35 -47 -54 -75 -40 -59 -136 -153
-188 -184 -21 -13 -38 -27 -38 -32 0 -12 -54 -39 -78 -39 -10 0 -49 -16 -85
-35 -75 -40 -154 -54 -298 -55 -98 0 -102 2 -124 78 -12 39 -26 59 -68 94 -70
61 -87 68 -150 68 -47 0 -62 -6 -112 -39 -31 -21 -70 -55 -87 -75 -25 -30 -36
-36 -68 -36 -36 0 -47 7 -133 95 -90 91 -95 98 -101 148 -3 28 -14 80 -22 114
-15 56 -15 66 -1 110 8 26 18 69 22 95 6 37 15 54 44 80 21 18 42 40 47 49 5
9 27 26 49 38 22 11 51 30 65 41 22 17 144 48 280 70 25 4 81 23 125 42 l80
35 310 1 c244 1 322 -1 365 -13z m-618 -1985 c23 -21 54 -42 70 -45 15 -4 46
-22 69 -41 22 -19 45 -34 50 -34 5 0 50 -42 100 -92 166 -170 159 -161 179
-242 11 -42 26 -89 35 -105 22 -43 19 -94 -9 -149 -13 -26 -27 -63 -31 -82
-11 -50 -161 -194 -226 -215 -26 -9 -53 -23 -60 -31 -24 -29 -64 -42 -156 -49
-128 -10 -120 -30 -128 330 -4 160 -12 308 -18 330 -5 22 -11 127 -13 233 -2
179 -1 195 17 213 32 32 74 24 121 -21z"/>
</g>
</svg>
