<?xml version="1.0" standalone="no"?>
<!DOCTYPE svg PUBLIC "-//W3C//DTD SVG 20010904//EN"
 "http://www.w3.org/TR/2001/REC-SVG-20010904/DTD/svg10.dtd">
<svg version="1.0" xmlns="http://www.w3.org/2000/svg"
 width="184.000000pt" height="280.000000pt" viewBox="0 0 184.000000 280.000000"
 preserveAspectRatio="xMidYMid meet">
<metadata>
Created by potrace 1.16, written by Peter Selinger 2001-2019
</metadata>
<rect x="0" y="0" width="184" height="280" fill="#ffffff"/>
<g transform="translate(0.000000,280.000000) scale(0.100000,-0.100000)"
fill="#000000" stroke="none">
<path d="M735 2551 c-45 -6 -57 -13 -122 -76 -40 -39 -85 -82 -100 -97 -79
-74 -94 -96 -102 -146 -5 -31 -18 -63 -35 -84 -103 -126 -106 -137 -125 -354
-5 -57 -16 -114 -25 -132 -25 -49 -23 -396 4 -472 12 -34 19 -82 20 -125 0
-77 28 -171 94 -325 78 -178 95 -204 222 -331 117 -117 123 -122 190 -140 75
-21 266 -26 338 -10 109 26 358 276 416 420 15 36 37 84 49 107 22 42 40 150
41 246 0 49 4 61 36 99 l35 42 -4 256 c-6 292 -13 353 -47 401 -18 25 -26 53
-31 102 -5 51 -13 78 -38 117 -18 28 -39 73 -46 101 -8 30 -25 62 -40 76 -14
13 -34 41 -43 63 -27 60 -114 148 -169 172 -26 11 -62 34 -79 50 -23 22 -46
32 -90 39 -64 11 -268 11 -349 1z m320 -341 c66 -32 200 -176 234 -251 32 -70
81 -242 81 -282 0 -14 16 -44 36 -68 l36 -43 -4 -180 -4 -181 -32 -55 c-23
-40 -32 -68 -32 -102 0 -26 -7 -76 -15 -112 -15 -64 -90 -222 -124 -261 -9
-11 -25 -32 -34 -47 -23 -37 -144 -126 -190 -140 -118 -36 -296 64 -371 207
-14 28 -35 61 -47 76 -11 14 -29 56 -39 95 -43 155 -60 221 -65 258 -5 28 -17
48 -46 74 l-39 35 0 129 0 129 35 36 c25 26 37 50 45 92 7 31 24 88 39 126 15
39 33 92 40 119 6 26 29 79 51 117 53 94 187 218 259 239 51 16 143 11 186
-10z"/>
</g>
</svg>
