<?xml version="1.0" standalone="no"?>
<!DOCTYPE svg PUBLIC "-//W3C//DTD SVG 20010904//EN"
 "http://www.w3.org/TR/2001/REC-SVG-20010904/DTD/svg10.dtd">
<svg version="1.0" xmlns="http://www.w3.org/2000/svg"
 width="616.000000pt" height="456.000000pt" viewBox="0 0 616.000000 456.000000"
 preserveAspectRatio="xMidYMid meet">
<metadata>
Created by potrace 1.16, written by Peter Selinger 2001-2019
</metadata>
<rect x="0" y="0" width="616" height="456" fill="#ffffff"/>
<g transform="translate(0.000000,456.000000) scale(0.100000,-0.100000)"
fill="#000000" stroke="none">
<path d="M2804 4527 c-17 -18 -51 -48 -75 -68 -43 -36 -44 -38 -44 -96 1 -79
22 -106 130 -167 47 -27 92 -58 100 -70 11 -17 12 -47 6 -147 -4 -69 -11 -130
-14 -136 -4 -6 -13 -55 -22 -110 -17 -113 -20 -124 -51 -173 -12 -19 -28 -55
-34 -80 -6 -25 -24 -61 -39 -80 -15 -19 -36 -51 -46 -70 -28 -54 -187 -232
-278 -312 -45 -39 -96 -85 -114 -102 -18 -17 -60 -53 -94 -81 -109 -88 -261
-238 -297 -295 -19 -30 -45 -65 -57 -78 -13 -12 -30 -48 -38 -80 -9 -31 -26
-86 -38 -121 -30 -87 -53 -97 -193 -80 -55 7 -197 14 -315 15 -230 3 -261 9
-351 69 -19 13 -73 33 -120 45 -47 12 -105 28 -130 37 -75 26 -293 23 -405 -6
-50 -13 -102 -29 -116 -37 -37 -19 -77 -69 -105 -133 l-24 -54 27 -70 c31 -77
68 -121 110 -132 15 -3 48 -19 73 -35 57 -37 139 -50 315 -50 178 0 243 12
325 60 37 22 75 51 84 64 43 66 160 86 508 86 141 0 264 -3 273 -6 23 -9 71
-119 84 -191 7 -37 22 -70 40 -94 16 -20 37 -53 46 -74 18 -44 32 -61 170
-198 55 -54 114 -106 130 -114 17 -9 50 -31 74 -50 24 -18 49 -33 56 -33 7 0
32 -14 55 -31 24 -18 73 -40 109 -49 36 -10 94 -30 129 -45 46 -19 91 -28 166
-34 117 -10 142 -21 156 -71 11 -39 14 -438 4 -465 -7 -18 -130 -78 -196 -96
-48 -12 -122 -78 -150 -132 -11 -22 -22 -63 -24 -91 -4 -42 0 -59 23 -101 23
-42 40 -56 98 -87 38 -20 77 -46 86 -57 17 -20 26 -21 238 -21 l221 0 12 25
c8 17 31 32 78 50 45 17 80 39 111 71 43 44 44 47 44 109 0 78 -14 99 -111
167 -59 41 -82 51 -130 57 -72 8 -82 14 -100 57 -17 41 -20 503 -4 534 16 31
49 43 136 51 55 5 103 17 150 37 38 16 93 35 121 42 29 6 64 21 78 32 14 11
52 33 85 49 32 15 61 33 65 39 3 5 25 20 48 31 68 35 236 184 301 267 101 130
146 207 176 298 13 39 35 81 51 97 l28 28 303 -4 c357 -4 466 -18 535 -67 24
-16 69 -37 100 -45 32 -9 83 -25 113 -35 30 -10 97 -23 148 -30 85 -11 99 -10
160 8 37 11 90 25 117 32 74 16 135 50 169 93 28 34 31 46 31 105 0 37 -4 80
-8 95 -12 42 -83 114 -125 127 -20 6 -62 22 -92 35 -36 15 -94 28 -165 35
-140 15 -234 3 -364 -48 -76 -30 -100 -44 -128 -79 -19 -23 -48 -46 -65 -52
-19 -7 -137 -11 -312 -11 -217 0 -292 -4 -329 -15 -31 -9 -56 -11 -71 -5 -27
10 -79 97 -96 161 -6 24 -29 64 -49 89 -21 25 -46 58 -56 73 -10 16 -36 37
-59 49 -23 11 -56 34 -74 49 -18 16 -38 29 -45 29 -7 0 -46 16 -86 35 -86 41
-162 55 -316 55 -113 0 -177 -12 -255 -48 -25 -11 -64 -25 -87 -31 -23 -6 -60
-27 -83 -46 -22 -18 -49 -36 -58 -39 -51 -17 -188 -223 -198 -299 -12 -85 27
-79 -487 -79 -468 1 -497 3 -497 40 1 51 30 135 61 173 56 69 211 220 254 247
22 14 56 39 76 56 20 17 60 49 89 71 205 156 329 274 465 443 19 24 35 48 35
52 0 5 16 30 36 55 20 26 42 65 50 87 7 22 25 53 38 69 13 15 29 51 35 79 6
28 23 74 37 102 25 48 53 175 74 330 5 37 17 79 25 92 19 28 72 56 107 56 51
0 140 39 178 79 51 52 60 71 60 126 0 54 -16 89 -60 130 -18 17 -39 45 -46 63
l-14 32 -323 -1 -322 0 -31 -32z m167 -117 c40 -22 13 -93 -40 -105 -33 -7
-85 15 -95 40 -18 48 79 94 135 65z m880 -2030 c98 -18 203 -69 256 -122 82
-83 95 -80 -399 -80 -235 0 -432 3 -438 7 -38 23 54 124 131 143 25 6 70 23
100 37 48 22 67 25 175 25 67 0 146 -5 175 -10z m1907 -244 c14 -14 14 -18 2
-30 -39 -36 -140 -47 -190 -21 -30 15 -39 38 -20 50 43 27 182 28 208 1z
m-5178 -6 c13 -9 13 -11 0 -20 -8 -6 -24 -8 -35 -5 -11 2 -26 5 -32 5 -22 0
-14 18 10 23 37 7 41 7 57 -3z m2351 -99 c29 -23 36 -84 45 -367 l6 -190 -25
-29 -24 -29 -155 16 c-128 13 -165 21 -223 46 -39 17 -88 33 -110 37 -22 4
-65 22 -95 40 -30 18 -69 39 -85 48 -55 28 -223 209 -263 284 -6 11 -14 42
-17 69 -12 87 -33 83 456 87 233 1 434 3 445 5 12 1 32 -7 45 -17z m1230 -2
c31 -16 34 -56 9 -133 -37 -114 -153 -257 -245 -301 -28 -13 -58 -31 -65 -39
-7 -9 -40 -25 -74 -35 -33 -11 -88 -31 -121 -45 -58 -24 -178 -45 -295 -51
-30 -2 -80 -6 -111 -10 -51 -7 -58 -5 -78 16 -22 23 -22 29 -18 219 7 280 23
372 67 388 29 11 910 3 931 -9z m-907 -1722 c30 -22 12 -55 -35 -67 -55 -15
-83 -10 -87 16 -7 46 80 82 122 51z"/>
</g>
</svg>
