<?xml version="1.0" standalone="no"?>
<!DOCTYPE svg PUBLIC "-//W3C//DTD SVG 20010904//EN"
 "http://www.w3.org/TR/2001/REC-SVG-20010904/DTD/svg10.dtd">
<svg version="1.0" xmlns="http://www.w3.org/2000/svg"
 width="592.000000pt" height="808.000000pt" viewBox="0 0 592.000000 808.000000"
 preserveAspectRatio="xMidYMid meet">
<metadata>
Created by potrace 1.16, written by Peter Selinger 2001-2019
</metadata>
<rect x="0" y="0" width="592" height="808" fill="#ffffff"/>
<g transform="translate(0.000000,808.000000) scale(0.100000,-0.100000)"
fill="#000000" stroke="none">
<path d="M3005 8029 c-16 -5 -77 -16 -135 -24 -58 -9 -119 -19 -136 -24 -46
-13 -154 -90 -165 -118 -13 -34 -11 -104 4 -133 15 -31 128 -107 180 -121 57
-15 68 -41 63 -140 -8 -158 -25 -270 -52 -333 -14 -33 -34 -87 -44 -120 -11
-32 -28 -68 -38 -80 -11 -11 -30 -43 -43 -69 -12 -27 -28 -51 -35 -54 -7 -2
-24 -22 -38 -43 -33 -49 -262 -277 -298 -296 -15 -8 -31 -21 -36 -29 -8 -15
-43 -41 -162 -121 -30 -21 -59 -43 -65 -50 -5 -6 -28 -24 -50 -38 -22 -14 -65
-47 -95 -71 -30 -25 -79 -64 -107 -86 -29 -23 -53 -45 -53 -49 0 -4 -21 -32
-47 -63 -81 -95 -121 -167 -132 -235 -5 -33 -14 -70 -20 -81 -15 -26 -54 -33
-126 -21 -33 5 -122 10 -197 10 -136 0 -137 0 -202 34 -36 19 -80 37 -98 41
-18 4 -45 14 -61 22 -15 7 -71 25 -125 38 -135 35 -306 35 -445 1 l-99 -24
-62 -66 c-34 -36 -67 -66 -74 -66 -8 0 -12 -20 -12 -64 0 -61 2 -66 27 -78 15
-7 38 -33 52 -57 38 -64 159 -126 273 -141 113 -14 329 -12 408 4 72 14 155
63 205 122 43 49 117 65 326 71 163 4 167 4 193 -19 18 -15 32 -43 42 -83 9
-33 24 -71 34 -85 10 -14 27 -45 39 -70 33 -70 267 -301 346 -343 17 -8 39
-24 49 -36 10 -11 42 -32 70 -46 28 -14 66 -36 85 -50 19 -14 44 -25 57 -25
12 0 53 -16 89 -36 37 -19 92 -40 122 -45 61 -12 139 -43 166 -66 28 -26 20
-49 -37 -106 -45 -44 -55 -61 -61 -99 -4 -25 -4 -57 0 -70 10 -30 103 -138
120 -138 7 0 39 -14 71 -31 38 -20 80 -33 117 -36 71 -7 83 -22 90 -113 2 -39
15 -91 32 -130 15 -36 33 -92 42 -124 8 -33 25 -78 39 -101 13 -23 32 -67 43
-97 10 -31 33 -75 50 -98 17 -24 31 -48 31 -54 0 -6 13 -27 29 -46 15 -19 36
-51 46 -70 23 -46 75 -107 211 -249 60 -64 122 -132 136 -151 14 -19 80 -91
148 -160 67 -69 136 -145 153 -170 16 -25 40 -56 53 -70 28 -31 46 -77 39
-100 -3 -10 -18 -23 -33 -28 -36 -14 -204 -52 -230 -52 -11 0 -42 -17 -69 -38
-27 -22 -57 -44 -68 -49 -23 -13 -359 -21 -392 -10 -24 9 -47 52 -62 117 -25
107 -53 158 -139 243 -71 72 -95 89 -180 128 l-97 44 -210 0 -211 0 -54 -29
c-30 -15 -75 -34 -100 -42 -25 -8 -63 -28 -85 -46 -54 -45 -156 -149 -176
-179 -12 -17 -33 -29 -68 -37 -28 -6 -91 -26 -140 -43 -73 -25 -97 -39 -137
-80 l-49 -50 0 -85 0 -86 50 -45 c64 -57 97 -71 187 -79 111 -10 134 -23 165
-91 14 -32 39 -77 55 -100 15 -23 28 -46 28 -52 0 -25 168 -211 247 -273 31
-23 70 -57 88 -74 17 -17 49 -37 71 -44 21 -7 54 -23 72 -37 17 -13 56 -32 85
-42 28 -11 75 -30 102 -45 38 -19 74 -27 153 -34 74 -7 108 -14 120 -26 15
-15 17 -48 17 -291 0 -326 5 -312 -115 -325 -50 -6 -81 -14 -99 -29 -14 -12
-40 -30 -57 -41 -18 -12 -41 -43 -59 -79 l-28 -60 27 -63 c37 -85 58 -105 139
-129 55 -16 72 -26 85 -50 l17 -29 215 0 215 0 16 28 c10 18 33 33 67 45 97
33 151 105 152 200 0 122 -82 197 -304 273 -38 13 -75 29 -83 35 -10 9 -13 60
-13 235 0 122 4 234 10 248 11 30 45 40 188 55 78 8 116 18 160 40 31 15 82
36 113 45 31 9 62 22 68 30 7 8 37 26 69 41 31 15 72 39 90 53 59 47 233 226
249 257 9 17 28 46 44 66 15 19 33 58 40 85 6 27 19 58 28 68 20 24 89 55 121
56 14 0 40 9 59 21 18 11 58 29 88 40 41 16 63 33 93 70 71 91 63 178 -24 261
-57 54 -118 78 -200 78 -84 0 -135 45 -166 145 -7 22 -23 51 -35 65 -13 14
-31 39 -41 55 -42 68 -188 236 -322 373 -79 80 -155 163 -168 184 -14 21 -31
41 -39 44 -8 3 -26 26 -40 50 -14 24 -30 44 -35 44 -6 0 -24 24 -40 54 -17 30
-37 60 -45 66 -8 7 -24 37 -35 67 -11 30 -32 70 -46 89 -14 18 -30 53 -35 76
-6 23 -23 72 -39 109 -17 37 -34 98 -40 135 -23 155 -24 162 -6 190 16 24 38
36 165 90 34 14 53 32 83 78 21 32 38 71 38 86 0 47 -39 120 -73 138 -17 10
-42 27 -55 40 -21 21 -22 25 -10 44 15 23 115 62 218 85 36 8 85 27 110 42 25
16 68 34 96 41 33 7 62 22 79 40 15 15 47 33 71 40 24 7 54 23 66 35 13 12 37
30 53 41 50 31 197 158 240 206 88 99 195 256 195 285 0 31 33 91 55 101 28
13 317 18 336 6 7 -4 47 -10 90 -14 64 -6 94 -15 171 -53 83 -41 214 -82 348
-108 58 -12 174 4 265 36 39 13 78 25 87 25 34 0 65 22 91 66 15 25 41 53 57
62 27 15 30 22 30 68 0 44 -3 52 -24 62 -13 6 -43 36 -67 68 -37 48 -53 60
-99 76 -30 10 -73 28 -95 40 -37 20 -53 22 -230 22 -177 0 -193 -1 -225 -21
-19 -12 -54 -26 -78 -33 -28 -7 -64 -31 -108 -70 -36 -33 -71 -60 -78 -61 -6
-1 -110 0 -231 1 -252 1 -256 2 -290 86 -40 97 -149 223 -230 266 -22 11 -55
34 -73 49 -18 16 -38 29 -45 29 -7 0 -46 16 -87 35 -50 25 -99 39 -154 47
-107 14 -339 6 -391 -15 -22 -8 -78 -30 -125 -47 -47 -17 -96 -42 -110 -54
-14 -13 -41 -32 -60 -41 -66 -34 -223 -216 -236 -274 -11 -49 -27 -82 -45 -92
-13 -7 -980 -15 -1126 -9 -7 0 -19 10 -28 23 -20 30 -4 87 38 140 50 61 188
197 227 222 19 12 46 34 59 49 14 14 30 26 36 26 7 0 32 15 56 34 24 18 63 43
87 55 23 12 42 26 42 31 0 5 21 21 48 36 26 15 58 37 72 49 14 13 41 31 60 40
19 10 49 30 65 45 17 16 66 59 110 98 44 38 94 84 112 103 93 100 165 192 186
240 13 30 34 63 46 73 11 11 21 24 21 31 0 6 18 49 41 95 22 46 46 114 54 151
8 37 21 84 30 105 8 22 24 90 35 153 11 66 26 121 35 130 9 9 36 16 68 17 52
2 171 38 199 62 25 20 88 128 88 150 0 10 -8 30 -19 43 -10 13 -28 42 -39 65
-21 42 -76 86 -127 103 -28 10 -185 39 -250 47 -16 1 -43 -1 -60 -7z m-111
-188 c15 -16 16 -23 5 -43 -15 -29 -25 -35 -71 -48 -48 -13 -85 -4 -105 26
-14 23 -14 26 2 44 36 40 140 53 169 21z m204 -20 c20 -12 10 -45 -13 -49 -28
-4 -60 21 -52 42 7 17 43 21 65 7z m746 -2006 c28 -8 98 -26 156 -41 70 -17
113 -33 130 -49 14 -12 39 -30 56 -38 35 -18 46 -37 34 -56 -10 -16 -1066 -19
-1082 -3 -18 18 2 46 57 84 42 29 81 43 168 64 61 14 130 32 152 39 57 19 265
19 329 0z m1685 -226 c24 -9 31 -16 29 -32 -6 -45 -164 -62 -208 -22 -26 24
-16 34 52 50 68 17 88 17 127 4z m-4986 -18 c29 -29 -73 -54 -108 -27 l-20 16
20 16 c22 17 89 14 108 -5z m2274 -96 c13 -3 31 -20 40 -38 16 -28 18 -66 21
-294 l3 -262 -25 -26 c-24 -24 -30 -25 -93 -19 -38 3 -93 12 -123 20 -30 7
-97 18 -149 24 -58 6 -118 21 -155 36 -34 14 -90 35 -126 45 -36 10 -77 28
-92 39 -15 11 -48 28 -75 38 -62 23 -152 92 -228 174 -107 115 -128 146 -133
197 -4 49 5 66 42 72 30 6 1068 0 1093 -6z m1424 -5 c30 -17 25 -84 -12 -148
-34 -60 -143 -171 -204 -210 -22 -13 -49 -33 -61 -43 -11 -10 -41 -25 -67 -33
-27 -8 -63 -26 -82 -40 -18 -14 -57 -31 -87 -37 -29 -6 -84 -25 -122 -41 -50
-22 -98 -33 -185 -43 -64 -7 -127 -17 -141 -23 -14 -5 -66 -12 -116 -16 -131
-10 -124 -28 -124 315 0 264 1 277 21 303 l20 26 570 0 c374 0 577 -4 590 -10z
m-1101 -1110 c0 -5 -7 -10 -15 -10 -8 0 -15 5 -15 10 0 6 7 10 15 10 8 0 15
-4 15 -10z m-469 -2017 c111 -53 162 -114 125 -151 -13 -13 -44 -15 -208 -13
-140 2 -199 6 -219 16 -30 16 -119 135 -119 160 0 28 41 35 190 32 l145 -3 86
-41z m-927 -199 c19 -19 20 -25 3 -49 -10 -13 -21 -16 -40 -11 -22 5 -27 12
-27 35 0 40 35 54 64 25z m2486 1 c20 -25 8 -50 -25 -50 -24 0 -31 5 -33 24
-6 37 34 55 58 26z m-2222 -17 c17 -17 15 -26 -7 -37 -13 -7 -24 -6 -37 3 -15
12 -16 16 -5 30 16 19 33 20 49 4z m1537 -87 c17 -9 41 -36 53 -59 20 -35 38
-50 103 -83 44 -22 103 -44 131 -49 58 -11 78 -24 78 -51 0 -23 -147 -166
-199 -194 -21 -11 -53 -32 -72 -47 -19 -14 -61 -33 -94 -41 -33 -8 -88 -27
-121 -41 -40 -17 -96 -29 -157 -36 -52 -5 -101 -12 -110 -16 -23 -9 -85 14
-97 36 -16 31 -12 265 5 307 10 23 15 69 15 130 0 109 15 149 58 159 15 3 30
6 34 7 4 1 83 1 175 -1 137 -3 174 -7 198 -21z m-702 4 c26 -25 37 -136 37
-363 0 -209 -1 -223 -20 -242 -24 -24 -16 -24 -207 -5 -128 12 -167 20 -240
49 -49 18 -99 37 -113 41 -14 4 -36 17 -50 30 -14 12 -40 30 -58 39 -36 19
-87 67 -143 136 -70 87 -88 149 -48 170 11 6 47 16 81 21 33 5 81 20 107 33
25 13 59 26 74 30 16 4 51 22 79 41 l50 35 218 0 c178 0 221 -3 233 -15z m40
-1739 c33 -25 14 -66 -31 -66 -34 0 -62 18 -62 40 0 36 58 52 93 26z"/>
</g>
</svg>
