<?xml version="1.0" standalone="no"?>
<!DOCTYPE svg PUBLIC "-//W3C//DTD SVG 20010904//EN"
 "http://www.w3.org/TR/2001/REC-SVG-20010904/DTD/svg10.dtd">
<svg version="1.0" xmlns="http://www.w3.org/2000/svg"
 width="336.000000pt" height="456.000000pt" viewBox="0 0 336.000000 456.000000"
 preserveAspectRatio="xMidYMid meet">
<metadata>
Created by potrace 1.16, written by Peter Selinger 2001-2019
</metadata>
<rect x="0" y="0" width="336" height="456" fill="#ffffff"/>
<g transform="translate(0.000000,456.000000) scale(0.100000,-0.100000)"
fill="#000000" stroke="none">
<path d="M1388 4531 c-9 -17 -35 -39 -57 -50 -68 -35 -94 -118 -58 -188 18
-33 115 -104 174 -125 67 -24 75 -45 67 -182 -5 -83 -15 -152 -34 -221 -15
-55 -33 -125 -40 -155 -15 -61 -90 -218 -127 -265 -14 -16 -34 -44 -46 -62
-77 -112 -220 -260 -356 -368 -35 -27 -78 -63 -96 -80 -18 -16 -66 -57 -105
-90 -80 -66 -230 -228 -230 -247 0 -13 -68 -118 -97 -150 -12 -13 -32 -18 -73
-18 -109 0 -160 -16 -210 -65 -25 -24 -57 -49 -72 -54 -28 -10 -28 -12 -28
-95 l0 -84 29 -10 c17 -6 40 -27 53 -47 27 -44 130 -96 247 -125 85 -22 111
-42 141 -112 45 -105 221 -306 327 -374 28 -19 55 -39 59 -45 3 -6 27 -20 53
-32 25 -11 60 -32 78 -47 18 -16 53 -33 84 -39 29 -6 75 -25 103 -41 42 -24
75 -32 181 -45 207 -27 203 -20 206 -308 2 -238 1 -242 -59 -265 -15 -6 -66
-25 -114 -43 -71 -26 -96 -41 -139 -85 -51 -52 -53 -56 -57 -119 -6 -84 1
-107 43 -154 30 -33 58 -49 143 -82 12 -5 27 -20 34 -34 l11 -25 192 0 191 0
28 29 c18 18 50 35 88 46 116 32 181 127 163 236 -8 46 -23 63 -105 116 -39
25 -76 39 -130 48 -125 22 -137 55 -130 357 l5 208 27 26 c22 23 43 29 141 45
65 10 142 29 178 44 35 15 87 36 114 47 28 11 64 30 80 42 17 13 46 28 66 35
20 6 45 21 55 33 11 11 37 32 59 46 22 14 60 41 84 61 146 120 178 158 319
373 24 36 52 74 62 83 12 11 56 22 120 31 116 16 137 25 201 85 36 34 48 54
54 87 12 75 -2 120 -56 178 -45 46 -59 54 -147 82 -53 17 -117 36 -142 42 -36
9 -59 26 -115 84 -39 40 -86 81 -105 91 -19 9 -46 28 -60 40 -60 55 -296 125
-420 125 -57 0 -214 -28 -258 -47 -20 -8 -59 -22 -87 -30 -56 -17 -119 -61
-210 -148 -64 -62 -121 -158 -151 -257 -10 -32 -21 -49 -37 -54 -12 -4 -130
-6 -262 -6 l-240 1 -25 29 c-33 38 -70 56 -155 75 -181 40 -212 56 -201 103 8
32 192 222 256 264 25 17 68 48 95 71 61 49 147 116 187 146 17 12 36 31 44
42 8 11 35 34 59 51 54 37 245 251 273 306 11 22 27 46 36 53 8 7 25 38 36 69
12 30 32 68 45 84 14 16 29 48 35 71 6 23 24 69 40 102 16 34 34 92 40 135 13
88 57 264 76 301 15 30 38 40 148 64 147 32 213 128 176 254 -5 19 -25 51 -44
70 -19 20 -39 48 -45 64 l-11 27 -327 0 -328 0 -17 -29z m166 -121 c54 -20 18
-89 -55 -105 -20 -5 -38 -1 -55 10 -50 32 -43 71 17 92 43 15 61 16 93 3z
m241 -41 c10 -15 -1 -23 -20 -15 -9 3 -13 10 -10 16 8 13 22 13 30 -1z m669
-1979 c38 -14 34 -51 -8 -84 -19 -14 -44 -41 -55 -60 -41 -66 -48 -68 -295
-68 -121 1 -231 1 -243 1 -12 1 -27 10 -33 21 -9 17 -4 27 31 64 23 25 57 50
77 57 20 6 57 22 80 36 24 14 65 28 90 33 69 11 326 12 356 0z m573 -260 c5
-25 -13 -42 -42 -42 -33 0 -47 19 -34 45 13 22 72 20 76 -3z m-279 -2 c7 -7 8
-17 1 -30 -12 -22 -32 -23 -49 -3 -23 28 21 60 48 33z m-1269 -69 c34 -12 35
-15 52 -124 13 -84 27 -420 19 -455 -11 -43 -42 -50 -179 -39 -88 7 -147 18
-209 39 -48 16 -113 34 -145 40 -32 7 -69 22 -85 35 -16 13 -53 35 -83 48 -30
14 -83 52 -119 85 -36 34 -75 70 -87 80 -39 35 -3 82 63 82 42 0 205 90 223
123 9 16 26 42 39 58 l23 29 212 3 c117 1 219 3 228 5 9 1 30 -3 48 -9z m700
-10 c30 -5 72 -9 92 -9 23 0 63 -13 103 -34 36 -19 80 -37 98 -41 18 -4 46
-14 61 -22 16 -8 56 -19 89 -24 113 -18 122 -40 57 -138 -69 -103 -232 -230
-328 -256 -26 -7 -74 -22 -107 -35 -82 -31 -191 -50 -287 -51 -45 0 -103 -4
-129 -8 -59 -10 -104 8 -119 46 -7 20 -6 53 5 123 8 52 17 156 20 230 6 147
17 209 40 225 18 13 321 9 405 -6z m-351 -1741 c19 -19 14 -46 -13 -64 -26
-17 -57 -17 -200 2 -94 12 -100 50 -6 41 44 -4 64 -2 91 13 40 22 110 26 128
8z"/>
</g>
</svg>
