<?xml version="1.0" standalone="no"?>
<!DOCTYPE svg PUBLIC "-//W3C//DTD SVG 20010904//EN"
 "http://www.w3.org/TR/2001/REC-SVG-20010904/DTD/svg10.dtd">
<svg version="1.0" xmlns="http://www.w3.org/2000/svg"
 width="608.000000pt" height="512.000000pt" viewBox="0 0 608.000000 512.000000"
 preserveAspectRatio="xMidYMid meet">
<metadata>
Created by potrace 1.16, written by Peter Selinger 2001-2019
</metadata>
<rect x="0" y="0" width="608" height="512" fill="#ffffff"/>
<g transform="translate(0.000000,512.000000) scale(0.100000,-0.100000)"
fill="#000000" stroke="none">
<path d="M2855 5088 c-14 -23 -33 -36 -65 -45 -73 -20 -148 -122 -135 -182 9
-44 96 -122 162 -146 81 -29 84 -37 78 -227 -7 -194 -16 -249 -53 -335 -17
-37 -35 -88 -42 -112 -6 -24 -27 -66 -46 -93 -19 -28 -34 -55 -34 -62 0 -6
-27 -42 -60 -81 -33 -38 -75 -92 -94 -120 -18 -27 -66 -77 -106 -110 -39 -33
-120 -102 -178 -154 -59 -52 -123 -106 -142 -120 -47 -35 -207 -201 -229 -237
-10 -16 -25 -35 -34 -42 -9 -8 -24 -37 -33 -65 -9 -29 -25 -68 -35 -87 -9 -20
-21 -53 -25 -74 -14 -78 -6 -76 -346 -76 -334 0 -412 8 -459 48 -17 14 -57 31
-91 39 -34 8 -80 25 -103 38 -52 31 -146 45 -305 44 -176 0 -252 -11 -303 -45
-67 -45 -86 -64 -112 -118 -13 -28 -30 -59 -37 -68 -10 -15 -10 -21 0 -35 7
-10 24 -42 38 -71 36 -73 115 -137 192 -152 31 -7 82 -18 112 -26 34 -9 107
-14 197 -14 131 0 151 2 235 30 83 26 99 35 148 85 84 86 80 85 312 85 112 0
260 5 330 12 156 14 166 10 192 -81 9 -33 21 -63 25 -66 5 -3 18 -36 30 -74
11 -37 28 -74 37 -82 8 -7 28 -38 44 -69 21 -41 66 -93 175 -198 81 -78 163
-151 183 -161 20 -10 45 -28 56 -40 10 -11 44 -30 75 -41 31 -12 75 -32 97
-45 23 -14 86 -34 140 -46 55 -11 115 -28 134 -36 19 -8 64 -16 99 -17 54 -2
67 -7 84 -27 17 -21 19 -34 13 -114 -8 -101 -21 -161 -38 -172 -7 -4 -120 -6
-252 -5 l-240 1 -35 34 c-41 39 -68 50 -166 73 -38 8 -99 22 -135 31 -90 20
-448 15 -500 -9 -19 -8 -60 -42 -91 -74 -46 -48 -57 -68 -63 -105 -8 -57 -3
-72 53 -137 51 -60 142 -112 238 -137 69 -18 387 -21 447 -4 21 6 56 23 77 38
21 16 52 34 68 41 16 6 41 30 56 51 14 22 36 44 49 49 13 4 125 10 251 11 227
3 228 3 246 -20 18 -21 19 -44 19 -297 0 -325 6 -310 -125 -343 -115 -29 -118
-30 -185 -95 -66 -65 -75 -84 -75 -167 0 -66 28 -109 105 -165 26 -19 50 -43
53 -54 5 -19 14 -20 311 -20 258 0 306 2 306 14 0 8 14 25 31 38 116 88 139
121 139 195 0 72 -25 110 -109 170 -61 43 -85 53 -130 58 -122 14 -121 12
-121 287 0 160 -4 223 -15 253 -21 60 -19 92 10 121 l25 25 268 -3 268 -3 44
-32 c24 -18 50 -33 57 -33 7 0 39 -9 70 -20 90 -31 299 -70 373 -70 36 0 89 6
116 14 27 8 75 20 106 26 59 12 130 59 155 104 16 27 16 155 0 183 -31 55
-101 100 -217 139 -113 38 -117 38 -265 38 -136 0 -154 -2 -190 -22 -22 -12
-66 -31 -97 -42 -36 -13 -66 -32 -80 -51 -13 -17 -34 -44 -48 -60 l-26 -31
-265 1 c-147 0 -274 3 -283 7 -28 11 -36 48 -36 160 0 118 9 136 77 152 21 5
70 17 108 27 39 10 106 25 150 35 46 9 97 28 120 43 22 14 61 31 87 38 26 6
58 22 71 35 13 13 43 32 68 42 24 11 51 27 59 37 8 10 33 29 55 43 67 42 206
178 232 227 8 17 24 39 34 51 35 38 110 198 124 264 17 81 24 100 39 101 58 7
795 -5 811 -13 11 -6 31 -21 45 -33 14 -13 49 -30 78 -39 30 -8 68 -24 85 -35
51 -31 152 -43 325 -40 l158 4 94 56 c52 31 103 59 113 62 16 6 17 19 15 124
-3 112 -4 118 -25 121 -11 2 -47 25 -78 53 -31 27 -58 49 -59 49 -2 0 -59 12
-127 26 -144 29 -278 30 -394 0 -38 -10 -80 -20 -92 -22 -12 -2 -48 -27 -80
-55 -108 -96 -97 -94 -500 -97 l-353 -3 -23 24 c-16 15 -26 40 -30 73 -5 37
-19 66 -55 115 -61 85 -138 161 -182 184 -19 10 -49 30 -67 46 -20 17 -53 32
-90 39 -32 6 -80 18 -107 26 -75 21 -268 19 -347 -5 -35 -11 -79 -22 -97 -26
-18 -4 -45 -17 -60 -30 -15 -12 -48 -32 -73 -44 -57 -27 -173 -145 -195 -198
-9 -21 -24 -48 -35 -61 -10 -13 -25 -48 -34 -78 -24 -82 -37 -87 -182 -75 -65
6 -266 11 -448 11 -414 0 -417 2 -356 123 59 116 141 212 244 287 23 17 65 49
92 71 57 46 137 108 201 157 65 48 321 299 368 360 23 30 52 73 66 96 14 23
35 55 47 70 12 15 27 44 34 64 6 20 23 52 36 70 14 19 33 64 43 100 10 37 30
95 44 129 20 46 30 97 41 197 8 75 19 144 24 155 12 22 79 51 119 51 61 0 205
98 238 162 10 19 14 42 10 62 -9 47 -89 152 -134 175 -21 11 -43 31 -50 45
l-12 26 -262 0 -263 -1 -20 -31z m144 -139 c42 -15 39 -34 -10 -64 -85 -54
-129 -57 -150 -11 -28 61 70 106 160 75z m936 -2060 c50 -14 106 -36 126 -50
20 -13 51 -32 68 -41 33 -18 41 -48 18 -66 -15 -13 -916 -20 -936 -8 -26 16 1
86 33 86 7 0 35 15 64 34 35 22 70 35 105 39 29 4 71 13 93 21 66 25 316 16
429 -15z m-3420 -209 c0 -23 -69 -20 -73 3 -3 16 2 18 35 15 26 -2 38 -8 38
-18z m5158 -59 c22 -22 -90 -42 -122 -22 -13 8 -13 12 -1 26 11 14 25 16 64
11 27 -3 54 -10 59 -15z m-2733 -61 c30 -30 40 -112 40 -319 0 -218 -7 -254
-51 -276 -36 -19 -61 -19 -107 1 -20 8 -92 21 -159 29 -92 10 -138 21 -190 43
-37 17 -88 36 -113 42 -25 7 -58 22 -75 34 -16 13 -46 31 -65 41 -44 22 -119
90 -143 129 -10 16 -31 42 -47 57 -15 16 -31 45 -35 66 -4 20 -13 50 -21 66
-21 40 -14 79 16 94 19 10 126 13 479 12 419 -2 455 -3 471 -19z m1214 6 c18
-8 35 -22 38 -33 7 -25 -38 -135 -77 -193 -40 -59 -148 -166 -188 -186 -18 -9
-45 -27 -60 -40 -15 -13 -47 -28 -70 -34 -23 -6 -67 -24 -97 -40 -31 -15 -78
-31 -105 -35 -28 -3 -90 -15 -140 -25 -154 -31 -210 -40 -254 -40 -67 0 -71
18 -71 328 0 284 1 288 60 302 19 4 237 8 483 9 361 1 454 -2 481 -13z m-2148
-1287 c42 -35 -5 -65 -118 -74 -94 -7 -128 2 -128 35 0 22 22 36 77 50 46 11
151 4 169 -11z m2365 -9 c22 -12 25 -43 5 -59 -16 -14 -92 -31 -166 -37 -44
-4 -62 -1 -87 15 -34 21 -43 53 -20 68 10 7 90 15 215 21 18 1 42 -3 53 -8z"/>
</g>
</svg>
