<?xml version="1.0" standalone="no"?>
<!DOCTYPE svg PUBLIC "-//W3C//DTD SVG 20010904//EN"
 "http://www.w3.org/TR/2001/REC-SVG-20010904/DTD/svg10.dtd">
<svg version="1.0" xmlns="http://www.w3.org/2000/svg"
 width="616.000000pt" height="688.000000pt" viewBox="0 0 616.000000 688.000000"
 preserveAspectRatio="xMidYMid meet">
<metadata>
Created by potrace 1.16, written by Peter Selinger 2001-2019
</metadata>
<rect x="0" y="0" width="616" height="688" fill="#ffffff"/>
<g transform="translate(0.000000,688.000000) scale(0.100000,-0.100000)"
fill="#000000" stroke="none">
<path d="M2937 6867 c-6 -15 -69 -48 -140 -72 -36 -13 -57 -29 -82 -64 -43
-59 -51 -91 -31 -133 33 -68 73 -106 133 -123 127 -37 154 -97 115 -255 -6
-25 -21 -90 -32 -145 -30 -136 -38 -160 -60 -180 -11 -10 -27 -40 -36 -67 -9
-27 -28 -64 -43 -81 -15 -18 -38 -50 -53 -72 -36 -56 -185 -213 -219 -230 -15
-8 -49 -33 -76 -55 -105 -86 -141 -113 -208 -156 -38 -24 -74 -44 -80 -44 -6
0 -22 -11 -34 -24 -13 -14 -47 -36 -76 -50 -29 -14 -56 -30 -60 -36 -3 -6 -27
-21 -53 -34 -26 -13 -56 -34 -67 -46 -11 -12 -33 -29 -50 -38 -62 -32 -234
-193 -260 -243 -10 -19 -31 -50 -46 -69 -17 -21 -33 -57 -38 -85 -15 -82 -24
-85 -231 -85 l-179 0 -45 39 c-36 31 -55 40 -100 45 -30 4 -65 15 -78 25 -45
35 -70 42 -186 53 -64 6 -128 11 -142 11 -58 1 -221 -23 -243 -35 -14 -7 -44
-24 -68 -37 -66 -35 -74 -45 -100 -121 l-23 -69 22 -63 c21 -60 56 -103 117
-144 20 -13 138 -45 287 -79 68 -15 88 -16 165 -5 48 7 132 27 185 45 92 30
101 36 167 104 l69 71 165 0 c199 0 202 -2 218 -100 5 -36 18 -76 27 -88 9
-13 29 -44 43 -68 27 -46 176 -203 250 -264 59 -48 123 -87 185 -115 57 -25
67 -35 58 -59 -11 -27 -79 -39 -170 -28 -74 8 -88 14 -124 45 -36 30 -52 37
-108 43 -41 4 -83 16 -107 30 -59 34 -154 46 -327 42 l-153 -3 -100 -50 c-92
-46 -101 -53 -114 -90 -17 -51 -19 -128 -3 -182 9 -31 25 -51 64 -80 28 -21
58 -43 67 -50 9 -7 59 -22 111 -35 123 -29 379 -37 449 -14 26 8 66 20 91 26
33 9 63 30 120 85 l75 73 170 6 c480 17 443 19 780 -41 44 -7 108 -17 142 -21
35 -4 70 -14 79 -23 27 -27 34 -87 33 -279 0 -102 4 -200 10 -219 6 -18 11
-123 12 -232 1 -171 -1 -203 -15 -225 -23 -33 -69 -61 -136 -80 -30 -9 -77
-28 -104 -41 -27 -14 -72 -32 -100 -40 -28 -8 -84 -33 -124 -54 -41 -22 -79
-39 -85 -39 -7 0 -32 -14 -57 -30 -25 -16 -61 -35 -80 -41 -19 -6 -46 -22 -60
-34 -14 -13 -46 -36 -71 -52 -25 -15 -67 -43 -94 -60 -53 -36 -209 -194 -230
-233 -7 -14 -29 -49 -49 -79 -20 -29 -36 -60 -36 -68 0 -25 -79 -196 -102
-220 -12 -12 -46 -30 -77 -39 -70 -20 -136 -82 -146 -137 -12 -60 3 -146 29
-171 58 -54 121 -96 155 -102 66 -12 106 -34 131 -72 29 -44 201 -214 250
-248 19 -13 62 -46 95 -74 67 -55 201 -148 255 -175 19 -10 49 -28 65 -40 17
-12 48 -28 70 -35 49 -16 127 -71 156 -111 11 -16 41 -39 66 -51 26 -12 53
-34 62 -50 l16 -28 262 0 262 0 15 29 c14 27 31 36 101 59 34 11 124 67 175
110 19 16 52 35 73 43 22 8 55 28 75 45 21 17 46 34 57 38 29 10 128 75 180
116 24 19 71 58 106 85 99 80 189 166 222 215 66 96 118 150 147 150 34 0 155
63 197 103 40 38 68 106 59 144 -13 54 -69 123 -121 150 -27 14 -61 34 -75 45
-18 13 -52 22 -105 27 -75 7 -79 9 -111 47 -19 21 -47 64 -63 95 -38 70 -133
162 -186 179 -22 7 -58 23 -80 36 -56 32 -137 44 -292 44 -160 0 -265 -14
-313 -42 -19 -11 -59 -29 -89 -39 -30 -11 -62 -26 -72 -35 -10 -9 -28 -14 -41
-12 l-23 3 -5 320 c-3 176 -4 326 -2 333 7 20 150 82 242 104 46 11 100 28
120 38 19 9 80 28 135 40 55 12 136 35 180 51 44 16 107 35 140 42 33 8 87 26
120 40 33 14 87 30 120 36 33 6 87 24 121 41 34 16 83 34 110 40 27 6 67 24
89 39 22 16 59 34 81 40 22 6 55 22 74 36 19 14 53 34 75 44 47 22 189 163
241 241 20 30 43 76 50 102 15 48 36 68 72 68 21 0 146 63 176 89 10 9 32 34
47 55 63 85 27 183 -98 269 -61 42 -80 50 -144 58 -41 6 -108 17 -150 26 -60
12 -87 13 -125 5 -27 -6 -71 -14 -99 -17 -138 -16 -154 -23 -231 -96 -39 -37
-83 -70 -96 -73 -12 -3 -80 -7 -150 -11 -149 -6 -202 6 -196 47 2 18 16 27 64
43 34 11 80 32 102 47 23 16 46 28 52 28 5 0 27 15 47 33 21 18 54 43 73 55
54 32 235 222 260 272 12 25 30 54 40 65 10 11 24 40 30 65 7 25 17 51 22 58
8 9 62 12 210 12 208 0 227 -3 260 -46 11 -13 38 -27 70 -34 29 -6 64 -20 78
-29 14 -10 35 -23 47 -29 37 -20 238 -32 371 -22 122 8 122 9 204 57 96 56
111 82 112 188 1 92 -16 122 -103 179 -54 36 -84 49 -133 56 -35 6 -105 18
-156 27 -88 16 -99 16 -175 0 -45 -9 -94 -17 -108 -17 -67 0 -125 -29 -197
-100 l-72 -70 -200 0 c-196 0 -200 0 -214 23 -8 12 -17 33 -21 46 -16 54 -167
217 -230 249 -22 11 -48 29 -59 41 -10 11 -40 27 -67 36 -26 9 -64 27 -83 40
-38 26 -59 32 -203 64 -115 26 -361 29 -439 6 -27 -8 -80 -19 -119 -25 -43 -7
-83 -20 -105 -35 -20 -14 -61 -33 -93 -44 -32 -10 -68 -28 -80 -39 -12 -11
-34 -26 -49 -33 -29 -15 -127 -109 -170 -162 -15 -18 -37 -59 -48 -91 -12 -31
-32 -63 -44 -71 -18 -12 -116 -15 -576 -18 -550 -3 -689 1 -716 24 -21 17 -17
63 6 84 12 10 30 35 42 54 44 75 187 204 275 250 21 10 49 31 62 45 13 14 45
32 71 41 26 9 56 25 66 37 11 11 39 29 62 39 24 11 60 33 80 49 20 17 42 30
49 30 7 0 27 13 45 29 18 15 51 38 74 49 22 11 46 28 54 37 8 9 32 26 54 37
23 11 56 34 73 51 18 18 59 55 90 82 119 103 261 274 303 365 12 25 25 54 30
65 6 11 19 31 30 45 12 14 28 53 36 85 9 33 26 78 39 100 17 28 28 75 40 159
9 66 20 127 26 137 11 21 54 35 132 44 47 5 71 16 133 57 41 29 82 64 90 79
24 47 18 119 -14 170 -31 47 -85 99 -106 99 -16 0 -56 42 -56 58 0 18 -466 17
-473 -1z m106 -168 c31 -7 57 -15 57 -20 0 -4 -18 -10 -40 -14 -22 -4 -54 -17
-72 -31 -18 -13 -44 -31 -57 -41 -21 -15 -26 -15 -50 -2 -36 20 -42 73 -10 90
57 30 93 34 172 18z m1107 -2059 c52 -7 111 -19 130 -27 19 -9 66 -25 104 -37
38 -12 74 -30 80 -39 15 -23 -2 -48 -40 -60 -40 -13 -1033 -18 -1056 -6 -23
12 -23 51 0 71 9 9 42 21 72 28 30 7 78 24 108 37 98 46 382 61 602 33z
m-3574 -191 c9 -16 -17 -30 -41 -23 -28 9 -31 14 -15 24 20 13 47 12 56 -1z
m5149 -74 c0 -18 -8 -20 -79 -23 -87 -3 -116 2 -99 19 13 13 96 28 143 26 28
-2 35 -6 35 -22z m-2858 -56 c35 -30 56 -100 54 -189 0 -49 6 -113 15 -151 23
-95 17 -245 -11 -266 -25 -19 -118 -11 -197 16 -31 10 -97 24 -149 31 -65 8
-113 21 -156 41 -34 16 -94 35 -133 43 -40 7 -85 23 -101 35 -17 12 -53 29
-81 38 -29 8 -66 26 -83 39 -17 13 -51 31 -76 39 -24 9 -55 26 -69 39 -14 13
-38 31 -55 41 -16 10 -65 54 -107 97 -83 85 -96 117 -56 139 15 8 185 14 567
19 597 8 614 8 638 -11z m1261 4 c422 -5 432 -6 432 -49 0 -27 -254 -284 -280
-284 -5 0 -24 -13 -42 -29 -18 -15 -56 -36 -83 -45 -28 -9 -67 -27 -87 -41
-20 -14 -63 -31 -95 -39 -32 -8 -83 -25 -113 -39 -30 -14 -77 -28 -105 -32
-27 -4 -120 -22 -206 -41 -86 -19 -169 -34 -185 -33 -16 1 -48 -1 -71 -5 -52
-9 -82 -1 -92 27 -4 12 -4 94 1 182 5 88 9 194 8 236 -2 90 12 149 41 175 19
17 43 20 218 25 108 3 210 4 226 2 17 -3 211 -7 433 -10z m-2797 -749 c21 -25
-14 -44 -82 -44 -67 0 -89 7 -89 26 0 21 36 33 101 33 40 1 60 -4 70 -15z
m2821 -133 l267 -6 28 -26 c36 -34 58 -45 111 -53 24 -4 66 -18 92 -31 84 -43
91 -87 28 -166 -74 -90 -163 -171 -228 -204 -19 -10 -50 -31 -68 -46 -18 -16
-38 -29 -45 -29 -7 0 -35 -14 -63 -31 -27 -18 -79 -42 -115 -54 -37 -13 -78
-30 -91 -39 -14 -9 -56 -27 -94 -40 -38 -13 -87 -32 -109 -43 -22 -11 -65 -26
-95 -32 -30 -7 -70 -21 -88 -31 -18 -11 -70 -31 -115 -45 -119 -35 -264 -83
-322 -106 -64 -24 -82 -24 -96 2 -17 32 -19 362 -2 419 9 30 13 110 13 244 l0
198 39 39 c33 34 45 39 84 39 24 0 60 6 78 14 19 8 75 19 124 25 50 6 101 13
115 15 14 3 84 2 155 -1 72 -3 250 -8 397 -12z m-1168 -1214 c16 -12 17 -41
16 -389 0 -302 -3 -384 -15 -411 -8 -19 -22 -64 -31 -100 -11 -44 -27 -79 -49
-104 l-33 -38 -203 -3 c-112 -2 -219 0 -237 3 -18 3 -50 21 -70 39 -53 47 -74
56 -133 56 -65 0 -180 34 -203 59 -40 44 -31 106 36 263 45 105 306 371 399
407 13 5 48 25 78 45 29 20 58 36 64 36 5 0 31 13 56 29 25 16 71 37 101 46
30 10 67 27 81 38 45 32 115 44 143 24z m946 -680 c73 -28 104 -45 133 -76 61
-66 45 -111 -39 -111 -53 0 -112 -31 -187 -100 -35 -33 -77 -64 -91 -70 -16
-6 -117 -10 -232 -10 -234 0 -264 7 -264 61 0 82 140 239 250 280 84 32 250
68 295 65 22 -2 83 -20 135 -39z m210 -468 c0 -14 -5 -19 -17 -17 -26 5 -29
38 -4 38 15 0 21 -6 21 -21z m-1194 -101 l54 -56 2 -139 c2 -183 1 -193 -25
-221 -30 -32 -43 -39 -143 -68 -48 -14 -100 -36 -116 -49 -39 -33 -66 -39
-153 -32 -48 3 -89 13 -121 30 -27 13 -62 27 -79 31 -47 11 -142 75 -217 146
-53 51 -72 77 -87 120 -22 63 -15 86 27 96 15 3 51 15 80 25 29 10 62 19 73
19 13 0 51 31 98 81 l78 80 237 -3 237 -3 55 -57z m851 31 c38 -36 59 -45 118
-54 28 -3 68 -17 90 -30 22 -12 55 -26 73 -30 18 -4 40 -17 48 -30 14 -22 14
-27 0 -52 -8 -15 -23 -44 -33 -63 -26 -52 -122 -160 -168 -189 -22 -14 -56
-38 -75 -53 -22 -16 -83 -41 -162 -64 l-127 -36 -93 26 c-55 15 -125 27 -170
29 -66 2 -80 6 -103 27 -52 49 -57 70 -59 254 l-1 171 45 51 c25 29 54 56 65
62 13 7 107 10 272 9 l252 -2 28 -26z m-709 -806 c2 -8 -5 -13 -17 -13 -21 0
-35 13 -24 24 10 10 36 3 41 -11z"/>
</g>
</svg>
