<?xml version="1.0" standalone="no"?>
<!DOCTYPE svg PUBLIC "-//W3C//DTD SVG 20010904//EN"
 "http://www.w3.org/TR/2001/REC-SVG-20010904/DTD/svg10.dtd">
<svg version="1.0" xmlns="http://www.w3.org/2000/svg"
 width="408.000000pt" height="440.000000pt" viewBox="0 0 408.000000 440.000000"
 preserveAspectRatio="xMidYMid meet">
<metadata>
Created by potrace 1.16, written by Peter Selinger 2001-2019
</metadata>
<rect x="0" y="0" width="408" height="440" fill="#ffffff"/>
<g transform="translate(0.000000,440.000000) scale(0.100000,-0.100000)"
fill="#000000" stroke="none">
<path d="M1943 4323 c-34 -18 -78 -53 -98 -77 -20 -24 -48 -49 -63 -54 -15 -6
-91 -18 -169 -27 -92 -10 -167 -24 -211 -40 -37 -13 -101 -31 -141 -40 -41 -8
-101 -27 -135 -41 -33 -14 -86 -34 -118 -44 -31 -10 -71 -29 -90 -43 -18 -13
-56 -32 -85 -41 -28 -10 -56 -23 -63 -31 -6 -7 -34 -25 -63 -39 -29 -15 -72
-42 -97 -61 -25 -19 -67 -52 -94 -72 -94 -72 -182 -167 -301 -323 -48 -64
-121 -199 -135 -251 -17 -62 -37 -97 -60 -104 -19 -6 -20 -15 -20 -233 l0
-227 34 -27 c27 -22 37 -39 46 -83 9 -41 26 -74 73 -136 34 -45 73 -97 87
-115 14 -18 43 -47 65 -63 22 -16 63 -48 90 -70 28 -22 77 -57 110 -76 33 -20
69 -45 80 -55 11 -10 37 -23 58 -30 21 -6 51 -23 67 -36 16 -14 57 -36 91 -49
34 -14 67 -29 73 -34 7 -6 43 -22 80 -36 37 -14 86 -35 108 -46 23 -12 84 -36
137 -54 53 -18 116 -40 141 -49 101 -36 291 -96 305 -96 9 0 64 -15 123 -34
59 -19 125 -39 147 -45 73 -20 68 19 66 -487 -1 -266 -7 -480 -12 -509 -17
-82 -58 -206 -78 -234 -10 -14 -21 -36 -25 -48 -14 -43 54 -83 182 -109 33 -7
162 33 227 71 22 12 57 28 78 35 21 7 53 24 70 39 18 15 53 38 80 50 26 13 47
27 47 31 0 5 17 19 38 31 58 35 180 147 226 207 51 68 47 61 90 155 32 70 36
88 37 172 2 82 -1 99 -23 142 -14 26 -30 64 -37 84 -10 33 -163 199 -182 199
-4 0 -29 17 -56 39 -27 21 -60 42 -74 46 -13 4 -50 21 -82 37 -33 16 -130 53
-218 82 -87 30 -166 59 -174 66 -12 10 -14 55 -12 291 2 244 4 280 19 295 14
14 51 17 305 18 354 3 541 19 693 61 30 8 100 24 154 35 54 11 113 29 130 39
17 10 58 26 91 36 33 9 78 29 100 44 22 15 56 33 75 41 19 7 49 25 65 40 17
15 45 35 62 44 18 9 41 29 50 44 9 15 31 43 48 63 44 49 111 176 119 224 4 22
16 64 27 93 26 73 27 235 0 323 -11 35 -22 79 -26 97 -10 48 -86 192 -131 248
-62 77 -234 242 -271 259 -19 9 -49 30 -67 46 -19 16 -49 35 -67 43 -19 8 -49
26 -68 40 -19 14 -51 29 -70 32 -20 4 -65 22 -101 40 -36 18 -96 40 -135 48
-38 8 -104 27 -145 41 -41 14 -116 30 -166 36 -51 5 -116 14 -145 20 -30 5
-85 12 -124 15 -38 3 -89 12 -113 20 -23 8 -65 14 -93 14 -55 0 -93 16 -124
50 -20 23 -137 81 -158 79 -7 -1 -40 -17 -74 -36z m520 -428 c32 -8 80 -15
106 -15 27 0 64 -6 82 -14 19 -7 70 -17 114 -20 102 -9 162 -22 233 -51 31
-13 84 -28 117 -34 32 -6 76 -22 96 -35 20 -14 63 -32 95 -42 32 -9 80 -32
107 -50 27 -19 54 -34 61 -34 12 0 44 -26 146 -115 101 -89 202 -220 219 -282
33 -124 20 -345 -25 -406 -13 -17 -33 -51 -43 -74 -21 -44 -108 -132 -164
-167 -18 -11 -45 -30 -60 -43 -15 -12 -51 -29 -79 -38 -28 -8 -70 -26 -94 -40
-23 -14 -66 -30 -96 -36 -29 -6 -93 -25 -142 -41 -48 -16 -126 -33 -171 -38
-46 -5 -118 -15 -161 -24 -138 -26 -253 -35 -464 -37 -113 -1 -212 -1 -222 0
-9 1 -21 15 -27 32 -16 45 -15 692 0 722 7 12 38 52 70 88 78 88 78 108 5 198
-29 36 -58 75 -63 86 -23 46 4 416 34 478 8 15 24 32 36 37 37 15 227 11 290
-5z m-573 -5 c11 -6 25 -20 31 -31 16 -31 31 -173 36 -341 l4 -146 -31 -36
c-33 -37 -63 -48 -155 -61 -27 -4 -93 -18 -145 -31 -52 -14 -138 -34 -190 -44
-59 -11 -137 -36 -203 -65 -92 -41 -120 -59 -188 -122 -68 -65 -81 -83 -95
-131 -21 -72 -14 -211 14 -275 41 -93 238 -257 349 -291 26 -8 73 -25 103 -39
30 -14 112 -38 183 -52 70 -14 145 -32 166 -40 21 -7 68 -16 105 -20 114 -13
109 1 107 -300 -1 -152 -7 -267 -13 -278 -11 -22 -13 -22 -184 16 -61 14 -125
32 -143 41 -17 9 -68 26 -113 37 -45 11 -98 29 -119 40 -21 10 -72 28 -114 40
-42 11 -113 38 -158 59 -45 21 -122 57 -172 80 -49 23 -97 49 -106 56 -9 8
-42 27 -75 43 -33 16 -66 36 -73 45 -7 8 -26 22 -41 30 -77 38 -315 268 -351
338 -12 24 -32 57 -45 73 -30 41 -42 91 -50 215 -7 118 12 240 46 294 10 17
33 58 50 91 85 166 239 329 415 437 24 15 52 35 63 46 11 11 42 27 70 36 27 9
58 26 68 37 9 11 43 27 73 36 31 8 81 28 111 44 30 16 79 33 108 40 30 6 89
24 133 40 44 16 105 31 137 35 59 6 250 38 312 53 50 12 59 12 80 1z m10 -810
c79 -44 80 -47 80 -426 0 -310 -1 -333 -19 -355 -18 -23 -21 -23 -82 -12 -35
7 -82 17 -104 22 -22 6 -80 17 -129 26 -48 9 -105 24 -125 34 -20 10 -64 26
-98 35 -35 8 -80 27 -102 40 -21 14 -54 31 -72 39 -43 18 -136 113 -166 169
-18 33 -23 59 -23 113 0 65 3 73 38 120 54 71 171 134 327 175 168 43 206 49
325 47 91 -2 111 -6 150 -27z m305 -1715 c28 -9 73 -27 100 -40 28 -14 75 -36
105 -50 103 -46 173 -93 241 -161 58 -56 73 -79 99 -146 16 -44 30 -88 30 -99
0 -11 -18 -56 -39 -102 -31 -66 -51 -93 -103 -138 -34 -31 -77 -63 -93 -71
-17 -9 -42 -27 -57 -41 -15 -14 -44 -31 -65 -38 -21 -6 -61 -25 -88 -40 -60
-34 -181 -62 -207 -48 -42 22 -43 36 -46 490 -3 377 -1 442 12 474 18 41 16
41 111 10z"/>
</g>
</svg>
