<?xml version="1.0" standalone="no"?>
<!DOCTYPE svg PUBLIC "-//W3C//DTD SVG 20010904//EN"
 "http://www.w3.org/TR/2001/REC-SVG-20010904/DTD/svg10.dtd">
<svg version="1.0" xmlns="http://www.w3.org/2000/svg"
 width="408.000000pt" height="592.000000pt" viewBox="0 0 408.000000 592.000000"
 preserveAspectRatio="xMidYMid meet">
<metadata>
Created by potrace 1.16, written by Peter Selinger 2001-2019
</metadata>
<rect x="0" y="0" width="408" height="592" fill="#ffffff"/>
<g transform="translate(0.000000,592.000000) scale(0.100000,-0.100000)"
fill="#000000" stroke="none">
<path d="M1980 5909 c0 -20 -132 -148 -164 -158 -17 -5 -63 -14 -102 -20 -39
-6 -88 -17 -110 -25 -22 -7 -64 -17 -94 -20 -102 -13 -165 -28 -210 -51 -25
-13 -75 -29 -110 -35 -36 -7 -88 -25 -116 -40 -28 -16 -69 -33 -91 -39 -22 -6
-57 -24 -76 -40 -20 -16 -57 -34 -82 -40 -24 -6 -59 -24 -77 -40 -18 -15 -43
-32 -56 -35 -12 -4 -43 -24 -67 -44 -25 -20 -70 -57 -101 -82 -81 -65 -175
-157 -204 -200 -14 -20 -43 -63 -64 -96 -22 -32 -49 -70 -62 -82 -13 -13 -28
-40 -35 -60 -6 -21 -24 -59 -39 -87 -16 -27 -33 -78 -39 -112 -7 -34 -18 -83
-26 -110 -19 -66 -14 -294 8 -343 8 -19 18 -56 22 -81 4 -25 18 -63 31 -85 13
-21 32 -58 43 -80 11 -24 70 -92 133 -156 110 -110 170 -158 282 -223 29 -16
66 -40 83 -52 17 -13 34 -23 38 -23 4 0 78 -34 164 -76 188 -93 272 -129 371
-161 41 -13 111 -39 155 -57 44 -19 103 -37 130 -41 28 -4 75 -17 106 -30 30
-13 120 -40 200 -59 191 -47 189 -44 189 -212 0 -69 -5 -134 -10 -145 -6 -11
-29 -32 -52 -47 -106 -70 -149 -100 -195 -132 -99 -70 -153 -112 -153 -119 0
-4 -16 -26 -35 -48 -37 -43 -85 -172 -85 -228 0 -39 43 -149 76 -192 26 -34
155 -126 195 -138 81 -25 204 -120 238 -183 6 -11 12 -65 13 -120 3 -93 1
-103 -19 -123 -22 -22 -27 -23 -221 -20 -163 2 -206 0 -237 -13 -20 -9 -59
-16 -85 -16 -79 0 -196 -27 -279 -65 -43 -19 -83 -35 -89 -35 -6 0 -26 -13
-44 -29 -18 -15 -47 -35 -64 -44 -45 -23 -161 -159 -169 -199 -4 -18 -19 -60
-32 -93 -21 -50 -25 -71 -21 -131 3 -39 12 -84 21 -100 9 -16 26 -54 37 -84
30 -80 196 -246 272 -272 18 -6 48 -22 67 -36 37 -27 172 -69 328 -101 80 -16
138 -21 272 -21 164 0 170 -1 185 -22 9 -12 16 -30 16 -40 0 -16 11 -18 110
-18 99 0 110 2 110 18 0 32 30 61 73 72 23 6 69 22 102 35 33 14 85 30 115 36
30 6 84 26 120 44 36 18 88 38 115 44 28 7 57 19 67 27 9 9 38 27 65 42 112
61 251 177 305 254 54 76 128 234 140 298 16 89 6 198 -24 250 -14 25 -31 61
-37 81 -14 44 -156 190 -220 226 -25 14 -64 38 -86 53 -82 54 -175 100 -304
149 -193 73 -209 93 -108 141 98 47 144 82 293 224 46 43 91 95 100 115 9 20
31 56 48 80 l31 43 0 157 c0 120 -3 162 -15 182 -82 142 -205 266 -304 309
-27 11 -60 29 -75 39 -14 10 -57 28 -95 41 -39 13 -84 31 -101 42 -18 10 -73
27 -122 38 -117 25 -121 27 -138 61 -20 38 -22 536 -2 561 10 15 51 17 317 22
291 5 453 15 476 29 6 3 46 11 90 17 221 29 495 103 574 154 19 12 51 28 70
35 141 48 335 247 370 379 6 24 27 60 46 81 l34 38 0 203 0 202 -25 20 c-30
23 -50 60 -59 108 -21 109 -273 378 -460 490 -23 14 -55 35 -70 47 -15 12 -51
29 -79 37 -29 8 -67 26 -85 39 -18 14 -60 30 -94 37 -34 6 -83 22 -108 35 -45
23 -108 38 -210 51 -30 3 -72 13 -93 20 -73 26 -213 45 -372 51 l-160 6 -25
30 c-14 16 -42 40 -62 53 -21 13 -40 35 -44 49 -6 24 -10 25 -80 25 -47 0 -74
-4 -74 -11z m-43 -489 c21 -13 35 -31 42 -57 13 -47 15 -422 2 -456 -16 -41
-125 -86 -265 -108 -67 -11 -159 -30 -206 -43 -47 -13 -110 -30 -140 -36 -30
-7 -97 -35 -150 -61 -100 -51 -158 -101 -221 -194 -33 -49 -34 -53 -34 -150
l0 -100 52 -91 c47 -81 61 -96 130 -146 43 -30 105 -70 138 -88 69 -38 326
-124 400 -134 74 -10 215 -36 257 -47 64 -17 68 -33 68 -312 0 -231 -1 -245
-20 -262 -35 -32 -116 -15 -445 97 -49 16 -112 36 -138 44 -27 7 -74 25 -105
40 -32 14 -84 34 -117 45 -33 10 -76 29 -95 42 -19 13 -51 29 -71 36 -20 6
-56 24 -80 39 -24 16 -58 33 -76 39 -18 7 -51 26 -75 43 -24 17 -74 52 -113
77 -94 62 -274 223 -275 245 0 5 -15 25 -34 46 -19 21 -44 62 -55 91 -11 29
-26 61 -34 70 -55 63 -49 327 9 415 7 12 20 41 29 65 8 25 28 60 43 80 15 19
36 50 47 67 89 142 222 276 325 329 19 9 49 30 65 45 17 15 45 32 62 38 18 6
48 22 65 35 18 14 51 30 73 37 22 7 57 23 77 37 20 14 70 33 111 44 40 10 98
30 128 43 30 14 99 32 154 41 55 9 132 24 170 35 66 18 175 35 240 38 17 1 44
-7 62 -18z m672 9 c48 -6 118 -19 156 -30 39 -10 115 -25 170 -34 55 -9 124
-27 154 -41 30 -13 88 -33 128 -43 41 -11 91 -30 111 -44 20 -14 55 -30 77
-37 22 -7 56 -25 75 -40 20 -15 53 -36 75 -48 58 -30 188 -159 263 -262 7 -10
25 -49 38 -87 14 -37 32 -84 39 -103 26 -64 19 -111 -38 -275 -43 -124 -173
-278 -259 -307 -18 -6 -51 -24 -73 -39 -22 -16 -65 -37 -95 -48 -30 -10 -76
-28 -101 -40 -26 -11 -82 -28 -125 -36 -43 -8 -106 -24 -139 -34 -59 -19 -127
-30 -330 -51 -55 -5 -120 -13 -145 -16 -25 -3 -127 -8 -226 -10 -154 -5 -187
-3 -213 10 -58 30 -65 53 -57 184 4 64 11 135 16 157 5 22 10 118 10 213 0
199 7 227 68 267 42 28 52 47 52 107 0 54 -16 89 -62 128 l-40 35 1 210 c2
219 11 292 38 313 21 15 311 17 432 1z m-638 -808 l24 -19 6 -364 c3 -199 4
-369 1 -376 -11 -30 -41 -33 -169 -13 -70 11 -153 29 -184 40 -31 10 -83 24
-115 31 -33 7 -84 25 -114 40 -30 16 -76 37 -101 48 -100 42 -216 181 -235
279 -7 40 19 123 52 162 28 34 146 106 189 115 17 4 58 18 92 32 88 34 145 42
349 43 165 1 184 -1 205 -18z m269 -1711 c19 -9 60 -25 90 -35 117 -38 291
-145 356 -219 93 -106 108 -135 112 -214 6 -108 -12 -145 -119 -252 -52 -52
-108 -97 -136 -110 -26 -12 -61 -33 -76 -46 -15 -13 -47 -28 -70 -34 -23 -5
-64 -22 -92 -36 -69 -37 -99 -44 -140 -33 -43 12 -48 30 -42 135 18 283 31
353 77 411 36 47 28 69 -52 139 -20 18 -41 41 -47 52 -16 29 -14 224 2 244 25
32 71 31 137 -2z m-275 -594 c16 -12 20 -34 27 -157 12 -192 5 -262 -29 -289
-36 -28 -60 -25 -129 18 -117 72 -184 147 -184 205 0 36 37 114 63 132 91 64
134 87 170 95 60 11 61 11 82 -4z m344 -716 c35 -6 89 -23 120 -39 31 -15 79
-33 106 -40 28 -7 68 -23 91 -36 23 -13 64 -33 93 -45 98 -38 195 -104 287
-195 94 -93 125 -146 140 -243 8 -56 -30 -205 -70 -269 -46 -74 -137 -173
-158 -173 -31 0 -41 36 -28 99 13 63 1 169 -26 225 -38 81 -181 236 -217 236
-7 0 -34 15 -60 34 -26 19 -60 37 -74 41 -15 3 -65 21 -112 40 -48 18 -122 38
-165 45 -140 21 -153 37 -141 182 8 109 10 115 44 133 31 17 84 18 170 5z
m-370 -420 c41 -12 59 -34 65 -85 3 -22 3 -198 -2 -391 -8 -408 -3 -387 -103
-398 -87 -9 -289 19 -364 51 -33 14 -86 31 -118 39 -32 8 -81 30 -109 49 -28
19 -55 35 -60 35 -19 0 -123 102 -160 158 -21 30 -38 67 -38 81 0 38 67 137
133 196 95 85 124 105 186 130 33 13 74 33 90 45 17 11 63 27 103 35 41 8 86
19 101 24 16 6 45 11 65 11 20 1 64 7 97 14 77 18 74 18 114 6z m305 -55 c48
-9 105 -24 126 -35 20 -10 61 -28 89 -39 80 -30 228 -163 258 -231 18 -40 21
-152 5 -191 -15 -37 -128 -148 -188 -184 -63 -38 -255 -106 -317 -112 -33 -4
-55 0 -72 11 l-25 16 0 188 c0 128 -5 206 -15 247 -8 34 -14 111 -15 178 0
112 1 119 25 142 29 29 20 29 129 10z"/>
</g>
</svg>
