<?xml version="1.0" standalone="no"?>
<!DOCTYPE svg PUBLIC "-//W3C//DTD SVG 20010904//EN"
 "http://www.w3.org/TR/2001/REC-SVG-20010904/DTD/svg10.dtd">
<svg version="1.0" xmlns="http://www.w3.org/2000/svg"
 width="408.000000pt" height="672.000000pt" viewBox="0 0 408.000000 672.000000"
 preserveAspectRatio="xMidYMid meet">
<metadata>
Created by potrace 1.16, written by Peter Selinger 2001-2019
</metadata>
<rect x="0" y="0" width="408" height="672" fill="#ffffff"/>
<g transform="translate(0.000000,672.000000) scale(0.100000,-0.100000)"
fill="#000000" stroke="none">
<path d="M1977 6695 c-7 -14 -41 -50 -75 -79 -63 -56 -138 -91 -215 -101 -45
-6 -178 -29 -267 -47 -30 -6 -77 -20 -105 -33 -27 -12 -79 -27 -115 -34 -36
-7 -90 -26 -120 -42 -30 -16 -74 -34 -96 -39 -23 -6 -58 -23 -77 -39 -20 -16
-57 -34 -82 -40 -24 -6 -59 -24 -77 -39 -18 -16 -47 -34 -65 -41 -17 -7 -42
-24 -55 -38 -12 -14 -39 -33 -58 -43 -38 -20 -210 -185 -276 -265 -23 -28 -49
-66 -59 -85 -10 -19 -31 -50 -46 -68 -16 -18 -29 -38 -29 -45 0 -6 -15 -36
-34 -67 -20 -32 -37 -76 -41 -105 -9 -65 -38 -130 -64 -147 -20 -12 -21 -22
-21 -162 l0 -148 30 -34 c25 -29 60 -115 60 -149 0 -15 61 -111 112 -174 52
-66 118 -132 190 -189 29 -23 71 -58 93 -76 23 -19 53 -38 68 -41 15 -4 46
-22 69 -41 24 -19 48 -34 54 -34 7 0 36 -16 65 -36 30 -20 76 -42 102 -50 26
-7 69 -26 95 -42 26 -16 74 -38 107 -47 33 -9 77 -26 99 -37 75 -38 529 -189
611 -202 22 -4 81 -20 131 -37 72 -24 93 -35 103 -55 15 -34 14 -186 -1 -206
-9 -10 -37 -18 -80 -21 -50 -5 -90 -17 -165 -53 -54 -25 -109 -56 -123 -69
-14 -12 -37 -29 -51 -36 -59 -31 -209 -197 -209 -233 0 -6 -11 -35 -25 -65
-28 -60 -55 -175 -55 -236 0 -94 63 -249 141 -348 64 -81 241 -199 385 -256
85 -34 110 -54 138 -108 22 -44 20 -86 -4 -108 -17 -16 -46 -20 -173 -27 -84
-4 -170 -12 -192 -16 -22 -5 -69 -16 -105 -25 -36 -8 -91 -20 -122 -25 -32 -6
-73 -22 -90 -35 -18 -14 -56 -32 -84 -41 -29 -9 -60 -26 -70 -37 -11 -12 -37
-30 -59 -42 -68 -34 -139 -114 -183 -207 -39 -82 -41 -89 -44 -196 -2 -105 -1
-113 23 -150 14 -21 31 -56 38 -76 16 -48 104 -153 141 -168 15 -6 38 -22 51
-36 12 -13 47 -33 77 -44 30 -12 68 -32 84 -45 16 -14 48 -29 71 -35 23 -6 65
-20 92 -31 90 -38 132 -48 232 -55 54 -4 115 -13 137 -20 21 -8 63 -14 93 -14
69 0 108 -20 122 -62 17 -53 4 -199 -30 -331 -35 -136 -34 -169 6 -240 l27
-47 76 0 77 0 21 68 c20 68 20 69 2 177 -10 60 -23 125 -28 144 -5 20 -10 80
-10 134 0 142 29 187 121 187 70 0 194 26 254 54 30 13 79 30 109 36 31 6 69
22 84 35 16 13 54 33 84 45 31 11 62 28 69 36 7 9 31 25 53 36 67 34 181 136
258 230 20 25 56 81 79 124 40 74 42 85 47 181 6 134 -2 183 -39 230 -17 21
-37 52 -44 69 -7 17 -29 41 -48 53 -19 12 -37 28 -41 36 -3 8 -24 24 -48 36
-24 12 -57 32 -74 45 -17 13 -50 31 -74 39 -24 9 -65 29 -90 45 -25 16 -70 34
-100 41 -30 6 -76 22 -102 35 -26 13 -80 31 -120 39 -40 9 -113 29 -163 45
-49 16 -109 34 -131 39 -23 6 -59 25 -80 42 -38 30 -42 31 -111 25 -76 -6
-155 13 -211 52 -15 10 -53 31 -85 45 -126 57 -239 172 -288 294 -39 95 -39
181 0 285 43 116 86 170 130 165 19 -1 28 -11 38 -43 19 -57 94 -126 173 -159
116 -48 134 -54 167 -55 23 0 37 -7 49 -25 15 -23 15 -31 0 -106 -9 -44 -25
-98 -36 -119 -11 -21 -29 -62 -40 -90 -18 -46 -19 -54 -6 -85 20 -47 47 -58
161 -63 l100 -4 89 46 c49 25 94 46 102 46 7 0 25 11 41 24 16 14 54 36 85 49
30 14 59 30 63 36 3 7 25 24 48 38 47 30 77 55 156 134 95 95 112 117 159 207
l46 87 1 126 0 126 -36 59 c-20 32 -39 68 -43 79 -14 47 -157 166 -268 223
-31 16 -69 39 -85 50 -15 11 -56 27 -90 36 -35 8 -81 25 -103 36 -23 12 -75
29 -117 40 -119 30 -112 10 -114 330 -1 271 -1 275 21 292 20 16 48 18 297 18
188 0 313 5 396 15 182 23 485 84 547 110 30 13 80 30 112 38 31 8 71 26 90
40 18 13 50 30 70 36 47 15 180 115 231 173 61 68 118 163 138 231 12 40 30
73 49 92 l30 29 0 171 c0 171 0 172 -24 184 -28 15 -41 38 -56 100 -7 24 -31
81 -56 125 -35 65 -68 106 -168 206 -69 68 -133 128 -143 133 -10 5 -29 20
-43 33 -14 13 -46 32 -71 43 -25 11 -53 29 -63 40 -10 11 -47 30 -83 42 -35
11 -83 31 -106 44 -23 13 -70 31 -104 39 -34 9 -83 25 -109 36 -25 11 -121 34
-213 50 -91 16 -182 34 -201 40 -19 6 -111 16 -205 22 l-170 11 -41 36 c-22
20 -55 44 -72 53 -18 9 -37 29 -42 43 -9 23 -15 25 -64 25 -49 0 -57 -3 -69
-25z m768 -498 c83 -19 175 -37 205 -41 30 -4 84 -20 120 -36 36 -16 90 -34
120 -40 30 -7 78 -25 105 -40 28 -15 67 -33 88 -39 21 -7 50 -23 66 -37 16
-13 48 -32 72 -43 49 -21 224 -188 277 -264 84 -121 106 -305 57 -461 -14 -43
-38 -97 -54 -120 -15 -22 -35 -53 -44 -67 -18 -29 -116 -108 -169 -135 -18 -9
-46 -27 -61 -40 -16 -13 -54 -31 -85 -40 -31 -9 -77 -27 -102 -39 -25 -12 -70
-28 -100 -34 -30 -6 -100 -24 -155 -40 -55 -16 -149 -34 -210 -41 -60 -7 -141
-17 -180 -22 -38 -5 -179 -12 -312 -14 -234 -5 -242 -5 -262 15 -20 20 -21 31
-21 369 l0 349 29 39 c16 21 45 54 64 73 65 62 61 125 -14 202 -27 28 -53 58
-58 67 -10 20 9 394 25 469 2 12 12 29 21 39 16 15 37 16 223 11 184 -6 220
-10 355 -40z m-810 8 c22 -21 25 -33 25 -94 0 -38 5 -82 11 -98 15 -36 19
-282 6 -308 -25 -48 -97 -80 -237 -104 -63 -11 -140 -27 -170 -36 -30 -8 -99
-24 -152 -35 -68 -14 -126 -35 -197 -70 -85 -43 -110 -62 -171 -128 -40 -42
-76 -87 -81 -100 -14 -35 -10 -212 5 -255 49 -137 226 -278 436 -347 47 -16
110 -37 140 -48 30 -11 98 -27 150 -36 222 -39 255 -48 275 -67 19 -18 20 -35
23 -273 3 -236 2 -254 -16 -276 l-19 -24 -104 23 c-57 13 -123 31 -146 41 -23
10 -68 24 -100 30 -32 7 -88 25 -124 41 -37 16 -91 34 -120 40 -30 6 -79 24
-109 39 -30 15 -73 33 -95 40 -22 7 -62 25 -90 40 -27 15 -62 31 -77 34 -16 4
-56 24 -89 46 -34 22 -67 40 -74 40 -7 0 -30 13 -51 28 -21 15 -60 40 -86 55
-27 15 -48 32 -48 37 0 5 -14 17 -30 25 -17 9 -86 71 -152 138 -89 90 -129
138 -151 182 -16 33 -40 80 -53 105 -24 43 -25 52 -22 201 3 150 4 157 30 196
14 22 32 60 38 84 6 24 24 58 40 74 15 17 36 46 45 65 28 55 72 107 180 214
63 62 117 106 145 118 25 10 59 32 75 47 17 16 45 33 62 39 18 6 48 22 65 36
18 13 53 29 78 36 25 6 65 25 88 40 24 16 69 34 100 41 32 6 84 24 117 39 40
19 91 32 154 40 52 7 113 19 135 27 57 21 179 41 254 42 54 1 66 -2 87 -24z
m7 -784 c49 -25 53 -56 53 -422 0 -318 -1 -338 -19 -358 -11 -12 -26 -19 -35
-16 -9 2 -66 11 -127 19 -61 8 -137 24 -170 36 -32 11 -90 29 -129 40 -107 28
-261 104 -326 161 -45 39 -62 63 -83 114 -70 175 9 296 244 377 159 55 239 68
410 65 106 -2 164 -7 182 -16z m254 -1710 c23 -10 68 -26 100 -36 32 -9 70
-25 85 -35 14 -11 44 -25 66 -33 22 -8 71 -35 109 -60 175 -118 267 -266 236
-380 -24 -88 -150 -235 -242 -282 -19 -10 -57 -33 -84 -52 -26 -18 -56 -33
-65 -33 -10 0 -54 -18 -99 -41 -70 -35 -87 -40 -122 -34 -49 8 -80 47 -80 99
0 43 11 50 109 65 107 17 246 80 305 140 36 37 50 61 67 119 22 72 22 74 5
129 -39 123 -183 223 -351 244 -104 13 -110 15 -123 45 -15 31 -16 119 -2 145
13 24 34 24 86 0z m-206 -377 c6 -14 10 -60 10 -102 0 -124 -32 -147 -137 -97
-101 46 -130 103 -75 145 99 77 105 80 149 80 38 0 45 -3 53 -26z m292 -12
c24 -16 55 -37 71 -46 40 -24 35 -54 -17 -105 -45 -45 -87 -60 -168 -61 -59 0
-68 17 -68 130 0 116 5 123 87 116 36 -3 66 -14 95 -34z m25 -1252 c184 -51
421 -142 503 -193 19 -13 47 -29 61 -37 93 -53 157 -111 209 -191 30 -46 35
-62 34 -109 0 -46 -8 -69 -49 -142 -39 -70 -54 -89 -85 -103 -21 -10 -43 -14
-49 -11 -6 4 -11 37 -11 74 0 262 -248 486 -635 574 -120 27 -151 49 -142 105
7 39 23 63 43 63 8 0 62 -13 121 -30z m-370 -251 c37 -14 43 -25 43 -82 0 -58
-33 -140 -65 -161 -13 -9 -71 -29 -128 -45 -115 -32 -236 -96 -263 -140 -9
-14 -28 -38 -41 -53 -28 -29 -53 -118 -53 -186 0 -24 -5 -52 -10 -63 -13 -23
-43 -25 -60 -4 -7 8 -37 22 -66 31 -71 20 -142 76 -214 165 -32 40 -35 49 -35
109 0 60 3 69 35 109 74 93 168 172 228 192 20 7 54 22 74 35 30 19 258 81
358 97 53 9 170 7 197 -4z m393 -52 c47 -14 112 -39 144 -56 32 -17 64 -31 71
-31 6 0 43 -27 82 -59 100 -85 173 -221 158 -297 -10 -58 -29 -53 -119 32
-130 125 -202 158 -416 194 -69 11 -77 17 -101 76 -27 68 -28 127 -3 155 23
25 59 22 184 -14z m-331 -373 l51 -27 51 27 c68 35 121 34 246 -8 123 -40 194
-89 229 -158 32 -63 30 -87 -8 -132 -30 -34 -39 -38 -108 -47 -41 -5 -106 -14
-145 -19 -76 -11 -109 -5 -193 31 -47 21 -57 22 -107 12 -30 -7 -76 -26 -101
-44 -56 -38 -110 -40 -217 -9 -83 23 -87 26 -116 89 -36 76 -25 111 56 188 37
35 79 65 96 69 16 3 53 17 81 30 67 31 121 31 185 -2z"/>
</g>
</svg>
