<?xml version="1.0" standalone="no"?>
<!DOCTYPE svg PUBLIC "-//W3C//DTD SVG 20010904//EN"
 "http://www.w3.org/TR/2001/REC-SVG-20010904/DTD/svg10.dtd">
<svg version="1.0" xmlns="http://www.w3.org/2000/svg"
 width="400.000000pt" height="296.000000pt" viewBox="0 0 400.000000 296.000000"
 preserveAspectRatio="xMidYMid meet">
<metadata>
Created by potrace 1.16, written by Peter Selinger 2001-2019
</metadata>
<rect x="0" y="0" width="400" height="296" fill="#ffffff"/>
<g transform="translate(0.000000,296.000000) scale(0.100000,-0.100000)"
fill="#000000" stroke="none">
<path d="M2015 2906 c-18 -8 -99 -16 -199 -20 -100 -4 -204 -15 -255 -26 -154
-32 -265 -62 -331 -88 -36 -13 -95 -35 -133 -48 -37 -13 -82 -34 -100 -47 -17
-14 -55 -32 -84 -41 -28 -10 -56 -23 -63 -31 -6 -7 -36 -25 -68 -40 -31 -15
-71 -40 -90 -56 -18 -16 -37 -29 -42 -29 -5 0 -30 -18 -55 -40 -25 -22 -51
-40 -56 -40 -14 0 -208 -198 -244 -250 -16 -23 -39 -58 -51 -76 -11 -19 -30
-44 -42 -57 -11 -12 -28 -40 -37 -61 -9 -21 -27 -55 -40 -75 -13 -20 -30 -65
-39 -100 -20 -79 -44 -129 -68 -144 -16 -11 -18 -27 -18 -177 l0 -165 28 -27
c18 -16 35 -49 45 -83 48 -170 250 -387 501 -539 17 -10 49 -31 71 -46 22 -14
66 -37 97 -49 32 -13 62 -29 69 -37 6 -7 35 -22 65 -33 30 -12 71 -32 92 -45
20 -14 57 -30 82 -36 24 -7 75 -27 112 -46 37 -19 75 -34 83 -34 9 0 64 -17
123 -38 175 -63 293 -103 358 -121 34 -10 74 -27 90 -38 16 -11 45 -25 64 -32
50 -17 80 -39 90 -67 9 -22 15 -24 74 -24 64 0 64 0 83 38 11 20 28 52 38 70
34 65 -3 139 -81 161 -22 6 -79 11 -129 11 -135 0 -337 38 -473 89 -42 15
-113 40 -157 54 -114 36 -330 125 -405 168 -19 11 -62 33 -95 49 -71 35 -159
89 -246 149 -117 83 -300 273 -329 344 -54 132 -69 184 -76 259 -5 72 -4 87
10 101 24 24 45 21 97 -12 25 -15 63 -34 85 -41 21 -7 71 -25 111 -41 40 -16
116 -38 169 -49 54 -11 108 -27 120 -35 26 -17 84 -101 120 -173 36 -73 203
-225 286 -262 25 -11 56 -28 69 -39 14 -11 52 -27 86 -35 33 -9 86 -28 118
-42 37 -17 94 -32 156 -40 53 -7 130 -20 171 -29 58 -13 118 -15 298 -13 124
2 250 9 280 15 30 7 110 19 177 27 90 11 135 22 173 41 28 14 74 30 103 35 29
6 70 23 93 39 23 16 59 34 80 41 74 25 271 205 311 285 14 28 31 57 37 65 7 8
20 36 30 61 18 51 37 64 112 74 27 4 72 19 99 35 28 15 67 33 88 39 21 7 50
23 65 35 15 13 45 33 67 44 43 21 106 86 140 143 11 19 33 40 48 47 l27 13 0
188 0 188 -25 11 c-17 8 -36 34 -55 77 -24 53 -51 87 -142 178 -136 134 -188
177 -248 204 -25 11 -51 27 -58 36 -8 9 -37 24 -65 33 -29 9 -70 30 -92 45
-22 16 -62 33 -90 39 -27 6 -75 24 -105 39 -30 16 -75 32 -100 36 -25 3 -94
20 -155 35 -132 35 -233 48 -420 56 -77 3 -165 12 -196 20 -70 17 -193 17
-234 0z m480 -346 c139 -8 198 -16 260 -35 44 -14 125 -32 180 -40 67 -10 118
-25 155 -44 30 -15 80 -34 110 -40 30 -6 71 -22 90 -35 19 -13 57 -33 83 -44
27 -12 63 -33 80 -48 18 -14 46 -35 64 -47 93 -64 145 -111 164 -150 12 -23
33 -54 47 -70 21 -22 27 -40 30 -92 2 -35 2 -75 -2 -88 -7 -30 -104 -133 -153
-164 -72 -44 -184 -93 -213 -93 -34 0 -67 38 -99 113 -45 104 -214 275 -324
327 -25 12 -51 28 -57 35 -6 8 -35 21 -63 31 -29 9 -67 27 -84 41 -20 14 -67
31 -120 43 -49 10 -106 25 -128 33 -103 36 -249 50 -478 44 -201 -5 -232 -8
-322 -32 -55 -15 -136 -35 -180 -45 -44 -10 -106 -31 -139 -49 -32 -17 -66
-31 -76 -31 -10 0 -40 -15 -66 -33 -27 -18 -62 -38 -78 -45 -41 -18 -109 -75
-198 -166 -61 -62 -87 -98 -123 -171 -25 -51 -45 -104 -45 -119 0 -15 -7 -42
-14 -61 -13 -30 -20 -35 -49 -35 -19 0 -64 11 -99 24 -36 14 -93 32 -128 41
-78 20 -221 97 -255 137 -33 39 -32 70 5 111 16 19 38 54 48 78 22 50 249 292
297 316 16 8 41 26 55 39 14 12 48 33 75 45 28 12 64 32 81 44 16 13 53 30 82
38 28 9 64 26 81 38 16 12 61 28 101 35 39 8 99 27 133 43 42 20 91 33 152 41
50 6 117 19 150 30 81 25 255 50 368 51 51 1 119 5 152 9 68 9 189 7 450 -10z
m-253 -659 c24 -6 68 -14 98 -20 30 -6 73 -15 95 -20 22 -6 79 -15 128 -22 64
-8 97 -18 124 -36 21 -14 59 -32 84 -39 52 -16 125 -60 207 -126 82 -66 118
-154 72 -178 -11 -6 -57 -16 -103 -21 -45 -6 -111 -14 -147 -19 -36 -4 -108
-16 -160 -25 -52 -10 -144 -20 -205 -23 -199 -9 -1057 -6 -1204 4 -131 10
-146 13 -163 34 -27 33 -22 72 15 120 64 82 111 132 141 147 17 9 46 28 63 44
18 15 52 33 75 39 24 7 63 23 87 37 31 18 91 35 190 54 80 15 173 35 206 43
69 17 331 21 397 7z m-892 -663 c105 -7 653 -28 770 -29 95 0 587 21 670 29
52 5 108 15 123 21 37 15 110 14 125 -1 27 -27 13 -60 -55 -125 -38 -36 -88
-77 -113 -91 -25 -14 -58 -36 -75 -48 -16 -12 -52 -29 -78 -38 -26 -9 -70 -27
-96 -41 -49 -24 -138 -47 -261 -67 -36 -5 -90 -16 -120 -24 -77 -19 -214 -10
-451 31 -153 26 -208 39 -255 63 -32 16 -77 35 -99 42 -22 7 -53 23 -70 35
-16 12 -49 32 -71 43 -63 32 -184 153 -184 185 0 32 40 49 85 34 17 -5 86 -13
155 -19z"/>
</g>
</svg>
