<?xml version="1.0" standalone="no"?>
<!DOCTYPE svg PUBLIC "-//W3C//DTD SVG 20010904//EN"
 "http://www.w3.org/TR/2001/REC-SVG-20010904/DTD/svg10.dtd">
<svg version="1.0" xmlns="http://www.w3.org/2000/svg"
 width="408.000000pt" height="424.000000pt" viewBox="0 0 408.000000 424.000000"
 preserveAspectRatio="xMidYMid meet">
<metadata>
Created by potrace 1.16, written by Peter Selinger 2001-2019
</metadata>
<rect x="0" y="0" width="408" height="424" fill="#ffffff"/>
<g transform="translate(0.000000,424.000000) scale(0.100000,-0.100000)"
fill="#000000" stroke="none">
<path d="M1935 4208 c-7 -24 -26 -43 -65 -69 -52 -35 -63 -38 -195 -53 -93
-10 -170 -26 -225 -44 -47 -16 -116 -35 -155 -42 -38 -7 -93 -25 -121 -41 -28
-16 -74 -33 -102 -39 -28 -7 -67 -24 -86 -40 -20 -15 -56 -33 -80 -39 -24 -6
-58 -22 -74 -36 -16 -13 -49 -34 -73 -45 -87 -40 -327 -225 -369 -285 -29 -41
-95 -120 -111 -132 -9 -7 -24 -32 -34 -55 -9 -24 -27 -54 -40 -68 -13 -14 -31
-45 -40 -70 -9 -24 -27 -64 -41 -88 -16 -28 -32 -81 -44 -145 -10 -56 -23
-115 -29 -130 -16 -42 -14 -81 14 -218 19 -98 34 -144 72 -219 43 -84 62 -109
173 -220 160 -160 268 -243 385 -294 30 -14 69 -36 87 -49 18 -14 44 -28 58
-32 14 -4 54 -22 90 -40 36 -18 83 -39 105 -45 22 -7 58 -23 80 -35 22 -13 67
-31 100 -40 32 -9 80 -27 105 -40 25 -12 72 -28 105 -35 33 -7 86 -23 118 -36
32 -14 97 -34 145 -45 124 -28 226 -66 252 -94 l22 -24 -1 -475 c-1 -267 -6
-489 -12 -508 -17 -59 -39 -216 -39 -278 l0 -60 140 0 c129 0 140 1 140 18 0
25 26 47 73 62 21 7 54 25 72 41 18 16 52 36 76 44 24 9 55 26 69 39 14 13 42
31 64 40 21 9 54 29 72 46 19 16 39 30 45 30 10 0 101 89 170 167 21 23 43 59
50 80 6 21 23 58 36 82 19 37 23 58 23 141 0 95 -1 99 -45 187 -34 69 -60 104
-108 149 -78 73 -158 131 -215 155 -25 11 -57 28 -73 40 -16 11 -68 33 -116
49 -158 52 -246 87 -258 103 -7 10 -10 54 -8 124 1 59 3 116 3 125 0 31 46 51
125 54 40 2 122 12 181 22 111 20 211 36 298 47 28 4 80 18 116 31 37 13 102
31 146 40 43 9 98 26 121 39 23 13 66 31 95 40 29 10 73 30 98 46 25 16 66 35
90 44 25 9 56 26 70 39 14 12 41 29 59 36 19 8 49 26 65 40 17 15 39 31 48 36
23 13 205 193 243 241 53 66 113 176 126 228 16 67 43 127 63 144 13 11 16 34
16 122 0 105 -1 110 -30 152 -17 23 -38 69 -46 102 -9 33 -27 80 -42 105 -14
25 -33 59 -42 76 -47 90 -234 275 -354 349 -18 11 -47 32 -64 47 -17 14 -48
32 -69 39 -21 6 -56 25 -78 40 -22 16 -63 33 -92 39 -28 6 -71 24 -95 40 -25
16 -69 33 -105 40 -34 6 -81 19 -105 30 -56 24 -158 46 -282 60 -55 7 -110 16
-123 21 -13 5 -57 9 -98 9 -87 0 -262 34 -286 56 -9 8 -20 26 -23 40 -6 23 -9
24 -104 24 l-98 0 -9 -32z m-20 -392 c10 -16 17 -54 19 -114 2 -49 9 -99 16
-111 8 -16 11 -175 10 -581 0 -492 1 -567 16 -616 30 -105 5 -183 -75 -232
-27 -17 -52 -39 -55 -49 -26 -89 -27 -108 -15 -172 10 -53 18 -71 42 -91 52
-44 99 -94 107 -116 13 -32 -16 -186 -37 -201 -34 -26 -125 -12 -298 45 -33
11 -109 36 -170 56 -60 21 -133 44 -161 51 -28 8 -71 26 -95 39 -24 13 -64 30
-89 36 -25 6 -66 25 -91 41 -25 16 -50 29 -56 29 -29 0 -289 148 -358 203 -16
13 -43 31 -60 40 -44 23 -234 224 -278 295 -62 100 -87 188 -87 307 0 73 5
117 19 156 10 30 21 70 25 90 3 21 18 53 31 73 14 20 32 51 41 69 9 17 32 49
50 70 19 20 34 41 34 46 0 16 233 242 269 261 21 10 44 26 51 35 8 9 39 29 70
45 31 16 62 36 69 44 8 9 39 24 70 32 31 9 86 32 122 50 37 19 71 34 77 34 7
0 65 18 131 40 65 22 127 40 138 40 10 0 79 14 153 31 145 33 228 46 302 48
40 1 50 -3 63 -23z m710 9 c61 -7 132 -21 159 -30 28 -8 101 -22 164 -30 80
-11 134 -24 182 -45 37 -16 91 -35 119 -41 28 -6 67 -22 88 -36 21 -14 55 -31
75 -39 21 -7 59 -29 84 -49 26 -19 52 -35 58 -35 14 0 206 -185 206 -199 0 -5
17 -31 37 -58 62 -80 102 -283 72 -360 -6 -15 -17 -54 -25 -85 -19 -81 -114
-208 -223 -300 -31 -26 -72 -60 -91 -77 -20 -16 -49 -35 -65 -42 -17 -8 -46
-26 -65 -40 -19 -15 -51 -30 -70 -34 -19 -4 -69 -22 -110 -40 -41 -19 -118
-43 -171 -55 -53 -11 -122 -30 -155 -42 -56 -21 -75 -22 -374 -23 -285 0 -319
2 -343 18 -58 38 -58 40 -53 474 5 510 21 1089 31 1128 4 17 12 36 18 43 14
17 311 16 452 -3z m-370 -2544 c62 -20 244 -105 306 -144 73 -46 144 -114 191
-187 l50 -75 -4 -80 c-3 -73 -7 -86 -43 -145 -50 -82 -191 -220 -258 -255 -29
-14 -66 -36 -84 -49 -18 -13 -51 -26 -74 -30 -22 -4 -54 -13 -70 -21 -45 -24
-86 -19 -106 12 -23 35 -32 177 -39 624 -5 302 -4 338 11 353 21 21 46 20 120
-3z"/>
</g>
</svg>
