<?xml version="1.0" standalone="no"?>
<!DOCTYPE svg PUBLIC "-//W3C//DTD SVG 20010904//EN"
 "http://www.w3.org/TR/2001/REC-SVG-20010904/DTD/svg10.dtd">
<svg version="1.0" xmlns="http://www.w3.org/2000/svg"
 width="408.000000pt" height="600.000000pt" viewBox="0 0 408.000000 600.000000"
 preserveAspectRatio="xMidYMid meet">
<metadata>
Created by potrace 1.16, written by Peter Selinger 2001-2019
</metadata>
<rect x="0" y="0" width="408" height="600" fill="#ffffff"/>
<g transform="translate(0.000000,600.000000) scale(0.100000,-0.100000)"
fill="#000000" stroke="none">
<path d="M1986 5951 c-3 -4 -26 -14 -51 -21 -24 -7 -54 -22 -65 -34 -10 -11
-32 -35 -47 -52 -25 -27 -42 -33 -138 -52 -60 -12 -146 -26 -191 -31 -77 -10
-152 -30 -204 -56 -14 -7 -54 -18 -90 -24 -38 -8 -83 -25 -108 -41 -24 -16
-68 -34 -98 -40 -30 -6 -67 -22 -82 -35 -16 -13 -54 -33 -84 -45 -31 -11 -62
-28 -70 -37 -7 -9 -35 -26 -63 -38 -27 -13 -59 -33 -70 -45 -11 -12 -37 -31
-57 -41 -47 -24 -301 -278 -322 -323 -9 -19 -32 -53 -51 -76 -19 -23 -35 -50
-35 -59 0 -9 -13 -38 -29 -63 -16 -25 -36 -72 -46 -104 -20 -68 -47 -125 -69
-143 -13 -11 -16 -41 -16 -185 0 -160 1 -172 20 -184 22 -13 53 -71 64 -117 9
-36 74 -148 112 -190 14 -16 42 -49 61 -73 38 -45 277 -242 294 -242 6 0 36
-18 66 -40 31 -22 61 -40 67 -40 6 0 36 -15 67 -34 30 -18 72 -39 92 -45 20
-7 53 -24 74 -38 20 -14 60 -32 88 -40 27 -9 70 -26 95 -38 25 -13 86 -35 135
-50 50 -15 100 -33 111 -40 12 -8 57 -23 101 -34 43 -11 109 -32 146 -46 37
-13 107 -34 155 -44 191 -42 195 -47 190 -278 -3 -182 -3 -183 -74 -202 -18
-5 -48 -20 -66 -34 -18 -14 -46 -29 -61 -33 -16 -3 -48 -23 -72 -43 -24 -20
-61 -50 -82 -67 -21 -17 -60 -64 -88 -104 -49 -71 -50 -74 -50 -149 0 -99 6
-117 60 -186 84 -109 159 -158 335 -221 59 -21 100 -52 100 -76 0 -5 -11 -20
-25 -33 -20 -21 -34 -25 -80 -25 -31 0 -82 -9 -115 -20 -33 -11 -104 -28 -158
-37 -68 -11 -116 -26 -160 -50 -35 -18 -72 -33 -82 -33 -10 0 -40 -15 -66 -33
-27 -19 -65 -39 -85 -46 -20 -6 -47 -23 -60 -37 -13 -14 -44 -37 -69 -50 -44
-23 -134 -115 -160 -164 -7 -14 -26 -41 -41 -60 -38 -47 -49 -102 -49 -250 0
-148 11 -203 49 -250 15 -19 36 -51 46 -70 33 -65 200 -211 279 -244 21 -9 51
-27 67 -40 16 -14 46 -28 67 -32 20 -3 71 -21 112 -40 74 -32 144 -48 290 -64
103 -11 227 -67 243 -110 10 -28 15 -30 60 -30 42 0 53 5 87 38 49 47 109 96
135 109 11 6 52 13 90 17 44 4 94 18 135 36 36 16 88 34 115 40 28 6 71 24 96
40 25 17 61 35 80 41 19 7 45 22 59 34 14 12 41 33 61 46 106 70 214 179 260
264 12 22 32 53 45 68 13 15 26 44 29 65 4 20 15 63 26 95 27 82 26 196 -5
291 -22 69 -82 169 -133 219 -52 52 -223 169 -287 196 -26 12 -61 30 -77 42
-15 11 -52 28 -81 38 -30 10 -76 30 -104 44 -27 14 -76 30 -107 36 -76 14 -99
27 -95 54 4 26 96 93 147 107 20 5 54 25 75 45 22 19 43 35 48 35 22 0 173
149 216 214 49 73 102 218 102 281 0 58 -52 199 -94 254 -61 81 -189 192 -255
222 -32 15 -61 31 -65 37 -3 6 -30 18 -59 28 -28 9 -77 30 -107 45 -30 16 -91
35 -135 44 -118 24 -120 26 -120 191 0 132 1 136 24 155 20 17 34 19 75 14 33
-4 73 -1 111 8 33 8 107 18 165 22 133 8 260 30 319 55 25 11 78 24 116 30 39
6 93 23 120 37 28 14 80 34 117 43 37 10 79 27 93 38 14 12 50 28 78 38 29 9
72 32 96 51 24 18 50 33 57 33 7 0 26 11 42 25 17 14 51 40 76 58 131 93 172
133 290 287 19 25 55 85 81 134 43 83 46 95 57 211 9 93 9 152 0 242 -10 103
-16 126 -47 185 -19 37 -35 74 -35 82 0 21 -73 108 -176 211 -111 111 -172
165 -183 165 -5 0 -28 15 -50 34 -23 19 -58 40 -79 46 -20 7 -52 23 -70 37
-17 13 -56 32 -86 43 -29 10 -71 30 -93 44 -21 14 -64 31 -96 36 -31 6 -82 22
-112 36 -34 16 -118 37 -218 55 -89 15 -180 35 -202 43 -22 8 -76 16 -120 16
-44 1 -118 5 -163 9 -76 6 -86 9 -104 34 -11 15 -47 41 -79 57 -59 30 -93 37
-103 21z m374 -416 c204 -5 389 -24 474 -51 43 -13 119 -31 170 -40 54 -9 113
-27 146 -43 30 -16 74 -32 97 -36 23 -3 61 -19 86 -35 24 -15 64 -37 88 -49
117 -55 302 -225 346 -316 13 -27 35 -70 48 -94 23 -41 25 -54 25 -171 l0
-127 -49 -99 c-40 -81 -65 -117 -141 -197 -51 -54 -111 -107 -134 -119 -22
-11 -54 -33 -71 -48 -16 -15 -45 -32 -62 -38 -18 -6 -48 -22 -65 -35 -18 -13
-55 -30 -81 -36 -27 -6 -70 -23 -95 -36 -47 -24 -66 -29 -242 -61 -52 -9 -131
-25 -175 -35 -178 -42 -563 -12 -623 48 l-24 24 7 717 c5 576 9 729 21 777 21
84 60 121 114 108 14 -3 77 -7 140 -8z m-482 -15 c17 -11 33 -21 34 -22 12
-19 34 -1487 23 -1544 -3 -20 -23 -49 -51 -75 -63 -60 -104 -134 -104 -186 0
-52 50 -141 98 -172 48 -32 62 -74 62 -185 0 -73 -4 -98 -16 -110 -23 -23 -84
-20 -145 8 -30 14 -95 34 -145 45 -50 11 -117 30 -150 44 -32 13 -84 30 -114
37 -30 7 -80 25 -111 41 -30 15 -81 34 -112 42 -30 8 -69 24 -86 36 -16 12
-49 28 -72 36 -24 9 -64 28 -89 44 -25 16 -61 34 -80 40 -19 6 -57 27 -84 46
-27 19 -55 35 -62 35 -23 0 -247 176 -304 237 -69 76 -118 145 -132 186 -6 18
-22 48 -35 67 -61 93 -57 306 8 443 16 34 29 69 29 78 0 9 18 41 40 72 22 30
40 58 40 62 0 19 265 295 282 295 5 0 25 15 45 34 21 18 54 38 73 45 20 6 50
24 67 40 18 16 49 35 70 42 21 6 61 24 88 39 28 15 75 34 105 40 30 7 71 23
90 36 21 14 76 32 135 43 55 12 143 32 195 46 53 15 145 30 209 35 62 5 116
11 119 14 11 12 48 5 80 -14z m302 -2524 c25 -13 70 -31 101 -40 31 -8 68 -25
82 -36 14 -11 43 -27 65 -34 58 -21 180 -107 238 -168 94 -99 117 -229 63
-348 -26 -57 -152 -193 -210 -227 -16 -9 -29 -21 -29 -25 0 -4 -24 -20 -52
-34 -29 -15 -63 -35 -76 -45 -13 -10 -49 -25 -80 -34 -31 -9 -71 -25 -88 -36
-38 -23 -67 -24 -84 -4 -20 24 -26 160 -24 555 0 58 0 187 0 288 -1 171 0 185
18 198 25 18 23 18 76 -10z m-256 -552 c14 -13 16 -50 16 -245 0 -140 -4 -238
-10 -250 -16 -29 -84 -26 -125 5 -17 13 -47 31 -66 39 -19 8 -58 39 -86 70
-52 54 -53 57 -53 116 0 50 4 65 28 92 46 56 102 103 146 124 23 11 55 30 70
43 34 26 59 28 80 6z m411 -784 c146 -53 224 -84 289 -115 40 -19 77 -35 81
-35 5 0 22 -11 39 -24 17 -13 49 -33 71 -45 52 -28 132 -95 182 -151 47 -52
103 -174 103 -222 0 -47 -63 -217 -91 -247 -13 -14 -33 -40 -44 -57 -21 -32
-120 -124 -134 -124 -4 0 -31 -18 -60 -39 -29 -22 -67 -43 -85 -46 -17 -4 -53
-20 -81 -35 -27 -15 -84 -35 -125 -44 -104 -22 -157 -35 -210 -52 -59 -19 -72
-18 -103 6 -45 35 -72 136 -75 280 -2 69 -5 206 -8 305 -5 170 -4 182 16 213
11 19 37 40 58 49 20 8 45 22 55 31 29 26 47 105 40 179 -5 56 -11 72 -38 102
-38 42 -58 78 -51 90 8 12 116 1 171 -19z m-502 -379 c106 -11 102 2 102 -294
0 -289 -19 -533 -43 -559 -13 -15 -33 -18 -136 -18 -78 1 -135 6 -161 15 -22
8 -102 26 -178 41 -94 18 -148 34 -172 49 -18 13 -53 32 -77 43 -60 27 -182
152 -204 208 -23 61 -15 174 15 215 13 17 36 50 53 75 16 24 47 53 67 64 21
10 43 26 51 35 17 20 83 55 105 55 9 0 43 14 76 31 51 27 79 34 187 45 121 12
156 12 315 -5z"/>
</g>
</svg>
