<?xml version="1.0" standalone="no"?>
<!DOCTYPE svg PUBLIC "-//W3C//DTD SVG 20010904//EN"
 "http://www.w3.org/TR/2001/REC-SVG-20010904/DTD/svg10.dtd">
<svg version="1.0" xmlns="http://www.w3.org/2000/svg"
 width="408.000000pt" height="664.000000pt" viewBox="0 0 408.000000 664.000000"
 preserveAspectRatio="xMidYMid meet">
<metadata>
Created by potrace 1.16, written by Peter Selinger 2001-2019
</metadata>
<rect x="0" y="0" width="408" height="664" fill="#ffffff"/>
<g transform="translate(0.000000,664.000000) scale(0.100000,-0.100000)"
fill="#000000" stroke="none">
<path d="M1912 6610 c-14 -37 -61 -66 -132 -81 -30 -6 -84 -17 -120 -25 -36
-7 -102 -18 -147 -24 -45 -5 -108 -20 -141 -34 -32 -14 -88 -32 -125 -40 -37
-9 -97 -29 -133 -46 -37 -16 -85 -35 -108 -41 -22 -6 -59 -23 -81 -38 -22 -16
-57 -34 -78 -41 -21 -7 -53 -24 -70 -39 -18 -15 -53 -38 -79 -50 -27 -13 -48
-26 -48 -31 0 -5 -22 -22 -50 -39 -27 -17 -103 -84 -167 -149 -163 -164 -178
-182 -197 -225 -9 -22 -27 -52 -40 -68 -13 -16 -30 -45 -37 -66 -7 -21 -23
-54 -36 -74 -13 -20 -28 -64 -34 -98 -5 -35 -19 -86 -29 -114 -45 -119 -7
-384 76 -534 42 -74 176 -234 230 -272 19 -13 34 -28 34 -32 0 -7 91 -69 240
-165 92 -59 178 -106 234 -130 33 -15 102 -43 151 -64 50 -21 115 -50 145 -64
30 -14 63 -26 73 -26 10 0 66 -17 125 -39 161 -58 357 -118 447 -137 64 -14
87 -24 113 -50 28 -28 32 -38 32 -87 0 -30 3 -68 6 -84 9 -46 -19 -71 -101
-88 -73 -16 -241 -90 -254 -112 -4 -7 -36 -32 -71 -56 -79 -52 -148 -136 -199
-243 -58 -119 -63 -145 -59 -279 3 -119 4 -121 49 -215 38 -79 60 -109 129
-177 55 -55 101 -92 139 -109 31 -14 67 -36 81 -49 14 -12 43 -28 65 -35 112
-33 147 -53 176 -99 34 -52 37 -99 10 -132 -18 -23 -26 -24 -156 -26 -107 -2
-160 -8 -240 -28 -57 -14 -140 -31 -184 -39 -53 -10 -91 -22 -113 -39 -18 -13
-56 -32 -85 -41 -28 -10 -57 -24 -64 -32 -7 -9 -31 -25 -53 -36 -64 -32 -134
-111 -185 -206 l-45 -87 0 -115 0 -115 46 -88 c33 -61 66 -107 108 -148 34
-32 65 -59 70 -59 4 0 27 -15 49 -34 23 -19 51 -38 64 -41 12 -4 42 -20 67
-35 25 -16 72 -36 106 -44 34 -9 87 -28 119 -42 43 -20 84 -29 169 -36 148
-13 279 -34 313 -50 39 -18 63 -72 63 -138 0 -71 -16 -169 -39 -239 -11 -31
-22 -79 -26 -107 -6 -46 -3 -60 25 -118 l32 -66 68 0 68 0 32 66 c28 58 31 72
25 118 -4 28 -15 76 -26 107 -39 117 -51 290 -25 353 18 44 63 63 177 76 113
13 133 18 182 42 20 10 65 25 100 34 34 9 80 28 102 43 22 16 58 34 80 41 22
7 56 25 75 40 19 15 46 33 60 40 41 21 98 70 196 168 81 82 100 106 139 190
50 106 63 176 51 274 -12 97 -146 277 -242 326 -21 11 -47 29 -58 41 -10 11
-35 25 -55 32 -20 6 -63 26 -96 44 -33 18 -82 38 -109 44 -27 7 -70 23 -97 37
-27 13 -81 31 -121 39 -40 9 -121 31 -182 50 -60 19 -117 35 -126 35 -9 0 -39
16 -66 36 -47 34 -51 35 -115 30 -79 -7 -137 10 -273 81 -179 92 -258 173
-317 324 -21 55 -39 112 -39 127 0 52 72 243 106 278 46 50 79 47 103 -10 32
-74 100 -128 224 -176 83 -32 111 -47 119 -66 9 -19 7 -63 -5 -182 -21 -191
-21 -222 -2 -249 19 -27 51 -32 135 -23 48 5 78 15 102 32 18 14 48 31 67 38
18 7 51 28 73 47 22 18 46 33 53 33 7 0 37 16 66 36 30 20 68 41 84 47 17 5
47 25 68 44 20 18 41 33 46 33 10 0 108 79 144 117 71 71 102 126 163 283 21
57 17 147 -10 205 -12 28 -29 67 -35 88 -24 70 -168 210 -271 262 -19 10 -53
30 -75 45 -22 15 -71 37 -110 50 -38 12 -80 28 -91 36 -12 7 -57 22 -100 33
-111 28 -114 34 -114 186 0 158 6 167 112 176 40 4 100 11 133 17 33 6 114 16
180 21 76 6 153 20 210 37 50 14 119 33 155 41 36 7 101 29 145 47 44 19 98
37 120 41 22 3 58 19 80 35 22 15 60 33 83 39 23 7 57 24 75 40 17 15 46 33
64 40 17 7 42 24 55 38 12 14 41 34 63 45 22 12 55 32 73 47 55 43 172 159
172 170 0 6 15 28 33 48 74 84 157 287 157 384 0 17 9 35 25 47 35 28 36 96 1
123 -16 13 -25 32 -29 66 -10 76 -44 194 -65 222 -10 14 -27 42 -37 61 -35 68
-184 228 -281 303 -27 20 -69 53 -94 72 -25 19 -64 43 -88 54 -24 11 -57 32
-73 45 -16 14 -46 28 -67 32 -33 6 -53 15 -138 62 -12 7 -49 17 -81 23 -32 6
-88 24 -124 40 -37 16 -100 33 -140 39 -41 6 -87 14 -104 19 -59 18 -223 40
-375 52 -85 6 -163 16 -173 21 -10 5 -20 22 -24 39 l-5 29 -118 0 -118 0 -10
-30z m-18 -363 c33 -24 45 -118 45 -342 0 -115 5 -225 10 -244 7 -21 11 -219
11 -512 1 -539 5 -510 -77 -584 -41 -37 -45 -45 -54 -109 -9 -64 -6 -88 17
-168 3 -10 25 -31 49 -48 51 -35 61 -61 69 -181 6 -109 -5 -129 -69 -129 -24
0 -63 9 -88 19 -24 10 -84 29 -133 41 -49 12 -129 37 -179 55 -49 17 -133 46
-185 64 -167 57 -197 69 -237 95 -21 14 -59 32 -85 40 -26 7 -59 23 -75 34
-15 11 -57 34 -93 51 -70 34 -142 77 -211 128 -24 18 -64 47 -89 65 -63 46
-157 143 -199 206 -20 30 -48 71 -62 92 -14 21 -38 87 -54 146 -22 86 -26 119
-21 168 9 86 58 236 94 285 17 23 33 55 37 70 3 15 24 50 46 77 108 134 148
178 189 209 25 18 68 52 95 74 28 22 73 52 100 67 28 14 64 36 80 49 17 12 48
28 70 35 22 7 61 25 86 41 25 16 77 38 115 48 38 10 96 30 129 45 33 14 75 26
93 26 18 0 81 16 140 35 83 26 136 37 236 45 71 5 132 12 134 15 10 10 48 5
66 -8z m736 -6 c69 -6 161 -20 205 -31 44 -12 133 -32 197 -45 65 -13 139 -35
165 -48 26 -13 72 -30 101 -37 29 -7 65 -22 80 -35 15 -12 50 -34 79 -48 28
-15 54 -31 58 -37 3 -6 23 -19 43 -29 52 -27 179 -156 207 -211 13 -25 35 -60
49 -79 14 -19 28 -51 31 -70 3 -20 13 -66 23 -104 15 -63 15 -71 -1 -120 -9
-28 -22 -74 -28 -102 -5 -27 -20 -63 -33 -80 -13 -16 -32 -48 -44 -70 -25 -47
-152 -176 -211 -213 -14 -9 -42 -29 -63 -44 -20 -16 -55 -35 -79 -43 -23 -9
-57 -27 -75 -40 -18 -14 -57 -31 -87 -39 -30 -8 -77 -26 -106 -40 -31 -16 -83
-31 -134 -37 -45 -6 -97 -17 -116 -25 -18 -8 -55 -14 -80 -14 -26 0 -68 -7
-94 -16 -38 -13 -79 -15 -224 -11 -245 7 -297 16 -340 59 l-34 35 1 584 c0
381 4 598 11 624 6 22 11 73 11 115 0 159 8 221 33 246 22 22 27 22 176 19 85
-2 210 -8 279 -14z m-358 -2551 c234 -78 395 -191 484 -340 35 -58 39 -72 38
-130 0 -58 -5 -74 -44 -145 -40 -72 -147 -195 -169 -195 -5 0 -30 -18 -56 -39
-26 -22 -60 -42 -74 -46 -14 -4 -47 -20 -72 -36 -44 -28 -121 -49 -180 -49
-25 0 -33 7 -56 54 -34 70 -27 98 27 120 22 9 55 16 73 16 17 0 46 8 62 18 17
10 51 26 77 35 62 21 164 110 179 156 14 40 13 189 0 223 -15 39 -92 104 -169
143 -55 28 -92 39 -150 46 -100 11 -122 32 -122 118 0 92 15 97 152 51z m-328
-353 c21 -21 23 -32 21 -94 -4 -91 -11 -112 -41 -119 -47 -12 -90 5 -133 51
-44 48 -47 56 -31 86 17 31 110 99 136 99 14 0 35 -10 48 -23z m338 -15 c24
-16 55 -37 71 -46 40 -25 36 -57 -15 -98 -24 -19 -53 -40 -65 -46 -29 -16
-128 -15 -140 1 -14 17 -23 170 -11 191 25 44 95 43 160 -2z m14 -1247 c119
-33 300 -97 344 -123 19 -11 54 -25 77 -31 23 -7 55 -22 70 -35 15 -12 48 -32
73 -44 101 -48 250 -227 250 -299 0 -69 -133 -263 -181 -263 -32 0 -42 26 -35
93 5 45 2 82 -9 129 -15 60 -24 74 -101 156 -82 88 -175 162 -224 177 -14 4
-50 20 -81 36 -31 15 -114 42 -185 59 -76 19 -137 39 -148 50 -27 26 -25 78 3
102 30 23 35 23 147 -7z m-377 -256 c46 -16 54 -46 36 -127 -27 -118 -34 -124
-177 -159 -139 -35 -183 -59 -273 -152 -56 -58 -70 -90 -80 -186 -10 -96 -13
-105 -38 -105 -38 1 -159 48 -186 73 -14 13 -34 28 -43 33 -9 5 -40 36 -68 68
l-52 59 4 76 c3 74 5 78 52 139 27 34 53 62 57 62 5 0 24 14 44 31 70 61 182
110 355 155 175 45 302 56 369 33z m360 -40 c35 -10 70 -19 79 -19 9 0 62 -23
119 -52 138 -70 232 -154 261 -235 30 -84 34 -169 7 -179 -19 -7 -97 55 -121
96 -10 15 -29 34 -43 42 -14 7 -48 26 -74 42 -47 27 -214 76 -264 76 -71 0
-121 71 -125 178 -3 91 13 96 161 51z m-305 -374 c20 -14 48 -25 61 -25 13 0
41 11 61 25 41 28 43 28 135 15 155 -22 322 -126 349 -216 11 -35 10 -46 -5
-78 -10 -21 -28 -44 -41 -53 -14 -9 -87 -23 -176 -34 l-153 -20 -68 36 c-37
19 -82 35 -100 35 -20 0 -60 -17 -107 -46 -83 -50 -101 -52 -238 -20 -75 17
-91 30 -122 96 -21 44 -22 54 -11 90 19 64 102 140 181 166 36 12 83 29 105
37 56 23 87 21 129 -8z"/>
</g>
</svg>
