<?xml version="1.0" standalone="no"?>
<!DOCTYPE svg PUBLIC "-//W3C//DTD SVG 20010904//EN"
 "http://www.w3.org/TR/2001/REC-SVG-20010904/DTD/svg10.dtd">
<svg version="1.0" xmlns="http://www.w3.org/2000/svg"
 width="408.000000pt" height="664.000000pt" viewBox="0 0 408.000000 664.000000"
 preserveAspectRatio="xMidYMid meet">
<metadata>
Created by potrace 1.16, written by Peter Selinger 2001-2019
</metadata>
<rect x="0" y="0" width="408" height="664" fill="#ffffff"/>
<g transform="translate(0.000000,664.000000) scale(0.100000,-0.100000)"
fill="#000000" stroke="none">
<path d="M2010 6591 c-47 -15 -89 -41 -100 -62 -20 -36 -70 -59 -132 -59 -33
0 -78 -8 -107 -20 -28 -11 -97 -29 -153 -40 -68 -14 -118 -31 -148 -49 -25
-16 -68 -36 -97 -45 -28 -10 -57 -24 -64 -32 -7 -9 -33 -27 -58 -40 -86 -46
-216 -171 -258 -248 -82 -151 -102 -234 -83 -348 19 -118 73 -215 182 -329 51
-53 109 -105 128 -114 19 -10 46 -28 60 -41 14 -13 45 -30 70 -39 24 -9 65
-29 90 -45 25 -16 68 -34 95 -40 28 -6 79 -23 115 -39 40 -18 98 -34 150 -40
90 -12 180 -27 217 -36 33 -8 53 -33 53 -66 0 -25 -6 -33 -35 -45 -19 -7 -42
-14 -52 -14 -37 0 -238 -110 -290 -158 -104 -96 -134 -229 -82 -359 15 -39 39
-76 62 -97 38 -35 49 -74 25 -94 -7 -5 -50 -15 -95 -21 -44 -5 -119 -23 -165
-39 -45 -16 -100 -32 -120 -36 -20 -4 -66 -20 -102 -36 -35 -16 -86 -34 -113
-40 -26 -6 -64 -22 -83 -35 -19 -13 -57 -33 -84 -45 -26 -11 -60 -29 -74 -40
-14 -11 -44 -29 -66 -40 -23 -11 -61 -36 -86 -55 -25 -19 -67 -52 -94 -72
-184 -141 -393 -433 -432 -602 -18 -76 -37 -117 -64 -134 -19 -11 -20 -23 -20
-170 l0 -157 30 -28 c22 -19 36 -47 49 -96 10 -37 28 -80 38 -95 11 -14 28
-42 38 -61 19 -38 41 -63 136 -159 89 -88 118 -114 161 -140 21 -12 38 -26 38
-30 0 -4 19 -18 43 -31 23 -13 58 -35 77 -50 19 -15 53 -33 75 -40 22 -7 55
-23 73 -37 18 -13 54 -32 80 -40 26 -9 66 -29 90 -44 23 -15 59 -30 80 -34 20
-3 62 -19 93 -35 31 -16 90 -38 130 -50 41 -12 88 -31 105 -41 18 -11 72 -28
122 -39 49 -10 117 -30 150 -44 33 -14 90 -30 127 -36 37 -6 79 -17 94 -24 14
-7 49 -21 78 -30 28 -9 57 -24 63 -32 9 -10 12 -125 11 -453 -1 -431 -1 -441
-27 -577 -40 -205 -40 -205 -10 -268 l27 -56 68 0 c68 0 69 1 89 34 15 25 33
38 68 50 27 9 69 30 94 46 25 16 50 30 56 30 7 0 38 18 70 39 33 22 71 42 86
46 15 4 33 14 39 22 7 8 42 34 78 59 93 62 141 102 193 159 39 44 58 73 127
200 12 23 16 57 15 147 0 116 -1 117 -36 175 -19 32 -37 64 -39 70 -8 26 -175
186 -209 200 -19 9 -53 28 -75 44 -22 15 -58 32 -81 38 -22 6 -60 24 -85 40
-25 16 -72 34 -109 41 -73 14 -144 47 -178 83 -23 24 -23 28 -24 271 -1 173 3
251 11 259 7 7 82 11 239 12 283 1 517 19 597 45 33 10 116 28 184 40 74 13
142 30 170 45 26 13 73 31 104 40 48 14 188 76 233 103 162 99 306 267 341
399 19 72 38 109 63 123 18 10 20 21 20 144 0 109 -3 136 -16 147 -22 18 -49
74 -69 144 -9 33 -27 74 -39 90 -13 17 -31 46 -41 65 -19 38 -35 57 -137 161
-37 38 -71 69 -77 69 -5 0 -31 18 -56 40 -25 22 -52 40 -59 40 -7 0 -30 15
-52 33 -21 19 -55 39 -74 46 -19 6 -52 23 -73 37 -51 33 -182 82 -402 149
-121 38 -202 54 -301 61 -49 4 -106 13 -128 21 -21 7 -71 13 -112 13 -40 0
-85 5 -101 11 -15 6 -61 13 -102 15 -78 4 -121 22 -121 52 0 9 -1 125 -1 257
l-1 240 26 22 c15 12 72 36 129 53 56 18 151 49 210 71 59 21 114 39 121 39 7
0 52 20 100 45 49 25 94 45 102 45 7 0 25 11 41 24 15 13 44 31 63 41 61 31
150 98 206 155 66 67 142 197 155 264 17 89 11 195 -15 266 -68 183 -84 209
-231 354 -141 140 -155 151 -205 173 -25 11 -63 32 -84 46 -21 15 -47 27 -57
27 -9 0 -46 15 -81 34 -47 25 -90 38 -173 51 -128 21 -152 31 -190 80 -34 45
-126 105 -168 110 -18 2 -43 1 -57 -4z m-115 -421 c36 -14 65 -80 65 -152 0
-31 5 -69 11 -85 16 -42 16 -541 0 -572 -26 -47 -92 -65 -256 -69 -148 -4
-150 -4 -260 32 -60 20 -129 40 -151 46 -23 6 -58 24 -79 40 -21 17 -42 30
-47 30 -19 0 -131 117 -149 155 -10 22 -28 56 -39 75 -11 19 -20 48 -20 63 0
44 68 156 131 217 76 73 134 108 249 148 147 51 149 52 307 66 192 17 207 18
238 6z m425 -10 c118 0 434 -119 544 -205 66 -51 149 -137 183 -190 77 -119
78 -122 77 -230 0 -107 -3 -117 -61 -194 -36 -47 -142 -151 -155 -151 -3 0
-19 -11 -35 -24 -46 -39 -388 -206 -422 -206 -6 0 -57 -16 -113 -35 -116 -40
-171 -43 -176 -9 -2 16 7 25 38 39 29 13 51 34 76 74 33 52 35 60 30 115 -7
74 -23 98 -113 176 -46 40 -73 71 -74 84 -4 199 4 488 16 535 8 30 12 64 9 74
-11 35 7 119 31 143 20 20 28 22 57 14 18 -6 58 -10 88 -10z m-350 -1510 c7
-13 11 -106 12 -245 2 -261 1 -262 -74 -251 -113 17 -278 170 -278 258 0 43
75 158 103 158 6 0 26 12 45 28 35 27 131 68 164 71 10 0 22 -8 28 -19z m488
-782 c18 -5 63 -11 100 -13 156 -8 272 -24 352 -49 47 -14 119 -32 160 -41 41
-9 100 -27 130 -41 30 -14 80 -35 110 -45 30 -11 63 -28 75 -39 11 -11 40 -26
64 -35 24 -8 60 -29 80 -45 20 -17 61 -52 91 -77 175 -148 270 -308 285 -484
6 -58 3 -84 -10 -119 -10 -25 -28 -74 -40 -110 -28 -79 -100 -190 -152 -234
-98 -84 -271 -171 -463 -236 -103 -35 -193 -55 -400 -90 -36 -6 -84 -15 -108
-20 -23 -6 -161 -10 -307 -10 -252 0 -266 1 -285 20 -19 19 -20 33 -20 200 0
163 2 182 19 199 22 22 101 41 174 41 70 0 261 18 317 30 25 6 77 15 115 20
177 25 284 49 326 73 24 13 61 30 81 36 23 8 44 24 57 44 11 18 30 44 42 58
24 30 37 130 25 195 -11 56 -112 157 -185 184 -31 12 -72 32 -91 45 -22 15
-62 28 -110 36 -41 6 -104 22 -140 35 -92 33 -170 43 -378 51 -242 8 -226 -5
-230 193 -6 232 8 251 175 243 60 -3 123 -9 141 -15z m-520 -38 c26 -24 24
-14 26 -165 0 -66 5 -133 9 -150 14 -52 -5 -64 -124 -80 -63 -8 -131 -24 -167
-39 -33 -14 -82 -30 -109 -36 -26 -6 -66 -23 -87 -38 -21 -15 -56 -34 -77 -42
-54 -21 -194 -152 -227 -212 -15 -27 -35 -65 -46 -85 -24 -45 -35 -261 -17
-343 21 -96 125 -233 250 -330 63 -48 239 -135 302 -150 30 -6 90 -22 134 -35
44 -12 98 -27 121 -34 26 -7 44 -19 51 -33 6 -14 7 -114 4 -261 -6 -248 -9
-264 -51 -253 -8 2 -55 15 -105 29 -49 13 -117 31 -150 40 -33 8 -85 24 -115
35 -30 11 -89 31 -130 45 -163 54 -254 88 -279 106 -14 10 -50 26 -78 34 -29
9 -68 28 -87 42 -20 15 -57 33 -83 41 -26 8 -59 25 -73 39 -14 13 -41 31 -60
39 -20 8 -44 24 -55 36 -11 12 -38 31 -60 42 -49 26 -100 65 -181 143 -80 76
-122 135 -184 259 l-50 99 0 102 c0 101 17 185 45 229 8 12 23 46 35 78 11 31
28 62 37 70 9 7 27 36 39 65 17 38 58 87 158 187 74 75 141 136 148 136 8 0
29 13 48 29 19 15 55 38 80 51 24 12 60 33 80 46 19 13 53 30 75 37 22 8 57
26 78 40 21 14 60 30 88 36 28 6 82 25 119 41 37 16 101 37 142 45 40 9 111
27 158 42 75 23 176 37 306 41 28 2 47 -4 62 -18z m452 -641 c59 1 117 -4 153
-14 32 -8 77 -15 101 -15 24 0 63 -7 86 -15 23 -8 61 -15 84 -15 86 0 159 -20
224 -62 83 -54 83 -72 0 -133 -35 -25 -78 -49 -98 -54 -107 -25 -155 -33 -255
-43 -133 -13 -177 -13 -320 0 -162 15 -243 44 -246 90 -1 9 -1 64 0 122 2 100
3 106 28 129 24 21 32 23 87 16 34 -4 104 -7 156 -6z m-422 -26 c5 -10 12 -69
15 -132 l7 -114 -39 -36 c-94 -87 -103 -146 -38 -230 68 -86 69 -92 72 -235 2
-141 -5 -173 -42 -182 -38 -10 -139 13 -222 51 -43 19 -83 35 -88 35 -17 0
-126 81 -187 139 -32 31 -79 88 -104 126 -43 65 -47 75 -50 147 -4 73 -2 79
34 145 44 80 95 137 146 164 20 10 53 30 73 43 20 14 57 28 83 32 26 3 81 17
122 30 128 39 204 45 218 17z m299 -1874 c43 -12 92 -33 110 -46 18 -14 54
-31 80 -39 26 -8 59 -25 73 -38 14 -13 40 -31 58 -40 41 -21 122 -105 169
-176 31 -46 37 -66 41 -121 4 -70 -6 -101 -62 -192 -53 -87 -209 -217 -295
-246 -19 -6 -49 -22 -66 -35 -18 -14 -59 -32 -93 -41 -34 -8 -68 -18 -75 -21
-8 -3 -24 3 -37 14 -18 14 -25 34 -33 93 -14 108 -20 864 -7 889 14 26 40 25
137 -1z"/>
</g>
</svg>
