<?xml version="1.0" standalone="no"?>
<!DOCTYPE svg PUBLIC "-//W3C//DTD SVG 20010904//EN"
 "http://www.w3.org/TR/2001/REC-SVG-20010904/DTD/svg10.dtd">
<svg version="1.0" xmlns="http://www.w3.org/2000/svg"
 width="408.000000pt" height="544.000000pt" viewBox="0 0 408.000000 544.000000"
 preserveAspectRatio="xMidYMid meet">
<metadata>
Created by potrace 1.16, written by Peter Selinger 2001-2019
</metadata>
<rect x="0" y="0" width="408" height="544" fill="#ffffff"/>
<g transform="translate(0.000000,544.000000) scale(0.100000,-0.100000)"
fill="#000000" stroke="none">
<path d="M1920 5421 c0 -32 -37 -68 -82 -79 -77 -20 -201 -43 -307 -58 -58 -8
-130 -25 -165 -40 -33 -14 -94 -34 -135 -45 -40 -10 -108 -34 -150 -53 -42
-18 -89 -37 -105 -40 -16 -4 -43 -18 -61 -31 -17 -14 -47 -30 -66 -37 -19 -6
-50 -23 -69 -38 -19 -15 -56 -37 -82 -49 -27 -13 -48 -27 -48 -31 0 -5 -17
-19 -37 -31 -46 -28 -73 -51 -188 -166 -116 -116 -169 -180 -190 -228 -9 -22
-25 -49 -35 -60 -11 -11 -26 -41 -35 -65 -9 -24 -27 -64 -41 -87 -14 -24 -31
-78 -39 -121 -7 -42 -21 -108 -30 -147 -19 -78 -17 -105 15 -255 23 -109 79
-230 144 -314 62 -79 201 -206 290 -265 50 -33 111 -75 135 -93 24 -18 63 -40
87 -49 23 -9 55 -25 71 -36 27 -19 139 -71 248 -115 28 -11 75 -32 105 -45 30
-14 82 -33 115 -43 33 -9 93 -31 132 -49 39 -17 80 -31 91 -31 11 0 67 -16
124 -35 57 -19 136 -42 177 -50 95 -20 136 -38 156 -68 14 -22 16 -57 13 -265
-3 -238 -3 -241 -27 -266 -15 -16 -44 -29 -80 -37 -31 -7 -78 -24 -106 -40
-27 -15 -70 -32 -95 -39 -25 -6 -65 -25 -90 -41 -25 -15 -66 -35 -90 -44 -24
-9 -52 -22 -61 -31 -9 -8 -39 -27 -67 -42 -27 -15 -84 -54 -127 -87 -43 -33
-92 -70 -108 -82 -31 -23 -79 -80 -138 -163 -18 -25 -42 -56 -54 -70 -12 -14
-39 -74 -59 -135 -32 -99 -36 -122 -37 -222 -1 -95 2 -118 19 -145 11 -18 29
-65 40 -104 12 -39 31 -79 43 -90 11 -10 27 -34 35 -53 16 -39 161 -187 216
-220 21 -12 38 -26 38 -31 0 -4 21 -18 48 -31 26 -13 64 -35 84 -50 21 -14 67
-34 104 -43 36 -9 88 -28 114 -41 33 -17 85 -29 165 -40 65 -8 122 -18 129
-21 6 -4 50 -31 99 -61 l87 -55 48 30 c64 41 95 49 262 72 221 30 297 47 386
85 45 19 90 35 100 35 10 0 34 10 53 23 19 12 55 36 81 52 104 66 220 176 234
223 4 12 18 35 31 50 29 35 44 87 51 187 10 140 -25 246 -120 361 -37 45 -167
131 -218 145 -24 6 -60 20 -80 30 -56 28 -160 50 -273 58 -99 6 -100 6 -103
33 -3 21 3 30 25 41 15 8 37 25 48 37 11 12 40 33 65 46 90 47 206 178 268
303 41 81 42 86 42 180 0 90 -3 101 -39 180 -44 97 -111 184 -162 211 -19 10
-42 26 -49 35 -8 9 -35 27 -61 41 -26 13 -64 35 -84 48 -20 14 -61 32 -90 41
-30 8 -69 24 -87 35 -18 10 -64 26 -103 36 -91 22 -124 39 -135 70 -6 14 -10
75 -10 135 0 103 1 111 25 134 20 21 34 25 79 25 30 0 67 5 83 11 15 6 100 17
189 24 115 9 183 20 240 38 43 14 116 32 162 42 45 9 111 30 147 46 36 16 89
34 118 40 28 6 70 23 92 39 22 15 60 33 83 39 23 7 58 25 76 42 19 16 49 34
68 41 18 6 49 23 68 38 19 15 54 39 78 54 66 41 259 240 287 296 13 27 36 65
49 85 14 20 30 62 36 93 16 80 29 111 57 129 22 15 23 20 23 139 l0 125 -34
34 c-28 28 -36 46 -46 105 -8 46 -20 80 -35 98 -12 15 -32 47 -45 72 -49 98
-229 279 -325 328 -22 11 -51 32 -64 46 -13 14 -40 31 -60 37 -20 6 -51 22
-69 36 -18 13 -54 31 -80 40 -26 9 -61 26 -79 39 -17 13 -62 31 -100 39 -37 9
-97 28 -133 44 -38 17 -100 34 -150 41 -47 6 -117 20 -157 31 -68 19 -203 34
-406 46 -78 4 -89 8 -107 30 -11 14 -20 32 -20 39 0 11 -26 14 -125 14 -115 0
-125 -1 -125 -19z m395 -352 c46 -16 73 -20 113 -15 84 10 345 -23 512 -64 63
-15 132 -31 153 -35 22 -3 73 -21 115 -40 43 -18 92 -36 110 -40 18 -4 45 -17
61 -30 15 -13 54 -34 85 -46 32 -11 60 -27 63 -35 3 -8 17 -21 32 -28 39 -21
186 -171 229 -235 52 -77 104 -236 96 -293 -12 -81 -56 -233 -74 -253 -10 -11
-29 -38 -42 -60 -29 -47 -196 -215 -213 -215 -7 0 -33 -16 -59 -35 -25 -20
-65 -43 -88 -51 -23 -8 -56 -26 -74 -39 -18 -14 -57 -31 -87 -39 -29 -8 -76
-26 -103 -40 -27 -14 -72 -28 -99 -31 -46 -5 -136 -22 -328 -60 -101 -20 -304
-20 -380 0 -32 8 -74 15 -93 15 -39 0 -80 18 -107 48 -17 19 -18 46 -17 395 0
209 5 389 10 408 6 19 10 160 10 314 0 391 14 491 73 515 32 13 37 12 102 -11z
m-410 -31 c22 -20 27 -36 37 -118 6 -52 14 -347 18 -655 4 -308 11 -580 17
-605 5 -25 9 -80 9 -122 -1 -74 -2 -78 -36 -113 -19 -20 -47 -44 -62 -53 -40
-23 -58 -70 -58 -146 0 -91 21 -138 81 -181 27 -19 55 -48 61 -63 6 -15 10
-69 10 -121 -1 -73 -5 -97 -18 -112 -23 -25 -83 -24 -154 2 -30 11 -91 31
-136 44 -110 31 -298 93 -359 117 -27 11 -79 31 -115 44 -36 12 -92 36 -124
53 -32 17 -66 31 -75 31 -9 0 -32 10 -51 22 -19 11 -62 34 -94 51 -32 16 -77
42 -99 58 -22 16 -45 29 -52 29 -6 0 -29 15 -51 33 -21 18 -59 45 -83 61 -65
42 -225 208 -278 288 -59 90 -93 203 -93 312 0 109 39 268 83 334 17 27 40 62
50 78 69 114 219 276 312 340 28 18 61 42 75 52 45 34 148 92 187 106 21 7 55
25 76 39 21 14 60 30 88 36 28 6 83 25 121 42 39 17 98 35 132 40 33 4 99 21
146 38 64 22 118 32 219 40 74 6 137 13 139 16 13 12 53 3 77 -17z m333 -2527
c20 -10 62 -26 92 -34 30 -9 89 -36 130 -59 177 -103 225 -144 296 -253 35
-54 39 -67 42 -135 4 -70 2 -79 -33 -145 -39 -73 -139 -185 -190 -212 -16 -9
-46 -29 -65 -44 -19 -15 -48 -31 -64 -35 -17 -4 -49 -20 -72 -37 -31 -21 -61
-32 -118 -40 -109 -16 -110 -15 -113 165 -2 77 -7 157 -13 177 -6 20 -10 167
-10 338 0 261 2 304 16 317 21 21 57 20 102 -3z m-294 -677 c34 -33 2 -412
-38 -452 -7 -8 -47 -20 -87 -27 -41 -7 -121 -33 -179 -59 -171 -75 -256 -166
-267 -284 -7 -76 13 -119 87 -192 36 -35 62 -70 70 -95 7 -22 23 -51 35 -65
12 -14 28 -35 34 -47 16 -32 109 -99 184 -132 119 -55 169 -105 135 -139 -16
-16 -69 -15 -94 2 -19 13 -138 45 -229 61 -22 3 -62 19 -90 34 -27 16 -73 36
-102 45 -28 9 -57 24 -64 32 -7 9 -31 25 -53 36 -50 25 -154 116 -162 141 -3
9 -23 37 -44 62 -21 24 -41 59 -45 77 -4 18 -18 59 -31 90 -30 72 -32 164 -5
224 10 23 26 66 35 96 8 30 25 63 37 74 12 10 29 35 40 55 25 49 176 189 275
255 44 30 85 54 91 54 5 0 30 14 54 32 24 17 76 44 114 59 39 15 97 39 130 53
69 30 145 34 169 10z m539 -580 c22 -8 53 -14 69 -14 16 0 80 -11 141 -25 199
-45 361 -145 413 -253 22 -47 29 -137 15 -201 -23 -109 -145 -233 -291 -296
-19 -8 -50 -24 -67 -36 -18 -11 -64 -25 -103 -30 -38 -6 -95 -19 -127 -30 -31
-10 -108 -26 -171 -34 -63 -8 -118 -18 -124 -21 -5 -3 -25 -3 -44 0 -73 14
-62 85 18 106 22 7 51 18 62 25 12 8 40 21 63 29 50 18 186 126 212 170 10 17
29 61 41 97 l22 66 -32 74 c-17 41 -45 89 -63 107 -53 55 -182 118 -267 131
-82 13 -120 32 -120 59 0 26 29 63 61 76 41 17 243 17 292 0z m-550 -46 c20
-24 22 -51 4 -67 -8 -6 -53 -22 -101 -36 -115 -33 -196 -75 -230 -119 -33 -43
-68 -48 -92 -11 -50 76 59 175 260 236 99 30 132 29 159 -3z m347 -240 c64
-23 138 -80 146 -113 12 -50 -49 -120 -115 -130 -20 -3 -53 -10 -74 -14 -47
-11 -77 10 -102 71 -21 50 -24 143 -6 176 24 45 51 47 151 10z m-340 2 c11 -7
17 -34 20 -97 3 -48 4 -99 1 -112 -8 -48 -109 -62 -182 -25 -34 17 -89 80 -89
101 0 28 102 119 146 131 51 13 85 14 104 2z"/>
</g>
</svg>
