<?xml version="1.0" standalone="no"?>
<!DOCTYPE svg PUBLIC "-//W3C//DTD SVG 20010904//EN"
 "http://www.w3.org/TR/2001/REC-SVG-20010904/DTD/svg10.dtd">
<svg version="1.0" xmlns="http://www.w3.org/2000/svg"
 width="400.000000pt" height="432.000000pt" viewBox="0 0 400.000000 432.000000"
 preserveAspectRatio="xMidYMid meet">
<metadata>
Created by potrace 1.16, written by Peter Selinger 2001-2019
</metadata>
<rect x="0" y="0" width="400" height="432" fill="#ffffff"/>
<g transform="translate(0.000000,432.000000) scale(0.100000,-0.100000)"
fill="#000000" stroke="none">
<path d="M1910 4302 c0 -11 -29 -47 -64 -80 l-64 -62 -79 0 c-43 0 -103 -7
-133 -15 -30 -9 -102 -27 -160 -42 -58 -14 -136 -37 -175 -50 -38 -14 -100
-36 -138 -49 -37 -13 -82 -34 -100 -47 -17 -14 -55 -32 -83 -41 -29 -9 -59
-25 -68 -35 -9 -10 -36 -26 -59 -36 -23 -10 -52 -27 -64 -38 -12 -11 -42 -33
-67 -51 -181 -125 -329 -280 -418 -436 -14 -25 -35 -54 -47 -64 -12 -11 -21
-24 -21 -31 0 -6 -19 -49 -41 -96 -83 -169 -89 -194 -89 -347 0 -95 5 -156 16
-197 9 -33 20 -78 25 -100 11 -45 86 -180 133 -239 67 -84 199 -203 271 -246
22 -13 49 -31 60 -41 27 -24 127 -82 204 -120 35 -16 80 -41 100 -54 20 -12
54 -28 75 -35 22 -7 55 -22 75 -34 20 -11 79 -36 131 -55 52 -18 142 -50 200
-71 58 -20 117 -42 133 -48 15 -7 58 -19 95 -27 37 -9 105 -29 152 -44 47 -16
106 -32 132 -36 81 -11 78 10 78 -485 0 -239 -4 -472 -10 -518 -5 -45 -23
-122 -40 -171 -38 -111 -38 -138 0 -186 16 -20 32 -45 35 -56 6 -17 16 -19 91
-19 72 0 85 3 90 18 3 9 9 23 13 31 7 14 104 71 189 111 24 11 57 31 75 44 18
13 50 31 72 41 22 9 51 27 65 39 14 13 43 33 65 45 136 73 284 256 316 391 16
69 16 191 0 250 -7 25 -25 60 -39 79 -15 19 -36 52 -48 74 -22 42 -57 72 -194
164 -101 69 -211 117 -403 178 -135 43 -134 42 -131 261 1 99 5 187 9 197 14
32 58 47 123 41 38 -4 92 -1 148 10 49 8 133 21 187 27 55 5 131 22 170 35 40
14 97 34 129 44 31 10 71 29 90 43 18 13 51 30 73 37 76 24 245 171 283 246
11 22 28 47 38 55 21 18 44 70 44 103 0 50 20 72 103 113 45 23 99 44 119 48
21 3 55 21 78 40 23 19 48 35 56 35 7 0 47 30 89 66 70 61 115 123 115 157 0
8 18 41 40 73 22 33 40 66 40 75 0 10 -13 43 -29 75 -16 33 -38 91 -50 129
-12 42 -38 95 -63 131 -60 84 -208 223 -273 257 -16 8 -41 27 -54 41 -13 14
-40 31 -60 37 -20 6 -51 22 -69 36 -18 13 -54 31 -80 40 -26 9 -60 26 -77 38
-16 12 -57 30 -90 39 -33 10 -90 31 -126 47 -36 15 -99 33 -140 40 -41 6 -101
21 -134 34 -33 12 -80 25 -105 29 -90 14 -346 33 -391 29 -42 -4 -49 -2 -106
47 -34 28 -64 63 -67 76 -6 23 -10 24 -91 24 -76 0 -85 -2 -85 -18z m720 -432
c34 -11 80 -20 101 -20 82 0 272 -31 311 -51 22 -11 73 -27 114 -35 44 -8 90
-24 112 -39 20 -14 59 -32 87 -41 27 -9 61 -27 75 -39 14 -13 43 -32 66 -43
22 -11 47 -28 55 -38 7 -9 30 -27 50 -39 59 -38 147 -152 180 -233 16 -40 29
-82 29 -93 0 -69 -94 -210 -165 -246 -16 -8 -42 -26 -56 -39 -28 -27 -161 -68
-189 -59 -11 3 -27 27 -36 53 -10 26 -40 76 -67 112 -50 66 -171 180 -192 180
-6 0 -29 15 -51 34 -21 18 -50 37 -64 41 -14 4 -54 23 -90 41 -36 18 -98 40
-137 48 -40 9 -89 22 -108 30 -66 28 -211 46 -382 47 -93 1 -174 6 -180 11
-18 14 -6 344 13 375 27 43 50 48 259 53 110 3 201 7 201 8 1 1 30 -7 64 -18z
m-750 -40 c24 -17 25 -22 27 -136 1 -66 5 -144 9 -175 6 -53 5 -58 -17 -72
-13 -8 -45 -17 -70 -20 -95 -12 -367 -85 -410 -110 -24 -14 -64 -31 -89 -37
-25 -6 -67 -26 -95 -44 -27 -18 -61 -40 -75 -48 -14 -8 -60 -48 -103 -88 -87
-81 -161 -187 -178 -255 -6 -24 -20 -52 -30 -61 -18 -16 -23 -16 -88 -1 -38
10 -79 17 -92 17 -13 0 -51 12 -84 26 -33 14 -89 35 -124 45 -36 10 -81 31
-100 46 -20 16 -53 36 -73 47 -56 28 -57 55 -6 140 23 39 58 91 78 115 43 53
211 221 221 221 4 0 28 18 53 39 25 22 56 43 68 47 13 4 39 19 58 34 19 15 55
34 80 42 25 8 62 27 82 40 21 14 54 29 75 33 21 4 68 20 105 36 37 16 109 38
160 49 51 11 122 28 158 40 93 28 344 61 405 52 17 -2 41 -12 55 -22z m33
-572 c11 -18 12 -79 8 -301 -5 -252 -8 -280 -24 -292 -23 -16 -248 -18 -286
-2 -14 6 -80 14 -146 17 -161 9 -404 39 -435 53 -36 17 -36 55 -1 124 29 57
116 150 194 207 63 46 225 125 290 141 34 9 91 25 127 37 66 22 142 34 217 37
34 1 45 -3 56 -21z m472 -18 c49 -16 116 -33 148 -39 32 -6 72 -20 88 -32 16
-11 57 -32 91 -45 34 -13 71 -32 82 -43 12 -10 35 -25 51 -34 17 -8 65 -50
108 -92 107 -108 127 -189 54 -220 -31 -12 -250 -40 -447 -55 -52 -5 -118 -13
-146 -19 -29 -5 -107 -10 -174 -10 -172 1 -159 -21 -162 287 -3 317 -3 309 13
328 20 25 177 11 294 -26z m-2146 -484 c35 -33 239 -116 285 -116 12 0 59 -12
106 -26 47 -14 110 -30 140 -36 30 -5 65 -12 76 -14 15 -3 41 -36 83 -107 45
-75 77 -115 119 -150 79 -66 147 -112 212 -143 30 -14 67 -35 83 -46 16 -11
58 -28 95 -38 37 -10 88 -27 114 -39 49 -23 211 -51 291 -51 61 0 87 -24 88
-82 1 -24 2 -90 4 -148 3 -111 -7 -174 -32 -202 -22 -24 -45 -23 -102 6 -27
14 -79 30 -117 37 -38 6 -107 26 -154 44 -47 18 -103 36 -124 40 -22 3 -65 19
-95 34 -31 15 -78 34 -106 41 -27 7 -75 25 -105 40 -30 15 -73 33 -95 40 -22
7 -60 25 -85 41 -25 16 -65 35 -88 43 -42 15 -246 146 -325 209 -81 65 -161
144 -198 197 -51 72 -128 233 -141 293 -13 60 -3 133 20 147 23 13 23 13 51
-14z m2789 -198 c28 -28 12 -55 -80 -135 -51 -44 -113 -90 -138 -103 -24 -12
-60 -33 -80 -46 -19 -12 -57 -28 -85 -35 -27 -6 -77 -24 -110 -40 -46 -21 -86
-31 -170 -39 -60 -6 -140 -15 -177 -21 -113 -18 -128 5 -125 193 2 107 4 118
25 141 23 24 30 25 180 31 183 7 344 19 457 35 234 32 286 36 303 19z m-1895
-20 c29 -16 198 -28 502 -34 238 -4 251 -6 268 -25 11 -14 17 -38 17 -71 0
-28 5 -79 11 -113 14 -72 8 -106 -24 -136 -18 -17 -31 -20 -77 -16 -156 14
-237 30 -318 61 -48 18 -98 37 -112 41 -14 4 -43 19 -65 34 -22 14 -62 37 -90
51 -27 14 -78 53 -112 88 -61 61 -82 99 -68 121 8 15 41 14 68 -1z m1057
-1198 c21 -11 76 -33 121 -50 46 -17 100 -41 121 -55 21 -14 42 -25 47 -25 18
0 156 -116 194 -163 44 -54 87 -152 87 -197 0 -17 -6 -43 -14 -58 -8 -15 -18
-45 -22 -67 -6 -31 -25 -57 -103 -135 -60 -60 -114 -105 -142 -117 -24 -11
-53 -30 -63 -42 -11 -12 -45 -29 -75 -38 -31 -9 -73 -25 -94 -36 -52 -27 -119
-34 -139 -14 -22 22 -27 143 -29 601 -1 366 0 390 17 403 25 18 48 16 94 -7z"/>
</g>
</svg>
