<?xml version="1.0" standalone="no"?>
<!DOCTYPE svg PUBLIC "-//W3C//DTD SVG 20010904//EN"
 "http://www.w3.org/TR/2001/REC-SVG-20010904/DTD/svg10.dtd">
<svg version="1.0" xmlns="http://www.w3.org/2000/svg"
 width="472.000000pt" height="456.000000pt" viewBox="0 0 472.000000 456.000000"
 preserveAspectRatio="xMidYMid meet">
<metadata>
Created by potrace 1.16, written by Peter Selinger 2001-2019
</metadata>
<rect x="0" y="0" width="472" height="456" fill="#ffffff"/>
<g transform="translate(0.000000,456.000000) scale(0.100000,-0.100000)"
fill="#000000" stroke="none">
<path d="M2235 4533 c-3 -15 -24 -44 -46 -64 -36 -33 -39 -40 -39 -91 0 -31 7
-95 16 -144 8 -49 19 -112 24 -139 4 -28 16 -64 26 -81 31 -55 16 -76 -90
-128 -51 -25 -99 -46 -105 -46 -19 0 -108 -88 -125 -125 -36 -74 -10 -153 71
-219 31 -26 68 -47 86 -50 175 -25 216 -28 309 -23 144 10 213 28 287 78 67
45 81 67 81 130 0 72 -20 100 -106 150 -43 26 -91 49 -107 53 -36 9 -96 90
-97 132 0 17 7 49 16 70 18 44 54 274 54 348 0 44 -4 53 -39 85 -22 20 -43 49
-46 64 -7 26 -9 27 -85 27 -76 0 -78 -1 -85 -27z m325 -863 c25 -25 25 -42 0
-65 -49 -45 -269 -61 -339 -26 -41 21 -68 48 -57 58 3 3 49 6 101 5 82 -1 104
3 148 24 64 30 120 31 147 4z"/>
<path d="M2125 2999 c-27 -11 -78 -27 -113 -36 -44 -11 -68 -23 -80 -40 -9
-14 -29 -39 -43 -56 -53 -65 -46 -145 20 -231 38 -49 50 -57 144 -94 56 -22
119 -45 140 -52 57 -18 70 -46 62 -128 -4 -38 -10 -74 -14 -80 -15 -25 -63
-28 -261 -20 -113 5 -349 12 -525 16 -176 4 -328 12 -338 16 -10 5 -98 10
-195 11 -97 1 -269 7 -382 13 -351 18 -398 18 -472 -2 l-68 -19 0 -98 c0 -82
3 -99 15 -99 9 0 41 -9 72 -20 34 -12 70 -18 88 -15 45 8 475 28 670 30 102 2
182 7 200 14 20 8 108 12 275 11 135 0 269 4 298 10 61 11 566 17 599 6 30
-10 33 -23 38 -189 4 -157 1 -170 -48 -182 -40 -10 -661 12 -690 24 -16 6 -70
11 -122 11 -52 0 -106 5 -122 11 -15 6 -66 12 -113 14 -47 2 -141 7 -210 10
-115 6 -128 5 -158 -14 -61 -39 -88 -117 -63 -183 5 -13 31 -36 59 -51 59 -32
125 -35 230 -12 64 14 318 30 712 43 102 4 190 10 196 14 5 4 72 8 148 9 128
2 138 1 158 -19 14 -14 21 -32 20 -54 -8 -202 -12 -260 -22 -277 -10 -20 -16
-21 -138 -16 -148 6 -275 21 -352 42 -30 8 -74 19 -96 25 -54 14 -103 4 -152
-32 -80 -58 -78 -166 4 -223 56 -39 109 -45 187 -19 83 29 159 40 356 53 154
10 166 10 178 -7 19 -26 18 -259 -2 -335 -9 -32 -15 -85 -14 -116 1 -33 -5
-78 -14 -105 -9 -26 -16 -71 -16 -100 0 -29 -4 -116 -9 -193 -10 -127 -9 -144
8 -185 10 -25 21 -53 24 -62 5 -16 20 -18 126 -18 106 0 121 2 126 17 3 10 15
40 25 66 19 45 19 57 8 190 -6 78 -11 163 -10 188 0 26 -8 73 -18 106 -14 43
-18 77 -14 124 4 46 1 75 -11 103 -12 29 -16 71 -16 168 0 125 1 130 26 155
23 23 31 25 72 18 26 -3 92 -11 147 -15 66 -6 139 -21 215 -45 130 -41 252
-55 299 -35 17 7 46 36 67 65 34 50 36 58 32 109 -5 63 -39 116 -91 142 -51
27 -182 14 -314 -31 -90 -31 -128 -38 -236 -46 -70 -4 -136 -11 -146 -14 -33
-10 -69 12 -78 47 -12 47 -1 304 14 319 13 13 437 14 457 1 6 -4 76 -10 156
-13 379 -18 504 -30 650 -65 46 -10 113 -17 173 -17 114 1 126 8 174 99 l28
53 -19 56 c-24 69 -53 99 -117 120 -41 14 -55 15 -82 5 -27 -10 -256 -38 -567
-70 -47 -4 -107 -13 -135 -18 -27 -6 -194 -14 -371 -17 -325 -8 -354 -6 -376
28 -8 12 -1 291 7 318 3 10 15 21 26 24 30 10 696 8 711 -1 7 -5 101 -12 208
-17 107 -4 256 -11 330 -16 74 -5 239 -14 365 -20 151 -7 249 -17 286 -27 76
-22 242 -16 280 9 15 10 39 45 53 77 l27 60 -21 47 c-25 58 -73 110 -117 129
-28 12 -38 12 -75 -1 -24 -8 -56 -15 -72 -15 -16 0 -66 -7 -110 -15 -45 -8
-187 -20 -316 -26 -129 -6 -300 -15 -380 -20 -384 -24 -1128 -47 -1162 -36
-30 10 -34 18 -43 99 -14 118 44 197 164 223 19 4 63 23 97 42 67 36 81 59 84
133 4 77 0 91 -40 134 -46 50 -53 53 -211 95 -144 38 -274 42 -354 10z m387
-190 c38 -10 59 -44 43 -69 -23 -37 -122 -34 -182 7 -34 23 -40 24 -76 13 -26
-8 -43 -8 -49 -2 -19 19 3 34 46 30 26 -3 56 2 81 14 46 20 84 22 137 7z"/>
</g>
</svg>
