<?xml version="1.0" standalone="no"?>
<!DOCTYPE svg PUBLIC "-//W3C//DTD SVG 20010904//EN"
 "http://www.w3.org/TR/2001/REC-SVG-20010904/DTD/svg10.dtd">
<svg version="1.0" xmlns="http://www.w3.org/2000/svg"
 width="480.000000pt" height="672.000000pt" viewBox="0 0 480.000000 672.000000"
 preserveAspectRatio="xMidYMid meet">
<metadata>
Created by potrace 1.16, written by Peter Selinger 2001-2019
</metadata>
<rect x="0" y="0" width="480" height="672" fill="#ffffff"/>
<g transform="translate(0.000000,672.000000) scale(0.100000,-0.100000)"
fill="#000000" stroke="none">
<path d="M2335 6700 c-3 -11 -26 -33 -49 -49 -30 -21 -50 -45 -65 -80 -25 -59
-25 -64 -6 -102 9 -16 20 -80 26 -142 6 -61 17 -128 26 -148 8 -20 13 -47 11
-60 -4 -29 -91 -90 -162 -115 -91 -31 -176 -130 -178 -206 -1 -56 8 -72 74
-134 50 -48 58 -51 146 -69 75 -14 121 -17 240 -12 206 8 256 21 331 87 68 59
82 95 62 161 -15 48 -83 102 -193 152 -48 22 -83 45 -94 63 -23 35 -24 120 -2
189 30 93 58 233 58 290 0 60 -13 80 -84 128 -15 11 -31 30 -36 43 -8 20 -16
24 -54 24 -36 0 -46 -4 -51 -20z m271 -865 c30 -12 35 -19 32 -42 -2 -22 -13
-33 -52 -52 -40 -20 -69 -25 -156 -29 -114 -5 -160 8 -204 57 -31 34 -11 41
94 32 85 -8 99 -6 135 12 34 17 79 32 108 36 4 1 24 -6 43 -14z"/>
<path d="M2109 5131 c-74 -22 -94 -33 -135 -74 l-49 -49 0 -88 0 -89 57 -56
c32 -30 63 -55 70 -55 7 0 40 -13 73 -28 33 -16 85 -35 115 -42 30 -7 61 -19
68 -28 20 -26 16 -155 -6 -182 -18 -22 -19 -22 -330 -22 -171 0 -317 4 -324 9
-7 4 -139 11 -293 16 -154 4 -352 12 -440 16 -685 34 -751 35 -786 15 -28 -16
-37 -30 -48 -74 -16 -66 -3 -132 32 -155 36 -23 190 -21 942 16 110 6 387 13
615 17 228 4 422 10 430 14 8 3 50 9 93 12 73 5 80 4 103 -19 23 -23 24 -28
24 -179 0 -132 -2 -157 -17 -172 -16 -15 -46 -16 -386 -9 -281 5 -377 10 -403
21 -21 9 -65 14 -117 13 -45 -1 -100 4 -120 10 -21 7 -75 14 -120 16 -45 1
-120 6 -167 10 -111 10 -152 -6 -180 -67 -22 -49 -25 -105 -8 -143 6 -14 33
-39 61 -57 47 -30 51 -31 93 -20 24 7 62 12 83 12 22 0 66 7 98 15 70 17 458
36 858 42 356 5 325 22 325 -178 0 -178 11 -169 -200 -159 -143 7 -163 10
-264 45 -139 47 -279 59 -336 27 -54 -30 -74 -64 -78 -137 -4 -53 -1 -70 18
-100 25 -41 80 -80 125 -89 39 -8 157 16 232 48 32 13 90 29 128 35 250 38
308 38 346 0 17 -17 19 -34 19 -148 0 -115 -2 -131 -21 -155 -19 -25 -25 -26
-107 -26 -136 0 -347 35 -407 66 -40 21 -68 28 -135 31 -77 4 -88 3 -120 -19
-59 -40 -80 -81 -80 -157 0 -36 6 -77 13 -91 15 -30 121 -89 159 -90 15 0 45
7 65 15 21 8 67 21 103 29 36 7 110 26 165 40 132 35 259 45 303 22 41 -21 47
-47 29 -137 -9 -41 -18 -99 -22 -129 -12 -93 -13 -94 -117 -85 -50 4 -116 13
-147 21 -31 8 -88 19 -126 24 -39 5 -95 20 -125 34 -41 19 -72 26 -119 26 -57
0 -68 -3 -113 -36 -58 -43 -68 -65 -68 -142 0 -85 7 -98 74 -144 74 -51 129
-56 192 -18 26 16 79 32 164 47 69 12 167 31 218 42 142 30 158 17 150 -119
-3 -62 -7 -74 -33 -100 -17 -16 -59 -44 -95 -62 -53 -27 -75 -46 -117 -103
-66 -88 -69 -122 -19 -182 58 -67 135 -114 207 -124 136 -21 265 -22 371 -4
91 15 111 22 171 62 79 53 90 74 85 161 -4 59 -6 65 -53 113 -28 28 -63 57
-80 66 -39 20 -103 81 -121 115 -7 14 -17 58 -20 97 -7 69 -6 70 20 82 21 10
40 10 85 1 31 -7 70 -12 87 -12 16 0 58 -6 94 -14 36 -9 123 -23 193 -32 l128
-16 47 24 c81 42 113 119 78 186 -16 31 -101 82 -137 82 -13 0 -53 -6 -89 -14
-181 -40 -459 -67 -505 -50 -31 12 -47 62 -45 147 1 45 -1 105 -5 132 -11 77
-5 80 172 67 96 -7 194 -21 278 -41 72 -17 156 -31 189 -31 56 0 61 2 102 43
76 77 72 144 -14 214 -60 49 -94 54 -164 25 -59 -25 -334 -62 -461 -62 -100 0
-105 8 -119 165 -12 132 -8 158 28 182 23 15 38 15 152 4 238 -23 304 -33 373
-57 101 -35 126 -33 193 22 41 34 57 55 62 80 15 82 -62 184 -141 184 -33 0
-198 -37 -248 -56 -25 -9 -100 -17 -210 -21 -226 -8 -213 -18 -220 175 -6 135
-5 144 15 164 19 19 28 20 117 13 53 -4 200 -10 326 -14 366 -12 636 -30 690
-45 82 -23 225 -48 305 -53 89 -5 123 11 166 79 37 58 41 120 12 178 -30 59
-55 70 -158 70 -113 0 -398 -26 -433 -39 -16 -6 -53 -11 -84 -11 -30 0 -82 -7
-115 -16 -33 -8 -95 -15 -137 -15 -42 1 -202 -2 -356 -5 -153 -3 -294 -3 -312
1 -55 10 -61 31 -54 198 5 133 8 150 26 163 21 16 -6 16 740 -4 165 -4 307
-11 316 -16 10 -4 68 -9 130 -10 288 -7 626 -28 668 -42 25 -8 64 -14 87 -14
24 0 68 -6 98 -14 64 -17 99 -10 157 29 47 33 64 73 64 150 0 75 -20 109 -78
136 -52 23 -183 26 -248 5 -27 -10 -132 -19 -279 -27 -129 -6 -296 -15 -370
-20 -74 -4 -218 -13 -320 -18 -102 -6 -207 -14 -235 -18 -82 -13 -722 0 -736
14 -20 20 -30 132 -14 169 24 58 85 110 145 124 59 14 186 84 200 109 4 9 11
35 15 57 18 112 -53 189 -219 236 -91 25 -115 28 -246 27 -126 -1 -156 -5
-231 -28z m499 -177 c33 -22 28 -50 -15 -73 -37 -19 -92 -13 -143 16 -46 26
-52 27 -95 15 -47 -12 -92 -2 -80 18 8 12 84 33 99 27 7 -3 37 1 67 8 60 15
132 10 167 -11z m-366 -3169 c14 -17 35 -26 67 -30 25 -3 80 -11 121 -17 75
-12 75 -12 35 -20 -106 -22 -139 -21 -197 6 -63 30 -83 49 -74 71 8 22 23 19
48 -10z"/>
<path d="M2200 1123 c-113 -22 -219 -100 -235 -173 -7 -32 24 -107 54 -134 20
-17 124 -71 173 -90 67 -26 100 -103 75 -175 -9 -25 -19 -89 -22 -141 -4 -52
-14 -113 -22 -135 -8 -22 -17 -47 -19 -56 -11 -32 37 -118 82 -150 23 -16 46
-38 49 -49 5 -16 15 -20 51 -20 38 0 46 4 54 24 5 13 21 32 36 43 71 48 84 68
84 128 0 56 -26 185 -61 304 -11 35 -19 71 -19 82 0 55 44 91 160 128 73 24
143 82 166 138 19 44 17 110 -4 155 -22 46 -93 106 -135 112 -188 30 -345 33
-467 9z m318 -139 c29 -20 29 -60 0 -68 -13 -3 -53 -3 -89 1 -55 5 -79 1 -145
-21 -87 -29 -126 -26 -151 11 -12 17 -11 23 4 42 31 38 87 50 228 51 103 0
135 -3 153 -16z"/>
</g>
</svg>
