<?xml version="1.0" standalone="no"?>
<!DOCTYPE svg PUBLIC "-//W3C//DTD SVG 20010904//EN"
 "http://www.w3.org/TR/2001/REC-SVG-20010904/DTD/svg10.dtd">
<svg version="1.0" xmlns="http://www.w3.org/2000/svg"
 width="192.000000pt" height="528.000000pt" viewBox="0 0 192.000000 528.000000"
 preserveAspectRatio="xMidYMid meet">
<metadata>
Created by potrace 1.16, written by Peter Selinger 2001-2019
</metadata>
<rect x="0" y="0" width="192" height="528" fill="#ffffff"/>
<g transform="translate(0.000000,528.000000) scale(0.100000,-0.100000)"
fill="#000000" stroke="none">
<path d="M805 5205 c-17 -68 -17 -85 -6 -173 7 -53 21 -134 32 -178 37 -156
22 -191 -89 -213 -41 -8 -74 -22 -95 -39 -18 -16 -44 -35 -58 -44 -33 -21 -83
-140 -74 -176 3 -14 21 -48 40 -77 30 -48 39 -55 97 -73 211 -69 330 -69 547
-4 129 39 197 134 161 226 -18 47 -81 100 -145 120 -45 14 -72 31 -109 67
l-49 49 6 60 c4 33 15 93 26 133 11 41 25 116 32 169 12 92 11 96 -14 159
l-26 64 -128 3 -129 3 -19 -76z m373 -761 c40 -28 23 -86 -30 -103 -83 -26
-184 -35 -257 -23 -108 18 -132 40 -90 78 18 16 37 19 138 19 106 0 119 2 145
23 34 26 63 28 94 6z"/>
<path d="M725 3765 c-5 -2 -27 -6 -47 -10 -27 -4 -59 -24 -108 -66 -76 -66
-97 -110 -86 -178 8 -54 69 -134 127 -167 101 -58 115 -64 157 -64 65 0 100
-22 107 -68 3 -20 11 -56 16 -78 13 -51 0 -81 -38 -90 -50 -13 -334 6 -398 25
-104 33 -221 54 -265 48 -72 -9 -110 -64 -110 -157 0 -43 5 -55 36 -89 57 -64
84 -68 211 -31 101 29 168 38 415 57 144 11 156 -3 153 -182 -2 -143 0 -130
-25 -155 -17 -17 -33 -20 -97 -20 -71 0 -112 4 -328 31 -44 6 -110 22 -147 36
-60 23 -72 25 -107 15 -23 -7 -54 -29 -76 -53 -36 -40 -37 -43 -33 -105 4 -68
25 -108 69 -132 35 -19 156 -9 259 22 96 28 238 46 365 46 123 0 124 -1 121
-173 -2 -146 -13 -181 -58 -188 -26 -5 -156 4 -268 19 -41 5 -118 15 -170 21
-52 7 -115 19 -139 28 -51 18 -97 9 -145 -30 -25 -21 -30 -32 -34 -84 -6 -80
11 -129 51 -150 42 -21 168 -13 397 26 96 16 205 33 241 37 61 6 68 5 89 -16
l23 -23 -6 -404 c-6 -317 -10 -419 -23 -475 -10 -44 -14 -96 -12 -137 4 -48 0
-83 -14 -126 -15 -45 -18 -75 -13 -120 3 -33 2 -81 -3 -105 -6 -25 -13 -118
-17 -208 l-7 -163 40 -37 c22 -21 44 -50 47 -65 7 -26 9 -27 85 -27 77 0 78 0
85 27 3 16 22 45 42 65 l36 37 -7 148 c-4 81 -11 189 -16 238 -5 50 -12 140
-15 200 -3 61 -12 142 -20 180 -11 50 -18 187 -25 470 -6 220 -13 420 -16 445
-5 37 -2 51 14 70 19 24 25 25 118 23 59 -2 125 -11 168 -23 39 -11 118 -27
176 -36 72 -11 119 -24 149 -41 66 -38 109 -35 168 15 26 22 60 44 76 47 l27
7 0 94 c0 90 -1 94 -22 94 -12 0 -38 18 -62 43 l-40 42 -69 -3 c-45 -1 -88
-11 -127 -27 -88 -37 -443 -90 -518 -76 -45 7 -56 42 -58 188 -3 182 -7 178
170 170 104 -4 153 -12 236 -35 58 -17 123 -34 145 -38 22 -3 64 -16 94 -27
70 -26 106 -15 189 55 l62 53 0 68 c0 62 -2 68 -24 76 -12 5 -38 28 -55 50
l-33 41 -81 0 c-45 -1 -98 -7 -117 -14 -148 -57 -224 -73 -417 -83 -162 -9
-171 0 -169 182 2 130 11 161 51 171 70 17 373 -22 465 -61 155 -65 246 -63
302 7 17 22 42 44 54 49 22 8 24 14 24 79 0 46 -4 70 -12 70 -6 0 -35 22 -63
49 -64 60 -104 71 -180 47 -28 -9 -60 -16 -69 -16 -10 0 -50 -11 -90 -25 -101
-35 -224 -55 -343 -55 -91 0 -105 2 -124 21 -19 19 -21 30 -17 101 3 76 5 81
35 106 76 63 99 77 154 88 37 8 73 23 98 43 41 33 81 104 81 145 0 45 -38 116
-71 134 -17 9 -45 28 -61 41 -44 36 -144 50 -348 50 -96 0 -179 -2 -185 -4z
m432 -186 c33 -28 -1 -79 -53 -79 -18 0 -54 11 -80 25 -27 14 -64 25 -85 25
-70 0 -41 18 54 33 95 16 141 15 164 -4z"/>
</g>
</svg>
