<?xml version="1.0" standalone="no"?>
<!DOCTYPE svg PUBLIC "-//W3C//DTD SVG 20010904//EN"
 "http://www.w3.org/TR/2001/REC-SVG-20010904/DTD/svg10.dtd">
<svg version="1.0" xmlns="http://www.w3.org/2000/svg"
 width="472.000000pt" height="496.000000pt" viewBox="0 0 472.000000 496.000000"
 preserveAspectRatio="xMidYMid meet">
<metadata>
Created by potrace 1.16, written by Peter Selinger 2001-2019
</metadata>
<rect x="0" y="0" width="472" height="496" fill="#ffffff"/>
<g transform="translate(0.000000,496.000000) scale(0.100000,-0.100000)"
fill="#000000" stroke="none">
<path d="M2300 4892 c-41 -20 -64 -40 -88 -77 -38 -56 -39 -82 -4 -175 18 -50
46 -242 43 -298 -2 -52 -35 -78 -130 -102 -54 -14 -174 -117 -190 -162 -6 -17
-11 -51 -11 -75 0 -39 6 -50 50 -97 39 -41 62 -56 98 -66 26 -6 64 -18 85 -26
64 -24 292 -19 407 10 116 28 116 27 176 95 66 74 67 107 3 182 -27 32 -61 59
-82 67 -73 26 -166 85 -177 111 -7 18 -7 57 0 128 11 121 14 134 47 235 18 53
23 87 19 111 -9 50 -70 114 -134 143 -30 13 -55 24 -56 23 0 0 -26 -12 -56
-27z m294 -835 c42 -31 -8 -93 -93 -117 -49 -14 -234 -13 -265 1 -31 15 -41
38 -23 56 10 10 42 14 111 15 87 0 102 3 149 29 57 31 94 36 121 16z"/>
<path d="M4075 3654 c-152 -40 -198 -63 -266 -130 l-65 -65 -1374 0 -1374 0
-35 34 c-46 43 -190 95 -316 113 -27 4 -67 13 -89 20 -46 17 -183 18 -223 3
-15 -5 -63 -16 -107 -24 -72 -13 -83 -18 -125 -59 -25 -25 -58 -50 -73 -55
-28 -10 -28 -11 -28 -106 0 -87 2 -95 19 -95 11 0 36 -19 55 -43 55 -67 153
-114 263 -127 176 -20 413 -8 469 23 109 62 136 82 155 119 11 21 31 43 45 48
15 6 553 10 1370 10 1304 1 1346 0 1382 -18 167 -87 261 -121 402 -148 109
-21 203 -14 340 26 92 26 109 35 140 69 19 22 45 42 58 46 21 6 22 11 22 100
l0 93 -35 12 c-19 6 -40 19 -45 28 -25 43 -45 55 -147 91 -97 34 -121 38 -238
43 -92 4 -144 2 -180 -8z m-3549 -229 c20 -8 34 -20 32 -27 -10 -29 -108 -46
-168 -29 -34 9 -40 48 -8 60 35 15 105 13 144 -4z m3857 -7 c22 -11 22 -21 -4
-44 -29 -26 -189 -28 -215 -2 -15 15 -15 17 9 32 49 33 160 40 210 14z"/>
<path d="M2180 3019 c-66 -9 -190 -70 -228 -113 -39 -45 -45 -68 -40 -158 l4
-71 59 -53 c39 -34 76 -57 105 -65 81 -23 185 -70 208 -95 35 -39 23 -152 -19
-174 -21 -12 -538 -7 -974 9 -132 4 -393 13 -580 20 -254 9 -354 16 -397 28
-63 18 -162 13 -199 -9 -11 -7 -34 -39 -50 -70 l-29 -58 29 -59 c41 -81 46
-82 293 -69 112 6 257 12 323 13 66 1 140 7 165 13 25 7 122 12 216 12 121 0
183 4 211 14 33 11 117 13 459 10 230 -3 445 -5 476 -4 86 0 88 -4 88 -180 0
-174 -3 -180 -83 -181 -246 -2 -390 1 -436 10 -29 6 -106 11 -170 11 -64 0
-132 5 -151 11 -19 6 -78 13 -130 14 -52 2 -171 8 -264 15 -231 16 -239 14
-286 -77 -19 -37 -20 -47 -10 -78 17 -52 53 -90 105 -109 41 -16 48 -16 88 -2
43 16 353 38 582 41 61 1 123 8 140 14 37 15 558 16 586 1 24 -14 43 -85 34
-135 -3 -22 -9 -70 -13 -108 -11 -101 -14 -102 -183 -100 -137 2 -233 16 -339
50 -61 19 -179 27 -212 14 -33 -12 -78 -95 -78 -143 0 -34 26 -85 63 -125 32
-35 74 -38 153 -10 84 29 159 41 357 58 135 11 151 11 184 -5 l35 -17 -7 -52
c-4 -29 -8 -90 -9 -137 -5 -216 -29 -559 -41 -600 -8 -25 -15 -79 -16 -120 -2
-67 1 -79 24 -114 15 -21 27 -50 27 -63 l0 -24 112 3 112 3 7 28 c4 15 21 43
38 63 35 39 39 70 16 134 -8 23 -15 61 -15 83 0 22 -7 63 -15 91 -9 31 -19
140 -26 281 -6 127 -13 269 -16 317 -4 83 -3 89 21 113 21 21 35 25 81 25 109
0 291 -30 396 -65 111 -38 220 -47 269 -22 15 7 38 39 59 80 l34 68 -22 62
c-28 78 -39 90 -111 117 l-59 22 -60 -21 c-34 -12 -71 -21 -84 -21 -12 0 -67
-16 -122 -35 -82 -28 -121 -36 -216 -41 -64 -4 -132 -4 -152 0 -60 11 -66 31
-58 184 9 189 -24 174 370 168 174 -3 363 -9 421 -14 58 -6 168 -15 244 -20
152 -12 236 -24 336 -49 107 -28 139 -24 203 24 64 49 83 90 74 164 -8 68 -20
85 -79 115 -57 29 -68 29 -278 1 -130 -18 -378 -43 -561 -56 -59 -5 -112 -12
-119 -16 -21 -13 -564 -9 -589 4 -34 19 -41 52 -41 191 0 100 3 132 15 143 12
13 88 16 492 19 302 2 487 0 503 -6 14 -5 93 -13 175 -16 83 -4 179 -12 215
-18 36 -6 183 -16 328 -22 160 -7 285 -17 318 -26 77 -20 94 -18 159 16 31 17
66 30 76 30 18 0 19 7 17 107 l-3 107 -28 7 c-15 4 -43 21 -62 37 -31 28 -40
30 -106 30 -39 0 -89 -6 -112 -14 -22 -8 -60 -14 -85 -14 -25 0 -79 -7 -121
-15 -73 -14 -459 -35 -755 -41 -77 -2 -153 -8 -169 -14 -19 -6 -173 -10 -407
-10 -427 0 -413 -3 -431 78 -11 49 -6 77 27 148 23 48 54 74 89 74 24 0 159
72 192 103 39 36 57 86 49 130 -4 18 -28 55 -54 83 -43 48 -55 54 -157 87 -98
32 -124 36 -235 39 -69 2 -145 0 -170 -3z m290 -180 c70 -11 103 -27 120 -59
15 -29 -19 -60 -66 -60 -28 0 -44 8 -74 39 -29 29 -49 40 -84 45 -50 8 -59 21
-23 36 30 12 50 12 127 -1z"/>
</g>
</svg>
