<?xml version="1.0" standalone="no"?>
<!DOCTYPE svg PUBLIC "-//W3C//DTD SVG 20010904//EN"
 "http://www.w3.org/TR/2001/REC-SVG-20010904/DTD/svg10.dtd">
<svg version="1.0" xmlns="http://www.w3.org/2000/svg"
 width="408.000000pt" height="360.000000pt" viewBox="0 0 408.000000 360.000000"
 preserveAspectRatio="xMidYMid meet">
<metadata>
Created by potrace 1.16, written by Peter Selinger 2001-2019
</metadata>
<rect x="0" y="0" width="408" height="360" fill="#ffffff"/>
<g transform="translate(0.000000,360.000000) scale(0.100000,-0.100000)"
fill="#000000" stroke="none">
<path d="M2000 3587 c0 -7 -18 -32 -40 -55 l-40 -41 0 -136 c0 -122 -2 -137
-20 -155 -15 -15 -32 -20 -63 -18 -45 2 -149 -14 -232 -37 -27 -8 -87 -19
-132 -25 -44 -6 -126 -26 -181 -44 -55 -19 -119 -37 -143 -41 -24 -4 -64 -20
-89 -35 -25 -16 -65 -33 -90 -40 -25 -6 -63 -24 -85 -40 -22 -15 -60 -33 -83
-39 -23 -7 -56 -25 -73 -42 -17 -17 -42 -34 -55 -39 -13 -5 -60 -38 -105 -72
-44 -35 -91 -70 -105 -79 -55 -36 -188 -189 -222 -254 -11 -22 -30 -49 -41
-60 -27 -23 -114 -202 -131 -268 -9 -33 -23 -56 -42 -70 l-28 -21 0 -222 0
-222 34 -34 c20 -20 39 -52 46 -79 23 -86 88 -178 219 -308 83 -81 142 -131
171 -144 25 -11 62 -35 83 -53 20 -19 43 -34 51 -34 8 0 33 -16 56 -35 23 -19
62 -40 86 -46 25 -6 61 -24 80 -40 32 -26 89 -49 120 -49 6 0 29 -12 50 -26
21 -15 59 -33 84 -39 25 -7 70 -24 100 -39 31 -14 90 -34 130 -44 41 -11 103
-31 137 -45 34 -15 83 -31 110 -37 26 -6 86 -26 133 -45 47 -18 99 -37 115
-41 81 -19 108 -69 104 -191 -1 -43 1 -106 6 -140 l8 -63 118 0 119 0 0 26 c0
14 9 47 21 73 18 44 20 65 17 212 -2 134 -6 171 -21 201 -10 20 -26 40 -35 44
-9 4 -62 11 -117 15 -129 9 -406 70 -516 114 -48 19 -96 35 -107 35 -11 0 -46
14 -77 30 -31 17 -83 37 -114 46 -31 9 -78 28 -106 44 -27 15 -73 35 -101 44
-29 9 -59 25 -69 35 -9 11 -38 28 -64 40 -26 11 -54 28 -62 37 -8 10 -33 26
-56 36 -23 10 -60 34 -83 53 -23 19 -46 35 -50 35 -14 0 -223 214 -259 264
-19 27 -40 67 -46 90 -7 23 -25 67 -40 100 -25 54 -27 66 -23 151 4 70 10 101
26 126 11 19 28 61 37 94 10 33 33 81 51 108 19 27 34 55 34 62 0 6 10 20 21
31 12 10 39 42 59 70 69 92 182 193 284 254 23 14 57 37 76 51 19 15 56 33 82
42 26 9 62 27 80 40 18 14 59 32 92 41 32 10 75 28 95 41 20 14 70 31 111 39
41 8 109 26 150 41 41 14 113 30 160 35 47 5 124 16 170 25 189 33 193 30 201
-152 3 -76 2 -148 -2 -160 -9 -25 -88 -53 -150 -53 -21 0 -61 -9 -89 -20 -28
-11 -92 -29 -142 -40 -50 -11 -99 -26 -107 -35 -9 -8 -40 -25 -68 -37 -60 -26
-189 -140 -250 -219 -122 -160 -123 -456 -2 -614 59 -78 190 -201 233 -219 21
-9 51 -27 67 -41 17 -13 48 -29 71 -36 23 -6 64 -24 92 -39 40 -23 72 -31 147
-39 53 -5 113 -17 134 -25 20 -9 58 -16 84 -16 25 0 66 -6 91 -13 34 -10 94
-11 255 -5 198 7 274 13 440 37 39 5 107 14 152 20 46 6 119 22 163 36 45 14
113 32 153 41 66 14 208 70 282 111 17 9 62 33 100 53 98 50 160 100 231 187
160 196 211 429 148 674 -28 111 -91 242 -150 314 -82 102 -221 228 -297 271
-24 13 -52 33 -62 44 -9 10 -34 25 -54 31 -20 7 -50 23 -67 36 -17 12 -57 32
-90 43 -32 11 -77 30 -98 42 -22 12 -72 29 -110 39 -39 9 -98 29 -131 43 -34
14 -99 29 -150 36 -50 6 -135 22 -190 35 -55 14 -140 27 -190 29 -93 5 -193
14 -232 22 -35 7 -44 57 -27 155 16 91 9 132 -27 165 -12 11 -27 31 -35 46
-13 24 -21 28 -59 28 -30 0 -45 -4 -45 -13z m547 -728 c15 -6 62 -15 103 -20
41 -5 104 -13 140 -18 36 -5 103 -15 150 -21 47 -7 114 -24 150 -38 35 -14 95
-33 133 -43 38 -9 85 -29 105 -42 20 -14 55 -31 77 -38 22 -6 62 -27 89 -46
26 -18 54 -33 60 -33 7 0 69 -56 137 -123 107 -106 130 -135 162 -201 46 -96
57 -140 57 -236 0 -97 -11 -141 -60 -242 -64 -136 -214 -279 -338 -322 -22 -8
-57 -26 -79 -40 -21 -13 -65 -32 -99 -40 -33 -9 -81 -24 -105 -35 -44 -19 -64
-24 -264 -60 -223 -41 -314 -49 -535 -47 -181 2 -230 6 -310 25 -52 12 -140
29 -195 37 -63 10 -119 26 -155 44 -30 15 -73 33 -95 40 -22 7 -51 23 -65 35
-14 13 -39 30 -55 38 -17 9 -66 51 -109 94 -59 59 -85 95 -108 147 -33 76 -33
92 5 210 19 59 31 79 82 128 40 38 76 63 108 74 26 9 67 26 90 39 23 13 73 29
110 35 38 6 97 17 131 24 103 21 125 0 112 -112 -4 -31 -10 -97 -15 -147 -4
-49 -14 -109 -21 -132 -18 -60 -7 -89 47 -123 52 -33 90 -37 149 -16 23 8 112
16 219 21 99 4 225 13 280 20 219 30 430 78 460 105 11 10 35 25 53 34 18 9
52 44 77 78 69 95 72 171 10 251 -69 86 -138 140 -200 156 -26 7 -73 25 -104
40 -32 16 -88 34 -131 40 -41 6 -115 23 -164 37 -111 32 -216 44 -377 44 -172
0 -165 -7 -161 167 3 156 12 190 56 209 40 17 351 19 393 3z m-226 -644 c32
-12 77 -15 164 -14 84 2 127 -1 145 -11 13 -7 49 -14 80 -15 117 -5 249 -24
276 -39 102 -58 119 -72 122 -103 3 -26 -4 -37 -40 -68 -44 -38 -155 -88 -236
-106 -180 -40 -616 -43 -669 -4 -11 8 -20 36 -25 76 -14 108 -20 218 -14 245
13 49 111 69 197 39z"/>
</g>
</svg>
