<?xml version="1.0" standalone="no"?>
<!DOCTYPE svg PUBLIC "-//W3C//DTD SVG 20010904//EN"
 "http://www.w3.org/TR/2001/REC-SVG-20010904/DTD/svg10.dtd">
<svg version="1.0" xmlns="http://www.w3.org/2000/svg"
 width="416.000000pt" height="488.000000pt" viewBox="0 0 416.000000 488.000000"
 preserveAspectRatio="xMidYMid meet">
<metadata>
Created by potrace 1.16, written by Peter Selinger 2001-2019
</metadata>
<rect x="0" y="0" width="416" height="488" fill="#ffffff"/>
<g transform="translate(0.000000,488.000000) scale(0.100000,-0.100000)"
fill="#000000" stroke="none">
<path d="M1994 4808 c-4 -40 -7 -105 -5 -144 3 -62 0 -75 -18 -93 -12 -12 -34
-21 -50 -21 -15 0 -57 -9 -91 -20 -34 -11 -74 -20 -88 -20 -14 0 -59 -6 -101
-14 -42 -8 -111 -19 -154 -25 -42 -6 -95 -20 -117 -31 -22 -11 -75 -28 -118
-36 -42 -9 -96 -26 -119 -39 -23 -13 -66 -31 -95 -40 -29 -10 -74 -30 -99 -46
-25 -16 -61 -34 -80 -40 -19 -7 -45 -22 -59 -35 -14 -12 -47 -32 -74 -44 -27
-11 -68 -36 -90 -55 -120 -101 -148 -128 -229 -215 -121 -129 -163 -183 -171
-217 -4 -15 -18 -39 -31 -53 -25 -26 -86 -166 -112 -255 -20 -68 -28 -329 -14
-434 12 -91 69 -220 139 -316 73 -99 251 -264 327 -302 22 -12 48 -30 58 -41
10 -11 33 -26 50 -33 18 -7 47 -23 65 -36 18 -14 54 -31 80 -40 26 -9 62 -27
80 -41 19 -13 59 -31 90 -39 31 -8 74 -28 97 -43 22 -16 58 -32 80 -36 22 -3
77 -22 123 -40 46 -19 106 -39 134 -45 28 -6 74 -21 102 -34 28 -12 87 -30
131 -39 44 -9 121 -30 171 -46 51 -16 122 -34 158 -40 37 -6 101 -21 144 -35
42 -13 122 -35 177 -49 140 -35 299 -91 343 -121 20 -14 41 -25 47 -25 29 0
88 -24 115 -46 16 -14 52 -38 79 -52 72 -39 151 -102 199 -160 57 -68 102
-176 102 -244 -1 -66 -45 -183 -92 -239 -80 -98 -220 -229 -244 -229 -7 0 -35
-16 -63 -35 -28 -19 -74 -40 -103 -46 -29 -6 -70 -20 -91 -31 -46 -23 -188
-55 -284 -64 -91 -9 -113 3 -113 56 0 33 5 42 28 53 15 8 45 17 67 21 122 22
274 90 340 154 45 43 96 117 106 156 6 23 9 93 7 161 -3 130 -3 128 -81 232
-20 28 -51 56 -67 63 -17 7 -46 25 -66 41 -19 15 -49 31 -67 34 -18 4 -77 19
-132 35 -137 38 -208 45 -440 44 -153 0 -219 -4 -280 -18 -218 -48 -334 -79
-370 -100 -22 -13 -57 -29 -78 -36 -54 -17 -147 -104 -208 -193 -48 -71 -52
-83 -62 -164 -16 -137 2 -249 55 -338 39 -65 158 -195 178 -195 5 0 25 -14 44
-30 18 -17 49 -36 67 -44 19 -8 49 -26 68 -40 18 -14 59 -30 90 -37 31 -6 86
-24 122 -40 73 -31 189 -49 327 -49 128 0 172 -30 172 -115 l0 -35 115 0 116
0 -7 50 c-11 81 14 96 193 119 44 5 108 21 141 35 33 14 82 30 109 36 26 6 66
23 88 39 22 15 63 36 92 45 28 9 57 24 64 32 7 9 31 25 53 36 37 19 100 72
144 122 9 11 31 33 48 50 17 17 43 52 57 77 14 25 33 51 42 59 8 7 22 38 31
69 9 31 26 71 37 90 18 30 20 48 18 155 -2 105 -5 126 -25 161 -12 22 -30 60
-39 85 -11 28 -40 68 -80 108 -79 79 -164 152 -178 152 -6 0 -32 15 -58 34
-25 18 -63 39 -83 45 -20 7 -52 23 -71 35 -19 13 -58 31 -88 41 -30 10 -79 30
-109 45 -30 15 -80 33 -110 40 -30 7 -77 21 -105 32 -27 11 -97 31 -155 44
-58 14 -132 33 -165 44 -33 11 -103 29 -155 40 -52 12 -119 32 -148 45 -29 13
-78 29 -110 35 -31 5 -79 21 -105 35 -27 14 -76 32 -110 41 -34 8 -78 26 -98
39 -20 13 -62 30 -93 39 -31 8 -73 26 -92 41 -19 14 -56 34 -82 42 -26 9 -65
29 -87 44 -22 15 -52 31 -67 35 -15 3 -40 19 -56 35 -15 15 -45 36 -67 45 -22
9 -57 32 -78 50 -20 19 -40 34 -45 34 -10 0 -189 178 -230 229 -42 52 -107
181 -123 244 -7 31 -10 84 -6 144 5 80 11 106 35 152 16 31 35 74 42 96 7 22
24 53 37 69 13 16 32 45 43 65 24 46 148 183 220 244 30 25 73 61 94 79 21 18
53 39 70 46 17 7 40 22 51 32 11 10 42 29 69 41 27 11 68 34 92 49 24 15 63
30 86 34 24 4 59 18 80 31 20 13 78 35 130 48 51 13 118 33 148 45 30 11 103
25 162 31 58 7 132 18 163 26 136 36 150 21 158 -177 l6 -143 -25 -22 c-19
-17 -37 -23 -73 -23 -26 0 -80 -11 -120 -25 -40 -13 -101 -29 -134 -35 -34 -6
-78 -22 -97 -35 -19 -13 -60 -35 -90 -49 -102 -48 -246 -188 -270 -263 -7 -21
-24 -58 -39 -83 -24 -42 -25 -50 -23 -184 2 -114 5 -144 19 -165 10 -14 31
-52 48 -83 49 -92 103 -167 133 -182 16 -8 35 -22 42 -31 8 -9 32 -26 54 -37
23 -11 52 -30 66 -43 38 -35 261 -125 309 -125 15 0 65 -12 112 -26 71 -22
114 -27 279 -34 297 -13 543 1 787 43 113 20 251 52 313 71 60 20 117 36 127
36 9 0 39 13 67 29 28 15 76 35 107 44 30 9 64 26 74 37 10 11 39 30 64 41 25
11 57 31 71 43 14 13 38 30 53 38 33 17 96 93 131 160 14 25 37 63 50 82 13
20 27 55 31 79 4 23 15 61 26 85 10 24 21 58 25 77 3 19 12 39 20 46 9 7 14
31 14 62 0 42 -4 55 -25 72 -19 16 -28 40 -44 116 -32 154 -112 289 -253 428
-84 83 -132 123 -183 152 -22 12 -49 30 -60 40 -11 10 -42 27 -69 38 -26 12
-62 31 -78 42 -16 12 -58 30 -91 41 -34 10 -77 28 -96 39 -18 11 -61 26 -95
34 -33 8 -101 28 -150 45 -49 16 -123 34 -165 40 -172 23 -229 32 -279 47 -33
9 -101 15 -179 16 -154 2 -153 2 -153 132 0 64 -6 107 -19 145 l-19 55 -100 3
-99 3 -9 -73z m629 -593 c32 -8 81 -15 108 -15 28 0 60 -5 71 -11 12 -7 74
-17 139 -24 87 -10 134 -21 185 -43 38 -16 94 -35 124 -41 30 -7 73 -23 96
-36 23 -13 66 -34 97 -45 30 -11 61 -28 68 -36 7 -9 31 -25 53 -36 86 -44 241
-192 281 -268 12 -25 32 -53 43 -64 29 -25 45 -110 46 -241 1 -144 -9 -198
-43 -238 -16 -18 -38 -50 -49 -72 -26 -50 -124 -146 -177 -174 -22 -11 -50
-31 -63 -45 -12 -13 -37 -28 -55 -31 -18 -4 -56 -20 -84 -36 -29 -16 -95 -40
-148 -54 -52 -13 -108 -31 -124 -40 -28 -14 -231 -48 -391 -66 -41 -4 -95 -12
-120 -18 -62 -14 -312 -14 -347 0 -15 7 -59 15 -98 19 -159 17 -325 50 -381
76 -33 14 -81 33 -109 41 -27 8 -61 25 -75 38 -14 12 -43 32 -65 43 -50 26
-141 119 -191 197 -37 56 -39 65 -39 136 0 65 4 81 26 115 15 21 30 48 33 60
11 36 109 110 211 159 79 37 119 50 195 61 211 30 203 40 200 -233 -1 -114 -2
-213 -1 -218 0 -6 15 -19 33 -29 27 -16 57 -19 217 -22 102 -2 204 -3 226 -4
79 -2 411 18 485 29 48 8 87 20 110 36 19 13 54 28 77 35 60 15 150 104 169
167 20 66 18 179 -5 228 -24 53 -126 149 -176 165 -22 7 -63 26 -91 41 -39 22
-71 31 -145 39 -52 5 -115 16 -139 25 -76 27 -219 46 -390 52 -176 6 -205 13
-216 57 -3 13 2 41 11 62 15 33 19 75 24 212 1 12 10 31 21 42 18 18 33 20
168 20 99 0 167 -5 205 -15z m-53 -670 c25 -7 103 -18 175 -25 71 -6 152 -19
180 -29 27 -10 78 -28 112 -40 95 -34 96 -68 3 -125 -42 -26 -81 -41 -137 -51
-43 -7 -96 -20 -119 -28 -67 -25 -178 -38 -384 -47 -163 -7 -197 -6 -210 6
-11 11 -15 43 -15 137 -1 127 6 182 25 201 6 6 67 13 148 16 144 6 150 6 222
-15z m-490 -2240 c30 -8 82 -20 115 -26 90 -16 242 -123 282 -199 44 -84 -20
-187 -132 -210 -30 -6 -57 -16 -60 -21 -4 -5 -20 -16 -36 -24 -56 -29 -89 19
-89 131 0 36 -6 59 -19 75 -19 24 -23 24 -228 27 -198 4 -369 -8 -438 -29 -51
-15 -129 -98 -144 -152 -17 -60 -9 -99 33 -162 28 -43 47 -57 128 -98 103 -52
285 -101 431 -116 87 -9 117 -27 117 -72 0 -58 -94 -92 -179 -65 -25 9 -101
22 -168 30 -82 10 -143 24 -185 41 -35 15 -85 33 -112 40 -26 8 -67 26 -90 42
-22 15 -52 33 -66 39 -34 16 -110 88 -157 149 -38 50 -38 51 -41 155 l-4 105
32 40 c18 22 38 52 46 67 16 30 133 111 190 132 22 7 57 23 79 34 22 12 94 30
160 41 66 11 134 25 150 30 50 16 322 13 385 -4z m-26 -377 c24 -34 20 -75
-10 -105 l-26 -26 -142 6 c-77 4 -166 7 -197 7 -71 0 -98 17 -82 53 25 55 139
84 335 86 100 1 108 0 122 -21z"/>
</g>
</svg>
