<?xml version="1.0" standalone="no"?>
<!DOCTYPE svg PUBLIC "-//W3C//DTD SVG 20010904//EN"
 "http://www.w3.org/TR/2001/REC-SVG-20010904/DTD/svg10.dtd">
<svg version="1.0" xmlns="http://www.w3.org/2000/svg"
 width="408.000000pt" height="496.000000pt" viewBox="0 0 408.000000 496.000000"
 preserveAspectRatio="xMidYMid meet">
<metadata>
Created by potrace 1.16, written by Peter Selinger 2001-2019
</metadata>
<rect x="0" y="0" width="408" height="496" fill="#ffffff"/>
<g transform="translate(0.000000,496.000000) scale(0.100000,-0.100000)"
fill="#000000" stroke="none">
<path d="M2011 4933 c-6 -16 -27 -39 -46 -51 -19 -14 -36 -35 -40 -51 -7 -32
9 -140 24 -170 6 -11 11 -33 11 -50 0 -42 -36 -64 -100 -62 -27 0 -77 -8 -111
-19 -34 -11 -74 -20 -89 -20 -15 0 -58 -6 -96 -14 -38 -8 -97 -19 -132 -25
-34 -7 -84 -21 -110 -33 -26 -11 -84 -29 -130 -39 -46 -10 -95 -28 -109 -39
-14 -11 -51 -27 -82 -36 -31 -9 -74 -28 -96 -43 -22 -15 -55 -33 -73 -39 -19
-6 -47 -23 -64 -37 -17 -14 -46 -32 -66 -40 -19 -8 -52 -30 -72 -48 -68 -59
-124 -102 -156 -122 -49 -30 -169 -169 -229 -265 -15 -25 -38 -56 -51 -68 -13
-13 -28 -40 -35 -60 -6 -21 -24 -59 -39 -87 -15 -27 -33 -77 -40 -110 -14 -69
-29 -102 -59 -129 -20 -18 -21 -29 -21 -177 0 -149 1 -158 20 -164 25 -8 46
-47 60 -111 21 -94 107 -220 236 -348 82 -81 144 -132 197 -162 24 -13 52 -33
62 -44 9 -10 34 -25 54 -31 20 -7 50 -24 68 -39 17 -16 49 -34 70 -41 21 -6
59 -27 85 -44 25 -18 64 -35 85 -38 21 -4 59 -20 85 -37 25 -16 69 -35 99 -40
29 -6 70 -22 91 -35 21 -14 61 -30 90 -36 29 -6 73 -22 98 -34 45 -22 119 -46
194 -62 98 -20 56 -95 -77 -139 -58 -18 -230 -102 -274 -132 -15 -11 -48 -31
-73 -45 -57 -31 -249 -229 -273 -280 -38 -80 -49 -264 -21 -370 8 -33 28 -79
43 -101 16 -23 38 -59 49 -81 36 -71 249 -265 314 -287 18 -6 47 -23 64 -38
18 -15 56 -33 85 -40 30 -7 74 -23 99 -37 25 -13 74 -31 110 -39 36 -9 94 -28
130 -44 36 -16 79 -32 95 -35 17 -4 46 -23 66 -42 37 -35 86 -52 150 -53 28 0
50 10 88 39 l52 38 202 6 c220 6 292 16 379 53 31 13 78 28 105 34 26 6 64 22
83 35 19 13 54 32 77 42 56 24 198 154 225 206 11 23 29 53 39 67 29 40 44
161 32 267 -9 79 -15 99 -49 153 -50 79 -138 171 -189 199 -22 11 -51 30 -65
41 -14 11 -47 26 -75 34 -27 8 -77 26 -111 40 -62 26 -189 46 -298 46 -32 0
-86 7 -120 16 -60 16 -170 15 -282 -2 -57 -9 -84 18 -84 83 0 66 52 176 96
202 18 11 42 38 53 60 24 46 84 91 155 114 44 15 62 28 136 100 57 55 90 107
101 158 17 79 6 151 -31 207 -24 36 -30 56 -28 87 l3 40 80 6 c75 6 338 43
395 55 14 3 59 16 100 29 41 13 102 29 135 36 33 6 85 24 115 39 30 15 69 30
85 34 17 4 50 20 75 36 25 16 70 39 100 53 30 13 61 32 69 41 8 10 28 24 45
33 54 27 186 194 214 271 5 15 18 49 27 75 9 26 28 61 41 76 23 28 24 35 24
180 l0 151 -34 47 c-19 27 -41 74 -49 106 -9 32 -26 72 -40 90 -13 18 -31 46
-40 62 -16 31 -187 209 -247 258 -78 63 -158 115 -196 127 -21 7 -57 26 -79
41 -22 16 -62 35 -88 43 -27 8 -65 26 -85 39 -21 14 -64 31 -97 37 -33 7 -81
23 -106 36 -26 13 -77 28 -115 34 -117 20 -276 50 -339 65 -34 8 -79 14 -100
13 -74 -3 -280 15 -292 25 -17 13 -16 65 2 117 8 24 16 64 17 91 2 42 -2 53
-38 96 -22 26 -43 56 -47 66 -5 12 -17 17 -45 17 -34 0 -41 -4 -51 -27z m489
-718 c30 -8 79 -15 109 -15 29 0 79 -6 110 -14 31 -8 90 -17 131 -20 115 -10
187 -25 244 -50 28 -13 82 -29 119 -36 38 -7 84 -23 105 -38 20 -14 57 -32 82
-40 25 -9 67 -30 94 -49 26 -18 53 -33 59 -33 5 0 28 -17 51 -38 22 -21 50
-44 61 -52 56 -42 169 -183 207 -261 36 -74 41 -94 45 -174 7 -114 -5 -169
-59 -280 -45 -94 -116 -174 -228 -260 -52 -39 -242 -135 -269 -135 -7 0 -44
-14 -81 -30 -41 -18 -108 -36 -162 -44 -51 -8 -120 -22 -153 -30 -32 -9 -74
-16 -91 -16 -18 0 -45 -5 -60 -11 -16 -5 -126 -12 -245 -15 l-216 -5 -31 26
c-17 14 -47 32 -69 41 -21 9 -53 29 -71 45 -59 52 -101 51 -219 -7 -83 -41
-119 -41 -182 2 -20 14 -61 32 -91 41 -32 9 -71 30 -93 49 -20 19 -41 34 -46
34 -16 0 -70 50 -130 120 -44 51 -63 83 -81 139 l-23 73 27 82 c24 74 33 89
94 149 49 49 81 72 113 81 25 8 61 25 82 39 27 18 61 28 124 36 72 10 135 26
185 49 4 2 16 -6 27 -17 19 -19 21 -33 21 -130 0 -60 -7 -146 -16 -192 -24
-127 -22 -145 22 -190 47 -48 78 -55 140 -31 39 15 88 21 234 26 207 8 442 37
539 67 35 10 75 19 90 19 14 0 40 8 58 18 17 9 53 29 80 44 53 29 118 94 133
134 13 34 13 146 0 181 -18 48 -146 160 -204 179 -28 9 -80 29 -117 45 -36 15
-96 33 -135 39 -38 6 -96 19 -129 30 -96 31 -244 50 -389 50 -187 0 -182 -6
-178 181 2 79 5 152 8 162 3 9 17 24 32 32 38 20 267 20 342 0z m-518 -45 c14
-28 18 -61 18 -166 0 -89 -4 -135 -12 -147 -9 -11 -46 -22 -113 -32 -55 -9
-134 -27 -175 -40 -41 -12 -97 -28 -125 -35 -27 -6 -57 -18 -65 -25 -9 -8 -38
-24 -65 -36 -74 -33 -215 -150 -241 -200 -7 -15 -27 -42 -44 -60 -20 -23 -33
-50 -40 -88 -5 -31 -15 -76 -22 -101 -15 -57 -15 -103 0 -160 7 -25 17 -71 23
-102 6 -35 19 -65 33 -80 13 -13 39 -48 59 -79 19 -31 52 -70 73 -85 20 -16
49 -41 63 -55 14 -15 46 -36 71 -48 25 -12 60 -32 79 -46 19 -14 44 -25 57
-25 12 0 51 -15 86 -34 49 -26 86 -37 150 -44 114 -14 167 -36 183 -76 20 -46
31 -352 16 -399 -16 -46 -40 -61 -78 -46 -30 11 -153 33 -248 44 -33 4 -90 20
-127 36 -36 16 -72 29 -80 29 -34 0 -121 29 -155 53 -21 14 -63 30 -93 36 -30
7 -72 23 -94 37 -21 14 -61 33 -90 41 -28 8 -65 28 -83 43 -17 15 -49 33 -70
40 -21 7 -49 23 -63 36 -14 12 -41 30 -61 38 -20 8 -55 31 -78 50 -24 20 -47
36 -51 36 -13 0 -220 205 -220 217 0 6 -16 30 -35 53 -19 23 -38 54 -41 69 -4
14 -19 55 -34 91 -40 93 -46 145 -25 232 10 40 26 91 35 113 10 23 21 56 25
75 4 19 19 51 34 70 16 19 36 51 46 70 41 81 279 320 360 362 22 11 55 33 75
48 19 15 56 35 82 43 26 9 62 27 80 40 18 14 49 28 68 32 19 4 69 22 111 41
41 18 100 39 130 45 30 6 79 22 110 35 51 21 177 44 354 64 39 4 81 13 95 18
14 6 41 10 60 9 29 -2 38 -8 52 -37z m324 -595 c31 -9 91 -15 166 -15 64 0
129 -5 144 -10 15 -6 57 -13 93 -15 182 -10 245 -22 317 -60 89 -47 94 -52 94
-85 0 -33 -73 -105 -117 -116 -15 -4 -61 -20 -101 -36 -57 -23 -101 -31 -210
-41 -161 -14 -337 -14 -442 -1 -69 8 -76 11 -89 39 -10 20 -16 74 -19 167 -4
136 -4 137 21 162 31 30 70 33 143 11z m-22 -1205 c19 -17 48 -35 64 -41 16
-6 53 -37 81 -71 69 -81 70 -114 6 -190 -25 -29 -65 -64 -88 -77 -23 -13 -55
-35 -72 -48 -24 -21 -37 -24 -73 -20 -70 8 -77 21 -76 145 1 163 17 311 34
322 32 20 88 11 124 -20z m-300 -711 c25 -20 26 -24 26 -129 0 -62 -5 -120
-12 -135 -12 -27 -15 -28 -117 -45 -35 -7 -96 -24 -135 -39 -39 -16 -87 -32
-106 -36 -19 -3 -53 -19 -75 -35 -22 -15 -56 -34 -75 -43 -55 -24 -193 -171
-234 -251 -35 -67 -36 -72 -36 -183 0 -122 -4 -132 -53 -119 -25 6 -98 111
-158 226 -32 61 -34 72 -34 160 0 91 1 97 37 160 60 103 141 180 280 264 42
25 89 51 105 56 15 6 57 26 93 44 36 19 92 40 125 47 33 7 91 28 130 46 58 28
81 33 141 33 57 0 77 -4 98 -21z m496 -446 c186 -37 376 -138 496 -264 72 -76
93 -136 73 -214 -13 -53 -95 -143 -161 -176 -24 -11 -53 -30 -64 -41 -12 -10
-48 -27 -80 -38 -33 -10 -86 -30 -119 -44 -33 -13 -100 -30 -150 -36 -49 -6
-128 -20 -173 -31 -97 -22 -121 -16 -159 40 -22 33 -23 42 -23 237 0 149 -4
221 -16 271 -11 46 -15 102 -12 176 3 102 5 110 28 129 22 18 35 19 145 15 66
-3 163 -14 215 -24z m-485 -27 c15 -22 16 -64 9 -386 -9 -439 1 -410 -131
-393 -66 8 -106 20 -148 42 -32 17 -66 31 -76 31 -10 0 -33 13 -51 29 -18 15
-51 37 -73 49 -49 25 -62 40 -107 122 -54 99 -54 110 -13 195 51 102 168 209
278 252 34 14 67 29 72 34 18 14 148 48 187 48 29 1 41 -4 53 -23z"/>
</g>
</svg>
