<?xml version="1.0" standalone="no"?>
<!DOCTYPE svg PUBLIC "-//W3C//DTD SVG 20010904//EN"
 "http://www.w3.org/TR/2001/REC-SVG-20010904/DTD/svg10.dtd">
<svg version="1.0" xmlns="http://www.w3.org/2000/svg"
 width="408.000000pt" height="600.000000pt" viewBox="0 0 408.000000 600.000000"
 preserveAspectRatio="xMidYMid meet">
<metadata>
Created by potrace 1.16, written by Peter Selinger 2001-2019
</metadata>
<rect x="0" y="0" width="408" height="600" fill="#ffffff"/>
<g transform="translate(0.000000,600.000000) scale(0.100000,-0.100000)"
fill="#000000" stroke="none">
<path d="M1932 5962 c-6 -21 -25 -51 -42 -67 -36 -35 -39 -79 -10 -140 23 -48
25 -98 5 -115 -10 -8 -30 -10 -62 -5 -27 3 -60 2 -75 -4 -15 -5 -76 -17 -135
-25 -74 -10 -130 -25 -174 -45 -36 -16 -82 -32 -102 -36 -21 -4 -54 -19 -75
-33 -20 -14 -57 -34 -82 -45 -50 -22 -75 -43 -201 -171 -57 -57 -93 -102 -100
-125 -6 -20 -22 -55 -35 -78 -21 -37 -24 -54 -24 -155 0 -112 1 -114 41 -197
45 -94 155 -219 212 -242 18 -7 46 -23 64 -36 18 -13 67 -34 110 -47 43 -13
104 -33 135 -45 31 -11 101 -25 155 -31 54 -6 128 -17 165 -25 78 -17 403 -21
457 -5 19 5 75 16 125 25 50 9 102 24 116 34 14 10 46 29 70 41 108 55 218
192 241 302 19 85 6 190 -29 246 -17 26 -33 57 -36 68 -8 27 -98 110 -161 148
-26 16 -75 36 -108 43 -33 8 -76 22 -96 32 -20 10 -58 24 -86 30 -60 15 -75
26 -75 57 0 48 88 59 193 23 34 -12 108 -34 164 -49 56 -16 116 -38 132 -49
17 -12 50 -28 74 -35 58 -17 124 -65 211 -151 98 -97 127 -138 159 -225 42
-111 42 -111 6 -202 -38 -94 -99 -169 -187 -225 -30 -19 -62 -43 -72 -53 -10
-10 -40 -25 -68 -34 -27 -9 -58 -26 -68 -37 -9 -11 -42 -27 -72 -35 -31 -9
-87 -32 -126 -50 -39 -19 -80 -34 -91 -34 -11 0 -61 -11 -110 -25 -102 -29
-179 -40 -411 -59 -89 -8 -171 -19 -184 -26 -12 -6 -95 -25 -185 -40 -89 -15
-176 -35 -194 -44 -17 -9 -68 -26 -113 -37 -44 -11 -120 -38 -168 -60 -48 -21
-92 -39 -96 -39 -5 0 -29 -14 -54 -30 -25 -16 -61 -35 -80 -41 -19 -7 -53 -27
-74 -46 -22 -18 -44 -33 -49 -33 -6 0 -26 -12 -46 -27 -19 -16 -50 -37 -67
-48 -53 -33 -182 -154 -227 -212 -97 -127 -128 -170 -149 -213 -13 -25 -33
-61 -46 -81 -12 -20 -31 -72 -42 -115 -15 -56 -29 -87 -50 -109 l-30 -31 0
-191 c0 -186 1 -192 21 -198 22 -7 58 -76 59 -112 0 -30 86 -191 126 -236 19
-20 34 -42 34 -48 0 -22 182 -184 240 -214 19 -10 52 -33 73 -51 20 -19 44
-34 52 -34 8 0 30 -14 49 -30 19 -17 60 -39 91 -50 31 -11 69 -30 85 -44 16
-13 52 -29 80 -35 27 -6 74 -24 102 -40 29 -16 78 -34 108 -41 30 -6 100 -27
156 -46 56 -19 110 -34 120 -34 11 0 71 -13 134 -29 120 -31 300 -61 366 -61
58 0 80 -9 93 -36 15 -35 14 -236 -2 -256 -9 -13 -40 -17 -152 -21 -131 -4
-146 -7 -231 -40 -49 -20 -102 -39 -116 -42 -14 -4 -64 -45 -111 -92 -79 -78
-88 -91 -108 -157 -35 -114 -35 -158 -1 -258 34 -99 92 -176 157 -210 22 -11
53 -31 68 -44 15 -13 47 -29 70 -35 23 -6 63 -22 90 -35 73 -38 305 -59 484
-44 152 12 217 24 282 52 24 10 65 23 90 29 25 5 64 23 86 38 22 16 50 32 63
35 12 4 42 24 66 44 24 20 60 50 81 66 20 15 52 51 71 80 19 28 43 62 54 76
13 16 25 53 31 95 5 39 15 93 21 122 6 28 8 62 4 75 -3 12 -13 54 -21 92 -34
153 -178 309 -390 422 -79 42 -290 115 -372 129 -24 4 -53 15 -65 24 -21 18
-22 22 -19 267 2 232 4 250 22 269 18 19 37 20 312 27 284 6 336 10 502 42 44
8 95 15 114 16 19 0 79 16 135 35 56 19 131 41 168 49 36 8 83 27 104 41 21
14 58 31 82 37 24 6 57 22 73 35 16 14 44 32 62 41 127 65 283 253 308 371 9
42 20 64 45 88 l34 32 0 160 c0 150 -1 161 -20 171 -25 13 -46 55 -60 116 -17
74 -105 196 -228 317 -61 59 -115 107 -121 107 -6 0 -26 14 -45 30 -18 17 -50
37 -71 45 -20 9 -55 29 -77 45 -23 17 -46 30 -53 30 -6 0 -47 17 -91 39 -43
21 -102 44 -130 49 -28 6 -75 21 -105 33 -82 33 -148 49 -209 50 -75 1 -104
11 -108 35 -3 21 37 52 153 119 28 17 66 42 84 58 18 15 36 27 41 27 12 0 128
115 179 178 32 38 51 77 73 144 26 83 29 102 25 192 -5 119 -42 264 -78 302
-13 14 -35 44 -49 68 -42 73 -97 139 -152 184 -73 59 -146 109 -188 128 -19 9
-53 29 -75 44 -22 16 -64 33 -92 39 -29 6 -83 25 -120 42 -51 23 -96 34 -179
44 -166 19 -185 35 -159 134 24 93 20 134 -15 170 -17 17 -36 44 -41 61 l-11
30 -107 0 -108 0 -11 -38z m33 -612 c18 -15 20 -66 3 -77 -7 -4 -58 -11 -113
-15 -55 -3 -131 -15 -170 -27 -38 -12 -92 -26 -120 -32 -57 -13 -183 -79 -231
-121 -56 -49 -80 -161 -50 -231 7 -18 34 -52 59 -76 38 -37 56 -46 109 -57 35
-7 117 -23 183 -37 66 -14 192 -33 280 -42 145 -16 163 -16 197 -2 20 8 44 27
54 42 15 24 16 33 4 96 -15 81 -7 122 27 127 42 6 137 -30 170 -64 64 -68 53
-141 -32 -204 -30 -22 -56 -44 -60 -50 -3 -5 -25 -14 -48 -21 -23 -6 -73 -25
-112 -42 l-70 -32 -295 0 c-285 0 -297 1 -355 23 -33 13 -93 33 -133 45 -100
28 -190 103 -249 207 -46 80 -53 120 -32 193 23 86 137 220 212 251 22 9 52
27 68 40 17 14 53 29 86 36 32 6 84 22 116 36 35 14 96 28 150 34 51 5 108 12
127 14 66 8 210 -1 225 -14z m-61 -416 c9 -4 16 -18 16 -33 0 -58 -28 -68
-173 -66 -115 2 -118 3 -155 32 -64 52 -54 58 88 55 75 -2 131 1 140 7 17 12
60 14 84 5z m736 -1092 c63 -6 158 -22 210 -36 52 -14 131 -33 175 -42 44 -8
105 -28 135 -43 30 -15 77 -33 104 -40 27 -7 63 -23 80 -35 17 -13 48 -31 68
-39 21 -9 59 -32 84 -51 26 -20 52 -36 58 -36 15 0 206 -186 206 -200 0 -5 16
-28 36 -49 23 -26 43 -65 59 -113 13 -40 30 -91 39 -113 19 -51 19 -119 0
-170 -9 -22 -27 -75 -40 -119 -15 -49 -36 -93 -57 -117 -69 -83 -139 -149
-175 -168 -21 -11 -45 -27 -52 -37 -19 -22 -210 -111 -258 -120 -20 -4 -67
-20 -103 -35 -36 -15 -92 -32 -125 -38 -190 -31 -250 -44 -273 -59 -22 -15
-65 -17 -320 -20 -314 -3 -345 0 -361 44 -5 12 -10 233 -11 490 l-1 468 22 18
c38 31 179 15 246 -27 12 -8 47 -20 78 -28 58 -16 90 -38 193 -136 44 -43 61
-68 79 -120 43 -121 27 -175 -85 -288 -79 -80 -91 -102 -91 -174 0 -63 20
-101 72 -139 36 -26 50 -30 107 -30 36 0 72 4 78 8 23 15 133 195 140 231 5
20 8 117 8 216 0 198 1 192 -76 307 -40 60 -165 176 -219 203 -19 10 -47 28
-62 41 -15 12 -53 28 -84 34 -30 6 -79 22 -107 35 -29 13 -92 28 -142 35 -145
18 -137 3 -133 250 3 237 4 239 80 249 64 9 288 5 418 -7z m-706 -23 c25 -20
26 -24 26 -122 0 -56 7 -129 15 -162 18 -75 19 -126 2 -149 -9 -12 -36 -20
-87 -27 -41 -5 -100 -14 -130 -20 -74 -15 -250 -76 -270 -94 -9 -8 -36 -23
-60 -34 -70 -31 -210 -173 -247 -251 -78 -163 -81 -270 -11 -426 37 -83 54
-107 128 -181 52 -52 103 -94 130 -106 25 -11 61 -32 80 -47 19 -15 85 -45
146 -67 99 -37 149 -50 265 -68 72 -11 74 -17 77 -289 2 -132 0 -256 -3 -274
-8 -42 -37 -55 -84 -36 -18 8 -48 14 -65 14 -18 0 -59 7 -91 16 -33 8 -100 22
-150 29 -49 8 -120 25 -157 39 -36 14 -96 32 -133 41 -37 8 -85 26 -108 39
-23 13 -58 27 -77 31 -49 10 -240 103 -268 131 -13 12 -37 26 -53 29 -16 4
-50 24 -75 46 -25 21 -49 39 -55 39 -14 0 -190 158 -234 211 -90 108 -105 129
-144 211 -58 124 -64 157 -59 321 5 138 6 144 42 222 77 167 119 234 213 343
98 113 184 192 238 219 22 12 48 30 58 41 10 11 33 26 50 33 18 7 51 27 74 45
24 17 63 37 87 43 25 6 61 22 81 35 19 13 58 30 87 36 28 7 79 26 114 41 34
16 93 33 131 39 37 6 104 22 148 35 110 33 166 43 261 44 68 1 86 -2 108 -20z
m37 -625 c10 -12 12 -89 10 -360 -2 -232 1 -373 10 -432 15 -110 7 -177 -26
-198 -21 -14 -26 -14 -54 0 -17 9 -65 23 -108 31 -83 16 -241 86 -300 133
-152 121 -214 204 -233 314 -11 68 -10 80 9 146 46 152 167 254 416 348 39 15
139 30 221 33 27 1 46 -5 55 -15z m313 -1913 c42 -11 88 -26 101 -35 13 -9 48
-25 77 -36 92 -34 220 -146 283 -246 17 -26 36 -57 43 -68 9 -14 12 -52 10
-116 -3 -95 -3 -96 -43 -145 -62 -77 -136 -146 -171 -161 -18 -8 -49 -25 -68
-38 -20 -13 -55 -27 -78 -31 -22 -4 -80 -20 -127 -37 -184 -62 -405 -62 -601
2 -101 32 -131 47 -186 91 -36 29 -70 63 -75 76 -12 32 -12 109 1 132 19 37
125 131 159 142 20 6 52 21 71 33 57 36 98 46 196 46 98 0 124 -11 124 -49 0
-36 -27 -44 -140 -45 -122 -1 -131 -6 -177 -84 -22 -37 -25 -52 -20 -97 9 -86
24 -106 124 -154 143 -70 257 -69 426 5 67 29 92 46 132 92 l50 56 0 106 0
106 -50 57 c-35 41 -68 66 -110 86 -33 15 -73 42 -88 60 -25 31 -27 38 -27
132 0 55 5 109 10 120 14 25 54 25 154 0z m-84 -467 c114 -46 82 -186 -55
-244 -53 -22 -73 -25 -167 -23 -58 1 -124 7 -147 13 -64 17 -81 71 -36 115 21
22 33 25 90 25 46 0 78 -6 105 -20 76 -39 113 -18 129 74 9 49 22 75 38 76 2
0 21 -7 43 -16z"/>
</g>
</svg>
