<?xml version="1.0" standalone="no"?>
<!DOCTYPE svg PUBLIC "-//W3C//DTD SVG 20010904//EN"
 "http://www.w3.org/TR/2001/REC-SVG-20010904/DTD/svg10.dtd">
<svg version="1.0" xmlns="http://www.w3.org/2000/svg"
 width="416.000000pt" height="600.000000pt" viewBox="0 0 416.000000 600.000000"
 preserveAspectRatio="xMidYMid meet">
<metadata>
Created by potrace 1.16, written by Peter Selinger 2001-2019
</metadata>
<rect x="0" y="0" width="416" height="600" fill="#ffffff"/>
<g transform="translate(0.000000,600.000000) scale(0.100000,-0.100000)"
fill="#000000" stroke="none">
<path d="M2090 5951 c-73 -23 -119 -63 -145 -123 -23 -56 -19 -90 15 -133 17
-21 30 -44 30 -51 0 -26 -31 -44 -78 -44 -74 -1 -233 -26 -277 -44 -22 -10
-77 -26 -123 -37 -46 -10 -98 -30 -115 -43 -18 -13 -55 -31 -84 -40 -28 -10
-57 -24 -64 -32 -7 -9 -31 -25 -53 -36 -23 -11 -81 -61 -130 -112 -69 -72 -97
-109 -130 -176 -39 -80 -41 -90 -44 -191 l-4 -107 48 -107 c40 -86 59 -116
100 -153 89 -82 130 -110 174 -122 24 -6 66 -24 94 -40 28 -15 79 -33 113 -39
35 -7 89 -21 120 -32 102 -35 238 -49 470 -49 242 0 310 8 386 44 29 13 70 29
93 35 22 6 49 20 60 32 10 12 32 28 49 36 44 22 94 72 117 118 12 22 31 54 44
71 22 29 24 40 24 155 l0 124 -44 75 c-50 84 -130 160 -197 187 -24 9 -58 27
-76 39 -20 13 -63 26 -114 33 -44 7 -92 17 -105 23 -29 13 -41 52 -24 73 29
34 225 8 363 -48 45 -19 95 -37 111 -41 16 -4 48 -20 70 -36 23 -16 53 -32 68
-35 28 -7 192 -163 246 -234 18 -24 35 -55 38 -70 3 -14 14 -50 26 -79 22 -57
21 -74 -12 -168 -18 -54 -33 -73 -113 -149 -57 -56 -110 -96 -142 -110 -28
-13 -57 -30 -64 -39 -7 -8 -38 -25 -69 -36 -30 -12 -68 -30 -84 -42 -16 -11
-55 -27 -86 -34 -31 -8 -79 -26 -107 -39 -68 -34 -137 -45 -271 -45 -90 0
-125 -4 -166 -20 -30 -11 -77 -20 -108 -20 -30 0 -71 -4 -90 -9 -19 -6 -107
-19 -195 -30 -95 -13 -186 -31 -225 -45 -36 -13 -96 -29 -135 -36 -38 -7 -93
-25 -122 -41 -29 -16 -74 -33 -100 -39 -26 -6 -66 -23 -88 -39 -22 -15 -61
-35 -87 -44 -26 -8 -63 -27 -81 -41 -19 -14 -38 -26 -44 -26 -10 0 -107 -67
-197 -137 -56 -44 -215 -204 -229 -230 -5 -10 -22 -31 -38 -48 -15 -16 -35
-48 -44 -70 -9 -22 -27 -51 -40 -65 -25 -26 -86 -166 -112 -255 -21 -72 -28
-333 -13 -463 10 -88 18 -118 45 -167 18 -33 35 -72 39 -87 3 -15 19 -42 35
-60 15 -18 35 -46 44 -63 16 -32 242 -261 273 -278 10 -5 33 -22 49 -38 17
-15 51 -37 76 -48 25 -11 53 -29 62 -39 10 -11 37 -28 60 -38 23 -10 63 -32
89 -50 25 -17 64 -34 85 -37 22 -4 59 -20 84 -37 24 -16 69 -35 99 -41 30 -6
80 -24 110 -39 30 -15 87 -33 125 -40 39 -7 107 -26 152 -41 47 -17 124 -33
180 -39 54 -6 123 -17 153 -25 30 -8 87 -19 125 -25 39 -6 78 -18 87 -27 36
-32 35 -156 -2 -193 -16 -16 -30 -18 -112 -13 -75 4 -108 2 -168 -15 -41 -11
-91 -23 -111 -26 -20 -4 -54 -19 -76 -35 -21 -15 -54 -33 -74 -40 -21 -7 -55
-34 -87 -70 -40 -46 -57 -76 -77 -138 -30 -95 -31 -144 -5 -242 19 -67 28 -83
79 -136 86 -88 127 -118 217 -158 102 -46 171 -57 414 -63 240 -7 418 11 501
49 30 14 71 29 93 33 21 3 52 19 70 34 17 15 51 38 76 50 59 30 144 106 179
161 15 24 35 50 44 58 9 7 28 49 42 93 37 118 35 244 -6 370 -16 51 -40 104
-53 118 -12 14 -34 44 -49 67 -14 23 -43 54 -63 70 -20 15 -56 45 -80 65 -24
20 -54 40 -66 43 -13 4 -38 18 -56 32 -17 13 -56 32 -85 43 -28 10 -77 30
-107 44 -31 14 -88 30 -128 36 -114 16 -155 27 -170 47 -10 14 -12 66 -10 231
3 198 4 215 22 228 16 11 72 14 282 14 191 0 280 4 326 14 35 8 125 19 202 26
132 10 157 16 286 66 19 7 49 13 65 14 44 0 106 19 138 42 16 11 54 28 87 38
32 10 73 29 92 43 18 13 43 28 55 31 13 4 41 23 64 42 22 19 45 34 50 34 17 0
145 139 183 199 21 34 44 85 52 114 9 35 23 60 44 78 l30 25 0 210 0 209 -35
28 c-24 19 -38 41 -46 72 -14 57 -85 164 -157 239 -87 89 -193 181 -232 201
-19 9 -44 26 -55 36 -11 10 -38 26 -60 35 -22 9 -58 29 -80 44 -22 16 -64 33
-94 39 -30 7 -78 25 -107 41 -28 17 -78 35 -110 41 -33 5 -95 20 -139 33 -44
13 -102 29 -130 35 -57 14 -75 26 -75 52 0 21 18 32 81 47 79 20 228 127 322
232 96 108 106 122 117 174 6 28 17 70 25 94 19 55 19 158 1 210 -8 23 -20 67
-25 99 -6 32 -21 71 -33 88 -12 16 -31 49 -43 72 -33 69 -236 267 -315 308
-19 10 -47 28 -62 41 -15 12 -51 29 -80 38 -29 8 -68 26 -86 39 -18 14 -60 30
-95 36 -34 7 -89 21 -122 31 -33 11 -91 24 -130 30 -75 12 -128 36 -133 61 -1
9 11 33 29 55 28 35 31 44 26 91 -7 70 -19 88 -83 129 -59 38 -103 48 -144 35z
m-56 -647 c23 -22 20 -71 -3 -84 -11 -5 -50 -10 -88 -10 -85 0 -231 -23 -269
-43 -16 -8 -61 -24 -101 -36 -43 -13 -89 -35 -115 -56 -24 -19 -53 -42 -66
-52 -36 -28 -53 -117 -38 -194 7 -33 21 -69 32 -79 10 -10 56 -37 101 -60 75
-38 93 -43 190 -51 148 -12 246 -28 322 -50 35 -10 84 -19 111 -19 126 0 160
56 128 211 -9 46 -9 61 1 73 20 24 75 20 109 -9 17 -14 46 -32 66 -40 51 -21
70 -55 63 -111 -6 -53 -47 -103 -112 -136 -22 -11 -55 -31 -72 -44 -39 -29
-181 -64 -303 -74 -47 -4 -106 -13 -132 -21 -42 -11 -53 -11 -95 4 -27 9 -71
17 -100 17 -28 0 -89 9 -135 20 -46 11 -94 20 -108 20 -35 1 -209 89 -257 131
-22 19 -59 69 -82 112 -40 73 -43 83 -39 140 3 51 11 72 41 117 58 88 77 110
121 138 23 14 56 39 74 54 18 15 40 28 49 28 8 0 50 15 92 34 101 46 310 83
478 85 98 1 125 -2 137 -15z m-28 -438 c17 -24 17 -28 0 -52 -13 -17 -30 -19
-167 -22 -84 -2 -168 -1 -186 3 -35 6 -57 34 -47 59 11 28 58 35 222 33 149
-2 165 -4 178 -21z m474 -1051 c23 -8 63 -15 89 -15 25 0 84 -7 131 -15 46 -9
124 -20 173 -25 49 -6 114 -20 145 -31 31 -12 97 -32 145 -45 48 -13 109 -35
135 -48 26 -13 70 -31 99 -40 28 -9 57 -24 64 -32 7 -9 36 -27 63 -41 28 -14
66 -37 84 -52 69 -55 223 -214 242 -249 12 -20 29 -51 40 -67 25 -40 50 -160
50 -238 -1 -115 -24 -209 -64 -261 -20 -26 -36 -52 -36 -57 0 -5 -37 -45 -82
-90 -56 -56 -101 -90 -137 -106 -30 -14 -67 -35 -82 -48 -15 -12 -52 -28 -81
-35 -29 -7 -79 -25 -111 -42 -34 -17 -93 -35 -140 -43 -45 -7 -101 -20 -124
-29 -107 -38 -342 -61 -638 -61 -181 0 -215 2 -237 17 -35 23 -41 57 -23 127
8 32 14 78 13 103 -4 83 21 96 203 104 72 3 142 9 155 15 14 5 47 9 74 9 27 0
61 5 77 11 15 6 82 18 147 25 78 10 140 23 180 40 34 14 85 33 114 41 41 12
71 32 127 85 43 40 78 82 84 101 15 45 16 174 3 222 -29 101 -238 218 -421
236 -53 6 -118 16 -146 24 -111 30 -193 39 -355 36 -150 -2 -168 -1 -189 16
-27 22 -27 20 -12 223 10 145 22 216 38 230 23 23 145 25 203 5z m-506 -31
c19 -18 23 -37 30 -124 3 -36 8 -100 12 -142 12 -142 -16 -198 -101 -198 -26
0 -55 -5 -66 -11 -11 -5 -59 -19 -107 -29 -49 -11 -108 -30 -133 -44 -24 -13
-62 -29 -84 -35 -22 -6 -58 -26 -79 -43 -86 -72 -159 -145 -173 -173 -9 -16
-26 -42 -38 -57 -43 -51 -60 -275 -31 -389 24 -91 149 -264 216 -299 19 -10
43 -27 53 -38 10 -10 37 -28 60 -38 23 -10 60 -30 82 -46 22 -15 62 -32 89
-38 28 -6 79 -24 116 -40 36 -16 90 -32 120 -35 75 -9 109 -24 115 -49 9 -44
20 -225 20 -323 0 -93 -2 -105 -22 -125 -22 -22 -23 -22 -90 -6 -38 10 -104
20 -147 23 -44 3 -111 17 -150 31 -39 14 -105 32 -146 40 -41 9 -102 28 -135
44 -33 16 -85 34 -117 40 -31 6 -76 24 -100 40 -23 15 -63 33 -87 40 -24 6
-66 27 -93 46 -28 19 -56 34 -64 34 -7 0 -29 13 -47 30 -19 16 -54 38 -78 49
-50 21 -291 246 -316 295 -9 17 -28 47 -43 66 -15 19 -39 73 -53 120 -14 47
-33 110 -43 141 -17 57 -17 57 11 150 15 52 34 121 42 153 8 33 23 71 35 85
11 14 33 53 49 86 16 33 50 87 76 119 63 80 190 204 228 223 16 9 47 31 68 49
20 19 44 34 52 34 8 0 30 14 50 31 19 17 58 40 86 50 28 11 66 31 83 44 18 13
57 29 87 36 29 6 71 22 91 36 22 15 72 33 120 43 46 10 104 27 130 38 54 24
127 38 243 48 44 4 96 13 115 20 46 17 46 17 64 -2z m458 -633 c68 -11 157
-22 198 -26 85 -7 178 -26 295 -60 44 -13 92 -26 107 -29 46 -10 88 -53 88
-90 0 -43 -20 -59 -105 -81 -38 -10 -90 -26 -115 -35 -56 -22 -389 -35 -554
-22 -146 12 -149 16 -144 162 4 115 21 163 69 187 30 16 17 16 161 -6z m-424
-31 c17 -11 32 -28 33 -37 0 -10 1 -67 2 -127 l3 -109 -37 -51 c-20 -28 -44
-65 -53 -83 -21 -41 -21 -106 0 -123 8 -8 36 -41 62 -74 l47 -61 -3 -120 c-2
-65 -8 -127 -13 -137 -13 -25 -75 -23 -141 3 -29 12 -79 27 -110 35 -32 8 -76
27 -98 43 -23 16 -54 32 -69 36 -40 9 -164 117 -203 177 -18 28 -41 63 -51 77
-15 22 -17 43 -15 136 3 109 3 111 38 154 80 101 163 168 228 186 26 6 64 24
85 38 21 14 59 29 85 32 26 3 70 10 97 14 75 13 77 12 113 -9z m376 -1956 c34
-14 87 -34 120 -44 32 -11 68 -28 80 -38 11 -11 41 -30 66 -43 70 -37 133
-112 170 -204 41 -103 41 -136 -2 -227 -27 -58 -49 -86 -100 -131 -36 -31 -86
-66 -112 -78 -26 -11 -63 -31 -83 -45 -19 -13 -51 -26 -72 -30 -20 -3 -63 -14
-96 -24 -33 -10 -85 -22 -115 -26 -30 -3 -66 -11 -80 -16 -62 -24 -206 -5
-392 53 -80 24 -109 39 -157 79 -70 58 -89 83 -97 126 -13 70 47 179 120 218
20 11 36 23 36 27 0 18 62 40 103 37 63 -5 62 -31 -2 -88 -39 -34 -53 -56 -63
-92 -12 -46 -11 -47 32 -114 50 -75 72 -89 204 -123 100 -26 161 -26 239 -1
34 11 81 25 105 31 64 15 167 115 187 182 8 28 15 65 15 82 0 52 -29 131 -58
162 -61 61 -131 112 -168 122 -65 18 -74 29 -85 110 -9 73 -2 104 25 124 19
13 116 -2 180 -29z m-347 -320 c8 -23 -14 -33 -50 -23 -38 11 -45 18 -27 29
24 15 70 12 77 -6z m237 -75 c31 -25 56 -69 56 -101 0 -38 -36 -86 -82 -109
-59 -30 -165 -59 -216 -59 -49 0 -169 50 -178 74 -13 33 5 64 49 85 54 26 97
27 144 1 75 -40 123 -17 123 59 0 26 5 52 12 59 18 18 62 14 92 -9z"/>
</g>
</svg>
