<?xml version="1.0" standalone="no"?>
<!DOCTYPE svg PUBLIC "-//W3C//DTD SVG 20010904//EN"
 "http://www.w3.org/TR/2001/REC-SVG-20010904/DTD/svg10.dtd">
<svg version="1.0" xmlns="http://www.w3.org/2000/svg"
 width="408.000000pt" height="560.000000pt" viewBox="0 0 408.000000 560.000000"
 preserveAspectRatio="xMidYMid meet">
<metadata>
Created by potrace 1.16, written by Peter Selinger 2001-2019
</metadata>
<rect x="0" y="0" width="408" height="560" fill="#ffffff"/>
<g transform="translate(0.000000,560.000000) scale(0.100000,-0.100000)"
fill="#000000" stroke="none">
<path d="M2020 5584 c0 -9 -21 -37 -46 -62 l-46 -45 6 -58 c3 -32 13 -75 22
-97 35 -88 0 -131 -112 -137 -38 -2 -87 -11 -109 -19 -22 -8 -56 -15 -75 -16
-19 0 -50 -4 -69 -10 -18 -5 -67 -14 -107 -20 -41 -5 -101 -21 -133 -35 -32
-13 -92 -32 -132 -41 -41 -9 -102 -32 -137 -50 -35 -19 -72 -34 -82 -34 -10 0
-40 -15 -66 -33 -27 -19 -71 -41 -98 -50 -27 -9 -58 -25 -69 -34 -10 -10 -38
-29 -62 -43 -23 -14 -64 -40 -91 -59 -71 -50 -350 -333 -373 -379 -11 -21 -27
-44 -36 -52 -20 -17 -111 -208 -120 -252 -27 -135 -39 -175 -61 -195 -22 -20
-24 -30 -24 -111 0 -66 4 -93 14 -102 16 -12 61 -140 72 -203 3 -21 16 -52 28
-70 12 -18 32 -49 44 -71 41 -70 219 -266 242 -266 5 0 32 -19 59 -42 62 -54
103 -82 161 -109 25 -12 61 -34 80 -49 19 -14 56 -34 81 -43 25 -10 61 -29 79
-42 19 -14 41 -25 50 -25 9 0 52 -18 96 -39 43 -22 97 -42 119 -46 22 -4 67
-22 100 -40 33 -18 76 -36 96 -39 19 -3 51 -18 70 -32 19 -14 53 -34 75 -44
23 -10 51 -32 64 -49 12 -18 43 -43 68 -57 26 -13 61 -35 79 -48 18 -13 50
-26 72 -30 22 -3 53 -17 70 -31 19 -17 50 -29 88 -35 80 -13 93 -31 93 -131 0
-109 0 -109 -206 -109 -152 0 -169 -2 -290 -34 -211 -56 -235 -64 -253 -80 -9
-8 -42 -26 -73 -40 -31 -14 -71 -38 -90 -54 -18 -15 -47 -38 -65 -50 -17 -12
-42 -39 -54 -60 -13 -20 -36 -53 -51 -72 -18 -23 -32 -58 -39 -95 -15 -81 -5
-226 18 -270 39 -72 93 -144 133 -176 23 -19 59 -48 79 -65 20 -17 51 -36 70
-43 19 -6 55 -25 81 -41 26 -16 69 -34 96 -39 27 -5 78 -23 114 -40 72 -33
193 -51 345 -51 174 0 190 -24 182 -271 -5 -153 -7 -171 -31 -217 -32 -64 -37
-160 -8 -184 64 -57 144 -63 196 -17 47 40 54 81 28 156 -46 135 -56 426 -16
493 20 35 20 35 115 42 108 8 175 23 239 51 25 11 74 26 110 34 35 7 85 27
110 43 25 16 66 36 90 45 25 9 56 26 70 39 14 13 41 32 60 41 71 36 197 153
227 210 8 17 31 53 50 81 25 37 37 68 43 115 13 85 12 177 -1 237 -13 62 -89
157 -186 234 -113 90 -346 202 -507 244 -49 13 -112 32 -140 43 -28 12 -93 27
-143 35 -100 14 -123 26 -123 61 0 42 7 45 254 84 97 16 126 25 160 49 22 16
52 33 66 37 34 10 112 87 161 157 37 55 39 62 39 134 0 68 -3 82 -31 128 -18
28 -61 78 -97 111 -43 40 -64 66 -60 76 5 12 40 18 149 28 88 8 189 25 259 43
63 17 144 37 180 44 36 8 81 23 100 33 19 10 64 27 100 39 71 24 229 105 300
155 109 78 200 190 241 301 15 41 30 63 50 75 l29 16 0 238 c0 192 -3 237 -13
237 -23 0 -46 33 -67 96 -11 32 -39 86 -62 119 -49 72 -229 258 -278 287 -19
12 -46 31 -60 44 -14 13 -43 30 -64 39 -22 9 -54 27 -70 40 -17 13 -57 33 -88
45 -31 11 -67 29 -80 39 -29 23 -45 28 -129 45 -37 8 -88 26 -112 40 -29 17
-65 28 -108 32 -35 3 -95 14 -134 24 -86 23 -195 42 -255 46 -25 2 -121 7
-213 11 -180 9 -187 11 -187 63 0 14 9 51 20 83 29 82 26 114 -15 171 -19 27
-35 58 -35 68 0 15 -8 18 -55 18 -44 0 -55 -3 -55 -16z m443 -729 c32 -8 80
-15 107 -15 27 0 60 -4 74 -10 13 -5 86 -16 160 -25 83 -9 162 -25 204 -40 37
-13 101 -31 142 -40 41 -9 97 -27 124 -41 28 -15 71 -33 97 -40 27 -8 61 -26
77 -39 16 -14 49 -33 73 -43 25 -11 51 -27 59 -37 8 -10 27 -26 42 -35 35 -21
124 -106 165 -157 55 -69 111 -187 124 -259 17 -101 8 -175 -37 -279 -52 -121
-129 -213 -259 -311 -90 -68 -394 -184 -531 -204 -40 -5 -83 -14 -98 -19 -107
-41 -733 -71 -815 -39 -14 5 -99 25 -188 43 -91 18 -177 42 -195 53 -18 11
-60 27 -93 37 -34 9 -73 29 -90 45 -16 15 -44 35 -61 44 -18 8 -64 50 -103 93
-64 70 -74 87 -97 161 l-25 83 26 77 c22 67 34 86 93 144 48 49 80 72 114 84
26 8 50 20 54 25 12 21 66 39 157 53 53 9 114 23 136 32 47 19 76 8 92 -34 14
-37 1 -284 -18 -348 -19 -62 -12 -96 27 -135 32 -32 64 -36 147 -19 26 6 134
15 238 20 275 15 325 21 590 76 46 9 99 28 125 44 25 15 55 31 67 34 32 10
101 92 113 135 15 53 12 135 -6 180 -22 56 -127 146 -198 171 -30 10 -74 30
-98 43 -27 16 -79 31 -139 41 -53 8 -132 27 -175 41 -72 24 -98 27 -292 32
-276 8 -258 -4 -254 174 6 202 19 219 182 219 62 0 130 -6 163 -15z m-477 -41
c20 -48 20 -297 -1 -317 -8 -8 -58 -23 -112 -32 -54 -9 -132 -27 -173 -40 -41
-13 -97 -28 -125 -35 -27 -6 -57 -18 -65 -25 -9 -8 -38 -24 -65 -36 -77 -34
-220 -162 -254 -227 -7 -15 -22 -37 -33 -49 -28 -30 -47 -130 -48 -244 0 -125
14 -194 48 -244 16 -22 34 -54 41 -72 11 -28 45 -63 163 -169 15 -14 44 -32
65 -40 20 -9 51 -26 68 -39 17 -13 67 -37 112 -53 104 -36 133 -56 133 -87 0
-29 -27 -49 -90 -65 -60 -16 -182 -133 -219 -210 -36 -76 -56 -82 -168 -46
-49 16 -101 39 -118 51 -16 12 -57 30 -90 39 -33 10 -73 30 -90 46 -16 15 -48
33 -70 40 -22 7 -51 23 -65 35 -14 13 -44 32 -67 44 -23 11 -44 25 -48 31 -3
6 -30 25 -58 44 -77 50 -235 202 -259 250 -11 22 -31 53 -43 68 -13 15 -35 63
-50 107 -23 71 -26 91 -22 188 4 119 39 257 75 296 11 12 30 42 42 67 13 24
37 62 54 83 61 77 272 279 309 298 21 11 58 35 83 54 25 19 51 35 58 35 6 0
36 16 65 34 30 19 77 40 105 46 28 6 68 22 89 36 23 15 76 33 130 45 51 11
117 30 147 43 30 14 86 27 125 31 60 5 156 21 330 53 56 11 75 4 91 -34z m404
-604 c19 -5 72 -10 117 -10 45 0 94 -5 110 -11 15 -6 101 -17 190 -24 118 -10
170 -19 193 -32 18 -10 45 -25 61 -34 47 -27 59 -40 59 -68 0 -55 -47 -93
-170 -136 -104 -36 -147 -45 -285 -57 -206 -19 -474 -9 -496 18 -15 18 -34
250 -25 298 4 20 16 46 28 58 19 19 28 20 102 14 44 -3 97 -10 116 -16z m8
-1169 c62 -7 92 -16 115 -34 18 -13 57 -35 88 -49 82 -37 137 -118 123 -181
-3 -17 -28 -50 -58 -78 -45 -43 -65 -54 -173 -89 -89 -29 -139 -40 -183 -40
-69 0 -87 7 -148 61 -59 51 -86 56 -153 24 -87 -40 -135 -32 -207 38 -53 50
-65 78 -56 125 9 45 81 125 138 152 23 11 56 29 74 41 67 43 233 55 440 30z
m-828 -281 c0 -5 -4 -10 -10 -10 -5 0 -10 5 -10 10 0 6 5 10 10 10 6 0 10 -4
10 -10z m122 -229 c20 -39 29 -46 78 -55 19 -3 54 -21 76 -39 23 -17 50 -37
60 -43 24 -14 11 -44 -19 -44 -14 0 -32 11 -44 29 -18 23 -31 29 -73 33 -36 4
-58 12 -73 27 -12 13 -40 33 -62 45 -62 34 -56 90 9 84 24 -2 35 -11 48 -37z
m594 -387 c44 -9 93 -24 110 -35 17 -10 61 -26 99 -34 37 -9 86 -25 109 -37
22 -11 64 -29 93 -39 30 -10 66 -27 81 -37 15 -11 43 -27 64 -35 68 -28 182
-117 230 -179 53 -68 62 -99 56 -192 -3 -56 -9 -71 -51 -132 -43 -61 -127
-144 -147 -144 -14 0 -40 30 -40 45 0 8 7 30 17 49 15 33 15 40 -6 129 -20 85
-28 101 -77 160 -63 76 -171 164 -229 186 -22 9 -57 26 -77 39 -29 18 -216 77
-315 99 -62 14 -91 116 -43 155 27 22 28 22 126 2z m-321 -244 c27 -10 27 -11
23 -91 -3 -74 -6 -83 -31 -105 -15 -13 -46 -28 -70 -35 -23 -6 -67 -20 -97
-30 -30 -11 -77 -27 -104 -35 -77 -24 -218 -151 -243 -217 -7 -18 -12 -83 -12
-145 -1 -111 -10 -152 -34 -152 -28 0 -146 53 -167 75 -13 14 -30 25 -38 25
-7 0 -43 30 -80 66 -73 73 -86 110 -75 213 5 45 14 63 55 113 67 80 169 162
221 177 23 7 65 26 93 41 33 19 85 35 143 45 50 9 103 20 117 25 14 6 44 10
67 11 23 1 71 7 107 14 87 16 94 17 125 5z m370 -61 c67 -14 111 -29 132 -45
18 -14 50 -31 72 -39 71 -25 202 -134 236 -196 8 -14 21 -56 30 -92 16 -63 16
-66 -3 -111 -32 -72 -70 -62 -86 23 -7 37 -71 114 -120 145 -17 10 -47 30 -68
43 -20 14 -62 31 -94 40 -32 8 -74 23 -94 33 -19 9 -60 21 -91 24 -78 10 -94
29 -94 113 0 53 4 67 20 79 11 8 29 12 40 9 11 -3 65 -15 120 -26z m14 -451
c135 -40 148 -46 199 -93 30 -27 61 -64 68 -82 21 -50 4 -73 -91 -122 -78 -41
-88 -43 -187 -48 l-105 -6 -40 36 c-94 85 -180 77 -273 -26 -36 -40 -52 -50
-75 -49 -53 1 -141 50 -184 101 -71 84 -65 126 25 201 37 30 74 50 115 62 33
9 80 26 104 38 43 21 46 21 102 5 55 -15 61 -15 113 4 30 11 62 20 70 21 8 0
80 -19 159 -42z"/>
</g>
</svg>
