<?xml version="1.0" standalone="no"?>
<!DOCTYPE svg PUBLIC "-//W3C//DTD SVG 20010904//EN"
 "http://www.w3.org/TR/2001/REC-SVG-20010904/DTD/svg10.dtd">
<svg version="1.0" xmlns="http://www.w3.org/2000/svg"
 width="416.000000pt" height="416.000000pt" viewBox="0 0 416.000000 416.000000"
 preserveAspectRatio="xMidYMid meet">
<metadata>
Created by potrace 1.16, written by Peter Selinger 2001-2019
</metadata>
<rect x="0" y="0" width="416" height="416" fill="#ffffff"/>
<g transform="translate(0.000000,416.000000) scale(0.100000,-0.100000)"
fill="#000000" stroke="none">
<path d="M1942 4131 c-6 -16 -19 -34 -29 -39 -10 -5 -70 -13 -133 -17 -63 -4
-137 -14 -165 -21 -99 -27 -182 -46 -261 -59 -44 -7 -103 -24 -130 -38 -27
-13 -76 -30 -109 -37 -33 -6 -76 -23 -97 -37 -20 -13 -58 -31 -85 -39 -26 -8
-66 -27 -88 -43 -22 -15 -58 -34 -80 -41 -22 -7 -60 -28 -84 -47 -24 -18 -47
-33 -52 -33 -4 0 -29 -18 -54 -40 -25 -22 -50 -40 -54 -40 -12 0 -270 -263
-290 -296 -11 -18 -24 -35 -30 -38 -17 -11 -118 -228 -125 -268 -5 -27 -17
-46 -41 -65 l-35 -28 0 -238 0 -239 28 -26 c16 -15 39 -54 51 -87 12 -33 29
-67 37 -76 9 -10 27 -35 42 -57 75 -111 133 -169 264 -262 31 -22 60 -44 63
-50 4 -6 25 -20 48 -32 23 -11 54 -31 69 -43 15 -13 49 -31 77 -40 27 -8 56
-24 66 -35 10 -11 40 -27 69 -36 28 -9 69 -29 91 -45 22 -15 65 -32 95 -39 30
-6 74 -22 99 -36 24 -13 80 -34 125 -45 44 -11 98 -31 120 -44 23 -13 73 -28
111 -34 39 -6 105 -24 149 -41 43 -17 123 -37 178 -45 106 -16 170 -42 189
-76 14 -26 13 -431 -1 -480 -6 -19 -10 -145 -10 -280 0 -194 -3 -256 -15 -289
-22 -62 -19 -88 17 -162 l33 -67 48 0 c42 -1 49 2 57 24 11 29 51 49 120 60
25 4 78 25 118 46 41 22 79 39 85 39 7 0 34 16 61 35 27 19 54 35 59 35 10 0
101 65 186 132 29 24 63 59 76 78 12 19 30 41 39 49 9 8 34 52 56 99 38 82 40
89 40 187 0 100 -1 105 -39 182 -32 62 -58 95 -124 158 -91 87 -161 145 -174
145 -5 0 -31 15 -59 32 -27 18 -76 42 -109 54 -33 12 -88 34 -123 48 -35 15
-91 32 -125 37 -73 12 -84 20 -97 69 -12 44 -12 450 -1 469 7 10 92 14 387 16
398 3 476 10 634 54 41 12 109 26 150 32 44 6 92 20 115 34 23 13 70 31 105
40 36 9 85 29 110 45 25 15 62 33 82 40 85 26 298 227 329 308 6 15 23 47 39
72 16 25 32 65 36 90 3 25 15 78 25 119 24 94 24 141 0 244 -11 45 -24 105
-30 134 -5 28 -24 73 -41 99 -16 26 -30 54 -30 60 0 26 -158 206 -230 262 -97
75 -192 142 -203 142 -6 0 -25 12 -44 26 -18 14 -55 33 -81 41 -26 9 -65 29
-87 44 -22 16 -65 34 -95 40 -30 6 -85 24 -121 40 -37 16 -98 33 -135 39 -38
5 -107 21 -153 35 -47 14 -105 25 -130 25 -25 0 -64 5 -86 10 -22 5 -133 11
-246 14 -114 3 -214 9 -223 12 -9 4 -23 19 -32 35 -14 28 -16 29 -98 29 -84 0
-84 0 -94 -29z m628 -369 c167 -14 202 -20 290 -48 41 -13 111 -30 154 -39 44
-8 101 -26 127 -39 26 -14 69 -31 96 -37 26 -6 62 -22 79 -35 17 -13 54 -32
82 -42 28 -11 68 -34 89 -51 21 -17 43 -31 50 -31 22 0 210 -195 232 -241 11
-24 30 -58 41 -74 11 -17 25 -68 32 -115 28 -179 -21 -319 -158 -455 -88 -87
-152 -132 -219 -155 -29 -10 -70 -30 -91 -44 -22 -14 -70 -32 -108 -41 -38 -9
-90 -27 -116 -40 -29 -15 -81 -28 -134 -35 -47 -6 -97 -15 -110 -20 -13 -5
-53 -12 -88 -16 -34 -4 -79 -14 -98 -22 -27 -11 -95 -15 -317 -16 -246 -1
-284 1 -298 15 -35 35 -26 228 11 256 11 8 41 10 93 7 93 -7 330 34 371 65 15
10 48 30 75 44 104 53 174 163 183 287 4 59 0 77 -28 148 -27 69 -40 88 -94
135 -34 30 -86 67 -116 82 -30 15 -67 36 -82 47 -15 10 -62 25 -104 33 -42 8
-80 17 -84 20 -4 3 -43 12 -86 20 -121 23 -152 68 -120 175 9 30 16 67 16 83
0 59 23 160 40 177 15 15 34 17 141 15 68 -2 180 -8 249 -13z m-675 -16 c13
-9 21 -34 27 -82 14 -112 28 -207 34 -242 9 -47 -23 -78 -95 -92 -159 -32
-305 -72 -330 -89 -15 -11 -51 -29 -79 -39 -106 -41 -221 -159 -281 -290 -69
-151 -68 -274 6 -419 28 -57 57 -92 134 -165 130 -125 158 -145 224 -168 30
-10 68 -28 83 -38 15 -11 83 -34 151 -51 130 -34 195 -60 204 -85 4 -9 7 -110
8 -226 1 -162 -2 -214 -12 -226 -20 -25 -118 -12 -208 26 -40 17 -98 35 -127
40 -30 5 -89 24 -132 43 -42 19 -95 38 -117 42 -22 4 -62 19 -90 35 -27 15
-74 35 -104 44 -30 9 -72 26 -95 40 -23 13 -64 31 -93 40 -28 9 -57 24 -64 32
-7 9 -36 27 -63 41 -28 14 -60 33 -71 44 -11 10 -37 25 -57 34 -21 8 -52 28
-70 43 -18 15 -45 35 -59 44 -44 28 -200 181 -217 213 -8 17 -27 46 -42 65
-66 84 -100 299 -66 402 8 24 20 64 25 89 11 49 28 77 155 265 38 56 206 216
262 250 20 12 47 33 62 47 15 13 44 30 64 36 20 7 42 19 49 27 15 19 74 49
111 58 15 3 43 17 63 30 19 13 58 30 87 36 28 7 79 25 113 41 35 15 105 35
156 43 52 9 119 23 149 32 138 41 272 55 305 30z m400 -570 c28 -7 70 -21 95
-30 25 -9 63 -21 85 -26 22 -5 68 -31 103 -56 111 -83 160 -201 118 -282 -30
-56 -119 -130 -195 -162 -127 -54 -212 -71 -294 -60 -72 11 -97 22 -97 46 0
23 31 31 140 37 l105 6 57 63 c32 35 61 73 64 86 12 43 -5 87 -55 139 -66 69
-118 94 -215 104 -51 5 -85 14 -97 25 -24 21 -26 86 -3 108 20 20 120 21 189
2z m-340 -21 c29 -28 34 -85 9 -106 -9 -7 -53 -34 -97 -59 -66 -36 -87 -54
-112 -94 -26 -44 -30 -58 -30 -125 0 -61 5 -87 26 -132 27 -58 38 -67 161
-134 73 -39 78 -52 69 -173 -4 -57 -13 -108 -19 -114 -8 -8 -28 -8 -74 1 -35
7 -84 17 -111 22 -26 5 -64 20 -85 34 -20 13 -59 31 -85 39 -78 23 -207 137
-278 245 -48 74 -49 76 -49 155 0 76 2 83 42 150 38 64 139 176 159 176 4 0
28 15 52 34 28 21 73 42 118 55 41 11 92 27 114 35 22 8 68 15 103 15 54 1 66
-2 87 -24z m279 -239 c57 -17 116 -60 116 -85 0 -19 -41 -61 -77 -80 -50 -26
-123 -1 -160 55 -22 34 -23 101 -3 114 22 14 70 12 124 -4z m-267 -38 c6 -7
13 -56 17 -109 6 -82 5 -99 -9 -113 -27 -27 -64 -20 -101 20 -29 30 -34 42
-34 85 0 61 11 84 53 109 37 23 60 25 74 8z m259 -1633 c30 -13 86 -34 124
-45 37 -11 79 -29 93 -40 14 -11 43 -28 63 -36 86 -36 205 -153 250 -247 43
-88 41 -121 -12 -222 -45 -84 -101 -151 -153 -182 -22 -13 -41 -30 -45 -38 -3
-9 -27 -25 -53 -37 -27 -11 -57 -29 -68 -39 -12 -10 -45 -27 -75 -37 -30 -11
-73 -31 -94 -46 -45 -30 -106 -35 -127 -9 -16 18 -16 31 -24 584 -5 347 -4
388 10 403 22 22 45 20 111 -9z"/>
</g>
</svg>
