<?xml version="1.0" standalone="no"?>
<!DOCTYPE svg PUBLIC "-//W3C//DTD SVG 20010904//EN"
 "http://www.w3.org/TR/2001/REC-SVG-20010904/DTD/svg10.dtd">
<svg version="1.0" xmlns="http://www.w3.org/2000/svg"
 width="416.000000pt" height="592.000000pt" viewBox="0 0 416.000000 592.000000"
 preserveAspectRatio="xMidYMid meet">
<metadata>
Created by potrace 1.16, written by Peter Selinger 2001-2019
</metadata>
<rect x="0" y="0" width="416" height="592" fill="#ffffff"/>
<g transform="translate(0.000000,592.000000) scale(0.100000,-0.100000)"
fill="#000000" stroke="none">
<path d="M1970 5896 c-14 -37 -47 -53 -125 -60 -122 -12 -218 -27 -290 -46
-38 -11 -101 -24 -140 -30 -38 -6 -97 -23 -130 -36 -33 -14 -92 -34 -131 -43
-38 -10 -88 -27 -110 -39 -21 -12 -66 -31 -98 -42 -33 -11 -73 -31 -90 -43
-17 -13 -48 -30 -69 -36 -21 -7 -50 -23 -65 -35 -15 -13 -43 -31 -62 -41 -19
-10 -52 -33 -73 -51 -20 -19 -42 -34 -49 -34 -17 0 -275 -266 -294 -303 -9
-18 -29 -48 -44 -67 -15 -19 -37 -53 -48 -75 -11 -22 -32 -62 -46 -89 -14 -27
-26 -60 -26 -72 0 -40 -30 -100 -56 -114 l-24 -13 0 -208 0 -207 25 -16 c30
-19 43 -43 59 -105 20 -79 64 -139 202 -276 148 -148 208 -200 257 -220 19 -8
48 -26 65 -40 17 -14 45 -31 64 -37 18 -6 48 -22 66 -35 18 -13 54 -32 80 -40
26 -9 65 -28 87 -44 22 -15 64 -32 94 -38 30 -7 78 -25 107 -42 29 -16 81 -35
116 -41 35 -5 86 -23 113 -38 28 -15 82 -33 120 -40 39 -6 102 -24 142 -40 39
-16 107 -34 150 -40 43 -5 112 -23 153 -38 95 -35 108 -56 90 -144 -6 -32 -10
-104 -8 -160 l3 -101 -29 -21 c-16 -12 -47 -36 -70 -55 -22 -18 -52 -37 -65
-43 -13 -5 -41 -22 -60 -39 -20 -17 -56 -44 -80 -62 -47 -34 -133 -135 -152
-177 -17 -39 -23 -189 -9 -239 15 -56 121 -170 183 -197 23 -10 61 -31 85 -47
25 -16 67 -32 103 -39 36 -6 71 -20 87 -33 26 -22 27 -27 33 -166 4 -91 2
-152 -4 -167 -14 -29 -44 -36 -114 -26 -32 5 -103 6 -158 2 -55 -4 -158 -11
-230 -16 -99 -7 -142 -15 -180 -32 -27 -12 -79 -29 -114 -36 -35 -8 -89 -30
-120 -49 -31 -19 -62 -35 -69 -35 -12 0 -112 -96 -178 -172 -19 -22 -37 -57
-44 -89 -7 -30 -19 -68 -27 -86 -19 -46 -17 -78 13 -195 17 -70 33 -111 50
-128 13 -14 32 -43 42 -64 22 -44 93 -104 176 -146 33 -16 66 -36 75 -44 15
-14 162 -68 276 -102 34 -10 116 -17 260 -20 l210 -5 102 -52 101 -52 44 22
c23 13 59 36 78 53 20 17 60 36 93 45 32 8 76 24 98 35 22 12 76 30 119 41 44
11 95 28 113 39 18 11 59 29 90 39 31 11 72 31 89 44 18 14 49 30 69 36 20 6
54 26 75 44 21 18 56 45 76 60 32 23 135 140 160 181 4 6 28 56 53 112 l47
101 -4 129 -3 129 -49 80 c-88 143 -195 234 -411 348 -118 62 -408 172 -484
182 -106 14 -109 48 -8 103 41 22 91 45 113 52 21 7 59 28 83 47 24 18 49 33
56 33 20 0 142 103 219 186 172 183 211 381 111 554 -44 74 -141 180 -200 217
-22 14 -51 36 -65 48 -14 13 -36 26 -50 30 -14 4 -47 22 -75 40 -27 18 -66 36
-85 40 -19 4 -70 22 -113 41 -43 19 -83 34 -90 34 -30 0 -90 23 -108 41 -18
18 -19 35 -19 258 0 179 3 241 13 249 7 6 166 12 412 15 344 5 415 8 505 25
58 11 123 27 146 35 22 8 74 20 115 26 41 7 98 24 129 40 30 15 77 33 105 40
27 7 74 28 105 47 30 19 63 34 72 34 35 0 266 210 295 269 10 20 30 56 45 81
14 25 36 90 48 145 17 75 28 106 46 122 21 20 24 30 24 101 0 69 -3 81 -21 93
-14 10 -29 45 -49 117 -32 111 -81 210 -144 286 -50 59 -199 207 -224 220 -9
5 -33 24 -53 41 -20 18 -54 38 -75 45 -22 7 -54 23 -72 37 -17 13 -56 32 -86
43 -29 10 -71 29 -92 43 -22 14 -66 33 -99 41 -33 8 -87 26 -121 40 -33 14
-101 32 -150 41 -49 9 -123 23 -164 31 -156 31 -191 34 -410 45 -207 10 -227
12 -247 31 -13 12 -23 27 -23 35 0 10 -19 13 -75 13 -71 0 -76 -2 -85 -24z
m490 -372 c142 -5 320 -31 410 -59 25 -8 76 -19 113 -25 38 -6 97 -24 132 -39
35 -16 87 -34 116 -40 29 -7 67 -23 85 -36 17 -13 55 -33 84 -44 29 -11 62
-29 74 -40 12 -10 37 -28 57 -39 47 -26 207 -179 227 -217 8 -16 28 -46 43
-65 34 -42 59 -150 58 -248 0 -86 -26 -184 -64 -246 -39 -64 -141 -172 -185
-197 -19 -11 -50 -31 -69 -45 -19 -13 -46 -27 -60 -30 -14 -4 -43 -18 -64 -32
-21 -14 -68 -33 -105 -43 -37 -10 -94 -29 -128 -43 -33 -14 -108 -32 -165 -41
-57 -8 -135 -24 -172 -36 -91 -27 -230 -38 -475 -39 -276 0 -279 2 -270 174 5
105 7 106 148 106 149 0 306 34 382 83 111 73 131 92 179 177 44 76 49 92 49
146 0 87 -60 210 -137 279 -109 97 -299 171 -491 191 -35 4 -72 14 -84 24 -20
16 -21 19 -9 141 27 265 29 276 70 285 14 3 31 7 36 9 6 2 24 2 40 -1 17 -2
95 -7 175 -10z m-556 -20 c9 -8 16 -16 16 -17 0 -1 9 -54 20 -117 23 -130 26
-260 8 -278 -7 -7 -27 -12 -45 -12 -74 0 -308 -58 -378 -94 -39 -20 -75 -36
-81 -36 -6 0 -21 -12 -35 -26 -13 -14 -40 -34 -59 -44 -52 -27 -123 -116 -169
-212 -41 -84 -41 -87 -41 -198 0 -107 2 -116 35 -190 19 -43 35 -82 35 -87 0
-11 171 -182 196 -196 11 -6 33 -22 51 -38 17 -15 49 -33 70 -39 21 -7 68 -28
104 -46 37 -19 76 -34 87 -34 12 0 56 -11 99 -24 43 -14 96 -29 119 -35 28 -8
44 -19 52 -36 17 -37 16 -411 -1 -445 -19 -38 -61 -36 -199 10 -68 23 -143 45
-167 51 -25 5 -75 23 -111 39 -36 16 -88 34 -114 40 -26 6 -73 24 -104 40 -32
16 -77 34 -102 40 -25 6 -65 24 -90 40 -25 15 -68 35 -97 44 -28 10 -57 24
-64 32 -7 9 -36 27 -63 41 -28 14 -60 33 -71 44 -11 10 -37 25 -57 33 -20 9
-57 34 -83 56 -25 22 -50 40 -54 40 -18 0 -182 174 -226 240 -53 80 -98 207
-99 280 -1 69 41 251 64 280 12 14 32 50 46 80 14 30 39 69 55 87 16 19 29 37
29 42 0 4 50 58 111 120 113 114 180 167 280 220 30 16 61 36 68 45 7 8 36 22
64 32 29 9 72 29 97 44 25 16 74 34 110 41 36 6 91 25 122 41 36 17 87 32 135
39 43 5 105 19 138 29 33 10 93 23 133 29 41 5 77 12 80 15 12 12 71 5 86 -10z
m65 -590 c44 -56 21 -100 -85 -165 -86 -52 -111 -77 -144 -151 -28 -61 -25
-105 11 -176 33 -67 119 -145 194 -176 21 -9 43 -22 47 -29 11 -18 10 -166 -2
-209 -14 -50 -40 -64 -80 -43 -16 8 -64 22 -106 30 -41 8 -90 23 -107 34 -18
11 -57 29 -86 41 -78 30 -223 156 -257 222 -9 18 -26 45 -36 59 -13 18 -21 49
-24 100 -5 71 -4 77 34 154 44 89 131 182 192 205 19 8 49 24 65 36 17 12 67
32 112 43 46 11 95 27 110 35 16 8 54 15 85 16 49 0 59 -3 77 -26z m416 -7
c44 -14 91 -28 105 -31 36 -8 132 -83 185 -144 44 -52 45 -56 45 -121 0 -72
-7 -89 -69 -154 -40 -43 -98 -76 -200 -112 -58 -21 -86 -25 -184 -25 -135 0
-167 9 -167 45 0 30 -9 28 115 30 127 2 162 14 219 75 42 45 46 53 46 100 0
62 -16 95 -71 144 -53 49 -106 72 -194 86 -80 12 -110 36 -100 79 11 49 42 64
120 58 39 -3 106 -17 150 -30z m-98 -256 c35 -17 64 -38 67 -49 16 -50 -45
-102 -119 -102 -94 0 -169 106 -115 160 30 30 92 26 167 -9z m-314 -25 c19
-19 21 -197 3 -222 -16 -21 -46 -12 -91 28 -62 54 -56 136 14 184 41 28 54 30
74 10z m255 -1630 c26 -13 74 -29 106 -35 34 -6 73 -22 92 -36 19 -14 52 -32
74 -40 65 -23 184 -128 254 -224 33 -45 41 -64 44 -112 4 -53 1 -64 -39 -136
-55 -96 -195 -237 -263 -263 -15 -5 -42 -21 -60 -35 -18 -14 -56 -32 -83 -40
-28 -8 -56 -22 -64 -31 -37 -44 -118 -52 -139 -13 -15 27 -12 181 5 303 13 92
20 113 50 157 19 28 35 63 35 78 0 31 -25 71 -44 71 -21 0 -65 39 -83 73 -12
24 -15 57 -14 144 1 62 6 124 11 138 13 33 54 33 118 1z m-258 -641 c22 -26
25 -136 5 -195 -12 -37 -16 -70 -12 -112 7 -78 -7 -126 -39 -134 -35 -9 -89 3
-108 25 -9 10 -39 33 -66 52 -67 46 -84 79 -78 158 4 59 7 65 49 102 44 40
189 118 220 119 9 0 22 -7 29 -15z m359 -714 c42 -15 123 -44 181 -63 204 -68
262 -96 405 -195 117 -81 171 -137 211 -222 33 -67 37 -84 36 -144 -3 -122
-78 -277 -176 -363 -80 -70 -86 -62 -71 81 7 62 4 80 -20 154 -22 67 -39 96
-81 143 -29 33 -71 72 -93 88 -21 16 -42 34 -46 40 -4 6 -32 24 -63 39 -32 16
-75 38 -97 49 -40 20 -123 46 -261 82 -133 34 -138 40 -139 183 -1 62 3 120 8
130 21 44 83 44 206 -2z m-339 -441 c19 -19 20 -34 21 -317 2 -440 2 -451 -18
-492 l-18 -36 -95 3 c-52 2 -113 10 -135 17 -22 8 -78 19 -125 25 -54 7 -103
20 -134 37 -28 14 -72 32 -100 40 -27 8 -64 25 -80 38 -17 12 -44 30 -61 38
-51 26 -123 100 -144 147 -28 61 -26 103 6 161 28 52 135 154 193 184 19 10
49 28 65 40 17 12 48 28 70 35 22 7 66 26 98 42 43 21 84 32 150 39 51 6 94
13 96 15 2 2 46 4 98 4 80 0 96 -3 113 -20z m329 -40 c42 -16 95 -34 118 -40
23 -6 55 -21 70 -34 15 -13 43 -31 60 -40 18 -9 59 -43 92 -76 47 -47 63 -72
81 -125 l22 -65 -22 -65 c-19 -57 -31 -73 -102 -140 -55 -51 -98 -81 -132 -94
-29 -11 -71 -29 -93 -41 -46 -24 -196 -53 -225 -44 -37 11 -51 49 -44 117 4
39 1 93 -8 147 -9 51 -16 168 -17 294 -3 195 -2 209 16 222 31 23 102 17 184
-16z"/>
</g>
</svg>
