<?xml version="1.0" standalone="no"?>
<!DOCTYPE svg PUBLIC "-//W3C//DTD SVG 20010904//EN"
 "http://www.w3.org/TR/2001/REC-SVG-20010904/DTD/svg10.dtd">
<svg version="1.0" xmlns="http://www.w3.org/2000/svg"
 width="408.000000pt" height="656.000000pt" viewBox="0 0 408.000000 656.000000"
 preserveAspectRatio="xMidYMid meet">
<metadata>
Created by potrace 1.16, written by Peter Selinger 2001-2019
</metadata>
<rect x="0" y="0" width="408" height="656" fill="#ffffff"/>
<g transform="translate(0.000000,656.000000) scale(0.100000,-0.100000)"
fill="#000000" stroke="none">
<path d="M1991 6480 c-18 -4 -45 -17 -60 -29 -14 -11 -44 -31 -66 -42 -22 -12
-57 -37 -78 -55 -20 -19 -42 -34 -48 -34 -15 0 -108 -95 -151 -154 -67 -91
-81 -130 -82 -230 -1 -111 4 -132 50 -187 54 -67 207 -169 254 -169 30 0 111
-65 130 -106 28 -57 29 -201 1 -235 -19 -24 -23 -24 -243 -30 -249 -7 -333
-18 -419 -54 -32 -14 -81 -30 -109 -36 -28 -6 -63 -21 -78 -33 -15 -13 -43
-31 -62 -41 -57 -29 -130 -97 -156 -145 -13 -25 -33 -56 -44 -70 -31 -39 -47
-184 -32 -295 10 -76 17 -94 56 -153 56 -84 167 -193 226 -222 25 -13 57 -33
72 -45 15 -13 60 -33 100 -45 126 -38 194 -84 169 -114 -11 -13 -84 -29 -179
-40 -23 -2 -68 -17 -100 -34 -31 -16 -79 -34 -107 -41 -27 -7 -74 -28 -105
-47 -30 -19 -63 -34 -73 -34 -24 0 -68 -23 -91 -48 -10 -12 -31 -24 -48 -27
-16 -4 -44 -19 -61 -34 -18 -15 -49 -37 -71 -50 -99 -57 -287 -242 -350 -346
-10 -16 -29 -41 -42 -55 -13 -14 -30 -45 -38 -68 -9 -24 -24 -56 -35 -70 -11
-15 -29 -63 -42 -106 -14 -49 -33 -89 -51 -108 l-28 -30 0 -192 0 -192 29 -28
c19 -18 35 -49 46 -89 19 -69 80 -181 134 -242 70 -81 149 -161 192 -193 122
-91 168 -122 178 -122 5 0 26 -14 45 -30 18 -17 52 -36 74 -44 22 -8 59 -28
81 -44 23 -17 64 -35 92 -41 27 -6 71 -22 98 -36 56 -28 229 -90 311 -110 232
-58 384 -89 500 -101 165 -18 195 -30 209 -81 17 -59 14 -184 -5 -211 -14 -20
-23 -22 -107 -22 -138 0 -366 -66 -444 -128 -52 -41 -132 -124 -148 -152 -21
-39 -45 -143 -45 -191 1 -117 95 -285 185 -331 22 -11 50 -29 61 -40 12 -10
50 -30 85 -42 35 -13 88 -33 118 -45 75 -30 274 -44 449 -31 149 12 216 24
281 52 25 10 66 24 92 29 26 6 62 21 80 35 19 14 49 32 67 39 62 27 184 134
229 200 18 28 40 60 49 72 14 20 37 122 50 223 8 68 -36 229 -75 277 -17 21
-31 44 -31 51 0 17 -126 142 -143 142 -8 0 -31 15 -53 33 -21 18 -55 39 -74
47 -19 7 -54 24 -77 37 -46 27 -52 29 -249 82 -164 45 -184 54 -184 84 -3 185
0 477 6 490 3 9 16 19 28 22 11 2 167 6 346 8 321 4 327 5 470 36 80 18 170
36 200 41 79 12 110 20 153 42 21 10 71 27 112 37 40 10 88 30 107 44 18 13
57 32 85 42 29 9 55 21 59 26 3 5 29 24 57 43 110 71 277 277 277 343 0 23 39
92 60 105 19 12 20 24 20 176 l0 163 -34 30 c-26 22 -37 43 -46 82 -18 84 -83
181 -197 292 -118 116 -153 145 -208 173 -22 11 -48 29 -59 41 -10 11 -41 28
-69 37 -28 9 -69 29 -89 45 -21 15 -62 33 -91 39 -28 7 -77 25 -107 41 -31 16
-87 33 -130 40 -41 6 -106 23 -145 37 -47 16 -104 27 -172 32 -71 5 -111 13
-130 25 l-27 18 28 23 c14 13 51 31 80 39 68 20 172 72 243 122 103 72 240
220 273 296 11 24 29 56 41 70 26 35 42 144 37 254 -4 73 -8 88 -41 141 -20
33 -37 65 -37 71 0 18 -100 124 -154 163 -28 20 -71 48 -96 62 -25 13 -60 36
-79 50 -19 14 -42 26 -50 26 -9 0 -59 20 -111 45 -52 25 -103 45 -113 45 -10
0 -61 16 -114 36 -53 20 -130 42 -172 50 -42 8 -86 17 -98 20 -38 7 -57 58
-48 128 5 34 7 83 6 110 -1 27 5 84 13 125 39 203 46 244 52 351 5 91 3 122
-9 151 -27 65 -128 94 -236 69z m-101 -410 c14 -14 20 -34 20 -62 1 -24 5
-103 10 -176 10 -141 3 -182 -27 -182 -57 1 -227 120 -259 182 -8 15 -14 45
-14 68 0 36 7 48 52 96 56 60 76 73 123 85 52 12 74 10 95 -11z m401 -639 c42
-10 90 -27 106 -39 16 -11 52 -26 79 -33 27 -6 79 -27 115 -45 36 -19 70 -34
76 -34 5 0 30 -15 54 -33 24 -18 56 -38 71 -44 71 -31 240 -186 253 -233 4
-14 21 -47 37 -73 29 -45 30 -53 25 -120 -4 -68 -22 -117 -80 -223 -26 -46
-84 -121 -127 -162 -47 -45 -199 -152 -216 -152 -6 0 -31 -13 -57 -29 -25 -17
-65 -35 -89 -41 -24 -7 -88 -27 -144 -46 -175 -59 -214 -47 -239 76 -24 114
-6 155 71 166 60 9 192 54 205 71 7 8 33 25 59 38 84 43 162 212 146 319 -4
22 -27 75 -51 116 -25 41 -45 77 -45 80 0 16 -152 120 -190 130 -23 6 -75 26
-116 45 -90 41 -99 57 -89 165 7 80 25 120 53 120 9 -1 51 -9 93 -19z m-342
-392 c29 -10 36 -23 31 -59 -3 -27 -17 -32 -104 -41 -81 -8 -177 -39 -233 -75
-59 -37 -121 -185 -105 -248 10 -40 70 -121 119 -162 39 -33 69 -47 145 -69
53 -15 110 -36 127 -46 37 -22 49 -61 31 -103 -7 -17 -18 -53 -26 -80 -22 -79
-23 -79 -154 -73 -89 4 -132 11 -190 31 -41 15 -105 34 -141 42 -37 8 -87 28
-111 43 -25 16 -56 32 -69 36 -64 20 -214 167 -263 260 -45 85 -48 144 -11
199 14 20 33 52 42 71 22 41 97 108 138 122 17 6 47 21 67 35 20 14 65 31 100
37 35 7 90 23 124 36 102 41 412 69 483 44z m346 -79 c40 -18 79 -47 117 -87
90 -95 90 -142 3 -240 -42 -47 -74 -71 -130 -97 -81 -39 -112 -44 -122 -20 -4
11 5 25 26 41 35 28 81 120 81 162 0 15 -7 49 -16 75 -13 38 -26 53 -70 81
-45 29 -54 39 -54 64 0 39 34 64 75 55 17 -4 57 -19 90 -34z m-530 -275 c7
-27 17 -62 23 -76 13 -31 8 -39 -26 -39 -14 0 -38 14 -59 35 -30 30 -35 40
-29 67 8 41 34 70 60 66 15 -2 23 -16 31 -53z m205 -5 c0 -5 -7 -10 -15 -10
-8 0 -15 5 -15 10 0 6 7 10 15 10 8 0 15 -4 15 -10z m552 -864 c79 -15 296
-51 368 -60 25 -4 92 -22 150 -40 58 -19 121 -37 141 -40 21 -4 54 -18 75 -33
22 -14 59 -33 84 -41 25 -8 59 -25 75 -38 17 -12 49 -31 73 -42 79 -38 243
-186 274 -247 11 -22 31 -51 43 -65 27 -29 56 -101 85 -213 20 -75 20 -77 1
-134 -10 -32 -27 -87 -37 -122 -24 -84 -120 -211 -205 -272 -19 -13 -42 -32
-52 -42 -10 -10 -35 -26 -55 -34 -20 -8 -47 -24 -61 -34 -13 -10 -54 -28 -92
-39 -38 -12 -99 -34 -136 -49 -38 -16 -90 -32 -118 -36 -27 -3 -99 -20 -160
-36 -81 -21 -133 -29 -196 -29 -51 0 -104 -6 -129 -15 -33 -11 -91 -15 -251
-15 -226 0 -283 10 -298 54 -4 12 -3 100 2 196 4 96 12 298 15 448 l7 274 28
24 c15 13 40 24 55 24 53 0 237 -52 268 -75 16 -13 47 -30 68 -39 21 -9 65
-40 99 -70 57 -50 64 -61 90 -138 15 -45 27 -91 27 -101 0 -39 -61 -135 -124
-197 -46 -45 -70 -77 -77 -103 -12 -44 -3 -122 17 -154 31 -50 226 -73 277
-33 13 11 28 32 32 47 3 16 17 42 31 60 37 49 54 140 54 293 -1 162 -9 205
-58 283 -36 57 -136 165 -204 219 -88 69 -292 141 -451 158 -97 10 -103 18
-100 138 3 124 20 255 40 310 11 32 24 48 47 58 41 18 185 18 278 0z m-633
-44 c24 -24 29 -38 36 -117 4 -50 7 -107 6 -127 -1 -21 5 -54 14 -74 8 -20 15
-47 15 -59 0 -35 -52 -73 -108 -79 -50 -6 -120 -19 -215 -41 -31 -7 -74 -24
-95 -37 -20 -14 -53 -30 -72 -37 -85 -27 -232 -160 -280 -252 -89 -172 -92
-307 -10 -464 35 -68 184 -226 241 -255 19 -10 41 -25 48 -34 7 -8 36 -23 64
-32 29 -9 75 -29 102 -45 28 -15 78 -33 112 -39 34 -6 77 -17 95 -24 18 -8 55
-17 81 -21 75 -10 79 -26 75 -315 -3 -259 -6 -270 -60 -270 -16 0 -91 13 -166
30 -75 16 -175 37 -220 45 -46 9 -114 27 -150 40 -37 12 -92 29 -122 35 -30 7
-74 24 -97 37 -24 14 -66 31 -93 38 -28 7 -67 26 -87 41 -19 14 -56 33 -81 40
-25 8 -59 25 -76 38 -17 13 -49 32 -71 43 -22 12 -49 31 -60 43 -11 12 -33 29
-50 38 -72 37 -217 174 -270 257 -18 28 -42 58 -53 69 -12 10 -24 32 -27 50
-4 17 -21 58 -38 91 -32 60 -32 60 -32 215 l0 155 37 80 c20 44 40 91 43 105
4 14 19 41 34 60 16 19 36 51 46 70 44 84 276 318 360 362 22 11 55 33 75 48
19 15 56 35 82 43 26 9 62 27 80 40 18 14 59 32 92 41 32 10 75 28 95 41 21
15 70 31 118 40 45 9 106 26 135 39 35 16 88 28 158 35 58 7 128 18 155 25 77
22 103 19 134 -12z m71 -602 c12 -7 17 -53 24 -247 11 -310 13 -681 3 -715
-12 -43 -42 -44 -166 -4 -61 20 -116 36 -123 36 -7 0 -38 15 -68 34 -31 19
-67 37 -82 41 -41 10 -160 116 -211 187 -52 73 -67 119 -67 203 0 81 11 113
63 193 41 61 136 152 159 152 5 0 28 13 51 30 23 16 65 34 92 40 28 6 88 21
135 34 89 26 165 32 190 16z m353 -1909 c247 -89 379 -197 468 -380 17 -35 20
-57 17 -115 -4 -64 -8 -77 -44 -128 -40 -56 -144 -158 -161 -158 -5 0 -33 -16
-62 -35 -31 -19 -74 -37 -100 -41 -25 -4 -98 -22 -161 -41 -98 -29 -134 -34
-249 -38 -115 -4 -140 -2 -180 14 -25 11 -59 22 -76 25 -16 4 -65 16 -108 28
-67 19 -85 29 -145 84 l-67 61 0 60 c0 58 1 60 59 125 32 37 72 72 90 79 17 6
63 27 103 46 62 30 85 36 170 40 85 5 101 3 116 -11 21 -22 22 -50 1 -67 -12
-10 -44 -13 -118 -11 -117 4 -131 -3 -185 -85 -38 -56 -40 -101 -8 -163 20
-40 32 -50 112 -89 74 -36 103 -44 165 -48 145 -10 318 52 398 142 52 59 66
115 53 209 -9 66 -13 72 -67 127 -35 35 -75 64 -103 75 -63 24 -110 53 -121
74 -14 25 -13 206 1 232 10 19 17 20 81 14 38 -3 93 -15 121 -25z m-82 -480
c21 -22 29 -39 29 -66 0 -77 -46 -124 -153 -157 -87 -26 -231 -22 -293 8 -51
25 -59 70 -20 109 36 36 129 36 192 -1 33 -19 51 -24 74 -19 34 7 44 22 55 80
10 60 22 75 56 75 20 0 40 -10 60 -29z"/>
</g>
</svg>
