<?xml version="1.0" standalone="no"?>
<!DOCTYPE svg PUBLIC "-//W3C//DTD SVG 20010904//EN"
 "http://www.w3.org/TR/2001/REC-SVG-20010904/DTD/svg10.dtd">
<svg version="1.0" xmlns="http://www.w3.org/2000/svg"
 width="416.000000pt" height="640.000000pt" viewBox="0 0 416.000000 640.000000"
 preserveAspectRatio="xMidYMid meet">
<metadata>
Created by potrace 1.16, written by Peter Selinger 2001-2019
</metadata>
<rect x="0" y="0" width="416" height="640" fill="#ffffff"/>
<g transform="translate(0.000000,640.000000) scale(0.100000,-0.100000)"
fill="#000000" stroke="none">
<path d="M2060 6375 c-7 -18 -30 -35 -72 -55 -137 -65 -350 -247 -388 -332
-11 -24 -29 -56 -40 -73 -16 -24 -20 -46 -20 -113 0 -72 4 -90 27 -130 39 -69
100 -130 164 -162 30 -16 61 -35 68 -44 7 -9 44 -25 81 -36 49 -15 76 -29 94
-51 24 -29 26 -37 26 -139 0 -90 -3 -112 -18 -131 -18 -21 -21 -22 -79 -10
-45 8 -77 9 -129 0 -38 -6 -107 -14 -154 -18 -47 -5 -97 -13 -112 -19 -15 -6
-67 -16 -115 -22 -54 -7 -108 -20 -138 -35 -28 -13 -69 -31 -92 -39 -22 -8
-61 -30 -87 -49 -25 -20 -54 -38 -64 -42 -32 -10 -121 -123 -132 -168 -6 -23
-23 -69 -37 -102 -34 -78 -34 -149 0 -230 13 -33 27 -73 31 -90 4 -16 24 -50
45 -75 21 -25 46 -58 56 -73 10 -15 37 -39 61 -53 23 -14 48 -32 54 -40 17
-19 213 -114 237 -114 29 0 121 -29 128 -41 4 -5 2 -16 -5 -24 -12 -14 -272
-105 -301 -105 -9 0 -42 -14 -73 -31 -32 -16 -84 -38 -116 -48 -32 -10 -72
-28 -88 -40 -16 -11 -52 -30 -78 -42 -27 -11 -57 -28 -67 -37 -11 -9 -38 -28
-62 -42 -61 -35 -199 -145 -258 -205 -43 -44 -85 -97 -152 -195 -72 -105 -79
-118 -121 -220 -49 -122 -54 -140 -60 -227 -3 -49 -12 -104 -21 -124 -13 -32
-13 -40 0 -65 8 -16 17 -68 21 -117 3 -48 12 -104 20 -125 37 -100 88 -208
110 -231 13 -14 28 -34 33 -44 14 -26 184 -197 239 -240 80 -62 186 -137 194
-137 4 0 24 -13 44 -29 21 -17 54 -35 74 -42 20 -7 53 -24 74 -40 21 -15 62
-33 91 -39 28 -7 73 -25 98 -41 25 -16 72 -34 105 -40 32 -6 88 -24 123 -40
36 -16 96 -34 135 -40 39 -6 100 -22 136 -36 47 -17 117 -29 249 -44 198 -21
236 -33 259 -84 27 -59 7 -173 -33 -189 -9 -3 -56 -6 -104 -6 -53 0 -116 -7
-162 -19 -41 -11 -92 -22 -115 -26 -22 -3 -63 -22 -89 -41 -27 -19 -55 -34
-62 -34 -7 0 -38 -24 -67 -52 -71 -70 -116 -166 -123 -263 -5 -64 -2 -75 26
-129 17 -32 31 -64 31 -70 0 -18 117 -125 174 -160 26 -15 81 -37 124 -47 55
-14 85 -28 107 -49 l31 -30 271 0 c174 0 274 4 278 10 12 20 100 58 160 69 72
14 249 94 289 130 81 73 165 165 194 212 44 71 55 127 51 273 -4 112 -6 126
-30 162 -14 21 -36 61 -48 88 -32 74 -205 234 -281 261 -23 8 -55 26 -71 40
-17 13 -49 29 -72 35 -23 6 -71 21 -107 35 -80 30 -143 44 -193 45 -27 0 -45
7 -62 25 -25 24 -25 25 -25 233 0 126 4 222 11 241 13 37 47 49 94 32 47 -17
411 -15 461 3 22 7 99 17 173 21 83 5 166 16 220 30 47 12 118 30 156 40 39
10 95 26 125 37 30 11 92 33 138 49 46 16 98 40 115 53 18 13 48 29 68 35 41
13 255 211 279 257 8 16 29 54 47 84 24 40 36 75 42 125 5 39 17 88 26 110 19
43 16 146 -6 202 -6 15 -17 63 -25 107 -9 53 -23 94 -44 126 -16 26 -30 52
-30 58 0 7 -36 52 -79 100 -72 79 -105 109 -253 231 -26 22 -60 42 -76 46 -16
3 -40 17 -52 30 -13 13 -52 34 -87 46 -35 11 -83 31 -106 44 -23 13 -70 31
-104 39 -34 9 -83 25 -108 36 -41 18 -137 38 -334 70 -57 10 -91 32 -91 60 0
24 16 35 101 70 40 17 83 39 94 49 11 11 38 26 60 36 22 9 51 27 65 40 14 14
58 56 98 95 39 38 72 75 72 82 0 8 14 31 32 52 40 49 87 212 88 307 0 92 -40
215 -90 277 -71 87 -142 153 -190 177 -19 10 -51 30 -70 46 -19 15 -46 30 -60
34 -14 4 -58 25 -98 46 -41 22 -80 39 -88 39 -8 0 -56 16 -107 36 -50 20 -135
45 -187 55 -54 11 -123 33 -160 52 -73 36 -83 55 -55 113 10 21 15 55 14 91
-4 103 21 406 37 459 11 34 15 74 12 118 -4 61 -7 69 -45 109 -22 23 -46 52
-52 65 -10 18 -20 22 -62 22 -44 0 -51 -3 -59 -25z m-152 -414 c17 -10 41
-118 51 -231 4 -47 14 -100 20 -118 16 -40 7 -79 -19 -87 -50 -16 -101 6 -181
77 -94 82 -113 114 -106 176 6 53 56 110 129 148 26 13 49 28 53 34 8 12 35
13 53 1z m399 -660 c26 -10 75 -24 108 -31 33 -7 73 -21 88 -33 16 -11 55 -28
87 -38 32 -10 80 -31 107 -48 28 -17 53 -31 57 -31 3 0 34 -19 69 -42 35 -24
71 -47 79 -53 61 -40 130 -100 143 -125 8 -16 29 -46 46 -65 27 -31 33 -47 42
-120 13 -107 -7 -209 -55 -287 -41 -65 -222 -249 -268 -273 -19 -10 -48 -28
-65 -41 -16 -12 -53 -29 -81 -37 -29 -8 -69 -27 -91 -41 -23 -16 -70 -32 -120
-41 -45 -9 -98 -22 -117 -30 -28 -12 -41 -12 -61 -3 -34 15 -82 92 -96 155
-11 45 -10 55 5 77 9 14 26 28 39 30 12 3 57 12 99 20 51 9 89 24 111 40 19
14 47 31 63 36 17 6 53 36 80 68 39 45 56 76 79 144 l29 88 -29 86 c-24 76
-35 94 -93 156 -43 46 -87 80 -127 100 -33 17 -67 36 -75 44 -9 7 -45 20 -80
28 -105 25 -127 67 -99 197 11 52 37 89 64 89 8 0 36 -8 62 -19z m-342 -395
c31 -13 55 -41 55 -65 0 -26 -33 -41 -93 -41 -87 0 -158 -22 -233 -71 -71 -46
-86 -67 -103 -146 -20 -96 18 -194 101 -256 59 -45 134 -77 199 -88 35 -5 75
-18 89 -28 23 -17 25 -23 21 -87 -4 -83 -10 -101 -51 -147 -38 -44 -76 -53
-133 -34 -23 8 -91 25 -152 37 -60 12 -128 28 -150 35 -78 26 -209 85 -229
104 -12 10 -35 26 -52 35 -36 18 -157 146 -182 191 -23 44 -29 190 -9 238 20
46 95 135 122 144 11 3 35 18 54 32 32 25 167 76 276 106 28 7 102 18 165 24
63 7 140 15 170 20 84 12 98 12 135 -3z m348 -70 c95 -52 157 -112 187 -178
l21 -48 -22 -50 c-16 -37 -39 -65 -86 -104 -63 -53 -96 -66 -167 -66 -26 0
-28 2 -21 27 3 15 26 49 51 75 40 43 44 51 44 100 0 52 0 53 -75 125 -61 58
-75 78 -75 102 0 28 29 61 53 61 5 0 46 -20 90 -44z m-490 -230 c3 -7 3 -32 0
-55 -5 -36 -2 -46 22 -71 33 -35 30 -64 -8 -68 -41 -5 -107 65 -107 113 0 58
76 125 93 81z m712 -891 c25 -9 71 -17 103 -19 132 -8 268 -28 321 -47 80 -30
151 -49 182 -49 15 0 53 -14 85 -31 33 -17 80 -37 106 -44 26 -7 65 -27 86
-43 21 -17 51 -34 66 -38 15 -4 47 -21 69 -38 23 -17 56 -40 72 -50 53 -34
197 -189 216 -234 10 -24 30 -58 44 -77 20 -26 30 -56 41 -132 13 -86 13 -109
0 -190 -12 -75 -21 -101 -50 -143 -20 -29 -36 -58 -36 -65 0 -22 -179 -193
-209 -200 -15 -3 -49 -21 -76 -40 -27 -19 -56 -35 -65 -35 -9 0 -49 -16 -88
-36 -40 -19 -105 -41 -145 -49 -39 -8 -107 -26 -149 -40 -47 -15 -133 -31
-220 -40 -79 -8 -171 -19 -204 -25 -91 -15 -453 -13 -484 3 -46 23 -53 54 -43
204 11 163 10 162 126 161 45 0 95 5 110 11 16 6 60 11 99 11 38 0 96 6 127
14 31 8 95 17 143 20 109 8 217 30 267 55 21 11 59 25 84 32 26 6 57 21 69 34
13 12 35 30 50 39 15 10 46 45 68 77 37 55 40 63 40 129 0 66 -3 74 -41 130
-23 34 -55 68 -73 77 -17 9 -43 26 -58 39 -15 12 -51 27 -80 33 -29 6 -75 20
-103 31 -71 28 -143 39 -365 55 -107 7 -208 18 -223 24 -16 6 -55 11 -88 11
-80 0 -109 26 -109 99 0 27 5 62 10 77 6 15 15 73 20 128 11 110 23 150 48
162 10 5 60 11 112 14 52 4 96 7 97 8 1 1 23 -5 48 -13z m-590 -57 c14 -16 25
-35 25 -41 0 -7 7 -57 15 -112 15 -105 19 -214 9 -253 -8 -30 -53 -52 -104
-52 -58 0 -187 -28 -240 -52 -25 -11 -66 -26 -92 -33 -27 -7 -62 -25 -79 -39
-17 -15 -45 -33 -63 -40 -37 -17 -124 -99 -148 -141 -10 -16 -26 -41 -37 -55
-11 -14 -33 -73 -48 -132 l-28 -108 28 -107 c15 -60 37 -119 47 -133 11 -14
28 -41 39 -60 34 -62 195 -200 259 -221 20 -6 55 -24 77 -40 22 -15 58 -31 80
-35 22 -4 79 -22 127 -40 48 -19 117 -38 154 -43 107 -16 104 -9 104 -253 0
-275 -10 -295 -132 -263 -30 7 -109 21 -175 30 -67 8 -159 28 -208 45 -48 16
-115 35 -148 41 -34 6 -86 23 -116 39 -31 15 -79 33 -108 40 -29 6 -72 25 -95
40 -24 16 -63 33 -88 40 -25 6 -61 24 -80 39 -19 15 -56 37 -82 49 -27 11 -48
25 -48 30 0 4 -19 19 -43 32 -42 24 -90 61 -174 135 -122 108 -240 305 -262
437 -8 48 -9 98 -1 173 12 126 23 173 50 208 11 14 27 44 35 67 8 22 25 55 38
73 14 17 32 46 40 62 20 39 256 279 294 298 15 8 37 25 48 37 11 12 43 32 70
45 28 12 56 29 63 38 8 9 39 26 70 37 30 12 68 31 83 44 15 13 52 29 81 36 29
7 78 25 109 41 31 15 88 33 125 39 38 6 89 19 114 29 73 31 313 71 368 62 12
-2 33 -17 47 -33z m390 -593 c27 -9 62 -13 78 -9 58 13 355 -28 443 -61 33
-13 86 -28 117 -34 102 -22 179 -93 150 -140 -6 -9 -42 -33 -82 -53 -54 -29
-92 -41 -158 -49 -85 -12 -637 -23 -679 -14 -37 8 -46 48 -39 174 7 128 18
176 43 191 24 14 70 12 127 -5z m-340 -30 c19 -18 25 -35 25 -69 0 -24 7 -72
15 -105 13 -48 14 -69 5 -103 -14 -51 -49 -115 -79 -142 -32 -29 -28 -80 10
-124 43 -49 65 -105 85 -219 21 -116 20 -149 -2 -174 -26 -29 -103 -24 -204
12 -47 16 -109 36 -138 45 -29 8 -73 30 -98 49 -25 19 -51 35 -58 35 -8 0 -53
40 -102 89 -81 81 -92 96 -112 158 -12 38 -22 90 -22 114 0 73 37 168 84 217
68 72 156 133 225 158 36 12 91 32 121 43 30 11 75 21 100 22 25 0 56 5 70 9
41 13 50 11 75 -15z m450 -1955 c33 -16 75 -34 94 -41 18 -7 51 -27 73 -46 22
-18 44 -33 49 -33 6 0 35 -25 66 -57 44 -44 62 -73 85 -132 37 -98 38 -131 5
-216 -20 -51 -40 -84 -75 -117 -91 -89 -125 -117 -151 -123 -14 -4 -46 -20
-70 -36 -24 -16 -60 -31 -80 -35 -20 -3 -68 -14 -107 -25 -38 -10 -83 -19 -98
-19 -15 0 -53 -7 -84 -16 -59 -17 -175 -15 -237 5 -16 5 -75 19 -130 31 -112
24 -121 28 -196 86 -57 43 -129 138 -129 169 0 31 64 147 90 163 14 9 42 31
63 48 23 19 60 37 90 44 29 7 75 23 102 35 88 40 214 41 239 3 18 -29 -4 -38
-106 -41 l-95 -3 -72 -65 c-39 -35 -74 -74 -77 -87 -11 -39 6 -109 36 -151 43
-59 99 -87 212 -105 92 -15 103 -15 198 4 146 28 218 71 277 165 57 92 58 139
8 229 -41 74 -132 151 -191 162 -21 4 -48 17 -61 30 -20 20 -23 33 -23 104 0
71 3 84 23 104 23 23 23 23 118 9 57 -9 117 -26 154 -43z m-188 -374 c42 -35
67 -87 59 -120 -14 -56 -117 -127 -227 -156 -64 -18 -194 6 -236 43 -18 16
-33 37 -33 47 0 9 20 36 45 59 52 48 92 53 155 21 47 -24 68 -25 98 -4 16 11
22 25 22 55 0 73 61 102 117 55z"/>
</g>
</svg>
