<?xml version="1.0" standalone="no"?>
<!DOCTYPE svg PUBLIC "-//W3C//DTD SVG 20010904//EN"
 "http://www.w3.org/TR/2001/REC-SVG-20010904/DTD/svg10.dtd">
<svg version="1.0" xmlns="http://www.w3.org/2000/svg"
 width="416.000000pt" height="664.000000pt" viewBox="0 0 416.000000 664.000000"
 preserveAspectRatio="xMidYMid meet">
<metadata>
Created by potrace 1.16, written by Peter Selinger 2001-2019
</metadata>
<rect x="0" y="0" width="416" height="664" fill="#ffffff"/>
<g transform="translate(0.000000,664.000000) scale(0.100000,-0.100000)"
fill="#000000" stroke="none">
<path d="M1970 6549 c-86 -30 -133 -39 -340 -64 -121 -15 -143 -20 -227 -54
-29 -11 -83 -25 -120 -31 -38 -6 -89 -23 -118 -39 -27 -16 -72 -34 -100 -40
-27 -7 -70 -25 -95 -41 -25 -15 -68 -35 -97 -44 -28 -10 -57 -24 -64 -32 -7
-9 -34 -26 -59 -39 -25 -13 -52 -31 -60 -40 -8 -9 -35 -27 -62 -41 -71 -36
-348 -318 -388 -394 -7 -14 -28 -45 -47 -69 -18 -24 -33 -52 -33 -61 0 -9 -15
-46 -34 -81 -21 -41 -38 -91 -46 -139 -6 -41 -18 -100 -26 -131 -19 -75 -18
-202 1 -239 8 -15 21 -65 29 -110 9 -50 23 -95 38 -118 14 -20 37 -57 51 -82
49 -87 222 -257 346 -340 21 -14 48 -35 61 -47 13 -13 39 -28 59 -34 20 -6 47
-22 61 -35 14 -13 45 -30 70 -39 24 -9 65 -29 90 -45 25 -16 68 -34 95 -41 28
-6 71 -24 96 -40 25 -16 69 -33 99 -39 29 -5 76 -23 104 -39 28 -16 71 -32 96
-36 25 -4 95 -24 155 -44 61 -21 134 -41 164 -45 30 -4 92 -20 137 -36 46 -16
104 -32 128 -35 62 -10 78 -31 83 -112 2 -38 1 -78 -2 -90 -9 -36 -45 -63 -85
-63 -21 0 -57 -11 -81 -23 -24 -13 -61 -30 -82 -36 -21 -7 -53 -25 -70 -40
-18 -15 -53 -39 -78 -54 -65 -37 -158 -141 -208 -232 -96 -175 -93 -410 8
-562 98 -146 257 -263 469 -344 96 -37 113 -56 120 -134 3 -43 1 -56 -16 -73
-18 -18 -37 -20 -203 -24 -149 -4 -196 -9 -249 -26 -36 -12 -98 -28 -138 -36
-40 -8 -86 -24 -102 -36 -16 -11 -54 -29 -84 -39 -84 -28 -212 -138 -282 -242
-38 -57 -46 -80 -56 -147 -18 -122 -2 -222 48 -302 38 -60 166 -200 183 -200
4 0 25 -13 45 -29 21 -17 54 -35 74 -42 20 -6 55 -24 77 -40 22 -15 60 -31 85
-34 25 -4 68 -16 95 -26 101 -36 212 -57 345 -64 74 -4 143 -11 152 -16 19
-10 46 -56 59 -101 8 -29 -5 -136 -42 -334 -20 -107 -20 -114 -4 -148 17 -36
69 -76 98 -76 31 0 124 51 137 75 17 31 8 110 -20 172 -46 103 -58 369 -19
409 10 9 55 20 120 29 57 7 144 27 193 44 49 17 97 31 106 31 9 0 46 15 81 34
35 18 81 39 101 45 21 7 56 28 79 47 22 19 46 34 53 34 19 0 153 105 210 164
100 105 138 156 156 215 9 31 25 70 36 86 15 23 18 45 17 113 -2 77 -6 92 -40
159 -56 109 -224 263 -327 299 -22 8 -59 26 -82 39 -22 13 -73 33 -113 44 -40
11 -96 31 -124 44 -29 13 -77 30 -107 36 -30 7 -100 26 -155 42 -55 16 -119
33 -143 39 -23 6 -58 25 -78 42 -35 31 -39 32 -133 33 -94 1 -99 2 -208 52
-118 54 -226 132 -282 201 -17 22 -46 71 -64 109 -30 63 -32 75 -31 168 0 97
1 102 42 182 24 45 52 89 63 97 26 18 56 10 77 -22 41 -61 116 -132 151 -143
20 -6 54 -22 76 -35 22 -12 59 -27 81 -33 23 -6 45 -19 49 -29 4 -9 6 -94 6
-187 -2 -185 0 -192 55 -209 34 -10 164 23 212 55 24 15 68 33 98 39 30 6 67
22 83 36 16 13 50 33 76 44 26 11 61 32 77 46 17 13 44 31 62 38 36 16 211
185 243 236 49 77 56 101 61 232 5 145 -5 205 -46 258 -15 19 -39 54 -54 77
-15 23 -44 53 -65 66 -21 13 -45 32 -52 41 -8 10 -31 26 -52 36 -20 11 -51 32
-69 48 -17 16 -50 35 -73 41 -23 7 -66 26 -95 42 -28 16 -75 34 -103 40 -80
17 -193 73 -205 100 -5 14 -9 114 -8 236 1 194 3 215 20 234 16 18 26 20 69
14 71 -10 499 -5 538 6 17 5 57 9 88 9 31 0 74 6 95 14 22 7 73 17 114 20 106
10 171 24 239 51 32 14 90 29 127 35 43 7 83 20 106 36 20 14 58 32 85 40 26
8 66 27 88 42 22 16 54 34 71 41 34 13 195 170 244 238 17 23 39 67 50 99 21
61 45 94 67 94 10 0 13 46 13 240 l0 239 -29 15 c-27 14 -36 31 -59 101 -13
39 -70 128 -124 190 -62 72 -213 207 -256 229 -20 10 -46 26 -57 36 -11 10
-42 28 -69 40 -27 11 -61 31 -77 44 -16 13 -52 29 -80 35 -29 7 -75 24 -103
40 -28 16 -82 34 -121 41 -38 7 -108 26 -153 41 -48 16 -137 35 -210 44 -70 9
-136 19 -147 22 -29 9 -172 22 -340 32 -89 6 -168 16 -194 25 -58 21 -72 20
-171 -15z m569 -335 c53 -8 143 -24 201 -34 58 -10 130 -21 160 -24 31 -3 101
-21 155 -41 55 -19 110 -35 122 -35 12 0 50 -15 85 -33 35 -19 81 -40 103 -47
22 -7 54 -23 70 -35 17 -12 48 -32 70 -44 138 -74 308 -247 342 -349 9 -26 25
-61 36 -79 11 -20 21 -60 24 -106 5 -67 3 -81 -22 -133 -15 -33 -33 -78 -40
-101 -7 -23 -26 -59 -42 -80 -17 -21 -35 -48 -42 -60 -6 -13 -35 -39 -64 -58
-201 -137 -215 -145 -269 -156 -29 -6 -70 -22 -90 -36 -23 -15 -73 -33 -125
-44 -49 -10 -110 -25 -138 -34 -104 -33 -181 -44 -455 -66 -69 -5 -154 -13
-188 -16 -65 -6 -195 10 -244 28 -35 14 -47 49 -47 137 0 104 10 112 137 112
246 0 444 86 558 242 37 49 38 55 42 144 3 51 1 109 -2 127 -6 33 -110 187
-126 187 -4 0 -34 19 -67 43 -54 40 -88 56 -233 109 -30 11 -97 24 -148 28
-78 6 -96 10 -118 31 -26 24 -26 24 -20 141 9 142 45 264 86 285 35 18 174 16
289 -3z m-620 -24 c38 -20 69 -126 76 -261 l8 -126 -28 -21 c-20 -16 -42 -22
-77 -22 -68 0 -193 -27 -256 -55 -29 -13 -68 -27 -87 -31 -19 -3 -54 -21 -77
-40 -24 -19 -49 -34 -56 -34 -16 0 -126 -113 -172 -177 -22 -30 -43 -79 -57
-133 -36 -131 -37 -141 -15 -221 11 -41 23 -90 26 -109 3 -20 18 -50 34 -68
145 -168 207 -226 268 -249 17 -6 50 -25 73 -41 23 -17 56 -34 74 -38 17 -3
67 -22 111 -41 49 -21 105 -36 143 -40 71 -7 103 -28 104 -71 0 -15 1 -114 1
-220 1 -172 -1 -194 -17 -212 -21 -24 -55 -26 -93 -6 -16 8 -56 19 -90 26 -33
6 -85 22 -114 35 -29 13 -83 31 -121 40 -37 8 -102 31 -145 49 -42 19 -94 37
-114 41 -20 4 -60 22 -88 40 -28 18 -68 35 -89 39 -21 3 -54 17 -74 31 -21 13
-59 34 -86 46 -27 11 -57 29 -66 40 -10 10 -34 23 -54 30 -20 6 -49 24 -66 39
-16 15 -46 36 -65 45 -65 33 -206 158 -264 234 -23 30 -63 95 -91 145 l-50 91
0 130 0 130 38 75 c20 41 37 79 37 85 0 14 77 135 127 199 66 85 146 167 198
202 99 67 120 83 152 109 18 15 56 36 84 46 28 11 66 30 83 44 17 13 51 28 76
35 25 6 68 25 95 40 28 16 78 33 111 39 34 6 101 25 150 42 57 19 126 33 194
40 58 6 123 16 145 23 50 17 81 19 104 6z m431 -580 c182 -34 332 -128 384
-240 32 -69 32 -79 -1 -152 -21 -48 -39 -69 -92 -109 -68 -51 -121 -71 -237
-90 -153 -24 -168 -23 -200 4 -23 21 -27 28 -16 38 9 10 19 11 45 1 47 -17 70
-15 99 7 13 11 50 32 82 47 59 28 74 46 96 121 12 39 11 46 -14 98 -15 30 -42
66 -59 79 -48 36 -141 66 -202 66 -63 0 -85 21 -85 80 0 54 31 85 75 74 11 -3
67 -14 125 -24z m-355 -11 c14 -14 19 -31 19 -61 -2 -50 -32 -81 -93 -98 -29
-7 -53 -26 -90 -69 -28 -32 -55 -70 -61 -85 -14 -37 -13 -142 2 -169 29 -56
105 -131 155 -153 73 -33 83 -52 88 -173 5 -98 4 -102 -19 -126 -33 -33 -59
-32 -155 9 -44 19 -96 38 -115 42 -20 3 -57 21 -83 40 -26 19 -53 34 -60 34
-16 0 -121 92 -173 153 -42 48 -90 157 -90 207 0 14 10 58 23 97 24 78 90 174
137 198 14 7 36 25 49 39 13 14 46 33 74 42 27 9 74 29 104 45 30 16 67 29 82
29 14 1 51 7 81 14 63 16 97 12 125 -15z m317 -256 c53 -16 78 -43 78 -84 0
-47 -61 -74 -143 -63 -60 8 -96 37 -104 86 -4 30 -1 41 20 62 28 28 59 28 149
-1z m-305 -43 c16 -32 16 -158 0 -190 -8 -16 -23 -26 -40 -28 -22 -3 -31 4
-57 44 -44 70 -39 115 18 177 32 33 61 32 79 -3z m285 -1624 c32 -8 72 -23 90
-34 18 -11 57 -27 86 -37 29 -9 65 -27 80 -39 15 -13 41 -30 57 -39 43 -22
175 -155 190 -191 54 -133 5 -284 -128 -397 -64 -55 -183 -134 -217 -144 -14
-4 -45 -20 -70 -35 -58 -37 -126 -62 -170 -64 -34 -1 -35 1 -48 49 -15 59 -8
111 16 124 9 4 46 11 81 15 35 4 91 20 125 35 33 16 78 34 98 40 50 16 145
119 154 166 3 19 5 68 3 108 -4 71 -5 74 -54 131 -39 44 -67 65 -124 92 -98
46 -164 64 -228 64 -74 0 -97 24 -91 91 8 82 33 93 150 65z m39 -367 c42 -21
79 -45 83 -54 25 -67 -19 -116 -127 -140 -41 -9 -85 -14 -96 -10 -31 10 -51
57 -50 117 2 91 8 109 42 123 38 17 49 14 148 -36z m-330 25 c8 -10 14 -47 16
-96 2 -74 0 -82 -23 -105 -21 -21 -31 -24 -62 -18 -20 4 -48 16 -61 28 -21 20
-51 74 -51 94 0 4 26 31 57 60 60 56 98 68 124 37z m316 -1249 c120 -25 333
-103 498 -181 97 -46 250 -155 288 -206 32 -43 57 -110 57 -151 0 -45 -43
-150 -77 -192 -15 -18 -36 -45 -46 -59 -21 -30 -39 -33 -62 -9 -14 13 -16 28
-11 75 9 73 -10 172 -39 207 -12 14 -29 40 -38 56 -33 64 -191 189 -273 215
-21 7 -57 23 -79 36 -22 12 -105 39 -185 58 -169 42 -185 54 -160 121 8 21 23
33 57 44 1 1 32 -6 70 -14z m-314 -254 c34 -13 39 -37 22 -95 -8 -26 -13 -52
-10 -56 2 -4 0 -23 -6 -43 -12 -45 -30 -55 -174 -97 -222 -64 -339 -183 -354
-360 l-6 -65 -64 2 c-49 1 -71 7 -90 23 -14 11 -39 28 -55 38 -45 26 -126 103
-143 135 -18 35 -20 121 -4 170 14 43 169 192 209 202 15 4 47 20 71 36 24 16
60 31 80 34 20 3 72 18 116 32 114 38 355 64 408 44z m335 -45 c48 -13 99 -27
113 -30 14 -3 43 -17 65 -32 21 -15 52 -31 69 -37 58 -20 183 -136 211 -197
10 -19 19 -53 22 -77 13 -118 -46 -133 -117 -29 -17 25 -41 48 -54 52 -12 3
-42 21 -67 39 -34 24 -77 41 -175 65 -71 18 -142 39 -156 46 -28 14 -79 103
-79 136 0 10 7 34 14 53 18 43 34 44 154 11z m-293 -367 c64 -21 66 -21 112
-3 77 29 143 22 271 -29 150 -59 222 -124 222 -201 0 -73 -52 -109 -188 -131
-148 -25 -203 -21 -279 20 -87 46 -120 46 -176 -4 -39 -33 -53 -39 -110 -45
-133 -13 -194 7 -247 82 -51 70 -51 96 -1 162 47 62 64 75 161 118 134 60 142
61 235 31z"/>
</g>
</svg>
