<?xml version="1.0" standalone="no"?>
<!DOCTYPE svg PUBLIC "-//W3C//DTD SVG 20010904//EN"
 "http://www.w3.org/TR/2001/REC-SVG-20010904/DTD/svg10.dtd">
<svg version="1.0" xmlns="http://www.w3.org/2000/svg"
 width="416.000000pt" height="400.000000pt" viewBox="0 0 416.000000 400.000000"
 preserveAspectRatio="xMidYMid meet">
<metadata>
Created by potrace 1.16, written by Peter Selinger 2001-2019
</metadata>
<rect x="0" y="0" width="416" height="400" fill="#ffffff"/>
<g transform="translate(0.000000,400.000000) scale(0.100000,-0.100000)"
fill="#000000" stroke="none">
<path d="M1658 3977 c-19 -28 -66 -43 -174 -57 -48 -7 -99 -21 -129 -37 -27
-14 -72 -31 -99 -39 -26 -7 -65 -24 -85 -39 -21 -14 -56 -36 -79 -48 -120 -65
-263 -213 -307 -317 -61 -145 -65 -161 -63 -255 2 -111 -3 -127 -45 -147 -46
-22 -303 -272 -343 -333 -17 -27 -46 -67 -63 -89 -17 -21 -31 -43 -31 -47 0
-5 -13 -31 -30 -57 -16 -27 -48 -107 -71 -177 l-41 -128 4 -136 c4 -123 7
-145 36 -225 46 -127 120 -232 254 -361 130 -125 181 -168 243 -200 23 -13 62
-37 85 -54 24 -17 48 -31 55 -31 7 0 31 -14 55 -31 24 -17 64 -38 89 -47 25
-8 64 -27 86 -43 22 -15 56 -31 75 -34 19 -4 60 -20 91 -35 30 -16 82 -36 115
-45 32 -10 77 -28 99 -41 22 -12 70 -30 108 -38 37 -9 94 -29 127 -46 34 -17
83 -35 110 -40 43 -8 84 -30 177 -95 26 -18 53 -105 53 -172 0 -26 -10 -82
-21 -123 -26 -96 -36 -229 -20 -268 7 -16 25 -39 41 -51 16 -12 33 -36 38 -54
8 -32 8 -32 80 -35 l71 -3 10 37 c6 21 24 49 43 64 31 26 33 32 36 104 3 60 0
90 -16 134 -52 147 -56 173 -38 274 10 51 27 119 38 150 11 32 18 68 14 81 -3
13 -28 45 -55 70 l-50 47 -136 0 c-143 0 -220 12 -365 55 -46 14 -95 25 -108
25 -13 0 -59 16 -102 35 -43 19 -86 35 -97 35 -10 0 -50 15 -88 33 -39 19 -95
42 -125 52 -30 10 -73 28 -95 41 -23 13 -60 30 -85 39 -24 8 -57 26 -74 39
-17 13 -51 33 -76 44 -62 30 -209 136 -300 216 -57 51 -156 177 -164 211 -4
14 -21 49 -39 78 l-32 52 0 165 0 165 43 100 c39 89 62 128 163 276 54 78 134
160 154 157 34 -5 31 -52 -13 -208 -24 -84 -21 -237 7 -335 13 -44 29 -104 37
-134 14 -53 37 -95 101 -189 18 -26 41 -60 50 -76 36 -59 191 -200 258 -234
22 -11 49 -30 60 -42 11 -12 44 -33 73 -46 29 -13 64 -32 78 -43 14 -11 49
-27 77 -35 29 -8 67 -26 85 -40 19 -14 61 -29 100 -37 37 -6 89 -22 117 -34
63 -28 151 -46 365 -75 47 -6 114 -17 150 -24 65 -13 395 -15 436 -2 10 3 64
12 119 20 253 38 307 49 405 81 58 18 121 37 140 40 19 4 51 18 72 32 20 13
58 31 85 39 26 8 66 27 88 43 22 15 56 33 76 40 20 6 45 21 55 32 11 12 37 30
59 41 22 11 55 34 72 51 18 18 59 55 90 82 105 90 198 222 229 324 9 29 31 70
50 91 l34 37 0 204 0 204 -34 27 c-24 19 -39 43 -49 77 -8 27 -27 70 -43 96
-65 106 -256 300 -334 340 -19 10 -47 28 -62 41 -15 12 -49 30 -77 39 -32 10
-69 35 -109 73 -53 50 -63 66 -81 127 -24 79 -46 110 -148 210 -97 96 -145
133 -184 146 -19 7 -45 22 -59 34 -32 29 -54 39 -114 54 -27 7 -66 21 -87 32
-22 11 -75 26 -119 35 -89 17 -158 43 -179 68 -12 14 -55 16 -410 16 l-396 -1
-17 -22z m770 -242 c37 -9 90 -22 117 -30 28 -7 77 -19 109 -25 52 -11 110
-35 241 -102 89 -46 145 -80 145 -88 0 -5 14 -25 31 -45 46 -52 18 -89 -38
-50 -29 21 -153 43 -303 55 -69 6 -143 14 -165 20 -65 16 -495 12 -610 -5 -55
-8 -161 -21 -235 -29 -74 -9 -162 -25 -195 -36 -33 -12 -100 -30 -149 -41 -49
-10 -99 -26 -112 -34 -12 -8 -59 -27 -104 -42 -93 -31 -113 -27 -118 28 -3 30
4 40 89 121 51 48 102 91 113 94 12 4 37 19 56 34 19 15 58 34 85 43 28 8 67
26 87 40 21 13 58 28 83 32 26 3 72 13 103 22 117 31 189 46 267 53 120 12
424 3 503 -15z m-48 -445 c52 -5 147 -14 210 -20 64 -5 152 -21 198 -34 45
-14 114 -29 151 -35 40 -5 96 -22 132 -40 35 -17 69 -31 76 -31 19 0 43 -30
43 -53 0 -15 -32 -56 -93 -117 -118 -122 -135 -135 -191 -160 -26 -11 -61 -30
-79 -43 -18 -13 -52 -29 -77 -36 -25 -7 -75 -26 -112 -42 -48 -20 -106 -33
-195 -44 -71 -9 -150 -21 -177 -26 -76 -14 -347 -11 -439 6 -45 8 -119 19
-164 24 -45 6 -110 22 -145 37 -35 15 -85 33 -111 40 -27 7 -64 24 -82 39 -19
14 -53 32 -75 40 -41 15 -87 48 -169 122 -40 36 -46 46 -46 83 0 36 6 47 35
72 19 16 60 36 90 45 30 8 92 31 137 49 45 19 92 34 104 34 12 0 72 12 133 26
61 14 138 32 172 40 33 8 100 14 150 15 49 0 109 4 134 8 66 12 280 13 390 1z
m1100 -325 c36 -25 88 -61 115 -79 49 -33 142 -134 178 -192 9 -16 28 -44 41
-61 13 -18 27 -53 30 -78 4 -25 16 -66 28 -91 11 -26 18 -58 15 -73 -11 -64
-59 -208 -77 -231 -11 -14 -31 -46 -45 -71 -31 -60 -204 -222 -270 -253 -28
-13 -57 -31 -64 -39 -7 -9 -38 -26 -68 -37 -30 -11 -69 -31 -87 -45 -18 -13
-61 -31 -97 -38 -35 -8 -87 -26 -115 -41 -33 -17 -78 -30 -125 -35 -41 -5
-134 -23 -208 -40 -103 -24 -157 -31 -232 -30 -54 0 -102 -2 -107 -5 -5 -3
-92 -1 -193 4 -136 7 -200 15 -246 29 -34 11 -112 27 -173 35 -75 11 -131 25
-174 45 -36 16 -88 34 -117 40 -29 7 -68 23 -86 37 -18 14 -55 32 -81 41 -26
8 -63 28 -82 43 -20 15 -54 37 -76 48 -22 11 -89 69 -148 129 -95 95 -113 118
-151 198 -61 128 -65 150 -65 336 0 177 14 252 60 327 30 49 56 43 119 -29 29
-33 72 -72 95 -86 22 -14 52 -36 66 -48 14 -12 43 -28 65 -35 22 -7 58 -25 80
-41 22 -15 58 -31 80 -35 22 -3 72 -19 110 -35 88 -35 127 -45 245 -59 52 -7
108 -16 124 -21 49 -15 507 -11 552 5 22 7 78 16 126 20 90 7 192 32 246 60
17 9 54 21 82 27 28 6 63 21 79 34 15 13 53 34 84 45 31 12 59 26 63 31 3 5
24 21 47 36 55 33 213 198 228 237 15 37 38 66 53 66 6 0 40 -21 76 -45z"/>
</g>
</svg>
