<?xml version="1.0" standalone="no"?>
<!DOCTYPE svg PUBLIC "-//W3C//DTD SVG 20010904//EN"
 "http://www.w3.org/TR/2001/REC-SVG-20010904/DTD/svg10.dtd">
<svg version="1.0" xmlns="http://www.w3.org/2000/svg"
 width="488.000000pt" height="176.000000pt" viewBox="0 0 488.000000 176.000000"
 preserveAspectRatio="xMidYMid meet">
<metadata>
Created by potrace 1.16, written by Peter Selinger 2001-2019
</metadata>
<rect x="0" y="0" width="488" height="176" fill="#ffffff"/>
<g transform="translate(0.000000,176.000000) scale(0.100000,-0.100000)"
fill="#000000" stroke="none">
<path d="M2395 1733 c-4 -16 -23 -43 -42 -61 l-36 -32 6 -83 c4 -45 18 -117
32 -160 16 -49 29 -125 37 -202 10 -111 9 -127 -6 -149 l-16 -26 -613 0 c-379
0 -625 4 -647 10 -20 6 -48 26 -65 46 -29 34 -36 37 -100 43 -45 5 -88 16
-121 33 -94 49 -369 66 -469 29 -82 -31 -163 -67 -179 -80 -29 -24 -76 -118
-76 -151 0 -42 57 -135 109 -178 45 -37 76 -49 212 -85 177 -47 282 -43 457
15 89 29 95 33 157 102 l64 71 635 3 c569 2 636 1 650 -13 36 -37 14 -264 -43
-450 -60 -193 -63 -209 -52 -250 7 -26 27 -57 56 -85 25 -24 45 -52 45 -62 0
-16 10 -18 85 -18 79 0 85 2 85 20 0 11 18 40 39 63 23 25 42 57 46 78 9 49
-11 151 -46 231 -33 76 -59 239 -59 375 0 76 2 84 24 98 20 14 100 15 669 13
l646 -3 33 -36 c26 -28 44 -38 83 -43 27 -5 76 -22 108 -38 49 -26 74 -32 161
-38 57 -4 158 -4 224 0 l121 8 82 48 c94 56 111 83 113 179 1 84 -24 128 -100
176 -32 21 -70 43 -83 49 -80 36 -499 40 -571 6 -50 -23 -100 -61 -137 -102
-25 -29 -43 -38 -90 -46 -35 -7 -285 -13 -646 -15 l-587 -4 -27 27 c-24 24
-25 30 -20 92 20 204 28 264 42 303 54 145 54 170 5 226 -19 21 -30 45 -30 63
l0 30 -79 0 c-78 0 -79 0 -86 -27z m-1737 -734 c-7 -20 -109 -42 -137 -29 -19
9 -21 13 -11 25 16 19 154 22 148 4z m3824 -47 c30 -18 35 -34 16 -50 -19 -15
-218 -26 -250 -13 -37 14 -37 48 -2 62 82 30 185 31 236 1z"/>
</g>
</svg>
