<?xml version="1.0" standalone="no"?>
<!DOCTYPE svg PUBLIC "-//W3C//DTD SVG 20010904//EN"
 "http://www.w3.org/TR/2001/REC-SVG-20010904/DTD/svg10.dtd">
<svg version="1.0" xmlns="http://www.w3.org/2000/svg"
 width="352.000000pt" height="328.000000pt" viewBox="0 0 352.000000 328.000000"
 preserveAspectRatio="xMidYMid meet">
<metadata>
Created by potrace 1.16, written by Peter Selinger 2001-2019
</metadata>
<rect x="0" y="0" width="352" height="328" fill="#ffffff"/>
<g transform="translate(0.000000,328.000000) scale(0.100000,-0.100000)"
fill="#000000" stroke="none">
<path d="M1605 3191 c-8 -108 -2 -141 38 -205 29 -46 31 -55 38 -190 3 -77 3
-166 -1 -196 -8 -58 -48 -130 -114 -206 -38 -44 -86 -156 -86 -203 0 -43 47
-164 70 -181 12 -8 36 -27 54 -42 46 -38 77 -48 154 -48 45 0 77 6 98 18 52
29 132 91 139 110 14 33 18 206 6 250 -7 24 -29 63 -49 85 -108 122 -121 151
-129 290 -8 140 10 252 58 358 21 47 39 97 39 111 0 14 -12 51 -26 82 l-25 56
-129 0 -128 0 -7 -89z"/>
<path d="M2755 1916 c-69 -15 -152 -66 -207 -129 l-36 -42 -709 -3 c-389 -2
-728 0 -752 3 -35 5 -53 16 -82 47 -37 40 -38 41 -130 49 -68 5 -110 15 -151
34 -55 25 -65 26 -223 26 -164 -1 -165 -1 -252 -37 -100 -40 -108 -47 -153
-130 l-33 -60 36 -75 c44 -92 99 -141 183 -163 33 -8 86 -25 119 -36 49 -18
84 -22 195 -22 l135 0 108 42 c98 39 112 47 158 100 28 32 62 63 77 69 19 8
236 11 748 9 l721 -3 40 -36 c30 -27 52 -38 89 -43 29 -4 67 -18 92 -35 53
-36 123 -46 317 -45 184 1 236 12 316 66 55 38 66 50 76 89 32 121 4 199 -92
260 -82 52 -99 59 -180 69 -98 13 -338 10 -410 -4z m-2150 -196 c3 -5 -2 -13
-12 -18 -26 -14 -127 -25 -152 -17 -23 7 -28 31 -8 38 23 8 167 5 172 -3z
m2542 -51 c32 -12 30 -47 -3 -59 -34 -13 -230 -13 -255 0 -21 12 -26 45 -7 56
35 22 210 24 265 3z"/>
<path d="M1709 1416 c-19 -7 -64 -30 -99 -51 -56 -34 -66 -45 -92 -103 -17
-36 -32 -80 -35 -98 -8 -47 33 -162 72 -204 18 -19 38 -46 45 -60 7 -14 26
-41 42 -61 39 -48 46 -105 38 -291 -6 -151 -6 -154 -40 -212 -28 -50 -34 -72
-38 -138 l-5 -78 36 -32 c19 -18 38 -45 42 -60 7 -28 8 -28 85 -28 76 0 78 1
85 27 3 15 22 44 41 65 29 32 34 45 34 87 0 31 -8 63 -23 92 -28 52 -50 121
-67 207 -17 83 -8 275 14 323 21 43 79 125 118 166 73 75 68 297 -8 365 -28
24 -172 98 -192 98 -9 -1 -33 -7 -53 -14z"/>
</g>
</svg>
