<?xml version="1.0" standalone="no"?>
<!DOCTYPE svg PUBLIC "-//W3C//DTD SVG 20010904//EN"
 "http://www.w3.org/TR/2001/REC-SVG-20010904/DTD/svg10.dtd">
<svg version="1.0" xmlns="http://www.w3.org/2000/svg"
 width="480.000000pt" height="464.000000pt" viewBox="0 0 480.000000 464.000000"
 preserveAspectRatio="xMidYMid meet">
<metadata>
Created by potrace 1.16, written by Peter Selinger 2001-2019
</metadata>
<rect x="0" y="0" width="480" height="464" fill="#ffffff"/>
<g transform="translate(0.000000,464.000000) scale(0.100000,-0.100000)"
fill="#000000" stroke="none">
<path d="M2302 4613 c-6 -16 -24 -44 -38 -63 -23 -31 -25 -42 -21 -95 3 -38
16 -84 36 -125 17 -36 35 -89 41 -119 13 -69 13 -273 -1 -330 -9 -41 -93 -167
-132 -200 -9 -7 -26 -42 -38 -79 -20 -59 -21 -71 -10 -130 15 -80 28 -106 78
-155 46 -44 163 -90 203 -80 53 13 137 56 168 86 54 51 62 75 62 187 0 105
-15 165 -44 176 -9 3 -26 22 -38 42 -12 21 -34 53 -50 72 -76 96 -74 401 4
540 22 38 32 72 35 115 4 53 2 64 -21 95 -14 19 -32 47 -38 63 -12 26 -14 27
-98 27 -84 0 -86 -1 -98 -27z"/>
<path d="M4108 3186 c-84 -16 -229 -86 -252 -121 -9 -14 -31 -35 -49 -45 -29
-18 -51 -20 -223 -20 -105 0 -214 -4 -242 -10 -28 -5 -209 -10 -402 -11 l-352
-1 -42 30 c-56 40 -121 72 -146 72 -25 0 -90 -32 -146 -72 l-41 -29 -450 1
c-257 0 -465 5 -484 10 -19 6 -77 10 -129 10 -94 0 -98 1 -183 45 -131 67
-333 115 -487 115 -85 0 -139 -6 -201 -21 -98 -25 -124 -37 -161 -76 -30 -31
-78 -132 -78 -164 0 -11 18 -52 41 -91 32 -55 49 -73 77 -84 21 -8 64 -28 97
-44 52 -25 78 -31 193 -40 94 -7 164 -7 238 0 116 12 128 15 164 43 14 10 39
25 56 32 17 7 46 31 63 53 50 61 87 73 242 78 483 13 968 18 999 9 30 -8 40
-20 68 -76 30 -60 35 -80 44 -200 14 -173 14 -281 1 -400 -12 -107 -25 -138
-76 -188 l-35 -33 -251 1 c-279 2 -298 6 -363 68 -30 29 -45 36 -85 38 -45 3
-130 21 -306 66 -68 17 -88 19 -155 9 -96 -13 -255 -66 -291 -95 -27 -24 -81
-121 -81 -147 0 -34 51 -126 92 -165 31 -30 64 -49 118 -68 115 -40 128 -43
236 -55 83 -9 118 -8 200 5 130 21 240 68 274 118 14 21 43 49 64 64 37 26 44
28 130 25 50 -2 145 2 212 9 113 11 123 11 160 -7 34 -16 41 -27 57 -77 17
-54 24 -62 80 -98 78 -51 113 -51 190 -3 48 30 62 46 82 89 37 85 45 87 329
89 l240 2 31 -27 c38 -33 68 -49 93 -49 11 0 44 -14 75 -30 71 -38 151 -50
337 -50 178 0 265 12 299 40 15 11 40 30 57 41 34 21 74 99 74 144 0 14 -13
54 -29 90 l-29 64 -109 53 -108 53 -220 0 -220 0 -80 -44 c-44 -24 -96 -61
-115 -83 -28 -31 -46 -41 -90 -49 -68 -14 -474 -27 -514 -17 -34 9 -72 42 -92
80 -21 41 -42 250 -38 385 5 158 27 313 51 360 40 77 32 75 383 74 171 -1 335
-6 362 -11 28 -6 154 -10 281 -10 222 0 232 -1 281 -24 158 -75 206 -94 249
-100 27 -4 67 -14 89 -22 26 -9 81 -14 154 -14 96 0 129 5 215 29 136 40 187
87 204 187 15 95 -43 187 -142 224 -30 11 -69 28 -86 37 -59 31 -296 48 -399
29z m301 -237 c39 -14 41 -43 4 -57 -42 -16 -158 -33 -179 -26 -61 19 -83 51
-51 71 32 20 180 28 226 12z m-3904 -11 c14 -6 25 -14 25 -18 0 -11 -49 -30
-79 -30 -15 0 -36 7 -47 15 -19 15 -19 15 0 30 24 18 66 19 101 3z m709 -974
c23 -9 20 -27 -12 -58 -33 -31 -82 -42 -132 -29 l-34 9 54 36 c74 48 92 54
124 42z m2576 -54 c14 -7 20 -19 18 -33 -4 -29 -54 -46 -143 -46 -121 -1 -178
27 -139 70 9 10 28 20 43 23 44 8 198 -2 221 -14z"/>
<path d="M2304 1422 c-18 -9 -55 -34 -83 -55 -40 -30 -53 -48 -61 -80 -6 -23
-18 -59 -27 -80 -14 -33 -15 -43 -4 -70 7 -18 20 -54 28 -82 9 -28 33 -70 57
-97 95 -109 96 -111 112 -215 12 -78 13 -115 4 -183 -6 -47 -13 -104 -16 -126
-3 -23 -19 -63 -36 -89 -27 -40 -32 -59 -36 -124 -5 -95 10 -118 98 -151 l60
-22 60 22 c86 32 103 57 98 145 -3 59 -8 78 -34 117 -39 58 -57 159 -56 313 0
124 13 186 48 230 119 146 133 176 135 286 2 122 -11 159 -72 206 -85 64 -108
73 -179 73 -43 0 -75 -6 -96 -18z"/>
</g>
</svg>
