<?xml version="1.0" standalone="no"?>
<!DOCTYPE svg PUBLIC "-//W3C//DTD SVG 20010904//EN"
 "http://www.w3.org/TR/2001/REC-SVG-20010904/DTD/svg10.dtd">
<svg version="1.0" xmlns="http://www.w3.org/2000/svg"
 width="416.000000pt" height="328.000000pt" viewBox="0 0 416.000000 328.000000"
 preserveAspectRatio="xMidYMid meet">
<metadata>
Created by potrace 1.16, written by Peter Selinger 2001-2019
</metadata>
<rect x="0" y="0" width="416" height="328" fill="#ffffff"/>
<g transform="translate(0.000000,328.000000) scale(0.100000,-0.100000)"
fill="#000000" stroke="none">
<path d="M1738 3256 c-16 -23 -102 -45 -233 -61 -62 -8 -317 -88 -367 -115
-20 -12 -62 -29 -92 -40 -31 -10 -71 -30 -88 -44 -18 -13 -52 -29 -76 -36 -24
-6 -53 -21 -64 -33 -12 -12 -41 -33 -64 -47 -131 -77 -298 -216 -358 -298 -11
-17 -47 -63 -78 -104 -32 -41 -66 -95 -76 -119 -11 -24 -29 -53 -41 -63 -11
-11 -31 -51 -42 -90 -12 -39 -29 -87 -39 -106 -26 -52 -30 -88 -31 -266 0
-171 -1 -165 62 -330 13 -33 51 -95 84 -138 33 -43 71 -94 85 -112 14 -19 39
-44 56 -56 17 -13 57 -43 89 -68 98 -76 188 -138 233 -159 24 -12 58 -32 76
-46 18 -14 55 -33 82 -42 27 -9 67 -29 88 -45 21 -15 44 -28 50 -28 6 0 45
-16 86 -36 41 -20 102 -43 135 -51 33 -8 79 -27 103 -41 24 -13 72 -31 108
-38 35 -8 87 -25 114 -39 28 -14 83 -32 123 -41 115 -24 299 -90 319 -114 16
-20 18 -46 18 -236 l0 -214 121 0 121 0 -4 148 c-3 113 -10 165 -27 227 -13
44 -31 110 -42 146 -10 36 -27 73 -38 83 -11 10 -53 22 -109 31 -49 7 -139 29
-200 49 -62 20 -124 36 -139 36 -16 0 -57 14 -93 31 -35 16 -95 37 -132 44
-37 8 -94 28 -126 44 -32 16 -78 34 -102 41 -25 6 -66 25 -91 41 -25 16 -61
32 -80 35 -41 8 -67 21 -94 45 -11 10 -39 25 -62 33 -22 8 -62 30 -88 50 -25
20 -52 36 -59 36 -7 0 -23 12 -37 26 -13 14 -44 37 -69 50 -62 33 -142 103
-198 172 -96 118 -115 145 -134 194 -10 27 -30 71 -44 98 -25 47 -26 57 -23
163 3 92 8 118 25 148 12 20 29 63 39 95 9 33 27 70 40 84 12 14 32 44 43 67
20 43 53 86 137 182 46 52 92 91 190 158 22 15 55 40 73 55 18 15 39 28 46 28
8 0 36 15 63 34 27 18 75 41 107 50 32 10 75 28 95 42 20 13 64 29 96 34 33 6
89 24 125 40 36 16 94 33 130 38 88 12 234 41 295 57 28 8 89 15 137 17 120 4
121 3 130 -160 3 -70 10 -142 13 -159 17 -79 -16 -107 -154 -128 -163 -26
-243 -45 -272 -65 -15 -12 -54 -30 -85 -40 -31 -11 -71 -32 -89 -47 -19 -16
-54 -43 -80 -61 -25 -19 -61 -57 -80 -86 -18 -28 -40 -58 -49 -65 -8 -7 -18
-29 -22 -50 -4 -20 -15 -58 -25 -84 -23 -59 -25 -168 -4 -228 9 -24 20 -64 26
-88 9 -41 26 -66 119 -173 81 -94 253 -196 415 -245 271 -82 395 -97 758 -90
295 5 452 19 547 47 36 10 115 28 175 40 61 13 137 35 170 50 33 15 76 31 95
35 19 4 69 25 110 46 41 21 88 43 104 49 38 14 78 46 193 155 53 50 103 106
112 125 9 19 28 55 43 80 15 25 34 77 42 116 20 92 31 121 56 136 29 19 29
136 -1 177 -11 15 -33 75 -48 132 -30 109 -80 213 -140 289 -84 104 -248 251
-330 295 -21 11 -53 32 -72 46 -19 14 -56 33 -84 42 -27 10 -65 28 -85 42 -20
14 -63 30 -95 36 -33 6 -82 22 -109 36 -34 17 -89 31 -179 44 -126 18 -172 34
-184 65 -4 12 -82 14 -532 14 l-526 -1 -17 -23z m868 -321 c44 -8 97 -21 119
-29 22 -8 56 -15 77 -16 58 0 176 -26 268 -59 47 -17 94 -31 105 -31 11 0 44
-13 73 -29 29 -17 76 -37 105 -47 54 -18 99 -45 262 -158 90 -63 184 -174 226
-266 11 -25 30 -63 42 -85 19 -35 22 -56 22 -155 0 -100 -3 -120 -22 -155 -12
-22 -34 -65 -48 -95 -13 -30 -41 -74 -60 -98 -37 -46 -111 -112 -125 -112 -4
0 -26 -15 -49 -34 -22 -19 -62 -42 -88 -52 -27 -10 -72 -31 -102 -46 -29 -15
-60 -28 -70 -28 -9 0 -64 -16 -122 -34 -58 -19 -148 -39 -200 -46 -51 -7 -105
-17 -119 -23 -45 -19 -171 -29 -440 -34 -274 -5 -324 -1 -482 38 -43 10 -87
19 -98 19 -34 0 -252 90 -290 120 -19 15 -50 35 -68 44 -61 32 -152 134 -188
214 -47 103 -47 166 1 267 43 89 162 216 223 235 20 7 58 26 85 42 36 23 70
34 142 44 52 8 106 19 120 24 65 25 135 -6 135 -59 0 -35 -14 -47 -120 -104
-102 -55 -140 -93 -174 -170 -32 -70 -32 -83 -4 -161 30 -86 91 -148 195 -196
122 -57 163 -63 369 -58 190 5 175 2 336 71 85 35 209 160 229 229 5 18 9 80
9 138 0 81 -4 112 -18 136 -31 57 -91 130 -116 144 -14 7 -33 23 -41 36 -8 12
-40 32 -71 44 -32 11 -69 29 -83 39 -37 26 -78 36 -221 57 -112 16 -128 21
-154 47 l-29 28 8 182 c4 112 11 187 18 196 10 11 43 13 183 7 94 -3 207 -13
250 -21z m-335 -589 c24 -8 69 -17 101 -21 31 -3 73 -16 95 -27 21 -12 61 -33
90 -47 31 -16 74 -51 107 -89 l56 -63 0 -69 c0 -68 -1 -70 -46 -122 -26 -29
-65 -61 -87 -72 -22 -10 -58 -31 -80 -47 -38 -27 -46 -29 -137 -29 -72 0 -101
4 -109 14 -15 18 -14 18 87 50 115 36 119 39 137 98 18 62 19 88 3 141 -22 74
-93 121 -234 157 -44 11 -84 27 -91 37 -29 39 -3 103 42 103 12 0 41 -6 66
-14z m3 -270 c63 -19 86 -41 86 -82 0 -41 -31 -64 -93 -71 -77 -9 -138 43
-121 101 20 67 45 77 128 52z m-237 -28 c4 -7 8 -42 8 -78 1 -87 13 -105 85
-131 96 -35 103 -61 23 -80 -45 -10 -89 0 -130 29 -16 11 -47 29 -69 40 -81
41 -95 133 -29 199 25 25 42 33 68 33 20 0 39 -6 44 -12z"/>
</g>
</svg>
