<?xml version="1.0" standalone="no"?>
<!DOCTYPE svg PUBLIC "-//W3C//DTD SVG 20010904//EN"
 "http://www.w3.org/TR/2001/REC-SVG-20010904/DTD/svg10.dtd">
<svg version="1.0" xmlns="http://www.w3.org/2000/svg"
 width="408.000000pt" height="344.000000pt" viewBox="0 0 408.000000 344.000000"
 preserveAspectRatio="xMidYMid meet">
<metadata>
Created by potrace 1.16, written by Peter Selinger 2001-2019
</metadata>
<rect x="0" y="0" width="408" height="344" fill="#ffffff"/>
<g transform="translate(0.000000,344.000000) scale(0.100000,-0.100000)"
fill="#000000" stroke="none">
<path d="M1461 3421 c-15 -28 -66 -48 -163 -65 -48 -8 -118 -28 -155 -44 -37
-16 -81 -33 -98 -36 -16 -4 -47 -19 -69 -33 -21 -14 -63 -33 -92 -43 -30 -11
-69 -30 -86 -43 -18 -13 -47 -29 -65 -36 -17 -7 -40 -22 -50 -33 -10 -11 -36
-29 -58 -41 -74 -37 -254 -205 -345 -320 -25 -32 -57 -72 -71 -90 -35 -44
-126 -234 -133 -279 -5 -27 -17 -46 -41 -65 l-35 -28 0 -241 0 -242 23 -15
c13 -8 38 -44 55 -79 47 -97 169 -210 267 -247 22 -8 58 -27 79 -43 22 -15 50
-28 62 -28 13 0 78 -18 146 -39 68 -21 155 -44 193 -50 39 -6 97 -20 130 -31
33 -12 107 -32 164 -45 60 -14 119 -34 140 -48 20 -14 48 -27 63 -31 24 -6 54
-27 159 -115 19 -17 58 -40 85 -51 27 -12 59 -31 71 -42 22 -21 73 -34 247
-63 l98 -17 141 28 c114 23 146 33 171 54 17 15 48 33 69 39 20 7 41 20 46 30
6 10 39 42 75 72 51 42 69 63 77 94 6 22 24 54 39 71 26 30 28 40 35 158 10
177 5 215 -46 328 -34 76 -57 111 -105 160 -82 85 -107 104 -187 144 -92 47
-165 64 -272 64 -92 0 -93 0 -186 55 -36 21 -111 94 -137 133 -8 13 -21 58
-27 99 -27 174 31 287 200 387 l70 41 171 0 c169 0 171 0 212 -28 23 -15 66
-38 94 -51 80 -35 218 -181 285 -300 36 -65 93 -194 93 -211 0 -11 9 -52 20
-90 49 -169 63 -355 35 -436 -9 -24 -25 -84 -36 -133 -11 -49 -33 -121 -50
-160 -17 -39 -37 -88 -46 -108 -9 -21 -27 -45 -40 -53 -13 -9 -31 -34 -39 -56
-10 -24 -28 -46 -45 -55 -16 -8 -40 -31 -53 -52 -13 -20 -43 -54 -67 -75 -24
-21 -48 -43 -54 -49 -65 -72 -146 -138 -276 -224 -138 -91 -158 -107 -173
-143 -9 -23 -16 -57 -16 -75 0 -47 -47 -262 -65 -296 -21 -40 -19 -68 10 -124
14 -27 25 -55 25 -63 0 -10 21 -13 88 -13 l87 1 29 61 c34 73 32 121 -9 218
-18 42 -28 89 -32 146 -6 78 -4 86 16 108 13 14 35 27 49 31 26 6 80 42 145
96 18 15 50 39 73 55 76 54 218 169 244 198 79 90 189 187 235 207 17 7 42 23
57 35 15 12 53 32 83 43 30 11 72 32 93 46 20 13 53 30 72 36 52 18 245 134
349 211 66 49 320 308 369 376 64 91 109 195 128 302 22 119 22 138 0 284 -15
103 -24 131 -62 205 -57 110 -88 150 -203 269 -91 94 -136 131 -231 188 -25
15 -54 35 -65 45 -11 10 -42 27 -70 39 -27 12 -66 32 -85 44 -19 13 -60 29
-90 36 -30 7 -77 24 -104 37 -26 13 -87 31 -134 39 -103 18 -147 35 -162 63
-11 21 -12 21 -670 21 -634 0 -660 -1 -669 -19z m1139 -300 c110 -8 178 -19
234 -37 43 -13 120 -31 170 -40 50 -9 118 -28 151 -44 33 -16 78 -33 101 -39
23 -6 57 -22 76 -35 19 -13 51 -29 70 -35 20 -6 59 -29 88 -51 30 -22 59 -40
65 -40 16 0 205 -190 205 -206 0 -6 16 -34 35 -62 20 -30 40 -77 50 -117 30
-133 11 -327 -40 -386 -14 -17 -25 -34 -25 -39 0 -9 -88 -125 -140 -184 -66
-75 -184 -187 -245 -231 -80 -60 -193 -135 -203 -135 -4 0 -36 -18 -72 -40
-73 -46 -167 -77 -182 -62 -6 6 6 71 33 183 39 156 44 191 49 334 4 119 2 174
-8 215 -18 72 -40 171 -53 240 -6 30 -24 78 -40 106 -16 28 -36 71 -44 94 -9
24 -26 57 -39 74 -13 17 -32 49 -44 71 -26 52 -177 208 -222 230 -19 10 -50
31 -68 46 -18 16 -39 29 -46 29 -7 0 -39 14 -71 31 -75 40 -195 53 -401 44
-162 -7 -171 -5 -160 40 7 29 31 43 89 54 60 12 503 6 687 -8z m-1132 -104 c3
-24 -6 -38 -51 -80 -29 -29 -61 -63 -70 -77 -9 -14 -42 -61 -75 -106 -32 -44
-66 -100 -76 -124 -9 -24 -27 -57 -38 -73 -26 -36 -72 -191 -98 -327 -36 -191
-19 -455 40 -624 11 -33 20 -69 20 -80 0 -12 6 -31 13 -42 47 -81 48 -84 36
-105 -10 -19 -17 -21 -62 -14 -29 3 -79 17 -113 31 -33 13 -101 33 -150 43
-49 11 -111 29 -139 42 -27 12 -75 28 -108 35 -32 8 -73 25 -90 38 -18 13 -50
31 -71 40 -21 9 -71 45 -110 80 -65 58 -74 71 -103 147 -31 82 -31 87 -24 189
4 58 13 114 18 125 6 11 16 44 22 73 6 30 22 68 35 85 13 18 34 52 46 77 13
25 34 59 49 76 14 17 51 63 81 102 30 40 58 72 61 72 4 0 29 20 55 44 27 23
65 51 84 61 19 9 49 30 65 45 17 15 45 32 62 38 18 6 48 22 65 35 18 14 51 30
73 37 22 7 57 23 77 37 21 14 74 34 118 44 44 11 92 27 107 36 32 21 166 52
213 50 30 -2 35 -6 38 -30z m310 17 c27 -8 28 -18 2 -44 -20 -20 -74 -27 -84
-11 -10 15 5 42 28 51 26 11 26 11 54 4z m-335 -342 c-3 -20 -17 -71 -31 -112
-37 -104 -37 -237 0 -325 14 -33 28 -76 32 -95 8 -42 37 -82 131 -175 107
-106 144 -133 200 -145 27 -6 69 -17 93 -25 23 -8 69 -15 101 -15 31 0 77 -6
102 -14 24 -7 63 -19 86 -25 64 -17 148 -94 187 -171 39 -76 48 -111 48 -190
0 -48 -6 -69 -36 -123 -37 -65 -133 -167 -158 -167 -8 0 -34 -15 -58 -32 l-44
-33 -171 0 c-159 0 -172 1 -205 22 -19 13 -51 30 -70 38 -73 33 -86 42 -174
130 -70 69 -105 114 -149 191 -31 55 -57 104 -57 108 0 4 -13 38 -29 75 -55
125 -102 492 -71 551 7 12 18 64 26 116 16 105 70 249 126 332 18 27 41 64 50
81 16 29 54 54 70 45 4 -3 4 -21 1 -42z"/>
</g>
</svg>
