<?xml version="1.0" standalone="no"?>
<!DOCTYPE svg PUBLIC "-//W3C//DTD SVG 20010904//EN"
 "http://www.w3.org/TR/2001/REC-SVG-20010904/DTD/svg10.dtd">
<svg version="1.0" xmlns="http://www.w3.org/2000/svg"
 width="416.000000pt" height="504.000000pt" viewBox="0 0 416.000000 504.000000"
 preserveAspectRatio="xMidYMid meet">
<metadata>
Created by potrace 1.16, written by Peter Selinger 2001-2019
</metadata>
<rect x="0" y="0" width="416" height="504" fill="#ffffff"/>
<g transform="translate(0.000000,504.000000) scale(0.100000,-0.100000)"
fill="#000000" stroke="none">
<path d="M1679 5024 c-23 -27 -98 -54 -183 -66 -45 -6 -110 -22 -146 -35 -36
-14 -91 -31 -124 -39 -32 -8 -94 -32 -139 -54 -44 -22 -85 -40 -91 -40 -6 0
-31 -14 -56 -30 -25 -16 -61 -35 -80 -41 -19 -7 -53 -27 -74 -46 -22 -18 -44
-33 -50 -33 -6 0 -31 -16 -55 -35 -24 -19 -48 -35 -53 -35 -11 0 -55 -40 -167
-151 -102 -102 -126 -129 -144 -165 -9 -17 -23 -37 -32 -44 -9 -8 -28 -37 -42
-64 -14 -28 -36 -64 -49 -79 -13 -15 -28 -47 -34 -70 -6 -23 -24 -72 -40 -108
-17 -36 -30 -83 -30 -105 0 -21 -5 -68 -10 -102 -7 -43 -8 -106 -1 -191 9
-119 12 -132 49 -207 31 -60 59 -98 119 -155 43 -42 96 -84 117 -93 21 -9 51
-27 67 -40 16 -14 54 -30 85 -36 31 -7 87 -25 124 -41 37 -15 96 -33 131 -38
36 -6 97 -22 136 -35 40 -13 120 -34 179 -46 58 -11 127 -31 153 -44 25 -13
66 -29 91 -36 25 -7 61 -24 80 -39 19 -15 49 -35 65 -46 17 -10 36 -27 43 -37
7 -10 32 -28 55 -39 23 -12 51 -29 62 -39 11 -10 38 -26 60 -37 62 -28 58 -48
-27 -131 -93 -91 -127 -133 -139 -174 -15 -55 -11 -195 8 -235 24 -51 141
-163 193 -185 25 -10 61 -30 80 -43 19 -13 59 -28 88 -34 70 -15 109 -36 126
-69 8 -17 15 -74 18 -155 7 -185 30 -171 -284 -178 -250 -6 -344 -16 -410 -43
-19 -8 -65 -22 -103 -31 -38 -9 -90 -29 -115 -44 -25 -16 -55 -32 -68 -36 -59
-17 -241 -216 -260 -284 -4 -14 -7 -91 -7 -171 1 -160 4 -171 73 -267 48 -67
118 -135 162 -158 19 -10 51 -30 70 -45 19 -15 46 -31 60 -35 14 -4 56 -20 93
-37 50 -21 105 -34 206 -48 76 -10 148 -23 161 -30 14 -7 64 -10 147 -8 119 3
126 2 143 -19 17 -22 25 -23 174 -23 125 0 156 3 156 14 0 7 9 25 20 39 16 20
32 26 81 32 36 4 83 19 115 35 29 16 79 34 111 40 32 7 77 23 101 37 24 13 65
31 92 39 27 8 62 26 79 39 16 14 45 32 64 40 19 8 52 29 73 47 80 68 203 200
219 236 10 20 30 58 46 83 55 87 72 269 38 393 -14 52 -95 169 -156 227 -53
50 -132 107 -184 134 -19 10 -50 30 -69 45 -19 15 -53 33 -75 40 -22 7 -70 28
-106 46 -36 19 -72 34 -80 34 -8 0 -43 14 -78 30 -35 17 -109 42 -164 55 -174
43 -199 73 -154 186 13 35 28 82 32 104 12 71 121 220 240 331 59 54 153 144
208 198 56 54 125 114 152 132 28 18 65 44 84 58 18 14 46 28 61 31 15 3 38
17 51 31 13 13 48 32 79 41 30 8 84 33 119 54 36 22 69 39 74 39 5 0 27 13 50
29 23 16 87 58 142 94 79 51 133 99 255 224 189 194 218 229 263 319 61 122
78 262 56 462 -9 82 -17 111 -55 189 -25 50 -51 97 -59 103 -8 6 -25 31 -39
54 -31 53 -223 238 -288 278 -27 17 -48 33 -48 38 0 5 -21 18 -47 31 -27 13
-66 36 -87 51 -21 15 -44 28 -51 28 -6 0 -48 18 -92 40 -45 22 -107 46 -139
54 -33 8 -88 25 -124 39 -36 14 -103 30 -150 36 -115 15 -158 28 -187 57 l-24
24 -498 0 c-449 0 -500 -2 -512 -16z m951 -329 c164 -31 298 -54 350 -59 31
-3 101 -21 155 -41 55 -19 108 -35 119 -35 10 0 44 -13 75 -30 31 -16 80 -38
109 -49 28 -10 67 -31 85 -46 32 -26 54 -42 152 -109 58 -39 151 -145 172
-196 8 -19 26 -49 39 -67 17 -23 29 -60 40 -125 22 -126 7 -237 -42 -320 -19
-31 -34 -60 -34 -65 0 -4 -17 -29 -37 -55 -21 -25 -58 -72 -83 -104 -75 -95
-115 -136 -197 -202 -132 -105 -162 -124 -363 -229 -52 -27 -110 -58 -127 -69
-63 -37 -93 16 -48 84 17 26 31 68 41 128 8 49 22 118 30 154 17 76 19 286 3
327 -6 15 -15 68 -20 116 -5 49 -20 118 -33 155 -13 37 -33 96 -46 132 -12 36
-36 82 -52 103 -16 20 -34 52 -40 70 -17 50 -146 194 -245 273 -56 45 -183
111 -229 119 -21 4 -75 16 -119 27 -92 23 -229 20 -303 -6 -24 -8 -65 -18 -93
-22 -32 -4 -62 -17 -84 -34 -19 -15 -51 -31 -70 -34 -22 -4 -42 -17 -55 -37
-12 -16 -34 -36 -50 -44 -16 -8 -32 -25 -35 -37 -4 -13 -20 -36 -35 -53 -17
-19 -32 -50 -39 -83 -6 -29 -18 -67 -27 -83 -8 -17 -22 -64 -30 -105 -13 -69
-12 -79 6 -132 10 -31 24 -77 30 -102 6 -25 16 -61 21 -81 20 -80 172 -246
259 -285 19 -8 62 -29 96 -45 52 -26 76 -31 180 -38 110 -6 124 -10 179 -40
131 -74 195 -172 209 -319 8 -91 -27 -173 -109 -249 -81 -75 -97 -88 -121
-101 -30 -16 -232 -45 -274 -39 -98 13 -184 40 -232 72 -28 19 -56 35 -63 35
-21 0 -192 179 -227 237 -88 147 -117 218 -149 360 -25 115 -29 153 -29 282 0
131 4 165 29 273 55 228 129 355 315 538 9 8 27 26 41 40 14 14 44 44 68 67
23 22 53 44 67 48 14 4 37 22 53 40 15 19 41 36 60 41 17 3 56 20 86 35 l54
29 271 0 c194 0 292 -4 346 -15z m-1062 -89 c3 -11 -13 -35 -45 -65 -47 -45
-118 -130 -186 -222 -56 -75 -124 -216 -168 -349 l-42 -125 -4 -220 c-6 -252
4 -347 49 -475 63 -177 66 -210 22 -210 -38 0 -198 38 -256 60 -29 12 -83 27
-121 35 -37 8 -90 26 -117 40 -27 14 -73 30 -101 36 -29 6 -64 23 -82 39 -18
15 -48 35 -67 45 -50 26 -117 105 -158 188 -33 66 -36 79 -36 162 0 75 4 100
26 150 14 33 29 78 33 100 4 22 25 66 46 99 22 32 39 62 39 67 0 16 161 192
244 267 45 40 102 84 127 97 25 13 51 30 58 39 17 20 201 112 243 121 18 4 50
18 70 32 24 16 73 33 130 45 51 10 120 30 153 43 72 30 138 30 143 1z m842
-257 c47 -24 105 -57 129 -74 64 -44 171 -145 189 -180 8 -16 27 -46 43 -65
15 -19 30 -46 34 -60 4 -14 20 -48 36 -77 15 -28 35 -80 44 -115 8 -34 22 -88
30 -118 9 -30 19 -113 24 -185 8 -110 6 -146 -10 -232 -10 -57 -22 -111 -27
-120 -5 -10 -15 -42 -22 -72 -21 -90 -93 -234 -125 -251 -16 -9 -36 -33 -46
-57 -10 -24 -25 -43 -34 -43 -28 0 -22 50 12 101 23 34 25 50 30 176 6 158 -5
239 -40 286 -14 18 -30 48 -36 68 -6 20 -23 46 -36 59 -13 12 -36 40 -51 62
-15 22 -46 49 -68 60 -23 11 -55 33 -73 49 -20 17 -53 32 -88 39 -31 7 -72 18
-91 26 -18 8 -59 14 -91 14 -32 0 -98 11 -147 24 -85 23 -92 27 -157 92 -63
62 -70 74 -99 161 l-31 94 34 98 c29 82 42 105 82 145 48 48 148 106 228 132
29 10 78 13 157 10 113 -3 116 -4 200 -47z m23 -1865 c14 -14 -20 -65 -89
-134 -50 -49 -84 -93 -100 -128 -40 -91 -84 -77 -84 27 0 75 22 115 94 173 62
50 158 83 179 62z m-437 -205 c17 -19 19 -38 20 -173 0 -88 6 -177 14 -214 13
-56 12 -64 -2 -78 -27 -27 -145 14 -235 82 -95 72 -113 98 -113 166 0 54 1 56
64 116 35 34 71 62 79 62 8 0 34 13 58 30 52 35 89 38 115 9z m362 -723 c57
-20 111 -36 120 -36 9 0 46 -14 82 -31 36 -17 88 -39 115 -49 50 -18 163 -79
251 -135 89 -57 166 -139 212 -224 38 -73 42 -87 42 -151 0 -60 -6 -85 -35
-152 -62 -140 -140 -238 -190 -238 -23 0 -23 1 -18 100 5 92 4 103 -20 152
-14 29 -35 74 -46 101 -11 26 -27 50 -35 53 -9 3 -25 21 -37 40 -11 19 -35 42
-52 51 -18 9 -46 28 -64 43 -17 15 -48 33 -69 40 -21 7 -58 26 -83 41 -25 16
-53 29 -63 29 -10 0 -60 14 -110 30 -51 17 -109 33 -129 36 -21 4 -47 16 -59
29 -20 21 -21 29 -14 154 8 149 16 166 68 158 17 -3 77 -22 134 -41z m-369
-427 c17 -6 36 -21 43 -32 7 -15 10 -125 9 -359 -2 -360 -8 -405 -53 -463 -21
-27 -24 -27 -97 -22 -42 3 -119 17 -171 31 -52 14 -122 31 -155 37 -33 6 -79
21 -102 34 -23 13 -65 31 -93 40 -28 9 -63 27 -78 39 -15 12 -43 32 -64 44
-56 34 -105 95 -123 154 -16 51 -16 55 4 109 25 65 138 187 205 221 23 11 55
31 72 43 17 13 57 31 88 40 32 9 82 28 112 42 84 38 337 65 403 42z m317 -45
c31 -14 84 -32 117 -41 159 -40 350 -235 350 -356 0 -44 -66 -183 -94 -198
-10 -5 -38 -27 -63 -48 -25 -22 -61 -44 -81 -51 -20 -6 -55 -22 -78 -35 -54
-30 -236 -61 -266 -45 -36 19 -41 72 -41 424 0 302 2 341 17 358 23 25 70 23
139 -8z"/>
</g>
</svg>
