<?xml version="1.0" standalone="no"?>
<!DOCTYPE svg PUBLIC "-//W3C//DTD SVG 20010904//EN"
 "http://www.w3.org/TR/2001/REC-SVG-20010904/DTD/svg10.dtd">
<svg version="1.0" xmlns="http://www.w3.org/2000/svg"
 width="408.000000pt" height="568.000000pt" viewBox="0 0 408.000000 568.000000"
 preserveAspectRatio="xMidYMid meet">
<metadata>
Created by potrace 1.16, written by Peter Selinger 2001-2019
</metadata>
<rect x="0" y="0" width="408" height="568" fill="#ffffff"/>
<g transform="translate(0.000000,568.000000) scale(0.100000,-0.100000)"
fill="#000000" stroke="none">
<path d="M1582 5660 c-16 -27 -48 -38 -151 -56 -47 -9 -112 -26 -145 -40 -34
-14 -88 -32 -121 -40 -32 -9 -78 -27 -100 -40 -23 -13 -68 -33 -100 -44 -32
-11 -66 -27 -75 -35 -9 -8 -44 -28 -77 -45 -34 -16 -64 -34 -68 -40 -3 -5 -23
-19 -44 -30 -50 -25 -91 -61 -245 -216 -143 -142 -199 -206 -218 -250 -7 -16
-27 -51 -45 -78 -18 -26 -33 -55 -33 -62 0 -8 -16 -45 -35 -82 -30 -57 -37
-83 -45 -169 -6 -68 -17 -116 -32 -147 l-22 -46 22 -45 c13 -26 26 -81 31
-130 7 -60 18 -102 38 -138 36 -68 202 -232 251 -248 20 -6 52 -23 70 -36 19
-14 59 -32 90 -40 32 -8 83 -26 115 -39 31 -13 108 -33 170 -44 61 -10 132
-26 157 -35 25 -9 92 -27 149 -41 57 -13 119 -33 137 -44 18 -12 56 -28 86
-36 30 -9 71 -32 95 -53 111 -95 219 -166 279 -183 33 -9 64 -32 64 -47 0 -16
-36 -38 -77 -48 -23 -6 -63 -23 -89 -39 -54 -33 -174 -142 -174 -158 0 -6 -14
-38 -30 -70 -17 -33 -30 -75 -30 -95 0 -44 44 -165 77 -208 29 -39 146 -133
188 -151 17 -8 46 -24 65 -38 20 -13 83 -37 140 -53 131 -37 150 -55 150 -142
0 -61 -20 -118 -43 -120 -6 -1 -78 -1 -160 1 -107 2 -164 -2 -210 -13 -34 -9
-98 -21 -141 -28 -44 -7 -100 -23 -125 -36 -25 -14 -71 -33 -101 -44 -30 -11
-63 -28 -75 -38 -11 -10 -32 -25 -47 -32 -37 -20 -115 -95 -165 -160 -55 -71
-66 -122 -61 -267 4 -126 1 -116 76 -228 36 -53 145 -154 167 -154 8 0 30 -14
49 -30 19 -17 58 -39 88 -50 29 -10 81 -30 116 -45 34 -14 97 -32 140 -40 42
-7 89 -18 104 -24 45 -17 149 -33 239 -36 48 -2 96 -6 107 -9 37 -12 44 -53
40 -243 -3 -171 -4 -180 -32 -241 -39 -85 -38 -111 7 -161 21 -23 37 -50 37
-62 0 -18 5 -20 62 -17 59 3 62 4 69 32 5 16 17 38 27 50 40 43 43 60 22 120
-30 88 -45 200 -45 338 0 112 2 130 20 154 29 38 98 60 315 100 47 8 107 26
133 40 27 14 75 33 108 43 32 10 72 30 89 45 17 14 48 30 69 36 21 5 46 20 57
31 10 12 32 30 49 40 48 30 196 181 214 219 9 19 30 58 46 85 29 49 30 52 30
190 l0 140 -42 65 c-23 36 -50 74 -61 85 -48 50 -90 84 -121 100 -19 9 -52 30
-74 46 -22 16 -46 29 -53 29 -7 0 -46 18 -86 39 -41 22 -101 47 -134 56 -32
10 -76 26 -97 37 -22 11 -96 33 -165 49 -218 50 -272 72 -272 108 0 33 29 44
138 53 59 5 127 15 152 23 96 29 168 61 203 90 19 17 53 42 75 56 29 20 49 47
80 112 53 107 55 148 10 236 -40 77 -52 89 -148 151 -114 72 -114 74 -55 127
28 24 71 58 98 75 26 16 53 37 60 47 6 9 27 27 45 40 19 13 45 34 59 47 14 13
31 24 38 24 6 0 33 14 60 31 26 17 70 39 97 50 26 10 65 30 85 43 21 14 56 32
78 40 46 16 146 73 189 108 16 13 50 37 76 53 95 60 284 227 333 294 12 17 47
63 78 103 32 41 64 97 74 127 10 29 33 71 51 91 l34 37 0 217 c0 174 -3 216
-13 216 -22 0 -46 33 -66 91 -29 85 -109 194 -223 304 -104 101 -170 154 -238
190 -20 11 -52 32 -71 46 -19 14 -56 33 -84 42 -27 10 -65 28 -85 42 -20 14
-63 30 -95 36 -33 6 -81 22 -109 36 -28 14 -86 31 -138 38 -109 17 -154 31
-195 61 l-32 24 -568 0 c-561 0 -568 0 -581 -20z m818 -300 c252 -9 286 -12
410 -41 74 -17 168 -35 209 -40 47 -5 92 -18 125 -35 28 -15 80 -33 115 -41
36 -7 79 -25 97 -38 18 -14 57 -34 87 -45 30 -11 61 -28 68 -36 7 -9 31 -25
53 -36 98 -50 252 -206 281 -286 6 -15 23 -49 40 -77 27 -46 30 -59 34 -159 4
-123 -2 -150 -60 -269 -85 -175 -427 -508 -599 -583 -14 -6 -47 -25 -74 -43
-28 -17 -58 -31 -67 -31 -10 0 -30 -11 -46 -24 -42 -35 -72 -48 -93 -41 -30 9
-25 53 14 148 84 204 84 642 0 834 -14 30 -29 78 -35 107 -6 28 -23 69 -38 91
-16 22 -38 60 -50 85 -24 52 -97 146 -157 205 -92 89 -123 115 -137 115 -8 0
-35 16 -60 35 -36 27 -74 42 -184 71 -127 33 -146 36 -240 31 -80 -4 -112 -10
-145 -27 -24 -12 -72 -26 -108 -31 -51 -6 -69 -13 -85 -33 -20 -24 -73 -51
-83 -42 -13 14 11 54 42 69 19 9 42 30 51 46 11 23 27 34 67 46 29 8 65 27 80
42 46 44 90 47 488 33z m-852 -103 c3 -12 -24 -46 -78 -100 -45 -44 -93 -99
-107 -121 -14 -23 -34 -50 -44 -62 -17 -18 -32 -44 -97 -169 -42 -81 -94 -245
-108 -341 -37 -265 -2 -604 80 -762 19 -37 21 -83 4 -100 -19 -19 -47 -15
-204 33 -81 25 -156 45 -166 45 -11 0 -54 14 -96 31 -43 17 -98 37 -123 44
-25 7 -69 29 -98 49 -29 20 -58 36 -65 36 -18 1 -129 114 -160 164 -35 58 -45
101 -46 192 0 94 17 180 44 229 13 22 29 57 36 78 6 21 22 50 34 65 13 15 31
43 41 62 28 55 72 108 180 214 63 62 117 106 145 118 25 10 59 32 75 47 17 16
45 33 62 39 18 6 48 22 65 36 18 13 53 29 78 36 25 6 62 22 82 36 21 13 75 33
120 44 46 11 119 33 163 50 94 35 177 38 183 7z m67 -196 c-8 -16 -32 -50 -54
-74 -23 -27 -41 -61 -46 -83 -4 -21 -15 -50 -26 -65 -29 -41 -42 -121 -37
-238 3 -85 8 -113 25 -141 12 -19 28 -61 37 -92 9 -31 21 -60 27 -63 6 -4 29
-31 52 -60 55 -70 162 -150 224 -168 27 -8 68 -24 90 -35 29 -15 68 -23 139
-27 129 -8 168 -19 221 -63 85 -72 124 -127 144 -209 24 -96 24 -120 -2 -206
-24 -80 -84 -154 -153 -187 -23 -11 -55 -29 -72 -40 -17 -11 -67 -25 -120 -33
-120 -18 -280 0 -328 37 -17 13 -54 35 -82 49 -74 37 -228 197 -281 291 -49
87 -86 183 -118 311 l-37 149 4 176 c4 174 5 176 45 295 72 210 110 279 216
387 31 32 57 63 57 69 0 11 59 49 78 49 10 0 9 -7 -3 -29z m674 -21 c36 -6 78
-21 99 -35 20 -14 57 -32 83 -40 55 -19 224 -177 257 -241 11 -22 27 -46 36
-53 8 -7 24 -37 36 -67 11 -30 31 -76 44 -103 14 -27 30 -79 36 -117 6 -38 18
-94 27 -124 24 -89 14 -336 -20 -470 -31 -125 -89 -263 -128 -305 -15 -16 -31
-42 -34 -58 -8 -29 -48 -67 -73 -67 -23 0 -8 86 23 130 23 33 25 44 26 180 2
137 0 148 -23 195 -14 28 -31 67 -37 87 -33 100 -195 260 -297 291 -27 9 -75
25 -106 36 -34 13 -82 21 -117 21 -33 0 -94 7 -136 17 -66 14 -83 23 -144 74
-55 47 -73 69 -89 111 -11 29 -30 73 -41 98 -30 65 -26 91 23 194 47 96 85
140 151 175 22 12 55 31 73 43 54 34 211 47 331 28z m341 -1703 c0 -20 -30
-57 -46 -57 -20 0 -17 27 6 50 23 23 40 26 40 7z m-146 -155 c10 -16 -25 -52
-50 -52 -26 0 -33 27 -12 48 14 14 54 16 62 4z m-55 -191 c151 -50 165 -57
234 -129 50 -53 57 -65 57 -101 0 -50 -44 -105 -107 -132 -23 -10 -55 -27 -70
-38 -17 -12 -66 -26 -128 -37 -126 -21 -187 -10 -246 43 -57 52 -117 56 -179
14 -25 -17 -51 -31 -59 -31 -23 0 -138 68 -159 95 -40 50 -46 81 -27 130 9 25
28 53 42 63 14 9 38 29 54 45 29 29 86 57 116 57 10 0 47 14 83 30 58 26 76
29 168 30 93 0 114 -4 221 -39z m-860 -337 c12 -15 21 -32 21 -38 0 -22 62
-97 106 -127 24 -16 51 -43 59 -59 15 -28 19 -30 74 -30 77 0 91 -6 91 -40 0
-29 -15 -40 -56 -40 -33 0 -81 25 -93 49 -6 10 -30 24 -55 30 -42 10 -120 67
-168 122 -20 24 -51 126 -44 145 9 23 43 16 65 -12z m693 -544 c14 -10 61 -27
104 -35 43 -9 111 -30 149 -45 39 -16 90 -34 115 -40 25 -7 56 -20 70 -30 14
-10 50 -30 80 -44 30 -14 80 -40 111 -58 63 -37 217 -190 225 -225 3 -12 4
-60 3 -105 -4 -83 -4 -84 -56 -153 -82 -109 -161 -164 -164 -113 0 7 -1 63 -3
123 -2 72 -8 122 -18 146 -36 82 -161 213 -232 243 -21 9 -51 27 -67 41 -17
13 -49 30 -72 36 -23 6 -66 23 -97 39 -36 18 -85 31 -140 39 -71 9 -89 15
-107 36 -28 32 -31 108 -7 143 19 28 72 29 106 2z m-272 -279 c25 -48 -5 -154
-53 -185 -13 -9 -71 -25 -127 -36 -73 -14 -116 -28 -144 -47 -23 -15 -57 -35
-76 -44 -19 -9 -58 -41 -86 -71 -43 -47 -55 -69 -83 -157 l-33 -101 21 -40
c23 -45 27 -85 10 -96 -23 -14 -71 -5 -102 19 -18 13 -52 33 -77 44 -25 11
-80 54 -122 94 -69 67 -78 79 -88 130 -29 133 52 252 255 371 39 23 93 47 120
54 28 7 81 25 119 39 75 28 182 41 353 44 92 1 103 -1 113 -18z m318 -20 c35
-11 69 -24 75 -29 7 -6 37 -17 68 -26 51 -15 91 -37 185 -100 49 -33 141 -140
154 -181 18 -56 16 -149 -4 -180 -26 -40 -47 -28 -74 42 -19 50 -35 72 -87
118 -35 30 -79 61 -97 67 -18 6 -48 22 -67 36 -25 18 -68 33 -145 49 -121 24
-137 35 -156 101 -13 50 -13 95 2 110 17 17 74 15 146 -7z m-1 -450 c46 -6 97
-18 114 -28 17 -10 52 -29 77 -43 53 -29 100 -97 101 -147 1 -22 -8 -42 -26
-63 -24 -26 -41 -32 -117 -45 -48 -9 -96 -20 -106 -25 -46 -25 -122 -1 -204
63 -25 20 -50 31 -70 31 -41 0 -119 -54 -151 -105 -24 -36 -28 -39 -73 -39
-65 1 -117 27 -190 96 -51 49 -62 65 -62 92 0 45 63 111 154 161 87 47 164 63
271 56 44 -3 100 -2 125 3 25 5 52 8 60 6 8 -2 52 -8 97 -13z"/>
</g>
</svg>
