<?xml version="1.0" standalone="no"?>
<!DOCTYPE svg PUBLIC "-//W3C//DTD SVG 20010904//EN"
 "http://www.w3.org/TR/2001/REC-SVG-20010904/DTD/svg10.dtd">
<svg version="1.0" xmlns="http://www.w3.org/2000/svg"
 width="416.000000pt" height="536.000000pt" viewBox="0 0 416.000000 536.000000"
 preserveAspectRatio="xMidYMid meet">
<metadata>
Created by potrace 1.16, written by Peter Selinger 2001-2019
</metadata>
<rect x="0" y="0" width="416" height="536" fill="#ffffff"/>
<g transform="translate(0.000000,536.000000) scale(0.100000,-0.100000)"
fill="#000000" stroke="none">
<path d="M2044 5286 c-99 -46 -137 -142 -86 -214 22 -30 28 -76 14 -100 -12
-19 -64 -30 -113 -25 -29 3 -66 -3 -108 -16 -35 -12 -76 -21 -91 -21 -15 0
-58 -6 -96 -14 -38 -8 -98 -19 -133 -26 -35 -6 -86 -21 -115 -34 -28 -12 -80
-28 -116 -35 -37 -7 -84 -25 -108 -41 -24 -16 -67 -34 -95 -40 -29 -6 -70 -23
-92 -39 -22 -15 -55 -33 -73 -39 -19 -6 -47 -23 -64 -37 -17 -14 -47 -33 -67
-41 -20 -8 -47 -25 -61 -38 -14 -13 -45 -37 -70 -55 -127 -90 -167 -132 -337
-359 -65 -87 -153 -280 -153 -336 0 -20 -9 -62 -20 -93 -22 -64 -27 -191 -9
-225 6 -11 18 -61 26 -111 21 -135 100 -271 235 -405 78 -79 120 -113 168
-137 19 -10 52 -33 73 -51 20 -19 43 -34 51 -34 8 0 33 -15 55 -34 23 -19 65
-42 94 -50 30 -9 62 -24 71 -35 10 -11 46 -29 81 -41 34 -11 76 -31 94 -44 17
-13 50 -26 72 -30 22 -4 63 -18 89 -31 27 -14 84 -34 127 -46 43 -12 111 -34
150 -50 40 -16 105 -36 145 -45 40 -9 86 -23 102 -31 16 -8 81 -26 145 -39 64
-14 144 -34 179 -44 34 -11 100 -27 147 -35 47 -9 118 -28 158 -41 39 -14 106
-36 147 -48 95 -30 264 -100 299 -125 15 -11 40 -23 55 -27 15 -4 47 -21 69
-38 23 -17 56 -40 72 -50 17 -11 57 -42 89 -70 47 -41 67 -69 102 -140 39 -78
44 -98 44 -156 0 -60 -5 -77 -49 -166 -38 -77 -65 -116 -122 -175 -41 -42 -92
-85 -114 -97 -22 -11 -49 -29 -59 -41 -11 -12 -38 -26 -60 -32 -23 -6 -60 -23
-82 -39 -30 -21 -62 -33 -115 -40 -41 -7 -108 -22 -149 -35 -83 -25 -196 -41
-234 -31 -55 14 -64 174 -12 208 6 4 30 8 52 8 73 0 148 20 189 49 22 15 51
32 65 36 27 9 140 117 140 135 0 6 14 44 31 82 27 61 30 78 24 122 -11 87 -61
184 -126 249 -32 31 -65 57 -72 57 -7 0 -35 15 -61 34 -28 20 -66 37 -92 41
-24 3 -80 19 -126 35 l-83 30 -256 0 c-224 0 -267 -3 -350 -21 -52 -12 -135
-29 -184 -38 -64 -12 -101 -24 -125 -43 -19 -14 -54 -31 -76 -37 -106 -28
-234 -173 -279 -315 -66 -209 2 -428 179 -573 89 -75 187 -137 241 -153 22 -7
65 -25 95 -41 49 -25 125 -43 285 -69 28 -4 73 -15 100 -24 38 -13 66 -16 121
-11 66 7 74 5 94 -15 28 -28 24 -54 -24 -178 -54 -137 -47 -205 24 -266 60
-50 160 -57 225 -17 17 10 42 42 59 76 l29 58 -27 78 c-14 43 -26 89 -26 102
0 13 -7 45 -16 71 -16 46 -16 49 3 74 30 40 65 53 209 77 101 17 143 29 185
52 30 17 70 34 90 37 21 4 49 16 63 27 15 12 53 34 84 51 31 16 80 46 108 66
70 50 212 199 231 241 8 19 26 49 39 67 14 17 38 76 55 130 27 85 31 109 26
170 -12 156 -60 256 -182 380 -163 164 -542 336 -985 446 -47 11 -130 34 -185
51 -55 16 -138 40 -185 53 -102 27 -226 68 -295 96 -27 12 -88 34 -133 50 -46
15 -97 38 -114 49 -16 12 -50 28 -75 35 -25 8 -61 25 -79 39 -17 13 -57 34
-87 45 -30 11 -61 28 -68 36 -7 9 -36 27 -63 41 -50 25 -64 35 -159 114 -27
21 -61 46 -75 53 -54 28 -175 171 -237 281 -16 29 -39 68 -50 87 -18 29 -20
51 -20 193 0 159 0 160 31 220 17 33 37 77 43 97 7 21 28 56 47 79 19 22 34
47 34 54 0 30 174 223 245 271 99 67 120 83 152 109 18 15 56 36 84 46 28 11
66 30 83 43 17 13 54 31 83 40 29 10 76 30 105 47 29 16 62 29 73 29 11 0 58
14 105 31 47 17 144 41 215 54 72 13 174 34 228 46 158 35 170 21 166 -196 -2
-94 1 -147 9 -162 18 -33 15 -71 -7 -83 -11 -5 -48 -10 -83 -10 -78 0 -198
-24 -249 -51 -22 -11 -63 -24 -92 -29 -29 -6 -74 -25 -102 -44 -27 -19 -61
-39 -75 -46 -23 -12 -53 -37 -108 -92 -138 -136 -187 -352 -126 -547 15 -47
38 -96 54 -114 15 -18 34 -46 43 -64 9 -17 32 -41 51 -52 19 -12 36 -28 40
-36 3 -8 24 -24 47 -35 23 -12 60 -35 82 -51 22 -16 45 -29 51 -29 6 0 45 -16
85 -35 83 -40 315 -100 456 -118 103 -13 539 -16 665 -4 89 8 210 28 320 52
36 8 97 19 135 25 39 6 95 22 125 35 30 13 83 31 118 40 34 9 83 29 109 45 26
17 54 30 63 30 42 0 255 159 291 217 11 17 25 33 33 36 7 3 37 52 65 108 41
81 54 119 62 178 5 42 16 95 25 118 16 41 16 48 -4 126 -12 45 -23 105 -26
134 -6 61 -72 200 -122 256 -19 20 -34 42 -34 48 0 11 -117 127 -172 170 -18
15 -51 35 -73 47 -22 11 -51 32 -64 46 -13 14 -40 31 -60 37 -20 6 -51 22 -69
36 -17 13 -57 33 -87 43 -30 10 -73 30 -97 43 -24 14 -72 30 -108 37 -36 6
-95 25 -133 41 -43 19 -98 33 -150 39 -94 11 -228 36 -273 51 -18 5 -74 12
-125 14 -173 8 -259 19 -270 35 -5 8 -7 35 -4 60 21 180 17 200 -50 237 -63
34 -85 36 -141 9z m551 -576 c61 -6 138 -19 172 -30 34 -10 111 -26 170 -34
65 -9 140 -28 188 -46 43 -17 101 -36 127 -41 26 -6 64 -22 85 -36 21 -14 58
-33 83 -41 25 -8 56 -25 70 -37 14 -13 41 -31 60 -40 76 -39 258 -213 292
-280 11 -22 31 -55 45 -73 17 -23 29 -60 41 -127 14 -81 14 -108 4 -191 -17
-133 -55 -209 -159 -316 -84 -87 -133 -125 -182 -143 -23 -8 -56 -25 -74 -39
-17 -13 -59 -32 -92 -41 -33 -10 -74 -26 -92 -37 -18 -10 -83 -30 -145 -43
-62 -13 -125 -28 -141 -34 -89 -34 -314 -55 -597 -56 -261 0 -471 19 -528 49
-16 8 -62 24 -102 35 -40 11 -93 33 -119 50 -25 16 -63 34 -84 41 -26 8 -70
44 -142 115 -82 82 -106 112 -116 147 -16 57 -17 214 -1 259 16 46 154 186
202 206 19 8 49 26 67 39 29 22 91 42 203 65 25 5 62 16 83 25 45 21 82 9 97
-31 15 -39 -11 -93 -47 -100 -62 -14 -86 -26 -137 -70 -40 -35 -59 -62 -79
-111 -15 -35 -27 -77 -27 -92 1 -51 48 -166 79 -192 82 -69 118 -91 169 -106
30 -9 73 -25 96 -35 35 -16 67 -19 213 -19 160 0 177 2 235 25 35 13 82 29
105 35 23 6 55 21 70 34 15 13 42 31 60 39 17 9 42 31 54 49 13 18 33 44 46
57 13 13 28 42 34 65 16 57 8 274 -11 307 -32 57 -114 148 -143 160 -17 7 -45
26 -63 41 -57 50 -318 128 -429 128 -75 0 -79 10 -70 164 4 67 7 156 6 198 -2
115 2 118 177 118 75 0 187 -5 247 -10z m-333 -650 c20 -11 81 -29 134 -40 53
-11 109 -28 124 -37 81 -53 109 -74 147 -116 48 -52 57 -78 51 -147 -5 -54
-23 -80 -107 -154 -49 -44 -56 -47 -99 -44 -46 3 -47 4 -44 33 2 16 19 46 38
67 28 32 34 46 34 84 0 52 -9 71 -58 132 -43 53 -71 68 -186 99 -50 14 -99 32
-108 40 -22 20 -23 66 -2 87 20 21 32 20 76 -4z m23 -286 c66 -15 86 -66 39
-103 -32 -25 -55 -26 -99 -6 -73 35 -61 136 15 119 8 -2 29 -6 45 -10z m-281
-40 c9 -9 16 -33 16 -57 0 -28 8 -53 26 -78 32 -46 29 -73 -9 -77 -35 -4 -102
39 -123 79 -42 83 32 192 90 133z m196 -2022 c94 -25 138 -42 183 -73 33 -21
63 -39 68 -39 15 0 99 -136 99 -161 0 -41 -72 -143 -111 -159 -19 -7 -53 -27
-77 -42 -34 -24 -51 -29 -90 -26 -63 4 -69 29 -13 58 47 23 66 50 75 102 10
57 -10 115 -57 165 -37 39 -53 47 -147 74 -121 36 -174 35 -307 -1 -67 -19
-93 -32 -140 -72 -76 -63 -86 -88 -81 -209 l3 -97 45 -49 c25 -27 63 -59 85
-71 22 -12 51 -31 66 -42 15 -13 51 -25 92 -30 90 -13 135 -33 141 -62 3 -13
7 -47 11 -76 5 -47 3 -55 -20 -78 -25 -25 -27 -25 -133 -18 -59 3 -122 12
-140 20 -17 7 -56 18 -85 23 -147 29 -231 52 -257 71 -17 12 -48 27 -70 33
-51 15 -197 149 -247 225 -32 49 -38 67 -41 127 -3 62 -1 74 22 105 14 19 34
52 46 73 11 20 24 37 28 37 5 0 26 15 48 33 21 19 62 42 91 51 28 10 64 27 78
38 24 19 137 47 315 79 30 5 71 14 90 19 19 4 96 8 170 6 116 -1 152 -6 260
-34z m-364 -299 c4 -10 10 -46 13 -80 l6 -63 -28 0 c-62 0 -99 84 -61 138 18
26 59 29 70 5z m362 -7 c3 -12 -1 -17 -10 -14 -7 3 -15 13 -16 22 -3 12 1 17
10 14 7 -3 15 -13 16 -22z m-158 -32 c0 -9 -7 -14 -17 -12 -25 5 -28 28 -4 28
12 0 21 -6 21 -16z m-140 -124 c8 -5 11 -12 8 -16 -10 -9 -38 3 -38 16 0 12
10 13 30 0z"/>
</g>
</svg>
