<?xml version="1.0" standalone="no"?>
<!DOCTYPE svg PUBLIC "-//W3C//DTD SVG 20010904//EN"
 "http://www.w3.org/TR/2001/REC-SVG-20010904/DTD/svg10.dtd">
<svg version="1.0" xmlns="http://www.w3.org/2000/svg"
 width="424.000000pt" height="480.000000pt" viewBox="0 0 424.000000 480.000000"
 preserveAspectRatio="xMidYMid meet">
<metadata>
Created by potrace 1.16, written by Peter Selinger 2001-2019
</metadata>
<rect x="0" y="0" width="424" height="480" fill="#ffffff"/>
<g transform="translate(0.000000,480.000000) scale(0.100000,-0.100000)"
fill="#000000" stroke="none">
<path d="M1951 4729 c-24 -76 -23 -105 10 -150 44 -62 16 -102 -81 -114 -30
-4 -98 -18 -150 -31 -52 -13 -128 -28 -169 -34 -40 -6 -103 -23 -140 -39 -36
-16 -91 -34 -122 -40 -31 -5 -87 -26 -124 -45 -36 -20 -77 -36 -90 -36 -12 0
-45 -15 -71 -33 -27 -19 -66 -40 -87 -46 -21 -7 -53 -25 -70 -40 -18 -15 -53
-38 -79 -50 -27 -13 -48 -27 -48 -31 0 -5 -17 -19 -37 -31 -47 -28 -72 -51
-193 -171 -108 -107 -159 -167 -185 -218 -10 -19 -28 -47 -41 -62 -12 -15 -28
-44 -35 -65 -6 -21 -24 -56 -40 -78 -16 -24 -31 -60 -35 -90 -3 -27 -15 -76
-26 -107 -16 -47 -19 -79 -16 -195 3 -116 8 -152 31 -226 15 -49 36 -101 48
-115 11 -15 27 -42 35 -60 22 -54 121 -164 231 -258 104 -88 274 -204 299
-204 7 0 29 -14 48 -30 19 -17 56 -38 83 -47 26 -8 63 -27 82 -41 18 -14 60
-33 92 -43 32 -10 75 -29 96 -42 21 -13 60 -29 87 -36 27 -6 70 -23 95 -36 26
-13 76 -31 111 -40 34 -9 87 -29 117 -45 40 -21 74 -30 133 -36 91 -8 121 -23
104 -51 -17 -28 -79 -59 -184 -94 -52 -17 -117 -43 -145 -58 -27 -15 -66 -33
-85 -41 -19 -7 -51 -23 -70 -35 -19 -12 -55 -34 -80 -49 -68 -40 -177 -135
-226 -196 -56 -70 -80 -123 -109 -232 -22 -86 -22 -88 -4 -140 11 -29 19 -60
19 -70 0 -52 90 -220 162 -301 48 -55 166 -150 218 -177 25 -12 55 -33 68 -45
12 -13 44 -28 70 -35 26 -6 67 -24 92 -40 25 -16 65 -32 90 -36 25 -4 84 -22
132 -40 48 -19 96 -34 105 -34 10 0 35 -5 56 -11 30 -8 42 -18 53 -45 l14 -34
134 0 c126 0 135 1 141 20 10 30 37 41 76 30 52 -15 162 -12 204 6 21 8 91 20
156 24 92 7 136 16 196 39 43 16 97 35 120 41 23 6 55 21 70 34 15 13 46 33
69 44 73 37 177 152 225 249 l44 88 -1 115 c-2 113 -3 116 -43 195 -45 91
-159 211 -225 239 -21 9 -51 27 -67 40 -16 14 -46 28 -67 32 -20 4 -62 16 -92
26 -117 42 -161 49 -391 62 -172 10 -249 10 -287 3 -74 -16 -86 -2 -90 107 -3
67 0 93 16 129 17 39 26 47 70 61 41 14 55 25 75 59 29 48 91 95 160 121 26
10 53 27 61 38 8 11 29 30 46 42 23 15 44 47 71 106 47 104 50 155 14 226 -14
27 -30 63 -35 80 -6 17 -24 43 -40 58 -56 49 -38 70 65 72 137 3 312 24 420
50 61 14 149 34 196 44 47 10 99 25 115 33 16 8 63 25 104 37 41 13 104 38
139 56 35 19 70 34 77 34 8 0 31 15 51 34 21 18 54 41 73 51 78 40 199 185
262 315 42 87 46 105 57 215 23 239 -15 385 -151 587 -48 72 -177 200 -243
243 -29 18 -56 38 -60 44 -3 6 -28 22 -54 35 -26 14 -53 31 -60 40 -7 8 -36
22 -64 32 -29 9 -72 29 -97 44 -25 15 -69 33 -98 39 -29 6 -66 18 -83 26 -39
21 -142 51 -199 59 -25 4 -88 17 -140 31 -129 32 -258 45 -450 45 -92 0 -170
4 -181 10 -25 14 -25 60 0 92 33 41 34 71 10 147 l-23 71 -146 0 -146 0 -23
-71z m70 -588 c28 -22 37 -84 38 -257 1 -142 -4 -154 -75 -164 -161 -24 -318
-60 -358 -84 -23 -14 -60 -31 -82 -39 -80 -27 -240 -165 -264 -227 -8 -19 -28
-54 -45 -78 -29 -42 -30 -47 -34 -175 -2 -79 1 -145 8 -168 28 -92 163 -270
231 -304 19 -9 46 -28 60 -40 38 -35 188 -111 247 -124 81 -20 220 -66 236
-79 35 -29 60 -115 62 -212 2 -52 6 -134 10 -182 9 -100 3 -134 -25 -143 -18
-6 -124 13 -200 35 -19 5 -62 15 -95 21 -33 6 -98 26 -145 44 -47 18 -103 36
-124 40 -22 3 -61 17 -86 30 -25 13 -71 31 -103 40 -31 9 -86 32 -123 51 -36
19 -73 34 -83 34 -10 0 -38 14 -62 32 -24 17 -63 37 -87 44 -23 7 -62 26 -85
42 -23 16 -60 41 -82 56 -99 66 -135 96 -231 193 -57 56 -113 122 -125 145
-12 24 -34 61 -50 83 -31 44 -69 188 -69 261 0 24 9 76 19 116 11 40 22 89 25
108 3 20 22 60 41 90 19 30 35 59 35 66 0 6 11 23 25 38 13 14 38 45 55 68 91
126 159 195 244 246 16 9 45 31 65 48 20 18 53 39 74 48 22 9 52 27 68 40 16
14 54 32 85 41 31 9 73 27 93 41 20 13 64 29 96 34 33 6 89 24 125 40 36 16
88 31 115 35 28 4 120 22 205 40 216 48 334 56 371 26z m724 -24 c83 -19 175
-37 205 -41 30 -4 84 -20 120 -36 36 -16 92 -34 125 -40 32 -5 76 -21 96 -34
20 -14 61 -32 92 -41 30 -9 63 -25 73 -36 11 -12 42 -33 69 -46 28 -14 65 -37
83 -52 75 -59 206 -199 229 -246 14 -27 37 -67 52 -89 24 -37 26 -48 29 -180
3 -135 2 -143 -22 -186 -13 -25 -34 -65 -46 -89 -26 -55 -133 -177 -174 -198
-17 -9 -47 -28 -66 -43 -41 -32 -195 -103 -260 -120 -25 -7 -83 -25 -130 -40
-47 -16 -138 -36 -203 -44 -64 -9 -126 -20 -137 -26 -10 -5 -43 -10 -74 -10
-30 0 -65 -4 -78 -9 -13 -5 -96 -12 -183 -16 l-160 -7 -35 26 c-19 14 -50 33
-69 42 -19 9 -51 27 -70 40 -46 31 -89 30 -154 -3 -42 -22 -65 -27 -122 -27
-59 0 -83 6 -151 37 -45 20 -86 37 -92 37 -5 0 -33 16 -61 35 -28 19 -55 35
-60 35 -21 0 -179 170 -202 217 -21 41 -24 63 -24 153 0 85 4 114 21 151 26
55 148 180 201 204 42 19 68 32 126 63 21 11 68 23 105 27 37 4 84 13 105 21
59 22 123 19 141 -8 19 -27 21 -78 4 -101 -7 -9 -51 -34 -98 -55 -71 -33 -92
-49 -130 -96 -50 -63 -58 -81 -59 -146 -2 -71 13 -105 75 -175 41 -46 70 -69
103 -82 25 -9 64 -27 86 -39 57 -32 138 -44 294 -44 145 0 194 9 296 54 107
48 120 56 186 119 111 106 142 223 96 369 -23 73 -33 89 -83 138 -31 30 -68
67 -83 82 -14 15 -46 34 -71 43 -25 9 -61 26 -80 39 -24 17 -65 29 -136 40
-56 8 -113 20 -128 26 -15 5 -43 10 -62 10 -21 0 -42 8 -54 20 -18 18 -20 33
-20 180 0 173 9 211 53 231 13 5 93 7 192 4 146 -4 191 -9 320 -38z m-423
-571 c51 -14 112 -27 135 -31 24 -4 59 -18 78 -31 20 -13 49 -31 66 -39 75
-40 148 -144 149 -213 0 -40 -41 -130 -72 -159 -13 -12 -64 -42 -114 -67 -99
-50 -77 -46 -289 -45 -11 0 -59 0 -106 -1 -83 -1 -88 1 -138 35 -29 19 -57 35
-61 35 -15 0 -58 59 -65 89 -13 60 58 151 118 151 35 0 48 -28 41 -82 -10 -72
14 -114 82 -144 109 -48 129 -50 224 -20 46 15 90 32 98 38 7 7 27 39 44 71
29 59 30 60 13 103 -32 84 -66 118 -151 153 -53 21 -96 31 -130 31 -62 0 -79
16 -79 72 0 30 6 45 24 59 29 23 21 24 133 -5z m-37 -260 c77 -16 103 -31 111
-61 16 -65 -29 -105 -118 -105 -82 0 -127 45 -114 113 7 38 29 67 49 67 7 -1
39 -7 72 -14z m54 -1016 c24 -17 49 -30 56 -30 34 0 145 -138 145 -179 0 -30
-73 -130 -107 -146 -17 -9 -47 -28 -64 -43 -60 -50 -138 -32 -175 40 -28 54
-14 336 18 375 19 23 80 15 127 -17z m-289 -685 c7 -9 13 -63 15 -150 3 -151
-2 -165 -56 -165 -17 0 -76 -15 -132 -34 -56 -19 -118 -37 -137 -41 -19 -4
-56 -20 -81 -36 -25 -16 -61 -34 -80 -40 -19 -7 -54 -29 -79 -50 -25 -21 -63
-54 -86 -73 -22 -19 -46 -48 -54 -63 -8 -15 -28 -48 -45 -72 -30 -43 -30 -45
-30 -170 0 -69 -4 -132 -8 -138 -13 -20 -52 -15 -74 9 -11 13 -48 65 -82 116
-80 121 -101 203 -82 320 13 87 31 119 117 208 63 65 178 154 199 154 6 0 32
14 56 32 24 17 69 39 99 49 30 10 80 29 112 44 31 14 78 32 105 39 26 7 86 27
133 44 93 34 170 41 190 17z m444 -460 c77 -11 123 -23 164 -44 31 -16 77 -35
102 -41 25 -7 59 -22 75 -34 17 -13 46 -31 65 -41 61 -31 141 -112 202 -204
11 -15 18 -45 18 -71 0 -39 -7 -56 -51 -115 -31 -43 -67 -79 -92 -94 -23 -13
-55 -34 -70 -47 -15 -13 -47 -28 -70 -35 -23 -6 -73 -24 -110 -40 -37 -17
-104 -36 -148 -44 -44 -8 -84 -17 -89 -20 -8 -5 -47 -13 -201 -42 -27 -5 -82
17 -96 39 -23 37 -37 786 -15 826 12 20 19 22 111 22 53 0 146 -7 205 -15z
m-428 -30 c15 -23 15 -35 5 -95 -6 -40 -11 -189 -11 -359 0 -278 -1 -292 -20
-311 -39 -39 -183 -18 -318 47 -115 54 -182 104 -235 174 -40 51 -42 58 -45
134 l-4 80 44 55 c49 63 140 150 156 150 6 0 25 12 42 27 18 14 62 37 98 51
226 83 260 89 288 47z"/>
</g>
</svg>
