<?xml version="1.0" standalone="no"?>
<!DOCTYPE svg PUBLIC "-//W3C//DTD SVG 20010904//EN"
 "http://www.w3.org/TR/2001/REC-SVG-20010904/DTD/svg10.dtd">
<svg version="1.0" xmlns="http://www.w3.org/2000/svg"
 width="408.000000pt" height="592.000000pt" viewBox="0 0 408.000000 592.000000"
 preserveAspectRatio="xMidYMid meet">
<metadata>
Created by potrace 1.16, written by Peter Selinger 2001-2019
</metadata>
<rect x="0" y="0" width="408" height="592" fill="#ffffff"/>
<g transform="translate(0.000000,592.000000) scale(0.100000,-0.100000)"
fill="#000000" stroke="none">
<path d="M1935 5889 c-4 -17 -23 -49 -42 -70 -37 -41 -46 -81 -30 -140 14 -53
-4 -61 -184 -74 -118 -10 -181 -19 -224 -35 -96 -35 -108 -38 -152 -50 -23 -6
-55 -21 -71 -35 -16 -13 -54 -33 -84 -45 -30 -11 -65 -31 -77 -44 -13 -14 -35
-30 -51 -36 -29 -12 -108 -97 -129 -140 -8 -14 -29 -48 -47 -75 -23 -34 -38
-71 -44 -110 -23 -141 -7 -313 35 -363 12 -15 29 -41 38 -57 21 -42 104 -123
147 -145 20 -10 42 -26 49 -34 8 -9 41 -25 75 -35 33 -11 93 -31 131 -46 39
-15 95 -31 125 -36 148 -26 239 -39 283 -39 26 0 74 -7 107 -17 55 -15 64 -15
117 0 32 9 99 18 148 21 215 11 406 95 509 225 75 93 76 97 76 213 0 79 -4
111 -17 136 -68 124 -248 246 -382 258 -80 8 -115 27 -125 70 -9 35 9 78 38
94 36 19 242 -3 336 -35 41 -14 104 -32 140 -41 36 -8 81 -25 100 -38 20 -13
56 -33 80 -46 25 -12 60 -34 78 -49 50 -40 151 -145 152 -157 0 -7 16 -35 36
-64 47 -68 62 -144 47 -239 -10 -62 -17 -77 -66 -138 -92 -115 -228 -222 -303
-238 -17 -3 -47 -17 -65 -31 -19 -14 -59 -32 -89 -41 -30 -8 -77 -26 -103 -40
-50 -25 -175 -62 -238 -70 -28 -4 -52 3 -108 33 l-71 37 -62 -19 c-42 -12 -72
-30 -97 -55 l-36 -36 -160 -13 c-114 -9 -181 -19 -234 -37 -40 -13 -117 -31
-170 -39 -57 -10 -112 -26 -136 -39 -23 -13 -70 -31 -105 -40 -36 -9 -82 -28
-104 -42 -21 -14 -63 -33 -92 -43 -30 -11 -69 -30 -86 -43 -18 -14 -50 -30
-71 -37 -21 -7 -53 -25 -70 -40 -18 -15 -46 -35 -64 -43 -53 -28 -309 -283
-349 -348 -19 -32 -39 -59 -44 -59 -5 0 -21 -26 -36 -57 -14 -32 -35 -70 -45
-84 -10 -14 -24 -48 -30 -75 -22 -93 -41 -135 -65 -146 l-24 -11 0 -203 0
-202 33 -33 c26 -26 36 -48 46 -96 6 -33 22 -76 34 -95 13 -18 35 -54 49 -80
14 -26 41 -66 60 -89 54 -70 230 -239 268 -259 19 -10 44 -28 55 -40 11 -12
43 -32 70 -45 28 -12 56 -29 63 -38 8 -9 39 -26 70 -37 32 -12 67 -31 79 -42
12 -11 48 -29 80 -39 32 -11 73 -30 93 -43 19 -13 59 -29 89 -35 29 -6 83 -24
120 -40 36 -16 94 -34 128 -40 34 -7 100 -25 148 -41 61 -22 119 -33 198 -40
62 -5 128 -14 147 -20 19 -5 54 -10 77 -10 66 0 95 -31 101 -108 5 -71 -2
-121 -22 -148 -12 -16 -29 -19 -138 -20 -146 -3 -241 -22 -306 -62 -26 -16
-57 -33 -68 -38 -29 -12 -88 -68 -142 -133 -38 -45 -45 -60 -54 -124 -12 -86
-3 -183 20 -224 64 -113 128 -175 232 -223 25 -12 68 -32 95 -45 70 -34 204
-49 430 -48 197 0 348 19 407 49 15 8 56 23 89 34 33 10 69 26 78 34 10 9 44
29 77 45 32 16 68 39 79 51 11 12 32 28 47 36 15 8 35 29 44 47 9 17 29 46 44
64 16 18 39 67 54 114 51 160 24 379 -59 483 -38 49 -152 163 -199 199 -47 38
-197 114 -250 127 -22 6 -63 20 -91 32 -72 30 -143 48 -195 48 -25 0 -56 7
-68 16 -22 15 -22 19 -22 247 0 128 5 239 10 247 8 13 47 14 268 11 204 -2
275 0 333 12 41 9 135 21 209 27 94 9 162 21 225 41 50 15 123 35 163 44 40 8
94 26 120 39 26 13 68 29 92 36 25 6 63 24 85 39 22 16 58 34 79 41 22 7 53
25 70 41 111 102 176 168 189 195 9 17 22 36 31 43 8 7 20 29 26 49 23 75 33
93 61 108 l29 15 0 217 0 218 -30 22 c-20 15 -34 39 -45 75 -8 28 -31 74 -50
101 -19 27 -35 54 -35 60 0 6 -15 27 -35 46 -19 19 -49 50 -67 68 -85 86 -183
164 -229 182 -19 7 -47 25 -64 40 -16 15 -47 33 -67 39 -20 7 -53 23 -73 37
-20 13 -69 33 -108 44 -40 10 -93 30 -117 43 -25 14 -67 28 -95 31 -76 10
-297 66 -322 82 -48 30 -20 71 63 93 23 6 52 19 65 30 13 10 47 30 75 44 27
14 56 33 64 42 7 9 30 25 49 35 52 27 195 204 213 264 5 17 12 81 15 141 7
137 -9 246 -43 298 -14 21 -29 49 -35 64 -16 44 -91 141 -161 211 -80 81 -120
113 -173 140 -22 11 -48 29 -59 41 -10 11 -40 27 -67 36 -26 9 -64 27 -84 41
-20 13 -58 29 -83 35 -26 6 -81 22 -122 36 -41 13 -102 31 -135 40 -33 8 -65
19 -72 25 -16 13 -17 67 -3 103 14 36 -3 95 -34 124 -13 13 -30 36 -36 52
l-12 29 -113 0 -113 0 -7 -31z m21 -595 c27 -7 44 -43 44 -92 0 -64 -18 -79
-103 -84 -59 -4 -85 -11 -123 -34 -27 -16 -67 -38 -88 -49 -49 -25 -77 -62
-112 -148 -26 -64 -27 -70 -15 -120 34 -132 98 -195 238 -231 87 -23 245 -21
314 3 91 32 107 42 151 100 36 47 43 63 42 101 -1 68 -27 112 -79 138 -53 25
-61 57 -19 72 32 13 63 5 145 -36 109 -54 159 -133 145 -232 -8 -60 -28 -94
-85 -141 -55 -46 -217 -116 -304 -131 -129 -22 -282 -32 -322 -21 -22 6 -67
11 -100 11 -79 1 -203 23 -268 49 -29 11 -70 25 -92 31 -22 5 -64 24 -94 42
-56 34 -160 129 -179 164 -17 32 -25 146 -13 190 22 81 137 206 228 246 26 12
64 31 83 44 19 13 64 30 100 38 36 9 97 26 135 40 47 16 111 28 194 35 68 6
126 13 129 16 7 6 21 6 48 -1z m-148 -476 c-3 -56 -5 -63 -25 -66 -31 -5 -57
37 -44 71 9 24 46 57 64 57 4 0 7 -28 5 -62z m162 -54 c0 -8 -5 -12 -10 -9 -6
4 -8 11 -5 16 9 14 15 11 15 -7z m580 -950 c70 -16 251 -48 340 -59 30 -3 97
-21 150 -39 52 -18 111 -36 131 -40 21 -4 54 -18 75 -33 22 -14 61 -32 88 -39
27 -7 61 -24 75 -37 14 -14 45 -34 68 -46 23 -11 44 -25 48 -31 3 -6 30 -25
58 -44 55 -35 187 -166 187 -185 0 -6 15 -28 33 -48 41 -47 98 -201 104 -287
5 -63 6 -60 -61 -240 -14 -38 -36 -81 -49 -95 -13 -14 -32 -40 -42 -57 -10
-17 -31 -39 -46 -48 -16 -10 -50 -35 -75 -57 -25 -21 -51 -39 -58 -39 -6 0
-30 -13 -52 -29 -21 -16 -62 -36 -91 -44 -29 -9 -71 -27 -95 -41 -24 -14 -77
-32 -119 -41 -42 -8 -109 -27 -150 -40 -69 -24 -129 -33 -350 -54 -47 -4 -90
-11 -97 -15 -6 -3 -105 -7 -220 -7 -179 -1 -214 1 -243 16 -72 37 -83 63 -53
120 12 23 15 47 10 100 -8 98 3 114 89 144 57 19 89 23 169 22 56 -1 130 5
170 13 39 8 126 20 194 26 68 6 142 17 165 25 123 40 213 78 244 103 90 73
117 100 130 129 16 40 16 185 0 232 -16 47 -133 136 -205 157 -30 9 -73 25
-97 35 -25 11 -98 25 -176 34 -74 9 -161 21 -194 28 -33 6 -138 12 -234 12
-169 1 -175 2 -192 24 -24 29 -24 79 -3 243 16 127 37 191 73 227 19 19 33 21
129 21 61 0 135 -7 172 -16z m-660 -22 c17 -14 24 -38 36 -117 9 -55 21 -129
29 -165 12 -62 9 -129 -10 -173 -11 -25 -58 -47 -102 -47 -73 0 -201 -29 -260
-58 -32 -16 -73 -33 -91 -37 -19 -4 -48 -19 -65 -35 -18 -15 -48 -36 -68 -46
-93 -48 -200 -213 -225 -347 -14 -73 -14 -89 0 -158 22 -110 71 -200 159 -289
92 -95 157 -148 199 -162 18 -6 51 -24 73 -39 22 -15 56 -30 75 -34 19 -4 73
-22 120 -40 47 -18 115 -36 152 -40 99 -10 98 -7 98 -255 0 -113 -5 -222 -11
-243 -14 -53 -46 -64 -106 -36 -27 12 -104 29 -181 41 -75 10 -167 30 -206 44
-39 14 -105 32 -146 41 -41 8 -97 28 -125 43 -27 15 -66 31 -85 35 -19 4 -62
22 -95 40 -33 18 -78 38 -100 45 -38 13 -83 39 -183 108 -26 18 -60 39 -77 46
-31 15 -295 269 -295 285 0 4 -15 28 -32 52 -30 41 -66 129 -104 254 -19 63
-12 154 21 250 13 38 29 90 35 115 7 25 20 54 31 66 10 11 32 47 48 80 16 33
36 66 46 74 9 7 25 30 35 49 33 65 222 235 335 301 24 14 51 33 62 42 10 9 40
26 67 37 27 12 61 32 77 45 15 13 52 29 81 36 29 7 82 27 118 45 36 18 85 36
110 40 25 4 69 17 98 31 32 14 107 31 194 45 77 11 157 27 177 34 49 18 65 18
91 -3z m535 -642 c33 -5 125 -17 205 -25 111 -13 160 -23 215 -45 38 -16 90
-32 115 -36 36 -5 53 -16 88 -52 63 -67 58 -80 -48 -140 -89 -50 -339 -77
-652 -70 -167 4 -189 6 -208 23 -18 16 -21 27 -16 60 4 22 10 85 14 141 8 109
25 150 64 156 33 5 153 -1 223 -12z m-461 -15 c24 -24 38 -121 34 -235 l-3
-106 -40 -48 c-35 -43 -40 -55 -40 -101 0 -46 4 -57 37 -93 48 -53 58 -93 58
-236 0 -138 -8 -156 -70 -156 -41 0 -135 25 -165 44 -11 7 -47 21 -80 30 -33
10 -74 28 -91 41 -16 13 -46 30 -65 38 -44 18 -174 147 -219 217 -34 53 -35
58 -35 155 0 105 -2 99 63 205 30 48 154 150 183 150 9 0 47 16 84 36 50 26
88 38 149 46 44 5 97 14 116 18 53 12 67 11 84 -5z m341 -1947 c22 -6 58 -20
80 -33 22 -12 62 -28 90 -34 27 -7 66 -26 87 -44 79 -67 155 -144 193 -197
l40 -55 0 -105 0 -105 -38 -55 c-39 -55 -147 -160 -165 -160 -5 0 -33 -16 -60
-35 -28 -19 -70 -39 -94 -44 -24 -6 -63 -17 -88 -26 -196 -70 -477 -79 -607
-20 -28 12 -75 30 -105 39 -45 13 -66 28 -127 91 l-73 75 4 74 c3 67 6 77 38
113 34 39 85 76 165 120 43 24 155 33 155 12 0 -24 -22 -49 -70 -78 -56 -34
-65 -54 -65 -143 0 -97 63 -157 205 -194 120 -31 153 -30 283 8 96 28 113 37
166 84 68 62 94 115 94 194 0 95 -41 161 -145 231 -32 22 -79 46 -104 54 -71
21 -74 26 -74 126 0 76 3 92 20 109 18 18 29 20 88 14 37 -3 85 -10 107 -16z
m-338 -354 c11 -28 -12 -38 -67 -28 -54 10 -66 25 -28 36 44 12 88 9 95 -8z
m241 -54 c38 -23 72 -75 72 -109 0 -39 -39 -90 -99 -128 -49 -31 -68 -38 -149
-46 -79 -9 -101 -8 -146 7 -77 24 -108 51 -104 90 2 26 11 36 53 58 60 33 79
34 140 7 32 -14 57 -19 80 -15 48 9 59 27 51 85 -5 41 -4 51 11 60 27 16 55
13 91 -9z"/>
</g>
</svg>
