<?xml version="1.0" standalone="no"?>
<!DOCTYPE svg PUBLIC "-//W3C//DTD SVG 20010904//EN"
 "http://www.w3.org/TR/2001/REC-SVG-20010904/DTD/svg10.dtd">
<svg version="1.0" xmlns="http://www.w3.org/2000/svg"
 width="408.000000pt" height="552.000000pt" viewBox="0 0 408.000000 552.000000"
 preserveAspectRatio="xMidYMid meet">
<metadata>
Created by potrace 1.16, written by Peter Selinger 2001-2019
</metadata>
<rect x="0" y="0" width="408" height="552" fill="#ffffff"/>
<g transform="translate(0.000000,552.000000) scale(0.100000,-0.100000)"
fill="#000000" stroke="none">
<path d="M1922 5448 c-35 -17 -67 -39 -73 -49 -23 -44 -27 -111 -11 -189 15
-73 15 -79 -2 -104 -23 -37 -51 -45 -196 -62 -132 -14 -154 -19 -237 -53 -29
-11 -83 -25 -120 -31 -38 -6 -89 -23 -118 -39 -27 -16 -72 -34 -100 -40 -27
-7 -70 -25 -95 -41 -25 -15 -68 -35 -97 -44 -28 -10 -57 -24 -64 -32 -7 -9
-39 -29 -70 -45 -32 -16 -60 -33 -64 -39 -4 -6 -28 -21 -55 -35 -27 -14 -55
-33 -62 -43 -7 -10 -34 -32 -59 -50 -59 -40 -223 -212 -261 -274 -16 -27 -33
-48 -38 -48 -5 0 -18 -21 -31 -47 -12 -27 -32 -61 -44 -78 -13 -16 -32 -62
-43 -100 -14 -48 -31 -80 -52 -100 l-30 -29 0 -210 0 -210 29 -31 c16 -16 36
-55 46 -85 27 -86 82 -163 191 -274 140 -141 191 -182 298 -243 27 -16 63 -40
80 -55 18 -15 52 -34 77 -44 24 -10 62 -30 84 -45 22 -15 60 -33 85 -39 25 -7
65 -25 90 -40 25 -16 67 -34 95 -40 27 -6 64 -22 82 -36 18 -14 53 -31 77 -38
25 -8 58 -23 75 -35 16 -12 49 -28 72 -36 23 -8 61 -33 85 -55 23 -21 58 -46
76 -55 18 -8 48 -26 67 -40 19 -14 52 -30 75 -35 23 -6 70 -24 106 -40 36 -16
77 -31 91 -34 34 -7 49 -43 49 -120 0 -88 -16 -102 -117 -98 -130 4 -347 -24
-448 -58 -49 -17 -110 -35 -135 -41 -25 -5 -63 -22 -85 -38 -22 -15 -60 -39
-85 -53 -64 -38 -168 -143 -215 -218 l-40 -65 0 -126 c0 -125 0 -127 31 -170
17 -24 36 -57 42 -74 21 -51 189 -196 249 -215 21 -7 61 -25 90 -41 28 -15 78
-35 110 -43 32 -7 83 -23 114 -35 70 -25 151 -38 307 -46 157 -9 161 -12 178
-126 16 -114 -8 -354 -42 -422 -13 -24 -12 -35 8 -97 l23 -70 87 0 c67 0 88 3
88 14 0 7 11 34 25 60 31 58 31 63 0 123 -19 37 -28 79 -39 178 -14 129 -13
141 14 312 2 14 73 32 149 37 53 4 119 16 150 27 31 11 93 31 138 44 46 13
115 40 154 59 39 20 77 36 84 36 6 0 20 9 31 21 10 12 42 33 69 46 28 14 65
39 83 54 18 16 36 29 41 29 13 0 122 132 163 197 35 57 78 195 78 254 0 25
-22 133 -36 182 -16 53 -183 206 -276 253 -29 14 -64 34 -78 44 -14 9 -43 23
-65 30 -22 7 -65 25 -96 41 -31 15 -87 35 -124 44 -37 8 -99 28 -139 44 -39
15 -109 34 -155 40 -99 15 -125 25 -140 58 -15 33 -14 40 9 63 17 17 33 20
101 20 131 0 210 17 304 65 103 52 161 102 217 186 41 61 43 67 43 139 0 91
-13 117 -101 211 -35 38 -64 72 -64 76 1 28 23 38 87 39 140 2 278 24 428 69
44 13 103 26 130 30 28 3 77 19 110 35 33 16 83 34 110 40 28 6 70 24 95 40
25 15 55 31 67 35 13 3 41 22 64 41 22 19 45 34 50 34 17 0 145 139 183 199
21 34 44 85 52 114 9 34 24 61 44 79 l30 28 0 210 0 209 -29 15 c-31 16 -36
26 -55 97 -7 25 -25 67 -42 93 -41 68 -179 223 -225 253 -22 14 -39 30 -39 34
0 5 -19 21 -42 35 -24 15 -53 37 -65 49 -12 12 -41 27 -63 34 -22 6 -55 25
-73 41 -18 16 -55 34 -83 41 -27 6 -70 24 -95 40 -27 17 -75 34 -120 43 -41 8
-95 24 -121 35 -25 12 -93 28 -150 36 -57 8 -132 20 -168 25 -36 6 -87 13
-115 16 -27 3 -78 12 -111 20 -44 10 -94 13 -173 9 -109 -5 -112 -5 -136 19
-29 29 -29 33 -10 105 14 55 8 128 -14 170 -10 18 -131 82 -154 80 -7 0 -40
-14 -75 -31z m-16 -662 c17 -13 20 -31 24 -161 7 -186 0 -263 -25 -281 -10 -8
-40 -14 -66 -14 -92 0 -203 -21 -264 -50 -33 -16 -79 -33 -102 -40 -23 -6 -55
-21 -70 -34 -15 -13 -46 -33 -68 -44 -84 -43 -190 -176 -227 -287 -54 -159
-27 -345 68 -460 85 -104 180 -185 251 -217 26 -12 64 -31 83 -44 19 -12 64
-30 100 -39 72 -18 114 -41 105 -56 -9 -14 -109 -76 -151 -94 -20 -8 -69 -47
-110 -86 -61 -60 -78 -83 -100 -140 -31 -84 -49 -92 -120 -56 -27 13 -74 30
-104 36 -30 7 -71 23 -91 36 -20 13 -62 31 -93 40 -31 9 -69 27 -84 40 -16 13
-48 31 -73 41 -24 9 -55 27 -69 39 -14 13 -41 31 -60 40 -19 10 -51 30 -70 45
-19 15 -48 34 -65 43 -30 15 -181 162 -243 236 -19 22 -42 62 -52 88 -10 26
-29 68 -41 93 -19 37 -24 65 -27 161 -4 104 -2 122 21 185 57 156 74 194 94
216 11 13 31 45 43 71 12 26 31 52 41 58 10 5 25 22 33 37 19 34 110 127 167
170 24 18 64 48 89 67 25 19 65 44 90 56 25 11 56 31 70 44 14 12 51 30 82 39
32 9 74 28 95 42 20 13 48 27 62 30 14 3 67 19 116 35 101 35 131 42 260 64
50 8 135 24 190 35 55 12 116 19 135 17 19 -3 46 -1 60 3 40 13 75 11 96 -4z
m559 -12 c170 -35 225 -45 298 -54 49 -6 104 -21 145 -39 37 -17 94 -35 127
-41 33 -7 80 -24 105 -40 25 -15 68 -35 97 -44 28 -10 57 -24 65 -33 7 -9 40
-28 73 -44 35 -16 92 -56 138 -98 219 -200 281 -332 257 -551 -12 -112 -22
-145 -50 -175 -11 -11 -26 -37 -34 -57 -15 -36 -126 -158 -144 -158 -5 0 -31
-18 -57 -39 -26 -22 -59 -42 -74 -46 -14 -4 -50 -22 -81 -40 -30 -18 -71 -36
-90 -40 -19 -4 -69 -20 -110 -36 -73 -27 -137 -43 -305 -76 -131 -25 -229 -34
-440 -40 -249 -7 -415 8 -540 47 -49 16 -114 33 -144 39 -29 6 -65 20 -80 30
-14 10 -46 27 -71 38 -137 60 -255 174 -308 296 -59 138 -39 245 72 368 73 82
135 123 256 171 131 52 289 80 329 58 30 -16 43 -52 30 -89 -12 -35 -36 -52
-106 -75 -90 -30 -183 -159 -183 -255 0 -76 95 -215 161 -236 13 -4 41 -19 61
-33 21 -13 67 -31 103 -38 82 -17 326 -19 424 -4 138 22 303 134 376 255 29
48 30 55 30 161 l0 110 -53 80 c-79 117 -165 176 -365 250 -44 16 -152 33
-217 34 -64 1 -83 19 -90 86 -11 96 3 348 20 369 13 16 28 17 160 10 80 -3
177 -13 215 -21z m-220 -613 c50 -10 116 -33 149 -50 32 -17 64 -31 71 -31 18
0 112 -86 147 -134 68 -94 15 -203 -149 -307 -49 -32 -74 -41 -125 -46 -51 -4
-66 -2 -77 11 -18 22 -4 38 70 77 64 34 79 60 79 133 -1 113 -90 193 -244 217
-33 6 -69 17 -78 26 -23 20 -23 80 -1 105 20 23 45 22 158 -1z m-22 -271 c81
-51 87 -102 16 -127 -96 -34 -179 2 -179 77 0 78 80 103 163 50z m-305 -22 c5
-7 13 -35 17 -63 11 -79 14 -84 69 -120 28 -18 58 -40 65 -49 34 -40 -50 -61
-130 -32 -48 17 -134 90 -149 127 -16 39 -5 76 35 116 34 34 74 43 93 21z
m460 -907 c30 -5 61 -16 69 -23 9 -7 48 -28 87 -48 65 -32 73 -40 100 -93 26
-52 28 -62 18 -95 -17 -56 -118 -139 -179 -148 -26 -4 -65 -15 -87 -24 -23 -9
-73 -23 -113 -30 -61 -11 -75 -11 -91 1 -91 67 -161 109 -180 109 -13 0 -38
-10 -54 -22 -37 -25 -114 -34 -144 -16 -12 7 -44 30 -72 51 -57 43 -69 73 -53
135 20 74 170 185 281 208 74 15 332 12 418 -5z m-875 -263 c6 -21 -4 -48 -19
-48 -20 0 -29 27 -14 45 15 18 27 19 33 3z m109 -217 c12 -15 28 -36 33 -45 6
-10 35 -24 65 -32 54 -13 90 -42 90 -70 0 -10 -13 -14 -45 -14 -50 0 -96 19
-117 48 -7 11 -34 28 -60 40 -44 19 -48 24 -48 55 0 18 3 37 7 40 15 16 53 5
75 -22z m606 -411 c49 -10 111 -29 138 -41 27 -12 75 -27 107 -35 32 -8 76
-23 99 -35 23 -12 66 -30 95 -40 29 -10 68 -29 85 -42 18 -14 43 -28 55 -31
36 -11 155 -104 200 -157 27 -32 49 -71 59 -107 16 -52 15 -61 0 -128 -10 -40
-24 -78 -33 -85 -8 -7 -28 -32 -44 -56 -31 -44 -97 -87 -127 -81 -15 3 -17 19
-17 113 -1 159 -16 192 -147 316 -79 75 -112 100 -146 110 -24 7 -58 23 -74
37 -18 15 -59 32 -109 43 -44 11 -97 28 -118 39 -22 11 -59 22 -83 26 -47 7
-79 21 -90 38 -23 34 13 136 47 136 8 0 55 -9 103 -20z m-311 -267 c15 -20 17
-121 4 -156 -11 -29 -25 -36 -118 -52 -117 -21 -261 -94 -335 -170 -90 -93
-115 -163 -103 -295 6 -73 5 -79 -15 -93 -19 -13 -28 -14 -68 -2 -26 8 -58 23
-72 35 -14 11 -45 31 -70 44 -43 23 -133 116 -158 163 -17 31 -15 117 3 160
31 73 191 229 255 248 14 4 48 20 76 35 28 16 69 32 90 35 21 4 82 19 134 33
93 25 261 43 330 36 19 -2 41 -11 47 -21z m271 -9 c20 -8 81 -26 135 -39 58
-13 108 -31 120 -43 12 -11 45 -30 74 -42 35 -15 74 -45 125 -98 62 -64 78
-88 96 -141 27 -81 28 -115 2 -141 -33 -33 -57 -25 -84 28 -38 75 -169 185
-248 209 -29 8 -70 24 -91 35 -21 10 -64 23 -95 29 -115 20 -132 36 -132 118
0 61 5 72 35 89 25 14 19 15 63 -4z m-234 -460 c45 -15 53 -15 107 0 70 19
141 20 189 2 33 -13 88 -32 175 -63 27 -9 56 -32 88 -69 75 -88 62 -135 -50
-185 -70 -31 -185 -59 -245 -59 -29 0 -47 9 -83 40 -88 76 -180 75 -256 -1
-64 -64 -88 -69 -187 -38 -43 14 -142 130 -142 167 0 38 106 138 163 152 23 7
69 25 102 41 70 34 76 34 139 13z"/>
</g>
</svg>
