<?xml version="1.0" standalone="no"?>
<!DOCTYPE svg PUBLIC "-//W3C//DTD SVG 20010904//EN"
 "http://www.w3.org/TR/2001/REC-SVG-20010904/DTD/svg10.dtd">
<svg version="1.0" xmlns="http://www.w3.org/2000/svg"
 width="416.000000pt" height="480.000000pt" viewBox="0 0 416.000000 480.000000"
 preserveAspectRatio="xMidYMid meet">
<metadata>
Created by potrace 1.16, written by Peter Selinger 2001-2019
</metadata>
<rect x="0" y="0" width="416" height="480" fill="#ffffff"/>
<g transform="translate(0.000000,480.000000) scale(0.100000,-0.100000)"
fill="#000000" stroke="none">
<path d="M2016 4776 c-3 -14 -21 -35 -39 -47 -58 -41 -59 -44 -52 -171 7 -156
11 -153 -170 -162 -66 -3 -139 -15 -215 -36 -63 -17 -146 -35 -185 -41 -38 -6
-95 -24 -125 -39 -30 -15 -82 -33 -115 -40 -33 -6 -76 -23 -97 -37 -20 -13
-58 -31 -84 -39 -27 -8 -64 -25 -84 -39 -19 -13 -55 -33 -80 -43 -25 -11 -54
-29 -65 -42 -11 -12 -38 -31 -60 -42 -22 -12 -55 -32 -73 -47 -61 -48 -252
-240 -252 -253 0 -7 -13 -29 -29 -48 -15 -19 -37 -53 -49 -75 -11 -22 -32 -53
-46 -70 -14 -16 -30 -51 -36 -78 -5 -27 -22 -69 -36 -93 -20 -34 -30 -71 -40
-152 -35 -278 4 -464 136 -648 52 -72 234 -251 295 -289 17 -10 44 -31 60 -46
17 -14 46 -32 66 -38 20 -6 46 -23 59 -36 13 -13 46 -32 74 -41 28 -9 65 -28
82 -40 17 -13 50 -30 74 -39 23 -8 66 -28 94 -44 28 -15 73 -34 100 -40 27 -7
69 -24 93 -38 24 -14 63 -29 86 -34 23 -5 85 -25 137 -43 160 -57 351 -115
435 -132 44 -9 110 -27 148 -41 37 -13 100 -30 141 -38 40 -8 93 -21 117 -30
24 -9 78 -27 119 -39 41 -12 86 -30 100 -38 14 -9 52 -27 85 -39 33 -12 74
-32 90 -45 17 -12 48 -29 70 -39 22 -9 51 -27 65 -39 14 -13 43 -33 65 -44 63
-32 148 -127 195 -219 40 -77 42 -87 37 -143 -3 -36 -14 -74 -27 -95 -12 -20
-34 -58 -49 -85 -38 -72 -105 -155 -143 -178 -18 -12 -44 -32 -57 -46 -13 -14
-39 -30 -58 -37 -18 -6 -56 -26 -82 -44 -27 -18 -66 -36 -87 -40 -21 -3 -63
-20 -95 -35 -34 -18 -86 -33 -130 -39 -41 -6 -110 -17 -154 -25 -95 -18 -392
-21 -445 -5 -19 6 -87 16 -150 24 -82 9 -132 21 -175 40 -33 15 -81 33 -107
41 -51 16 -81 38 -180 135 -72 69 -82 97 -55 145 11 20 114 104 127 104 12 0
69 -47 117 -95 84 -85 123 -114 173 -129 26 -8 66 -26 88 -41 25 -16 63 -30
103 -35 35 -5 102 -16 149 -25 119 -21 264 -19 388 5 56 11 115 20 131 20 15
0 63 18 106 40 43 22 84 40 91 40 15 0 90 61 155 126 94 94 122 234 77 378
-20 61 -32 80 -88 136 -84 83 -173 137 -269 165 -42 12 -92 29 -112 37 -53 23
-245 42 -347 35 -154 -11 -236 -24 -267 -40 -17 -8 -60 -23 -95 -32 -36 -9
-76 -24 -90 -34 -14 -10 -44 -28 -67 -39 -47 -24 -165 -149 -194 -205 -11 -21
-32 -42 -47 -48 -15 -6 -54 -23 -87 -39 -33 -16 -80 -38 -105 -50 -25 -11 -69
-37 -99 -58 -47 -33 -59 -49 -95 -127 -50 -110 -54 -166 -14 -235 14 -25 31
-61 37 -80 14 -46 151 -184 214 -216 17 -9 45 -27 60 -40 16 -13 41 -27 55
-30 15 -4 54 -21 87 -39 39 -21 81 -35 120 -39 101 -12 164 -34 177 -61 l11
-25 371 0 c358 0 372 1 383 20 13 20 98 48 210 69 34 6 88 25 119 41 31 17 64
30 74 30 10 0 40 15 66 33 27 18 62 38 77 45 65 28 253 201 303 279 19 28 38
54 44 58 5 3 17 32 26 63 9 31 28 79 42 107 22 44 25 63 26 165 1 102 -1 119
-21 150 -12 19 -31 61 -43 92 -18 49 -38 73 -137 167 -74 71 -129 115 -152
122 -20 6 -51 22 -69 36 -18 13 -54 32 -80 40 -26 9 -64 27 -84 41 -21 13 -67
31 -103 38 -36 8 -84 24 -108 36 -39 20 -162 56 -377 109 -348 87 -497 127
-528 143 -16 8 -63 23 -103 32 -41 9 -99 29 -129 44 -30 15 -70 31 -89 35 -41
9 -220 89 -311 140 -14 7 -44 21 -67 30 -23 10 -52 28 -64 41 -12 13 -34 26
-48 29 -15 3 -49 24 -75 45 -27 22 -53 40 -58 40 -21 0 -298 261 -298 280 0 5
-16 30 -37 56 -52 69 -87 208 -80 319 6 98 41 214 84 279 18 27 33 54 33 60 0
6 10 22 23 36 12 14 34 41 48 60 41 55 240 250 281 276 20 13 39 28 43 34 3 6
25 20 48 32 23 11 57 33 77 48 19 15 56 35 82 43 26 9 62 27 80 40 18 14 53
30 78 37 25 6 70 24 101 40 30 16 84 34 119 40 36 6 90 22 121 35 30 13 107
31 170 40 142 21 225 33 266 41 45 9 59 -20 72 -144 19 -182 11 -250 -32 -274
-12 -6 -72 -14 -133 -18 -94 -6 -121 -12 -180 -38 -38 -17 -88 -36 -111 -42
-23 -6 -55 -21 -70 -34 -15 -13 -46 -33 -68 -44 -61 -32 -215 -194 -215 -227
0 -7 -14 -46 -31 -86 -27 -63 -31 -84 -31 -164 -1 -75 3 -98 22 -135 12 -24
31 -68 41 -98 10 -30 34 -70 51 -89 93 -98 146 -146 178 -160 19 -8 50 -28 67
-44 18 -15 52 -33 75 -39 24 -7 66 -24 93 -40 28 -15 70 -31 95 -35 25 -4 90
-18 145 -32 168 -43 260 -52 565 -52 331 -1 509 16 646 60 17 5 69 16 116 23
47 8 116 27 154 44 38 16 87 33 109 36 22 4 58 20 80 35 22 16 57 34 78 40 21
7 50 23 65 35 15 13 45 33 67 44 55 29 215 191 215 217 0 4 15 32 34 63 19 32
37 73 41 92 3 19 15 62 25 95 23 74 25 271 4 323 -7 18 -18 60 -24 94 -20 110
-83 207 -224 348 -69 68 -133 128 -143 133 -10 6 -34 25 -54 43 -20 17 -47 35
-60 39 -13 5 -37 18 -54 31 -16 12 -56 32 -87 44 -31 11 -68 30 -81 40 -14 11
-54 27 -89 36 -34 9 -84 27 -109 40 -25 12 -88 30 -140 39 -52 10 -128 28
-169 40 -116 37 -179 45 -398 52 -155 5 -205 9 -214 20 -7 9 -10 45 -8 101 6
154 6 153 -43 197 -24 22 -47 48 -50 58 -5 14 -18 17 -71 17 -59 0 -64 -2 -70
-24z m369 -642 c38 -10 84 -14 126 -11 43 3 81 -1 105 -10 22 -7 102 -20 179
-28 106 -11 164 -22 240 -48 55 -19 118 -37 140 -41 22 -4 59 -18 82 -31 23
-13 66 -31 95 -40 29 -10 67 -28 83 -40 17 -12 48 -32 70 -44 79 -42 141 -93
232 -189 55 -58 98 -111 104 -132 7 -19 25 -62 41 -94 36 -72 47 -176 28 -256
-18 -77 -93 -226 -146 -293 -27 -34 -65 -67 -92 -82 -26 -13 -57 -35 -70 -48
-12 -14 -34 -28 -50 -32 -15 -3 -43 -17 -63 -31 -20 -14 -69 -36 -110 -49 -41
-13 -105 -35 -144 -49 -38 -14 -82 -26 -96 -26 -14 0 -88 -16 -165 -36 -117
-30 -168 -37 -324 -46 -221 -13 -282 -14 -420 -4 -224 15 -385 53 -535 127
-44 22 -85 39 -91 39 -6 0 -18 7 -25 17 -8 9 -37 31 -66 49 -73 47 -147 157
-169 250 -16 66 -16 75 0 147 14 63 25 86 58 125 57 66 132 128 164 136 15 4
41 18 56 31 16 14 46 29 66 34 20 5 64 17 97 27 75 21 206 29 234 14 31 -16
28 -63 -5 -89 -15 -11 -42 -25 -62 -31 -20 -5 -66 -31 -104 -56 -82 -57 -104
-101 -102 -207 2 -102 24 -147 102 -212 53 -44 83 -60 147 -79 232 -70 297
-73 501 -20 174 45 237 81 336 192 24 27 40 57 47 92 15 70 14 208 -3 262 -16
54 -103 166 -149 192 -17 11 -44 30 -58 43 -14 13 -55 34 -90 47 -35 13 -89
34 -119 46 -36 15 -84 24 -140 27 -123 6 -129 8 -147 51 -13 31 -14 64 -9 192
7 167 15 202 49 218 33 16 105 14 172 -4z m-26 -670 c104 -25 153 -42 171 -59
14 -12 42 -31 62 -41 33 -17 79 -68 116 -128 8 -13 11 -42 9 -75 -4 -52 -7
-56 -73 -121 -61 -59 -77 -69 -144 -89 -41 -12 -104 -34 -140 -48 -83 -33
-152 -28 -243 16 -35 17 -74 31 -86 31 -64 0 -151 83 -151 144 0 58 55 115
111 116 37 0 49 -18 49 -78 0 -51 3 -58 47 -106 26 -28 58 -56 73 -63 14 -7
64 -12 113 -13 l87 0 63 66 c34 36 66 76 70 87 12 30 -1 116 -20 147 -35 54
-115 99 -200 111 -87 14 -113 30 -113 71 0 31 24 68 43 68 6 0 76 -16 156 -36z
m-55 -240 c36 -19 68 -44 71 -54 16 -51 -63 -114 -136 -108 -55 4 -81 37 -87
111 -8 95 42 112 152 51z m-169 -1994 c15 -6 70 -15 123 -21 95 -10 109 -15
228 -77 53 -28 122 -90 142 -129 7 -12 12 -46 12 -75 0 -53 0 -53 -72 -121
-58 -54 -84 -71 -128 -84 -30 -8 -72 -24 -93 -35 -111 -56 -419 -63 -539 -12
-35 14 -87 33 -117 40 -35 10 -69 28 -99 54 -24 22 -49 40 -54 40 -11 0 -68
123 -68 148 0 11 20 48 45 82 37 49 58 67 108 91 34 16 78 38 97 48 21 11 84
26 155 36 66 9 122 19 124 21 9 8 111 4 136 -6z"/>
</g>
</svg>
