<?xml version="1.0" standalone="no"?>
<!DOCTYPE svg PUBLIC "-//W3C//DTD SVG 20010904//EN"
 "http://www.w3.org/TR/2001/REC-SVG-20010904/DTD/svg10.dtd">
<svg version="1.0" xmlns="http://www.w3.org/2000/svg"
 width="416.000000pt" height="528.000000pt" viewBox="0 0 416.000000 528.000000"
 preserveAspectRatio="xMidYMid meet">
<metadata>
Created by potrace 1.16, written by Peter Selinger 2001-2019
</metadata>
<rect x="0" y="0" width="416" height="528" fill="#ffffff"/>
<g transform="translate(0.000000,528.000000) scale(0.100000,-0.100000)"
fill="#000000" stroke="none">
<path d="M2005 5196 c-27 -8 -57 -24 -67 -36 -20 -25 -58 -140 -58 -177 0 -65
-34 -80 -215 -94 -141 -11 -190 -21 -246 -50 -20 -10 -67 -26 -104 -35 -37 -9
-80 -28 -95 -41 -16 -13 -45 -30 -66 -39 -46 -19 -107 -69 -190 -154 -45 -46
-77 -92 -111 -160 l-48 -95 0 -125 0 -125 45 -90 c45 -90 150 -215 182 -215 8
0 32 -13 54 -29 57 -42 288 -117 419 -136 61 -9 135 -20 166 -25 86 -15 360
-12 427 4 31 8 91 19 132 25 103 15 223 76 311 159 91 85 113 132 113 242 0
106 -16 160 -58 208 -18 20 -39 47 -45 60 -7 13 -34 34 -59 46 -26 12 -68 34
-93 49 -31 18 -70 30 -119 36 -81 11 -119 32 -133 75 -12 35 2 69 37 91 23 16
36 16 173 -1 112 -13 164 -24 213 -45 36 -15 83 -30 105 -34 48 -9 169 -75
233 -129 70 -58 181 -186 202 -231 10 -22 24 -66 31 -98 11 -50 10 -68 -6
-139 -19 -80 -26 -93 -107 -184 -53 -61 -212 -170 -273 -188 -24 -8 -58 -25
-77 -39 -19 -15 -59 -32 -89 -38 -29 -6 -79 -25 -110 -41 -31 -16 -81 -33
-110 -38 -30 -5 -74 -16 -98 -24 -32 -12 -82 -16 -195 -16 -94 0 -177 -5 -221
-14 -38 -8 -117 -19 -175 -25 -58 -5 -145 -22 -195 -37 -49 -14 -119 -33 -154
-40 -35 -8 -91 -26 -125 -40 -33 -14 -86 -34 -118 -44 -31 -10 -71 -29 -90
-42 -18 -14 -54 -32 -80 -41 -26 -9 -62 -26 -80 -40 -18 -13 -47 -29 -65 -36
-17 -7 -40 -22 -50 -33 -10 -11 -36 -29 -58 -40 -22 -12 -56 -35 -76 -52 -20
-17 -66 -55 -102 -85 -83 -69 -207 -221 -252 -311 -10 -19 -28 -46 -41 -59
-13 -13 -28 -42 -34 -65 -6 -22 -21 -61 -35 -87 -46 -86 -67 -337 -42 -500 16
-100 69 -226 126 -297 76 -95 176 -204 204 -223 18 -13 51 -39 74 -58 83 -71
124 -100 161 -111 20 -7 51 -25 67 -40 17 -15 48 -33 70 -40 22 -7 54 -24 71
-37 17 -13 53 -31 80 -39 27 -9 63 -27 80 -40 17 -12 57 -30 90 -40 32 -9 82
-28 109 -42 28 -14 73 -31 100 -38 28 -7 88 -26 135 -43 157 -55 354 -111 423
-120 84 -12 114 -30 122 -75 9 -47 -2 -89 -42 -166 -31 -57 -34 -71 -29 -114
10 -89 59 -130 156 -130 153 0 204 115 124 280 -31 63 -37 87 -42 164 -4 68
-9 93 -22 105 -21 19 -235 95 -267 95 -12 0 -66 15 -120 34 -54 19 -123 39
-153 46 -30 6 -80 24 -110 39 -30 16 -78 33 -107 39 -28 7 -72 25 -98 41 -26
16 -65 33 -88 36 -48 8 -73 20 -102 46 -12 10 -48 28 -80 39 -32 11 -68 29
-80 40 -11 10 -38 26 -60 35 -22 9 -51 27 -65 40 -14 13 -41 31 -61 39 -20 8
-55 31 -78 50 -24 20 -47 36 -51 36 -15 0 -214 204 -254 260 -22 30 -45 73
-52 96 -6 22 -24 64 -39 92 -26 50 -27 57 -23 170 3 103 7 123 30 167 15 28
30 64 34 80 11 46 82 171 145 255 73 97 164 181 274 251 22 14 46 33 53 42 8
9 30 21 50 28 20 6 54 25 75 41 21 17 58 36 82 44 25 7 64 24 87 37 24 14 59
28 78 32 19 4 66 21 104 37 38 17 106 37 150 44 99 17 206 41 266 60 46 14
261 32 480 40 222 8 582 -23 700 -61 41 -13 110 -29 153 -34 48 -7 99 -22 135
-40 31 -15 74 -31 95 -35 21 -4 77 -27 125 -52 47 -24 91 -44 97 -44 7 0 20
-9 31 -21 10 -12 37 -30 58 -41 22 -11 94 -75 160 -143 125 -127 127 -129 187
-290 23 -63 25 -173 3 -245 -21 -70 -76 -183 -111 -226 -80 -98 -120 -141
-149 -162 -18 -12 -37 -28 -41 -35 -36 -57 -350 -227 -493 -268 -36 -10 -103
-30 -150 -44 -46 -14 -123 -30 -170 -35 -47 -5 -123 -16 -170 -24 -95 -17
-411 -22 -470 -7 -19 5 -82 14 -140 21 -165 19 -364 72 -485 130 -44 22 -91
42 -105 46 -14 3 -38 16 -55 29 -16 12 -50 32 -75 43 -25 12 -72 44 -105 72
-33 28 -76 62 -95 77 -34 25 -64 61 -117 136 -12 18 -36 50 -52 72 -27 36 -46
99 -68 218 -3 16 0 54 7 85 15 71 7 92 -58 162 -48 53 -49 54 -116 58 l-67 4
-39 -42 c-67 -72 -81 -121 -61 -215 39 -183 85 -289 176 -399 49 -59 208 -217
233 -229 9 -6 28 -20 42 -33 14 -13 46 -32 71 -43 25 -11 53 -29 63 -40 10
-11 39 -27 65 -36 25 -8 66 -26 90 -40 23 -14 78 -34 121 -45 44 -10 96 -28
117 -38 21 -11 65 -25 98 -32 33 -6 119 -25 190 -40 202 -44 327 -53 615 -47
266 5 321 12 580 71 126 30 348 104 410 139 25 14 56 28 70 32 14 4 40 18 58
32 18 13 53 34 79 45 51 22 224 167 288 241 75 87 92 112 135 202 36 76 44
107 56 200 18 155 5 304 -35 383 -15 31 -33 73 -40 92 -6 19 -27 53 -46 74
-19 22 -35 43 -35 48 0 8 -11 21 -113 127 -48 50 -128 113 -196 154 -25 16
-55 37 -66 48 -12 10 -36 24 -55 30 -19 7 -53 25 -75 40 -22 16 -62 33 -90 39
-27 6 -72 24 -100 39 -27 16 -81 34 -120 41 -38 7 -93 21 -121 32 -29 10 -91
25 -139 33 -91 14 -115 26 -115 55 0 24 17 36 70 50 88 23 235 118 333 216
102 101 127 138 158 236 35 110 38 197 10 286 -11 34 -23 77 -26 96 -4 19 -18
50 -32 68 -13 18 -31 48 -38 66 -33 77 -216 261 -305 307 -19 10 -47 28 -62
41 -15 12 -44 28 -65 35 -21 6 -56 24 -78 40 -22 15 -56 30 -75 34 -19 4 -80
22 -135 40 -55 19 -127 40 -160 47 l-60 13 2 40 c1 22 5 58 8 80 9 59 -33 151
-78 170 -51 21 -136 26 -192 11z m-32 -625 c32 -12 52 -61 40 -97 -14 -42 -52
-64 -127 -75 -49 -7 -86 -20 -130 -46 -160 -95 -201 -181 -162 -343 11 -49 22
-70 42 -85 15 -11 40 -32 56 -47 15 -15 47 -32 70 -38 24 -6 65 -18 92 -26 69
-20 152 -18 226 6 34 11 70 20 80 20 23 0 104 55 135 92 21 25 25 39 25 98 0
87 -4 97 -51 120 -42 22 -62 50 -53 74 5 12 20 16 59 16 45 0 59 -5 96 -35 24
-19 49 -35 55 -35 17 0 50 -40 80 -99 l27 -53 -18 -57 c-15 -43 -34 -71 -85
-122 -68 -68 -92 -80 -265 -131 -151 -45 -533 -33 -695 22 -30 10 -75 24 -100
30 -25 6 -65 24 -90 40 -25 15 -54 31 -66 34 -46 14 -158 161 -170 222 -15 81
27 180 105 248 13 12 39 36 58 54 18 17 50 39 69 47 20 8 49 26 65 39 17 14
53 29 86 36 32 6 83 22 113 34 72 30 102 37 240 51 152 16 165 17 193 6z m-83
-367 c0 -3 -11 -15 -25 -26 -18 -14 -25 -30 -26 -56 -1 -53 -12 -83 -32 -96
-38 -23 -77 77 -48 123 18 27 131 75 131 55z"/>
</g>
</svg>
