<?xml version="1.0" standalone="no"?>
<!DOCTYPE svg PUBLIC "-//W3C//DTD SVG 20010904//EN"
 "http://www.w3.org/TR/2001/REC-SVG-20010904/DTD/svg10.dtd">
<svg version="1.0" xmlns="http://www.w3.org/2000/svg"
 width="408.000000pt" height="488.000000pt" viewBox="0 0 408.000000 488.000000"
 preserveAspectRatio="xMidYMid meet">
<metadata>
Created by potrace 1.16, written by Peter Selinger 2001-2019
</metadata>
<rect x="0" y="0" width="408" height="488" fill="#ffffff"/>
<g transform="translate(0.000000,488.000000) scale(0.100000,-0.100000)"
fill="#000000" stroke="none">
<path d="M1925 4801 c-83 -20 -101 -62 -90 -203 5 -62 4 -93 -4 -102 -8 -9
-44 -17 -99 -21 -48 -4 -119 -18 -159 -31 -40 -13 -122 -32 -183 -43 -70 -13
-127 -29 -153 -44 -23 -13 -74 -31 -113 -40 -39 -9 -88 -27 -108 -41 -20 -14
-54 -30 -74 -37 -20 -6 -58 -24 -83 -40 -25 -16 -61 -34 -80 -41 -19 -6 -52
-26 -73 -45 -22 -18 -44 -33 -50 -33 -6 0 -31 -16 -55 -35 -24 -19 -48 -35
-53 -35 -11 0 -58 -42 -167 -151 -112 -113 -180 -198 -220 -278 -12 -22 -32
-56 -45 -76 -14 -20 -30 -60 -36 -90 -9 -41 -19 -61 -46 -84 l-34 -30 0 -235
0 -234 28 -29 c16 -15 38 -54 50 -85 12 -31 49 -93 84 -138 35 -45 75 -97 89
-117 14 -20 39 -43 55 -51 16 -8 48 -31 70 -51 50 -43 113 -88 168 -119 22
-12 50 -31 61 -41 11 -11 46 -31 77 -46 31 -15 62 -33 68 -40 7 -8 35 -21 63
-31 29 -9 67 -28 86 -42 18 -14 59 -33 90 -42 31 -10 76 -30 101 -44 25 -14
54 -26 65 -26 11 0 54 -16 94 -35 41 -20 106 -44 145 -55 129 -35 196 -72 196
-110 0 -19 -55 -46 -115 -56 -22 -3 -63 -19 -91 -34 -28 -16 -74 -35 -102 -44
-29 -8 -67 -26 -84 -39 -18 -14 -50 -30 -70 -36 -40 -13 -84 -45 -181 -131
-84 -74 -119 -120 -167 -220 -40 -82 -41 -89 -42 -190 -1 -89 2 -113 21 -155
13 -27 31 -78 42 -111 10 -34 26 -67 34 -74 7 -6 27 -35 44 -63 49 -85 184
-213 271 -257 25 -12 55 -33 68 -45 12 -13 44 -28 70 -35 26 -6 67 -24 92 -40
25 -15 61 -31 80 -34 19 -4 80 -18 135 -31 55 -13 125 -27 156 -30 67 -7 117
-36 132 -75 l11 -30 106 0 106 0 11 30 c15 40 59 58 164 66 46 3 131 19 188
35 57 16 118 29 135 29 18 0 68 17 111 39 44 21 97 44 117 50 20 7 42 19 49
27 7 9 31 25 53 36 56 28 143 109 204 189 61 80 102 201 102 301 0 90 -48 237
-94 288 -19 21 -39 48 -46 59 -6 12 -30 31 -53 42 -23 12 -57 34 -77 50 -19
15 -55 33 -80 39 -25 7 -70 23 -100 37 -94 43 -327 77 -541 78 -154 1 -163 4
-180 67 -9 36 -5 144 7 190 6 22 153 96 206 104 21 4 53 17 71 30 18 13 45 32
62 41 16 10 53 43 82 73 56 59 73 105 73 196 0 92 -17 130 -86 192 -35 31 -64
65 -64 75 0 26 32 33 180 41 74 3 162 13 195 21 33 8 76 14 96 15 20 0 55 6
77 14 23 8 75 19 116 25 41 6 107 24 148 39 40 16 98 35 128 42 30 7 82 27
115 45 33 18 74 36 92 40 18 3 49 20 70 37 21 16 52 36 68 44 46 21 120 84
153 129 16 22 36 46 45 54 9 7 17 19 17 25 0 6 14 31 30 56 16 25 44 89 60
143 20 63 38 102 50 110 18 11 20 23 20 138 l0 127 -33 33 c-27 27 -36 48 -47
102 -7 37 -23 83 -36 103 -13 19 -31 49 -40 67 -35 67 -186 230 -251 270 -23
14 -44 31 -48 37 -3 6 -24 19 -45 30 -22 11 -53 33 -70 50 -16 16 -49 34 -72
40 -24 7 -63 24 -88 40 -25 16 -74 36 -110 45 -35 9 -82 27 -105 40 -22 13
-76 30 -120 39 -44 8 -120 26 -170 39 -103 28 -314 47 -518 47 -170 0 -167 -3
-167 148 0 95 -2 105 -24 127 -39 39 -131 55 -211 36z m540 -641 c81 -6 166
-19 225 -35 52 -14 133 -32 180 -41 47 -8 112 -28 145 -44 33 -16 86 -34 118
-40 33 -7 69 -22 85 -35 16 -13 54 -33 84 -45 31 -11 62 -28 69 -36 7 -9 31
-25 53 -36 71 -36 213 -163 253 -225 9 -15 30 -44 45 -63 18 -24 37 -73 58
-157 l32 -122 -25 -88 c-14 -49 -28 -102 -32 -120 -3 -18 -23 -54 -43 -80 -45
-59 -183 -193 -198 -193 -6 0 -31 -16 -55 -35 -24 -19 -66 -42 -94 -51 -27 -9
-70 -27 -95 -40 -25 -12 -84 -32 -130 -43 -47 -12 -119 -30 -160 -41 -41 -12
-130 -27 -196 -35 -67 -8 -142 -19 -165 -25 -54 -13 -513 -7 -609 8 -185 30
-240 42 -276 60 -21 11 -59 25 -84 32 -25 6 -70 26 -100 44 -30 19 -70 41 -88
50 -56 29 -190 174 -224 243 -29 59 -30 68 -26 147 5 69 11 94 38 144 36 68
134 166 188 189 20 8 50 25 66 38 26 20 246 84 346 102 41 7 73 -25 73 -75 0
-50 -13 -67 -61 -83 -20 -6 -44 -18 -53 -25 -8 -8 -35 -24 -60 -37 -63 -33
-108 -118 -109 -204 0 -77 42 -179 86 -208 16 -10 38 -27 49 -38 22 -21 195
-84 259 -95 22 -4 107 -4 190 -1 120 5 160 10 196 26 25 11 68 26 97 32 28 7
60 22 70 33 10 11 39 31 64 43 37 19 54 38 95 107 l49 83 0 112 c0 101 -2 114
-22 140 -13 15 -32 44 -43 64 -10 20 -45 58 -77 83 -106 85 -161 116 -247 135
-186 42 -281 72 -298 92 -21 25 -25 151 -8 259 17 105 27 121 90 144 8 3 44 3
80 1 36 -3 124 -9 195 -15z m-604 -8 c18 -15 22 -28 21 -68 -1 -27 6 -81 13
-121 8 -40 15 -94 15 -121 0 -74 -19 -91 -121 -113 -247 -51 -364 -98 -501
-201 -178 -135 -254 -379 -180 -585 15 -43 44 -100 65 -126 20 -27 37 -52 37
-55 0 -21 245 -202 273 -202 5 0 37 -14 70 -31 33 -16 122 -45 197 -63 75 -19
144 -37 152 -42 8 -5 29 -26 47 -46 31 -36 32 -39 20 -75 -8 -25 -10 -83 -7
-191 l6 -154 -32 -19 c-26 -16 -50 -19 -145 -19 -104 0 -124 3 -215 34 -56 19
-127 39 -158 46 -32 6 -78 22 -103 35 -25 14 -72 31 -104 40 -33 8 -93 31
-133 50 -40 19 -80 35 -89 35 -9 0 -35 14 -59 31 -24 17 -64 38 -89 47 -25 8
-59 24 -76 36 -16 12 -46 28 -65 37 -19 9 -55 32 -78 53 -24 20 -51 36 -59 36
-18 0 -294 276 -309 310 -7 14 -29 61 -50 105 l-39 80 0 145 c0 141 1 148 29
200 15 30 34 71 41 90 31 85 200 305 297 386 95 79 124 101 158 119 19 10 51
30 70 45 19 15 55 34 80 42 25 8 62 27 82 40 21 14 54 29 75 33 21 4 69 20
106 37 38 16 114 38 170 49 56 10 127 28 157 38 68 24 193 40 371 49 23 1 45
-5 60 -16z m324 -581 c27 -11 84 -27 125 -37 116 -27 191 -74 280 -177 41 -48
50 -65 50 -97 0 -57 -12 -81 -80 -153 -41 -44 -72 -68 -93 -73 -18 -3 -58 -19
-89 -35 -61 -31 -91 -35 -132 -19 -39 14 -32 27 27 46 69 21 77 28 115 95 36
64 38 84 17 157 -14 46 -24 58 -78 97 -59 44 -88 56 -170 70 -49 8 -77 36 -77
77 0 31 24 68 44 68 6 0 33 -9 61 -19z m15 -282 c51 -23 60 -33 60 -70 0 -58
-101 -100 -155 -65 -48 32 -26 156 28 156 12 0 42 -10 67 -21z m-299 -19 c15
-9 19 -22 19 -63 0 -71 51 -150 115 -177 52 -22 62 -36 36 -49 -29 -16 -50
-13 -89 12 -20 12 -57 29 -82 38 -52 18 -110 85 -110 126 0 30 33 87 63 108
26 18 23 18 48 5z m244 -910 c17 -11 48 -29 70 -39 22 -11 74 -50 115 -89 l75
-69 0 -57 c0 -52 -3 -60 -31 -84 -81 -69 -112 -90 -149 -102 -22 -7 -53 -22
-68 -32 -38 -27 -69 -17 -98 29 -21 35 -23 50 -25 208 0 94 -3 183 -5 200 -3
23 1 32 21 42 35 18 60 16 95 -7z m-234 -770 c27 -26 29 -35 28 -92 -2 -107
-18 -127 -111 -143 -20 -3 -78 -25 -130 -49 -73 -35 -108 -59 -162 -112 -88
-87 -110 -135 -110 -234 0 -168 67 -264 238 -344 55 -25 118 -49 140 -53 74
-12 105 -68 71 -132 -21 -42 -65 -56 -128 -43 -29 6 -74 14 -102 17 -27 4 -84
22 -125 40 -41 18 -86 36 -100 40 -14 4 -43 20 -65 35 -22 16 -57 34 -78 41
-50 18 -203 166 -244 238 -72 126 -76 138 -71 225 3 50 11 94 22 115 22 41
190 207 231 228 17 8 41 25 55 38 14 12 46 29 72 38 26 9 62 27 80 40 18 14
60 32 93 42 32 9 80 28 107 41 41 21 168 49 236 53 14 0 36 -11 53 -29z m552
-321 c42 -4 110 -20 150 -33 39 -14 92 -30 116 -36 133 -35 300 -166 316 -247
4 -20 13 -50 21 -65 21 -40 17 -78 -15 -157 -32 -78 -86 -146 -137 -174 -19
-9 -38 -26 -44 -36 -5 -11 -36 -29 -67 -41 -32 -11 -79 -32 -104 -45 -25 -13
-79 -29 -120 -36 -66 -10 -112 -19 -304 -61 -71 -16 -100 -6 -129 45 -59 102
-22 167 96 167 143 0 264 28 435 100 25 10 83 117 83 152 0 13 -15 50 -33 83
-31 58 -34 60 -122 98 -59 25 -117 42 -170 49 -296 37 -316 43 -352 97 -46 68
-24 134 49 151 37 9 211 3 331 -11z m-543 -39 c37 -37 23 -84 -36 -121 -36
-22 -84 -106 -84 -147 0 -24 49 -100 89 -136 53 -50 39 -106 -27 -106 -37 0
-204 72 -241 104 -28 25 -61 97 -61 134 0 79 78 193 154 224 16 7 53 25 81 40
61 32 98 35 125 8z m604 -364 c41 -17 50 -30 42 -61 -7 -28 -60 -58 -118 -69
-20 -4 -104 -11 -185 -16 -170 -10 -183 -5 -183 60 0 54 27 82 86 91 95 13
323 10 358 -5z"/>
</g>
</svg>
