<?xml version="1.0" standalone="no"?>
<!DOCTYPE svg PUBLIC "-//W3C//DTD SVG 20010904//EN"
 "http://www.w3.org/TR/2001/REC-SVG-20010904/DTD/svg10.dtd">
<svg version="1.0" xmlns="http://www.w3.org/2000/svg"
 width="416.000000pt" height="432.000000pt" viewBox="0 0 416.000000 432.000000"
 preserveAspectRatio="xMidYMid meet">
<metadata>
Created by potrace 1.16, written by Peter Selinger 2001-2019
</metadata>
<rect x="0" y="0" width="416" height="432" fill="#ffffff"/>
<g transform="translate(0.000000,432.000000) scale(0.100000,-0.100000)"
fill="#000000" stroke="none">
<path d="M1949 4293 c-5 -16 -22 -51 -36 -79 l-27 -52 17 -70 c35 -143 22
-162 -110 -169 -83 -4 -289 -45 -324 -64 -9 -5 -50 -14 -90 -20 -46 -7 -96
-23 -137 -45 -35 -19 -74 -34 -86 -34 -13 0 -49 -14 -81 -31 -32 -17 -80 -38
-106 -45 -27 -8 -61 -25 -76 -38 -15 -13 -50 -35 -78 -50 -134 -72 -250 -163
-380 -297 -101 -105 -153 -170 -190 -238 -11 -20 -31 -52 -44 -70 -13 -18 -34
-63 -48 -99 -13 -37 -33 -92 -44 -122 -52 -142 -41 -452 19 -561 17 -30 33
-65 37 -78 19 -63 260 -312 366 -380 26 -16 50 -34 53 -40 4 -6 22 -17 40 -25
18 -7 53 -29 78 -48 25 -20 59 -39 75 -42 15 -4 43 -19 61 -32 18 -14 54 -33
80 -41 26 -9 67 -29 91 -45 25 -15 52 -28 61 -28 8 0 49 -16 90 -36 41 -19
104 -42 140 -50 81 -19 112 -38 108 -67 -4 -29 -49 -53 -154 -83 -49 -14 -109
-38 -134 -54 -25 -15 -62 -36 -82 -46 -35 -18 -121 -113 -148 -164 -7 -12 -25
-60 -41 -106 -37 -107 -38 -176 -4 -253 13 -31 29 -75 35 -99 19 -75 195 -253
314 -319 86 -47 174 -85 217 -93 64 -12 117 -37 130 -61 9 -18 30 -19 439 -19
418 0 430 1 440 20 15 29 59 48 144 64 40 8 98 28 127 44 30 16 66 32 81 36
14 3 39 17 55 30 15 13 46 33 69 44 40 20 217 187 263 247 46 61 110 203 121
267 24 153 4 379 -40 435 -11 15 -29 47 -40 71 -45 101 -193 252 -329 335 -25
16 -57 39 -71 52 -27 24 -153 92 -233 124 -54 23 -68 45 -43 69 13 13 44 18
139 24 67 3 163 13 212 21 50 8 124 20 165 27 41 7 122 26 180 42 58 17 135
38 172 48 38 10 87 29 110 43 24 13 68 32 99 41 31 9 62 23 70 32 7 8 33 27
58 40 156 84 324 294 350 440 6 32 18 84 26 114 21 78 19 192 -5 268 -11 35
-20 76 -20 90 0 37 -86 206 -135 267 -87 107 -230 237 -300 272 -22 12 -48 30
-59 42 -10 11 -35 26 -54 32 -20 7 -53 24 -74 40 -21 15 -62 33 -91 39 -28 7
-77 25 -107 41 -30 15 -83 33 -117 39 -34 6 -101 24 -149 41 -72 25 -117 32
-253 43 -91 8 -179 19 -195 25 -19 8 -77 11 -154 10 -121 -3 -125 -2 -144 21
-17 21 -19 32 -12 80 17 108 12 143 -23 183 -17 19 -34 45 -38 56 -6 19 -14
21 -111 21 l-104 0 -11 -27z m429 -665 c18 -5 63 -11 100 -13 146 -8 277 -26
355 -50 45 -13 115 -31 155 -40 41 -8 105 -29 143 -45 37 -17 83 -33 101 -37
40 -7 86 -29 113 -53 11 -10 38 -23 60 -30 22 -7 56 -24 75 -39 19 -15 48 -35
64 -45 46 -29 218 -208 252 -262 35 -56 84 -216 84 -274 0 -68 -50 -220 -92
-282 -49 -71 -168 -192 -211 -214 -17 -9 -57 -31 -87 -50 -30 -18 -75 -38
-100 -44 -25 -7 -61 -21 -82 -31 -39 -20 -174 -57 -328 -91 -265 -57 -890 -59
-1085 -3 -110 32 -214 72 -292 113 -110 57 -244 188 -292 284 -31 64 -33 73
-29 146 4 69 9 86 43 143 37 61 136 169 155 169 5 0 28 15 52 34 58 43 323
124 415 125 35 1 73 -36 73 -71 0 -35 -29 -77 -58 -83 -34 -8 -77 -29 -122
-60 -19 -13 -44 -31 -56 -39 -29 -20 -64 -118 -64 -177 0 -64 46 -176 80 -197
14 -8 48 -30 75 -48 29 -19 89 -43 145 -58 82 -22 115 -26 240 -26 80 0 161 5
180 10 125 32 162 46 220 85 77 51 125 100 169 173 63 105 61 235 -4 332 -46
69 -120 147 -160 167 -16 9 -42 26 -57 39 -15 12 -53 28 -84 34 -32 7 -76 20
-98 30 -23 9 -88 25 -145 34 -177 30 -182 36 -157 173 9 48 16 116 16 151 0
71 19 118 53 132 25 10 136 3 185 -12z m-394 -10 c9 -15 16 -69 20 -158 3 -74
8 -151 12 -171 5 -29 1 -41 -17 -62 -21 -24 -35 -28 -125 -36 -60 -6 -121 -19
-150 -31 -26 -12 -80 -30 -118 -40 -38 -11 -86 -31 -107 -44 -20 -14 -52 -31
-70 -40 -32 -13 -97 -73 -177 -158 -20 -22 -48 -76 -72 -136 -63 -160 -56
-242 36 -427 43 -86 163 -214 216 -230 13 -4 43 -22 68 -40 25 -18 56 -36 70
-40 14 -4 59 -22 100 -40 41 -19 104 -39 139 -45 73 -13 126 -37 156 -70 18
-20 20 -38 23 -240 3 -214 3 -219 -19 -241 -20 -20 -28 -21 -96 -15 -41 3
-106 17 -146 32 -40 14 -99 32 -132 41 -33 8 -85 24 -115 35 -30 11 -95 32
-145 47 -49 15 -108 37 -130 48 -22 11 -65 28 -95 38 -30 10 -70 29 -88 42
-18 13 -54 32 -80 40 -26 9 -69 31 -96 50 -26 18 -52 33 -57 33 -11 0 -136 85
-169 115 -14 12 -38 30 -55 38 -34 17 -175 159 -175 176 0 5 -13 25 -28 43
-16 18 -48 69 -73 113 l-44 80 -3 147 -4 147 40 88 c22 48 43 99 47 112 4 13
21 43 39 67 17 23 40 56 51 73 48 72 107 139 162 184 98 80 146 115 188 138
22 12 51 31 65 44 14 12 47 30 74 39 27 8 64 27 82 41 18 14 57 31 87 39 30 8
77 26 104 40 28 14 81 30 117 36 37 6 84 17 104 25 90 35 323 71 432 67 25 -1
56 4 70 12 38 21 68 19 84 -6z m289 -593 c35 -8 84 -23 108 -34 24 -11 66 -25
93 -31 64 -14 142 -77 204 -164 45 -63 44 -106 -5 -178 -67 -97 -108 -125
-245 -170 -173 -56 -196 -57 -320 -19 -151 47 -172 58 -217 113 -49 60 -52 93
-14 140 34 40 42 46 71 54 38 11 62 -20 62 -81 0 -47 4 -57 48 -108 59 -70 90
-82 199 -74 l84 6 70 62 69 61 0 62 c0 78 -12 100 -84 158 -45 36 -73 50 -115
58 -146 29 -188 59 -163 115 21 45 59 52 155 30z m26 -284 c63 -50 67 -64 31
-104 -66 -76 -134 -73 -188 8 -24 36 -32 56 -27 75 16 70 109 80 184 21z m-9
-985 c30 -7 78 -25 105 -39 28 -14 71 -30 95 -37 25 -6 63 -24 85 -39 22 -16
56 -35 75 -43 54 -23 264 -195 297 -245 10 -14 34 -44 54 -67 20 -22 55 -77
79 -121 l42 -80 -4 -141 c-3 -142 -3 -142 -34 -181 -17 -21 -41 -56 -52 -78
-31 -59 -154 -176 -222 -210 -19 -10 -43 -24 -52 -33 -10 -8 -53 -27 -95 -42
-43 -16 -107 -39 -143 -53 -36 -14 -101 -30 -145 -36 -44 -7 -99 -18 -122 -25
-34 -11 -46 -11 -60 -1 -14 11 -15 16 -4 43 16 39 43 57 116 76 98 25 229 139
255 221 8 27 37 65 88 117 72 74 75 79 80 132 2 30 1 71 -2 90 -8 44 -93 143
-144 170 -20 10 -49 29 -64 42 -15 12 -54 28 -85 34 -90 17 -132 40 -206 111
l-69 66 1 173 c1 95 6 181 12 191 12 22 42 24 119 5z m-385 -607 c42 -23 79
-48 82 -56 10 -25 -27 -51 -88 -62 -82 -14 -236 -85 -282 -129 -69 -66 -92
-116 -91 -199 1 -45 6 -79 15 -91 8 -10 30 -40 49 -66 44 -61 147 -129 226
-151 74 -20 137 -67 132 -99 -3 -20 -7 -21 -103 -18 -55 2 -131 9 -170 17 -38
8 -108 19 -155 25 -77 10 -161 39 -275 96 -96 47 -184 128 -232 213 -32 57
-37 75 -37 131 -1 58 3 72 36 125 20 33 56 79 80 102 55 53 172 111 268 134
41 9 111 27 155 39 88 24 220 40 277 34 20 -2 71 -23 113 -45z m483 -33 c107
-29 224 -121 236 -187 9 -51 -7 -89 -37 -89 -25 0 -55 19 -122 80 -23 21 -73
49 -115 65 -41 16 -81 33 -87 38 -22 16 -16 74 9 91 27 20 48 20 116 2z m-404
-218 c20 -29 22 -230 3 -268 -21 -41 -57 -47 -140 -21 -145 45 -171 65 -169
131 2 60 73 124 167 149 22 6 47 15 55 21 27 17 68 11 84 -12z m347 -34 c34
-17 99 -92 99 -113 0 -16 -36 -101 -42 -101 -2 0 -39 -12 -83 -28 -44 -15 -90
-26 -103 -24 -42 6 -62 56 -62 154 0 99 10 135 42 147 24 9 99 -9 149 -35z"/>
</g>
</svg>
