<?xml version="1.0" standalone="no"?>
<!DOCTYPE svg PUBLIC "-//W3C//DTD SVG 20010904//EN"
 "http://www.w3.org/TR/2001/REC-SVG-20010904/DTD/svg10.dtd">
<svg version="1.0" xmlns="http://www.w3.org/2000/svg"
 width="400.000000pt" height="616.000000pt" viewBox="0 0 400.000000 616.000000"
 preserveAspectRatio="xMidYMid meet">
<metadata>
Created by potrace 1.16, written by Peter Selinger 2001-2019
</metadata>
<rect x="0" y="0" width="400" height="616" fill="#ffffff"/>
<g transform="translate(0.000000,616.000000) scale(0.100000,-0.100000)"
fill="#000000" stroke="none">
<path d="M1950 6141 c0 -10 -12 -29 -26 -42 -92 -83 -87 -73 -80 -153 8 -93 0
-101 -109 -110 -143 -11 -219 -23 -260 -40 -22 -10 -77 -26 -123 -37 -46 -10
-98 -30 -115 -43 -18 -13 -53 -30 -78 -39 -75 -25 -253 -163 -275 -214 -8 -18
-27 -47 -43 -65 -41 -48 -81 -189 -81 -290 0 -94 37 -223 79 -271 16 -17 36
-47 45 -64 10 -21 34 -42 64 -57 26 -13 55 -33 66 -45 10 -11 41 -28 69 -37
28 -9 66 -26 85 -37 32 -19 129 -43 266 -68 32 -5 68 -15 78 -20 52 -28 455
-32 578 -6 100 21 243 63 277 81 15 8 59 39 98 68 56 43 78 68 112 129 39 69
43 83 44 151 2 70 0 81 -41 162 -28 58 -51 91 -69 100 -14 8 -43 28 -64 44
-21 17 -68 40 -104 52 -37 12 -79 28 -93 35 -14 7 -46 16 -72 20 -26 4 -54 15
-63 25 -22 24 -30 91 -16 119 11 19 20 21 95 21 58 0 113 -8 177 -25 52 -14
127 -32 168 -40 44 -9 94 -27 120 -44 25 -16 63 -34 83 -41 38 -11 52 -22 157
-115 82 -72 122 -121 166 -200 31 -57 39 -83 43 -141 3 -52 0 -80 -10 -100 -8
-16 -27 -52 -41 -79 -41 -81 -203 -220 -290 -251 -22 -8 -56 -26 -74 -40 -18
-14 -56 -32 -83 -40 -28 -8 -66 -25 -84 -38 -20 -13 -64 -28 -106 -35 -40 -6
-95 -24 -127 -41 -66 -35 -141 -40 -215 -13 -45 16 -48 16 -97 -6 -29 -12 -72
-35 -97 -51 -54 -34 -66 -37 -204 -49 -58 -6 -145 -22 -195 -37 -49 -14 -119
-33 -155 -41 -36 -7 -101 -29 -145 -47 -44 -19 -98 -37 -120 -41 -22 -3 -58
-19 -80 -35 -22 -15 -60 -33 -83 -39 -23 -7 -58 -25 -76 -42 -19 -16 -49 -35
-67 -41 -33 -11 -119 -69 -188 -125 -48 -39 -239 -232 -277 -279 -17 -22 -41
-60 -54 -84 -12 -25 -36 -60 -51 -78 -16 -18 -29 -38 -29 -45 0 -7 -16 -44
-35 -82 -19 -38 -37 -90 -41 -115 -3 -25 -14 -78 -25 -118 -23 -87 -25 -205
-4 -282 8 -30 20 -82 26 -115 12 -66 69 -179 127 -251 77 -95 218 -226 278
-257 17 -9 50 -32 73 -51 24 -20 49 -36 55 -36 7 0 31 -13 53 -29 23 -16 65
-42 94 -57 30 -14 65 -34 79 -44 14 -9 50 -25 80 -35 30 -10 64 -24 75 -31 25
-17 309 -128 350 -138 17 -4 53 -18 80 -31 28 -13 79 -28 114 -35 36 -6 92
-22 125 -36 34 -13 103 -33 154 -44 100 -21 148 -47 158 -85 3 -13 3 -86 -1
-162 -3 -76 -9 -284 -14 -463 -7 -326 -21 -460 -55 -557 -15 -43 -17 -36 29
-120 8 -16 15 -34 15 -40 0 -10 25 -13 90 -13 71 0 90 3 90 14 0 21 58 66 85
66 13 0 49 14 81 31 33 17 83 40 112 51 29 11 56 27 59 35 3 9 29 26 57 39 28
14 71 40 96 60 126 98 163 132 177 159 8 17 26 41 39 55 43 47 104 181 116
255 20 127 -32 276 -131 380 -82 85 -239 197 -296 210 -17 4 -54 21 -84 38
-29 16 -96 40 -147 53 -111 27 -179 64 -191 102 -5 15 -7 107 -4 205 5 162 8
180 25 193 15 10 53 14 145 14 69 1 146 5 171 11 25 5 100 18 167 29 77 12
141 29 170 44 27 13 74 29 105 35 31 7 74 24 95 40 21 15 52 33 69 39 17 7 45
25 62 40 190 164 230 210 278 329 19 48 39 92 45 99 17 21 122 80 172 97 25 8
61 27 79 40 18 14 49 33 68 42 50 25 130 100 162 150 15 24 41 51 57 61 l31
18 0 171 0 170 -30 17 c-18 10 -38 35 -49 61 -30 69 -105 161 -194 237 -45 38
-100 85 -123 104 -22 19 -53 40 -69 46 -15 6 -44 23 -64 39 -20 15 -53 34 -73
40 -20 7 -53 23 -71 36 -19 12 -61 31 -93 40 -33 9 -88 29 -124 45 -36 16 -94
34 -129 40 -35 6 -94 23 -132 36 -38 14 -102 29 -142 33 -85 10 -117 24 -117
51 0 19 45 50 73 50 7 0 49 18 92 40 43 22 84 40 90 40 6 0 22 12 36 26 13 14
42 35 64 46 22 11 51 30 65 43 14 12 38 29 53 37 15 8 46 36 67 64 35 43 56
79 124 210 38 74 29 264 -18 353 -13 26 -29 65 -35 88 -6 22 -22 51 -35 64
-12 13 -35 42 -49 65 -48 78 -207 222 -296 269 -21 11 -54 32 -74 48 -20 15
-51 30 -69 34 -29 5 -50 15 -132 60 -11 6 -62 18 -112 27 -116 20 -181 47
-194 81 -5 14 -7 52 -3 85 5 56 -8 120 -27 120 -16 0 -80 72 -80 90 0 18 -7
20 -90 20 -82 0 -90 -2 -90 -19z m-3 -627 c44 -12 55 -103 16 -146 -9 -10 -29
-18 -45 -18 -16 0 -57 -12 -91 -26 -34 -15 -83 -33 -108 -40 -59 -18 -172
-131 -188 -189 -21 -75 -7 -172 27 -197 9 -7 29 -30 45 -50 19 -25 51 -49 102
-73 74 -35 75 -35 214 -35 128 0 146 2 196 25 31 13 70 34 87 46 32 23 78 109
78 147 0 41 -67 160 -101 177 -33 18 -34 38 -1 43 27 4 167 -52 208 -83 17
-13 46 -46 64 -72 28 -42 31 -54 28 -103 -3 -48 -10 -63 -52 -117 -40 -51 -63
-69 -136 -107 -78 -40 -105 -49 -240 -72 -162 -27 -284 -29 -400 -6 -30 6 -93
17 -140 23 -47 7 -134 29 -194 51 -168 59 -245 125 -294 250 l-31 77 28 79
c24 66 37 87 84 133 88 84 123 109 179 130 29 11 73 30 98 44 25 13 63 26 85
30 22 3 85 19 140 35 123 36 292 57 342 44z m-167 -444 c0 -11 -7 -38 -16 -60
-12 -31 -22 -40 -40 -40 -31 0 -49 32 -34 61 11 19 66 59 83 59 4 0 7 -9 7
-20z m195 -70 c0 -8 -10 -16 -22 -18 -22 -3 -32 16 -16 32 12 11 38 2 38 -14z
m725 -1159 c86 -6 171 -20 235 -37 55 -15 141 -34 192 -44 61 -11 104 -25 130
-42 21 -14 54 -29 73 -33 19 -4 55 -19 80 -33 25 -15 66 -38 92 -52 109 -59
234 -172 298 -271 31 -49 35 -62 38 -140 l4 -85 -44 -63 c-28 -42 -58 -72 -88
-88 -25 -14 -54 -33 -65 -43 -11 -10 -38 -23 -59 -30 -22 -7 -54 -21 -72 -32
-19 -11 -41 -17 -53 -13 -26 8 -67 63 -96 130 -30 67 -164 204 -234 240 -26
13 -53 30 -60 39 -7 8 -36 22 -64 32 -29 9 -67 27 -85 41 -17 13 -58 29 -90
35 -31 5 -93 21 -137 34 -134 40 -240 54 -406 54 -195 0 -193 -2 -195 111 -1
47 4 102 12 128 8 25 14 61 14 79 0 45 16 71 52 87 36 15 309 13 528 -4z
m-788 -12 c33 -18 48 -71 48 -169 0 -49 5 -110 12 -134 10 -37 9 -48 -5 -69
-13 -21 -27 -27 -74 -32 -94 -11 -385 -85 -428 -110 -22 -12 -57 -28 -79 -35
-21 -7 -59 -25 -85 -40 -25 -15 -66 -39 -91 -54 -119 -70 -208 -169 -271 -299
-38 -78 -39 -84 -39 -185 0 -100 2 -108 40 -196 33 -73 54 -104 108 -159 37
-38 94 -89 127 -115 61 -47 245 -143 300 -156 17 -4 65 -20 107 -37 49 -18
113 -33 175 -40 155 -17 161 -19 190 -44 l28 -23 3 -168 c4 -181 1 -209 -24
-218 -9 -3 -60 7 -114 24 -53 16 -106 30 -116 30 -21 0 -209 61 -369 120 -55
21 -116 41 -135 45 -19 4 -55 20 -80 35 -25 16 -65 33 -89 40 -41 11 -132 58
-246 127 -27 17 -64 39 -81 49 -101 60 -162 110 -270 219 -97 98 -125 132
-138 171 -9 27 -29 66 -44 88 -26 37 -27 46 -30 177 -4 144 11 232 42 258 8 7
22 36 32 64 9 29 28 68 43 87 15 19 34 46 41 60 54 103 315 339 420 380 19 7
50 26 67 41 18 16 52 33 75 39 24 7 66 25 93 40 28 16 73 34 100 40 27 6 78
24 114 40 36 15 100 33 141 40 41 6 111 22 155 35 137 40 304 57 347 34z m463
-584 c50 -14 123 -32 164 -40 41 -8 91 -26 112 -39 20 -14 61 -32 92 -41 30
-9 63 -25 73 -36 11 -12 39 -32 64 -45 75 -39 135 -104 186 -200 43 -81 48
-97 52 -170 3 -64 1 -89 -14 -119 -28 -60 -178 -204 -243 -233 -31 -14 -69
-34 -86 -46 -16 -12 -63 -33 -105 -48 -41 -14 -100 -35 -130 -46 -30 -11 -95
-23 -145 -27 -49 -4 -113 -13 -142 -21 -28 -8 -67 -14 -87 -14 -67 0 -65 -18
-67 589 -1 519 0 546 18 559 25 19 144 9 258 -23z m-399 14 c10 -18 4 -1090
-7 -1111 -9 -16 -18 -17 -82 -12 -127 11 -295 42 -344 64 -27 12 -68 28 -91
35 -24 8 -61 25 -82 39 -21 14 -54 31 -73 40 -52 21 -213 184 -240 243 -31 69
-31 219 2 286 44 90 219 250 311 284 25 9 63 27 85 39 22 13 90 34 150 48 61
14 130 32 155 40 54 17 206 21 216 5z m256 -1938 c40 -15 91 -34 113 -41 22
-7 53 -22 68 -33 16 -11 54 -32 85 -47 81 -39 209 -167 256 -254 20 -38 36
-80 36 -93 0 -38 -74 -178 -122 -232 -24 -26 -58 -56 -75 -65 -18 -9 -37 -25
-42 -35 -6 -10 -34 -28 -63 -41 -29 -12 -66 -33 -83 -45 -16 -13 -50 -29 -75
-35 -25 -7 -63 -23 -86 -36 -50 -29 -78 -30 -104 -4 -19 19 -20 33 -20 213 0
105 -4 207 -9 225 -16 53 -17 518 -1 537 18 21 39 19 122 -14z"/>
</g>
</svg>
