<?xml version="1.0" standalone="no"?>
<!DOCTYPE svg PUBLIC "-//W3C//DTD SVG 20010904//EN"
 "http://www.w3.org/TR/2001/REC-SVG-20010904/DTD/svg10.dtd">
<svg version="1.0" xmlns="http://www.w3.org/2000/svg"
 width="408.000000pt" height="408.000000pt" viewBox="0 0 408.000000 408.000000"
 preserveAspectRatio="xMidYMid meet">
<metadata>
Created by potrace 1.16, written by Peter Selinger 2001-2019
</metadata>
<rect x="0" y="0" width="408" height="408" fill="#ffffff"/>
<g transform="translate(0.000000,408.000000) scale(0.100000,-0.100000)"
fill="#000000" stroke="none">
<path d="M1729 4064 c-26 -31 -95 -57 -191 -70 -53 -8 -126 -25 -162 -38 -36
-14 -91 -30 -123 -35 -31 -6 -80 -23 -108 -38 -27 -14 -80 -34 -117 -43 -37
-10 -79 -27 -93 -38 -14 -12 -50 -28 -78 -38 -29 -9 -65 -27 -82 -39 -16 -13
-52 -35 -80 -49 -157 -84 -382 -289 -478 -436 -67 -101 -123 -210 -136 -263
-15 -63 -57 -157 -70 -157 -7 0 -11 -47 -11 -136 0 -112 3 -139 15 -148 9 -6
33 -58 55 -115 22 -57 46 -111 54 -120 7 -9 21 -30 30 -48 40 -79 216 -246
360 -342 153 -102 340 -204 422 -231 21 -7 62 -25 89 -41 28 -15 69 -32 92
-39 24 -6 75 -26 115 -45 40 -19 79 -35 88 -35 8 0 69 -18 135 -39 208 -69
308 -100 374 -115 105 -24 103 -20 102 -252 0 -110 -4 -341 -9 -514 l-8 -315
-34 -75 c-23 -52 -34 -95 -38 -142 l-5 -68 182 0 c180 0 182 0 190 23 12 31
31 45 84 61 25 7 60 25 78 38 19 14 48 30 66 37 17 7 42 24 55 38 12 14 39 33
58 43 48 26 223 197 245 240 10 19 31 51 46 70 37 46 48 102 49 231 0 123 -13
175 -61 242 -45 64 -154 177 -171 177 -7 0 -30 14 -50 30 -20 17 -54 38 -75
48 -21 9 -58 29 -83 44 -25 14 -61 29 -80 33 -19 4 -65 20 -101 35 -37 16 -92
33 -122 40 -31 6 -67 20 -81 31 l-26 20 0 310 c0 300 1 310 21 330 18 18 28
20 72 14 120 -16 388 -16 465 -1 43 8 136 18 207 21 164 8 325 43 520 112 39
14 100 36 137 49 37 12 80 32 95 43 15 12 47 31 69 43 160 88 346 281 379 395
11 36 25 60 45 75 l30 22 0 196 0 197 -25 11 c-26 12 -49 49 -60 99 -18 84
-233 311 -351 371 -22 11 -46 27 -53 36 -7 8 -36 22 -64 32 -29 9 -72 29 -97
44 -25 16 -65 33 -90 40 -25 6 -79 24 -120 40 -41 15 -111 33 -155 38 -83 11
-141 31 -187 63 -25 18 -53 19 -581 19 -492 0 -556 -2 -568 -16z m766 -220
c112 -10 203 -23 240 -35 33 -10 103 -28 155 -39 52 -12 124 -34 161 -50 37
-17 90 -35 118 -41 28 -6 67 -22 88 -36 21 -14 55 -31 75 -39 21 -7 59 -29 84
-49 26 -19 52 -35 58 -35 18 0 209 -194 246 -252 l35 -53 0 -130 0 -130 -40
-63 c-46 -71 -200 -234 -245 -257 -16 -8 -34 -24 -39 -34 -6 -10 -34 -28 -63
-41 -29 -12 -65 -33 -80 -45 -15 -13 -44 -29 -65 -35 -21 -7 -57 -24 -80 -37
-23 -13 -79 -35 -125 -47 -46 -13 -110 -34 -143 -46 -33 -12 -113 -28 -179
-36 -65 -7 -135 -18 -155 -24 -20 -5 -130 -10 -244 -10 -207 0 -208 0 -232 25
l-25 24 0 445 c0 347 3 457 14 498 10 38 14 120 14 278 1 220 6 264 33 287 29
23 168 26 394 7z m-604 -32 c17 -14 24 -35 31 -83 5 -35 8 -361 8 -724 0 -659
0 -660 -21 -677 -12 -10 -29 -18 -38 -18 -33 0 -172 30 -208 45 -21 9 -74 25
-118 35 -44 10 -111 35 -148 54 -38 20 -76 36 -85 36 -15 0 -43 16 -157 94
-151 102 -245 200 -298 310 -65 136 -72 214 -31 311 14 33 33 79 43 103 24 66
232 271 306 303 17 8 46 26 65 40 19 15 51 30 70 34 19 4 70 23 113 42 43 19
105 38 138 43 33 5 94 20 137 34 129 42 159 44 193 18z m-1111 -282 c0 -5 -27
-61 -59 -122 -37 -71 -63 -135 -70 -172 -14 -75 -14 -197 -1 -267 12 -66 71
-188 118 -249 65 -83 207 -221 247 -242 22 -11 52 -31 67 -44 15 -12 44 -28
65 -34 21 -7 53 -24 72 -38 18 -14 59 -33 90 -42 31 -10 73 -28 92 -39 20 -12
74 -30 120 -40 46 -10 109 -28 140 -40 31 -11 98 -26 148 -32 64 -9 96 -18
108 -31 14 -16 16 -50 14 -306 -3 -329 -5 -339 -70 -329 -96 15 -221 47 -257
65 -22 11 -69 26 -104 32 -35 6 -95 24 -134 40 -40 15 -92 33 -116 40 -25 6
-70 24 -100 40 -30 15 -75 33 -100 40 -25 6 -62 22 -83 36 -20 13 -61 34 -90
45 -28 11 -68 30 -87 42 -19 12 -51 29 -71 38 -19 9 -56 32 -82 50 -25 19 -74
54 -109 79 -140 99 -231 197 -317 339 -41 68 -62 168 -63 291 0 159 40 279
146 443 61 93 211 257 294 321 93 72 192 116 192 86z m1475 -2289 c46 -22 95
-43 107 -46 13 -4 38 -18 56 -32 17 -13 47 -29 65 -35 17 -6 51 -28 74 -50 24
-21 47 -38 52 -38 12 0 99 -114 110 -143 17 -46 22 -127 11 -180 -9 -44 -24
-71 -75 -135 -36 -44 -82 -90 -102 -103 -21 -12 -49 -33 -63 -45 -14 -13 -43
-30 -65 -37 -22 -8 -58 -26 -79 -40 -21 -15 -54 -29 -75 -32 -20 -4 -60 -15
-89 -26 -60 -21 -89 -14 -96 24 -24 116 -30 895 -8 935 20 35 76 29 177 -17z"/>
</g>
</svg>
