<?xml version="1.0" standalone="no"?>
<!DOCTYPE svg PUBLIC "-//W3C//DTD SVG 20010904//EN"
 "http://www.w3.org/TR/2001/REC-SVG-20010904/DTD/svg10.dtd">
<svg version="1.0" xmlns="http://www.w3.org/2000/svg"
 width="408.000000pt" height="552.000000pt" viewBox="0 0 408.000000 552.000000"
 preserveAspectRatio="xMidYMid meet">
<metadata>
Created by potrace 1.16, written by Peter Selinger 2001-2019
</metadata>
<rect x="0" y="0" width="408" height="552" fill="#ffffff"/>
<g transform="translate(0.000000,552.000000) scale(0.100000,-0.100000)"
fill="#000000" stroke="none">
<path d="M1958 5465 c-15 -9 -80 -26 -144 -40 -64 -14 -142 -34 -173 -44 -31
-10 -85 -22 -121 -26 -35 -3 -95 -19 -132 -35 -38 -16 -96 -34 -131 -40 -34
-6 -87 -24 -117 -39 -30 -16 -80 -34 -110 -41 -30 -7 -71 -23 -90 -35 -19 -13
-57 -32 -85 -42 -27 -11 -74 -36 -104 -56 -29 -20 -57 -37 -62 -37 -11 0 -124
-77 -187 -127 -79 -64 -221 -214 -276 -293 -84 -120 -126 -204 -157 -313 -18
-64 -36 -108 -49 -119 -18 -15 -20 -28 -20 -142 0 -75 4 -126 10 -126 17 0 40
-45 64 -127 12 -44 40 -109 62 -144 77 -127 338 -359 492 -439 27 -14 62 -34
78 -46 40 -28 180 -98 229 -114 22 -7 63 -25 90 -41 28 -15 69 -32 92 -39 24
-6 75 -26 115 -45 40 -19 79 -35 88 -35 8 0 69 -18 135 -39 229 -76 313 -102
380 -116 38 -8 75 -20 82 -28 11 -11 15 -58 16 -216 2 -123 -2 -209 -8 -220
-12 -21 -71 -74 -100 -88 -11 -6 -38 -14 -60 -17 -22 -4 -58 -19 -79 -34 -22
-15 -73 -41 -115 -58 -165 -68 -193 -82 -219 -107 -15 -15 -47 -33 -71 -42
-24 -8 -60 -28 -80 -45 -20 -16 -60 -49 -89 -72 -52 -41 -134 -120 -192 -183
-15 -16 -37 -48 -48 -71 -11 -22 -28 -46 -36 -53 -9 -8 -26 -46 -38 -85 -12
-39 -29 -89 -39 -111 -14 -29 -19 -65 -19 -134 0 -84 4 -107 41 -214 22 -66
49 -132 60 -146 11 -14 34 -47 52 -72 74 -107 108 -146 144 -166 22 -12 48
-32 59 -44 10 -11 35 -29 54 -39 19 -10 49 -30 65 -44 17 -15 52 -33 79 -41
27 -8 68 -26 92 -40 23 -14 71 -31 106 -39 35 -7 104 -26 153 -40 50 -15 121
-30 158 -33 43 -4 77 -13 90 -24 20 -16 21 -20 8 -51 -16 -40 -16 -58 1 -120
l13 -48 86 0 86 0 8 43 c4 23 10 71 14 107 7 78 23 90 117 90 97 0 224 20 284
45 30 13 80 28 111 34 31 7 76 25 101 40 24 16 61 34 80 40 20 7 53 25 74 42
20 16 41 29 45 29 17 0 172 155 206 205 18 28 40 59 48 70 8 11 22 68 32 127
15 98 15 112 1 186 -18 90 -46 139 -133 230 -80 85 -163 134 -315 185 -74 25
-152 47 -173 50 -82 12 -86 42 -14 95 140 104 279 271 304 367 17 64 17 249 0
306 -8 24 -29 66 -48 92 -45 64 -154 177 -171 177 -7 0 -30 14 -50 30 -20 17
-54 38 -75 48 -21 9 -58 29 -83 44 -25 14 -61 29 -80 33 -19 4 -66 20 -105 36
-38 15 -95 35 -127 43 -51 15 -58 20 -77 59 -20 41 -21 60 -21 323 l0 281 24
22 c21 20 31 22 73 16 88 -13 384 -16 432 -5 25 6 129 17 231 25 130 10 213
22 280 40 52 14 131 34 175 45 44 10 100 30 125 43 25 14 65 31 90 37 25 6 61
23 81 36 20 14 54 35 76 47 77 42 283 207 283 227 0 4 18 32 40 61 22 29 47
75 56 101 8 26 28 58 45 72 l29 25 0 203 0 203 -29 16 c-20 12 -34 32 -46 70
-21 62 -53 112 -121 188 -56 63 -168 156 -229 191 -24 14 -52 33 -62 43 -11 9
-42 24 -69 34 -27 9 -67 29 -89 44 -22 16 -65 34 -95 40 -30 6 -85 24 -121 40
-37 16 -98 33 -135 39 -38 5 -91 17 -119 25 -105 33 -256 47 -570 52 -282 4
-313 7 -343 24 -39 23 -58 23 -94 4z m537 -261 c112 -10 203 -23 240 -35 33
-10 103 -28 155 -39 52 -12 124 -34 161 -50 37 -17 90 -35 118 -41 28 -6 67
-22 88 -36 21 -14 55 -31 75 -39 21 -7 59 -29 84 -49 26 -19 52 -35 58 -35 19
0 209 -196 244 -252 68 -107 66 -268 -5 -378 -44 -70 -199 -232 -243 -255 -16
-8 -34 -24 -39 -34 -6 -10 -34 -28 -63 -41 -29 -12 -65 -33 -80 -45 -15 -13
-44 -29 -65 -35 -21 -7 -57 -24 -80 -37 -23 -13 -79 -35 -125 -47 -46 -13
-110 -34 -143 -46 -33 -12 -112 -28 -175 -35 -64 -8 -128 -19 -144 -24 -16 -7
-115 -11 -239 -11 -227 0 -242 3 -268 53 -18 32 -12 735 6 842 9 52 14 172 14
343 2 258 5 297 32 319 29 23 168 26 394 7z m-591 -36 c24 -39 28 -146 26
-650 -1 -461 0 -488 18 -525 16 -32 19 -58 18 -156 -2 -107 -4 -119 -24 -140
-19 -18 -32 -22 -85 -20 -34 1 -102 14 -152 29 -49 14 -124 35 -165 45 -41 10
-106 34 -143 53 -38 20 -76 36 -85 36 -15 0 -43 16 -157 94 -76 51 -110 77
-150 116 -51 50 -125 136 -125 145 0 4 -17 44 -37 89 -34 73 -37 89 -37 161 1
71 5 89 38 155 20 41 36 79 36 85 0 12 169 186 226 232 22 17 53 37 69 44 17
8 46 26 65 40 19 15 51 30 70 34 19 4 70 23 113 42 43 19 104 38 135 43 45 6
150 34 247 65 6 2 27 4 47 4 29 1 41 -4 52 -21z m-1124 -279 c0 -6 -13 -37
-29 -68 -16 -31 -47 -92 -68 -136 l-38 -80 0 -145 0 -145 43 -87 c23 -48 42
-90 42 -93 0 -3 24 -36 54 -74 61 -77 172 -181 231 -219 22 -14 52 -35 67 -48
15 -12 44 -28 65 -35 21 -6 56 -24 78 -40 22 -15 67 -35 100 -45 33 -9 78 -27
100 -40 22 -12 68 -28 102 -34 34 -6 77 -17 95 -25 19 -7 94 -25 168 -39 114
-22 139 -30 158 -52 27 -31 27 -32 2 -136 -16 -67 -20 -118 -20 -269 0 -245
10 -233 -175 -195 -38 8 -97 26 -130 39 -33 14 -89 30 -124 37 -35 6 -96 24
-135 40 -40 15 -92 33 -116 40 -25 6 -70 24 -100 40 -30 15 -75 33 -100 40
-25 6 -62 22 -83 36 -20 13 -61 34 -90 45 -28 11 -68 30 -87 42 -19 12 -55 32
-80 45 -25 12 -79 47 -120 77 -41 30 -91 66 -110 79 -45 31 -145 129 -189 184
-107 137 -154 287 -141 447 12 135 18 162 67 263 84 177 186 306 347 442 109
92 216 146 216 109z m1454 -2279 c48 -22 104 -44 126 -50 21 -6 52 -22 69 -35
16 -14 42 -31 58 -38 52 -22 155 -112 208 -181 34 -45 51 -153 36 -228 -10
-45 -25 -72 -76 -136 -36 -44 -82 -90 -102 -103 -21 -12 -49 -33 -63 -45 -14
-13 -43 -30 -65 -37 -22 -8 -58 -26 -79 -40 -21 -15 -54 -29 -75 -33 -20 -3
-59 -13 -88 -21 -60 -16 -90 -7 -97 30 -3 12 -7 82 -10 155 l-6 133 34 32 c43
39 56 73 56 139 0 47 -3 53 -46 92 l-45 42 -2 168 c-2 155 -1 169 17 182 30
22 57 17 150 -26z m-329 -627 c14 -14 16 -38 13 -177 -3 -144 -6 -165 -26
-203 -28 -54 -55 -71 -137 -88 -36 -8 -78 -24 -93 -35 -15 -12 -42 -28 -60
-36 -18 -7 -57 -35 -88 -61 -42 -37 -64 -67 -96 -133 -54 -113 -56 -177 -10
-264 18 -32 32 -64 32 -71 0 -19 79 -104 114 -122 17 -9 43 -26 58 -38 27 -23
181 -65 235 -65 37 0 83 -51 83 -92 0 -65 -47 -96 -101 -67 -11 6 -68 17 -127
26 -71 9 -127 24 -167 43 -33 15 -84 33 -113 40 -29 7 -65 22 -80 35 -15 12
-47 32 -72 45 -83 42 -182 133 -228 210 -14 25 -36 59 -48 77 -50 75 -55 281
-8 366 12 23 31 60 42 83 25 52 250 278 305 305 23 12 57 34 77 49 19 15 50
32 67 38 18 6 53 24 77 41 24 17 63 35 87 40 24 6 76 24 114 40 79 34 126 39
150 14z m601 -558 c49 -9 130 -29 179 -45 50 -16 101 -31 115 -34 35 -7 125
-67 182 -121 53 -50 118 -177 118 -230 0 -42 -62 -178 -102 -224 -17 -20 -43
-42 -57 -50 -14 -7 -37 -24 -51 -37 -24 -22 -111 -62 -226 -104 -29 -11 -89
-22 -135 -26 -46 -4 -101 -13 -123 -20 -25 -9 -86 -14 -176 -14 -124 0 -140 2
-164 21 -17 13 -26 30 -26 48 0 45 30 63 117 71 43 4 112 17 153 28 41 12 106
26 145 32 38 6 81 17 95 25 14 8 53 28 88 45 58 28 66 36 88 86 13 30 24 68
24 85 0 31 -39 117 -62 136 -21 18 -228 81 -288 87 -140 16 -272 25 -351 25
-72 1 -91 -2 -112 -19 -25 -20 -25 -20 -20 -144 l6 -125 -27 -13 c-24 -10 -33
-9 -69 10 -23 12 -65 29 -93 37 -37 11 -63 27 -92 59 -82 89 -63 201 45 267
21 13 50 36 65 51 29 31 74 37 125 17 65 -26 124 -37 151 -29 93 30 167 62
186 79 11 11 32 24 46 30 37 15 146 13 246 -4z m-111 -363 c111 -15 182 -38
190 -62 8 -25 -9 -57 -36 -65 -137 -44 -402 -61 -447 -29 -33 23 -45 60 -32
99 23 69 112 84 325 57z"/>
</g>
</svg>
