<?xml version="1.0" standalone="no"?>
<!DOCTYPE svg PUBLIC "-//W3C//DTD SVG 20010904//EN"
 "http://www.w3.org/TR/2001/REC-SVG-20010904/DTD/svg10.dtd">
<svg version="1.0" xmlns="http://www.w3.org/2000/svg"
 width="408.000000pt" height="584.000000pt" viewBox="0 0 408.000000 584.000000"
 preserveAspectRatio="xMidYMid meet">
<metadata>
Created by potrace 1.16, written by Peter Selinger 2001-2019
</metadata>
<rect x="0" y="0" width="408" height="584" fill="#ffffff"/>
<g transform="translate(0.000000,584.000000) scale(0.100000,-0.100000)"
fill="#000000" stroke="none">
<path d="M1956 5784 c-15 -9 -78 -26 -140 -40 -61 -13 -133 -31 -161 -39 -27
-8 -79 -20 -115 -26 -121 -18 -570 -166 -625 -205 -17 -12 -54 -29 -82 -38
-29 -10 -55 -22 -59 -27 -3 -5 -31 -22 -63 -38 -31 -16 -63 -37 -71 -46 -7 -9
-34 -28 -59 -43 -76 -43 -229 -172 -265 -222 -12 -15 -46 -61 -77 -101 -71
-94 -128 -202 -163 -307 -16 -46 -39 -96 -52 -111 -23 -28 -24 -35 -24 -181 0
-146 1 -153 25 -184 13 -18 36 -63 50 -100 36 -95 123 -223 208 -306 69 -67
108 -98 222 -174 28 -19 57 -41 64 -50 7 -9 19 -16 26 -16 7 0 37 -16 66 -36
30 -20 75 -45 101 -55 26 -10 66 -30 89 -45 23 -14 65 -33 93 -41 28 -8 64
-24 79 -35 16 -12 56 -29 89 -39 32 -10 90 -32 128 -49 38 -16 76 -30 85 -30
9 0 57 -15 108 -34 123 -45 317 -104 395 -121 102 -21 105 -26 100 -181 -5
-157 -17 -185 -94 -224 -27 -14 -60 -36 -71 -47 -12 -12 -40 -31 -61 -42 -21
-11 -44 -27 -51 -35 -8 -9 -31 -26 -52 -38 -48 -27 -144 -153 -159 -210 -15
-53 -15 -183 -1 -236 13 -48 125 -159 197 -195 27 -13 67 -34 89 -45 22 -11
52 -25 67 -31 15 -6 39 -29 53 -51 14 -23 33 -44 41 -47 31 -12 44 -59 44
-166 0 -117 -7 -132 -63 -129 -98 4 -201 2 -358 -7 -152 -8 -187 -14 -260 -39
-46 -16 -108 -35 -136 -41 -29 -7 -70 -25 -91 -40 -21 -16 -53 -33 -72 -40
-36 -12 -148 -111 -190 -170 -37 -50 -79 -186 -79 -257 -1 -34 7 -88 18 -120
10 -33 22 -74 26 -92 4 -18 21 -50 38 -70 70 -79 167 -172 180 -172 8 0 34
-15 59 -34 24 -19 64 -40 89 -46 24 -7 64 -22 89 -35 57 -28 115 -42 215 -50
44 -4 109 -14 143 -21 38 -9 105 -14 165 -13 92 3 108 0 160 -24 32 -14 71
-35 87 -47 15 -11 35 -20 42 -20 8 0 54 27 102 60 62 44 102 63 138 70 28 6
72 22 97 37 24 14 75 32 113 39 37 7 104 31 149 53 45 23 87 41 94 41 6 0 34
16 61 35 27 19 54 35 61 35 6 0 33 18 60 40 26 22 67 56 90 76 69 57 147 170
197 286 45 104 46 109 46 210 0 101 -1 104 -42 186 -82 161 -200 267 -423 385
-74 39 -204 97 -252 112 -79 25 -118 55 -118 90 0 29 5 33 75 64 24 11 47 28
170 123 72 57 157 148 192 206 15 26 37 59 49 73 29 36 52 210 38 283 -14 77
-29 118 -56 150 -13 15 -30 42 -37 60 -22 50 -200 189 -275 213 -25 9 -60 26
-77 39 -18 13 -108 49 -200 80 -93 30 -177 63 -186 71 -16 15 -18 43 -18 324
0 266 2 310 16 323 24 24 63 30 111 18 53 -15 353 -15 408 -1 22 5 123 16 225
24 142 10 206 20 275 40 50 15 119 34 154 41 35 8 91 26 125 40 33 14 82 34
107 44 26 11 69 33 95 50 26 16 56 30 65 30 34 0 241 185 315 283 25 32 54 82
64 111 20 52 52 96 70 96 6 0 10 74 10 188 l0 188 -30 22 c-21 16 -34 39 -46
80 -9 31 -28 73 -43 92 -15 19 -35 49 -45 65 -38 60 -195 199 -266 235 -25 12
-56 33 -69 46 -13 13 -42 29 -65 35 -22 6 -61 23 -86 39 -25 16 -72 35 -105
44 -33 8 -87 26 -121 40 -33 14 -101 32 -150 41 -49 9 -123 24 -164 32 -144
28 -217 34 -514 39 -264 5 -304 8 -343 25 -25 10 -45 19 -46 19 -1 -1 -15 -8
-31 -16z m583 -264 c115 -10 165 -19 247 -46 56 -19 118 -34 136 -34 18 0 60
-12 93 -26 68 -29 128 -50 166 -58 14 -3 43 -18 65 -32 21 -15 53 -31 70 -36
17 -4 47 -19 65 -33 19 -13 54 -35 79 -49 60 -33 205 -179 255 -258 l40 -63 0
-115 c0 -102 -3 -119 -22 -150 -13 -19 -32 -53 -43 -76 -18 -38 -194 -224
-212 -224 -4 0 -25 -15 -45 -34 -21 -18 -55 -39 -76 -46 -21 -6 -51 -25 -67
-40 -26 -25 -83 -50 -116 -50 -5 0 -32 -14 -58 -31 -27 -16 -74 -35 -105 -40
-31 -6 -87 -24 -125 -41 -51 -22 -99 -33 -188 -44 -66 -7 -137 -18 -157 -24
-20 -5 -128 -10 -241 -10 -187 0 -207 2 -230 20 l-25 19 -5 608 c-4 466 -2
619 7 653 7 25 13 68 13 97 0 77 19 151 42 167 24 17 207 15 437 -4z m-665
-21 c49 -23 49 -27 54 -771 l4 -696 -22 -22 c-19 -19 -28 -21 -83 -15 -34 4
-98 18 -142 32 -44 13 -118 35 -165 47 -47 13 -105 35 -130 50 -25 14 -61 31
-80 37 -19 7 -53 25 -74 40 -22 16 -46 29 -53 29 -7 0 -35 20 -63 45 -28 25
-54 45 -58 45 -5 0 -42 33 -84 74 -53 52 -89 100 -124 162 l-49 89 0 115 c0
110 1 117 30 165 16 28 36 63 43 79 20 48 94 122 238 244 21 17 44 32 50 32 7
0 34 15 62 34 27 19 69 40 93 46 24 7 73 25 109 40 36 16 115 40 175 54 61 14
133 32 160 40 62 18 78 19 109 5z m-1090 -268 c6 -10 -69 -160 -113 -225 -25
-38 -26 -42 -26 -221 l0 -182 30 -49 c17 -27 37 -65 45 -84 8 -19 34 -60 59
-90 56 -69 212 -220 228 -220 7 0 28 -14 47 -30 18 -17 56 -40 82 -51 27 -12
60 -30 74 -39 14 -10 52 -26 85 -35 33 -10 78 -28 100 -41 22 -12 78 -32 125
-44 47 -11 112 -30 145 -40 33 -11 100 -26 149 -32 130 -19 123 1 116 -350 -6
-350 2 -330 -127 -305 -82 16 -210 53 -393 114 -41 14 -116 37 -165 52 -50 15
-102 35 -116 44 -14 9 -51 26 -84 37 -32 11 -77 31 -99 44 -23 13 -59 29 -81
36 -22 7 -56 25 -75 40 -19 15 -51 32 -70 39 -20 6 -58 28 -86 49 -28 20 -77
55 -109 77 -100 67 -254 229 -308 323 -50 87 -61 126 -72 257 -15 178 43 360
174 546 51 72 201 223 281 283 140 104 170 120 184 97z m1500 -2324 c60 -25
121 -54 136 -65 15 -12 44 -27 64 -36 20 -8 81 -60 136 -115 110 -111 117
-127 108 -254 -6 -88 -46 -152 -153 -245 -33 -28 -70 -61 -82 -72 -12 -12 -45
-30 -74 -41 -29 -11 -65 -31 -81 -44 -16 -13 -45 -27 -66 -30 -20 -4 -61 -15
-90 -25 -28 -11 -58 -17 -66 -14 -52 20 -72 298 -32 466 8 36 25 70 45 93 48
55 43 77 -32 138 -23 18 -30 34 -36 82 -5 33 -13 73 -20 88 -24 60 -4 118 44
127 41 8 72 0 199 -53z m-374 -536 c14 -28 12 -273 -4 -354 -16 -83 -32 -102
-86 -100 -51 2 -74 16 -154 86 -73 64 -94 108 -82 172 10 52 77 121 152 156
34 16 67 36 74 44 19 23 87 20 100 -4z m347 -729 c59 -22 126 -42 147 -46 22
-4 63 -19 90 -33 28 -14 73 -34 101 -43 159 -56 399 -251 453 -369 40 -86 42
-174 6 -265 -36 -92 -84 -168 -147 -233 -83 -86 -105 -70 -80 54 l16 78 -28
88 c-21 67 -39 101 -71 140 -24 28 -44 54 -44 58 0 13 -138 109 -216 149 -78
41 -174 75 -309 109 -136 34 -148 49 -136 183 8 103 24 142 64 158 34 13 39
13 154 -28z m-347 -442 c19 -19 20 -33 20 -367 0 -358 -7 -452 -36 -484 -21
-23 -68 -24 -138 -5 -28 8 -80 20 -116 26 -131 22 -228 47 -262 67 -19 11 -59
28 -89 38 -106 35 -237 148 -289 248 l-25 47 30 57 c41 78 149 191 204 215 25
10 54 30 67 43 12 13 41 29 65 34 24 6 73 25 108 42 46 22 90 33 155 41 50 5
93 12 95 14 2 2 46 4 98 4 80 0 96 -3 113 -20z m311 -34 c30 -13 79 -31 109
-41 30 -10 69 -28 85 -40 17 -12 46 -30 65 -40 19 -9 61 -43 93 -74 63 -61 87
-116 87 -200 0 -83 -15 -113 -101 -199 -65 -65 -92 -85 -131 -97 -27 -8 -61
-23 -76 -34 -31 -22 -82 -37 -167 -47 -70 -9 -84 -7 -106 12 -33 29 -38 86
-40 423 -2 314 -1 335 16 348 29 20 106 16 166 -11z"/>
</g>
</svg>
