<?xml version="1.0" standalone="no"?>
<!DOCTYPE svg PUBLIC "-//W3C//DTD SVG 20010904//EN"
 "http://www.w3.org/TR/2001/REC-SVG-20010904/DTD/svg10.dtd">
<svg version="1.0" xmlns="http://www.w3.org/2000/svg"
 width="408.000000pt" height="584.000000pt" viewBox="0 0 408.000000 584.000000"
 preserveAspectRatio="xMidYMid meet">
<metadata>
Created by potrace 1.16, written by Peter Selinger 2001-2019
</metadata>
<rect x="0" y="0" width="408" height="584" fill="#ffffff"/>
<g transform="translate(0.000000,584.000000) scale(0.100000,-0.100000)"
fill="#000000" stroke="none">
<path d="M1956 5784 c-15 -9 -78 -26 -140 -40 -61 -13 -133 -31 -161 -39 -27
-8 -79 -20 -115 -26 -120 -18 -569 -166 -625 -205 -17 -12 -50 -28 -75 -36
-25 -8 -61 -26 -82 -39 -20 -13 -58 -36 -85 -52 -26 -15 -75 -47 -108 -72 -33
-25 -73 -53 -90 -62 -50 -30 -184 -173 -249 -268 -82 -118 -130 -207 -150
-277 -9 -32 -30 -73 -46 -92 l-30 -34 0 -178 0 -178 29 -31 c16 -16 37 -57 48
-90 11 -33 41 -91 66 -130 51 -79 188 -222 263 -275 128 -90 308 -203 354
-220 19 -7 60 -28 90 -46 30 -18 73 -38 94 -44 22 -7 54 -21 71 -31 17 -11 69
-32 116 -48 46 -16 107 -38 134 -49 94 -38 250 -92 295 -101 25 -6 88 -24 140
-41 52 -17 114 -34 138 -37 24 -3 54 -14 67 -25 24 -19 24 -19 19 -176 -3 -86
-7 -167 -10 -179 -5 -29 -79 -79 -151 -104 -32 -11 -69 -30 -83 -42 -14 -13
-45 -36 -69 -53 -63 -42 -158 -155 -173 -206 -20 -69 -15 -178 11 -231 36 -74
141 -164 264 -226 61 -31 113 -63 119 -75 6 -12 27 -38 47 -59 34 -36 36 -42
40 -118 5 -117 2 -119 -161 -119 -83 0 -137 -4 -151 -12 -12 -7 -51 -15 -87
-19 -123 -13 -292 -48 -326 -68 -19 -11 -59 -28 -89 -36 -86 -25 -192 -103
-247 -182 -66 -94 -102 -204 -96 -292 9 -110 44 -207 103 -281 82 -103 193
-197 259 -220 24 -8 61 -27 83 -42 21 -15 62 -32 91 -38 29 -5 85 -24 125 -41
62 -28 91 -33 220 -44 141 -11 149 -13 177 -40 16 -16 36 -47 43 -69 l14 -41
106 -3 c102 -3 106 -2 113 20 12 40 83 116 117 126 18 6 59 13 92 16 33 3 101
19 150 36 50 17 110 35 135 41 25 5 63 22 85 38 22 15 58 34 80 41 22 7 75 40
118 74 43 34 94 71 113 84 18 12 42 39 53 60 11 21 27 44 36 52 9 7 28 34 42
59 14 25 37 62 50 82 15 23 30 68 39 120 8 46 20 98 26 115 9 26 8 43 -5 86
-9 29 -19 74 -23 101 -3 26 -17 62 -30 80 -13 17 -32 48 -43 67 -17 33 -66 80
-173 171 -24 20 -59 41 -79 48 -20 6 -47 23 -59 36 -13 14 -46 32 -73 40 -28
8 -66 24 -86 36 -20 12 -82 37 -139 55 -126 41 -164 66 -160 102 2 16 13 31
28 39 14 7 37 18 51 25 102 50 317 243 356 318 10 19 30 53 45 75 65 96 63
348 -4 432 -16 21 -36 52 -43 68 -21 50 -209 192 -285 216 -19 6 -49 22 -67
35 -18 14 -67 35 -110 49 -154 48 -258 86 -275 102 -17 15 -18 41 -18 323 0
353 -2 346 77 342 228 -11 411 -12 451 -2 26 6 130 17 232 24 142 11 206 21
275 41 50 15 119 34 154 41 35 8 91 26 125 40 33 14 84 35 111 46 28 11 64 30
80 42 17 13 46 28 66 35 20 6 45 21 55 32 11 12 32 28 49 37 41 20 167 143
223 217 28 37 53 84 64 122 14 45 27 69 48 85 l30 22 0 174 0 173 -29 25 c-18
15 -40 52 -56 94 -15 39 -31 72 -36 76 -5 3 -19 24 -30 46 -34 67 -214 231
-282 257 -14 5 -39 23 -56 40 -17 17 -54 37 -82 45 -29 9 -71 27 -95 41 -23
14 -66 30 -96 36 -29 6 -82 24 -117 40 -34 16 -102 36 -150 45 -47 9 -120 23
-161 31 -144 28 -217 34 -514 39 -264 5 -304 8 -343 25 -25 10 -45 19 -46 19
-1 -1 -15 -8 -31 -16z m584 -264 c112 -9 164 -19 230 -41 47 -16 113 -34 147
-39 34 -4 97 -24 140 -43 43 -19 94 -38 113 -42 19 -4 50 -18 68 -32 18 -13
54 -31 80 -40 26 -8 63 -28 82 -43 19 -15 46 -33 60 -40 67 -35 203 -169 232
-228 10 -20 28 -53 41 -72 19 -31 22 -48 22 -140 0 -90 -3 -110 -22 -140 -12
-19 -35 -58 -51 -85 -28 -48 -187 -215 -204 -215 -4 0 -25 -16 -47 -35 -21
-19 -57 -42 -80 -50 -23 -8 -56 -25 -74 -38 -17 -14 -55 -32 -82 -41 -28 -9
-67 -27 -88 -41 -20 -14 -63 -30 -94 -36 -32 -6 -89 -24 -127 -41 -51 -22 -99
-33 -188 -44 -66 -7 -137 -18 -157 -24 -20 -5 -129 -10 -242 -10 -205 0 -206
0 -233 25 l-26 24 0 628 c0 573 2 638 20 748 25 159 20 154 198 150 75 -1 202
-8 282 -15z m-665 -26 c8 -4 23 -21 32 -38 15 -28 17 -105 21 -731 l4 -700
-21 -19 c-20 -18 -27 -19 -104 -7 -45 7 -120 25 -167 41 -47 15 -110 33 -140
40 -30 7 -76 25 -101 40 -26 16 -63 33 -84 39 -20 5 -51 21 -69 34 -18 14 -48
32 -68 40 -20 8 -45 24 -55 34 -10 10 -33 29 -52 42 -58 42 -172 163 -199 213
-15 27 -37 68 -50 91 -21 38 -23 52 -20 157 3 98 6 120 25 150 12 19 32 53 44
75 12 22 38 58 58 81 62 70 207 193 247 210 21 9 52 26 68 39 17 13 51 28 76
35 25 6 70 24 100 39 30 16 102 38 160 49 58 12 123 28 145 36 42 15 122 20
150 10z m-1100 -274 c4 -6 -8 -36 -26 -68 -17 -31 -48 -86 -68 -122 l-36 -65
0 -180 c0 -170 1 -183 24 -225 13 -25 34 -67 48 -95 65 -128 251 -300 417
-385 33 -16 67 -37 77 -46 9 -8 43 -22 75 -31 32 -8 77 -25 99 -38 22 -13 83
-34 135 -46 52 -12 119 -30 148 -40 30 -10 93 -24 140 -30 48 -7 95 -19 105
-27 15 -14 17 -41 17 -307 0 -272 -1 -294 -19 -316 l-19 -24 -88 18 c-104 21
-326 86 -436 127 -43 16 -106 37 -140 46 -35 8 -77 24 -93 34 -17 10 -64 31
-105 46 -41 14 -100 39 -131 55 -31 16 -60 29 -65 29 -5 0 -31 16 -58 35 -27
19 -55 35 -61 35 -7 0 -34 16 -61 35 -27 19 -78 54 -114 77 -36 23 -112 89
-170 147 -135 136 -195 234 -216 351 -7 45 -18 89 -24 100 -14 26 -13 66 4 98
7 15 16 56 20 92 7 77 74 223 152 334 49 71 210 238 274 284 19 14 40 32 46
39 14 17 115 73 131 73 6 0 15 -5 18 -10z m1450 -2292 c28 -14 75 -33 105 -43
30 -10 69 -28 86 -40 16 -13 46 -30 65 -38 42 -17 132 -102 193 -180 36 -47
46 -70 52 -114 12 -102 0 -149 -61 -230 -27 -35 -54 -60 -176 -163 -20 -16
-55 -36 -77 -44 -22 -8 -57 -26 -79 -40 -21 -14 -58 -30 -83 -35 -25 -6 -62
-17 -83 -26 -81 -34 -101 17 -101 250 0 88 4 202 8 252 8 82 6 100 -12 155
-25 75 -34 287 -13 312 26 31 95 25 176 -16z m-330 -542 c13 -19 16 -57 16
-187 1 -234 -16 -289 -91 -289 -26 0 -56 13 -112 50 -86 57 -113 86 -129 140
-23 75 20 163 103 217 24 15 54 37 68 49 53 46 122 56 145 20z m345 -742 c30
-14 84 -32 120 -40 36 -9 80 -24 98 -34 18 -11 66 -34 107 -50 40 -17 79 -38
85 -45 6 -8 33 -21 59 -30 26 -8 61 -29 76 -45 16 -17 34 -30 41 -30 18 0 135
-122 174 -181 35 -54 35 -55 35 -166 0 -101 -2 -114 -22 -140 -13 -15 -32 -45
-44 -67 -30 -56 -107 -148 -143 -171 -17 -10 -49 -34 -70 -52 -22 -18 -44 -33
-50 -33 -6 0 -40 -18 -75 -39 -35 -22 -82 -43 -105 -47 -23 -3 -66 -19 -97
-35 -39 -21 -81 -32 -137 -39 -45 -5 -95 -16 -111 -25 -65 -33 -95 -9 -106 85
-9 78 2 90 100 101 62 7 88 15 119 37 23 16 58 35 78 41 25 8 61 37 107 87 56
60 71 84 81 125 16 66 16 163 0 229 -16 69 -98 162 -184 209 -118 65 -134 72
-197 82 -46 7 -71 17 -89 35 -23 23 -25 32 -25 117 0 119 15 147 78 147 24 0
66 -11 97 -26z m-349 -333 c19 -15 24 -30 27 -88 3 -43 -1 -79 -8 -93 -21 -40
-48 -46 -402 -89 -131 -16 -238 -84 -280 -178 -26 -59 -18 -86 45 -156 44 -48
61 -59 107 -71 30 -8 75 -26 100 -40 50 -27 165 -46 287 -46 40 0 83 -5 96
-11 68 -31 60 -169 -12 -198 -25 -11 -39 -11 -74 -1 -23 7 -71 16 -107 20
-197 24 -321 49 -367 74 -26 14 -70 32 -96 40 -26 8 -66 29 -87 48 -163 136
-220 221 -223 331 -2 57 3 73 38 142 32 62 53 89 105 132 38 31 84 59 111 67
25 8 71 26 102 41 70 33 302 76 452 85 61 3 122 7 136 8 15 1 37 -6 50 -17z
m300 -64 c19 -13 54 -33 79 -46 55 -27 125 -107 141 -159 14 -48 -2 -115 -35
-146 -77 -71 -105 -86 -186 -102 -74 -14 -84 -14 -106 1 -39 25 -29 63 32 121
29 27 34 38 34 77 0 38 -6 53 -40 93 -57 68 -70 130 -37 172 16 20 81 14 118
-11z m-359 -338 c30 -6 61 -19 71 -31 25 -29 22 -74 -8 -103 -26 -27 -48 -30
-110 -15 -22 6 -97 14 -168 20 -165 12 -207 23 -207 54 0 32 26 52 90 69 66
18 257 22 332 6z"/>
</g>
</svg>
