<?xml version="1.0" standalone="no"?>
<!DOCTYPE svg PUBLIC "-//W3C//DTD SVG 20010904//EN"
 "http://www.w3.org/TR/2001/REC-SVG-20010904/DTD/svg10.dtd">
<svg version="1.0" xmlns="http://www.w3.org/2000/svg"
 width="408.000000pt" height="392.000000pt" viewBox="0 0 408.000000 392.000000"
 preserveAspectRatio="xMidYMid meet">
<metadata>
Created by potrace 1.16, written by Peter Selinger 2001-2019
</metadata>
<rect x="0" y="0" width="408" height="392" fill="#ffffff"/>
<g transform="translate(0.000000,392.000000) scale(0.100000,-0.100000)"
fill="#000000" stroke="none">
<path d="M1882 3900 c-8 -13 -23 -20 -44 -20 -18 0 -50 -6 -73 -14 -22 -8 -94
-19 -160 -26 -143 -14 -202 -25 -275 -52 -30 -11 -83 -24 -117 -29 -40 -6 -79
-19 -109 -38 -25 -17 -72 -35 -103 -41 -31 -6 -74 -24 -96 -39 -22 -16 -57
-34 -78 -40 -21 -7 -50 -23 -66 -37 -16 -13 -48 -32 -72 -43 -24 -10 -53 -28
-64 -41 -11 -12 -33 -29 -50 -38 -89 -46 -235 -189 -322 -315 -12 -18 -32 -45
-46 -62 -47 -60 -107 -187 -133 -286 -21 -77 -33 -104 -51 -116 -23 -15 -23
-19 -23 -175 l0 -159 29 -25 c31 -26 45 -59 56 -131 4 -24 18 -59 31 -78 13
-20 31 -50 40 -68 48 -92 253 -294 358 -353 24 -14 50 -32 57 -40 7 -8 28 -22
47 -29 18 -8 50 -28 70 -44 21 -15 62 -36 92 -44 30 -9 70 -27 89 -41 18 -14
55 -30 82 -35 27 -6 76 -24 109 -41 33 -16 66 -30 74 -30 8 0 72 -18 142 -40
69 -22 154 -45 188 -50 33 -5 139 -25 235 -44 95 -20 194 -36 220 -36 76 0 84
-15 80 -153 -5 -154 -5 -154 -147 -155 -150 0 -257 -18 -307 -51 -22 -14 -62
-37 -88 -50 -27 -14 -74 -52 -105 -87 -48 -52 -61 -75 -84 -147 -16 -47 -28
-95 -28 -107 0 -11 12 -62 27 -111 25 -85 31 -94 99 -163 51 -52 86 -79 121
-91 58 -22 83 -42 83 -67 0 -17 20 -18 465 -18 l465 0 9 23 c12 31 27 41 89
62 102 33 217 123 294 229 52 71 63 98 88 204 l22 92 -20 78 c-11 42 -23 94
-26 114 -4 20 -21 56 -39 79 -54 72 -210 220 -252 240 -22 10 -55 29 -73 42
-18 14 -50 28 -70 32 -20 4 -75 22 -122 41 -47 19 -116 39 -155 45 -106 16
-131 26 -145 59 -16 38 -10 476 6 504 11 18 27 19 295 21 275 1 354 7 524 39
44 9 123 22 176 30 52 8 117 24 143 36 27 11 79 27 117 34 37 8 88 26 112 41
24 14 67 32 94 40 28 8 57 23 64 32 8 9 36 26 62 39 57 26 203 165 253 240 19
28 43 78 54 110 11 36 31 69 49 86 l31 28 0 185 c0 102 -4 185 -9 185 -22 0
-60 52 -75 102 -8 30 -24 66 -34 79 -11 13 -25 36 -33 51 -15 30 -185 205
-246 254 -21 17 -52 38 -69 47 -18 9 -45 28 -62 42 -17 14 -49 32 -72 40 -23
8 -55 26 -71 39 -15 13 -52 29 -80 35 -29 7 -75 24 -103 40 -28 16 -80 34
-116 40 -36 7 -107 26 -158 42 -51 16 -107 29 -125 29 -48 0 -247 28 -281 40
-16 6 -53 10 -82 10 -41 0 -59 5 -74 20 -19 19 -33 20 -258 20 -226 0 -238 -1
-250 -20z m726 -231 c53 -6 136 -21 183 -35 47 -13 123 -29 168 -34 59 -7 96
-17 127 -35 25 -15 77 -33 117 -41 43 -9 85 -25 104 -40 18 -14 55 -32 81 -39
27 -8 57 -24 68 -36 10 -12 40 -31 65 -43 53 -26 187 -152 261 -245 30 -38 56
-83 63 -110 6 -25 22 -66 35 -91 29 -57 37 -150 17 -210 -48 -143 -69 -193
-101 -234 -43 -57 -152 -166 -166 -166 -5 0 -24 -13 -43 -29 -18 -17 -57 -39
-85 -50 -29 -12 -74 -32 -100 -45 -27 -13 -66 -28 -88 -32 -21 -4 -69 -20
-106 -35 -40 -18 -107 -34 -170 -43 -132 -19 -192 -33 -232 -53 -26 -14 -74
-16 -326 -17 -393 -1 -388 -3 -376 146 3 40 10 235 15 433 5 198 12 373 16
388 17 63 87 74 195 28 38 -16 90 -33 116 -37 29 -4 58 -17 78 -34 17 -15 46
-35 63 -44 92 -47 191 -203 176 -278 -14 -77 -59 -153 -121 -207 -69 -60 -87
-98 -80 -172 9 -90 77 -150 172 -151 69 -1 93 8 110 41 8 15 32 48 54 75 43
52 58 92 68 181 3 33 13 79 21 102 14 37 14 46 0 85 -9 24 -19 70 -22 103 -7
60 -30 125 -45 125 -5 0 -22 22 -38 48 -33 54 -166 179 -215 202 -18 8 -52 27
-77 42 -25 14 -65 29 -90 33 -25 4 -80 20 -123 36 -49 18 -98 29 -131 29 -79
0 -91 13 -90 102 3 119 26 321 41 351 8 15 24 32 36 37 31 12 259 12 375 -1z
m-704 -21 c7 -13 19 -72 25 -133 7 -60 20 -140 29 -177 15 -63 15 -70 -1 -103
-20 -41 -49 -55 -117 -55 -27 0 -67 -7 -87 -15 -21 -8 -77 -26 -125 -39 -48
-13 -110 -38 -138 -55 -28 -17 -54 -31 -58 -31 -17 0 -148 -109 -181 -150 -18
-23 -52 -79 -75 -124 l-41 -81 1 -120 0 -120 48 -90 c56 -103 108 -167 174
-210 148 -97 200 -127 250 -144 32 -10 82 -30 112 -44 30 -14 91 -31 135 -37
44 -7 90 -14 102 -16 36 -7 44 -54 50 -294 6 -307 6 -306 -169 -272 -62 12
-147 27 -188 33 -41 6 -115 24 -165 39 -49 15 -108 31 -130 35 -22 3 -65 19
-95 34 -30 16 -74 32 -97 36 -23 3 -63 20 -90 37 -26 17 -67 37 -90 44 -22 7
-60 26 -83 43 -22 16 -54 32 -69 36 -16 3 -46 21 -67 39 -22 18 -58 43 -80 54
-40 21 -245 218 -312 302 -19 22 -44 66 -57 98 -12 31 -35 83 -50 116 -27 57
-27 62 -23 201 4 136 6 146 35 202 16 32 36 76 43 98 7 22 20 49 30 60 10 11
31 41 47 66 44 72 94 139 143 192 51 56 174 158 216 180 16 8 38 24 48 36 10
11 43 30 73 41 30 11 69 31 86 44 18 13 50 29 72 36 22 7 69 27 105 45 36 18
82 35 104 39 21 4 73 21 115 37 43 17 121 36 181 44 58 9 143 26 190 39 112
32 155 33 174 4z m61 -622 c17 -13 20 -31 24 -153 3 -76 5 -287 5 -469 1 -359
0 -364 -53 -364 -15 0 -31 4 -37 10 -5 5 -45 16 -88 24 -43 9 -97 26 -120 39
-22 14 -57 30 -77 36 -43 14 -161 90 -208 134 -18 18 -55 65 -81 105 -40 60
-49 83 -55 136 -10 99 1 148 53 224 57 85 80 110 117 129 17 9 46 29 65 44 56
45 288 116 386 118 29 1 58 -5 69 -13z m315 -1886 c63 -18 135 -44 160 -59 25
-15 62 -33 83 -40 45 -15 166 -133 228 -223 l44 -63 0 -105 c0 -105 0 -105
-35 -149 -75 -94 -164 -165 -234 -186 -23 -7 -66 -25 -96 -38 -101 -47 -261
-64 -535 -58 -119 3 -226 28 -287 67 -29 19 -58 34 -64 34 -6 0 -30 20 -52 44
-42 46 -59 96 -48 140 9 35 89 125 134 151 21 12 52 31 68 43 32 22 161 48
193 37 11 -3 34 1 50 9 38 20 60 20 83 -1 26 -23 23 -59 -8 -79 -23 -16 -28
-16 -58 -2 -31 15 -37 15 -120 -15 -100 -35 -115 -50 -123 -129 -6 -64 8 -100
62 -146 57 -51 124 -65 288 -60 174 6 224 20 306 88 47 40 63 61 76 101 21 63
22 102 6 161 -23 81 -85 136 -256 223 l-40 20 -3 121 c-2 102 0 125 14 138 9
9 24 15 33 12 9 -2 68 -19 131 -36z m-54 -472 c52 -46 59 -71 34 -123 -16 -32
-38 -55 -87 -87 -66 -42 -68 -43 -167 -46 -112 -4 -160 6 -206 44 -34 29 -40
73 -13 95 22 19 144 17 212 -4 49 -15 57 -15 77 -2 33 21 47 52 41 89 -11 72
45 90 109 34z"/>
</g>
</svg>
