<?xml version="1.0" standalone="no"?>
<!DOCTYPE svg PUBLIC "-//W3C//DTD SVG 20010904//EN"
 "http://www.w3.org/TR/2001/REC-SVG-20010904/DTD/svg10.dtd">
<svg version="1.0" xmlns="http://www.w3.org/2000/svg"
 width="416.000000pt" height="632.000000pt" viewBox="0 0 416.000000 632.000000"
 preserveAspectRatio="xMidYMid meet">
<metadata>
Created by potrace 1.16, written by Peter Selinger 2001-2019
</metadata>
<rect x="0" y="0" width="416" height="632" fill="#ffffff"/>
<g transform="translate(0.000000,632.000000) scale(0.100000,-0.100000)"
fill="#000000" stroke="none">
<path d="M1770 6305 c0 -8 -33 -32 -77 -54 -103 -52 -154 -97 -198 -177 -53
-94 -54 -160 -3 -265 48 -103 145 -187 282 -247 52 -23 103 -42 114 -42 11 0
31 -9 46 -21 25 -20 26 -24 26 -129 0 -162 14 -153 -261 -161 -243 -8 -299
-16 -423 -59 -44 -16 -100 -33 -123 -39 -75 -20 -251 -148 -280 -205 -9 -17
-26 -43 -38 -58 -33 -40 -49 -148 -41 -281 7 -112 20 -161 50 -186 10 -8 27
-33 38 -55 27 -52 111 -137 163 -163 22 -12 48 -30 59 -42 10 -11 44 -28 75
-37 31 -9 62 -21 69 -26 18 -15 15 -52 -5 -70 -24 -22 -129 -64 -178 -72 -22
-4 -58 -20 -80 -35 -22 -15 -61 -35 -87 -44 -26 -8 -62 -27 -80 -40 -18 -14
-44 -28 -58 -32 -14 -4 -53 -27 -86 -51 -34 -24 -64 -44 -68 -44 -11 0 -151
-117 -208 -173 -218 -217 -352 -499 -352 -742 0 -201 58 -358 196 -523 64 -76
204 -201 274 -245 16 -9 50 -32 76 -50 83 -56 121 -79 171 -98 27 -11 65 -30
85 -44 20 -14 59 -32 87 -41 27 -10 67 -27 87 -40 20 -13 49 -26 65 -30 15 -4
64 -23 108 -42 44 -19 102 -41 130 -48 52 -13 223 -69 336 -110 36 -13 92 -29
125 -35 96 -18 127 -32 152 -69 23 -34 23 -38 18 -240 -10 -406 -24 -726 -35
-793 -6 -37 -24 -92 -41 -124 -16 -31 -30 -66 -30 -79 0 -13 19 -45 45 -74 25
-28 45 -55 45 -60 0 -6 35 -10 78 -10 74 0 79 2 90 25 12 26 42 44 107 65 22
7 54 23 70 36 17 12 48 29 70 39 22 9 51 27 65 40 14 13 42 30 64 39 21 9 57
32 80 51 119 101 145 125 194 180 97 111 105 123 133 207 39 113 39 203 1 315
-26 76 -36 91 -118 178 -49 52 -98 98 -109 101 -11 3 -37 19 -58 36 -21 16
-59 37 -85 45 -26 9 -63 27 -82 39 -19 13 -102 44 -185 70 -82 26 -158 55
-169 65 -18 16 -19 35 -17 314 1 186 6 305 13 320 19 41 54 48 157 30 106 -18
210 -20 261 -5 19 5 86 10 148 10 77 0 124 5 149 15 19 8 59 15 87 15 85 0
255 28 304 50 26 12 78 28 115 36 38 8 88 25 111 39 23 14 68 34 99 44 31 11
72 31 90 45 19 14 39 26 45 26 6 0 30 15 54 33 24 18 57 41 73 51 52 32 214
209 226 246 7 19 24 60 39 90 46 91 63 266 40 406 -12 73 -87 239 -123 272
-14 13 -31 36 -37 52 -12 30 -90 101 -155 142 -22 14 -47 33 -55 43 -8 10 -35
26 -59 37 -25 10 -55 29 -68 42 -13 13 -45 29 -71 36 -26 6 -67 24 -92 40 -25
15 -61 31 -80 35 -19 3 -80 22 -135 42 -72 25 -126 37 -192 42 -65 4 -98 11
-109 23 -20 20 -14 31 56 94 56 51 155 155 198 210 13 16 43 67 67 114 60 119
78 233 59 379 -12 90 -19 112 -56 178 -43 75 -143 203 -159 203 -4 0 -23 13
-41 29 -18 15 -49 36 -68 46 -19 9 -46 28 -60 40 -36 33 -124 69 -360 146 -97
31 -225 57 -315 64 -44 4 -90 8 -101 10 -42 9 -56 104 -19 135 7 6 42 15 78
20 89 13 207 71 256 126 56 64 76 159 47 227 -15 36 -95 113 -145 140 -18 9
-35 26 -38 37 -5 19 -14 20 -269 20 -227 0 -264 -2 -264 -15z m265 -95 c15
-13 15 -15 -7 -26 -13 -6 -46 -17 -75 -23 -44 -11 -59 -21 -104 -73 -51 -59
-52 -60 -46 -112 7 -68 39 -131 76 -150 45 -24 81 -73 81 -111 0 -34 -21 -65
-44 -65 -31 0 -142 45 -189 77 -134 91 -160 149 -131 291 10 48 76 104 189
158 101 49 115 53 171 51 35 -2 69 -9 79 -17z m194 -3 c19 -12 57 -36 85 -52
85 -51 108 -123 56 -175 -11 -11 -33 -20 -50 -20 -29 0 -30 1 -24 43 6 38 3
47 -30 86 -20 24 -40 49 -44 57 -4 7 -31 18 -60 24 -30 5 -61 14 -70 19 -14 8
-12 12 18 25 49 21 80 20 119 -7z m-42 -732 c21 -8 82 -23 135 -34 53 -11 116
-30 140 -44 24 -13 66 -30 93 -37 28 -6 64 -22 80 -34 17 -13 48 -33 70 -45
98 -52 202 -144 293 -260 45 -56 67 -172 52 -269 -12 -70 -31 -126 -49 -136
-6 -4 -21 -26 -32 -49 -27 -51 -114 -151 -144 -165 -12 -6 -38 -24 -58 -41
-19 -17 -52 -37 -74 -45 -21 -7 -60 -28 -88 -45 -27 -17 -58 -31 -68 -31 -11
0 -55 -16 -98 -35 -63 -29 -99 -38 -190 -47 l-112 -12 -23 28 c-26 30 -31 79
-13 120 12 24 32 36 99 55 116 33 202 71 263 116 63 46 73 58 113 141 38 78
44 100 44 155 0 54 -6 75 -41 146 -23 46 -54 93 -70 106 -16 12 -49 38 -74 59
-24 20 -61 42 -82 48 -21 7 -59 23 -84 36 -25 12 -73 28 -108 35 -42 9 -66 20
-73 33 -6 11 -9 63 -6 123 3 96 6 107 27 124 28 23 31 23 78 4z m-248 -439
c20 -18 21 -28 21 -222 0 -130 -4 -212 -11 -228 -31 -68 -152 -46 -232 43 -36
40 -37 43 -37 119 0 94 -11 118 -74 157 -68 41 -125 41 -183 0 -24 -16 -49
-44 -58 -62 -17 -36 -20 -119 -5 -159 17 -43 139 -173 197 -211 28 -18 54 -37
58 -43 3 -5 32 -17 63 -26 31 -8 84 -26 117 -39 33 -13 70 -27 83 -30 40 -11
62 -45 62 -95 0 -35 -5 -52 -22 -67 -36 -33 -104 -56 -146 -50 -20 3 -77 12
-127 20 -49 8 -119 18 -154 22 -39 4 -86 17 -120 34 -31 16 -74 34 -96 41 -22
7 -51 23 -65 35 -14 13 -39 30 -56 39 -42 21 -161 151 -185 201 -21 45 -24 98
-9 174 7 39 23 68 65 121 31 39 59 70 64 70 4 0 31 18 60 39 31 23 70 42 94
46 22 4 77 23 121 42 97 41 180 52 402 50 134 -2 154 -4 173 -21z m266 -26
c21 -17 56 -36 79 -42 52 -16 113 -77 150 -151 l28 -57 -27 -55 c-39 -76 -110
-133 -194 -156 -133 -37 -145 -26 -147 126 0 55 -5 151 -9 213 -7 101 -6 114
10 132 26 28 66 25 110 -10z m490 -1124 c50 -14 132 -33 184 -42 51 -8 122
-28 156 -43 35 -16 87 -34 116 -40 29 -7 68 -23 86 -37 18 -14 55 -33 81 -41
26 -9 69 -31 96 -50 26 -18 53 -33 59 -33 5 0 29 -17 52 -37 23 -21 58 -51 78
-66 35 -26 99 -104 140 -167 12 -19 22 -64 28 -126 12 -113 1 -185 -36 -236
-13 -18 -35 -53 -49 -78 -39 -72 -160 -178 -295 -258 -31 -19 -63 -39 -71 -46
-8 -7 -37 -21 -64 -29 -27 -9 -64 -28 -82 -42 -18 -14 -56 -30 -86 -36 -29 -6
-82 -24 -118 -39 -36 -16 -106 -36 -155 -44 -50 -8 -156 -27 -236 -41 -125
-21 -171 -25 -308 -22 -137 2 -164 5 -179 20 -15 16 -17 51 -20 370 -4 489 11
1125 27 1155 7 13 22 27 34 33 13 5 117 7 247 5 205 -4 233 -7 315 -30z m-783
-27 c9 -10 24 -51 32 -89 14 -59 16 -163 16 -714 l0 -646 -25 -16 c-22 -14
-35 -15 -112 -4 -49 6 -135 27 -193 45 -58 19 -124 39 -146 45 -23 5 -59 22
-80 37 -22 14 -59 32 -83 40 -24 7 -58 24 -76 37 -17 13 -47 31 -66 39 -35 15
-224 194 -271 257 -33 45 -88 212 -88 268 0 24 7 57 16 74 9 17 24 55 34 84
30 86 159 247 225 281 17 8 41 26 55 39 14 12 47 33 74 45 27 11 69 34 94 50
25 16 55 29 65 29 11 0 54 15 96 34 44 20 107 39 151 45 41 6 107 20 145 30
78 22 112 19 137 -10z m-1114 -283 c3 -22 -5 -37 -31 -65 -21 -21 -40 -55 -47
-81 -7 -25 -23 -71 -36 -102 -20 -49 -24 -74 -24 -169 0 -100 3 -118 26 -167
14 -30 32 -76 40 -102 8 -26 21 -53 30 -61 8 -7 24 -29 34 -48 24 -47 176
-196 233 -230 72 -43 107 -64 161 -100 28 -18 67 -38 86 -43 19 -5 67 -24 105
-43 94 -44 377 -124 445 -125 42 0 100 -20 121 -41 18 -18 19 -35 19 -306 0
-159 -4 -293 -8 -300 -18 -29 -58 -32 -143 -11 -103 25 -314 89 -429 129 -47
17 -106 36 -131 43 -25 7 -81 29 -125 49 -43 19 -90 38 -104 42 -14 4 -59 25
-101 46 -42 22 -81 39 -86 39 -5 0 -25 12 -44 26 -19 14 -52 34 -74 44 -36 16
-85 50 -220 154 -168 128 -299 318 -326 472 -17 96 -6 251 22 312 11 26 29 71
39 99 11 29 35 74 54 99 20 26 36 51 36 56 0 42 242 298 320 338 19 10 44 28
55 40 43 48 98 51 103 6z m1400 -2240 c26 -13 79 -33 117 -46 39 -12 84 -33
101 -45 16 -13 47 -30 68 -39 46 -19 97 -60 177 -141 44 -45 63 -75 79 -119
26 -77 25 -116 -2 -196 -20 -58 -34 -76 -121 -162 -72 -70 -111 -101 -143
-112 -24 -8 -58 -26 -76 -39 -18 -14 -67 -34 -108 -45 -41 -11 -94 -26 -118
-33 -37 -12 -44 -11 -59 4 -24 23 -31 167 -32 606 -1 316 1 356 16 373 21 24
44 23 101 -6z"/>
</g>
</svg>
