<?xml version="1.0" standalone="no"?>
<!DOCTYPE svg PUBLIC "-//W3C//DTD SVG 20010904//EN"
 "http://www.w3.org/TR/2001/REC-SVG-20010904/DTD/svg10.dtd">
<svg version="1.0" xmlns="http://www.w3.org/2000/svg"
 width="408.000000pt" height="568.000000pt" viewBox="0 0 408.000000 568.000000"
 preserveAspectRatio="xMidYMid meet">
<metadata>
Created by potrace 1.16, written by Peter Selinger 2001-2019
</metadata>
<rect x="0" y="0" width="408" height="568" fill="#ffffff"/>
<g transform="translate(0.000000,568.000000) scale(0.100000,-0.100000)"
fill="#000000" stroke="none">
<path d="M1956 5650 c-8 -41 -52 -59 -159 -66 -45 -3 -107 -11 -137 -19 -30
-8 -113 -24 -185 -36 -71 -11 -157 -32 -190 -46 -33 -14 -92 -33 -132 -42 -39
-10 -87 -27 -105 -38 -19 -11 -59 -28 -89 -38 -30 -9 -75 -30 -100 -46 -25
-16 -61 -34 -80 -41 -19 -6 -52 -26 -73 -45 -22 -18 -46 -33 -53 -33 -7 0 -30
-15 -50 -34 -21 -18 -52 -41 -70 -50 -17 -9 -38 -25 -46 -37 -9 -11 -29 -30
-46 -42 -53 -38 -218 -239 -262 -320 -41 -75 -91 -195 -104 -246 -15 -62 -47
-121 -66 -121 -5 0 -9 -75 -9 -178 0 -168 1 -178 21 -190 23 -15 58 -86 59
-119 0 -32 86 -189 134 -247 78 -93 221 -228 266 -251 25 -13 54 -33 65 -45
11 -12 43 -32 70 -45 28 -12 56 -29 63 -38 8 -9 39 -26 70 -37 30 -12 68 -32
83 -45 16 -13 52 -28 81 -34 29 -7 71 -23 94 -36 24 -14 73 -32 111 -40 37 -9
102 -29 143 -45 41 -15 104 -34 140 -40 36 -6 97 -20 136 -31 97 -27 219 -47
326 -55 129 -10 132 -14 136 -153 5 -161 9 -157 -165 -163 -111 -5 -149 -10
-193 -28 -30 -12 -80 -32 -110 -44 -65 -25 -114 -61 -186 -136 -43 -44 -58
-69 -75 -125 -34 -110 -35 -141 -5 -232 53 -158 165 -266 341 -328 28 -9 79
-28 115 -41 42 -15 87 -24 127 -24 114 0 137 -28 132 -159 -6 -120 -5 -119
-203 -124 -264 -7 -463 -33 -552 -73 -32 -14 -81 -33 -107 -41 -84 -25 -278
-202 -308 -281 -5 -13 -12 -76 -15 -141 -7 -131 6 -223 36 -261 11 -14 29 -43
41 -65 27 -50 183 -201 228 -220 18 -8 48 -28 66 -44 18 -15 50 -32 71 -36 22
-3 59 -17 84 -29 49 -25 113 -41 200 -52 64 -8 153 -39 170 -59 10 -12 53 -15
242 -15 l230 0 20 25 c12 16 30 25 46 25 49 0 275 51 332 75 30 13 75 28 100
35 25 7 61 24 80 40 19 15 52 33 72 39 21 7 40 17 44 22 3 5 29 27 59 49 75
56 183 167 207 215 12 22 31 53 44 68 13 15 28 47 34 70 6 23 21 63 35 88 23
43 25 57 25 181 0 122 -2 139 -23 179 -13 24 -30 62 -37 84 -28 88 -189 242
-335 321 -27 15 -64 37 -80 50 -17 13 -53 28 -80 34 -27 6 -64 20 -83 32 -29
18 -33 25 -30 57 3 32 8 39 54 61 51 25 93 56 167 120 35 31 55 56 129 168 9
14 20 44 23 66 4 23 13 69 22 104 14 60 14 66 -12 171 -31 124 -59 172 -161
274 -107 107 -130 126 -170 142 -21 9 -64 29 -94 45 -67 35 -329 120 -370 120
-43 0 -80 20 -87 49 -3 13 -3 128 0 254 5 182 10 235 22 254 l15 23 282 0
c155 0 307 4 337 10 31 5 97 16 146 25 50 9 124 20 166 25 42 5 107 21 145 35
38 14 106 35 151 45 45 11 98 31 118 45 21 14 56 30 79 36 22 6 59 23 81 38
22 15 54 33 71 40 41 16 210 192 251 260 17 30 37 76 44 103 7 33 23 61 45 84
l34 33 0 171 0 171 -34 29 c-25 22 -37 45 -48 89 -9 33 -28 81 -44 107 -35 58
-245 277 -294 306 -19 12 -48 33 -65 48 -16 15 -46 33 -65 40 -19 8 -53 27
-74 42 -21 15 -44 28 -51 28 -6 0 -47 18 -91 39 -43 22 -97 43 -119 47 -22 4
-89 24 -148 46 -59 21 -122 38 -139 38 -18 0 -57 6 -87 14 -142 36 -281 54
-478 61 -73 2 -142 9 -154 15 -11 7 -25 25 -31 41 l-10 29 -93 0 -92 0 -7 -30z
m699 -289 c137 -14 208 -27 243 -45 17 -9 74 -23 128 -31 97 -16 117 -23 164
-56 14 -9 50 -22 79 -29 30 -6 69 -21 86 -34 17 -13 49 -32 71 -41 21 -9 50
-27 64 -39 14 -13 39 -31 55 -39 30 -16 192 -173 253 -246 19 -22 40 -63 47
-91 7 -27 24 -71 37 -97 38 -78 33 -180 -15 -312 -22 -62 -51 -120 -70 -143
-58 -69 -156 -168 -166 -168 -6 0 -25 -13 -43 -28 -33 -29 -166 -93 -248 -119
-25 -7 -65 -21 -90 -30 -107 -38 -161 -52 -260 -68 -58 -9 -127 -26 -155 -38
-47 -20 -70 -22 -345 -25 -191 -2 -308 0 -331 7 -52 16 -63 47 -54 163 3 51 9
251 13 443 4 193 11 359 16 370 19 41 38 55 81 55 46 0 139 -24 171 -45 12 -8
47 -20 78 -28 60 -16 93 -39 187 -131 73 -70 123 -172 113 -228 -14 -72 -63
-156 -121 -205 -63 -54 -83 -92 -83 -158 0 -59 21 -98 72 -135 36 -26 49 -30
109 -30 86 0 96 4 121 54 11 22 33 56 48 76 34 43 47 82 55 163 4 34 14 81 22
105 13 35 14 47 4 70 -7 15 -19 66 -26 115 -7 48 -20 98 -29 110 -9 12 -31 45
-50 72 -45 67 -163 179 -210 199 -21 9 -51 27 -67 40 -16 14 -54 30 -85 36
-30 6 -79 23 -109 36 -31 14 -89 29 -141 35 -126 16 -128 17 -121 97 4 37 9
114 12 172 9 148 39 219 100 232 32 7 282 0 390 -11z m-751 -16 c18 -18 23
-47 32 -180 3 -54 12 -119 20 -145 32 -106 17 -123 -146 -154 -126 -24 -292
-76 -320 -100 -8 -8 -37 -25 -65 -39 -28 -14 -86 -62 -132 -109 -67 -68 -88
-97 -117 -164 -50 -115 -58 -157 -45 -254 23 -169 157 -359 305 -430 22 -11
57 -33 78 -49 21 -17 63 -37 94 -46 31 -9 77 -27 102 -40 40 -20 80 -29 211
-50 64 -10 70 -25 81 -207 10 -165 7 -338 -7 -371 -12 -28 -45 -37 -84 -21
-18 8 -48 14 -65 14 -18 0 -59 7 -91 16 -33 8 -100 22 -150 29 -49 8 -120 25
-157 39 -36 14 -96 32 -133 41 -37 8 -85 26 -108 39 -23 13 -55 27 -72 30 -48
11 -228 97 -255 122 -14 13 -45 30 -69 39 -24 8 -61 31 -82 50 -22 19 -43 35
-49 35 -5 0 -27 17 -48 37 -22 21 -51 46 -65 56 -14 9 -61 57 -104 107 -109
125 -129 151 -138 180 -4 14 -25 65 -47 114 l-40 88 4 142 c4 134 6 146 35
207 17 35 36 83 42 106 6 23 27 60 46 83 19 23 35 48 35 55 0 34 244 292 325
343 22 14 54 38 70 53 17 14 45 31 62 37 18 6 48 22 65 35 18 14 51 30 73 37
22 7 56 23 77 37 20 13 61 31 90 39 30 7 84 27 120 44 36 16 97 34 135 40 37
6 104 22 148 35 153 46 309 60 339 30z m62 -629 c16 -13 19 -28 21 -113 1 -54
5 -253 8 -443 7 -365 3 -420 -35 -440 -15 -8 -30 -6 -64 10 -25 11 -55 20 -66
20 -28 0 -162 46 -225 78 -58 28 -178 117 -216 158 -15 16 -45 57 -67 92 -35
55 -41 74 -48 139 -9 106 6 163 67 246 45 61 142 145 194 168 185 80 383 120
431 85z m302 -1911 c51 -13 104 -31 117 -39 14 -9 48 -25 77 -36 97 -36 229
-154 301 -268 36 -58 37 -62 36 -153 0 -52 -3 -102 -7 -111 -4 -9 -41 -54 -81
-99 -51 -55 -90 -88 -120 -102 -26 -11 -60 -31 -77 -44 -17 -13 -56 -28 -87
-33 -31 -6 -89 -22 -129 -36 -83 -28 -267 -49 -368 -41 -36 3 -128 23 -205 45
l-140 41 -72 74 c-69 70 -73 77 -73 120 0 39 6 53 41 94 77 91 88 100 134 113
25 7 57 21 70 32 47 37 92 48 189 48 100 0 126 -10 126 -49 0 -36 -27 -44
-140 -45 -122 -1 -131 -6 -177 -84 -22 -36 -25 -52 -20 -95 9 -88 21 -104 120
-153 144 -73 261 -72 431 2 104 46 169 112 187 192 30 131 -37 250 -178 317
-40 18 -84 45 -98 59 -24 24 -25 31 -25 136 0 98 2 112 21 131 13 13 27 18 37
14 9 -4 59 -17 110 -30z m-68 -471 c47 -19 70 -55 70 -110 0 -56 -64 -115
-155 -144 -59 -18 -83 -20 -155 -15 -111 8 -156 21 -175 48 -21 31 -19 54 10
82 21 22 33 25 90 25 45 0 80 -6 110 -20 45 -21 85 -19 104 3 5 7 14 39 20 71
9 49 22 75 38 76 2 0 21 -7 43 -16z m155 -764 c33 -12 99 -32 147 -45 47 -12
100 -32 117 -44 16 -12 47 -28 68 -35 83 -30 236 -147 306 -233 58 -73 96
-172 97 -250 0 -86 -47 -203 -115 -285 -64 -78 -192 -193 -225 -203 -14 -4
-43 -19 -64 -34 -22 -14 -73 -38 -115 -52 -42 -15 -101 -36 -131 -47 -71 -26
-243 -40 -266 -21 -23 19 -54 84 -54 113 0 33 36 60 118 86 115 37 172 70 243
139 57 56 70 76 84 126 21 70 15 196 -11 246 -26 52 -149 164 -194 178 -21 6
-53 23 -70 37 -21 19 -48 28 -93 34 -80 10 -97 17 -108 47 -11 30 -11 133 0
193 14 69 39 84 131 77 41 -3 102 -15 135 -27z m-493 -330 c61 0 72 -3 94 -26
l26 -25 -6 -157 c-10 -272 -19 -352 -41 -368 -30 -22 -94 -17 -130 10 -17 13
-47 31 -67 39 -37 15 -118 111 -118 138 0 9 11 30 25 49 41 56 58 147 35 191
-11 20 -79 59 -104 59 -22 0 -122 -46 -131 -59 -29 -48 -15 -286 19 -334 9
-12 27 -38 41 -57 62 -91 149 -142 324 -190 35 -9 70 -25 78 -35 17 -24 17
-97 -1 -140 -25 -59 -59 -66 -206 -40 -46 9 -124 20 -174 25 -67 8 -102 18
-140 39 -28 16 -73 34 -99 40 -67 16 -154 79 -241 173 -87 95 -102 134 -92
233 8 83 15 97 70 167 49 61 136 123 201 144 22 7 67 25 100 41 52 24 72 28
155 28 53 1 101 4 108 9 35 21 150 55 176 51 16 -3 60 -5 98 -5z m350 -57 c24
-9 52 -24 63 -33 11 -10 36 -25 55 -35 42 -21 107 -80 125 -116 25 -46 29
-125 11 -173 -35 -91 -162 -175 -277 -184 -63 -4 -68 -3 -83 20 -9 14 -16 45
-16 69 0 24 -2 131 -5 238 -5 173 -4 196 11 212 21 23 60 24 116 2z"/>
</g>
</svg>
