<?xml version="1.0" standalone="no"?>
<!DOCTYPE svg PUBLIC "-//W3C//DTD SVG 20010904//EN"
 "http://www.w3.org/TR/2001/REC-SVG-20010904/DTD/svg10.dtd">
<svg version="1.0" xmlns="http://www.w3.org/2000/svg"
 width="408.000000pt" height="632.000000pt" viewBox="0 0 408.000000 632.000000"
 preserveAspectRatio="xMidYMid meet">
<metadata>
Created by potrace 1.16, written by Peter Selinger 2001-2019
</metadata>
<rect x="0" y="0" width="408" height="632" fill="#ffffff"/>
<g transform="translate(0.000000,632.000000) scale(0.100000,-0.100000)"
fill="#000000" stroke="none">
<path d="M1989 6237 c-26 -7 -61 -25 -79 -40 -38 -32 -48 -35 -165 -41 -96 -5
-220 -26 -270 -46 -16 -7 -76 -20 -131 -30 -56 -10 -132 -31 -170 -48 -38 -16
-87 -33 -109 -36 -22 -4 -58 -20 -80 -35 -22 -15 -61 -35 -87 -44 -26 -8 -62
-27 -80 -40 -18 -13 -49 -29 -68 -36 -19 -6 -45 -21 -57 -33 -13 -12 -43 -34
-67 -48 -131 -75 -304 -244 -411 -400 -49 -71 -125 -230 -139 -291 -11 -48
-22 -71 -45 -91 l-31 -28 0 -190 0 -190 30 -28 c22 -19 35 -45 46 -87 9 -33
28 -80 42 -105 15 -25 32 -57 38 -71 6 -14 25 -41 41 -60 16 -19 38 -48 49
-65 31 -51 191 -188 277 -237 26 -15 47 -32 47 -38 0 -6 21 -20 48 -31 26 -12
61 -32 78 -45 17 -13 53 -31 80 -40 27 -9 65 -27 86 -40 20 -14 62 -31 94 -40
32 -8 83 -27 114 -43 31 -16 84 -34 118 -40 34 -6 91 -22 126 -35 35 -13 135
-38 223 -55 87 -17 187 -37 223 -45 36 -8 97 -17 135 -21 99 -9 105 -17 105
-128 -1 -101 -12 -164 -32 -178 -7 -5 -35 -7 -63 -5 -27 2 -111 -2 -185 -10
-119 -12 -140 -17 -175 -42 -22 -15 -55 -33 -72 -40 -18 -7 -65 -48 -105 -90
-123 -129 -153 -242 -104 -395 19 -62 35 -88 87 -147 39 -44 83 -81 113 -96
28 -14 61 -34 76 -44 14 -10 59 -27 100 -38 41 -11 91 -26 110 -34 19 -8 59
-18 88 -22 60 -8 54 -2 128 -115 30 -47 62 -93 71 -102 8 -9 49 -24 91 -33 43
-9 111 -28 152 -42 41 -13 112 -34 156 -47 45 -12 94 -32 109 -44 15 -12 46
-27 69 -33 22 -6 61 -23 86 -39 25 -15 62 -35 82 -44 53 -21 154 -96 209 -153
118 -123 146 -190 136 -321 -5 -62 -12 -84 -40 -131 -19 -31 -42 -70 -51 -88
-22 -44 -165 -182 -196 -190 -14 -3 -41 -18 -60 -34 -20 -15 -62 -35 -95 -45
-33 -9 -80 -25 -104 -36 -24 -10 -78 -23 -120 -28 -42 -6 -112 -15 -157 -22
-94 -13 -142 -2 -174 40 -18 22 -20 35 -15 81 4 31 9 64 12 74 7 26 61 46 156
58 53 6 103 20 142 39 33 16 80 34 104 40 54 14 155 106 182 165 23 49 24 133
4 183 -21 49 -75 104 -156 158 -54 36 -94 52 -230 89 l-164 46 -225 6 c-260 6
-444 -7 -511 -36 -24 -11 -85 -27 -136 -36 -71 -12 -114 -27 -190 -66 -129
-66 -182 -118 -243 -239 -77 -153 -78 -263 -2 -420 57 -119 194 -262 314 -327
23 -12 57 -34 77 -47 20 -14 58 -30 85 -36 28 -6 81 -25 120 -42 54 -23 93
-32 175 -40 195 -18 198 -19 225 -111 21 -73 52 -108 125 -141 l59 -26 57 22
c98 39 135 91 135 190 0 47 23 64 104 74 34 4 83 19 114 36 30 16 76 33 101
39 25 5 64 22 86 38 22 15 57 34 78 41 21 7 53 24 70 39 18 15 46 35 62 46 65
41 235 209 273 270 14 22 35 50 47 63 13 12 28 43 34 69 7 25 21 64 32 86 28
53 41 150 30 219 -5 30 -23 88 -41 129 -52 126 -239 300 -401 375 -26 12 -50
27 -53 33 -4 6 -39 20 -78 32 -40 11 -95 34 -122 49 -28 16 -78 34 -111 41
-33 7 -82 23 -109 36 -26 14 -76 29 -110 34 -37 6 -69 18 -81 30 -20 19 -20
19 4 65 16 29 39 54 66 69 38 23 168 65 245 79 19 4 51 18 72 31 20 14 60 33
88 44 72 27 223 158 262 226 10 17 26 41 38 55 11 14 25 53 31 90 6 36 18 84
26 107 14 37 14 46 0 85 -9 24 -19 68 -22 99 -5 45 -16 72 -56 132 -50 76
-193 220 -239 240 -14 6 -41 24 -61 39 -20 15 -63 36 -95 47 -33 11 -86 31
-120 45 -33 14 -106 33 -163 42 -57 10 -109 24 -117 32 -13 12 -14 58 -12 278
2 183 7 267 15 275 8 8 88 11 286 10 152 -1 294 2 318 8 24 5 118 20 209 31
103 14 197 33 250 50 47 16 105 31 129 35 25 3 65 17 90 31 25 13 73 33 106
43 34 10 81 32 104 49 24 18 48 32 54 32 16 0 126 83 186 140 62 60 135 174
146 230 10 47 28 80 59 109 26 24 26 25 26 182 0 130 -3 159 -16 170 -21 18
-48 73 -68 140 -9 31 -22 62 -30 69 -8 6 -28 35 -44 63 -30 53 -222 257 -241
257 -6 0 -26 13 -44 30 -19 16 -54 38 -78 48 -24 11 -52 29 -63 40 -10 12 -41
29 -70 38 -28 9 -69 29 -91 45 -22 15 -58 31 -80 35 -22 3 -70 19 -107 35 -37
16 -113 38 -170 49 -57 12 -128 28 -158 36 -113 33 -298 54 -490 57 -101 2
-107 3 -150 35 -54 38 -121 49 -191 29z m641 -295 c36 -6 106 -15 155 -20 50
-6 124 -22 165 -37 41 -15 109 -35 151 -44 42 -10 96 -29 121 -44 25 -14 67
-31 94 -37 27 -6 65 -24 84 -39 19 -16 45 -31 58 -35 12 -4 43 -25 68 -47 25
-21 49 -39 53 -39 12 0 161 -151 188 -190 13 -19 34 -50 48 -68 13 -18 38 -77
57 -130 41 -122 42 -198 6 -287 -14 -33 -28 -73 -32 -90 -18 -76 -167 -247
-247 -282 -24 -11 -52 -30 -63 -41 -10 -12 -43 -28 -73 -37 -31 -9 -72 -27
-92 -40 -20 -13 -61 -29 -91 -36 -30 -6 -93 -24 -140 -39 -93 -32 -189 -50
-263 -50 -26 0 -62 -7 -80 -17 -18 -9 -54 -18 -82 -19 -125 -8 -511 -20 -531
-16 -11 2 -34 14 -50 27 l-29 23 2 169 c8 569 12 755 18 774 4 11 22 27 41 35
29 12 45 12 121 -1 51 -9 111 -27 143 -44 30 -15 72 -34 93 -40 24 -8 65 -40
116 -91 67 -68 81 -89 99 -145 27 -81 27 -96 2 -164 -16 -40 -40 -72 -98 -129
l-77 -75 0 -85 c0 -82 1 -86 29 -106 16 -12 47 -38 68 -60 34 -34 43 -38 73
-33 39 6 131 91 160 147 9 19 24 43 32 52 27 31 43 128 43 270 0 162 -12 228
-50 271 -15 18 -35 48 -45 67 -24 47 -111 132 -160 157 -22 12 -48 30 -59 42
-10 11 -48 30 -85 42 -36 12 -90 33 -119 46 -35 15 -89 27 -154 34 -113 11
-135 19 -143 52 -7 27 10 282 25 357 7 43 17 61 42 83 l33 28 155 -5 c85 -2
184 -9 220 -14z m-735 -16 c15 -10 21 -32 27 -92 6 -73 20 -173 34 -266 8 -49
0 -80 -26 -96 -11 -6 -69 -19 -130 -27 -74 -9 -131 -23 -177 -43 -37 -16 -86
-35 -107 -42 -22 -7 -72 -35 -111 -61 -194 -132 -302 -332 -280 -517 9 -78 84
-232 147 -301 80 -88 284 -223 359 -238 19 -3 65 -19 103 -35 38 -15 99 -33
135 -39 36 -6 75 -13 87 -15 39 -7 44 -42 43 -287 -1 -128 -4 -245 -8 -261 -9
-42 -33 -54 -73 -37 -18 7 -71 17 -118 22 -141 15 -250 41 -480 114 -140 45
-212 72 -274 104 -32 17 -67 31 -76 31 -10 0 -35 14 -56 31 -22 17 -59 40 -84
51 -25 11 -54 27 -65 37 -11 10 -41 30 -67 45 -27 15 -48 31 -48 36 0 4 -17
19 -37 31 -37 23 -213 197 -213 211 0 4 -18 28 -40 53 -22 25 -40 52 -40 58 0
7 -16 46 -36 87 -36 74 -37 78 -42 221 -3 118 -1 157 13 205 9 32 21 64 26 70
5 7 21 40 34 75 14 34 34 72 44 83 11 12 27 39 36 60 18 44 149 196 231 269
67 60 135 109 196 142 26 13 49 29 52 34 11 17 189 102 254 121 34 10 78 28
96 40 19 11 74 29 123 40 48 11 122 31 163 46 47 16 114 30 180 36 58 5 107
11 109 14 10 10 79 3 96 -10z m77 -638 c7 -15 13 -75 14 -163 1 -77 5 -277 9
-445 6 -265 5 -310 -8 -343 -9 -20 -22 -37 -29 -37 -32 0 -203 42 -231 56 -17
9 -53 24 -81 34 -98 34 -251 148 -294 220 -14 25 -36 59 -48 77 -59 88 -49
236 23 340 56 82 151 166 204 182 24 7 62 24 85 37 49 29 182 56 311 62 24 2
35 -4 45 -20z m329 -1912 c220 -72 343 -163 459 -338 34 -52 35 -55 35 -153 0
-100 0 -101 -35 -145 -69 -88 -163 -169 -214 -186 -27 -9 -64 -25 -81 -35 -69
-41 -221 -71 -400 -78 -93 -5 -184 -4 -201 1 -17 4 -79 17 -139 27 -83 15
-114 26 -134 44 -14 13 -47 38 -73 56 -58 39 -78 74 -78 140 0 46 4 55 47 103
25 29 62 61 82 72 20 10 50 31 68 47 35 30 58 35 224 45 115 6 134 -1 127 -48
-5 -35 -46 -50 -105 -38 -37 6 -64 5 -102 -5 -72 -19 -98 -38 -110 -82 -23
-82 -7 -151 45 -199 47 -43 173 -84 259 -84 66 0 232 37 282 64 37 19 120 105
131 136 18 48 24 127 12 170 -20 73 -128 170 -246 221 -23 9 -45 23 -50 30 -4
8 -7 65 -5 129 4 170 4 170 202 106z m-53 -492 c29 -33 28 -77 -3 -130 -20
-35 -40 -50 -100 -80 l-75 -37 -108 5 c-61 3 -122 11 -138 19 -61 30 -71 109
-16 131 26 10 44 9 234 -19 34 -5 39 -2 57 28 12 20 21 51 21 76 0 54 20 67
70 47 19 -8 45 -26 58 -40z m-58 -1393 c208 -64 320 -118 369 -178 36 -43 42
-73 24 -111 -41 -84 -160 -122 -383 -122 -111 0 -145 -4 -190 -20 -92 -35
-106 -68 -70 -160 22 -56 28 -215 10 -250 -16 -30 -63 -41 -127 -29 -31 6 -64
9 -73 6 -34 -9 -271 23 -328 44 -31 12 -77 28 -102 36 -122 39 -222 114 -312
233 l-49 65 3 75 c4 83 18 118 76 195 44 58 150 127 232 151 30 9 91 27 135
41 43 14 99 29 125 33 64 12 617 4 660 -9z"/>
</g>
</svg>
