<?xml version="1.0" standalone="no"?>
<!DOCTYPE svg PUBLIC "-//W3C//DTD SVG 20010904//EN"
 "http://www.w3.org/TR/2001/REC-SVG-20010904/DTD/svg10.dtd">
<svg version="1.0" xmlns="http://www.w3.org/2000/svg"
 width="408.000000pt" height="400.000000pt" viewBox="0 0 408.000000 400.000000"
 preserveAspectRatio="xMidYMid meet">
<metadata>
Created by potrace 1.16, written by Peter Selinger 2001-2019
</metadata>
<rect x="0" y="0" width="408" height="400" fill="#ffffff"/>
<g transform="translate(0.000000,400.000000) scale(0.100000,-0.100000)"
fill="#000000" stroke="none">
<path d="M1651 3986 c-19 -22 -126 -55 -232 -71 -53 -8 -118 -24 -145 -36 -27
-11 -78 -27 -114 -35 -36 -9 -85 -28 -110 -44 -25 -15 -69 -33 -99 -40 -30 -7
-67 -25 -85 -40 -17 -15 -48 -33 -69 -39 -21 -7 -50 -23 -65 -35 -15 -13 -46
-33 -69 -44 -23 -12 -45 -27 -48 -33 -4 -6 -31 -26 -61 -45 -103 -66 -314
-295 -375 -407 -46 -85 -93 -199 -109 -267 -15 -63 -26 -90 -45 -105 -24 -20
-25 -24 -25 -152 0 -109 3 -133 16 -144 20 -16 49 -80 59 -129 3 -19 29 -82
57 -139 47 -95 61 -114 191 -248 77 -79 159 -155 182 -169 23 -13 51 -34 61
-45 10 -11 33 -26 50 -34 17 -7 46 -26 65 -42 19 -16 50 -35 69 -43 19 -7 53
-26 75 -41 22 -15 63 -34 91 -43 29 -9 60 -26 70 -37 9 -11 43 -27 73 -35 31
-9 75 -28 99 -42 24 -13 72 -31 108 -38 35 -8 87 -25 114 -39 27 -14 82 -32
122 -40 40 -9 114 -29 164 -45 50 -16 130 -34 178 -40 107 -13 113 -16 132
-52 12 -23 14 -48 8 -123 -4 -51 -10 -98 -14 -105 -5 -8 -45 -13 -111 -16
-127 -4 -289 -35 -327 -63 -15 -11 -51 -28 -80 -39 -34 -13 -70 -39 -106 -75
-47 -49 -58 -68 -86 -152 -38 -113 -37 -157 5 -255 46 -108 150 -203 266 -242
31 -10 69 -32 84 -48 l29 -30 357 0 357 0 34 34 c25 25 49 37 93 46 138 30
340 176 401 290 13 25 33 56 44 70 11 15 25 60 34 112 13 76 13 97 0 180 -9
53 -23 104 -33 118 -10 14 -28 43 -39 65 -21 41 -154 176 -227 231 -80 61
-213 115 -389 160 -131 32 -175 48 -188 64 -16 20 -18 46 -18 226 0 207 8 259
41 280 7 4 119 7 249 5 179 -2 256 1 325 14 50 8 124 18 165 21 79 6 292 49
322 65 9 5 53 15 96 23 48 8 100 26 133 44 30 17 73 33 97 37 27 4 57 19 77
36 18 16 48 35 67 41 77 27 244 181 287 267 11 20 27 43 35 51 9 7 26 46 38
87 13 47 32 86 50 105 l28 30 0 165 0 164 -30 25 c-21 18 -36 46 -51 97 -11
39 -31 85 -44 102 -12 16 -30 44 -38 60 -18 35 -248 267 -292 294 -16 10 -38
28 -49 39 -10 12 -35 26 -55 33 -20 6 -47 22 -61 34 -14 13 -49 33 -79 44 -29
11 -70 31 -90 45 -20 14 -70 31 -115 40 -43 9 -93 25 -111 36 -17 11 -65 25
-106 31 -163 25 -182 30 -212 60 l-29 29 -528 0 c-445 0 -529 -2 -539 -14z
m859 -317 c63 -5 143 -19 177 -29 34 -11 111 -26 170 -34 63 -9 140 -28 184
-45 42 -16 94 -33 115 -36 22 -4 64 -22 94 -40 30 -18 73 -38 95 -45 22 -7 47
-18 55 -25 8 -7 38 -26 65 -42 96 -57 265 -224 301 -298 14 -27 35 -66 47 -85
20 -32 22 -47 22 -181 0 -140 -1 -147 -26 -185 -14 -21 -32 -56 -40 -77 -14
-40 -191 -227 -215 -227 -6 0 -36 -16 -65 -36 -29 -20 -77 -43 -107 -51 -30
-8 -71 -25 -91 -39 -21 -13 -71 -31 -112 -39 -41 -8 -109 -26 -152 -40 -116
-37 -395 -68 -627 -68 -167 0 -283 12 -303 32 -8 9 -12 58 -12 176 0 163 0
165 26 190 28 28 76 35 404 55 172 11 266 22 315 38 19 6 71 16 115 22 59 8
90 19 120 39 22 16 57 36 77 44 20 8 44 28 54 44 10 15 28 40 41 54 20 22 24
37 26 110 2 79 0 86 -27 124 -58 79 -102 118 -171 151 -38 19 -81 41 -95 49
-14 8 -57 19 -95 25 -39 6 -122 25 -185 42 -97 26 -146 33 -315 42 -120 7
-209 17 -222 24 -27 15 -37 49 -29 100 3 20 10 73 16 117 20 157 18 155 153
155 56 0 154 -5 217 -11z m-653 -9 c41 -15 54 -48 64 -165 4 -55 11 -116 15
-136 10 -58 -13 -74 -132 -89 -54 -6 -124 -22 -154 -35 -30 -12 -80 -28 -110
-34 -30 -6 -73 -24 -95 -40 -22 -15 -57 -34 -78 -41 -66 -21 -207 -157 -239
-230 -10 -25 -30 -67 -43 -95 -21 -43 -25 -67 -27 -175 -3 -114 -1 -128 19
-160 12 -19 31 -61 43 -93 18 -47 40 -76 120 -157 63 -63 118 -109 152 -126
29 -14 63 -35 74 -46 12 -11 53 -28 90 -38 38 -10 96 -29 129 -43 33 -14 98
-31 145 -37 104 -13 134 -24 148 -55 7 -15 12 -111 13 -246 1 -264 5 -255 -99
-251 -38 1 -93 9 -123 17 -29 8 -92 25 -139 36 -236 57 -531 163 -617 221 -21
14 -61 33 -90 42 -28 10 -57 24 -65 33 -7 9 -33 24 -58 35 -25 11 -58 32 -75
47 -16 16 -38 32 -47 37 -40 21 -182 153 -252 234 -26 30 -58 67 -71 81 -14
14 -31 44 -39 67 -9 23 -27 57 -41 76 -45 59 -64 236 -40 375 13 77 25 111 66
185 57 103 98 164 149 223 44 50 217 203 230 203 5 0 27 16 49 35 21 19 57 42
80 50 23 8 56 25 74 38 17 14 50 30 72 37 22 7 69 27 105 45 36 18 82 35 104
39 21 4 73 21 115 37 42 17 122 36 181 45 58 8 146 26 195 39 99 26 156 31
202 15z m716 -641 c34 -6 96 -19 137 -29 41 -10 102 -21 135 -25 93 -9 136
-24 172 -60 32 -32 41 -67 25 -91 -4 -6 -28 -28 -54 -47 -49 -38 -102 -54
-313 -99 -138 -29 -460 -31 -517 -4 -61 29 -73 50 -72 120 6 285 -16 261 236
253 105 -4 218 -12 251 -18z m-634 -14 c12 -11 18 -45 22 -123 8 -121 1 -143
-55 -166 -65 -27 -108 -117 -88 -183 15 -50 65 -109 99 -118 59 -14 63 -26 63
-171 0 -127 -1 -134 -22 -148 -28 -18 -84 -8 -156 28 -26 12 -72 28 -103 35
-32 7 -65 21 -75 33 -11 11 -43 31 -72 44 -76 34 -161 112 -218 201 -45 72
-49 84 -52 149 -5 91 9 122 100 219 79 85 163 136 258 159 36 8 99 27 140 40
80 27 133 27 159 1z m281 -1881 c41 -8 91 -25 110 -38 20 -13 60 -31 91 -39
30 -9 64 -26 75 -38 10 -12 37 -32 60 -45 68 -40 152 -145 185 -230 16 -41 29
-83 29 -92 0 -9 -14 -58 -30 -108 -30 -89 -33 -94 -98 -148 -117 -99 -163
-128 -251 -158 -164 -55 -238 -68 -406 -68 -167 0 -254 15 -372 63 -116 47
-215 159 -215 242 0 47 57 153 93 173 17 9 47 29 66 44 40 31 90 48 143 48 19
0 53 10 75 21 31 17 50 20 87 16 27 -4 53 -9 58 -12 20 -12 -2 -25 -43 -25
-63 0 -101 -14 -145 -55 -22 -20 -56 -51 -74 -68 -26 -24 -37 -43 -42 -78 -9
-59 1 -82 61 -146 38 -41 61 -56 113 -73 101 -33 170 -35 289 -10 57 11 114
26 125 32 44 23 107 84 141 135 32 48 35 59 35 126 0 73 0 75 -50 141 -28 36
-55 66 -60 66 -5 0 -24 13 -43 30 -19 16 -53 34 -78 39 -56 13 -69 32 -69 100
0 31 -3 72 -6 92 -5 29 -2 41 15 58 25 25 34 26 131 5z m-25 -450 c50 -61 58
-117 22 -160 -37 -43 -155 -95 -231 -101 -80 -7 -168 12 -206 44 -50 42 -39
83 31 118 59 30 78 31 129 5 43 -22 91 -26 121 -10 15 9 19 22 19 68 0 64 11
82 51 82 19 0 37 -12 64 -46z"/>
</g>
</svg>
