<?xml version="1.0" standalone="no"?>
<!DOCTYPE svg PUBLIC "-//W3C//DTD SVG 20010904//EN"
 "http://www.w3.org/TR/2001/REC-SVG-20010904/DTD/svg10.dtd">
<svg version="1.0" xmlns="http://www.w3.org/2000/svg"
 width="592.000000pt" height="168.000000pt" viewBox="0 0 592.000000 168.000000"
 preserveAspectRatio="xMidYMid meet">
<metadata>
Created by potrace 1.16, written by Peter Selinger 2001-2019
</metadata>
<rect x="0" y="0" width="592" height="168" fill="#ffffff"/>
<g transform="translate(0.000000,168.000000) scale(0.100000,-0.100000)"
fill="#000000" stroke="none">
<path d="M2807 1621 c-11 -41 -29 -73 -55 -101 l-39 -40 -529 0 c-360 0 -542
4 -569 11 -23 7 -144 13 -290 14 -137 1 -376 8 -530 14 -154 7 -329 11 -390
11 -69 -1 -135 5 -177 14 -71 17 -96 13 -147 -24 -15 -10 -39 -22 -54 -25 -26
-7 -27 -9 -27 -85 l0 -78 60 -31 60 -32 308 13 c169 6 390 12 492 13 102 0
192 5 200 10 28 18 1620 47 1660 30 62 -26 104 -172 98 -349 -2 -90 -7 -119
-19 -132 -15 -14 -66 -16 -520 -15 -276 1 -507 5 -513 9 -6 4 -108 10 -226 14
-596 19 -820 29 -867 39 -44 10 -59 9 -96 -5 -61 -23 -80 -47 -85 -109 -6 -72
16 -123 62 -142 44 -19 68 -19 361 -5 132 7 310 14 395 16 85 2 177 9 203 14
26 6 152 10 280 10 128 0 252 5 277 11 66 15 718 15 733 0 32 -32 12 -295 -32
-424 -29 -84 -34 -133 -21 -203 l12 -64 127 0 127 0 17 71 c17 70 17 71 -7
142 -24 73 -36 138 -57 323 -12 111 -8 138 22 155 28 14 844 15 882 0 16 -6
95 -11 180 -11 85 0 170 -5 192 -12 22 -6 85 -12 140 -13 211 -3 593 -26 659
-40 82 -18 189 -19 219 -4 56 30 97 72 107 110 18 66 4 106 -57 163 -71 67
-88 72 -176 53 -146 -31 -298 -48 -542 -59 -137 -6 -315 -15 -395 -19 -80 -5
-320 -13 -535 -18 -214 -5 -444 -14 -510 -19 -175 -13 -195 -2 -195 115 0 89
30 304 47 341 31 66 9 63 570 63 337 0 517 -3 536 -10 16 -6 103 -11 200 -11
95 0 192 -5 217 -11 25 -7 110 -13 190 -14 80 -2 237 -8 350 -15 113 -6 237
-11 275 -10 41 1 88 -5 114 -14 67 -24 195 -20 251 7 56 28 74 63 74 142 0 77
-21 117 -80 151 -42 25 -50 26 -127 20 -137 -10 -269 -24 -327 -36 -30 -6 -93
-10 -140 -9 -79 0 -218 -6 -735 -32 -110 -6 -436 -13 -725 -15 -421 -3 -529
-2 -544 9 -16 12 -57 98 -75 157 -7 25 -8 25 -137 28 l-129 2 -18 -59z"/>
</g>
</svg>
