<?xml version="1.0" standalone="no"?>
<!DOCTYPE svg PUBLIC "-//W3C//DTD SVG 20010904//EN"
 "http://www.w3.org/TR/2001/REC-SVG-20010904/DTD/svg10.dtd">
<svg version="1.0" xmlns="http://www.w3.org/2000/svg"
 width="416.000000pt" height="576.000000pt" viewBox="0 0 416.000000 576.000000"
 preserveAspectRatio="xMidYMid meet">
<metadata>
Created by potrace 1.16, written by Peter Selinger 2001-2019
</metadata>
<rect x="0" y="0" width="416" height="576" fill="#ffffff"/>
<g transform="translate(0.000000,576.000000) scale(0.100000,-0.100000)"
fill="#000000" stroke="none">
<path d="M2010 5704 c-19 -9 -100 -24 -180 -34 -80 -10 -210 -32 -290 -49 -80
-17 -153 -31 -163 -31 -10 0 -49 -13 -87 -30 -37 -16 -97 -36 -133 -43 -37 -8
-79 -25 -99 -40 -19 -15 -58 -31 -86 -38 -29 -6 -65 -21 -80 -34 -16 -13 -53
-34 -83 -48 -30 -13 -60 -32 -68 -41 -8 -9 -30 -24 -49 -32 -19 -8 -52 -29
-73 -47 -21 -17 -64 -52 -95 -77 -31 -25 -83 -70 -115 -101 -62 -60 -169 -195
-169 -214 0 -6 -16 -29 -35 -51 -19 -21 -40 -55 -46 -74 -7 -19 -24 -60 -39
-90 -16 -31 -31 -78 -35 -105 -3 -28 -15 -94 -26 -147 -23 -115 -24 -167 -5
-213 8 -18 20 -69 26 -112 8 -53 23 -97 45 -138 18 -33 35 -71 38 -85 4 -14
17 -36 29 -49 13 -14 31 -36 40 -50 30 -44 251 -262 293 -289 22 -14 44 -31
49 -39 4 -8 31 -25 60 -38 28 -13 62 -34 75 -49 13 -14 40 -31 60 -37 20 -6
51 -22 69 -36 18 -13 54 -31 80 -40 26 -9 62 -27 80 -40 19 -14 55 -31 80 -38
26 -7 72 -24 102 -38 31 -14 89 -35 130 -47 41 -12 91 -30 110 -40 19 -10 69
-25 110 -34 41 -10 111 -30 156 -46 44 -15 123 -33 175 -39 78 -10 98 -16 119
-37 23 -23 25 -31 25 -123 0 -128 -10 -142 -99 -140 -68 2 -216 -14 -288 -30
-26 -6 -67 -24 -90 -40 -24 -15 -62 -40 -85 -55 -65 -40 -150 -149 -162 -208
-27 -122 -6 -265 47 -320 17 -18 42 -44 55 -58 43 -45 120 -100 146 -106 24
-5 65 -19 176 -61 23 -8 91 -17 158 -20 142 -7 144 -8 132 -127 -9 -100 -16
-107 -113 -104 -103 4 -236 -18 -297 -48 -27 -13 -71 -30 -97 -38 -90 -26
-216 -150 -290 -284 -12 -23 -29 -35 -65 -45 -63 -19 -157 -77 -210 -129 -46
-46 -93 -141 -101 -204 -3 -32 3 -55 27 -105 17 -35 31 -69 31 -76 0 -22 139
-172 184 -198 24 -14 51 -34 61 -45 9 -10 40 -27 69 -36 28 -9 69 -30 91 -46
25 -17 68 -34 113 -43 40 -9 89 -22 110 -29 169 -64 736 -64 906 0 21 8 75 22
120 30 49 9 95 25 116 40 20 13 59 31 87 39 28 8 70 31 93 50 23 19 48 35 55
35 28 0 197 154 270 247 17 21 53 83 80 138 l50 100 3 133 c4 168 -6 218 -65
307 -75 112 -214 238 -313 282 -25 11 -51 27 -59 36 -7 9 -41 26 -75 36 -33
11 -83 31 -110 45 -27 15 -58 26 -68 26 -10 0 -35 7 -54 15 -73 30 -34 67 157
146 37 15 86 42 110 61 55 42 141 134 163 173 9 17 26 43 39 58 21 27 22 37
22 197 l0 168 -31 43 c-17 24 -36 58 -43 75 -12 31 -147 167 -227 230 -21 17
-54 36 -73 42 -19 7 -55 26 -81 42 -26 17 -76 36 -116 44 -39 8 -93 24 -120
34 -27 11 -74 23 -104 27 -80 10 -126 23 -140 40 -10 12 -12 68 -11 222 2 222
9 255 53 267 13 3 138 6 279 6 190 0 267 4 300 14 24 8 107 19 184 26 105 9
167 21 245 45 58 18 128 36 155 40 28 4 75 20 105 35 31 16 76 33 100 40 25 6
63 24 85 39 22 15 61 35 88 45 26 10 53 26 60 35 6 10 30 30 52 44 38 25 69
56 150 152 18 23 54 89 79 147 40 93 47 121 56 220 14 146 -2 299 -38 367 -13
25 -33 69 -43 97 -11 28 -29 60 -40 70 -12 11 -29 35 -40 54 -22 42 -126 151
-194 203 -28 20 -70 53 -95 72 -25 19 -68 46 -97 61 -29 14 -57 32 -63 39 -7
8 -35 22 -63 31 -29 9 -70 30 -92 45 -22 16 -62 33 -89 39 -28 6 -80 24 -117
40 -37 17 -76 30 -86 30 -10 0 -83 14 -163 31 -186 40 -313 55 -529 63 -115 5
-187 12 -209 22 -43 18 -68 17 -112 -2z m-103 -372 c7 -8 16 -38 22 -66 48
-259 49 -267 28 -285 -8 -6 -52 -18 -98 -26 -46 -8 -127 -27 -179 -43 -52 -16
-113 -33 -136 -36 -22 -4 -63 -23 -89 -42 -27 -19 -54 -34 -60 -34 -6 0 -29
-15 -51 -33 -21 -18 -55 -45 -76 -60 -20 -14 -46 -44 -59 -64 -12 -21 -33 -50
-46 -64 -28 -30 -83 -209 -83 -268 0 -61 46 -241 69 -270 12 -14 30 -42 41
-62 27 -50 197 -206 240 -221 19 -6 49 -21 65 -34 17 -13 69 -37 115 -54 47
-17 102 -38 122 -46 21 -7 81 -18 134 -23 145 -13 138 0 142 -277 4 -305 3
-307 -198 -255 -63 16 -156 36 -205 45 -50 8 -116 26 -147 40 -31 14 -85 32
-120 41 -35 9 -79 27 -98 39 -20 13 -61 31 -93 40 -31 9 -78 30 -104 46 -26
17 -52 30 -58 30 -6 0 -42 20 -79 45 -38 25 -74 45 -80 45 -6 0 -27 13 -46 28
-19 16 -54 41 -76 55 -49 30 -273 248 -300 292 -10 17 -33 49 -51 73 -18 24
-33 53 -33 64 0 11 -14 54 -31 96 -22 55 -32 100 -36 157 -5 74 -2 90 36 207
23 70 52 140 65 155 13 16 31 44 41 63 10 19 32 53 49 75 51 65 228 236 266
255 19 10 43 27 54 39 10 11 43 30 73 41 30 11 69 31 86 44 18 13 58 31 89 40
31 9 60 21 63 26 12 19 64 40 135 55 38 8 92 26 118 39 29 15 83 29 133 36 46
6 111 19 144 30 33 11 98 24 145 30 47 7 87 13 89 16 8 8 56 -9 68 -24z m838
-16 c83 -18 175 -37 206 -40 31 -4 83 -20 115 -35 33 -15 88 -33 124 -40 36
-7 85 -25 110 -41 25 -15 62 -33 83 -40 21 -6 50 -23 65 -37 15 -14 42 -32 61
-40 64 -27 226 -175 256 -234 9 -16 26 -44 39 -63 21 -32 47 -114 66 -210 12
-60 -31 -260 -63 -295 -14 -14 -34 -45 -46 -68 -22 -44 -154 -167 -193 -178
-13 -4 -36 -20 -53 -36 -19 -18 -51 -33 -90 -42 -33 -8 -77 -26 -97 -40 -22
-14 -65 -30 -104 -36 -36 -7 -89 -21 -117 -33 -84 -33 -107 -38 -217 -49 -58
-6 -145 -15 -195 -21 -148 -18 -428 -16 -510 4 -40 10 -75 25 -83 35 -15 21
-7 270 10 316 22 56 86 69 438 87 111 5 203 16 280 33 63 13 140 28 170 32 62
8 141 53 220 123 67 59 85 140 60 259 -14 66 -94 144 -182 179 -33 13 -72 31
-85 39 -13 9 -77 27 -141 41 -64 13 -130 29 -147 34 -66 21 -209 39 -369 46
-205 8 -211 12 -202 102 3 32 8 98 12 147 7 99 15 122 47 136 13 5 97 7 202 4
158 -4 199 -9 330 -39z m-270 -606 c66 -6 149 -17 185 -25 36 -8 121 -24 189
-35 113 -18 131 -24 188 -62 55 -35 64 -45 61 -67 -4 -36 -113 -107 -187 -122
-30 -6 -91 -22 -135 -36 -47 -14 -115 -26 -161 -28 -44 -2 -117 -7 -163 -11
-53 -4 -115 -2 -175 6 -82 12 -96 17 -124 46 -33 32 -33 33 -33 132 0 55 -3
113 -6 130 -5 24 -1 36 19 56 25 24 32 26 124 26 54 0 152 -5 218 -10z m-526
-16 c36 -26 51 -74 51 -170 0 -89 -13 -124 -46 -124 -20 0 -83 -59 -101 -93
-19 -39 -13 -119 12 -147 10 -11 42 -36 71 -55 60 -40 59 -38 69 -201 6 -97 5
-103 -16 -123 -30 -28 -49 -27 -122 9 -34 16 -91 37 -126 46 -36 9 -87 31
-114 50 -27 19 -54 34 -59 34 -6 0 -51 37 -101 82 -73 67 -95 95 -119 146 -37
84 -39 176 -5 250 31 66 106 148 153 168 21 9 52 26 69 39 18 14 62 30 106 40
42 8 103 26 135 40 70 29 111 31 143 9z m366 -1934 c44 -21 94 -43 112 -50 18
-7 38 -19 44 -27 7 -8 29 -23 48 -33 20 -10 71 -53 113 -95 66 -66 80 -86 99
-142 24 -72 22 -128 -5 -219 -13 -43 -33 -68 -109 -145 -96 -97 -117 -111
-227 -148 -36 -12 -83 -29 -105 -38 -52 -19 -313 -33 -422 -22 -45 5 -106 18
-135 30 -29 12 -77 30 -107 40 -58 20 -144 91 -173 143 -21 36 -24 130 -5 162
32 56 125 137 205 178 31 16 137 24 149 12 12 -12 -11 -39 -70 -84 -40 -31
-60 -54 -73 -87 -16 -42 -16 -48 0 -87 23 -61 51 -104 80 -123 37 -24 201 -65
260 -65 28 0 97 13 153 29 93 26 109 34 167 85 67 59 97 115 99 189 1 52 -23
122 -55 162 -36 42 -150 119 -193 129 -68 16 -75 28 -75 126 0 77 3 93 20 110
29 29 104 18 205 -30z m-348 -326 c10 -27 -23 -44 -60 -32 -44 15 -55 27 -37
38 26 16 90 12 97 -6z m247 -64 c18 -17 41 -46 51 -66 16 -35 16 -37 -7 -82
-21 -41 -34 -52 -98 -85 -61 -30 -90 -38 -156 -43 -128 -10 -234 34 -234 97 0
33 29 56 101 79 36 12 44 12 85 -8 56 -28 98 -28 125 -1 17 17 19 28 14 60
-13 78 54 106 119 49z m-11 -745 c26 -8 76 -19 110 -25 34 -6 79 -22 99 -36
21 -13 62 -31 92 -38 58 -15 91 -30 116 -52 9 -7 36 -20 60 -29 24 -8 57 -26
74 -39 17 -13 49 -32 71 -44 54 -28 198 -170 224 -220 57 -112 -10 -125 -247
-50 -49 16 -66 26 -78 50 -39 76 -187 199 -269 223 -23 7 -66 25 -96 41 -36
18 -78 29 -127 34 -50 5 -83 14 -100 28 -24 17 -27 26 -27 82 0 49 4 65 20 76
23 17 19 17 78 -1z m-230 -310 c20 -19 31 -104 18 -137 -15 -40 -37 -47 -132
-41 -50 3 -113 1 -150 -6 -109 -20 -168 -19 -185 4 -8 11 -13 26 -12 35 5 23
168 109 210 111 13 0 57 11 98 24 89 27 133 30 153 10z m337 -22 c99 -27 217
-82 247 -115 13 -15 15 -23 6 -36 -8 -14 -26 -17 -109 -16 -176 2 -317 15
-336 32 -22 18 -25 119 -5 144 25 32 48 31 197 -9z m-335 -288 c24 -23 25 -31
25 -133 0 -136 -6 -169 -37 -189 -22 -14 -29 -14 -96 5 -40 12 -91 25 -115 28
-24 4 -57 17 -75 30 -18 13 -52 34 -77 45 -42 20 -126 88 -143 115 -4 7 -5 19
-1 27 12 31 61 42 309 67 50 5 104 13 120 19 48 15 64 13 90 -14z m516 -3
c104 -10 139 -28 139 -74 0 -36 -33 -71 -136 -143 -47 -32 -88 -52 -138 -64
-40 -10 -82 -23 -93 -30 -12 -6 -40 -11 -62 -11 -31 0 -44 6 -60 26 -19 24
-21 40 -21 160 0 116 2 134 18 144 18 11 187 7 353 -8z m394 -88 c105 -43 129
-58 139 -86 8 -22 5 -34 -20 -69 -16 -23 -37 -53 -46 -68 -21 -32 -109 -103
-163 -132 -22 -12 -49 -29 -60 -40 -39 -35 -217 -103 -380 -145 -161 -41 -167
-41 -198 -4 -48 57 -55 134 -16 167 8 6 43 16 78 23 36 6 81 20 100 29 20 10
68 28 108 40 39 11 84 32 100 45 15 13 42 30 60 39 41 22 117 111 138 165 20
49 50 74 80 66 11 -3 47 -16 80 -30z m-1651 -88 c22 -24 55 -59 71 -77 57 -63
104 -98 147 -110 23 -6 68 -24 98 -39 57 -29 138 -43 328 -59 57 -4 86 -11 92
-21 11 -18 13 -140 2 -157 -14 -23 -64 -33 -160 -33 -77 0 -112 5 -167 24 -38
13 -118 33 -176 44 -71 13 -118 28 -145 45 -21 14 -53 28 -70 32 -21 4 -64 37
-128 98 -94 90 -96 93 -96 138 0 25 6 52 13 61 28 36 110 98 129 98 11 0 39
-19 62 -44z"/>
</g>
</svg>
