<?xml version="1.0" standalone="no"?>
<!DOCTYPE svg PUBLIC "-//W3C//DTD SVG 20010904//EN"
 "http://www.w3.org/TR/2001/REC-SVG-20010904/DTD/svg10.dtd">
<svg version="1.0" xmlns="http://www.w3.org/2000/svg"
 width="152.000000pt" height="480.000000pt" viewBox="0 0 152.000000 480.000000"
 preserveAspectRatio="xMidYMid meet">
<metadata>
Created by potrace 1.16, written by Peter Selinger 2001-2019
</metadata>
<rect x="0" y="0" width="152" height="480" fill="#ffffff"/>
<g transform="translate(0.000000,480.000000) scale(0.100000,-0.100000)"
fill="#000000" stroke="none">
<path d="M580 2425 c-36 -16 -74 -24 -111 -25 -85 0 -156 -17 -206 -47 -70
-43 -164 -139 -189 -194 -14 -29 -33 -54 -49 -61 -24 -11 -25 -15 -25 -93 l0
-83 35 -6 c28 -6 42 -18 76 -71 27 -41 54 -69 73 -77 17 -7 48 -29 68 -50 31
-31 44 -38 77 -38 27 0 49 -8 68 -24 56 -46 68 -49 290 -54 241 -5 251 -4 313
64 l40 44 0 85 c0 125 3 127 173 120 145 -7 161 -13 159 -64 -1 -50 -26 -84
-153 -207 -310 -301 -377 -378 -412 -468 -10 -27 -29 -62 -42 -78 -25 -30 -30
-45 -45 -156 -6 -40 -18 -89 -27 -110 -14 -30 -19 -83 -25 -277 -4 -132 -10
-311 -14 -397 l-6 -158 104 0 103 0 -3 392 c-3 324 -1 412 13 502 16 110 23
132 56 175 11 13 23 40 29 60 5 20 27 55 47 77 21 22 65 69 98 104 34 36 121
121 194 190 73 69 141 141 151 161 11 21 32 41 49 49 l31 12 0 179 0 179 -24
10 c-14 5 -42 35 -64 67 -47 69 -131 139 -197 164 -26 10 -55 24 -64 32 -34
30 -66 39 -169 47 -73 5 -121 15 -152 29 -67 31 -195 29 -270 -4z m395 -174
c109 -16 127 -21 194 -61 40 -25 80 -55 89 -68 14 -21 13 -25 -2 -40 -14 -14
-36 -17 -144 -14 -123 2 -129 3 -198 38 -56 28 -87 37 -148 41 l-77 6 -37 -35
c-20 -19 -44 -38 -54 -41 -9 -3 -82 -7 -162 -8 -123 -2 -149 0 -163 13 -23 23
-10 63 26 78 16 6 53 27 81 45 43 28 65 34 128 39 43 4 93 10 112 15 60 15
229 11 355 -8z m-380 -343 c35 -16 34 -55 -2 -69 -52 -20 -163 6 -163 38 0 37
107 57 165 31z"/>
</g>
</svg>
