<?xml version="1.0" standalone="no"?>
<!DOCTYPE svg PUBLIC "-//W3C//DTD SVG 20010904//EN"
 "http://www.w3.org/TR/2001/REC-SVG-20010904/DTD/svg10.dtd">
<svg version="1.0" xmlns="http://www.w3.org/2000/svg"
 width="160.000000pt" height="560.000000pt" viewBox="0 0 160.000000 560.000000"
 preserveAspectRatio="xMidYMid meet">
<metadata>
Created by potrace 1.16, written by Peter Selinger 2001-2019
</metadata>
<rect x="0" y="0" width="160" height="560" fill="#ffffff"/>
<g transform="translate(0.000000,560.000000) scale(0.100000,-0.100000)"
fill="#000000" stroke="none">
<path d="M660 3225 c-36 -16 -74 -24 -111 -25 -85 0 -156 -17 -206 -47 -66
-40 -174 -147 -194 -192 -27 -62 -52 -81 -104 -81 l-45 0 0 -80 0 -80 55 0
c70 0 98 -13 124 -60 22 -39 84 -100 102 -100 5 0 27 -18 49 -40 33 -33 46
-40 79 -40 27 0 49 -8 68 -24 56 -46 68 -49 290 -54 241 -5 251 -4 313 64 l40
44 0 85 c0 125 3 127 173 120 145 -7 161 -13 159 -64 -1 -50 -26 -84 -153
-207 -310 -301 -377 -378 -412 -468 -10 -27 -29 -62 -42 -78 -25 -30 -30 -45
-45 -156 -6 -40 -18 -89 -27 -110 -14 -30 -19 -82 -24 -277 -4 -132 -12 -321
-18 -420 -5 -99 -10 -350 -10 -557 l-1 -378 80 0 80 0 0 384 0 384 27 32 27
32 -3 382 c-3 469 9 575 70 655 11 13 23 40 29 60 5 20 27 55 47 77 21 22 65
69 98 104 34 36 121 121 194 190 73 69 141 141 151 161 11 21 32 41 49 49 l31
12 0 179 0 179 -24 10 c-14 5 -42 35 -64 67 -47 69 -131 139 -197 164 -26 10
-55 24 -64 32 -34 30 -66 39 -169 47 -73 5 -121 15 -152 29 -67 31 -195 29
-270 -4z m395 -174 c109 -16 127 -21 194 -61 40 -25 80 -55 89 -68 14 -21 13
-25 -2 -40 -14 -14 -36 -17 -144 -14 -123 2 -129 3 -198 38 -56 28 -87 37
-147 41 l-77 6 -45 -42 -45 -41 -132 -2 c-164 -1 -180 0 -197 17 -21 20 -6 61
28 75 16 6 53 27 81 45 43 28 65 34 128 39 43 4 93 10 112 15 60 15 229 11
355 -8z m-347 -343 c7 -7 12 -25 12 -40 0 -36 -25 -42 -136 -35 -86 5 -114 16
-114 46 0 34 22 41 125 41 65 0 105 -4 113 -12z"/>
</g>
</svg>
