<?xml version="1.0" standalone="no"?>
<!DOCTYPE svg PUBLIC "-//W3C//DTD SVG 20010904//EN"
 "http://www.w3.org/TR/2001/REC-SVG-20010904/DTD/svg10.dtd">
<svg version="1.0" xmlns="http://www.w3.org/2000/svg"
 width="200.000000pt" height="184.000000pt" viewBox="0 0 200.000000 184.000000"
 preserveAspectRatio="xMidYMid meet">
<metadata>
Created by potrace 1.16, written by Peter Selinger 2001-2019
</metadata>
<rect x="0" y="0" width="200" height="184" fill="#ffffff"/>
<g transform="translate(0.000000,184.000000) scale(0.100000,-0.100000)"
fill="#000000" stroke="none">
<path d="M194 1646 l-37 -37 6 -473 c4 -282 11 -484 17 -500 5 -15 10 -104 10
-197 0 -227 20 -279 108 -279 41 0 48 4 94 54 27 30 79 99 114 153 36 54 76
104 88 112 13 8 31 27 41 44 9 16 32 35 49 42 18 8 39 21 46 30 8 9 37 28 64
42 28 14 65 38 82 53 18 15 49 30 72 34 23 3 72 22 109 41 46 23 88 37 128 41
38 4 86 18 130 39 67 33 76 34 225 41 148 6 210 19 210 43 0 5 15 19 34 30 43
27 60 71 43 110 -6 16 -36 50 -66 76 l-54 47 -56 -9 c-76 -11 -201 -9 -414 7
-174 13 -179 14 -229 46 -38 25 -66 34 -117 39 -57 6 -71 12 -101 41 -24 23
-51 37 -83 43 -56 10 -96 41 -252 200 l-112 114 -56 5 c-54 4 -58 3 -93 -32z
m303 -416 c25 -22 44 -30 72 -30 30 0 49 -8 80 -34 32 -27 54 -36 98 -42 32
-4 80 -20 112 -37 46 -25 73 -31 153 -37 100 -8 128 -19 128 -51 0 -24 -35
-45 -89 -53 -25 -4 -62 -20 -85 -36 -22 -17 -51 -30 -64 -30 -29 0 -59 -15
-94 -47 -15 -15 -47 -29 -73 -34 -32 -6 -60 -20 -86 -44 -30 -26 -48 -35 -75
-35 -30 0 -43 -7 -73 -40 -40 -44 -84 -54 -99 -22 -5 9 -6 141 -3 293 6 284
10 309 48 309 9 0 31 -13 50 -30z"/>
</g>
</svg>
