<?xml version="1.0" standalone="no"?>
<!DOCTYPE svg PUBLIC "-//W3C//DTD SVG 20010904//EN"
 "http://www.w3.org/TR/2001/REC-SVG-20010904/DTD/svg10.dtd">
<svg version="1.0" xmlns="http://www.w3.org/2000/svg"
 width="384.000000pt" height="240.000000pt" viewBox="0 0 384.000000 240.000000"
 preserveAspectRatio="xMidYMid meet">
<metadata>
Created by potrace 1.16, written by Peter Selinger 2001-2019
</metadata>
<rect x="0" y="0" width="384" height="240" fill="#ffffff"/>
<g transform="translate(0.000000,240.000000) scale(0.100000,-0.100000)"
fill="#000000" stroke="none">
<path d="M1850 2160 c0 -154 -4 -248 -11 -263 -13 -28 -40 -43 -96 -52 -66
-11 -89 -25 -137 -81 -47 -53 -147 -234 -160 -286 -3 -15 -19 -42 -35 -60 -49
-57 -51 -66 -51 -261 0 -180 1 -185 25 -218 45 -63 56 -89 64 -159 5 -40 17
-82 28 -96 10 -15 27 -41 38 -59 11 -18 46 -58 77 -89 52 -51 62 -56 101 -56
53 0 127 -36 144 -71 9 -16 13 -84 13 -216 l0 -193 75 0 75 0 0 216 c0 118 4
223 10 233 5 10 28 36 52 59 24 22 58 56 75 74 18 18 46 47 63 63 16 17 32 46
35 65 12 71 16 80 42 104 23 21 27 35 34 113 4 48 8 156 8 239 l1 151 -59 61
-58 62 -82 0 c-118 0 -121 4 -118 169 2 89 7 134 16 145 18 22 79 20 116 -3
36 -22 170 -154 280 -275 44 -48 86 -94 93 -102 7 -8 30 -14 51 -14 41 0 59
-11 84 -52 16 -25 23 -28 72 -28 53 0 56 -1 80 -40 24 -39 27 -40 80 -40 52 0
56 -2 80 -38 l26 -39 226 -6 c124 -4 318 -7 430 -7 l203 0 0 70 0 69 -282 5
c-156 2 -348 10 -427 18 l-144 13 -25 38 c-23 35 -27 37 -78 37 -52 0 -55 1
-80 41 l-26 42 -56 -6 -57 -6 -95 101 c-319 339 -380 388 -489 388 -65 0 -84
25 -80 102 1 29 1 126 1 216 l-2 162 -75 0 -75 0 0 -240z m-19 -490 c17 -10
19 -23 19 -165 0 -166 -5 -190 -50 -242 -28 -31 -30 -40 -30 -108 0 -74 0 -75
41 -115 l41 -40 -4 -153 c-4 -187 -12 -207 -84 -207 -42 0 -49 4 -105 61 l-59
60 0 67 c-1 89 -12 132 -49 188 -29 45 -31 53 -31 144 0 90 2 100 29 141 35
53 50 111 51 196 0 61 0 62 58 122 54 56 60 60 105 60 27 1 57 -4 68 -9z m313
-563 c10 -7 18 -24 17 -38 0 -13 0 -53 -1 -88 -1 -58 -4 -66 -33 -92 -17 -16
-38 -44 -47 -61 -16 -36 -43 -47 -66 -28 -11 10 -13 34 -11 109 l3 97 49 57
c52 60 61 65 89 44z"/>
</g>
</svg>
