<?xml version="1.0" standalone="no"?>
<!DOCTYPE svg PUBLIC "-//W3C//DTD SVG 20010904//EN"
 "http://www.w3.org/TR/2001/REC-SVG-20010904/DTD/svg10.dtd">
<svg version="1.0" xmlns="http://www.w3.org/2000/svg"
 width="216.000000pt" height="480.000000pt" viewBox="0 0 216.000000 480.000000"
 preserveAspectRatio="xMidYMid meet">
<metadata>
Created by potrace 1.16, written by Peter Selinger 2001-2019
</metadata>
<rect x="0" y="0" width="216" height="480" fill="#ffffff"/>
<g transform="translate(0.000000,480.000000) scale(0.100000,-0.100000)"
fill="#000000" stroke="none">
<path d="M1035 2834 c-42 -18 -90 -28 -160 -34 -114 -10 -113 -10 -215 -57
-152 -71 -238 -120 -256 -148 -8 -13 -28 -28 -43 -35 -30 -12 -201 -180 -201
-197 0 -6 -15 -26 -34 -46 -24 -25 -36 -49 -40 -81 -7 -47 -33 -76 -68 -76
-17 0 -18 -13 -18 -160 0 -147 1 -160 18 -160 34 0 62 -30 69 -73 9 -62 103
-150 209 -197 73 -32 88 -35 202 -38 143 -5 156 -2 207 38 27 21 49 30 76 30
51 0 67 8 85 41 17 33 57 47 80 28 11 -9 15 -29 14 -73 -1 -34 -1 -406 -1
-828 l1 -768 120 0 120 0 0 623 c1 477 4 627 13 644 23 42 166 190 212 221 25
16 62 33 83 37 20 4 69 20 107 37 47 21 97 34 152 39 82 9 108 16 218 62 42
18 68 37 88 64 15 21 41 44 57 51 l30 12 0 144 0 144 -35 6 c-38 8 -49 24 -60
87 -3 20 -15 45 -27 55 -11 11 -31 42 -43 69 -45 100 -107 178 -239 300 -81
75 -127 107 -172 121 -24 7 -61 27 -82 44 -37 29 -44 31 -156 37 -107 6 -121
9 -159 34 -51 35 -75 35 -152 3z m231 -207 c12 -6 32 -20 46 -29 13 -10 48
-22 77 -28 30 -5 88 -29 129 -53 81 -45 233 -180 295 -262 21 -27 54 -64 73
-82 35 -33 43 -60 22 -81 -9 -9 -99 -12 -345 -12 l-334 0 -39 40 c-38 39 -41
40 -110 40 -69 0 -72 -1 -110 -40 l-39 -40 -374 0 c-277 0 -376 3 -385 12 -20
20 -14 48 19 81 17 17 43 48 57 70 14 22 77 84 139 138 85 74 123 100 151 105
20 3 55 20 77 37 32 26 56 34 123 44 63 9 95 19 129 42 l46 31 166 0 c113 0
173 -4 187 -13z m-593 -789 c24 -12 21 -45 -6 -62 -32 -21 -143 -46 -207 -46
-97 0 -193 34 -205 71 -12 38 9 44 173 49 163 6 215 4 245 -12z m1257 -6 c44
-36 3 -68 -108 -82 -42 -6 -117 -23 -167 -39 -49 -16 -106 -32 -126 -35 -20
-4 -54 -20 -74 -36 -21 -16 -53 -34 -72 -39 -19 -6 -57 -30 -83 -55 -27 -25
-54 -46 -59 -46 -6 0 -17 10 -25 23 -21 31 -21 272 0 305 l14 22 339 0 c308 0
341 -2 361 -18z"/>
</g>
</svg>
