<?xml version="1.0" standalone="no"?>
<!DOCTYPE svg PUBLIC "-//W3C//DTD SVG 20010904//EN"
 "http://www.w3.org/TR/2001/REC-SVG-20010904/DTD/svg10.dtd">
<svg version="1.0" xmlns="http://www.w3.org/2000/svg"
 width="224.000000pt" height="560.000000pt" viewBox="0 0 224.000000 560.000000"
 preserveAspectRatio="xMidYMid meet">
<metadata>
Created by potrace 1.16, written by Peter Selinger 2001-2019
</metadata>
<rect x="0" y="0" width="224" height="560" fill="#ffffff"/>
<g transform="translate(0.000000,560.000000) scale(0.100000,-0.100000)"
fill="#000000" stroke="none">
<path d="M1115 3634 c-42 -18 -90 -28 -160 -34 -114 -10 -113 -10 -215 -57
-152 -71 -238 -120 -256 -148 -8 -13 -28 -28 -43 -35 -33 -13 -201 -181 -201
-200 0 -7 -16 -27 -35 -44 -25 -23 -37 -45 -43 -77 -7 -34 -21 -57 -64 -101
-33 -35 -64 -58 -77 -58 -20 0 -21 -5 -21 -80 0 -75 1 -80 21 -80 32 0 128
-105 144 -157 19 -64 112 -149 212 -193 72 -32 87 -35 201 -38 143 -5 156 -2
207 38 27 21 49 30 76 30 51 0 67 8 85 41 17 33 57 47 80 28 11 -9 15 -29 14
-73 -1 -34 -1 -586 -1 -1228 l1 -1168 80 0 80 0 0 903 c0 848 1 905 18 919 9
8 25 18 35 21 26 10 39 54 31 114 -9 72 0 97 40 121 25 15 38 32 46 60 7 29
27 56 71 96 66 62 96 80 149 91 19 4 67 21 105 38 47 20 97 33 152 38 82 9
107 16 218 62 45 19 67 36 88 67 19 27 39 43 58 47 l29 6 0 147 0 148 -35 6
c-38 8 -49 24 -60 87 -3 20 -15 45 -27 55 -11 11 -31 42 -43 69 -45 100 -107
178 -239 300 -81 75 -127 107 -172 121 -24 7 -61 27 -82 44 -37 29 -44 31
-156 37 -107 6 -121 9 -159 34 -51 35 -75 35 -152 3z m231 -207 c12 -6 32 -20
46 -29 13 -10 48 -22 77 -28 30 -5 88 -29 129 -53 81 -45 233 -180 295 -262
21 -27 54 -64 73 -82 35 -33 43 -60 22 -81 -9 -9 -99 -12 -345 -12 l-334 0
-39 40 c-38 39 -41 40 -110 40 -69 0 -72 -1 -110 -40 l-39 -40 -374 0 c-277 0
-376 3 -385 12 -20 20 -14 48 19 81 17 17 43 48 57 70 14 22 77 84 139 138 85
74 123 100 151 105 20 3 55 20 77 37 32 26 56 34 123 44 63 9 95 19 129 42
l46 31 166 0 c113 0 173 -4 187 -13z m-478 -719 c7 -7 12 -19 12 -27 0 -19
-29 -51 -48 -51 -7 0 -39 -16 -70 -35 -82 -50 -199 -74 -284 -56 -57 11 -171
68 -220 109 -21 17 -23 43 -6 60 17 17 599 17 616 0z m1204 -13 c26 -58 -51
-119 -174 -139 -46 -8 -117 -27 -159 -44 -42 -16 -97 -32 -122 -36 -27 -4 -60
-19 -82 -36 -21 -17 -53 -34 -72 -39 -19 -6 -57 -30 -83 -55 -27 -25 -54 -46
-59 -46 -6 0 -17 10 -26 23 -23 35 -21 354 2 379 15 17 44 18 390 18 l374 -1
11 -24z"/>
</g>
</svg>
