<?xml version="1.0" standalone="no"?>
<!DOCTYPE svg PUBLIC "-//W3C//DTD SVG 20010904//EN"
 "http://www.w3.org/TR/2001/REC-SVG-20010904/DTD/svg10.dtd">
<svg version="1.0" xmlns="http://www.w3.org/2000/svg"
 width="408.000000pt" height="408.000000pt" viewBox="0 0 408.000000 408.000000"
 preserveAspectRatio="xMidYMid meet">
<metadata>
Created by potrace 1.16, written by Peter Selinger 2001-2019
</metadata>
<rect x="0" y="0" width="408" height="408" fill="#ffffff"/>
<g transform="translate(0.000000,408.000000) scale(0.100000,-0.100000)"
fill="#000000" stroke="none">
<path d="M1493 4051 c-23 -22 -51 -33 -110 -45 -43 -9 -105 -25 -138 -37 -33
-11 -94 -31 -136 -43 -42 -13 -91 -34 -110 -48 -19 -14 -58 -33 -86 -43 -29
-9 -56 -21 -59 -27 -4 -6 -34 -23 -68 -38 -34 -15 -70 -38 -81 -50 -11 -12
-38 -31 -60 -42 -60 -31 -94 -60 -243 -208 -99 -98 -141 -149 -157 -185 -13
-27 -32 -59 -44 -69 -30 -27 -107 -189 -126 -265 -15 -62 -47 -121 -66 -121
-5 0 -9 -85 -9 -206 l0 -207 34 -37 c24 -27 38 -55 46 -94 6 -30 22 -71 36
-91 13 -20 33 -53 43 -73 38 -74 233 -266 354 -349 18 -12 46 -33 64 -47 17
-15 51 -35 75 -46 25 -11 56 -29 71 -40 14 -11 50 -29 79 -39 30 -10 76 -30
103 -44 28 -14 71 -30 95 -37 25 -6 64 -23 88 -36 23 -14 82 -34 131 -44 49
-11 110 -29 137 -40 26 -12 115 -32 197 -46 82 -14 165 -31 184 -39 20 -8 59
-15 88 -15 68 0 82 -6 100 -41 19 -36 20 -168 1 -213 -19 -45 -30 -51 -106
-48 -36 1 -101 -7 -145 -17 -44 -11 -101 -22 -126 -26 -29 -4 -65 -20 -95 -41
-26 -19 -53 -34 -59 -34 -23 0 -106 -83 -133 -132 -15 -27 -35 -64 -45 -81
-16 -27 -18 -50 -15 -154 3 -108 6 -126 26 -150 12 -16 31 -44 41 -63 27 -49
107 -124 161 -150 25 -12 52 -28 60 -35 8 -8 52 -23 98 -34 79 -20 142 -51
142 -72 0 -5 105 -9 258 -9 250 0 258 1 270 21 17 26 82 55 147 64 49 7 248
95 261 116 3 6 25 22 49 37 52 33 147 137 176 195 12 23 30 53 40 67 53 71 43
386 -13 436 -11 11 -28 37 -38 59 -20 46 -133 164 -194 202 -22 14 -51 36 -63
48 -12 12 -42 27 -65 34 -24 7 -60 23 -80 37 -21 13 -59 29 -85 35 -128 30
-216 62 -245 88 l-31 28 1 212 c1 290 -3 286 218 282 99 -1 161 3 208 13 37 9
97 16 134 16 136 0 297 20 402 51 58 16 139 34 180 40 50 7 92 20 126 40 28
15 74 33 103 40 28 6 65 22 80 35 16 13 48 31 71 39 23 8 58 28 76 45 19 16
47 36 62 44 68 35 200 210 222 295 7 27 26 59 46 79 l34 34 0 219 c0 177 -3
219 -13 219 -22 0 -46 33 -67 94 -23 67 -60 131 -110 188 -19 23 -44 56 -56
75 -20 34 -71 79 -174 152 -31 21 -61 46 -68 54 -7 8 -27 21 -45 28 -18 6 -47
23 -65 36 -18 14 -54 32 -80 40 -26 9 -65 29 -87 44 -22 15 -67 35 -101 43
-33 9 -82 25 -109 37 -26 11 -88 28 -139 36 -99 16 -173 43 -182 67 -5 14 -76
16 -633 16 l-626 -1 -32 -28z m1097 -315 c25 -13 72 -37 106 -54 80 -39 246
-200 264 -258 7 -21 24 -56 38 -77 20 -30 26 -53 29 -115 4 -74 3 -81 -37
-162 -44 -89 -109 -164 -170 -195 -19 -10 -48 -28 -65 -40 -28 -20 -51 -30
-203 -86 -30 -11 -115 -28 -190 -39 -75 -11 -153 -22 -173 -26 -44 -8 -76 8
-90 43 -17 46 7 67 92 80 50 7 102 24 161 53 72 35 94 52 131 99 65 83 71 98
71 181 1 69 -2 80 -38 140 -32 55 -82 105 -140 142 -54 34 -165 68 -271 83
-101 14 -136 15 -225 5 -59 -7 -132 -22 -165 -35 -33 -12 -86 -28 -117 -35
-39 -7 -71 -22 -97 -44 -21 -18 -53 -39 -70 -46 -27 -11 -50 -36 -128 -141
-32 -45 -63 -146 -63 -210 0 -83 42 -192 96 -253 24 -26 44 -51 44 -55 0 -15
147 -119 186 -131 21 -7 54 -23 71 -37 20 -15 68 -31 125 -44 111 -24 172 -50
187 -77 16 -29 14 -94 -3 -118 -8 -12 -35 -29 -60 -38 -36 -14 -52 -28 -81
-74 -45 -72 -45 -109 -3 -179 23 -38 44 -58 75 -73 27 -12 47 -30 53 -46 13
-33 13 -380 0 -404 -13 -25 -61 -34 -118 -22 -26 6 -117 25 -202 42 -85 18
-200 47 -255 65 -55 18 -122 38 -150 45 -27 7 -75 26 -105 41 -31 15 -74 32
-96 38 -23 6 -58 23 -79 37 -21 14 -62 36 -91 49 -28 12 -55 28 -59 34 -4 7
-31 23 -61 36 -30 13 -57 31 -60 39 -3 9 -22 26 -42 38 -21 12 -51 36 -68 53
-17 16 -56 53 -85 82 -67 64 -139 148 -139 161 0 5 -16 32 -35 60 -19 28 -37
63 -40 79 -4 15 -16 56 -27 90 -16 51 -19 82 -15 170 4 117 40 266 76 313 10
14 28 44 40 67 43 85 280 337 351 373 19 10 43 27 54 39 10 11 44 30 74 41 30
12 68 32 84 45 16 14 52 31 81 40 29 8 77 28 107 44 30 16 75 32 100 36 25 4
76 20 115 35 38 16 117 35 175 44 58 9 137 25 175 36 116 31 195 37 560 38
l351 2 44 -24z m528 -110 c31 -13 73 -27 92 -31 34 -7 185 -85 246 -128 18
-12 45 -30 60 -39 101 -61 192 -160 244 -263 17 -33 40 -75 52 -94 41 -64 35
-294 -8 -342 -8 -9 -25 -44 -39 -78 -20 -52 -39 -77 -116 -151 -64 -62 -106
-94 -136 -104 -23 -8 -57 -26 -75 -39 -18 -14 -60 -32 -93 -42 -33 -9 -78 -27
-100 -40 -22 -13 -69 -29 -105 -35 -36 -6 -103 -24 -150 -39 -114 -38 -300
-56 -565 -56 -180 0 -217 3 -258 18 -26 10 -51 26 -56 35 -17 32 -24 141 -11
172 16 39 20 40 380 106 53 10 98 25 120 39 20 14 62 33 94 44 32 10 70 30 84
44 15 14 44 32 64 41 23 9 84 62 152 130 95 95 118 124 130 163 8 27 24 70 36
97 20 44 22 61 18 175 -4 115 -7 133 -37 201 -18 41 -42 86 -55 100 -26 29
-76 113 -76 129 0 18 47 12 108 -13z m-922 -309 c45 -20 86 -37 92 -37 17 0
102 -111 102 -134 0 -34 -52 -88 -129 -134 -120 -72 -171 -54 -171 61 0 90
-17 112 -102 137 -111 34 -129 34 -204 9 -84 -28 -103 -47 -128 -121 -19 -57
-19 -59 0 -115 10 -32 30 -70 44 -85 31 -33 135 -88 167 -88 13 0 39 -7 58
-14 29 -13 35 -20 35 -45 0 -44 -36 -65 -98 -58 -144 18 -239 38 -262 57 -14
11 -46 31 -72 45 -56 30 -81 60 -108 131 -28 75 -25 120 10 190 23 47 43 69
97 108 37 27 99 60 138 74 38 13 93 33 120 44 42 16 71 18 190 15 137 -3 142
-4 221 -40z m-268 -253 c30 -21 29 -59 -3 -80 -23 -15 -27 -15 -50 0 -42 28
-28 94 20 96 6 0 21 -7 33 -16z m380 -1849 c59 -20 119 -44 133 -55 15 -10 42
-25 60 -33 53 -22 214 -186 229 -233 7 -21 22 -52 32 -67 37 -53 35 -94 -12
-182 -48 -92 -88 -138 -145 -167 -22 -11 -51 -31 -65 -44 -14 -13 -52 -30 -85
-38 -33 -9 -94 -27 -135 -42 -110 -38 -150 -42 -380 -33 l-209 8 -103 49
c-166 79 -215 148 -174 246 26 63 149 166 198 166 39 0 38 -37 -2 -75 -32 -30
-50 -78 -50 -132 0 -25 12 -46 48 -87 26 -30 54 -65 63 -78 17 -23 19 -23 205
-23 215 0 240 5 333 67 86 58 132 132 134 215 1 51 -3 65 -38 122 -22 35 -53
72 -70 82 -56 34 -137 94 -150 112 -10 14 -12 45 -8 120 8 154 18 159 191 102z
m-97 -445 c30 -16 52 -68 46 -108 -9 -55 -31 -78 -119 -123 -76 -39 -89 -43
-155 -42 -161 2 -280 85 -198 139 35 23 126 15 163 -14 48 -38 83 -54 108 -48
32 8 74 74 85 132 13 69 30 85 70 64z"/>
</g>
</svg>
