<?xml version="1.0" standalone="no"?>
<!DOCTYPE svg PUBLIC "-//W3C//DTD SVG 20010904//EN"
 "http://www.w3.org/TR/2001/REC-SVG-20010904/DTD/svg10.dtd">
<svg version="1.0" xmlns="http://www.w3.org/2000/svg"
 width="408.000000pt" height="576.000000pt" viewBox="0 0 408.000000 576.000000"
 preserveAspectRatio="xMidYMid meet">
<metadata>
Created by potrace 1.16, written by Peter Selinger 2001-2019
</metadata>
<rect x="0" y="0" width="408" height="576" fill="#ffffff"/>
<g transform="translate(0.000000,576.000000) scale(0.100000,-0.100000)"
fill="#000000" stroke="none">
<path d="M1963 5700 c-23 -10 -75 -22 -115 -25 -83 -7 -288 -41 -333 -55 -16
-5 -62 -14 -100 -19 -39 -6 -100 -24 -136 -40 -35 -16 -91 -34 -123 -40 -33
-6 -80 -24 -105 -40 -25 -16 -70 -34 -98 -41 -29 -6 -70 -24 -91 -40 -21 -15
-58 -37 -83 -49 -24 -11 -58 -31 -76 -44 -18 -12 -47 -32 -65 -44 -18 -12 -56
-38 -85 -58 -108 -73 -314 -299 -374 -408 -46 -85 -93 -199 -109 -267 -15 -63
-26 -90 -45 -105 -24 -20 -25 -24 -25 -152 0 -109 3 -133 16 -144 22 -18 52
-90 66 -154 5 -27 22 -70 36 -95 15 -25 34 -61 43 -81 20 -43 286 -320 337
-350 21 -12 49 -33 63 -46 33 -31 119 -84 196 -124 34 -17 67 -37 73 -45 7 -7
40 -22 75 -34 34 -11 71 -30 81 -41 9 -11 43 -27 73 -35 31 -9 75 -28 99 -42
24 -13 72 -31 108 -38 35 -8 87 -25 114 -39 27 -14 82 -32 122 -40 40 -9 114
-29 164 -45 50 -16 130 -34 178 -40 106 -13 113 -16 131 -51 24 -46 12 -222
-16 -240 -8 -5 -57 -9 -111 -9 -114 0 -276 -30 -316 -59 -15 -11 -51 -28 -79
-39 -85 -32 -147 -104 -194 -222 -21 -54 -39 -110 -39 -124 0 -13 14 -58 30
-99 17 -42 30 -79 30 -84 0 -17 70 -92 108 -114 20 -12 48 -32 62 -44 14 -12
45 -29 70 -38 25 -9 73 -27 106 -41 50 -21 88 -28 210 -36 82 -5 179 -12 215
-14 40 -3 91 -15 127 -30 34 -14 90 -30 125 -35 38 -5 85 -21 118 -39 30 -17
73 -33 96 -37 23 -3 63 -20 88 -36 26 -17 69 -38 95 -48 26 -10 63 -30 82 -45
19 -14 39 -26 45 -26 5 0 36 -21 69 -47 133 -107 204 -216 212 -324 4 -60 1
-72 -39 -162 -37 -83 -55 -109 -124 -181 -45 -46 -97 -92 -116 -101 -19 -10
-45 -28 -59 -40 -14 -13 -48 -30 -75 -38 -28 -8 -67 -26 -86 -39 -22 -15 -65
-29 -110 -37 -41 -7 -124 -26 -186 -42 -138 -36 -155 -36 -194 -1 -29 26 -32
34 -33 89 -1 76 18 103 75 103 67 0 142 21 219 63 97 52 152 105 187 181 38
82 39 194 4 274 -30 67 -164 194 -231 219 -25 9 -72 27 -105 40 -176 69 -694
68 -895 -2 -41 -14 -102 -33 -135 -41 -33 -9 -81 -29 -106 -45 -25 -16 -61
-34 -80 -40 -41 -14 -84 -53 -154 -140 -45 -56 -57 -79 -79 -161 -14 -53 -26
-109 -26 -124 0 -52 48 -227 69 -253 12 -14 29 -42 40 -61 30 -55 182 -192
241 -217 19 -8 55 -28 80 -43 25 -16 72 -35 105 -44 33 -9 84 -25 114 -36 63
-25 332 -55 403 -45 61 7 115 -14 124 -49 6 -25 9 -26 83 -26 73 0 79 2 89 24
17 38 50 54 132 65 41 6 109 22 150 36 41 14 100 31 130 36 31 6 73 23 95 39
22 15 60 33 83 39 23 7 57 25 75 40 17 16 48 35 67 44 49 21 226 191 268 257
19 30 46 66 58 79 13 13 26 40 29 60 3 20 18 68 33 106 40 106 41 182 4 275
-17 41 -33 87 -37 101 -18 73 -206 245 -347 317 -31 16 -69 38 -85 49 -15 11
-45 26 -67 33 -21 7 -63 25 -93 41 -30 16 -66 29 -78 29 -13 0 -36 10 -51 23
-23 20 -25 26 -15 45 7 13 25 24 49 28 20 3 57 18 82 33 25 14 58 32 74 39 57
25 189 151 222 212 13 25 33 56 44 70 48 60 49 346 1 410 -10 14 -28 43 -39
65 -23 46 -172 194 -218 218 -17 9 -36 23 -43 31 -30 36 -189 100 -355 142
-131 32 -175 48 -188 64 -16 20 -18 46 -18 226 0 207 8 259 41 280 7 4 119 7
249 5 179 -2 256 1 325 14 50 8 124 18 165 21 79 6 292 49 322 65 9 5 53 15
96 23 48 8 100 26 133 44 30 17 73 33 97 37 27 4 57 19 77 36 18 16 48 35 67
41 77 27 244 181 287 267 11 20 27 43 35 51 9 7 26 46 38 87 13 47 32 86 50
105 l28 30 0 162 c0 162 0 163 -24 176 -26 13 -49 60 -60 121 -4 21 -15 48
-25 60 -10 13 -30 47 -44 74 -24 48 -250 285 -293 308 -11 5 -30 20 -44 33
-14 13 -46 32 -71 43 -25 11 -53 29 -63 40 -10 11 -39 27 -65 36 -25 8 -66 26
-90 40 -24 14 -80 34 -124 46 -45 11 -99 31 -121 44 -27 16 -75 29 -141 39
-55 8 -120 22 -145 31 -61 23 -165 33 -430 44 -157 7 -238 15 -269 25 -53 19
-55 19 -108 -4z m547 -351 c63 -5 143 -19 177 -29 34 -11 111 -26 170 -34 65
-9 140 -28 188 -46 43 -17 101 -36 127 -41 26 -6 64 -22 85 -36 21 -14 55 -31
75 -39 134 -47 373 -251 433 -369 14 -27 35 -66 48 -85 20 -32 22 -47 22 -180
l0 -145 -32 -50 c-17 -28 -38 -66 -46 -85 -15 -37 -182 -210 -203 -210 -6 0
-36 -16 -65 -36 -29 -20 -77 -43 -107 -51 -30 -8 -71 -25 -91 -39 -21 -13 -71
-31 -112 -39 -41 -8 -109 -26 -152 -40 -116 -37 -395 -68 -627 -68 -167 0
-283 12 -303 32 -8 9 -12 58 -12 176 0 163 0 165 26 190 28 28 76 35 404 55
172 11 266 22 315 38 19 6 71 16 115 22 59 8 90 19 120 39 22 16 56 35 75 43
24 10 49 35 76 76 34 50 43 73 49 127 6 60 4 69 -21 112 -45 78 -104 133 -179
170 -38 18 -81 40 -95 48 -14 8 -57 19 -95 25 -39 6 -119 25 -180 41 -93 25
-140 32 -300 40 -218 11 -229 13 -255 39 -24 24 -26 68 -5 147 8 31 15 77 15
100 0 24 7 59 14 78 l15 35 108 0 c59 0 160 -5 223 -11z m-652 -10 c39 -14 49
-41 62 -169 6 -58 13 -118 16 -135 9 -53 -11 -67 -124 -81 -56 -7 -126 -24
-159 -37 -32 -14 -83 -30 -113 -36 -30 -6 -73 -24 -95 -40 -22 -15 -57 -34
-78 -41 -66 -21 -207 -157 -239 -230 -10 -25 -30 -67 -43 -95 -21 -43 -25 -68
-27 -172 -3 -115 -2 -124 24 -175 15 -29 37 -73 48 -98 42 -95 162 -216 260
-261 25 -12 57 -33 72 -47 16 -15 55 -32 95 -43 37 -10 95 -29 129 -43 36 -15
98 -30 153 -36 51 -6 101 -15 111 -20 32 -17 39 -66 41 -286 1 -258 4 -250
-99 -246 -38 1 -93 9 -123 17 -29 8 -92 25 -139 36 -236 57 -531 163 -617 221
-21 14 -61 33 -90 42 -28 10 -57 24 -65 33 -7 9 -33 24 -58 35 -25 11 -58 32
-75 47 -16 16 -38 32 -47 37 -21 11 -82 63 -151 129 -47 44 -80 80 -162 175
-22 26 -73 112 -104 175 -12 24 -24 83 -31 150 -17 159 2 265 71 389 57 103
98 164 149 223 44 50 217 203 230 203 5 0 27 16 49 35 21 19 57 42 80 50 23 8
56 25 74 38 17 14 50 30 72 37 22 7 69 27 105 45 36 18 82 35 104 39 21 4 73
21 115 37 42 17 122 36 181 45 58 8 146 26 195 39 99 26 156 31 203 14z m715
-640 c34 -6 96 -19 137 -29 41 -10 102 -21 135 -25 93 -9 136 -24 172 -60 32
-32 41 -67 25 -91 -4 -6 -28 -28 -54 -47 -139 -106 -745 -167 -858 -87 -46 33
-52 59 -44 199 10 175 -3 166 236 158 105 -4 218 -12 251 -18z m-634 -14 c12
-11 18 -45 22 -123 8 -121 1 -143 -54 -166 -17 -7 -39 -22 -49 -32 -29 -33
-51 -101 -44 -138 10 -52 61 -114 110 -136 24 -10 47 -26 51 -37 4 -10 7 -72
6 -138 -1 -108 -4 -122 -22 -137 -25 -21 -62 -16 -139 19 -30 14 -81 31 -113
39 -32 8 -73 25 -91 39 -18 13 -48 31 -68 39 -62 26 -160 119 -213 203 -46 72
-50 84 -53 149 -5 91 9 122 100 219 79 85 163 136 258 159 36 8 99 27 140 40
80 27 133 27 159 1z m281 -1881 c41 -8 91 -25 110 -38 20 -13 60 -31 91 -39
30 -9 64 -26 75 -38 10 -12 37 -32 60 -45 68 -40 152 -145 185 -230 16 -41 29
-83 29 -92 0 -9 -12 -53 -26 -97 -24 -73 -33 -86 -99 -150 -101 -98 -153 -132
-264 -170 -153 -52 -229 -65 -396 -66 -163 -1 -250 14 -372 64 -116 47 -215
159 -215 242 0 47 57 153 93 173 17 9 47 29 66 44 40 31 90 48 143 48 19 0 52
9 73 20 51 27 144 23 155 -8 2 -8 -11 -12 -45 -12 -70 0 -106 -13 -151 -55
-22 -20 -56 -51 -74 -68 -26 -24 -37 -43 -42 -78 -9 -59 1 -82 61 -146 38 -41
61 -56 113 -73 101 -33 170 -35 289 -10 57 11 114 26 125 32 44 23 107 84 141
135 32 48 35 59 35 126 0 73 0 75 -50 141 -28 36 -55 66 -60 66 -5 0 -24 13
-43 30 -19 16 -53 34 -78 39 -56 13 -69 31 -71 105 -4 116 -2 138 17 153 24
17 33 16 125 -3z m-25 -450 c50 -61 58 -117 22 -160 -37 -43 -155 -95 -231
-101 -80 -7 -168 12 -206 44 -50 42 -39 83 31 118 59 30 78 31 129 5 43 -22
91 -26 121 -10 15 9 19 22 19 68 0 64 11 82 51 82 19 0 37 -12 64 -46z m-186
-1089 c58 -8 138 -27 176 -41 39 -15 83 -31 99 -37 50 -18 149 -110 175 -161
29 -60 26 -130 -10 -180 -44 -62 -117 -113 -188 -132 -36 -9 -79 -24 -94 -31
-30 -15 -57 -11 -57 7 0 6 31 44 69 84 90 95 98 128 53 224 -21 46 -150 122
-207 122 -22 1 -60 5 -85 10 -31 6 -71 4 -129 -6 -108 -18 -191 -69 -248 -151
-35 -51 -38 -61 -38 -123 0 -63 3 -71 41 -126 23 -32 57 -69 75 -81 19 -12 48
-33 66 -46 22 -16 62 -29 135 -41 57 -10 111 -25 121 -34 25 -22 23 -101 -4
-136 -27 -35 -70 -56 -112 -56 -36 0 -211 34 -249 49 -13 5 -57 14 -98 20 -41
7 -94 23 -117 36 -23 12 -65 31 -93 40 -28 9 -63 27 -78 39 -15 12 -44 32 -64
45 -52 31 -107 97 -147 175 -30 59 -33 72 -29 128 6 77 55 166 121 216 72 56
159 103 212 113 27 6 91 23 140 39 86 28 168 37 424 48 18 1 81 -5 140 -13z
m131 -330 c14 -17 5 -51 -15 -59 -19 -7 -48 35 -39 58 8 20 37 21 54 1z m-382
-7 c7 -7 12 -31 12 -55 0 -42 25 -83 50 -83 14 0 31 -37 24 -54 -11 -29 -59
-18 -114 26 -61 49 -75 77 -60 124 16 48 61 69 88 42z m202 -63 c15 -18 5 -35
-20 -35 -10 0 -22 5 -25 10 -7 11 12 40 25 40 4 0 13 -7 20 -15z"/>
</g>
</svg>
