<?xml version="1.0" standalone="no"?>
<!DOCTYPE svg PUBLIC "-//W3C//DTD SVG 20010904//EN"
 "http://www.w3.org/TR/2001/REC-SVG-20010904/DTD/svg10.dtd">
<svg version="1.0" xmlns="http://www.w3.org/2000/svg"
 width="408.000000pt" height="576.000000pt" viewBox="0 0 408.000000 576.000000"
 preserveAspectRatio="xMidYMid meet">
<metadata>
Created by potrace 1.16, written by Peter Selinger 2001-2019
</metadata>
<rect x="0" y="0" width="408" height="576" fill="#ffffff"/>
<g transform="translate(0.000000,576.000000) scale(0.100000,-0.100000)"
fill="#000000" stroke="none">
<path d="M1957 5706 c-29 -18 -64 -26 -155 -35 -64 -6 -146 -18 -182 -26 -36
-8 -103 -21 -150 -30 -47 -9 -119 -28 -160 -41 -41 -14 -109 -36 -150 -48 -42
-12 -94 -32 -115 -44 -22 -12 -67 -31 -99 -42 -33 -11 -73 -31 -91 -44 -17
-13 -49 -32 -70 -41 -22 -9 -49 -24 -60 -34 -11 -10 -38 -28 -61 -39 -22 -11
-46 -28 -54 -37 -8 -9 -32 -26 -54 -37 -46 -23 -290 -267 -313 -313 -9 -16
-28 -46 -43 -65 -15 -19 -36 -53 -47 -75 -11 -22 -30 -58 -41 -80 -12 -22 -29
-76 -38 -119 -12 -62 -23 -86 -45 -109 l-29 -29 0 -153 c0 -115 3 -156 13
-162 30 -19 56 -67 67 -128 7 -36 23 -82 36 -101 13 -19 33 -52 43 -73 11 -20
27 -44 36 -51 9 -8 32 -37 50 -65 32 -50 108 -124 205 -200 28 -22 70 -56 93
-76 23 -20 61 -46 84 -58 23 -11 45 -26 48 -31 4 -6 32 -22 63 -36 32 -14 68
-36 82 -48 14 -13 43 -29 65 -36 22 -7 70 -28 107 -46 37 -19 74 -34 81 -34 8
0 41 -14 73 -31 32 -18 85 -38 116 -45 32 -8 79 -25 105 -39 27 -13 83 -31
125 -39 43 -8 120 -29 172 -45 51 -17 132 -35 180 -41 106 -13 113 -16 131
-51 19 -36 21 -198 3 -221 -9 -11 -38 -17 -98 -22 -47 -3 -98 -8 -115 -10 -16
-3 -55 -7 -85 -11 -68 -7 -117 -22 -151 -46 -14 -10 -48 -26 -76 -37 -82 -31
-153 -109 -197 -215 -46 -112 -48 -165 -6 -244 16 -31 30 -62 30 -70 0 -15 83
-101 146 -150 22 -17 63 -38 90 -47 27 -8 77 -26 111 -40 44 -19 87 -28 155
-32 51 -3 105 -10 120 -16 31 -11 53 -54 62 -119 15 -105 -26 -131 -202 -128
-119 2 -241 -12 -322 -37 -25 -8 -80 -18 -124 -24 -55 -7 -94 -19 -130 -39
-28 -16 -71 -34 -95 -41 -60 -16 -166 -99 -228 -180 -44 -58 -55 -82 -79 -170
-21 -83 -26 -116 -21 -169 7 -76 48 -205 76 -235 10 -12 27 -37 36 -56 23 -45
110 -132 155 -155 19 -9 46 -28 60 -41 14 -13 45 -30 70 -39 25 -9 61 -27 80
-40 19 -13 69 -31 112 -40 43 -9 96 -22 118 -30 49 -17 252 -45 330 -45 63 0
94 -17 104 -55 l7 -26 115 3 116 3 12 35 c12 39 45 60 94 60 18 0 58 9 90 20
31 12 99 30 149 40 54 11 108 30 130 44 21 13 57 29 80 36 23 6 55 22 72 35
16 14 45 32 65 40 19 8 50 28 68 43 18 15 48 37 66 48 33 21 152 148 152 164
0 4 16 27 35 50 19 23 35 47 35 54 0 6 15 43 33 81 48 101 63 218 42 323 -9
42 -23 87 -31 99 -8 12 -23 46 -34 75 -15 40 -43 77 -112 149 -51 53 -111 105
-133 117 -22 11 -51 32 -64 46 -13 14 -40 31 -60 37 -20 7 -53 23 -73 36 -20
14 -67 33 -105 42 -75 19 -113 37 -113 51 0 21 65 81 113 104 63 30 199 164
257 252 35 54 41 71 48 145 5 46 5 123 2 171 -5 76 -10 93 -37 130 -17 24 -34
54 -38 68 -11 35 -139 166 -202 206 -28 19 -54 38 -57 43 -18 29 -193 97 -350
137 -131 32 -175 48 -188 64 -16 20 -18 46 -18 234 0 193 2 214 20 244 11 17
25 32 32 33 7 0 117 0 243 -1 172 -1 253 3 320 15 50 8 124 18 165 21 88 7
203 29 280 56 30 10 86 23 124 29 43 6 88 20 120 38 28 16 71 34 96 41 25 6
63 24 85 39 22 16 57 34 78 41 21 7 53 24 70 39 18 15 46 36 63 47 81 50 234
271 234 337 1 36 37 105 59 112 20 6 21 13 21 159 l0 152 -29 28 c-18 18 -35
50 -46 89 -34 120 -94 212 -223 341 -66 65 -128 123 -138 129 -10 5 -32 22
-49 38 -16 15 -51 37 -76 48 -25 11 -53 29 -63 40 -10 11 -39 27 -65 36 -25 8
-66 26 -90 40 -24 14 -80 34 -124 46 -45 11 -99 31 -121 44 -27 16 -75 29
-141 39 -55 8 -120 22 -145 31 -61 23 -163 33 -432 45 -187 8 -237 14 -280 30
-29 11 -55 20 -58 20 -3 0 -22 -11 -43 -24z m553 -357 c63 -5 142 -19 176 -29
33 -10 109 -26 170 -35 60 -10 150 -32 199 -50 50 -18 106 -35 126 -39 21 -4
54 -18 75 -33 22 -14 59 -33 84 -41 25 -8 56 -25 70 -37 14 -13 45 -33 69 -45
65 -32 256 -227 287 -292 14 -29 35 -71 47 -93 19 -35 22 -56 22 -165 l0 -125
-52 -101 c-58 -112 -152 -218 -226 -256 -23 -11 -58 -34 -78 -50 -20 -16 -62
-36 -94 -44 -31 -8 -74 -26 -94 -40 -21 -13 -71 -31 -112 -39 -41 -8 -109 -26
-152 -40 -116 -37 -395 -68 -627 -68 -199 0 -286 11 -311 42 -21 26 -22 38 -9
210 12 166 14 168 171 182 63 5 182 14 264 19 167 11 260 22 320 38 22 6 75
18 119 26 43 9 86 22 95 30 9 8 41 26 72 39 48 22 59 33 95 93 56 94 63 147
30 219 -36 79 -106 150 -173 175 -31 11 -74 31 -97 44 -22 13 -70 29 -106 36
-36 6 -114 25 -175 41 -93 25 -140 32 -300 40 -104 5 -207 14 -228 20 -55 15
-60 36 -36 169 10 62 19 124 19 139 0 15 7 37 16 49 14 20 23 22 122 22 59 0
159 -5 222 -11z m-652 -10 c40 -14 50 -42 62 -174 5 -60 12 -121 15 -135 11
-47 -12 -62 -123 -76 -56 -7 -126 -24 -159 -37 -32 -14 -83 -30 -113 -36 -30
-6 -73 -25 -95 -40 -22 -16 -59 -34 -82 -40 -59 -16 -228 -185 -244 -245 -6
-22 -21 -59 -34 -81 -33 -57 -48 -169 -35 -253 13 -78 74 -211 125 -273 20
-23 40 -50 45 -60 5 -9 27 -27 47 -40 21 -12 53 -35 71 -51 18 -15 49 -35 68
-43 20 -8 49 -26 65 -39 15 -13 51 -29 79 -35 28 -6 64 -18 81 -26 49 -26 150
-53 223 -60 83 -8 110 -19 124 -51 12 -26 18 -456 7 -474 -22 -36 -144 -30
-287 15 -44 14 -112 30 -150 35 -39 6 -100 23 -137 39 -36 16 -84 32 -106 35
-55 10 -437 185 -451 208 -3 5 -27 19 -53 29 -25 11 -59 33 -76 48 -16 16 -38
32 -47 37 -28 15 -95 75 -191 171 -115 115 -161 170 -174 208 -6 17 -22 47
-36 68 -29 42 -43 97 -52 207 -9 96 16 269 45 313 11 18 32 57 46 86 25 55 39
73 123 174 52 61 190 188 241 221 19 13 41 30 49 39 7 9 38 26 69 37 31 12 66
32 78 45 12 13 41 29 65 35 24 6 76 26 114 45 39 18 88 37 110 40 22 4 69 19
105 35 43 19 105 34 180 45 63 9 140 23 170 32 117 34 186 40 238 22z m715
-640 c34 -6 87 -18 117 -26 48 -12 108 -22 225 -39 17 -2 53 -21 80 -42 38
-29 51 -45 53 -68 3 -27 -4 -36 -53 -72 -58 -44 -105 -59 -320 -103 -139 -29
-461 -32 -517 -5 -70 34 -73 41 -73 203 0 133 2 146 20 160 17 13 49 14 213 9
106 -3 221 -11 255 -17z m-634 -14 c19 -19 34 -218 19 -248 -5 -10 -29 -27
-53 -37 -37 -16 -49 -28 -76 -81 -28 -56 -30 -66 -20 -99 15 -50 74 -116 116
-130 47 -15 58 -41 60 -130 1 -41 5 -91 9 -110 17 -83 -60 -107 -172 -54 -31
14 -86 32 -121 40 -40 8 -74 23 -90 38 -14 13 -45 33 -68 44 -59 28 -149 108
-192 171 -71 105 -72 109 -69 202 3 79 5 89 33 121 17 19 44 54 61 79 42 61
184 138 314 169 52 13 109 29 125 37 37 16 102 10 124 -12z m295 -1884 c33 -6
76 -22 97 -35 21 -14 58 -31 83 -37 26 -6 56 -22 69 -36 12 -13 42 -35 67 -47
67 -35 154 -140 186 -223 39 -102 39 -105 5 -200 -27 -74 -41 -97 -89 -146
-31 -32 -75 -68 -97 -79 -22 -11 -51 -31 -65 -44 -16 -14 -50 -29 -90 -37 -36
-7 -77 -21 -91 -31 -73 -47 -405 -63 -556 -27 -178 42 -290 116 -337 221 -14
32 -26 64 -26 71 0 44 86 179 114 179 5 0 32 16 60 35 41 28 66 37 123 44 39
5 82 16 95 25 34 24 136 16 146 -12 2 -8 -11 -12 -45 -12 -70 0 -106 -13 -151
-55 -22 -20 -56 -51 -75 -69 -27 -25 -36 -42 -41 -81 -9 -62 1 -87 56 -146 36
-39 56 -51 116 -68 101 -31 157 -35 243 -21 154 26 251 82 312 182 32 54 37
70 37 123 0 56 -4 68 -42 124 -25 38 -56 70 -77 81 -20 10 -51 30 -70 44 -19
14 -42 26 -52 26 -9 0 -28 9 -43 21 -24 19 -26 26 -26 105 0 115 18 149 75
140 17 -3 57 -10 89 -15z m-45 -440 c81 -102 59 -167 -83 -236 -100 -49 -261
-43 -326 12 -50 42 -39 83 31 118 59 30 69 31 119 5 47 -24 97 -26 128 -4 18
12 22 25 22 68 0 59 12 76 51 76 20 0 36 -11 58 -39z m61 -725 c47 -14 111
-29 142 -35 31 -5 83 -23 115 -39 32 -16 79 -34 104 -40 26 -7 70 -27 99 -47
28 -19 56 -35 62 -35 21 0 147 -103 201 -165 101 -114 132 -261 85 -407 -13
-41 -37 -87 -60 -114 -21 -25 -38 -50 -38 -56 0 -12 -101 -112 -137 -135 -15
-9 -44 -29 -63 -44 -19 -15 -55 -33 -80 -41 -25 -8 -62 -26 -82 -40 -21 -15
-66 -31 -105 -38 -37 -7 -106 -25 -152 -41 -142 -49 -170 -39 -189 68 -18 100
-1 122 105 142 132 25 262 119 328 238 31 53 35 70 35 130 0 57 -6 81 -38 150
-30 66 -49 92 -100 137 -34 31 -69 56 -76 56 -7 0 -32 14 -55 31 -30 21 -68
36 -127 48 -47 10 -93 25 -101 34 -22 22 -33 107 -24 184 11 93 20 96 151 59z
m-316 -417 c31 -24 35 -68 9 -92 -10 -8 -58 -23 -108 -32 -49 -9 -115 -21
-145 -26 -30 -6 -94 -16 -142 -24 -48 -7 -98 -19 -111 -27 -13 -7 -47 -25 -75
-41 -58 -31 -72 -49 -97 -126 -17 -51 -17 -57 -1 -108 23 -71 46 -93 143 -137
90 -41 187 -56 374 -59 126 -2 133 -8 126 -99 -3 -37 -10 -76 -16 -87 -28 -51
-143 -48 -346 9 -55 16 -119 32 -142 35 -24 4 -60 18 -80 32 -21 14 -51 30
-68 36 -16 6 -46 23 -65 39 -19 16 -55 44 -80 61 -29 21 -61 59 -90 107 -41
69 -45 81 -45 140 0 55 5 73 30 114 54 88 151 171 223 191 26 6 70 24 97 38
29 15 83 30 130 36 44 7 112 18 150 25 39 8 122 14 186 15 104 1 119 -1 143
-20z m311 -45 c15 -10 52 -32 83 -49 44 -24 64 -43 93 -90 49 -78 50 -114 5
-181 -44 -66 -155 -135 -226 -142 -42 -4 -52 -1 -74 21 -33 33 -33 53 3 110
46 71 55 119 36 177 -9 26 -25 56 -37 66 -33 30 -41 63 -22 92 14 22 21 24 64
20 27 -3 61 -14 75 -24z m-330 -354 c26 -27 26 -91 0 -120 -23 -25 -13 -25
-264 9 -79 11 -150 26 -158 32 -23 19 -11 51 27 73 29 18 59 22 175 27 168 7
194 4 220 -21z"/>
</g>
</svg>
