<?xml version="1.0" standalone="no"?>
<!DOCTYPE svg PUBLIC "-//W3C//DTD SVG 20010904//EN"
 "http://www.w3.org/TR/2001/REC-SVG-20010904/DTD/svg10.dtd">
<svg version="1.0" xmlns="http://www.w3.org/2000/svg"
 width="496.000000pt" height="440.000000pt" viewBox="0 0 496.000000 440.000000"
 preserveAspectRatio="xMidYMid meet">
<metadata>
Created by potrace 1.16, written by Peter Selinger 2001-2019
</metadata>
<rect x="0" y="0" width="496" height="440" fill="#ffffff"/>
<g transform="translate(0.000000,440.000000) scale(0.100000,-0.100000)"
fill="#000000" stroke="none">
<path d="M2390 4382 c0 -10 -20 -38 -45 -62 -56 -55 -70 -94 -56 -158 15 -70
31 -185 31 -231 0 -63 -20 -77 -126 -84 -139 -11 -468 -89 -528 -126 -19 -12
-59 -30 -89 -40 -30 -11 -78 -35 -107 -55 -29 -20 -58 -36 -65 -36 -7 0 -68
-53 -135 -117 -100 -96 -128 -129 -150 -178 -33 -73 -51 -90 -113 -106 -39
-11 -56 -11 -94 0 -27 8 -77 17 -113 21 -36 4 -85 17 -110 28 -122 56 -391 51
-519 -8 -35 -17 -78 -43 -97 -59 -18 -16 -42 -32 -53 -36 -19 -6 -21 -14 -21
-85 l0 -78 32 -11 c18 -7 46 -25 63 -40 16 -16 48 -34 70 -40 22 -6 45 -14 52
-19 26 -16 85 -140 99 -206 8 -40 27 -90 44 -116 16 -26 35 -62 41 -81 7 -19
22 -45 34 -59 12 -14 36 -45 54 -70 62 -88 107 -139 160 -181 30 -24 75 -61
100 -81 25 -21 64 -50 86 -64 22 -15 55 -40 73 -55 18 -16 38 -29 45 -29 7 0
36 -18 66 -40 29 -22 58 -40 65 -40 6 0 29 -12 51 -27 22 -15 72 -44 110 -64
121 -62 298 -161 342 -190 23 -16 46 -29 51 -29 12 0 135 -79 249 -161 124
-88 331 -335 353 -421 6 -24 21 -59 32 -78 41 -69 64 -291 37 -343 -16 -30
-25 -35 -84 -43 -69 -9 -98 -26 -145 -85 -46 -58 -50 -87 -23 -163 23 -62 95
-126 178 -157 33 -12 72 -35 87 -51 l26 -28 152 0 151 0 10 29 c7 20 28 41 62
61 154 91 173 120 168 254 -2 48 -85 121 -156 137 -83 18 -101 36 -109 107 -7
66 17 251 38 292 8 14 23 43 35 65 12 21 21 44 21 50 0 6 16 29 35 51 19 21
35 42 35 46 0 4 32 43 70 87 66 75 130 129 205 176 17 11 46 33 65 48 18 15
48 34 66 42 19 8 51 27 71 43 21 17 55 35 75 41 20 7 41 18 48 25 6 8 34 24
63 36 29 12 67 34 86 47 18 14 54 34 80 44 25 9 73 33 105 53 33 20 64 36 69
36 6 0 24 11 41 24 17 13 51 33 76 46 25 13 61 36 80 51 19 16 39 29 45 29 6
0 33 18 60 40 28 22 77 62 109 88 71 56 196 179 196 191 0 5 16 28 35 51 19
23 44 60 55 83 10 23 29 53 40 67 11 14 28 53 36 85 9 33 26 78 39 100 13 23
27 72 33 115 9 64 15 79 41 102 17 15 49 32 73 39 24 6 54 19 69 30 28 20 89
126 89 155 0 11 -13 42 -28 69 -24 45 -36 54 -112 92 -66 33 -104 45 -174 54
-103 13 -377 7 -418 -9 -14 -6 -47 -27 -73 -46 -36 -28 -56 -36 -89 -36 -56 0
-81 20 -101 79 -9 27 -23 55 -31 62 -9 7 -23 27 -32 45 -47 91 -270 270 -377
304 -22 7 -55 23 -72 37 -19 14 -67 32 -115 42 -46 10 -104 28 -129 39 -68 30
-138 42 -305 51 -132 7 -157 11 -195 32 -55 31 -67 61 -50 129 7 28 14 97 14
154 2 103 2 103 -31 140 -21 24 -32 47 -32 66 l0 30 -85 0 c-75 0 -85 -2 -85
-18z m-87 -694 c36 -28 59 -108 58 -202 0 -50 6 -128 15 -175 11 -59 16 -135
14 -246 0 -88 2 -267 6 -398 7 -277 8 -273 -71 -263 -27 4 -86 8 -130 10 -44
2 -125 15 -180 29 -55 14 -129 31 -164 37 -36 6 -91 25 -123 41 -31 16 -64 29
-71 29 -14 0 -59 22 -155 77 -83 47 -214 172 -247 236 l-29 55 28 41 c44 63
45 114 5 191 l-32 63 23 44 c69 131 282 274 530 357 133 44 181 55 305 71 134
17 198 18 218 3z m493 -19 c33 -5 87 -20 120 -33 32 -13 86 -29 118 -35 33 -6
80 -24 105 -40 25 -16 69 -36 98 -45 28 -10 57 -24 64 -32 7 -9 33 -26 58 -39
85 -44 224 -199 237 -263 3 -15 1 -53 -5 -84 -8 -43 -7 -68 5 -113 8 -31 12
-70 9 -85 -8 -37 -98 -150 -141 -176 -19 -12 -45 -31 -57 -42 -12 -12 -45 -31
-72 -43 -28 -12 -61 -32 -75 -44 -14 -13 -51 -30 -83 -38 -33 -9 -66 -22 -75
-30 -32 -28 -61 -37 -164 -52 -56 -9 -145 -27 -197 -41 -112 -31 -175 -29
-204 7 -17 21 -18 42 -13 298 2 152 9 355 15 451 6 96 14 240 19 318 6 132 9
145 29 162 25 19 81 19 209 -1z m1930 -570 c32 -26 3 -89 -41 -89 -28 0 -75
43 -75 69 0 11 8 25 18 31 20 12 78 6 98 -11z m-4478 -21 c4 -36 -36 -65 -67
-48 -23 12 -28 49 -9 68 7 7 26 12 43 10 24 -2 31 -8 33 -30z m783 -159 c51
-28 63 -39 89 -93 78 -155 215 -282 385 -355 27 -12 56 -28 65 -36 16 -15 186
-79 265 -101 192 -51 288 -69 483 -89 49 -6 65 -12 73 -28 8 -14 9 -80 5 -211
-3 -105 -8 -297 -10 -426 -4 -317 -18 -382 -78 -367 -12 4 -67 49 -120 101
-54 52 -122 111 -152 130 -29 19 -57 39 -61 45 -3 6 -21 17 -39 25 -18 7 -53
29 -78 48 -25 20 -59 39 -75 42 -15 4 -41 18 -58 30 -16 13 -57 37 -90 55 -33
17 -91 49 -130 71 -38 21 -102 55 -141 74 -40 19 -75 40 -79 46 -4 7 -31 23
-59 37 -71 33 -148 83 -196 127 -22 20 -44 36 -49 36 -17 0 -241 231 -275 284
-19 30 -39 57 -44 60 -6 3 -16 30 -22 58 -7 29 -24 78 -38 108 -14 32 -26 82
-29 121 -5 62 -4 68 18 82 13 8 52 18 87 22 39 4 75 15 96 30 19 13 43 26 55
30 11 3 39 22 62 41 22 19 50 34 61 34 11 0 47 -14 79 -31z m3033 -6 c33 -23
53 -29 123 -34 109 -7 135 -25 146 -100 13 -88 -18 -279 -53 -329 -9 -14 -23
-43 -30 -65 -7 -22 -25 -53 -40 -70 -15 -16 -35 -43 -43 -60 -25 -48 -136
-164 -176 -185 -21 -10 -43 -26 -50 -34 -16 -19 -130 -96 -181 -121 -19 -10
-51 -30 -70 -46 -19 -15 -46 -30 -59 -34 -13 -4 -44 -20 -69 -36 -25 -16 -61
-34 -81 -40 -20 -7 -55 -25 -78 -40 -23 -16 -54 -34 -70 -40 -15 -5 -49 -23
-74 -40 -25 -16 -61 -34 -80 -41 -19 -6 -51 -26 -73 -44 -21 -18 -52 -36 -68
-39 -16 -4 -44 -19 -61 -35 -18 -15 -46 -34 -63 -43 -17 -9 -37 -23 -44 -32
-8 -10 -37 -32 -65 -50 -62 -41 -133 -110 -160 -156 -15 -24 -28 -34 -45 -34
-47 0 -54 35 -60 315 -3 140 -8 260 -12 265 -4 6 -8 111 -9 234 -2 223 -2 224
20 243 18 14 40 18 95 18 87 1 291 24 327 38 15 6 84 22 154 36 70 15 144 35
164 46 20 11 63 29 95 40 33 11 73 31 90 43 17 13 47 29 67 36 20 6 45 21 55
32 11 12 32 28 49 37 46 23 174 152 197 197 34 67 108 165 137 180 37 20 50
19 95 -12z m-1729 -2573 c0 -18 -33 -26 -47 -12 -6 6 -7 15 -3 22 10 16 50 8
50 -10z"/>
</g>
</svg>
