<?xml version="1.0" standalone="no"?>
<!DOCTYPE svg PUBLIC "-//W3C//DTD SVG 20010904//EN"
 "http://www.w3.org/TR/2001/REC-SVG-20010904/DTD/svg10.dtd">
<svg version="1.0" xmlns="http://www.w3.org/2000/svg"
 width="496.000000pt" height="304.000000pt" viewBox="0 0 496.000000 304.000000"
 preserveAspectRatio="xMidYMid meet">
<metadata>
Created by potrace 1.16, written by Peter Selinger 2001-2019
</metadata>
<rect x="0" y="0" width="496" height="304" fill="#ffffff"/>
<g transform="translate(0.000000,304.000000) scale(0.100000,-0.100000)"
fill="#000000" stroke="none">
<path d="M2410 2971 c-36 -20 -71 -48 -78 -61 -17 -33 -10 -195 13 -275 29
-100 29 -102 3 -128 -22 -21 -38 -26 -114 -32 -49 -3 -118 -15 -154 -25 -36
-10 -105 -27 -155 -39 -92 -21 -290 -89 -335 -116 -14 -8 -51 -28 -83 -44 -32
-16 -74 -44 -93 -60 -19 -17 -38 -31 -43 -31 -4 0 -39 -27 -76 -60 -64 -57
-82 -80 -160 -214 -50 -85 -126 -107 -233 -66 -29 11 -70 20 -92 20 -22 0 -59
6 -82 14 -70 24 -189 46 -247 46 -63 0 -138 -13 -266 -46 -95 -25 -92 -23
-160 -117 -39 -52 -42 -68 -20 -87 8 -7 27 -35 42 -63 25 -44 36 -53 103 -84
118 -54 183 -65 375 -66 186 -1 240 9 290 51 40 34 123 72 158 72 46 0 102
-35 122 -76 63 -134 219 -296 345 -359 19 -10 54 -31 76 -46 23 -16 63 -33 88
-39 26 -6 70 -23 99 -39 29 -16 80 -35 114 -41 34 -6 78 -17 98 -26 51 -21
255 -54 335 -54 52 0 73 -4 91 -19 24 -19 24 -20 21 -210 -2 -130 -7 -205 -17
-238 -8 -26 -15 -69 -15 -94 0 -26 -7 -66 -15 -89 -24 -69 -20 -89 29 -134 25
-23 49 -53 55 -68 10 -25 15 -28 61 -28 39 0 50 3 50 16 0 9 23 37 52 64 l51
47 -8 74 c-4 41 -8 99 -10 130 -1 30 -8 66 -15 80 -8 14 -13 51 -12 87 1 35
-5 92 -14 125 -20 80 -16 199 8 224 14 13 53 19 205 29 150 10 206 18 278 39
50 15 124 35 166 44 42 9 91 26 110 38 20 11 65 30 101 42 36 12 74 31 83 41
10 11 41 31 69 44 58 26 191 150 248 229 21 29 49 75 62 104 40 83 85 100 176
68 23 -8 58 -15 76 -15 19 0 77 -11 130 -25 113 -29 290 -35 365 -11 24 8 74
22 112 31 56 14 75 25 109 61 23 24 50 46 60 50 15 4 18 16 18 65 0 35 -4 59
-11 59 -6 0 -32 21 -58 46 -44 43 -102 73 -211 112 -34 12 -89 16 -230 16
-204 1 -187 5 -338 -79 -35 -19 -71 -35 -81 -35 -30 0 -111 103 -111 141 0 46
-217 266 -296 301 -16 7 -51 27 -78 45 -26 18 -56 33 -66 33 -10 0 -47 15 -82
33 -35 19 -92 39 -128 46 -36 7 -117 26 -180 43 -92 25 -144 32 -262 37 -138
6 -148 8 -173 31 -26 24 -27 28 -21 100 15 194 17 276 8 301 -7 18 -33 39 -79
63 -37 20 -72 36 -78 35 -5 0 -39 -17 -75 -38z m-30 -661 c24 -15 31 -155 36
-719 5 -474 4 -515 -12 -532 -15 -16 -32 -19 -126 -19 -118 0 -280 22 -337 46
-20 9 -69 22 -109 30 -40 8 -92 25 -115 39 -24 13 -62 31 -86 40 -24 8 -70 32
-103 52 -74 47 -245 214 -254 249 -9 34 2 80 26 114 36 50 36 84 1 136 -48 73
-44 108 24 186 95 108 226 205 324 239 30 11 65 26 77 34 12 8 68 26 125 40
56 15 118 33 137 41 19 8 53 15 76 15 22 1 55 5 71 9 44 11 227 11 245 0z
m440 -20 c25 -10 90 -28 145 -40 55 -11 134 -36 175 -54 41 -19 92 -39 112
-45 20 -7 42 -19 49 -27 7 -9 33 -26 59 -38 25 -12 86 -62 137 -110 114 -109
133 -148 115 -235 -16 -79 -15 -101 8 -139 25 -41 25 -63 0 -111 -23 -47 -170
-185 -225 -213 -22 -11 -51 -31 -65 -43 -14 -13 -48 -30 -77 -38 -29 -9 -65
-25 -81 -37 -17 -13 -73 -31 -133 -45 -57 -12 -130 -32 -161 -44 -39 -14 -93
-23 -174 -28 -107 -6 -118 -5 -130 12 -11 15 -14 113 -13 519 1 276 4 550 8
611 6 103 8 110 30 121 32 16 163 6 221 -16z m-2226 -549 c31 -26 15 -52 -54
-90 -62 -34 -70 -36 -160 -36 -110 0 -157 15 -166 52 -15 60 78 94 252 90 78
-1 116 -6 128 -16z m4071 -6 c64 -9 95 -25 102 -53 15 -60 -42 -80 -232 -81
-139 -1 -178 9 -183 45 -4 26 22 44 103 72 89 32 103 33 210 17z"/>
</g>
</svg>
