<?xml version="1.0" standalone="no"?>
<!DOCTYPE svg PUBLIC "-//W3C//DTD SVG 20010904//EN"
 "http://www.w3.org/TR/2001/REC-SVG-20010904/DTD/svg10.dtd">
<svg version="1.0" xmlns="http://www.w3.org/2000/svg"
 width="496.000000pt" height="448.000000pt" viewBox="0 0 496.000000 448.000000"
 preserveAspectRatio="xMidYMid meet">
<metadata>
Created by potrace 1.16, written by Peter Selinger 2001-2019
</metadata>
<rect x="0" y="0" width="496" height="448" fill="#ffffff"/>
<g transform="translate(0.000000,448.000000) scale(0.100000,-0.100000)"
fill="#000000" stroke="none">
<path d="M2390 4398 c-47 -13 -60 -26 -94 -94 l-29 -58 22 -62 c12 -33 21 -76
20 -95 -1 -19 2 -60 6 -92 10 -76 -6 -97 -78 -97 -87 0 -441 -76 -504 -109
-21 -10 -62 -26 -91 -34 -29 -9 -66 -25 -82 -37 -16 -11 -46 -28 -67 -36 -89
-36 -223 -138 -307 -231 -21 -24 -54 -75 -75 -115 -31 -63 -43 -77 -86 -100
-66 -36 -101 -35 -159 3 -40 27 -61 33 -136 40 -49 5 -118 16 -152 25 -77 19
-207 15 -351 -13 -82 -17 -103 -25 -130 -51 -18 -17 -47 -36 -65 -43 l-32 -11
0 -89 c0 -76 3 -91 18 -96 9 -3 64 -33 121 -67 l104 -61 33 -72 c18 -40 37
-97 44 -127 6 -30 20 -66 30 -79 10 -13 30 -48 43 -78 39 -88 156 -242 240
-314 31 -27 72 -64 90 -81 17 -18 43 -37 57 -44 14 -7 39 -24 55 -37 44 -35
164 -113 174 -113 4 0 29 -16 55 -36 25 -19 61 -40 79 -46 17 -6 48 -23 68
-39 21 -16 60 -37 89 -48 29 -11 60 -26 69 -34 9 -8 70 -43 136 -77 66 -34
129 -71 140 -80 11 -10 41 -31 66 -47 182 -113 252 -167 348 -270 47 -52 95
-111 105 -131 10 -20 29 -50 42 -67 12 -16 28 -50 34 -75 7 -25 21 -63 33 -85
23 -45 47 -173 47 -256 0 -65 -14 -83 -75 -94 -22 -3 -54 -17 -71 -30 -61 -46
-119 -55 -366 -55 -243 0 -273 5 -313 50 -32 35 -70 50 -130 50 -41 0 -76 8
-125 30 -67 30 -71 30 -240 30 -169 0 -173 0 -240 -30 -38 -17 -73 -30 -78
-30 -6 0 -33 -27 -62 -59 -86 -101 -80 -159 28 -263 60 -58 75 -67 152 -90
143 -44 188 -50 320 -46 111 3 135 7 217 37 95 34 110 46 200 155 l22 27 225
-3 c224 -3 225 -3 251 -28 15 -14 36 -42 46 -62 11 -21 29 -44 42 -51 124 -75
147 -85 207 -95 55 -10 70 -17 96 -47 30 -34 33 -35 103 -35 66 0 72 2 80 23
10 27 83 90 151 132 61 38 98 73 120 116 11 20 26 39 35 43 29 11 442 7 472
-5 15 -5 40 -21 54 -35 17 -16 45 -28 82 -34 37 -6 73 -20 101 -40 39 -29 54
-32 152 -41 60 -5 114 -11 120 -13 5 -2 69 2 142 9 l132 13 70 47 c55 36 76
58 95 96 32 63 31 97 -5 168 -29 58 -45 72 -166 139 -78 43 -528 41 -588 -3
-12 -8 -39 -27 -61 -41 -22 -14 -57 -44 -77 -67 l-36 -42 -236 -3 c-258 -3
-330 5 -386 42 -19 14 -55 30 -79 36 -24 6 -54 23 -68 36 -23 23 -24 30 -18
87 18 175 28 223 56 275 16 29 39 78 50 108 12 30 27 58 35 61 7 3 24 21 36
41 24 40 152 169 208 211 19 14 45 36 57 49 13 13 40 30 60 39 21 8 53 28 71
44 18 16 39 29 46 29 8 0 38 16 67 36 30 20 71 42 92 50 21 7 51 23 67 34 15
11 50 29 76 41 27 11 58 29 70 40 11 10 45 29 75 42 61 25 145 71 192 104 18
12 52 34 77 49 25 15 56 38 70 50 14 13 43 30 65 39 22 9 52 29 66 43 14 15
53 48 85 75 33 26 87 80 120 119 32 39 69 80 81 91 13 11 30 41 40 66 9 25 29
64 44 86 15 22 33 60 39 85 7 24 23 67 37 94 14 27 29 81 35 120 5 39 15 80
22 91 7 11 55 38 107 60 87 38 96 44 116 85 37 74 26 131 -36 203 -36 40 -95
66 -236 102 -76 19 -112 22 -227 20 -116 -2 -142 -5 -171 -22 -18 -11 -50 -26
-70 -32 -19 -7 -52 -25 -73 -42 -62 -49 -103 -36 -139 45 -13 29 -34 65 -48
82 -13 16 -32 45 -42 64 -18 35 -139 160 -155 160 -5 0 -25 14 -44 30 -18 17
-51 37 -72 46 -22 9 -53 29 -71 44 -18 17 -53 33 -84 39 -29 6 -75 25 -103 40
-34 19 -78 33 -131 41 -44 7 -116 22 -160 35 -46 13 -142 28 -227 35 -81 7
-157 18 -170 24 -29 15 -29 55 -4 204 21 121 17 154 -26 206 -50 61 -113 78
-198 54z m-86 -661 c25 -18 46 -135 54 -302 4 -77 11 -146 16 -154 14 -21 10
-779 -4 -796 -19 -23 -95 -28 -228 -15 -175 17 -426 81 -503 129 -26 16 -64
34 -85 41 -53 18 -180 108 -237 169 -26 27 -56 70 -68 94 l-22 45 23 44 c13
25 25 69 27 104 5 57 4 63 -26 96 -38 44 -38 62 -1 111 99 132 269 264 396
307 32 11 69 27 81 36 22 14 97 33 268 69 39 8 84 19 100 24 46 14 188 13 209
-2z m358 2 c18 -9 183 -46 288 -63 19 -3 64 -20 99 -36 35 -17 85 -35 110 -41
25 -5 62 -22 81 -37 19 -15 48 -33 65 -41 16 -7 47 -27 69 -44 67 -55 208
-201 218 -227 7 -18 5 -41 -8 -83 -15 -51 -16 -64 -5 -100 7 -23 15 -65 18
-93 5 -49 3 -53 -44 -105 -61 -69 -147 -149 -160 -149 -6 0 -32 -16 -58 -36
-26 -20 -66 -42 -89 -49 -23 -7 -59 -24 -79 -38 -21 -14 -64 -31 -95 -37 -31
-6 -104 -26 -162 -45 -64 -20 -140 -36 -195 -40 -137 -12 -154 -11 -176 12
-20 19 -20 31 -19 343 0 178 4 328 7 334 4 6 11 81 15 166 16 310 23 387 37
403 15 19 53 22 83 6z m-2428 -612 c8 -13 7 -24 -4 -44 -20 -35 -35 -38 -59
-14 -22 22 -19 47 8 69 20 16 41 12 55 -11z m4491 -1 c40 -40 6 -96 -51 -82
-26 7 -38 25 -49 74 l-7 32 42 0 c30 0 47 -6 65 -24z m-3726 -157 c65 -14 96
-39 114 -93 19 -55 121 -182 188 -233 117 -89 209 -146 264 -163 22 -7 63 -25
90 -40 28 -15 90 -37 139 -49 49 -12 102 -29 118 -37 32 -17 226 -43 318 -44
72 0 127 -16 140 -40 15 -29 16 -750 1 -815 -7 -27 -11 -82 -9 -122 1 -40 -1
-75 -5 -79 -19 -19 -86 23 -162 100 -44 44 -94 89 -110 99 -29 17 -59 37 -139
94 -22 15 -61 39 -86 53 -26 14 -59 36 -75 48 -15 12 -33 22 -40 22 -6 0 -38
17 -71 38 -32 21 -74 44 -92 50 -18 6 -51 25 -72 42 -21 16 -42 30 -48 30 -18
0 -204 102 -249 136 -25 19 -50 34 -56 34 -48 0 -395 299 -434 374 -9 17 -29
47 -44 66 -15 19 -33 55 -39 80 -7 25 -24 74 -40 110 -37 85 -48 181 -26 215
15 22 24 25 79 25 81 0 130 14 171 51 33 28 89 58 113 59 7 0 35 -5 62 -11z
m3084 -19 c31 -11 73 -20 94 -20 48 -1 132 -46 152 -81 13 -23 13 -39 3 -105
-6 -44 -14 -105 -17 -136 -4 -37 -15 -70 -32 -95 -14 -20 -31 -56 -38 -79 -7
-22 -27 -63 -46 -89 -46 -66 -227 -253 -262 -272 -16 -8 -49 -30 -74 -49 -24
-19 -49 -34 -55 -34 -5 0 -28 -13 -51 -29 -73 -50 -181 -110 -225 -125 -23 -8
-59 -28 -80 -45 -20 -16 -48 -32 -62 -36 -14 -5 -41 -19 -61 -32 -20 -13 -58
-32 -85 -42 -27 -11 -73 -35 -103 -55 -29 -20 -57 -36 -63 -36 -5 0 -28 -16
-50 -34 -22 -19 -53 -38 -69 -41 -44 -10 -199 -139 -289 -242 -42 -48 -61 -63
-82 -63 -43 0 -49 24 -48 202 1 94 -3 175 -9 191 -7 18 -11 139 -11 327 0 355
-6 336 116 357 81 14 99 16 287 34 65 6 134 19 175 34 37 13 98 31 136 40 38
8 90 26 115 40 25 13 71 34 103 45 31 11 62 28 69 36 7 9 33 26 58 39 75 39
234 199 270 273 44 91 68 120 104 131 49 14 68 13 130 -9z m-2943 -2516 c0
-15 -59 -34 -107 -34 -41 0 -89 18 -77 30 21 20 184 24 184 4z m2875 -38 c43
-18 48 -52 9 -66 -34 -13 -210 -13 -235 0 -21 12 -25 45 -6 57 11 7 93 18 165
21 18 1 48 -5 67 -12z"/>
</g>
</svg>
