<?xml version="1.0" standalone="no"?>
<!DOCTYPE svg PUBLIC "-//W3C//DTD SVG 20010904//EN"
 "http://www.w3.org/TR/2001/REC-SVG-20010904/DTD/svg10.dtd">
<svg version="1.0" xmlns="http://www.w3.org/2000/svg"
 width="504.000000pt" height="488.000000pt" viewBox="0 0 504.000000 488.000000"
 preserveAspectRatio="xMidYMid meet">
<metadata>
Created by potrace 1.16, written by Peter Selinger 2001-2019
</metadata>
<rect x="0" y="0" width="504" height="488" fill="#ffffff"/>
<g transform="translate(0.000000,488.000000) scale(0.100000,-0.100000)"
fill="#000000" stroke="none">
<path d="M2416 4855 c-4 -14 -22 -42 -41 -63 -44 -49 -50 -76 -32 -153 21 -89
29 -173 18 -202 -16 -41 -55 -56 -223 -88 -90 -16 -203 -44 -253 -60 -49 -17
-118 -39 -151 -49 -34 -10 -79 -30 -100 -44 -22 -14 -55 -31 -74 -37 -108 -36
-319 -223 -372 -329 -16 -32 -46 -77 -67 -101 -35 -40 -41 -42 -87 -41 -29 0
-71 11 -104 26 -31 14 -105 33 -170 44 -98 15 -145 17 -315 12 -112 -4 -213
-12 -228 -19 -42 -17 -116 -80 -134 -115 -18 -35 -13 -108 11 -154 15 -29 148
-112 179 -112 27 0 46 -37 96 -190 29 -85 60 -164 71 -175 10 -11 26 -38 35
-59 22 -51 69 -108 181 -220 109 -109 140 -136 179 -161 17 -10 44 -31 60 -46
17 -14 46 -32 66 -38 20 -6 47 -23 60 -37 13 -14 51 -39 84 -55 59 -29 106
-55 195 -108 25 -15 61 -33 79 -39 18 -6 49 -24 69 -40 20 -16 48 -33 62 -37
14 -4 41 -16 60 -28 19 -11 58 -32 85 -47 79 -42 167 -97 199 -122 16 -13 41
-30 56 -38 60 -34 250 -209 250 -231 0 -4 14 -24 30 -43 17 -18 42 -60 56 -92
14 -33 35 -69 47 -82 16 -18 22 -36 22 -72 0 -72 -9 -77 -102 -56 -121 27
-288 32 -417 12 -88 -14 -124 -26 -193 -61 -46 -24 -100 -56 -120 -71 -30 -23
-50 -28 -124 -35 -67 -5 -104 -14 -153 -37 -161 -75 -208 -186 -124 -297 29
-39 55 -57 168 -120 14 -8 37 -17 52 -20 15 -3 47 -24 72 -48 60 -57 104 -91
146 -112 19 -10 51 -32 72 -49 59 -50 130 -100 169 -117 20 -9 55 -31 79 -48
24 -17 49 -31 56 -31 7 0 33 -15 57 -34 25 -19 59 -42 75 -50 17 -9 40 -31 51
-50 27 -43 102 -94 150 -101 20 -4 72 -14 116 -23 106 -22 163 -20 331 10 133
23 146 27 211 71 39 26 76 54 83 63 8 8 27 22 44 31 17 9 46 29 65 46 19 16
48 35 65 42 17 7 42 22 56 33 14 10 45 29 70 42 25 12 54 30 65 39 11 10 41
30 68 45 26 15 47 31 47 36 0 4 21 22 48 39 64 42 141 107 186 158 32 36 51
46 120 67 78 24 86 29 134 87 64 75 66 102 18 179 -43 68 -112 126 -174 147
-26 9 -61 29 -79 44 -18 15 -52 37 -75 48 -24 11 -54 29 -68 40 -23 19 -120
45 -285 76 -111 22 -285 19 -380 -6 -113 -30 -146 -34 -156 -18 -16 25 -9 67
15 96 13 15 31 44 41 63 47 92 296 334 398 387 17 8 48 28 70 44 22 16 46 29
52 29 7 0 37 16 66 36 30 20 70 42 89 49 19 7 62 29 94 49 33 20 64 36 69 36
6 0 24 11 42 24 17 13 60 38 96 55 76 37 159 85 214 123 22 16 45 28 51 28 6
0 28 15 50 34 21 18 55 41 74 51 19 10 50 30 68 44 59 46 223 215 249 256 14
22 36 51 49 65 13 14 30 45 38 69 9 23 27 56 40 72 13 16 27 43 31 61 3 18 19
74 35 123 16 50 34 109 40 131 12 51 21 58 124 109 111 55 143 107 124 202 -8
35 -19 51 -63 86 -45 37 -71 49 -170 76 -65 18 -142 36 -173 41 -78 13 -197 1
-262 -25 -30 -13 -69 -26 -86 -29 -18 -4 -50 -23 -72 -42 -66 -56 -115 -44
-141 38 -7 20 -19 42 -27 49 -9 7 -25 31 -36 53 -30 60 -133 172 -198 216 -31
21 -62 45 -69 53 -7 9 -29 21 -49 28 -20 7 -53 24 -74 40 -21 15 -62 33 -91
39 -28 7 -72 23 -95 37 -27 15 -78 30 -130 39 -48 7 -127 23 -177 35 -54 13
-144 24 -223 28 -125 6 -135 8 -153 30 -22 27 -23 47 -4 81 10 17 14 59 15
138 0 107 -2 115 -30 165 -16 30 -30 61 -30 70 0 15 -13 17 -99 17 -97 0 -99
0 -105 -25z m-72 -635 c46 -17 45 -7 76 -780 6 -124 12 -279 16 -345 5 -113 4
-122 -16 -148 -23 -29 -65 -36 -101 -16 -11 5 -39 10 -62 10 -88 0 -273 30
-356 58 -47 16 -102 32 -121 36 -19 4 -55 19 -80 33 -25 15 -67 36 -95 47 -79
33 -187 124 -279 233 -44 54 -48 97 -11 132 30 28 50 88 41 124 -3 14 -20 38
-38 55 -38 36 -41 81 -6 120 13 14 36 45 51 69 15 23 51 58 80 77 29 19 63 43
77 54 54 40 167 100 210 111 24 7 66 23 92 36 26 13 90 31 144 39 54 9 105 20
115 26 10 5 33 9 51 10 18 0 58 7 88 14 71 16 93 17 124 5z m422 -21 c32 -11
112 -29 177 -39 87 -13 128 -25 155 -43 21 -13 62 -30 92 -36 30 -6 69 -23 87
-36 17 -14 51 -34 75 -45 92 -43 219 -157 265 -239 34 -61 35 -67 29 -130 -5
-48 -3 -84 10 -132 9 -36 14 -77 11 -91 -8 -32 -164 -191 -214 -218 -21 -11
-53 -32 -72 -45 -18 -14 -48 -29 -65 -33 -17 -5 -48 -21 -70 -35 -21 -15 -54
-30 -75 -33 -20 -4 -80 -22 -134 -40 -124 -42 -330 -71 -381 -54 -19 6 -40 18
-46 26 -15 17 -15 439 0 495 6 19 12 121 15 225 7 278 19 477 29 492 4 7 18
17 30 22 11 5 21 9 22 9 0 1 27 -8 60 -20z m-2468 -591 c33 -33 -16 -91 -57
-68 -26 14 -27 34 -1 60 23 23 41 25 58 8z m4492 -1 c52 -26 28 -87 -34 -87
-40 0 -55 16 -63 64 l-6 36 39 0 c22 0 50 -6 64 -13z m-3674 -182 c13 -8 40
-47 61 -87 21 -40 61 -98 88 -129 55 -62 163 -152 210 -176 17 -9 37 -21 45
-29 28 -24 223 -105 360 -149 101 -32 171 -47 275 -59 148 -18 228 -36 260
-60 19 -14 20 -32 25 -513 3 -274 2 -502 -2 -507 -9 -11 -71 20 -99 49 -11 11
-45 48 -77 81 -31 34 -71 68 -88 77 -17 9 -37 23 -44 32 -8 9 -32 26 -54 37
-23 11 -58 36 -79 54 -20 19 -43 34 -51 34 -7 0 -31 13 -54 29 -22 17 -66 44
-99 61 -32 17 -89 48 -128 69 -38 22 -137 73 -220 115 -82 42 -161 85 -175 95
-23 17 -55 37 -164 101 -23 14 -62 41 -85 60 -61 49 -231 219 -231 230 0 5
-13 24 -29 42 -15 18 -36 56 -45 85 -10 28 -26 63 -38 78 -12 16 -26 59 -35
113 -23 135 -4 162 138 193 44 9 90 24 102 33 98 72 88 68 151 62 33 -3 70
-13 82 -21z m3010 0 c20 -8 82 -24 137 -35 55 -11 109 -28 119 -37 36 -32 20
-237 -26 -335 -13 -29 -29 -72 -35 -95 -7 -23 -22 -55 -35 -70 -13 -15 -34
-46 -48 -68 -50 -80 -280 -288 -346 -312 -9 -4 -38 -21 -65 -39 -26 -18 -58
-36 -70 -40 -12 -3 -36 -17 -53 -29 -16 -13 -59 -37 -95 -54 -63 -31 -122 -63
-209 -114 -25 -14 -64 -33 -85 -40 -22 -8 -64 -31 -94 -51 -29 -20 -58 -36
-65 -36 -6 0 -27 -13 -47 -29 -19 -16 -52 -36 -73 -45 -21 -9 -55 -29 -75 -46
-20 -16 -60 -49 -90 -72 -30 -24 -101 -89 -157 -145 -97 -96 -133 -121 -134
-90 -1 12 -1 1012 0 1055 0 12 9 31 20 42 17 17 33 20 113 20 50 0 108 5 127
11 19 5 93 17 163 25 71 8 154 24 185 35 31 12 93 31 137 43 44 12 100 34 125
49 25 14 64 33 87 41 40 14 86 44 192 128 97 76 160 152 201 244 15 33 40 70
55 82 33 26 89 29 141 7z m-895 -2163 c31 -25 20 -46 -38 -76 -26 -13 -78 -51
-115 -85 l-66 -61 -130 0 c-145 0 -179 8 -188 44 -8 35 23 94 60 113 17 9 46
27 64 41 45 34 77 40 243 41 129 1 150 -1 170 -17z m-1175 -18 c83 -19 136
-45 194 -96 60 -53 66 -65 44 -89 -15 -17 -31 -19 -142 -19 l-124 0 -32 34
c-40 45 -72 56 -155 56 -74 0 -98 13 -87 48 22 69 159 100 302 66z m1352 -311
c-4 -22 -22 -20 -26 1 -2 10 3 16 13 16 10 0 15 -7 13 -17z m-1075 -49 c60
-64 100 -140 105 -200 7 -82 -8 -98 -116 -122 -61 -15 -104 -32 -141 -56 -54
-37 -70 -40 -186 -36 -78 2 -119 15 -186 56 -86 54 -139 106 -139 137 0 31 15
44 63 51 20 3 52 8 70 11 37 6 131 74 188 136 l37 39 88 1 c49 0 98 4 109 9
43 18 73 11 108 -26z m704 1 c20 -9 52 -27 71 -41 23 -18 53 -29 95 -34 34 -4
89 -19 122 -32 70 -28 79 -51 46 -116 -23 -45 -63 -79 -167 -140 -60 -36 -84
-44 -150 -51 -47 -6 -100 -6 -134 0 -30 5 -93 14 -138 19 -94 10 -119 23 -162
82 -26 35 -30 50 -30 105 0 59 2 66 31 91 16 15 53 51 82 80 l51 52 124 0 c87
0 133 -4 159 -15z m-517 -605 c0 -15 -7 -20 -29 -20 -31 0 -47 13 -36 30 3 6
19 10 36 10 22 0 29 -5 29 -20z"/>
</g>
</svg>
