<?xml version="1.0" standalone="no"?>
<!DOCTYPE svg PUBLIC "-//W3C//DTD SVG 20010904//EN"
 "http://www.w3.org/TR/2001/REC-SVG-20010904/DTD/svg10.dtd">
<svg version="1.0" xmlns="http://www.w3.org/2000/svg"
 width="408.000000pt" height="352.000000pt" viewBox="0 0 408.000000 352.000000"
 preserveAspectRatio="xMidYMid meet">
<metadata>
Created by potrace 1.16, written by Peter Selinger 2001-2019
</metadata>
<rect x="0" y="0" width="408" height="352" fill="#ffffff"/>
<g transform="translate(0.000000,352.000000) scale(0.100000,-0.100000)"
fill="#000000" stroke="none">
<path d="M1945 3485 c-9 -18 -32 -45 -50 -59 -44 -34 -50 -66 -25 -123 11 -25
20 -52 20 -59 0 -25 -45 -41 -163 -58 -65 -10 -142 -26 -171 -36 -30 -10 -86
-23 -126 -29 -40 -7 -103 -25 -140 -41 -37 -16 -92 -35 -121 -41 -30 -6 -70
-22 -91 -36 -20 -13 -58 -31 -85 -39 -26 -8 -66 -27 -88 -43 -22 -15 -56 -33
-76 -40 -20 -6 -45 -21 -55 -32 -11 -12 -40 -32 -66 -45 -26 -13 -50 -28 -53
-34 -4 -6 -25 -23 -48 -37 -134 -84 -280 -231 -363 -365 -16 -27 -35 -53 -41
-56 -24 -15 -104 -176 -119 -239 -18 -79 -37 -119 -64 -133 -19 -10 -20 -21
-20 -180 0 -159 1 -170 20 -180 25 -13 47 -55 60 -116 15 -69 108 -200 209
-296 98 -93 201 -177 251 -206 19 -11 62 -36 94 -56 33 -20 64 -36 70 -36 5 0
30 -13 56 -30 25 -16 65 -36 89 -45 23 -8 55 -24 71 -35 16 -12 55 -30 87 -40
32 -11 78 -31 103 -44 25 -14 68 -30 95 -37 28 -6 75 -24 105 -39 30 -15 100
-37 155 -49 55 -13 110 -29 122 -37 12 -7 56 -23 99 -34 84 -23 174 -76 191
-112 6 -14 8 -68 5 -131 l-5 -108 48 -45 c27 -24 58 -44 70 -44 26 0 99 51
114 79 14 26 14 315 0 365 -6 21 -21 49 -34 62 -23 23 -31 24 -143 24 -128 0
-177 11 -462 106 -58 19 -139 45 -180 58 -95 30 -186 67 -275 110 -38 19 -90
44 -115 56 -185 85 -369 211 -497 342 -96 98 -146 169 -180 258 -14 36 -31 81
-38 100 -22 55 -18 204 6 270 11 30 30 82 41 115 12 33 33 78 48 100 15 22 36
54 46 71 69 115 228 285 302 323 15 7 38 24 52 37 14 12 48 32 75 44 28 12 61
32 75 45 14 13 47 29 75 35 27 6 69 24 92 39 27 18 72 34 127 45 47 9 109 28
138 41 35 16 96 29 178 40 69 9 141 20 160 25 66 18 185 34 247 35 52 0 66 -4
85 -23 22 -22 23 -28 23 -220 0 -171 -3 -203 -19 -239 -20 -45 -49 -63 -101
-63 -53 0 -212 -29 -280 -50 -33 -10 -89 -24 -125 -31 -36 -7 -90 -25 -121
-40 -31 -16 -77 -33 -101 -39 -65 -17 -202 -135 -268 -232 l-40 -58 0 -107 c0
-105 1 -109 41 -190 33 -67 53 -93 107 -139 36 -31 90 -67 119 -81 29 -14 57
-31 64 -39 6 -8 43 -23 83 -35 39 -11 86 -30 103 -41 18 -11 81 -28 141 -39
60 -10 128 -26 153 -34 111 -40 247 -49 679 -49 369 1 430 4 550 22 74 12 155
28 180 37 25 9 79 20 120 26 41 6 99 21 129 35 30 13 81 31 115 40 34 8 81 28
106 44 25 15 55 31 67 35 13 3 41 22 64 41 22 19 45 34 49 34 5 0 37 28 72 63
70 67 140 177 158 245 6 24 27 60 46 81 l34 38 0 188 0 189 -30 25 c-22 19
-35 44 -49 95 -11 37 -28 80 -38 95 -11 14 -28 42 -38 61 -31 61 -214 247
-287 292 -27 17 -48 33 -48 38 0 5 -21 18 -47 31 -27 12 -61 33 -78 45 -16 12
-56 32 -87 44 -31 11 -68 30 -82 41 -13 11 -58 28 -98 38 -40 11 -98 31 -128
45 -32 14 -92 30 -144 37 -50 6 -115 20 -145 31 -71 25 -147 35 -391 49 -141
8 -199 15 -210 25 -11 11 -14 34 -12 93 l3 79 -46 51 c-25 29 -45 56 -45 61 0
6 -27 10 -60 10 -58 0 -59 -1 -75 -35z m497 -615 c37 1 91 -5 120 -13 72 -21
218 -48 306 -58 43 -5 93 -19 122 -34 27 -14 82 -32 120 -40 71 -15 123 -36
135 -55 3 -5 31 -17 61 -26 30 -8 67 -26 82 -38 15 -13 43 -31 62 -41 60 -31
185 -144 259 -235 31 -38 69 -123 108 -240 20 -61 12 -164 -16 -211 -11 -19
-27 -56 -35 -82 -8 -26 -27 -63 -43 -84 -16 -21 -37 -50 -46 -65 -15 -25 -84
-77 -160 -122 -18 -10 -51 -31 -73 -47 -23 -16 -66 -34 -95 -40 -30 -6 -66
-20 -81 -31 -38 -26 -66 -35 -198 -57 -63 -11 -142 -30 -175 -41 -81 -29 -289
-44 -600 -45 -289 0 -456 14 -580 50 -49 15 -112 31 -139 37 -73 14 -275 97
-314 127 -78 61 -135 118 -152 151 -31 61 -43 118 -31 152 37 105 191 197 369
219 53 7 116 11 139 11 23 -1 68 7 100 16 48 15 75 17 158 11 55 -4 116 -10
135 -14 30 -6 43 -1 90 30 117 78 124 111 58 244 l-42 85 -1 229 0 229 25 20
c23 19 33 20 145 14 66 -4 150 -7 187 -6z"/>
</g>
</svg>
