<?xml version="1.0" standalone="no"?>
<!DOCTYPE svg PUBLIC "-//W3C//DTD SVG 20010904//EN"
 "http://www.w3.org/TR/2001/REC-SVG-20010904/DTD/svg10.dtd">
<svg version="1.0" xmlns="http://www.w3.org/2000/svg"
 width="416.000000pt" height="480.000000pt" viewBox="0 0 416.000000 480.000000"
 preserveAspectRatio="xMidYMid meet">
<metadata>
Created by potrace 1.16, written by Peter Selinger 2001-2019
</metadata>
<rect x="0" y="0" width="416" height="480" fill="#ffffff"/>
<g transform="translate(0.000000,480.000000) scale(0.100000,-0.100000)"
fill="#000000" stroke="none">
<path d="M1957 4793 c-4 -3 -7 -14 -7 -23 0 -9 -12 -32 -26 -51 -43 -57 -46
-73 -22 -134 19 -51 20 -56 4 -80 -14 -21 -24 -25 -64 -25 -64 0 -206 -26
-267 -49 -28 -10 -86 -24 -130 -31 -46 -7 -103 -24 -135 -40 -30 -15 -80 -33
-110 -39 -30 -6 -75 -25 -99 -41 -25 -17 -62 -33 -84 -37 -21 -3 -60 -20 -85
-37 -26 -18 -66 -40 -89 -50 -23 -10 -50 -27 -60 -38 -9 -10 -37 -28 -61 -38
-24 -11 -61 -33 -81 -50 -20 -16 -63 -51 -96 -77 -118 -95 -250 -241 -303
-336 -13 -23 -32 -51 -42 -62 -11 -11 -26 -41 -35 -65 -9 -24 -26 -63 -40 -85
-24 -42 -85 -309 -85 -374 0 -18 9 -67 19 -109 11 -43 22 -96 26 -119 4 -24
17 -59 31 -78 13 -19 35 -60 49 -90 19 -40 60 -88 148 -176 67 -66 133 -127
147 -134 29 -15 188 -121 210 -140 8 -8 40 -23 72 -35 31 -11 61 -27 68 -35 7
-8 36 -23 66 -34 30 -12 71 -32 92 -45 20 -14 64 -32 97 -42 33 -9 77 -27 97
-40 20 -13 56 -28 80 -33 52 -12 109 -32 169 -59 24 -11 71 -27 104 -37 107
-30 177 -97 128 -123 -10 -5 -42 -15 -71 -21 -29 -6 -78 -24 -110 -40 -31 -15
-75 -34 -97 -41 -87 -28 -274 -151 -378 -250 -70 -66 -86 -88 -130 -179 l-50
-104 6 -103 c8 -136 51 -241 149 -364 68 -86 172 -186 218 -210 14 -7 38 -24
53 -37 16 -13 49 -28 73 -34 24 -6 60 -24 80 -40 21 -16 59 -33 92 -40 31 -6
86 -25 122 -41 36 -16 87 -34 114 -39 68 -13 183 -67 207 -97 10 -14 19 -33
19 -43 0 -17 8 -19 74 -19 73 0 74 0 87 31 22 56 70 69 249 69 143 0 169 3
325 38 150 34 255 71 341 121 41 23 129 98 184 157 67 72 105 144 137 265 17
63 17 63 -45 236 -32 88 -91 168 -152 205 -19 12 -47 32 -62 44 -15 12 -44 28
-65 34 -21 7 -53 24 -72 38 -32 24 -64 32 -289 77 -40 8 -77 17 -83 20 -5 4
-111 6 -234 6 l-223 -2 -21 27 c-18 23 -20 35 -15 107 7 106 14 126 66 191 48
60 77 81 142 100 24 7 59 25 77 38 19 14 48 30 65 37 69 27 174 192 174 273 0
60 -38 170 -70 203 -32 33 -38 56 -17 73 6 5 77 13 157 16 153 6 247 16 345
35 151 31 203 40 250 46 28 4 74 17 104 31 30 13 81 31 115 40 34 8 78 26 98
40 21 13 60 32 88 43 59 23 99 52 189 142 91 92 112 120 161 224 66 141 84
298 55 489 -11 72 -25 119 -50 170 -19 39 -35 75 -35 79 0 4 -25 40 -56 80
-31 39 -71 93 -90 119 -19 25 -49 56 -67 67 -18 11 -70 50 -116 86 -47 36 -90
65 -97 65 -7 0 -31 16 -54 35 -23 19 -60 40 -83 46 -23 6 -62 24 -87 39 -25
16 -70 34 -100 41 -30 6 -84 24 -119 40 -35 16 -94 34 -130 39 -36 6 -100 21
-141 34 -96 31 -218 46 -454 54 -223 9 -218 6 -209 112 5 59 3 72 -16 98 -12
17 -28 47 -36 66 l-15 36 -78 0 c-43 0 -82 -3 -85 -7z m1 -649 c23 -16 23 -17
20 -228 -3 -198 -4 -213 -25 -247 -30 -47 -59 -59 -173 -70 -109 -11 -208 -32
-248 -53 -15 -8 -63 -19 -107 -26 -59 -8 -91 -19 -120 -40 -22 -15 -59 -33
-82 -39 -23 -6 -55 -22 -70 -35 -15 -13 -41 -30 -58 -39 -57 -29 -126 -111
-147 -173 -34 -100 -35 -178 -3 -282 25 -81 33 -95 84 -145 80 -79 121 -111
161 -127 19 -8 52 -26 73 -41 20 -15 61 -33 90 -39 28 -7 73 -24 98 -37 26
-13 93 -32 155 -43 225 -39 298 -60 317 -94 13 -24 24 -125 33 -313 5 -116 4
-136 -11 -159 -16 -24 -21 -26 -68 -21 -193 21 -290 38 -362 65 -44 16 -107
35 -140 42 -33 7 -85 25 -115 40 -30 15 -79 35 -108 44 -29 8 -77 28 -105 45
-29 16 -63 32 -77 36 -14 4 -45 20 -70 36 -25 16 -64 35 -85 43 -86 30 -280
171 -395 286 -135 135 -167 191 -224 391 -22 76 -21 94 15 238 23 92 40 140
65 176 18 28 36 62 39 77 4 14 21 44 39 65 17 21 44 55 59 75 35 47 195 208
206 208 5 0 27 15 49 33 22 19 55 40 73 47 19 7 48 25 64 40 17 15 48 33 70
40 22 7 69 27 105 45 36 18 83 36 105 40 22 3 69 19 105 35 36 15 85 31 110
35 88 13 255 46 286 55 35 12 184 27 284 29 46 1 72 -4 88 -15z m685 -7 c32
-14 181 -45 297 -62 25 -4 74 -20 110 -35 36 -16 83 -32 105 -36 42 -7 89 -27
115 -49 8 -7 39 -20 67 -29 29 -10 55 -22 58 -27 3 -5 32 -24 63 -42 95 -56
270 -225 297 -287 9 -19 22 -46 30 -60 46 -78 49 -94 50 -210 0 -111 -1 -117
-31 -170 -18 -30 -37 -72 -43 -92 -14 -42 -94 -130 -166 -182 -56 -40 -261
-146 -283 -146 -7 0 -44 -13 -82 -30 -37 -16 -99 -34 -138 -40 -39 -5 -91 -17
-116 -25 -83 -28 -276 -55 -406 -55 -69 -1 -147 -5 -173 -9 -73 -12 -144 3
-186 39 -96 82 -211 89 -326 18 -36 -22 -75 -23 -141 -3 -28 8 -93 23 -144 34
-56 11 -119 32 -154 50 -32 17 -65 31 -73 31 -9 0 -42 18 -75 40 -33 22 -63
40 -67 40 -4 0 -30 27 -59 60 -45 50 -55 70 -64 120 -9 45 -8 69 1 100 16 53
72 116 117 130 19 7 54 23 78 36 70 39 264 67 521 73 216 6 221 6 273 34 62
32 95 78 88 122 -2 17 -18 68 -36 115 -48 127 -50 140 -50 342 l0 187 28 22
c27 21 31 21 253 16 166 -4 236 -10 262 -20z m-421 -1810 c112 -41 219 -144
218 -211 -1 -55 -120 -182 -195 -206 -22 -7 -53 -23 -68 -36 -37 -31 -62 -30
-83 2 -15 22 -16 47 -10 215 7 185 15 236 39 251 18 12 31 10 99 -15z m-287
-673 c32 -13 44 -58 47 -177 2 -94 0 -119 -12 -132 -9 -8 -81 -31 -160 -51
-80 -20 -163 -46 -185 -59 -22 -12 -63 -30 -92 -39 -28 -9 -57 -24 -64 -32 -7
-9 -29 -24 -48 -34 -48 -24 -196 -183 -212 -228 -3 -10 -12 -55 -18 -101 -10
-64 -10 -95 -1 -132 28 -116 -20 -134 -98 -37 -94 120 -119 167 -142 268 l-22
96 20 76 c22 86 70 158 154 229 71 59 174 126 217 140 20 7 53 23 73 35 47 30
289 119 348 129 25 4 65 18 90 31 46 24 76 29 105 18z m385 -464 c47 -5 119
-21 160 -35 41 -14 95 -30 120 -36 24 -6 59 -21 77 -35 18 -14 52 -32 75 -40
24 -8 54 -25 68 -38 14 -13 45 -36 68 -50 24 -15 51 -41 60 -57 10 -17 32 -54
50 -82 18 -29 32 -65 32 -82 0 -63 -156 -231 -242 -260 -24 -9 -65 -27 -91
-41 -27 -14 -76 -32 -108 -40 -33 -8 -74 -21 -90 -30 -42 -21 -187 -44 -285
-44 -66 0 -86 4 -105 19 l-24 19 -7 393 c-6 390 -4 421 26 441 15 11 116 10
216 -2z m-342 -50 c10 -19 12 -61 7 -183 -3 -87 -10 -183 -16 -215 -5 -31 -9
-120 -9 -197 0 -171 -6 -185 -80 -185 -27 0 -61 5 -77 11 -15 5 -59 17 -97 25
-41 8 -83 25 -102 39 -18 14 -52 34 -76 44 -28 12 -64 43 -104 89 -131 150
-109 263 82 433 47 41 177 106 241 119 32 7 78 21 103 31 62 25 111 21 128
-11z"/>
</g>
</svg>
