<?xml version="1.0" standalone="no"?>
<!DOCTYPE svg PUBLIC "-//W3C//DTD SVG 20010904//EN"
 "http://www.w3.org/TR/2001/REC-SVG-20010904/DTD/svg10.dtd">
<svg version="1.0" xmlns="http://www.w3.org/2000/svg"
 width="408.000000pt" height="544.000000pt" viewBox="0 0 408.000000 544.000000"
 preserveAspectRatio="xMidYMid meet">
<metadata>
Created by potrace 1.16, written by Peter Selinger 2001-2019
</metadata>
<rect x="0" y="0" width="408" height="544" fill="#ffffff"/>
<g transform="translate(0.000000,544.000000) scale(0.100000,-0.100000)"
fill="#000000" stroke="none">
<path d="M1910 5422 c0 -10 -14 -40 -31 -65 -34 -51 -36 -89 -8 -155 18 -43 4
-64 -47 -75 -21 -5 -111 -26 -199 -47 -88 -21 -182 -41 -210 -45 -27 -4 -75
-20 -105 -36 -31 -16 -83 -34 -115 -40 -34 -6 -79 -23 -103 -39 -24 -16 -68
-34 -98 -40 -30 -6 -67 -22 -83 -36 -16 -13 -47 -31 -69 -38 -22 -8 -61 -30
-87 -50 -25 -20 -53 -36 -61 -36 -8 0 -31 -15 -51 -34 -21 -18 -55 -41 -75
-51 -49 -23 -293 -267 -320 -319 -11 -23 -33 -54 -48 -71 -40 -44 -89 -140
-111 -219 -22 -78 -55 -147 -75 -159 -21 -12 -20 -332 1 -340 18 -8 51 -72 66
-132 28 -113 239 -348 414 -462 55 -36 119 -78 142 -94 23 -16 45 -29 50 -29
5 0 36 -16 69 -36 32 -20 82 -44 111 -54 29 -10 71 -30 95 -43 24 -14 63 -31
88 -37 24 -7 74 -27 110 -45 36 -17 76 -35 90 -38 33 -8 151 -85 170 -111 33
-46 108 -109 160 -133 30 -14 65 -34 76 -45 12 -11 48 -26 80 -34 78 -21 170
-69 190 -99 23 -35 14 -130 -15 -159 -18 -18 -32 -20 -108 -18 -127 3 -439
-47 -517 -83 -32 -15 -76 -33 -98 -41 -21 -7 -53 -24 -71 -37 -17 -14 -50 -34
-72 -45 -73 -38 -147 -120 -195 -216 -44 -86 -45 -92 -45 -181 0 -82 3 -96 26
-131 14 -21 36 -61 47 -87 24 -55 109 -145 162 -172 19 -10 50 -31 68 -46 18
-16 39 -29 46 -29 7 0 48 -18 92 -39 51 -25 111 -45 169 -56 50 -9 117 -26
150 -37 33 -11 83 -22 110 -23 187 -11 226 -17 242 -42 36 -54 25 -323 -18
-475 -23 -79 -23 -97 -3 -123 8 -11 19 -36 25 -57 l10 -38 79 0 c68 0 80 3 80
17 0 9 14 39 32 66 35 55 35 56 -12 182 -20 51 -24 85 -28 231 -4 168 -4 170
19 197 21 24 39 31 129 47 58 10 123 25 145 33 22 8 72 20 110 27 39 7 93 25
121 40 28 16 69 33 92 39 23 7 54 23 71 36 16 14 46 32 66 41 85 35 230 166
311 281 47 66 94 209 94 286 0 71 -45 191 -94 251 -71 89 -223 195 -327 231
-37 13 -78 30 -91 39 -48 31 -276 103 -459 145 -111 26 -167 61 -155 98 9 28
36 37 113 35 95 -3 202 16 248 42 22 13 58 29 80 35 71 19 216 157 237 225 10
34 9 172 -2 200 -14 38 -88 115 -132 137 -40 20 -61 48 -50 66 16 24 56 33
145 33 53 0 115 6 143 15 28 8 126 25 220 39 132 18 182 30 222 50 29 15 79
32 110 37 31 6 73 21 92 34 19 13 55 31 80 40 25 9 58 29 75 44 16 16 46 37
67 47 42 22 139 128 167 183 11 20 27 43 35 50 9 7 25 44 36 81 14 49 29 76
50 94 l30 25 0 205 c0 197 -1 205 -20 211 -28 9 -47 41 -60 103 -7 29 -22 65
-34 80 -12 15 -34 47 -48 72 -51 87 -281 303 -351 329 -14 5 -39 23 -56 40
-17 17 -50 35 -73 42 -23 6 -61 24 -83 40 -22 15 -62 33 -88 39 -26 6 -71 23
-100 39 -34 19 -79 33 -130 41 -43 6 -108 22 -146 35 -89 31 -165 43 -325 50
-72 4 -165 12 -206 20 -41 7 -97 13 -124 12 -63 -1 -76 16 -76 101 0 48 -7 77
-27 122 l-28 59 -97 1 c-88 0 -98 -2 -98 -18z m8 -627 c14 -17 24 -56 33 -127
22 -178 -11 -366 -72 -398 -11 -6 -83 -18 -159 -25 -156 -16 -176 -20 -240
-48 -25 -10 -82 -28 -128 -38 -48 -10 -96 -28 -115 -42 -17 -14 -50 -30 -71
-37 -22 -7 -72 -37 -110 -66 -97 -73 -166 -184 -173 -277 -7 -78 10 -158 40
-200 13 -18 29 -46 36 -64 21 -52 161 -172 226 -193 21 -7 56 -25 77 -41 22
-15 58 -31 81 -34 23 -4 76 -20 118 -36 42 -15 112 -32 155 -38 129 -18 161
-57 77 -92 -134 -55 -194 -94 -259 -166 -45 -50 -70 -88 -82 -124 -9 -29 -24
-57 -33 -62 -26 -16 -258 67 -394 140 -16 9 -59 32 -95 50 -177 90 -342 204
-445 309 -93 94 -138 158 -183 257 -35 79 -37 87 -40 217 -3 116 -1 143 16
190 52 142 72 187 99 220 16 19 36 46 43 60 48 92 233 277 346 346 19 11 47
32 62 46 15 14 48 32 74 41 26 9 62 27 80 40 18 13 57 32 86 42 29 9 72 27 95
40 23 13 70 28 104 35 34 6 99 24 145 39 63 22 117 32 228 41 80 7 146 13 147
14 1 0 49 2 107 3 101 2 106 1 124 -22z m557 6 c166 -16 254 -30 322 -52 34
-11 89 -24 121 -29 33 -4 91 -22 130 -39 38 -17 93 -36 121 -42 28 -6 66 -21
85 -34 19 -13 56 -33 83 -45 26 -11 59 -32 73 -44 14 -13 43 -33 66 -44 47
-24 175 -149 211 -207 14 -22 34 -49 44 -60 20 -22 69 -196 69 -244 0 -17 -9
-66 -19 -109 -11 -42 -22 -89 -25 -103 -7 -31 -61 -101 -138 -177 -85 -84
-122 -112 -180 -133 -29 -11 -78 -33 -108 -48 -30 -16 -73 -32 -95 -36 -22 -4
-70 -20 -107 -36 -46 -20 -102 -34 -180 -44 -62 -8 -126 -19 -143 -25 -105
-33 -225 -43 -525 -44 -313 -1 -379 5 -520 44 -36 10 -98 23 -138 29 -40 6
-95 22 -121 36 -27 13 -76 30 -109 38 -40 9 -73 25 -97 46 -20 17 -42 31 -50
31 -25 0 -118 91 -153 149 -52 86 -53 116 -2 190 24 35 55 68 69 74 14 6 43
24 63 40 27 20 56 31 102 38 36 5 82 15 103 23 67 27 183 39 408 45 139 4 227
10 240 18 11 6 34 25 50 43 25 27 30 39 30 83 0 43 -6 63 -34 105 -32 50 -34
61 -44 180 -5 71 -7 179 -2 246 10 158 6 154 166 151 68 -2 174 -8 234 -14z
m-138 -1812 c15 -5 59 -17 98 -25 49 -10 79 -23 100 -43 16 -15 45 -38 63 -50
35 -24 72 -87 72 -121 0 -40 -39 -99 -81 -122 -101 -57 -125 -68 -147 -68 -13
0 -68 -11 -123 -25 -113 -29 -108 -30 -202 42 -77 60 -107 63 -189 23 -62 -29
-68 -30 -99 -17 -19 8 -60 39 -91 69 -51 47 -58 58 -58 92 0 32 8 47 43 85 66
72 126 113 207 143 69 25 87 27 227 27 84 1 164 -4 180 -10z m-825 -284 c9
-19 8 -29 -6 -50 -9 -14 -23 -25 -31 -25 -20 0 -30 46 -16 76 14 31 38 31 53
-1z m87 -180 c11 -19 33 -41 49 -49 16 -8 36 -26 46 -40 12 -20 28 -27 67 -32
49 -7 89 -31 89 -54 0 -36 -120 -29 -150 8 -9 11 -36 30 -61 42 -59 30 -129
98 -129 127 0 25 24 43 51 36 10 -3 27 -20 38 -38z m585 -416 c15 -12 63 -28
114 -39 48 -10 112 -29 143 -43 31 -14 72 -28 90 -32 39 -9 170 -72 307 -148
116 -64 242 -225 242 -307 0 -41 -39 -138 -77 -190 -18 -25 -38 -53 -45 -63
-8 -11 -31 -21 -56 -24 l-43 -6 7 79 c6 78 5 80 -39 174 -50 107 -129 198
-214 245 -26 15 -66 40 -89 56 -22 15 -67 34 -100 43 -32 9 -81 27 -108 41
-27 14 -66 25 -85 25 -60 1 -115 18 -135 42 -14 18 -17 35 -14 80 2 31 10 63
17 72 18 22 53 20 85 -5z m-275 -285 c21 -15 23 -22 18 -73 -13 -122 -23 -131
-167 -150 -53 -7 -95 -18 -110 -30 -15 -10 -48 -30 -75 -44 -47 -24 -145 -111
-145 -128 0 -5 -15 -25 -32 -45 l-33 -37 0 -129 c0 -140 -3 -148 -57 -148 -18
0 -42 13 -65 34 -21 18 -52 36 -69 40 -34 8 -119 91 -173 169 -31 45 -33 54
-28 105 7 80 59 165 142 234 35 30 81 60 102 67 21 8 54 24 73 37 19 12 55 28
80 34 25 6 70 20 100 32 124 46 391 65 439 32z m381 -41 c142 -44 284 -119
355 -187 40 -38 62 -71 89 -133 38 -86 43 -112 26 -144 -24 -44 -86 -15 -119
56 -13 28 -34 53 -53 63 -17 9 -46 29 -63 45 -18 15 -51 33 -73 41 -22 8 -57
26 -79 40 -24 16 -63 29 -108 35 -130 19 -151 34 -173 123 -16 62 -15 65 9 89
24 24 22 24 189 -28z m96 -473 c114 -56 174 -119 174 -181 0 -47 -35 -89 -73
-89 -30 0 -195 -43 -224 -58 -36 -20 -68 -14 -99 19 -37 39 -114 79 -154 79
-42 0 -104 -34 -151 -81 -33 -34 -44 -39 -84 -39 -53 0 -72 9 -133 58 -45 37
-82 96 -82 132 0 12 14 42 31 67 24 35 46 52 98 75 147 68 135 66 381 64 l225
-2 91 -44z"/>
</g>
</svg>
