<?xml version="1.0" standalone="no"?>
<!DOCTYPE svg PUBLIC "-//W3C//DTD SVG 20010904//EN"
 "http://www.w3.org/TR/2001/REC-SVG-20010904/DTD/svg10.dtd">
<svg version="1.0" xmlns="http://www.w3.org/2000/svg"
 width="408.000000pt" height="512.000000pt" viewBox="0 0 408.000000 512.000000"
 preserveAspectRatio="xMidYMid meet">
<metadata>
Created by potrace 1.16, written by Peter Selinger 2001-2019
</metadata>
<rect x="0" y="0" width="408" height="512" fill="#ffffff"/>
<g transform="translate(0.000000,512.000000) scale(0.100000,-0.100000)"
fill="#000000" stroke="none">
<path d="M1940 5103 c0 -10 -7 -37 -17 -61 -13 -36 -14 -54 -6 -110 6 -37 7
-77 2 -89 -10 -28 -63 -43 -149 -43 -90 0 -178 -16 -274 -49 -44 -15 -98 -31
-118 -35 -21 -4 -51 -18 -67 -32 -16 -13 -49 -31 -72 -40 -24 -8 -55 -25 -69
-38 -14 -13 -41 -32 -60 -41 -19 -10 -61 -45 -93 -79 -32 -33 -71 -75 -87 -92
-17 -17 -39 -56 -49 -85 -11 -30 -28 -74 -39 -99 -43 -97 -39 -168 19 -321 27
-70 42 -93 93 -144 34 -33 92 -77 128 -98 96 -53 276 -115 372 -127 44 -5 113
-17 151 -25 81 -17 419 -21 475 -5 19 5 81 16 137 24 68 9 143 29 220 57 113
42 121 46 194 119 81 80 99 119 99 213 0 79 -25 130 -88 179 -31 25 -62 47
-68 51 -18 10 -231 63 -310 76 -126 22 -167 65 -167 181 -1 62 13 106 37 122
19 13 128 9 186 -7 30 -8 100 -19 155 -26 78 -8 111 -17 150 -39 28 -15 70
-34 95 -40 25 -6 56 -22 70 -35 14 -12 39 -30 55 -38 56 -28 160 -141 215
-232 51 -86 54 -94 58 -172 3 -47 -1 -103 -7 -130 -23 -91 -132 -212 -266
-296 -72 -45 -246 -133 -281 -141 -16 -4 -59 -21 -96 -37 -37 -16 -100 -36
-140 -43 -40 -8 -100 -24 -133 -35 -33 -12 -86 -26 -118 -32 -44 -8 -68 -20
-103 -50 -48 -42 -106 -63 -216 -78 -37 -5 -72 -12 -78 -16 -6 -4 -60 -13
-120 -21 -61 -8 -146 -27 -193 -44 -46 -16 -109 -35 -138 -41 -30 -6 -73 -21
-96 -34 -23 -13 -66 -31 -95 -40 -29 -10 -73 -30 -98 -46 -25 -16 -66 -35 -90
-44 -25 -9 -56 -26 -70 -39 -14 -12 -40 -29 -59 -36 -19 -8 -54 -31 -78 -52
-24 -21 -48 -38 -52 -38 -12 0 -260 -252 -280 -285 -10 -16 -28 -38 -39 -49
-12 -10 -26 -35 -33 -55 -6 -20 -22 -47 -35 -61 -34 -37 -103 -214 -119 -309
-18 -100 -19 -184 -4 -323 10 -91 17 -115 60 -204 27 -56 56 -107 65 -114 8
-8 22 -27 31 -44 9 -17 43 -57 77 -89 34 -31 75 -70 91 -86 17 -15 40 -33 52
-40 12 -6 43 -29 68 -51 25 -22 51 -40 57 -40 6 0 31 -15 57 -34 25 -18 57
-37 71 -41 14 -4 44 -21 67 -38 23 -16 66 -40 95 -52 29 -13 107 -46 173 -75
66 -29 140 -59 165 -67 25 -8 68 -24 95 -35 28 -12 84 -32 125 -45 41 -14 96
-36 122 -49 26 -14 71 -32 99 -40 29 -9 68 -26 88 -38 20 -13 46 -26 59 -30
12 -4 36 -19 52 -33 28 -23 30 -29 30 -94 0 -59 5 -78 30 -122 17 -30 30 -61
30 -70 0 -15 13 -17 100 -17 94 0 100 1 100 20 0 11 19 41 43 67 l42 46 -3 79
c-2 43 -7 90 -12 104 -6 14 -10 42 -10 62 0 42 -38 129 -65 152 -13 10 -43 15
-99 16 -194 2 -402 30 -502 68 -22 8 -64 20 -94 27 -30 6 -72 20 -94 31 -21
11 -68 30 -105 42 -89 31 -271 113 -292 132 -9 8 -33 19 -52 25 -20 5 -57 24
-84 42 -26 18 -60 38 -74 44 -15 6 -42 24 -60 40 -19 16 -47 37 -62 47 -50 31
-198 179 -241 242 -24 33 -62 100 -85 147 -37 76 -43 98 -48 175 -6 96 6 170
39 236 11 22 26 61 34 87 8 26 25 61 38 76 13 15 31 44 41 63 10 19 32 53 49
75 40 51 245 255 257 255 4 0 24 14 43 30 18 17 54 39 78 50 24 10 52 28 62
39 11 12 44 30 75 41 31 12 81 34 112 50 31 17 65 30 74 30 10 0 52 15 94 34
42 19 114 41 161 50 47 9 121 27 165 41 81 26 308 52 346 40 11 -4 31 -27 46
-52 24 -42 26 -54 25 -142 -2 -88 -5 -100 -35 -150 -17 -30 -43 -62 -57 -72
-15 -11 -90 -30 -194 -50 -159 -29 -385 -99 -424 -132 -7 -6 -39 -24 -71 -41
-83 -44 -205 -140 -229 -178 -12 -18 -32 -44 -46 -57 -13 -13 -42 -62 -62
-110 -36 -80 -38 -93 -38 -181 0 -87 2 -102 35 -176 64 -144 181 -264 340
-350 32 -17 64 -35 71 -41 7 -6 63 -30 123 -53 110 -41 236 -74 350 -91 33 -5
73 -14 89 -19 16 -6 140 -10 281 -10 222 0 261 2 316 19 35 11 109 27 164 36
62 10 123 27 160 45 33 16 79 34 102 40 23 6 55 22 72 35 16 14 45 32 65 40
19 8 50 28 68 43 18 16 50 39 71 51 20 13 42 31 47 40 5 10 25 38 45 61 40 48
115 196 115 227 0 11 10 35 23 53 23 34 86 62 211 96 33 8 73 26 90 38 17 13
47 29 67 35 20 7 45 21 55 32 11 12 38 32 61 46 23 13 59 47 80 75 21 28 44
58 50 67 41 55 37 336 -6 404 -11 18 -31 52 -45 77 -42 76 -188 215 -279 266
-24 13 -52 33 -62 44 -9 10 -34 25 -53 31 -20 7 -54 25 -76 40 -21 16 -44 29
-51 29 -6 0 -48 18 -92 40 -45 22 -113 47 -152 55 -39 8 -97 26 -130 40 -34
14 -98 29 -152 35 -52 6 -119 18 -149 25 -30 8 -102 21 -158 30 -111 16 -142
27 -142 50 0 21 37 41 110 60 36 9 83 27 105 39 22 13 58 29 80 36 22 7 54 23
71 35 16 13 53 34 81 48 110 53 280 217 323 312 71 157 76 260 17 405 -52 129
-132 244 -234 338 -100 92 -137 120 -184 140 -24 11 -52 29 -63 40 -10 12 -41
29 -69 38 -28 9 -69 30 -90 45 -21 16 -63 33 -95 39 -31 6 -83 22 -114 35 -32
14 -88 29 -125 35 -119 19 -131 34 -98 113 22 52 19 97 -11 161 l-25 56 -85 0
c-73 0 -84 -2 -84 -17z m20 -603 c30 -30 23 -111 -21 -271 -11 -36 -19 -77
-19 -91 0 -30 33 -61 82 -79 32 -11 45 -10 91 4 65 21 106 21 218 3 94 -15
216 -69 243 -108 9 -12 16 -42 16 -65 0 -126 -212 -221 -570 -255 -207 -20
-358 -13 -605 31 -215 38 -371 132 -427 258 -29 66 -29 194 1 256 35 71 180
197 252 218 24 7 61 24 81 37 36 23 104 37 306 61 40 5 76 12 79 15 4 3 62 6
130 6 110 0 125 -2 143 -20z m447 -1672 c23 -5 77 -11 120 -13 161 -4 316 -26
403 -56 47 -16 113 -34 148 -39 35 -5 89 -22 120 -38 31 -16 82 -37 113 -45
30 -9 64 -25 73 -36 10 -11 41 -28 68 -37 28 -9 59 -25 69 -35 10 -10 38 -30
61 -45 82 -52 160 -127 184 -179 13 -27 33 -66 44 -85 28 -47 22 -91 -23 -160
-35 -55 -128 -150 -146 -150 -6 0 -25 -13 -43 -29 -18 -15 -51 -34 -73 -41
-22 -7 -49 -20 -60 -30 -31 -27 -58 -38 -77 -31 -21 8 -91 106 -106 150 -10
29 -58 81 -173 187 -14 13 -45 32 -70 43 -25 11 -53 29 -63 40 -10 11 -41 28
-70 37 -28 9 -80 29 -116 44 -58 25 -141 45 -295 70 -27 4 -74 16 -103 25 -34
11 -68 16 -95 12 -55 -8 -118 7 -131 30 -6 10 -24 51 -40 91 l-29 73 17 92
c18 94 44 148 81 166 23 11 151 5 212 -11z m-609 -645 c11 -10 28 -45 37 -78
21 -74 31 -85 114 -131 93 -52 127 -50 212 9 56 40 70 55 89 101 24 60 54 86
99 86 47 0 160 -29 210 -54 25 -13 64 -29 86 -36 22 -7 54 -23 70 -35 17 -12
46 -30 65 -40 54 -28 148 -115 188 -174 60 -87 71 -113 78 -183 10 -100 -1
-148 -44 -198 -65 -76 -146 -150 -187 -172 -22 -11 -52 -31 -67 -44 -15 -12
-42 -25 -60 -29 -18 -4 -67 -22 -109 -41 -69 -31 -107 -40 -289 -74 -211 -38
-241 -42 -336 -37 -54 3 -117 9 -139 15 -22 6 -101 22 -175 36 -338 63 -599
234 -667 436 -15 44 -16 144 -3 192 25 90 125 216 210 266 25 14 62 38 83 53
21 15 53 31 70 35 18 3 58 20 89 36 34 18 89 35 140 43 46 7 94 18 108 24 41
16 106 13 128 -6z"/>
</g>
</svg>
