<?xml version="1.0" standalone="no"?>
<!DOCTYPE svg PUBLIC "-//W3C//DTD SVG 20010904//EN"
 "http://www.w3.org/TR/2001/REC-SVG-20010904/DTD/svg10.dtd">
<svg version="1.0" xmlns="http://www.w3.org/2000/svg"
 width="408.000000pt" height="640.000000pt" viewBox="0 0 408.000000 640.000000"
 preserveAspectRatio="xMidYMid meet">
<metadata>
Created by potrace 1.16, written by Peter Selinger 2001-2019
</metadata>
<rect x="0" y="0" width="408" height="640" fill="#ffffff"/>
<g transform="translate(0.000000,640.000000) scale(0.100000,-0.100000)"
fill="#000000" stroke="none">
<path d="M1917 6343 c-4 -32 -1 -83 5 -115 10 -49 9 -59 -5 -82 -15 -23 -24
-26 -72 -26 -29 0 -65 -4 -78 -9 -13 -5 -78 -17 -143 -26 -71 -10 -143 -26
-179 -41 -33 -14 -86 -34 -119 -44 -32 -11 -68 -28 -80 -38 -11 -11 -37 -28
-56 -37 -62 -31 -199 -155 -266 -241 -76 -96 -130 -292 -105 -376 48 -159 144
-283 276 -356 39 -21 79 -43 90 -50 18 -10 170 -53 320 -89 44 -11 133 -15
335 -16 304 -2 409 8 498 48 32 13 79 29 106 35 104 23 257 151 275 230 14 60
14 144 0 191 -16 51 -99 122 -167 142 -28 9 -60 20 -71 27 -28 14 -196 50
-238 50 -52 0 -100 25 -119 62 -12 22 -19 63 -22 123 -4 81 -2 92 17 109 18
16 32 18 113 13 51 -3 120 -13 153 -21 134 -32 192 -45 226 -51 21 -3 54 -17
75 -31 21 -15 59 -33 84 -40 26 -8 57 -25 71 -40 13 -14 41 -35 61 -46 51 -29
118 -118 173 -232 l47 -96 -4 -94 c-3 -88 -5 -97 -37 -142 -73 -103 -176 -200
-257 -242 -21 -11 -54 -32 -73 -46 -18 -14 -47 -28 -65 -32 -17 -4 -59 -22
-94 -40 -35 -19 -70 -34 -78 -34 -8 0 -54 -15 -102 -34 -48 -19 -109 -37 -137
-41 -77 -11 -216 -45 -247 -61 -15 -8 -50 -35 -78 -59 -48 -42 -54 -45 -110
-45 -61 0 -102 -7 -265 -46 -55 -13 -135 -30 -177 -38 -42 -8 -108 -28 -145
-44 -37 -16 -86 -33 -108 -37 -22 -3 -60 -19 -85 -35 -25 -15 -70 -35 -101
-44 -31 -9 -62 -23 -70 -32 -7 -8 -39 -29 -70 -45 -32 -16 -60 -33 -64 -39 -3
-6 -25 -20 -48 -32 -23 -11 -62 -37 -86 -57 -80 -65 -282 -265 -303 -301 -12
-19 -34 -50 -50 -68 -15 -18 -28 -39 -28 -46 0 -7 -15 -33 -33 -57 -19 -25
-51 -95 -76 -164 -36 -102 -44 -138 -52 -240 -13 -177 6 -302 63 -416 24 -47
57 -103 73 -124 55 -71 256 -265 310 -299 29 -19 56 -39 60 -45 3 -6 21 -17
39 -25 18 -7 53 -29 78 -48 25 -20 59 -39 75 -42 15 -4 43 -19 62 -33 18 -14
53 -31 77 -39 24 -7 63 -24 86 -38 24 -14 72 -36 108 -49 36 -14 92 -36 125
-50 33 -15 79 -31 101 -37 73 -18 117 -69 90 -104 -6 -9 -49 -25 -96 -37 -47
-11 -96 -29 -110 -39 -15 -10 -49 -29 -77 -44 -28 -14 -55 -30 -58 -36 -4 -6
-25 -23 -48 -37 -93 -58 -216 -216 -236 -304 -14 -59 -14 -255 0 -319 6 -30
23 -65 39 -83 15 -18 34 -46 43 -62 14 -28 70 -83 166 -163 22 -18 57 -38 78
-44 21 -6 56 -23 78 -39 22 -16 64 -33 94 -39 30 -6 79 -22 110 -35 69 -32
140 -42 359 -51 168 -7 174 -8 189 -31 14 -21 14 -27 -5 -71 -29 -68 -45 -157
-37 -211 11 -82 10 -81 76 -81 54 0 63 3 93 34 26 25 52 38 112 54 116 30 281
89 312 111 15 10 59 28 97 40 39 12 81 30 93 41 13 11 41 24 62 30 22 6 52 21
67 34 15 13 48 33 73 46 57 29 166 125 241 212 60 69 67 87 104 246 l17 74
-37 126 c-24 80 -48 140 -65 162 -15 19 -35 51 -45 70 -42 82 -156 195 -240
238 -22 11 -48 29 -59 41 -10 11 -41 28 -69 37 -28 9 -69 30 -91 45 -23 16
-63 33 -91 38 -27 5 -75 21 -105 34 -30 14 -88 31 -128 38 -64 11 -77 17 -99
45 -33 43 -78 57 -184 55 -49 0 -101 4 -116 10 -15 7 -59 15 -98 19 -162 18
-343 53 -400 77 -33 14 -86 32 -118 39 -31 8 -79 25 -105 38 -26 13 -72 31
-102 41 -30 10 -77 30 -105 45 -27 16 -66 33 -86 39 -20 7 -45 21 -55 33 -11
11 -44 31 -74 45 -30 13 -65 34 -78 45 -12 12 -37 31 -56 42 -129 79 -309 266
-340 354 -8 21 -27 62 -42 92 -25 48 -29 68 -32 160 -3 89 -1 114 18 165 12
33 33 91 46 128 13 38 37 86 54 107 16 21 30 43 30 49 0 6 19 33 43 60 23 28
62 75 87 105 25 30 69 74 99 98 29 24 70 57 90 74 20 17 51 39 70 49 19 9 52
30 74 46 22 16 45 29 52 29 6 0 33 14 59 32 26 17 79 39 117 50 39 10 87 29
107 43 21 13 70 31 112 39 41 8 109 26 150 41 41 14 115 30 165 36 49 5 115
16 146 24 31 8 76 15 99 15 36 0 48 -6 81 -39 l39 -39 0 -117 0 -117 -36 -59
c-20 -32 -44 -61 -53 -64 -9 -3 -57 -11 -106 -19 -136 -21 -352 -80 -420 -114
-33 -16 -71 -32 -85 -35 -25 -6 -170 -99 -247 -159 -99 -78 -201 -265 -210
-388 -5 -58 -1 -78 31 -165 50 -135 47 -130 136 -224 79 -83 145 -132 230
-171 25 -12 76 -37 114 -56 37 -19 74 -34 82 -34 7 0 48 -14 90 -30 79 -32
230 -60 320 -60 28 0 71 -7 94 -15 51 -18 305 -21 360 -4 19 5 82 14 140 20
138 12 205 26 261 54 25 12 68 27 95 33 52 11 239 103 258 126 6 7 22 21 36
30 14 9 63 53 108 99 69 68 91 97 123 166 21 46 44 102 50 124 14 54 47 83
100 92 63 9 110 25 141 47 15 10 53 28 85 39 31 10 66 28 78 38 11 10 36 27
55 39 53 32 157 142 175 186 23 54 31 206 16 291 -18 104 -67 182 -188 303
-56 56 -107 102 -113 102 -5 0 -27 15 -47 34 -21 18 -61 45 -90 60 -28 14 -54
30 -57 35 -4 5 -30 17 -59 27 -28 9 -70 30 -92 45 -22 16 -65 34 -95 40 -30 6
-85 24 -121 40 -36 15 -99 33 -140 39 -41 6 -108 22 -149 35 -84 27 -222 45
-320 43 -93 -2 -137 27 -94 63 10 8 51 27 93 42 42 16 105 39 140 52 35 13 71
31 80 39 9 8 37 24 62 35 25 11 63 34 85 52 21 17 55 39 74 49 19 10 44 28 55
40 11 12 32 28 47 36 15 8 35 29 44 47 9 17 27 43 39 57 13 14 42 67 65 118
40 89 41 96 37 175 -5 105 -54 245 -119 343 -48 73 -224 248 -293 292 -22 14
-50 35 -62 47 -12 12 -42 27 -65 34 -24 8 -61 26 -83 41 -22 16 -60 34 -85 40
-24 7 -70 25 -102 41 -43 22 -81 32 -152 39 -104 11 -143 24 -151 51 -4 10 -1
45 6 78 7 36 9 86 4 126 l-7 65 -112 0 -113 0 -6 -57z m43 -513 c28 -15 34
-63 16 -138 -9 -37 -25 -107 -36 -156 -24 -100 -20 -139 16 -163 25 -16 34
-16 225 3 97 10 227 -18 302 -64 71 -43 87 -65 87 -115 0 -32 -8 -46 -47 -88
-48 -49 -115 -82 -253 -125 -141 -43 -515 -57 -748 -28 -163 20 -198 28 -309
71 -143 56 -228 140 -259 256 -19 70 -18 93 7 172 19 61 29 76 101 146 44 42
92 80 107 84 14 4 45 19 69 35 24 16 62 31 85 35 72 10 190 36 242 53 74 23
362 40 395 22z m562 -1694 c82 -16 286 -50 396 -66 41 -6 99 -21 130 -34 31
-13 77 -27 102 -31 25 -4 74 -22 110 -40 36 -18 83 -38 105 -45 22 -7 54 -23
70 -35 17 -12 48 -32 70 -44 70 -38 138 -90 200 -155 82 -86 118 -147 122
-210 4 -44 0 -59 -29 -106 -35 -58 -116 -141 -158 -161 -14 -7 -45 -27 -70
-44 -58 -41 -163 -80 -184 -68 -16 9 -84 101 -109 148 -43 80 -234 240 -337
280 -30 12 -77 34 -104 49 -27 14 -60 26 -72 26 -13 0 -65 13 -116 30 -119 37
-199 50 -321 50 -119 0 -143 11 -180 78 -25 46 -27 59 -27 161 0 118 12 165
52 208 20 22 29 23 149 23 70 0 160 -6 201 -14z m-704 -638 c5 -7 12 -37 14
-66 4 -45 11 -59 44 -93 21 -23 51 -47 66 -55 41 -21 173 -18 226 6 38 17 47
28 76 92 18 41 41 79 49 87 19 15 75 11 157 -13 30 -8 71 -18 91 -21 21 -3 54
-17 75 -32 21 -14 56 -32 77 -39 21 -8 55 -27 75 -43 21 -15 51 -35 67 -44 44
-24 110 -93 155 -163 46 -71 67 -168 56 -258 -7 -49 -15 -64 -61 -119 -72 -84
-155 -154 -212 -179 -27 -11 -62 -31 -79 -44 -17 -12 -62 -30 -100 -39 -38 -9
-78 -22 -89 -29 -34 -22 -85 -34 -215 -52 -231 -30 -592 -16 -725 28 -33 10
-95 30 -139 44 -167 52 -367 214 -440 358 -25 50 -28 64 -25 138 4 76 7 89 43
148 64 105 185 215 281 255 28 11 70 32 95 47 25 14 72 32 104 38 33 7 78 19
100 27 85 31 216 42 234 21z m352 -1972 c152 -4 244 -19 330 -56 36 -15 86
-31 112 -34 26 -4 63 -18 82 -31 20 -14 60 -36 89 -49 58 -28 233 -185 257
-232 8 -16 27 -49 42 -73 58 -94 59 -261 1 -343 -15 -22 -38 -56 -49 -75 -21
-35 -91 -96 -148 -131 -16 -9 -48 -31 -71 -48 -23 -18 -53 -35 -66 -39 -13 -4
-50 -21 -83 -37 -61 -31 -248 -96 -352 -122 -119 -31 -153 -20 -175 55 -10 33
-10 45 4 74 20 42 47 56 160 84 49 12 105 32 126 46 21 13 54 31 72 39 48 22
132 93 178 149 60 73 84 200 56 303 -42 156 -235 303 -490 375 l-120 34 -260
0 c-244 0 -265 -1 -340 -24 -44 -13 -104 -29 -134 -36 -46 -11 -62 -22 -108
-72 -62 -67 -83 -107 -83 -160 0 -74 17 -109 82 -167 75 -66 95 -72 310 -85
149 -9 159 -11 225 -45 82 -41 86 -46 118 -127 31 -77 31 -110 4 -135 -46 -42
-387 -14 -480 39 -24 13 -67 30 -96 37 -28 6 -60 21 -70 32 -10 11 -36 29 -58
40 -22 12 -68 46 -103 77 -52 46 -72 73 -108 146 -58 119 -57 145 1 244 45 77
116 149 192 193 21 12 53 32 71 45 18 12 59 27 90 33 31 7 80 22 108 35 44 20
120 36 234 49 19 2 100 2 180 -1 80 -2 201 -6 270 -7z m-30 -296 c19 -5 78
-16 130 -24 204 -30 380 -170 379 -301 0 -95 -83 -203 -199 -256 -25 -12 -72
-34 -105 -50 -74 -36 -179 -49 -210 -26 -17 13 -19 25 -17 105 4 132 -27 223
-100 296 -84 84 -177 120 -362 141 -33 4 -70 11 -83 16 -25 9 -31 43 -11 56
19 11 219 32 323 33 50 1 99 5 110 10 27 12 103 12 145 0z"/>
</g>
</svg>
