<?xml version="1.0" standalone="no"?>
<!DOCTYPE svg PUBLIC "-//W3C//DTD SVG 20010904//EN"
 "http://www.w3.org/TR/2001/REC-SVG-20010904/DTD/svg10.dtd">
<svg version="1.0" xmlns="http://www.w3.org/2000/svg"
 width="408.000000pt" height="472.000000pt" viewBox="0 0 408.000000 472.000000"
 preserveAspectRatio="xMidYMid meet">
<metadata>
Created by potrace 1.16, written by Peter Selinger 2001-2019
</metadata>
<rect x="0" y="0" width="408" height="472" fill="#ffffff"/>
<g transform="translate(0.000000,472.000000) scale(0.100000,-0.100000)"
fill="#000000" stroke="none">
<path d="M1870 4666 c-12 -50 -11 -73 6 -162 8 -42 -16 -64 -69 -64 -23 0 -73
-7 -112 -15 -38 -8 -110 -20 -158 -25 -63 -7 -105 -19 -145 -39 -32 -16 -78
-34 -102 -41 -25 -6 -64 -25 -87 -41 -23 -16 -46 -29 -51 -29 -5 0 -40 -22
-77 -50 -37 -27 -71 -50 -75 -50 -8 0 -95 -103 -147 -175 -23 -31 -43 -75 -54
-120 -21 -77 -25 -214 -9 -283 15 -64 87 -178 145 -229 62 -54 208 -129 289
-148 34 -8 87 -23 118 -34 31 -11 90 -25 132 -31 103 -15 462 -29 506 -19 19
5 63 9 96 9 37 0 95 10 145 26 46 14 121 36 167 49 51 14 94 32 110 48 15 14
47 35 70 47 37 18 49 32 75 88 26 56 31 79 31 142 1 134 -61 207 -218 259
-107 36 -222 61 -276 61 -83 0 -97 18 -126 157 -21 102 -14 126 46 144 49 15
210 -1 283 -27 23 -9 79 -22 124 -29 53 -9 95 -23 120 -39 21 -14 60 -32 86
-40 67 -20 229 -161 263 -230 9 -17 25 -40 35 -52 21 -22 69 -186 69 -232 0
-47 -59 -173 -106 -228 -58 -68 -231 -184 -344 -230 -34 -14 -72 -31 -84 -39
-31 -20 -320 -115 -351 -115 -14 0 -76 -17 -138 -37 -80 -26 -141 -39 -212
-44 -168 -14 -247 -26 -308 -47 -31 -12 -91 -26 -133 -31 -42 -6 -106 -24
-142 -40 -37 -16 -92 -34 -122 -41 -30 -7 -91 -30 -134 -51 -44 -22 -85 -39
-91 -39 -7 0 -30 -13 -51 -29 -22 -15 -56 -33 -76 -40 -19 -6 -44 -21 -54 -32
-11 -12 -40 -32 -66 -45 -26 -13 -50 -29 -53 -35 -4 -6 -30 -26 -59 -44 -53
-34 -208 -182 -262 -251 -17 -21 -39 -55 -49 -74 -9 -19 -27 -46 -40 -60 -40
-45 -105 -180 -121 -253 -20 -85 -45 -147 -68 -166 -13 -11 -16 -35 -16 -137
0 -74 4 -124 10 -124 14 0 44 -64 68 -143 29 -96 88 -188 189 -292 95 -97 160
-153 221 -188 21 -12 52 -32 68 -45 61 -48 141 -96 198 -118 33 -13 67 -31 76
-39 9 -8 45 -26 78 -39 34 -14 74 -34 88 -45 14 -11 50 -27 80 -36 29 -8 68
-24 86 -34 18 -11 69 -31 113 -46 44 -15 105 -37 135 -50 71 -30 304 -103 352
-110 27 -4 46 -16 65 -40 l28 -35 154 0 154 0 -6 103 c-3 64 -13 124 -26 161
-11 32 -28 103 -37 158 -17 97 -16 100 3 126 l20 27 245 1 c167 1 257 5 283
14 21 7 63 16 94 20 216 31 315 52 362 75 28 15 77 31 109 37 33 5 73 21 92
34 18 14 57 32 86 40 29 9 65 26 81 40 16 13 46 31 67 40 21 9 57 32 82 52 24
21 60 51 80 68 21 17 54 40 74 53 20 12 47 39 59 59 13 20 39 56 58 78 53 61
93 131 107 185 16 62 29 86 59 105 l25 16 0 183 c0 175 -1 184 -20 190 -25 8
-46 47 -60 111 -17 76 -104 195 -227 314 -139 133 -188 173 -246 200 -25 12
-51 28 -57 35 -6 8 -35 22 -63 31 -29 9 -65 26 -82 38 -47 33 -310 116 -430
136 -60 10 -123 23 -140 30 -16 7 -63 16 -104 21 -75 8 -121 29 -121 53 0 20
19 32 85 51 180 51 447 256 542 415 40 66 46 107 41 257 l-4 118 -48 90 c-27
50 -59 101 -71 115 -13 14 -30 39 -38 55 -30 56 -169 186 -237 220 -19 10 -50
31 -68 46 -18 16 -39 29 -46 29 -8 0 -38 16 -66 35 -29 20 -73 40 -99 47 -25
6 -82 27 -125 46 -65 28 -99 36 -178 42 -54 4 -105 13 -113 20 -27 22 -28 73
-5 128 21 49 22 53 6 92 -9 22 -16 49 -16 60 0 19 -7 20 -103 20 l-104 0 -13
-54z m43 -524 c14 -16 15 -33 8 -137 -5 -66 -17 -140 -26 -165 -20 -54 -14
-104 16 -136 26 -28 63 -30 180 -13 110 17 260 -8 341 -57 123 -75 127 -126
20 -226 -28 -26 -63 -50 -79 -53 -15 -3 -50 -15 -78 -27 -68 -28 -141 -44
-260 -57 -123 -14 -441 -14 -532 -1 -38 5 -104 14 -148 21 -44 6 -96 17 -115
24 -19 8 -64 24 -98 37 -95 34 -167 98 -214 188 -38 71 -40 79 -36 146 7 99
49 176 140 255 38 32 75 59 83 59 7 0 46 17 87 39 48 25 93 41 132 46 32 4 77
13 100 21 66 24 134 36 256 43 195 13 205 13 223 -7z m642 -1641 c39 -6 108
-15 155 -21 47 -5 119 -21 160 -35 41 -15 109 -33 150 -41 41 -8 91 -25 111
-39 20 -13 63 -31 95 -41 33 -9 74 -27 92 -41 17 -13 47 -29 65 -35 17 -6 46
-23 62 -38 17 -14 44 -35 60 -45 59 -37 157 -131 177 -170 11 -22 33 -53 48
-70 16 -16 33 -50 40 -73 6 -24 21 -62 32 -84 29 -55 34 -131 13 -188 -9 -25
-29 -79 -44 -122 -15 -42 -41 -92 -57 -112 -86 -105 -123 -147 -166 -182 -95
-79 -124 -101 -158 -119 -19 -10 -51 -31 -70 -46 -19 -15 -55 -33 -80 -39 -25
-6 -62 -23 -83 -37 -34 -23 -120 -53 -155 -53 -7 0 -41 -13 -75 -29 -34 -16
-84 -32 -112 -35 -27 -4 -75 -11 -105 -16 -419 -73 -576 -80 -612 -26 -4 6 -8
47 -8 91 0 67 6 99 40 200 37 109 45 125 94 175 101 105 146 125 307 139 70 7
142 16 160 21 19 6 59 10 90 10 31 0 74 6 95 13 22 8 76 17 121 20 45 4 97 13
115 22 135 64 220 158 233 260 8 71 1 102 -45 188 -44 80 -139 171 -192 182
-18 4 -58 21 -89 37 -44 22 -82 32 -170 42 -63 8 -127 19 -142 25 -16 6 -54
11 -85 11 -32 0 -73 5 -92 11 -40 12 -491 16 -560 5 -25 -4 -79 -16 -120 -26
-41 -10 -113 -24 -160 -30 -61 -9 -102 -21 -145 -45 -33 -18 -78 -36 -100 -39
-22 -4 -58 -20 -80 -35 -22 -15 -55 -33 -73 -39 -67 -23 -273 -187 -318 -255
-16 -23 -41 -58 -57 -78 -19 -25 -36 -68 -54 -143 l-26 -107 18 -82 c30 -141
35 -155 58 -184 13 -15 33 -44 45 -64 23 -38 101 -113 173 -167 55 -41 190
-122 205 -122 6 0 40 -15 75 -34 36 -19 92 -41 124 -50 33 -8 87 -26 121 -40
33 -14 85 -28 115 -32 76 -9 116 -30 128 -66 20 -58 16 -100 -30 -270 -5 -20
-16 -44 -25 -53 -25 -24 -112 -19 -216 15 -51 16 -135 38 -187 49 -52 12 -113
30 -136 41 -24 11 -75 30 -115 41 -40 11 -89 28 -111 39 -21 11 -64 30 -96 41
-32 12 -70 31 -86 41 -15 11 -51 29 -80 42 -49 20 -110 55 -177 101 -140 94
-184 129 -245 190 -76 75 -131 148 -155 205 -8 20 -25 52 -38 73 -38 60 -54
232 -32 346 18 98 115 283 192 368 21 24 38 46 38 51 0 7 64 73 131 133 62 57
127 107 159 124 19 10 51 30 70 45 19 15 56 35 82 43 26 9 62 27 80 40 18 14
49 28 68 32 19 4 69 22 111 41 41 18 107 40 145 48 38 8 89 22 114 31 66 24
163 42 263 50 49 4 110 13 135 21 58 16 690 12 797 -5z m-151 -527 c21 -8 61
-14 88 -14 27 0 58 -5 70 -11 11 -6 70 -17 131 -25 72 -10 133 -24 176 -43 36
-15 80 -34 98 -41 67 -26 67 -67 1 -101 -53 -27 -108 -36 -328 -53 -185 -15
-241 -25 -335 -64 -27 -12 -62 -23 -76 -26 -33 -7 -206 -179 -228 -226 -9 -19
-29 -56 -45 -83 -23 -40 -30 -64 -37 -150 -4 -56 -8 -148 -9 -205 0 -57 -5
-112 -11 -123 -15 -29 -51 -40 -91 -28 -18 5 -64 14 -102 19 -37 6 -98 23
-135 39 -36 16 -90 34 -119 41 -29 7 -69 23 -90 37 -20 14 -56 34 -80 44 -45
20 -159 107 -203 155 -39 44 -98 150 -110 200 -7 25 -9 78 -7 118 4 62 10 83
43 137 47 79 116 152 175 187 25 14 58 36 73 49 16 12 54 30 85 39 31 9 73 28
93 41 24 16 63 28 108 34 38 6 103 22 143 36 40 14 107 29 148 33 115 12 527
0 574 -16z"/>
</g>
</svg>
