<?xml version="1.0" standalone="no"?>
<!DOCTYPE svg PUBLIC "-//W3C//DTD SVG 20010904//EN"
 "http://www.w3.org/TR/2001/REC-SVG-20010904/DTD/svg10.dtd">
<svg version="1.0" xmlns="http://www.w3.org/2000/svg"
 width="408.000000pt" height="504.000000pt" viewBox="0 0 408.000000 504.000000"
 preserveAspectRatio="xMidYMid meet">
<metadata>
Created by potrace 1.16, written by Peter Selinger 2001-2019
</metadata>
<rect x="0" y="0" width="408" height="504" fill="#ffffff"/>
<g transform="translate(0.000000,504.000000) scale(0.100000,-0.100000)"
fill="#000000" stroke="none">
<path d="M1854 4995 c-8 -55 0 -88 30 -129 24 -32 64 -131 73 -178 7 -37 -22
-53 -132 -73 -49 -10 -115 -23 -145 -31 -30 -7 -99 -18 -153 -24 -54 -6 -124
-20 -155 -32 -31 -11 -93 -30 -137 -40 -44 -11 -111 -35 -150 -53 -38 -19 -87
-36 -107 -40 -21 -3 -51 -17 -67 -31 -16 -13 -55 -33 -87 -44 -32 -11 -66 -28
-77 -38 -10 -9 -41 -28 -67 -42 -27 -14 -70 -38 -95 -55 -54 -35 -219 -174
-253 -213 -63 -72 -87 -102 -128 -158 -24 -34 -44 -65 -44 -69 0 -4 -16 -39
-36 -78 -20 -39 -40 -97 -45 -131 -5 -34 -17 -83 -26 -110 -30 -93 14 -300 89
-412 67 -101 224 -256 298 -294 14 -7 36 -23 50 -35 14 -13 45 -31 70 -41 25
-9 60 -28 78 -41 17 -13 57 -33 87 -43 31 -11 68 -28 83 -38 15 -11 65 -31
112 -46 47 -15 94 -33 106 -41 11 -7 65 -25 119 -39 55 -15 110 -33 122 -41
12 -8 62 -24 110 -35 48 -12 128 -34 177 -50 105 -33 355 -95 471 -116 44 -9
114 -27 155 -41 41 -14 102 -33 135 -43 80 -24 250 -95 285 -120 15 -11 40
-24 54 -30 91 -34 275 -205 331 -306 32 -59 36 -73 37 -147 1 -75 -2 -89 -35
-157 -36 -76 -124 -180 -152 -180 -17 0 -34 29 -28 50 3 8 11 29 19 47 21 46
18 158 -6 226 -11 31 -20 63 -20 71 0 28 -191 235 -216 236 -7 0 -36 18 -65
40 -30 22 -70 45 -90 50 -20 6 -57 21 -81 35 -25 14 -83 32 -129 40 -46 9
-106 20 -134 25 -27 4 -67 16 -87 24 -29 13 -68 15 -190 13 -132 -3 -172 -8
-288 -36 -213 -52 -354 -106 -414 -159 -20 -18 -41 -32 -46 -32 -5 0 -32 -20
-60 -45 -27 -24 -59 -49 -70 -55 -11 -6 -30 -30 -41 -53 -12 -23 -34 -57 -50
-77 -56 -69 -73 -231 -36 -338 24 -70 149 -207 222 -245 17 -8 39 -25 49 -36
11 -12 45 -29 75 -38 31 -8 69 -24 84 -35 34 -24 105 -44 208 -58 41 -6 98
-19 127 -30 44 -17 77 -20 216 -20 145 0 165 -2 179 -18 19 -21 22 -64 6 -94
-6 -11 -15 -44 -19 -72 -18 -119 -42 -202 -72 -249 -27 -42 -32 -59 -32 -116
-1 -62 2 -70 32 -105 17 -20 32 -46 32 -56 0 -19 7 -20 125 -20 l125 0 0 24
c0 13 16 43 35 66 45 54 45 88 1 171 -18 35 -36 81 -40 102 -4 21 -16 58 -27
84 -19 45 -40 157 -41 221 0 52 23 68 115 81 45 7 114 20 152 30 39 11 95 22
125 26 30 4 75 18 99 32 25 14 70 34 101 43 31 9 76 31 99 48 24 18 50 32 57
32 21 0 159 126 207 188 58 76 65 90 94 196 28 102 27 141 -8 258 -47 161
-171 296 -364 399 -33 17 -71 39 -85 49 -14 9 -47 25 -75 36 -27 10 -63 26
-80 35 -48 28 -296 108 -386 125 -45 8 -117 26 -158 39 -42 13 -122 33 -179
45 -57 11 -131 31 -165 44 -34 13 -84 26 -112 30 -27 4 -79 20 -115 36 -36 15
-90 33 -120 40 -30 7 -81 26 -112 41 -31 16 -78 33 -105 39 -26 6 -65 22 -86
36 -22 14 -57 32 -80 40 -23 8 -62 27 -87 43 -25 16 -62 34 -82 41 -21 6 -40
16 -43 21 -3 5 -37 27 -75 49 -39 23 -70 44 -70 48 0 4 -13 16 -29 25 -47 28
-180 166 -203 211 -11 22 -33 56 -47 75 -25 33 -26 39 -26 171 0 131 1 138 26
171 14 19 37 59 51 89 27 59 219 270 270 296 48 25 61 10 54 -60 -27 -268 -18
-371 47 -497 24 -47 56 -102 73 -123 50 -65 213 -220 252 -240 20 -10 46 -27
58 -38 12 -10 45 -28 74 -39 30 -11 66 -31 82 -44 27 -23 85 -45 117 -45 8 0
34 -11 58 -25 24 -14 87 -35 141 -47 53 -11 108 -26 123 -33 40 -21 179 -44
302 -50 61 -4 142 -13 178 -21 76 -18 351 -15 484 4 44 6 139 18 210 26 72 8
150 22 175 31 25 9 90 27 145 40 55 12 126 37 159 54 32 17 66 31 76 31 10 0
40 15 66 33 27 19 67 40 89 47 22 7 56 25 75 40 19 15 53 38 75 52 117 74 267
260 295 367 7 27 26 59 46 79 l34 34 0 148 0 148 -34 34 c-20 20 -39 52 -46
79 -6 24 -30 76 -53 114 -48 81 -203 243 -262 273 -22 11 -48 29 -59 41 -10
11 -35 25 -55 32 -20 6 -51 22 -69 36 -18 13 -54 31 -80 40 -26 9 -62 27 -81
41 -19 14 -63 31 -99 39 -36 7 -91 24 -121 38 -72 30 -78 32 -186 45 -49 6
-118 19 -152 30 -89 27 -147 33 -467 46 -165 6 -191 9 -207 25 -26 26 -24 39
11 90 16 24 30 51 30 60 0 8 11 38 25 65 18 35 25 65 25 107 l0 57 -169 0
-170 0 -7 -45z m-73 -731 c19 -9 37 -31 48 -57 21 -48 88 -113 126 -123 14 -3
61 -4 104 -3 78 4 81 5 122 44 22 22 49 58 59 80 27 63 41 71 108 57 31 -6 94
-16 140 -23 58 -8 94 -19 120 -37 20 -14 53 -29 72 -34 49 -14 184 -151 193
-197 18 -90 -3 -148 -84 -231 -76 -78 -145 -128 -193 -141 -22 -6 -71 -24
-108 -40 -80 -35 -171 -48 -366 -54 -197 -6 -400 16 -495 54 -40 15 -96 34
-125 41 -29 7 -66 23 -82 36 -15 13 -43 31 -62 38 -46 20 -151 122 -177 173
-15 31 -21 61 -21 114 0 61 4 79 30 125 27 47 37 55 88 74 31 11 77 31 102 45
26 13 86 30 140 39 52 9 109 20 125 25 47 14 103 13 136 -5z m1387 -99 c40
-13 87 -33 105 -44 18 -11 57 -29 89 -41 31 -11 62 -28 69 -36 7 -9 31 -25 53
-36 23 -12 61 -37 85 -57 177 -145 224 -246 201 -432 -12 -99 -17 -114 -64
-173 -46 -57 -219 -226 -232 -226 -6 0 -32 -16 -58 -35 -25 -20 -63 -42 -84
-49 -20 -8 -54 -25 -75 -39 -21 -14 -60 -30 -88 -36 -28 -6 -82 -25 -119 -41
-37 -16 -101 -34 -141 -40 -41 -6 -96 -17 -124 -25 -180 -50 -175 -50 -505
-50 -293 1 -320 2 -380 22 -78 25 -139 39 -240 54 -42 6 -100 24 -130 39 -30
15 -79 33 -108 40 -29 7 -66 23 -81 36 -15 13 -54 33 -85 45 -32 11 -60 27
-63 35 -3 8 -26 25 -52 38 -47 24 -186 153 -233 216 -14 19 -31 53 -38 75 -7
22 -24 62 -38 88 -22 43 -24 57 -19 120 8 100 26 151 55 155 31 5 60 -22 85
-78 25 -55 111 -155 148 -170 14 -6 39 -25 54 -40 16 -16 44 -35 64 -41 20 -6
51 -23 70 -37 19 -14 68 -35 110 -48 42 -12 101 -31 132 -42 85 -32 200 -42
469 -42 281 0 390 11 475 46 33 14 91 33 128 43 40 11 79 28 95 43 15 14 47
35 72 47 57 27 153 102 181 144 13 18 35 47 51 64 16 19 38 68 53 118 22 72
26 99 22 173 -2 48 -13 114 -22 148 -31 101 -14 111 113 69z m-1223 -2470
c153 -5 279 -27 345 -60 25 -12 69 -28 99 -34 58 -12 89 -34 196 -136 47 -46
66 -72 79 -112 17 -50 16 -54 -5 -123 -23 -75 -72 -144 -156 -215 -64 -55
-194 -114 -297 -136 -50 -10 -102 -23 -116 -28 -87 -33 -433 -27 -550 8 -19 6
-75 18 -125 27 -49 8 -110 26 -135 39 -25 14 -69 33 -98 44 -58 21 -98 50
-182 132 -78 75 -100 121 -100 202 0 59 4 70 40 124 47 72 162 161 223 175 22
5 72 23 110 39 50 22 97 34 166 41 179 19 306 26 371 21 36 -3 97 -6 135 -8z"/>
</g>
</svg>
