<?xml version="1.0" standalone="no"?>
<!DOCTYPE svg PUBLIC "-//W3C//DTD SVG 20010904//EN"
 "http://www.w3.org/TR/2001/REC-SVG-20010904/DTD/svg10.dtd">
<svg version="1.0" xmlns="http://www.w3.org/2000/svg"
 width="408.000000pt" height="704.000000pt" viewBox="0 0 408.000000 704.000000"
 preserveAspectRatio="xMidYMid meet">
<metadata>
Created by potrace 1.16, written by Peter Selinger 2001-2019
</metadata>
<rect x="0" y="0" width="408" height="704" fill="#ffffff"/>
<g transform="translate(0.000000,704.000000) scale(0.100000,-0.100000)"
fill="#000000" stroke="none">
<path d="M2015 6964 c-77 -19 -96 -43 -110 -134 -8 -56 21 -155 60 -206 42
-55 52 -176 17 -198 -6 -3 -60 -15 -121 -25 -71 -12 -126 -28 -153 -43 -24
-14 -63 -32 -88 -41 -59 -23 -155 -115 -205 -197 -37 -60 -40 -70 -39 -135 0
-58 6 -81 31 -130 50 -95 205 -235 289 -261 25 -7 69 -27 97 -43 30 -16 76
-32 107 -36 30 -4 94 -20 141 -36 47 -16 121 -35 165 -44 150 -29 475 -144
564 -200 19 -12 46 -25 60 -30 14 -4 41 -19 60 -34 19 -16 49 -35 67 -44 35
-18 118 -109 146 -160 11 -21 17 -54 17 -97 0 -58 -4 -72 -34 -119 -19 -29
-40 -66 -46 -82 -14 -32 -53 -48 -79 -32 -12 7 -17 32 -21 90 -3 45 -11 87
-18 96 -8 9 -21 37 -31 62 -23 61 -166 207 -236 242 -27 14 -57 31 -65 38 -8
7 -37 20 -65 30 -178 62 -222 75 -292 84 -43 6 -116 18 -163 27 -96 17 -324
16 -425 -3 -33 -7 -100 -17 -150 -23 -56 -7 -115 -22 -155 -40 -36 -16 -82
-31 -103 -35 -20 -4 -52 -18 -70 -31 -17 -13 -53 -34 -78 -48 -79 -43 -181
-155 -229 -252 -40 -79 -43 -94 -47 -176 -3 -91 -3 -91 43 -182 69 -139 141
-218 249 -277 22 -12 52 -32 67 -44 15 -13 50 -28 78 -34 28 -6 65 -18 81 -27
65 -33 13 -101 -96 -124 -29 -6 -88 -29 -131 -51 -43 -21 -88 -39 -100 -39
-12 0 -44 -15 -70 -33 -27 -19 -66 -39 -86 -46 -21 -7 -56 -28 -79 -47 -22
-19 -47 -34 -54 -34 -8 0 -35 -18 -60 -40 -25 -22 -50 -40 -54 -40 -12 0 -270
-262 -290 -295 -10 -16 -28 -38 -39 -49 -12 -10 -26 -35 -33 -55 -6 -20 -22
-47 -35 -61 -13 -14 -35 -57 -48 -95 -13 -39 -33 -94 -45 -123 -11 -29 -21
-72 -21 -96 0 -24 -4 -67 -10 -95 -11 -57 2 -219 21 -281 39 -123 112 -243
212 -349 70 -73 282 -243 322 -257 11 -4 40 -22 65 -39 25 -18 61 -37 80 -44
19 -6 52 -23 73 -36 20 -14 59 -34 86 -44 26 -11 64 -29 82 -40 19 -12 66 -31
104 -42 39 -12 84 -28 100 -37 34 -18 259 -98 320 -114 22 -6 88 -26 146 -44
58 -19 143 -41 189 -49 46 -8 91 -22 100 -30 21 -22 23 -106 12 -630 l-9 -440
-32 -89 c-41 -118 -40 -133 12 -195 l42 -51 65 1 c62 0 66 1 85 31 12 20 36
38 60 47 22 8 57 27 78 43 20 16 52 34 70 40 17 6 49 24 69 40 20 16 52 34 70
40 18 6 47 23 63 38 17 15 46 36 65 45 68 34 208 164 237 220 8 17 32 54 52
84 l36 53 3 127 c4 145 1 158 -73 270 -47 71 -164 178 -223 204 -15 6 -49 26
-76 44 -26 18 -54 33 -61 33 -7 0 -39 14 -71 32 -32 17 -106 43 -163 57 -143
36 -146 40 -146 213 0 124 1 131 24 149 18 15 40 19 100 19 140 1 315 19 406
44 50 13 141 34 204 46 63 11 131 30 153 41 21 11 66 27 101 35 34 9 82 29
106 45 25 16 49 29 55 29 33 0 91 25 120 51 19 16 49 35 67 41 34 12 125 73
189 127 111 93 156 135 171 157 9 14 25 31 36 39 27 19 109 161 123 214 7 26
26 59 46 79 l34 34 0 211 0 211 -31 25 c-19 17 -37 47 -49 83 -24 74 -91 167
-189 266 -104 103 -139 134 -183 161 -21 12 -38 26 -38 31 0 4 -21 18 -47 31
-27 12 -61 33 -78 45 -16 12 -56 32 -87 44 -31 11 -68 30 -81 40 -14 11 -54
27 -89 36 -34 9 -84 27 -109 40 -27 13 -107 35 -190 50 -94 18 -151 33 -163
45 -18 17 -18 18 0 50 15 24 35 39 79 56 32 12 70 34 84 47 14 13 42 32 61 41
70 35 204 173 227 235 9 25 29 63 44 85 39 56 55 168 39 271 -10 67 -19 87
-64 153 -38 54 -76 94 -135 138 -45 35 -85 63 -89 63 -5 0 -37 18 -73 39 -36
22 -84 44 -108 51 -24 6 -69 23 -100 37 -50 23 -188 67 -336 108 -27 8 -95 24
-149 36 -80 17 -106 27 -129 50 -15 16 -26 33 -22 39 4 6 63 10 146 10 98 0
150 4 173 14 19 8 59 19 89 26 32 6 75 25 103 45 27 19 55 35 62 35 8 0 43 28
78 62 47 45 67 72 75 102 5 23 17 58 25 79 20 52 18 77 -11 144 -35 79 -121
156 -240 213 l-90 43 -145 4 c-160 5 -197 14 -206 50 -9 33 26 161 53 198 39
51 53 92 53 150 0 76 -19 118 -64 139 -38 18 -125 29 -161 20z m434 -653 c56
-6 79 -14 91 -29 9 -11 39 -31 66 -45 59 -30 88 -59 109 -111 23 -55 13 -95
-38 -149 -35 -37 -55 -49 -116 -67 -232 -69 -376 -74 -566 -22 -60 17 -122 33
-136 36 -33 7 -124 88 -145 128 -18 35 -12 56 33 120 44 61 146 123 234 143
69 16 321 14 468 -4z m-879 -283 c5 -13 19 -55 30 -94 17 -57 27 -74 51 -88
17 -10 35 -31 41 -47 8 -22 20 -31 56 -41 36 -10 48 -19 50 -35 4 -29 -42 -43
-73 -22 -12 8 -37 23 -56 34 -19 11 -62 47 -96 81 l-63 61 0 64 c0 89 37 142
60 87z m461 -376 c26 -16 28 -20 13 -26 -38 -15 -129 -17 -154 -4 -30 16 -38
44 -13 52 35 10 124 -3 154 -22z m129 -527 c68 -8 136 -23 165 -36 28 -12 76
-29 107 -39 63 -20 170 -87 234 -147 46 -43 84 -109 84 -148 0 -33 -34 -34
-84 0 -20 13 -48 33 -63 43 -98 67 -117 75 -220 97 -59 13 -123 28 -142 34
-96 29 -313 16 -390 -24 -15 -7 -53 -18 -86 -24 -38 -7 -78 -24 -110 -45 -27
-19 -61 -39 -75 -47 -14 -7 -48 -36 -77 -66 -61 -62 -77 -106 -78 -213 0 -41
-4 -81 -8 -87 -14 -21 -72 -15 -111 12 -21 14 -54 34 -74 44 -80 42 -182 171
-182 230 0 69 109 208 199 255 20 10 50 31 67 46 18 15 49 31 70 35 22 3 70
20 108 37 120 53 431 73 666 43z m110 -429 c162 -58 198 -77 245 -127 44 -47
46 -51 43 -102 l-3 -52 -75 -36 c-99 -49 -164 -59 -361 -59 -207 0 -325 18
-409 60 -88 44 -110 69 -110 123 0 40 5 48 54 96 30 28 60 51 67 51 7 0 30 12
51 26 53 37 82 42 268 43 149 0 171 -2 230 -23z m267 -823 c26 -9 71 -17 98
-19 148 -6 295 -28 373 -55 46 -15 111 -33 145 -39 34 -7 81 -22 104 -35 23
-13 66 -31 95 -41 29 -9 75 -32 102 -51 26 -18 54 -33 61 -33 22 0 107 -72
212 -179 88 -89 105 -112 118 -158 9 -29 25 -69 37 -90 17 -28 23 -57 26 -123
4 -83 2 -92 -31 -166 -19 -44 -38 -90 -42 -104 -4 -14 -19 -40 -34 -58 -41
-52 -235 -242 -247 -242 -6 0 -32 -16 -58 -35 -25 -20 -63 -42 -84 -49 -20 -8
-55 -25 -76 -39 -21 -15 -54 -29 -75 -33 -20 -4 -77 -22 -128 -40 -51 -18
-132 -38 -180 -45 -48 -6 -115 -17 -148 -24 -89 -21 -437 -21 -490 -1 -22 8
-61 15 -86 16 -34 0 -51 6 -68 23 -21 24 -22 26 -17 303 16 953 23 1241 34
1266 18 43 47 53 177 59 66 3 123 6 127 7 4 1 29 -6 55 -15z m-602 -27 c48
-63 53 -135 60 -891 l6 -690 -67 -59 c-73 -65 -94 -103 -94 -170 0 -66 11 -87
89 -165 l71 -70 0 -114 c0 -149 -18 -173 -100 -136 -24 11 -89 31 -144 45
-102 26 -245 70 -346 106 -184 67 -220 81 -261 103 -26 14 -53 25 -61 25 -8 0
-37 12 -64 26 -157 83 -194 103 -239 129 -27 16 -63 39 -79 53 -16 13 -50 33
-75 45 -62 28 -281 246 -314 313 -14 27 -37 72 -51 99 -40 78 -53 213 -33 338
11 71 23 110 41 138 15 21 36 64 47 94 11 30 26 58 33 62 7 5 29 33 48 63 48
74 179 213 242 256 28 19 66 45 84 57 77 52 167 107 175 107 5 0 45 18 89 40
45 22 90 40 100 40 10 0 42 12 71 26 29 15 90 37 137 50 47 12 117 32 155 43
68 21 210 41 310 45 28 1 59 7 70 14 38 22 72 14 100 -22z m345 -2519 c19 -13
60 -32 90 -42 30 -9 71 -27 90 -39 19 -11 55 -31 80 -43 112 -56 222 -158 255
-236 21 -52 29 -156 16 -217 -8 -39 -24 -69 -57 -109 -53 -64 -147 -151 -184
-171 -14 -7 -41 -26 -60 -41 -19 -15 -46 -30 -60 -34 -14 -4 -42 -18 -62 -32
-41 -28 -93 -42 -154 -43 -74 0 -72 -10 -78 395 -4 198 -9 415 -12 481 -4 104
-3 124 11 138 24 24 84 20 125 -7z"/>
</g>
</svg>
