<?xml version="1.0" standalone="no"?>
<!DOCTYPE svg PUBLIC "-//W3C//DTD SVG 20010904//EN"
 "http://www.w3.org/TR/2001/REC-SVG-20010904/DTD/svg10.dtd">
<svg version="1.0" xmlns="http://www.w3.org/2000/svg"
 width="408.000000pt" height="672.000000pt" viewBox="0 0 408.000000 672.000000"
 preserveAspectRatio="xMidYMid meet">
<metadata>
Created by potrace 1.16, written by Peter Selinger 2001-2019
</metadata>
<rect x="0" y="0" width="408" height="672" fill="#ffffff"/>
<g transform="translate(0.000000,672.000000) scale(0.100000,-0.100000)"
fill="#000000" stroke="none">
<path d="M1985 6656 c-53 -24 -109 -80 -126 -125 -14 -36 -4 -75 30 -119 16
-20 33 -50 37 -67 4 -16 16 -49 26 -73 36 -80 6 -107 -137 -122 -55 -6 -136
-22 -180 -35 -44 -14 -118 -29 -165 -34 -49 -6 -126 -25 -180 -44 -52 -19
-115 -38 -140 -42 -25 -4 -65 -20 -90 -35 -25 -16 -65 -33 -90 -40 -25 -6 -63
-24 -85 -39 -22 -16 -63 -36 -92 -45 -28 -9 -57 -24 -64 -32 -7 -9 -34 -26
-59 -39 -25 -13 -52 -31 -60 -40 -7 -9 -32 -26 -54 -37 -46 -22 -61 -35 -194
-168 -103 -102 -143 -157 -219 -301 -49 -94 -52 -103 -61 -211 -12 -130 -1
-263 27 -318 55 -107 81 -144 164 -229 51 -51 117 -109 147 -129 30 -19 65
-45 78 -58 13 -12 37 -26 53 -29 16 -4 47 -22 70 -41 22 -19 46 -34 53 -34 6
0 43 -15 81 -33 39 -19 88 -39 110 -46 22 -7 74 -28 115 -46 80 -35 322 -114
430 -140 36 -9 88 -24 115 -35 28 -11 82 -26 120 -35 39 -8 115 -28 170 -44
55 -16 132 -34 172 -40 40 -6 114 -24 165 -40 51 -16 113 -32 138 -35 51 -8
278 -77 355 -108 227 -93 327 -154 459 -283 86 -84 146 -203 146 -290 0 -67
-30 -146 -88 -231 -51 -75 -70 -92 -110 -100 -29 -6 -32 -4 -32 17 0 12 10 57
21 98 21 74 21 77 4 167 -14 73 -25 103 -54 145 -78 112 -238 249 -316 270
-22 6 -58 24 -81 41 -26 19 -67 35 -114 44 -41 9 -103 27 -139 41 -64 25 -73
26 -296 26 -210 1 -235 -1 -290 -21 -69 -24 -211 -62 -235 -62 -9 0 -34 -13
-56 -29 -21 -15 -57 -34 -79 -41 -22 -7 -61 -23 -88 -37 -26 -13 -75 -30 -110
-39 -34 -8 -74 -24 -89 -35 -15 -10 -51 -30 -80 -43 -86 -39 -206 -166 -234
-248 -29 -80 -27 -311 2 -388 35 -92 171 -254 264 -314 25 -16 64 -42 87 -58
23 -16 61 -35 85 -44 23 -8 61 -26 85 -40 23 -13 81 -36 129 -49 47 -14 98
-32 114 -40 15 -8 72 -23 126 -34 54 -11 126 -30 159 -41 33 -11 91 -25 130
-31 38 -6 92 -20 119 -31 28 -10 93 -30 146 -43 53 -12 119 -34 146 -48 27
-13 74 -32 104 -40 125 -36 359 -167 490 -274 42 -34 132 -170 142 -215 15
-70 -4 -166 -48 -234 -21 -32 -49 -71 -63 -85 -14 -14 -37 -38 -50 -53 -27
-31 -34 -32 -56 -9 -14 13 -15 25 -9 57 22 107 -1 258 -47 310 -16 19 -29 39
-29 45 0 18 -100 121 -135 138 -16 9 -45 28 -62 44 -18 15 -52 33 -75 40 -23
6 -61 24 -83 40 -29 21 -60 31 -112 39 -40 5 -110 21 -156 34 -77 23 -104 25
-333 27 -137 2 -254 0 -260 -3 -6 -4 -42 -14 -80 -22 -208 -46 -247 -57 -277
-79 -17 -13 -53 -31 -78 -39 -25 -9 -67 -31 -93 -49 -71 -50 -175 -149 -182
-173 -3 -11 -23 -45 -43 -75 -35 -52 -36 -57 -39 -158 -2 -58 1 -124 7 -148
20 -79 134 -228 211 -277 19 -12 47 -32 62 -44 15 -12 44 -28 65 -35 21 -6 56
-24 78 -40 22 -15 60 -30 85 -34 25 -3 90 -19 145 -35 105 -30 253 -50 367
-50 81 0 95 -5 113 -41 19 -36 19 -67 0 -112 -20 -48 -19 -117 1 -146 9 -12
37 -32 62 -42 44 -19 48 -19 89 -4 80 31 100 86 68 191 -27 89 -15 141 39 168
37 19 208 61 286 71 32 4 76 18 106 35 28 16 74 35 103 41 32 7 66 22 86 40
18 16 48 35 67 41 69 24 214 150 297 260 63 84 104 217 99 318 -6 98 -38 176
-111 266 -80 99 -240 221 -372 284 -33 16 -71 35 -85 44 -61 36 -199 97 -240
105 -25 6 -78 24 -118 40 -40 17 -101 35 -135 41 -34 7 -118 27 -187 45 -69
18 -149 36 -178 39 -29 4 -92 18 -140 33 -48 14 -126 36 -174 48 -48 12 -102
31 -120 42 -18 10 -55 27 -81 37 -43 16 -92 43 -183 98 -57 35 -128 97 -142
125 -8 15 -27 44 -42 63 -36 46 -48 86 -59 195 -13 125 3 202 55 271 30 39 89
78 104 69 16 -10 12 -70 -10 -125 -26 -66 -25 -97 5 -195 23 -78 29 -85 112
-169 49 -49 109 -98 134 -111 25 -13 51 -31 58 -39 7 -9 45 -25 85 -37 39 -11
85 -30 103 -40 33 -21 300 -69 379 -69 23 0 61 -7 84 -15 55 -19 202 -20 266
0 27 8 71 15 99 15 80 0 385 60 435 85 25 12 71 30 102 39 31 9 60 21 63 27 4
6 39 26 78 44 52 25 96 57 158 117 148 143 208 276 195 432 -8 92 -29 162 -71
229 -41 67 -131 169 -163 186 -15 7 -38 24 -52 36 -35 32 -156 104 -212 126
-27 10 -74 32 -106 48 -32 16 -78 34 -102 41 -25 7 -70 22 -100 35 -30 13 -95
30 -144 40 -49 9 -125 28 -170 42 -44 14 -114 32 -154 39 -40 7 -119 26 -175
42 -56 16 -130 35 -165 41 -34 7 -84 21 -110 32 -26 12 -87 30 -137 40 -49 11
-112 31 -140 43 -27 13 -77 31 -110 41 -32 9 -80 27 -105 40 -25 13 -63 26
-83 30 -20 4 -58 21 -84 37 -26 17 -66 37 -88 45 -22 7 -57 25 -78 39 -22 14
-55 31 -75 39 -61 21 -156 87 -295 205 -23 19 -46 41 -51 49 -5 7 -25 31 -44
53 -35 38 -68 106 -99 198 -18 57 -12 129 14 166 12 16 29 54 38 84 36 113
247 350 311 350 37 0 44 -27 27 -100 -10 -47 -14 -106 -11 -210 l3 -145 40
-80 c52 -106 106 -183 187 -263 84 -84 123 -116 173 -138 22 -10 54 -30 70
-45 17 -15 48 -32 69 -39 21 -7 57 -25 80 -41 24 -17 65 -33 100 -40 33 -6 82
-23 110 -39 28 -15 73 -31 101 -35 27 -4 76 -16 110 -26 167 -55 394 -73 800
-65 313 6 428 18 520 54 28 11 83 25 124 31 41 7 104 24 140 40 36 16 84 34
106 41 22 7 60 25 85 41 25 16 66 35 90 44 25 9 56 26 70 39 14 13 41 32 60
41 69 35 183 140 239 220 15 22 39 57 53 78 15 20 30 56 33 80 5 29 18 52 41
74 l34 32 0 178 0 178 -29 16 c-21 12 -34 33 -49 77 -31 91 -114 201 -223 295
-127 108 -149 125 -175 131 -15 4 -42 20 -60 36 -18 15 -57 35 -86 44 -29 8
-68 26 -87 40 -18 14 -59 30 -90 37 -31 6 -77 22 -103 35 -25 13 -97 32 -160
43 -62 11 -135 28 -163 36 -75 25 -165 34 -435 45 -135 6 -255 13 -268 16 -35
7 -47 44 -28 85 8 19 24 59 36 90 11 31 29 64 40 74 25 22 34 72 21 106 -22
58 -95 121 -166 143 -12 3 -41 -4 -70 -18z m-200 -838 c17 -8 31 -28 46 -68
18 -51 27 -61 87 -101 61 -40 72 -44 129 -44 49 0 67 5 90 23 15 12 42 32 60
43 20 13 38 37 49 65 9 24 23 49 30 55 21 17 103 12 191 -11 42 -11 86 -20 98
-20 11 0 36 -8 55 -19 138 -74 160 -90 205 -146 44 -53 50 -66 53 -117 7 -95
-3 -122 -70 -194 -34 -36 -80 -75 -102 -86 -23 -12 -54 -31 -71 -44 -16 -12
-61 -30 -98 -38 -37 -9 -82 -24 -100 -33 -45 -24 -123 -33 -347 -40 -211 -6
-329 5 -415 37 -27 11 -75 25 -105 31 -30 6 -82 26 -115 44 -33 18 -76 38 -95
44 -44 14 -155 121 -195 186 -43 73 -42 142 4 214 28 43 46 59 88 77 29 13 70
35 91 49 20 13 70 31 112 39 41 8 113 26 160 40 98 28 129 31 165 14z m1361
-99 c12 -11 49 -29 84 -39 34 -10 79 -30 99 -43 20 -14 54 -30 76 -37 22 -7
56 -24 75 -40 19 -15 49 -34 65 -43 17 -8 69 -56 115 -106 78 -84 87 -98 108
-169 33 -109 36 -134 19 -189 -8 -26 -20 -66 -26 -89 -21 -80 -207 -276 -311
-329 -19 -10 -48 -28 -63 -41 -15 -13 -47 -29 -70 -35 -23 -6 -62 -24 -85 -39
-24 -16 -69 -34 -100 -41 -32 -6 -84 -24 -117 -39 -33 -16 -87 -32 -120 -35
-59 -6 -200 -31 -340 -61 -47 -9 -130 -14 -249 -14 -169 0 -249 8 -386 41 -24
5 -93 16 -152 24 -75 10 -130 24 -177 45 -38 16 -92 35 -120 41 -28 6 -67 22
-88 36 -21 14 -58 33 -83 41 -25 8 -56 25 -70 37 -14 13 -41 31 -60 40 -48 25
-152 117 -220 196 -80 93 -110 183 -110 330 0 99 2 108 29 151 48 75 58 72 86
-24 9 -32 32 -77 51 -100 44 -53 142 -148 152 -148 5 0 26 -16 48 -35 21 -20
57 -40 79 -46 22 -6 58 -24 80 -40 22 -15 65 -34 95 -40 30 -6 82 -22 114 -36
96 -40 269 -56 536 -50 185 4 238 9 295 25 129 37 246 82 278 106 18 13 48 29
68 35 47 15 261 217 279 263 7 18 26 64 42 102 41 96 41 180 -1 296 -36 98
-36 94 -15 115 20 20 59 13 90 -16z m-901 -2489 c22 -6 88 -17 146 -24 72 -9
127 -23 175 -44 38 -16 83 -33 101 -37 17 -3 43 -18 57 -32 14 -14 45 -38 70
-53 51 -33 71 -59 103 -139 29 -71 29 -77 -4 -156 -41 -101 -182 -234 -284
-270 -22 -8 -53 -24 -69 -35 -32 -23 -156 -50 -228 -50 -26 0 -63 -5 -82 -10
-19 -6 -84 -15 -145 -20 -98 -7 -114 -6 -152 11 -23 10 -64 19 -90 19 -26 1
-100 9 -163 19 -88 13 -124 24 -153 43 -20 15 -55 29 -77 33 -22 4 -54 18 -72
31 -18 13 -46 32 -63 41 -53 31 -147 136 -173 192 -20 43 -23 63 -19 103 7 58
65 160 105 185 15 9 41 29 57 44 17 14 54 34 83 44 29 9 72 27 95 40 45 25
133 45 206 46 25 0 69 8 97 17 43 14 86 17 245 14 107 -1 212 -7 234 -12z
m-75 -1788 c75 -11 281 -85 325 -117 17 -12 49 -32 73 -44 72 -36 143 -119
170 -195 30 -89 29 -121 -8 -157 -25 -25 -33 -28 -50 -19 -11 6 -23 23 -26 38
-14 55 -44 100 -116 167 -69 66 -199 155 -226 155 -7 0 -38 9 -70 20 -124 44
-189 54 -282 40 -136 -19 -269 -58 -334 -99 -93 -57 -171 -144 -201 -224 -30
-82 -32 -130 -5 -197 24 -60 26 -108 5 -116 -22 -9 -146 35 -185 66 -19 15
-48 34 -65 43 -41 21 -121 105 -134 140 -14 36 -14 148 0 184 16 43 108 133
159 155 25 10 56 30 70 43 14 13 54 31 89 40 36 9 82 25 102 36 35 18 75 26
239 48 77 11 377 6 470 -7z m107 -322 c42 -10 131 -57 216 -115 41 -27 87
-110 87 -155 0 -14 -9 -44 -19 -66 -17 -36 -30 -47 -100 -83 -108 -53 -167
-63 -411 -63 -211 -1 -270 7 -320 42 -14 9 -43 24 -64 31 -27 10 -53 31 -82
68 -68 87 -67 111 12 206 30 36 51 49 92 61 28 9 73 27 99 42 82 46 349 63
490 32z"/>
</g>
</svg>
