<?xml version="1.0" standalone="no"?>
<!DOCTYPE svg PUBLIC "-//W3C//DTD SVG 20010904//EN"
 "http://www.w3.org/TR/2001/REC-SVG-20010904/DTD/svg10.dtd">
<svg version="1.0" xmlns="http://www.w3.org/2000/svg"
 width="408.000000pt" height="352.000000pt" viewBox="0 0 408.000000 352.000000"
 preserveAspectRatio="xMidYMid meet">
<metadata>
Created by potrace 1.16, written by Peter Selinger 2001-2019
</metadata>
<rect x="0" y="0" width="408" height="352" fill="#ffffff"/>
<g transform="translate(0.000000,352.000000) scale(0.100000,-0.100000)"
fill="#000000" stroke="none">
<path d="M1940 3505 c0 -8 -9 -42 -21 -76 l-21 -61 21 -119 c29 -160 30 -160
-108 -179 -40 -6 -77 -12 -81 -15 -4 -2 -55 -9 -113 -14 -65 -7 -134 -20 -179
-36 -40 -14 -107 -33 -148 -42 -41 -8 -97 -27 -125 -43 -27 -15 -72 -33 -100
-39 -27 -7 -70 -25 -95 -41 -25 -15 -63 -33 -85 -39 -23 -6 -52 -21 -65 -33
-13 -13 -45 -34 -71 -48 -26 -14 -66 -38 -89 -55 -66 -48 -243 -204 -261 -231
-8 -13 -24 -30 -34 -37 -19 -15 -77 -95 -121 -167 -15 -25 -37 -61 -50 -80
-13 -19 -32 -60 -43 -90 -10 -30 -28 -75 -39 -100 -21 -47 -40 -192 -41 -310
-1 -115 19 -219 55 -292 19 -37 34 -74 34 -82 0 -14 18 -37 132 -171 24 -28
72 -73 107 -100 36 -28 76 -62 90 -76 14 -15 41 -34 59 -43 19 -10 53 -32 77
-50 24 -18 56 -37 72 -40 15 -4 42 -18 60 -32 17 -13 56 -33 86 -44 31 -12 67
-30 81 -41 14 -11 49 -28 78 -38 29 -11 73 -30 98 -44 25 -14 70 -30 100 -37
30 -7 78 -25 105 -40 28 -15 67 -31 87 -34 20 -4 65 -20 100 -35 35 -16 89
-37 120 -46 31 -9 73 -27 93 -41 21 -14 60 -33 89 -42 64 -21 86 -59 86 -147
1 -37 6 -67 16 -80 8 -11 19 -36 25 -57 l10 -38 113 0 114 0 5 28 c3 15 19 45
36 66 35 44 37 67 16 149 -8 32 -15 77 -15 100 0 67 -18 113 -56 146 -32 28
-41 31 -104 31 -38 0 -81 5 -96 10 -15 6 -57 13 -93 15 -190 11 -360 49 -526
117 -27 11 -85 33 -127 49 -43 16 -88 35 -101 44 -13 8 -53 26 -88 40 -34 14
-79 36 -99 49 -19 13 -46 27 -60 31 -14 4 -40 21 -58 36 -18 16 -49 36 -69 44
-20 8 -53 31 -74 50 -22 19 -43 35 -47 35 -10 0 -194 183 -240 239 -19 22 -40
60 -47 84 -7 24 -26 68 -42 98 -26 51 -28 61 -28 174 0 116 2 122 37 200 20
44 39 91 43 105 4 14 19 38 32 54 13 16 34 49 45 74 25 52 249 283 318 327 25
16 60 42 78 57 18 15 39 28 46 28 8 0 36 15 64 34 27 19 69 40 93 46 24 7 64
25 87 40 24 16 69 34 100 40 32 6 78 22 103 35 26 14 105 35 181 50 74 14 159
34 189 44 57 20 251 38 287 27 11 -4 26 -20 32 -37 16 -38 1 -131 -41 -266
-35 -110 -72 -149 -148 -158 -123 -14 -201 -29 -251 -47 -30 -11 -86 -29 -124
-40 -39 -11 -86 -31 -107 -45 -20 -13 -59 -33 -87 -43 -85 -32 -200 -123 -276
-218 -39 -49 -63 -94 -91 -167 -34 -91 -37 -107 -32 -175 5 -83 48 -198 96
-259 14 -18 38 -50 52 -70 48 -65 253 -204 348 -236 30 -10 68 -26 85 -36 17
-10 101 -35 186 -57 206 -53 353 -67 625 -59 190 5 218 8 285 31 41 14 113 32
160 41 47 9 104 27 127 40 23 13 66 31 95 40 29 10 64 28 78 40 14 13 48 34
75 48 28 14 59 35 70 47 11 12 32 28 47 36 15 8 35 29 44 47 9 17 27 43 40 57
12 14 33 48 45 75 12 28 30 61 40 74 11 13 19 34 19 48 0 13 6 39 14 58 12 27
23 36 58 45 23 7 63 22 88 35 26 13 72 30 104 38 31 9 71 26 89 40 18 13 48
29 68 36 50 16 195 160 222 220 17 39 20 66 20 171 0 69 -5 144 -10 167 -17
67 -62 131 -164 233 -119 119 -163 156 -209 180 -20 10 -42 25 -48 33 -7 8
-31 22 -54 32 -24 11 -61 31 -83 47 -22 15 -62 32 -88 38 -26 6 -71 23 -100
39 -29 16 -83 34 -122 41 -38 7 -102 25 -142 41 -50 19 -106 31 -180 39 -59 6
-141 18 -181 27 -40 8 -91 13 -115 11 -25 -3 -66 3 -102 14 -47 15 -75 18
-132 12 -68 -6 -73 -5 -97 19 -32 32 -32 47 -1 144 31 97 31 101 0 159 -14 26
-25 58 -25 70 0 24 -1 24 -105 24 -87 0 -105 -3 -105 -15z m625 -705 c175 -12
202 -16 295 -45 41 -13 110 -29 153 -34 48 -7 99 -22 135 -40 31 -15 75 -31
97 -35 22 -4 67 -22 100 -40 33 -18 76 -39 95 -46 19 -7 46 -23 60 -35 14 -13
37 -29 52 -36 15 -8 65 -49 112 -91 94 -86 166 -200 166 -261 0 -53 -87 -179
-153 -221 -29 -19 -59 -41 -66 -49 -7 -9 -34 -23 -61 -32 -26 -9 -55 -24 -65
-34 -23 -27 -70 -44 -98 -37 -24 6 -65 62 -107 146 -35 69 -209 230 -272 252
-18 6 -54 26 -80 43 -26 18 -64 36 -85 40 -21 3 -67 20 -104 35 -68 30 -262
66 -429 80 -47 4 -93 11 -103 15 -22 9 -43 49 -52 100 -4 22 -12 49 -18 60 -6
11 -14 54 -19 95 -4 41 -11 93 -14 116 -6 44 4 59 46 67 32 6 237 0 415 -13z
m-692 -666 c63 -70 121 -104 176 -104 47 0 73 15 160 94 l54 48 61 -7 c33 -3
86 -16 116 -27 30 -11 90 -32 132 -47 43 -15 91 -37 108 -50 17 -12 46 -28 65
-34 44 -15 180 -140 241 -220 46 -59 48 -66 58 -154 14 -127 5 -148 -97 -255
-47 -47 -100 -94 -118 -103 -19 -10 -45 -28 -59 -40 -14 -13 -51 -31 -82 -40
-32 -9 -61 -21 -64 -27 -11 -17 -85 -45 -139 -53 -27 -3 -86 -18 -130 -31 -84
-26 -223 -43 -362 -44 -110 0 -316 27 -383 50 -30 11 -84 24 -120 30 -38 7
-84 23 -110 40 -25 15 -56 31 -70 35 -33 9 -165 98 -213 144 -21 20 -60 67
-85 105 l-47 69 0 107 c0 103 1 107 35 165 67 115 250 263 370 299 25 8 70 25
101 39 31 14 94 31 140 37 46 7 104 18 129 25 61 18 77 12 133 -51z"/>
</g>
</svg>
