<?xml version="1.0" standalone="no"?>
<!DOCTYPE svg PUBLIC "-//W3C//DTD SVG 20010904//EN"
 "http://www.w3.org/TR/2001/REC-SVG-20010904/DTD/svg10.dtd">
<svg version="1.0" xmlns="http://www.w3.org/2000/svg"
 width="416.000000pt" height="520.000000pt" viewBox="0 0 416.000000 520.000000"
 preserveAspectRatio="xMidYMid meet">
<metadata>
Created by potrace 1.16, written by Peter Selinger 2001-2019
</metadata>
<rect x="0" y="0" width="416" height="520" fill="#ffffff"/>
<g transform="translate(0.000000,520.000000) scale(0.100000,-0.100000)"
fill="#000000" stroke="none">
<path d="M2053 5119 c-48 -14 -123 -114 -123 -164 0 -8 14 -30 31 -50 33 -37
41 -81 18 -96 -8 -5 -52 -9 -99 -9 -95 0 -266 -30 -350 -60 -30 -10 -67 -19
-81 -20 -15 0 -53 -14 -85 -31 -33 -17 -82 -40 -110 -50 -28 -11 -60 -29 -70
-40 -11 -12 -37 -30 -59 -41 -96 -49 -234 -235 -243 -328 -7 -78 5 -114 67
-198 56 -76 63 -81 162 -131 57 -28 111 -51 120 -51 24 0 46 -30 54 -73 4 -21
18 -50 30 -65 12 -15 29 -40 38 -57 21 -41 110 -116 177 -149 30 -14 66 -33
80 -41 51 -28 320 -79 420 -80 258 0 490 66 690 197 94 61 174 228 155 321
-20 94 -100 200 -221 292 -59 45 -271 125 -332 125 -18 0 -41 4 -51 10 -27 14
-81 103 -81 132 0 43 21 52 92 39 35 -6 99 -16 143 -22 44 -6 109 -24 145 -39
36 -16 85 -34 110 -40 25 -7 59 -22 75 -34 17 -13 50 -32 75 -43 47 -21 189
-154 247 -232 18 -23 38 -62 43 -84 6 -23 18 -61 27 -84 16 -44 15 -58 -13
-159 -14 -54 -26 -72 -93 -141 -42 -44 -94 -91 -116 -105 -22 -14 -46 -32 -54
-41 -7 -9 -38 -26 -69 -37 -30 -12 -68 -30 -83 -41 -16 -11 -59 -31 -96 -44
-38 -13 -86 -32 -108 -43 -64 -32 -232 -56 -348 -49 -105 6 -138 -1 -174 -35
-16 -15 -44 -23 -98 -29 -170 -20 -222 -28 -270 -44 -27 -8 -101 -25 -163 -36
-63 -11 -135 -30 -160 -43 -26 -13 -74 -29 -107 -36 -33 -6 -76 -23 -97 -37
-20 -13 -58 -31 -85 -39 -26 -8 -66 -27 -88 -43 -22 -15 -58 -34 -80 -41 -22
-7 -56 -25 -75 -40 -19 -15 -49 -34 -66 -43 -17 -9 -37 -23 -45 -33 -8 -9 -27
-25 -44 -35 -33 -21 -285 -268 -285 -281 0 -4 -16 -25 -35 -46 -19 -21 -44
-60 -55 -87 -11 -26 -33 -63 -49 -80 -16 -18 -32 -50 -36 -71 -3 -22 -19 -68
-35 -104 -40 -91 -56 -259 -40 -413 10 -91 18 -125 45 -182 18 -38 36 -80 40
-92 3 -13 22 -41 41 -64 19 -22 34 -45 34 -51 0 -12 206 -218 219 -218 5 0 31
-18 56 -40 25 -22 52 -40 59 -40 7 0 30 -15 52 -33 21 -18 58 -41 81 -51 23
-10 50 -27 59 -37 9 -10 39 -26 68 -35 28 -9 69 -30 91 -45 22 -16 62 -33 90
-39 27 -6 63 -22 80 -34 17 -13 65 -33 107 -44 41 -12 92 -31 112 -43 20 -12
69 -28 108 -35 39 -7 96 -26 127 -42 31 -16 87 -34 124 -41 38 -6 92 -25 120
-41 29 -15 71 -33 94 -40 26 -6 48 -20 55 -33 7 -12 15 -70 18 -128 l5 -107
53 -55 c28 -31 52 -61 52 -66 0 -6 18 -11 40 -11 22 0 40 5 40 11 0 6 23 32
51 58 l51 47 -1 198 c-1 117 -6 207 -13 221 -17 38 -93 65 -185 65 -43 0 -94
5 -113 10 -19 6 -82 17 -140 26 -73 10 -122 23 -160 43 -30 15 -84 34 -119 40
-35 7 -87 25 -115 41 -28 15 -73 33 -101 40 -27 6 -64 22 -81 35 -17 13 -57
31 -90 40 -32 10 -74 28 -91 42 -18 13 -52 31 -75 39 -24 8 -54 25 -68 38 -14
13 -48 35 -76 49 -27 14 -56 33 -64 42 -7 9 -30 25 -49 35 -45 22 -224 199
-269 263 -18 26 -39 64 -46 85 -8 21 -25 54 -39 75 -53 78 -49 259 8 378 19
41 35 79 35 85 0 7 15 34 33 60 19 27 42 67 53 89 10 22 76 97 149 170 97 97
145 137 187 157 31 15 59 32 63 38 3 6 32 23 64 39 31 16 63 37 70 45 8 9 39
23 70 32 31 9 81 29 111 45 30 16 80 34 110 40 30 6 84 23 120 36 36 14 124
36 195 49 72 13 162 31 200 39 133 29 134 29 157 9 29 -26 58 -92 58 -134 0
-19 5 -70 12 -113 11 -75 11 -79 -10 -100 -19 -18 -38 -23 -115 -28 -57 -4
-115 -15 -152 -29 -33 -12 -96 -32 -141 -44 -44 -13 -96 -34 -115 -48 -19 -13
-55 -33 -82 -42 -26 -10 -53 -26 -60 -35 -6 -10 -25 -26 -40 -36 -41 -26 -93
-106 -168 -255 -31 -62 -32 -70 -31 -172 0 -95 4 -114 30 -175 16 -37 33 -79
37 -91 4 -13 60 -77 125 -142 84 -84 129 -121 156 -130 22 -7 57 -26 79 -41
22 -16 63 -35 90 -43 28 -8 78 -26 112 -40 42 -18 93 -29 165 -36 56 -6 144
-17 193 -26 211 -36 782 4 1011 72 28 8 91 23 141 33 49 10 111 30 139 44 27
14 70 30 94 37 25 6 65 24 90 39 25 16 61 34 80 41 93 36 288 227 349 343 23
43 41 86 41 96 0 9 11 60 25 112 28 109 32 191 9 244 -8 21 -22 72 -30 113 -9
48 -25 93 -44 122 -17 26 -30 51 -30 57 0 17 -109 154 -169 212 -32 31 -80 73
-107 94 -27 20 -69 53 -94 72 -25 19 -63 44 -85 55 -22 10 -55 30 -74 44 -19
14 -57 32 -85 40 -28 8 -66 26 -84 39 -18 14 -60 30 -94 37 -34 6 -83 22 -108
35 -25 13 -114 37 -199 53 -159 32 -194 48 -189 86 4 26 57 62 105 71 21 4 58
22 83 40 25 18 56 36 70 40 59 19 293 239 311 294 7 20 23 58 35 86 20 43 24
66 24 161 0 108 -2 116 -41 214 -23 57 -56 123 -75 149 -63 86 -119 155 -144
178 -62 56 -124 105 -153 120 -18 8 -45 26 -60 39 -15 13 -47 28 -70 35 -23 6
-62 21 -86 35 -24 13 -89 35 -145 49 -55 14 -127 34 -159 45 -31 11 -72 20
-90 20 -43 0 -77 25 -77 56 0 13 12 46 27 73 l27 48 -32 66 c-31 63 -35 67
-84 82 -58 17 -78 17 -125 4z m-32 -600 c27 -27 21 -64 -21 -124 -36 -53 -59
-60 -207 -69 -105 -6 -138 -16 -263 -75 -86 -42 -148 -92 -204 -168 -68 -90
-82 -91 -172 -7 -55 52 -64 98 -32 162 13 27 37 56 56 67 18 11 47 30 65 42
70 49 237 119 312 132 33 5 98 17 145 25 47 9 108 16 135 17 28 0 59 4 70 9
38 16 94 11 116 -11z m514 -415 c185 -95 239 -197 174 -325 -36 -72 -175 -163
-292 -191 -112 -28 -350 -36 -427 -15 -30 9 -82 20 -115 25 -100 17 -274 146
-294 219 -27 95 77 231 210 274 37 12 74 19 83 16 9 -4 26 -30 39 -59 25 -57
82 -114 122 -124 14 -3 60 -5 103 -3 l79 4 48 48 c40 40 50 58 59 105 20 97
61 102 211 26z m250 -1249 c89 -20 256 -52 315 -60 25 -4 74 -20 110 -35 36
-16 83 -31 105 -35 22 -4 65 -22 95 -40 30 -18 73 -38 95 -45 22 -7 51 -23 65
-35 14 -13 41 -31 60 -40 19 -10 48 -31 65 -46 169 -159 199 -200 249 -335 48
-130 49 -193 2 -330 -36 -107 -81 -181 -154 -257 -60 -62 -163 -131 -243 -162
-34 -14 -72 -31 -85 -40 -12 -8 -55 -23 -94 -34 -39 -11 -96 -29 -125 -40 -30
-11 -117 -29 -194 -41 -77 -11 -160 -24 -183 -30 -55 -12 -592 -13 -638 0 -19
5 -88 16 -153 24 -82 11 -138 24 -185 45 -37 16 -83 32 -102 36 -19 4 -53 19
-75 34 -22 16 -58 38 -80 49 -51 25 -171 144 -196 194 -10 20 -31 54 -45 75
-36 52 -30 125 17 209 38 68 119 151 165 170 18 8 48 24 68 37 19 13 63 29 98
36 35 7 83 18 108 26 73 21 168 38 184 32 13 -5 15 -25 10 -134 -4 -70 -12
-150 -20 -178 -21 -77 -23 -191 -3 -210 17 -17 144 -39 162 -28 6 3 74 10 151
14 230 13 351 26 537 58 163 28 184 34 275 80 88 44 103 56 141 108 45 64 68
132 59 170 -11 42 -73 128 -122 168 -70 58 -207 115 -349 146 -52 11 -121 29
-153 40 -61 21 -234 38 -389 39 -103 0 -138 9 -148 39 -3 11 -7 53 -8 93 -2
90 31 201 71 237 l27 24 220 -7 c134 -4 247 -12 290 -21z m-111 -640 c44 -9
150 -27 233 -40 84 -13 165 -31 180 -39 29 -15 93 -74 93 -85 0 -17 -42 -72
-72 -95 -32 -24 -149 -66 -243 -86 -90 -20 -220 -30 -379 -30 -172 0 -234 9
-260 39 -26 30 -58 179 -51 240 9 79 14 91 38 101 39 15 371 12 461 -5z"/>
</g>
</svg>
