<?xml version="1.0" standalone="no"?>
<!DOCTYPE svg PUBLIC "-//W3C//DTD SVG 20010904//EN"
 "http://www.w3.org/TR/2001/REC-SVG-20010904/DTD/svg10.dtd">
<svg version="1.0" xmlns="http://www.w3.org/2000/svg"
 width="408.000000pt" height="288.000000pt" viewBox="0 0 408.000000 288.000000"
 preserveAspectRatio="xMidYMid meet">
<metadata>
Created by potrace 1.16, written by Peter Selinger 2001-2019
</metadata>
<rect x="0" y="0" width="408" height="288" fill="#ffffff"/>
<g transform="translate(0.000000,288.000000) scale(0.100000,-0.100000)"
fill="#000000" stroke="none">
<path d="M1833 2860 c-7 -11 -29 -22 -50 -25 -21 -3 -58 -11 -82 -16 -24 -5
-96 -16 -161 -24 -70 -8 -138 -22 -165 -34 -25 -11 -80 -27 -121 -36 -41 -8
-114 -33 -162 -54 -48 -22 -102 -42 -119 -46 -18 -3 -36 -11 -39 -17 -4 -6
-39 -25 -78 -43 -39 -18 -78 -40 -85 -49 -8 -9 -38 -28 -68 -42 -29 -14 -53
-29 -53 -34 0 -4 -22 -22 -50 -39 -27 -17 -103 -84 -167 -148 -141 -141 -178
-184 -203 -234 -11 -21 -24 -41 -30 -44 -18 -11 -108 -200 -115 -241 -12 -69
-45 -161 -65 -179 -18 -16 -20 -32 -20 -126 0 -104 1 -110 30 -151 17 -24 38
-72 48 -108 10 -36 37 -96 60 -135 79 -130 271 -317 404 -392 21 -12 51 -32
67 -46 16 -13 44 -30 62 -37 19 -7 52 -26 74 -40 22 -15 56 -32 76 -39 20 -6
57 -25 82 -41 25 -16 65 -34 88 -40 23 -7 65 -24 93 -40 28 -15 73 -33 100
-39 26 -7 77 -25 113 -41 35 -16 80 -32 99 -36 19 -3 70 -20 112 -36 42 -16
100 -37 127 -47 28 -10 66 -28 85 -39 20 -12 55 -28 80 -37 53 -19 80 -41 80
-67 0 -17 11 -18 144 -18 l143 0 8 62 c4 35 8 92 10 128 4 79 65 293 93 323
11 12 29 41 40 63 29 56 187 202 232 214 42 11 261 34 275 29 11 -4 129 16
220 36 33 8 104 21 158 29 53 9 123 27 155 40 31 13 82 31 114 39 31 8 71 26
90 40 18 13 56 32 85 41 28 10 57 24 65 33 7 9 32 28 55 43 85 54 196 203 232
311 13 40 33 77 51 94 l30 29 0 164 0 164 -34 40 c-22 25 -39 59 -46 91 -7 29
-26 75 -44 102 -18 28 -40 62 -50 78 -26 42 -253 265 -289 284 -18 8 -48 28
-67 43 -19 15 -50 32 -68 38 -19 7 -49 25 -67 41 -22 19 -54 34 -88 41 -31 6
-75 24 -100 41 -29 19 -72 35 -119 44 -40 7 -103 25 -140 39 -45 17 -106 29
-185 37 -118 11 -211 37 -233 64 -11 13 -67 15 -359 15 -332 0 -347 -1 -358
-20z m572 -299 c193 -9 327 -27 401 -54 22 -8 83 -20 135 -26 65 -9 112 -21
154 -41 33 -16 86 -34 118 -40 32 -7 69 -22 85 -35 16 -13 54 -33 84 -45 31
-11 62 -28 69 -36 7 -9 31 -25 53 -36 83 -43 220 -173 262 -248 13 -25 33 -56
44 -70 66 -82 63 -419 -4 -489 -14 -14 -34 -47 -44 -72 -14 -32 -43 -66 -96
-112 -42 -37 -82 -67 -89 -67 -7 0 -31 -13 -53 -29 -21 -15 -65 -38 -97 -50
-32 -11 -75 -29 -95 -40 -40 -20 -199 -57 -208 -48 -8 8 29 72 91 157 30 41
58 91 63 110 4 19 7 96 7 170 0 146 -1 147 -70 263 -66 110 -198 234 -305 286
-25 11 -60 32 -77 45 -18 13 -50 27 -70 31 -21 4 -68 20 -105 36 -130 57 -514
96 -635 65 -33 -9 -81 -16 -106 -16 -72 0 -190 -26 -266 -59 -38 -17 -78 -31
-89 -31 -10 0 -37 -12 -58 -27 -21 -14 -61 -36 -89 -48 -27 -13 -59 -33 -70
-45 -11 -12 -36 -30 -56 -40 -38 -20 -165 -158 -179 -196 -5 -13 -20 -40 -34
-61 -32 -49 -51 -163 -42 -260 8 -84 21 -126 51 -168 12 -16 27 -44 34 -62 18
-45 182 -192 237 -213 16 -6 49 -24 74 -40 25 -16 71 -36 103 -45 33 -9 82
-28 111 -41 73 -33 299 -66 471 -68 76 -1 90 -4 93 -18 6 -29 -26 -76 -107
-159 -44 -44 -86 -94 -95 -112 -8 -18 -29 -50 -45 -71 -17 -21 -33 -47 -37
-59 -18 -60 -67 -79 -142 -57 -19 5 -84 16 -145 25 -73 11 -133 27 -172 45
-33 15 -85 33 -115 40 -30 7 -81 26 -112 41 -32 16 -63 29 -69 29 -36 0 -374
167 -429 212 -19 15 -40 28 -47 28 -7 0 -27 13 -45 29 -18 15 -53 41 -78 56
-65 41 -237 217 -256 261 -9 21 -26 52 -39 68 -24 31 -75 215 -75 269 0 15 6
53 14 85 8 31 20 81 26 111 6 30 21 69 35 87 13 17 33 55 44 83 10 28 32 67
48 86 88 110 190 219 225 241 21 14 42 32 45 40 3 8 24 24 47 36 22 11 56 34
74 49 18 16 39 29 46 29 8 0 36 15 62 33 27 19 67 40 89 46 22 7 69 28 105 46
36 18 83 36 105 40 22 3 69 19 105 35 36 15 101 34 145 40 44 7 132 25 195 42
100 26 140 30 323 38 114 4 211 11 215 15 4 3 20 4 37 0 16 -3 116 -10 220
-14z m-200 -666 c33 -8 86 -15 117 -15 31 0 68 -4 82 -10 14 -5 75 -16 137
-25 76 -10 127 -23 158 -40 25 -13 71 -34 103 -45 31 -11 62 -28 69 -36 7 -9
29 -24 49 -34 39 -20 114 -97 145 -150 11 -19 26 -43 32 -55 7 -11 13 -47 13
-81 0 -49 -5 -69 -25 -98 -14 -21 -34 -54 -44 -75 -11 -20 -40 -55 -65 -76
-102 -88 -130 -110 -164 -127 -21 -10 -52 -28 -69 -39 -18 -11 -54 -27 -80
-34 -27 -8 -88 -28 -136 -45 -83 -30 -97 -31 -280 -37 -225 -6 -439 14 -516
48 -25 11 -75 30 -110 41 -35 11 -80 30 -100 42 -20 13 -57 35 -83 50 -59 33
-153 126 -198 196 -34 54 -35 58 -35 155 l0 101 58 77 c40 52 72 84 100 98 23
12 53 32 67 44 14 13 50 32 80 43 30 11 82 31 115 46 33 14 72 26 87 26 15 0
64 9 110 20 46 11 106 20 133 20 28 0 73 7 100 14 64 18 78 18 150 1z"/>
</g>
</svg>
