<?xml version="1.0" standalone="no"?>
<!DOCTYPE svg PUBLIC "-//W3C//DTD SVG 20010904//EN"
 "http://www.w3.org/TR/2001/REC-SVG-20010904/DTD/svg10.dtd">
<svg version="1.0" xmlns="http://www.w3.org/2000/svg"
 width="416.000000pt" height="528.000000pt" viewBox="0 0 416.000000 528.000000"
 preserveAspectRatio="xMidYMid meet">
<metadata>
Created by potrace 1.16, written by Peter Selinger 2001-2019
</metadata>
<rect x="0" y="0" width="416" height="528" fill="#ffffff"/>
<g transform="translate(0.000000,528.000000) scale(0.100000,-0.100000)"
fill="#000000" stroke="none">
<path d="M1690 5271 c0 -22 -108 -62 -193 -71 -80 -9 -157 -29 -199 -51 -9 -5
-50 -16 -90 -24 -41 -9 -89 -27 -110 -41 -20 -14 -58 -32 -85 -40 -26 -8 -66
-27 -88 -43 -22 -15 -58 -34 -80 -41 -22 -7 -60 -28 -84 -47 -24 -18 -50 -33
-57 -33 -7 0 -36 -19 -63 -42 -28 -24 -78 -65 -112 -93 -89 -72 -269 -278
-289 -331 -6 -15 -23 -43 -39 -63 -15 -20 -34 -54 -41 -76 -7 -22 -23 -58 -35
-80 -13 -22 -28 -67 -35 -100 -18 -95 -21 -344 -5 -433 16 -88 71 -204 131
-277 62 -76 215 -225 259 -253 22 -14 58 -40 79 -59 22 -18 45 -33 51 -33 6 0
27 -13 46 -29 20 -17 60 -39 89 -50 29 -11 69 -31 89 -44 20 -13 52 -29 72
-36 20 -6 57 -25 83 -41 25 -16 68 -35 94 -42 26 -6 70 -24 97 -39 28 -15 78
-34 112 -43 35 -9 80 -24 100 -35 21 -10 73 -28 116 -40 43 -12 100 -32 127
-46 26 -13 68 -27 92 -31 56 -9 78 -21 78 -43 0 -26 -52 -64 -172 -124 -45
-22 -88 -71 -134 -151 -30 -52 -35 -68 -37 -140 -2 -76 0 -85 29 -131 18 -28
35 -60 38 -71 21 -69 251 -202 383 -223 43 -7 72 -17 80 -28 19 -25 18 -233
-1 -259 -13 -18 -28 -19 -193 -19 -216 -1 -324 -15 -460 -60 -57 -19 -119 -37
-137 -41 -19 -3 -50 -17 -68 -31 -18 -13 -52 -32 -75 -43 -56 -25 -150 -120
-175 -178 -12 -26 -33 -65 -47 -86 -25 -38 -26 -46 -26 -172 0 -131 0 -132 31
-175 17 -24 36 -60 43 -80 6 -20 23 -46 36 -59 13 -12 36 -40 51 -61 15 -22
43 -49 63 -61 20 -12 50 -34 68 -49 18 -15 52 -37 75 -48 24 -11 54 -29 68
-41 14 -11 57 -28 95 -39 39 -10 95 -28 126 -39 38 -14 102 -25 195 -32 194
-16 203 -18 236 -51 29 -29 30 -29 149 -29 95 0 119 3 119 14 0 8 8 24 18 36
16 19 33 24 122 32 131 12 285 59 435 134 186 93 249 145 426 354 16 19 34 53
40 75 6 22 21 56 35 75 32 48 47 135 42 245 -3 82 -8 100 -48 185 -27 57 -65
118 -95 152 -73 83 -205 193 -261 217 -27 12 -58 30 -69 40 -24 23 -200 104
-270 124 -27 8 -71 25 -98 37 -26 11 -102 32 -170 46 -67 14 -134 30 -149 36
-34 13 -51 56 -34 89 10 22 21 25 101 32 77 6 104 14 182 51 61 30 97 54 109
73 10 15 29 41 43 56 23 25 26 37 26 106 0 69 -3 82 -30 123 -43 64 -134 135
-191 148 -99 22 -110 47 -94 207 10 97 15 117 55 195 80 156 175 272 259 315
30 16 92 26 251 42 117 13 378 49 430 61 25 6 68 19 96 30 29 10 77 24 108 31
31 6 79 24 106 39 28 16 70 34 95 40 25 7 61 24 80 40 19 15 46 33 60 40 37
20 139 112 146 132 3 10 20 36 39 58 18 22 39 57 46 78 6 20 20 49 30 63 30
43 37 71 49 197 9 100 8 140 -5 234 -8 62 -22 122 -30 135 -8 12 -24 47 -35
76 -11 30 -32 65 -46 78 -14 13 -35 42 -46 64 -24 47 -197 218 -248 245 -19
10 -44 28 -55 40 -11 12 -47 35 -81 50 -34 15 -64 32 -68 38 -3 6 -30 18 -59
28 -28 9 -70 30 -91 45 -22 16 -47 29 -56 29 -9 0 -69 18 -135 40 -65 22 -157
45 -204 50 -121 15 -159 27 -177 55 l-16 25 -519 0 c-312 0 -519 -4 -519 -9z
m635 -281 c14 -5 70 -12 123 -14 124 -5 318 -22 357 -31 17 -4 66 -17 110 -30
44 -13 111 -29 149 -35 37 -6 94 -24 125 -39 31 -16 80 -34 109 -41 29 -7 66
-23 81 -36 16 -13 50 -33 76 -44 26 -11 63 -33 81 -48 100 -80 146 -123 211
-196 59 -66 80 -98 114 -181 40 -92 43 -107 43 -190 0 -78 -3 -97 -26 -140
-14 -28 -31 -69 -37 -92 -20 -72 -184 -244 -265 -278 -20 -8 -56 -28 -82 -45
-26 -16 -64 -33 -83 -36 -20 -4 -61 -19 -92 -35 -91 -45 -179 -51 -179 -12 0
10 27 45 60 78 83 84 111 155 117 295 4 92 1 116 -21 195 -15 50 -37 101 -50
115 -13 14 -37 46 -55 73 -18 26 -55 64 -84 86 -29 21 -58 46 -66 55 -8 10
-33 27 -55 38 -23 11 -54 31 -69 44 -15 13 -50 30 -77 38 -27 8 -68 26 -92 40
-24 14 -72 30 -108 35 -36 6 -108 21 -160 33 -81 20 -122 23 -280 23 -164 0
-198 -3 -300 -26 -63 -15 -137 -30 -165 -34 -27 -3 -73 -19 -101 -35 -28 -16
-69 -33 -92 -39 -23 -7 -54 -22 -69 -35 -15 -13 -48 -33 -72 -45 -63 -33 -266
-239 -281 -288 -7 -21 -24 -58 -38 -83 -23 -41 -25 -53 -24 -150 2 -88 6 -112
26 -150 13 -25 29 -62 35 -83 40 -120 323 -326 518 -377 43 -11 102 -29 132
-40 57 -22 203 -40 369 -44 71 -3 97 -7 110 -20 15 -15 11 -22 -64 -94 -78
-75 -104 -107 -171 -215 -49 -80 -96 -138 -118 -146 -10 -5 -35 -4 -55 0 -19
5 -62 9 -95 9 -38 0 -85 10 -130 26 -38 14 -110 36 -158 50 -48 13 -109 35
-135 48 -26 13 -60 26 -77 30 -65 16 -394 171 -451 213 -17 13 -35 23 -41 23
-13 0 -131 85 -198 142 -122 106 -219 218 -241 280 -8 24 -27 61 -42 83 -27
39 -27 43 -27 200 0 159 0 160 32 225 17 36 39 84 49 108 9 23 23 47 31 54 8
6 25 32 38 57 22 45 265 301 285 301 6 0 27 15 47 34 21 18 54 38 73 45 20 6
50 24 67 40 18 16 49 35 70 41 21 7 57 24 80 37 23 13 70 32 105 42 35 10 86
30 113 44 28 14 88 33 135 41 47 9 128 27 180 41 100 27 226 43 397 51 56 2
112 8 125 14 31 12 220 12 253 0z m25 -681 c74 -6 148 -21 208 -40 51 -16 107
-29 126 -29 19 0 60 -14 92 -31 33 -17 81 -39 107 -49 50 -19 63 -30 164 -132
69 -70 83 -105 83 -210 -1 -87 -22 -129 -117 -223 -105 -105 -152 -142 -201
-159 -22 -8 -57 -26 -79 -39 -21 -14 -65 -31 -98 -37 -33 -7 -87 -23 -119 -37
-87 -36 -267 -50 -445 -34 -309 27 -535 113 -695 262 -72 68 -92 94 -121 156
-19 42 -35 91 -35 110 0 19 14 68 31 109 27 64 42 84 110 147 44 40 99 80 123
89 23 9 59 27 79 41 19 13 64 30 99 36 35 7 99 23 143 37 137 41 330 53 545
33z m-293 -1930 c27 -10 27 -11 9 -25 -21 -15 -56 -18 -93 -8 -31 8 -29 20 5
32 36 14 46 14 79 1z m158 -19 c8 -13 -25 -13 -45 0 -12 8 -9 10 12 10 15 0
30 -4 33 -10z m-314 -69 c-7 -16 -22 -38 -33 -48 -50 -45 -60 -110 -29 -179
14 -31 35 -51 85 -83 75 -47 95 -77 78 -116 -17 -36 -58 -43 -102 -16 -19 12
-62 35 -95 51 -94 45 -166 137 -165 212 1 71 92 182 170 206 86 27 110 20 91
-27z m428 24 c42 -21 81 -72 81 -105 0 -35 -35 -77 -72 -86 -28 -6 -28 -6 -28
44 0 39 -6 57 -24 79 -14 16 -28 41 -31 56 -6 24 -4 27 19 27 15 0 40 -7 55
-15z m-168 -95 c53 -29 -18 -77 -87 -59 -55 15 -64 27 -35 50 26 21 90 26 122
9z m-161 -64 c0 -8 -8 -24 -18 -36 -16 -20 -19 -21 -31 -6 -12 14 -11 19 4 36
21 23 45 26 45 6z m236 -531 c53 -14 104 -25 114 -25 32 0 252 -87 346 -137
51 -26 118 -68 150 -92 81 -62 184 -170 201 -210 8 -18 26 -52 41 -74 24 -36
27 -50 26 -122 0 -66 -5 -89 -22 -116 -12 -19 -30 -51 -40 -72 -28 -55 -148
-185 -208 -223 -29 -19 -55 -38 -59 -43 -3 -5 -31 -19 -63 -31 -31 -12 -84
-34 -116 -51 -33 -16 -71 -29 -86 -29 -15 0 -71 -13 -124 -30 -144 -44 -186
-48 -220 -19 -16 15 -29 38 -33 61 -4 30 -1 41 20 62 15 15 37 26 53 26 14 0
52 11 83 25 31 13 75 29 98 35 48 12 103 52 179 130 42 43 56 66 65 106 15 66
8 241 -11 275 -30 52 -82 115 -128 151 -86 68 -255 138 -332 138 -62 0 -86 27
-93 107 -8 82 5 142 34 166 11 9 23 17 25 17 2 0 47 -11 100 -25z m-263 -395
c48 -38 45 -164 -4 -190 -10 -6 -74 -15 -142 -20 -167 -13 -296 -34 -399 -66
-59 -19 -134 -96 -143 -148 -13 -69 2 -106 68 -169 40 -36 77 -61 102 -68 22
-6 86 -24 141 -41 56 -16 156 -35 223 -42 67 -8 128 -19 136 -26 43 -36 -18
-140 -82 -140 -69 0 -265 31 -340 54 -45 13 -103 28 -128 31 -25 4 -62 19 -83
32 -20 14 -54 32 -76 39 -21 8 -55 29 -76 47 -20 17 -53 44 -72 58 -39 31
-118 183 -118 229 0 16 17 63 37 105 30 63 49 87 110 140 52 44 88 66 120 74
25 7 67 23 94 36 27 14 90 32 145 40 54 9 103 19 108 23 6 4 81 9 166 13 85 3
162 6 171 7 9 1 28 -7 42 -18z m288 -68 c25 -17 58 -34 73 -38 17 -4 47 -32
82 -75 59 -74 68 -113 40 -167 -66 -126 -356 -230 -356 -127 0 29 12 41 70 69
34 16 51 32 68 66 12 24 22 55 22 68 0 40 -37 88 -84 111 -70 32 -104 88 -73
120 22 23 107 9 158 -27z m-286 -307 c37 -37 27 -137 -15 -150 -10 -3 -67 -1
-126 5 -60 5 -140 10 -179 11 -38 0 -86 5 -105 12 -29 10 -36 17 -38 44 -2 23
3 37 17 50 33 28 162 51 299 52 118 1 124 0 147 -24z"/>
</g>
</svg>
