<?xml version="1.0" standalone="no"?>
<!DOCTYPE svg PUBLIC "-//W3C//DTD SVG 20010904//EN"
 "http://www.w3.org/TR/2001/REC-SVG-20010904/DTD/svg10.dtd">
<svg version="1.0" xmlns="http://www.w3.org/2000/svg"
 width="408.000000pt" height="584.000000pt" viewBox="0 0 408.000000 584.000000"
 preserveAspectRatio="xMidYMid meet">
<metadata>
Created by potrace 1.16, written by Peter Selinger 2001-2019
</metadata>
<rect x="0" y="0" width="408" height="584" fill="#ffffff"/>
<g transform="translate(0.000000,584.000000) scale(0.100000,-0.100000)"
fill="#000000" stroke="none">
<path d="M1750 5819 c-18 -25 -95 -44 -234 -59 -56 -7 -128 -22 -165 -36 -36
-14 -99 -32 -139 -39 -47 -9 -90 -25 -119 -44 -24 -16 -68 -35 -96 -41 -29 -6
-70 -23 -92 -39 -22 -15 -55 -33 -73 -39 -19 -6 -47 -23 -63 -36 -17 -14 -49
-35 -72 -46 -23 -11 -62 -36 -87 -55 -25 -20 -69 -55 -99 -78 -30 -23 -79 -66
-110 -96 -53 -51 -74 -77 -156 -198 -19 -28 -39 -54 -45 -58 -20 -12 -109
-212 -119 -268 -11 -62 -21 -85 -58 -133 -21 -29 -23 -40 -23 -164 l0 -133 34
-37 c24 -27 38 -55 46 -94 6 -30 21 -70 33 -88 13 -18 35 -54 50 -80 15 -27
31 -48 35 -48 4 0 24 -22 45 -49 68 -92 338 -297 460 -350 26 -11 60 -29 75
-39 15 -11 44 -25 64 -31 20 -7 54 -24 75 -38 20 -14 60 -32 88 -40 27 -8 69
-26 91 -39 23 -14 73 -33 112 -44 39 -11 85 -28 104 -39 18 -11 62 -27 98 -35
90 -21 250 -87 261 -107 15 -28 0 -47 -50 -64 -57 -19 -143 -83 -204 -151 -72
-80 -94 -210 -52 -310 22 -52 105 -154 149 -181 22 -14 50 -33 61 -43 11 -10
45 -27 76 -38 31 -11 72 -32 92 -45 22 -15 59 -27 92 -32 64 -8 95 -31 95 -70
0 -14 7 -42 15 -62 35 -84 19 -96 -149 -105 -172 -9 -248 -20 -381 -53 -260
-64 -467 -199 -555 -362 -40 -74 -40 -76 -40 -181 0 -104 1 -110 38 -184 53
-107 176 -233 254 -260 18 -6 47 -22 63 -34 17 -13 69 -37 115 -54 47 -17 101
-37 120 -45 19 -7 96 -20 170 -30 74 -9 152 -21 173 -26 20 -5 53 -7 72 -3 69
13 107 -35 124 -155 10 -76 7 -102 -34 -306 -29 -142 -29 -161 -5 -195 12 -16
41 -41 65 -55 l43 -26 58 41 c33 23 63 48 68 57 11 21 -1 104 -25 167 -24 64
-43 227 -37 324 9 128 46 156 239 177 106 12 141 20 175 40 23 14 73 32 111
40 38 9 86 28 108 45 22 15 58 33 80 39 22 6 58 26 79 46 22 19 43 35 48 35
17 0 170 144 195 184 15 22 35 50 44 61 10 11 31 58 48 104 43 118 43 215 1
320 -34 82 -109 174 -169 205 -20 10 -49 30 -66 45 -16 15 -68 45 -115 68 -88
42 -325 133 -348 133 -7 0 -61 15 -120 34 -59 19 -132 39 -162 46 -98 20 -126
58 -74 99 21 17 41 21 99 21 39 0 94 6 121 14 27 8 74 19 104 25 70 14 178 86
251 165 44 48 56 70 70 123 17 70 11 140 -16 194 -22 41 -142 147 -183 160
-21 7 -71 26 -112 44 -51 22 -106 36 -170 44 -116 15 -127 18 -134 37 -11 30
57 265 90 310 12 16 29 46 37 65 21 49 155 181 213 209 40 19 68 24 153 27 57
1 120 7 140 13 20 5 53 10 73 10 20 0 49 5 63 10 15 6 73 15 129 21 63 7 133
22 186 41 47 16 117 37 155 47 39 9 90 29 115 44 25 14 65 33 89 42 24 8 59
28 77 45 19 16 39 30 45 30 19 0 140 124 167 170 15 25 36 59 48 77 12 17 27
60 34 95 13 66 42 118 66 118 11 0 14 26 14 145 0 83 -4 145 -9 145 -20 0 -52
61 -70 133 -19 75 -71 174 -121 232 -26 29 -145 148 -205 205 -16 15 -48 37
-70 48 -22 11 -48 29 -59 41 -10 11 -35 26 -55 32 -20 7 -54 25 -76 40 -22 16
-62 35 -88 43 -27 8 -65 26 -85 40 -21 14 -59 30 -87 36 -27 6 -90 24 -140 40
-49 16 -131 34 -181 39 -94 10 -144 26 -194 61 -27 19 -42 20 -452 20 -414 -1
-423 -1 -438 -21z m775 -297 c106 -8 184 -19 265 -40 63 -17 147 -35 187 -41
40 -6 107 -26 150 -45 43 -19 95 -38 116 -41 21 -4 54 -19 75 -32 20 -14 55
-32 77 -40 22 -7 51 -24 65 -37 14 -13 43 -33 65 -44 59 -29 219 -190 242
-243 11 -24 27 -50 36 -58 68 -55 70 -394 4 -483 -14 -18 -32 -47 -40 -64 -24
-47 -152 -171 -205 -198 -26 -14 -62 -36 -81 -50 -19 -14 -51 -29 -70 -32 -20
-4 -56 -17 -81 -30 -66 -35 -127 -54 -171 -54 -35 0 -39 2 -39 26 0 17 15 40
45 70 25 24 45 47 45 52 0 5 13 26 29 46 24 30 31 52 41 135 17 127 3 269 -29
310 -11 14 -33 49 -47 76 -38 72 -195 220 -280 263 -22 11 -46 28 -53 36 -8 9
-39 23 -70 32 -31 9 -81 29 -111 44 -38 19 -90 33 -162 44 -58 8 -118 20 -132
26 -43 16 -425 13 -474 -4 -22 -8 -84 -20 -138 -27 -72 -9 -112 -20 -153 -41
-30 -16 -76 -34 -102 -39 -26 -6 -59 -21 -72 -35 -13 -13 -41 -31 -62 -40 -61
-25 -239 -182 -265 -234 -7 -14 -28 -48 -46 -75 -43 -63 -58 -146 -50 -270 6
-99 17 -135 61 -209 45 -74 200 -222 265 -253 30 -14 70 -36 90 -49 19 -12 62
-30 95 -39 33 -9 98 -29 145 -45 104 -34 258 -53 408 -48 93 2 114 0 128 -13
15 -16 8 -25 -91 -125 -59 -60 -118 -129 -132 -154 -13 -25 -40 -69 -58 -99
-19 -30 -36 -58 -37 -63 -12 -35 -259 -22 -373 18 -38 14 -106 36 -150 48 -44
12 -103 34 -132 49 -28 15 -73 31 -100 37 -26 6 -65 22 -86 36 -22 14 -57 32
-80 40 -23 8 -62 27 -87 43 -25 16 -56 32 -70 36 -25 8 -103 55 -175 107 -22
16 -65 45 -95 65 -71 46 -215 193 -242 247 -11 22 -31 55 -44 71 -30 41 -74
200 -74 273 0 76 51 276 78 305 11 12 30 44 42 71 11 27 34 64 50 83 17 18 30
37 30 42 0 4 50 58 111 120 113 114 180 167 280 220 30 16 61 36 68 45 7 8 36
22 64 32 29 9 72 29 97 45 25 15 68 33 95 39 28 6 72 22 99 36 30 16 91 33
160 44 62 11 149 31 193 45 62 19 116 27 232 34 84 5 154 11 157 14 8 8 409 0
569 -11z m-201 -666 c55 -15 200 -44 282 -56 28 -5 73 -18 100 -30 27 -12 75
-33 107 -46 61 -24 64 -26 166 -120 74 -69 131 -170 131 -232 0 -57 -69 -181
-136 -245 -85 -81 -126 -113 -167 -131 -21 -8 -52 -25 -68 -37 -17 -12 -60
-30 -97 -39 -37 -10 -98 -31 -137 -46 -68 -27 -78 -28 -289 -32 -240 -4 -418
13 -485 48 -20 10 -63 25 -96 33 -110 28 -320 167 -354 235 -11 22 -33 54 -48
73 -27 31 -28 37 -28 140 0 97 2 110 23 136 12 15 34 46 49 69 14 23 44 53 67
68 23 14 56 38 75 51 19 14 46 28 60 31 14 4 43 18 64 32 26 17 70 32 130 43
149 27 200 39 242 54 55 20 339 20 409 1z m53 -1840 c26 -8 77 -26 113 -41
107 -44 201 -151 186 -211 -12 -45 -83 -111 -139 -130 -29 -9 -61 -23 -73 -31
-31 -20 -149 -43 -221 -43 -59 0 -63 2 -88 34 -14 19 -40 39 -57 45 -49 17
-125 13 -177 -10 l-48 -20 -50 23 c-61 28 -143 116 -143 154 0 36 15 59 77
120 64 61 100 73 175 55 27 -6 79 -11 115 -11 61 0 67 2 100 35 19 19 43 40
52 45 19 12 110 5 178 -14z m-868 -285 c6 -10 13 -38 17 -62 5 -35 16 -53 50
-84 24 -23 44 -46 44 -51 0 -19 34 -42 77 -53 27 -7 49 -22 62 -40 15 -20 32
-30 62 -35 75 -12 103 -43 60 -66 -37 -19 -72 -12 -105 24 -18 20 -46 37 -66
41 -42 9 -90 32 -90 44 0 4 -18 16 -40 26 -24 11 -49 32 -62 54 -12 20 -33 49
-47 64 -34 37 -38 120 -7 143 26 18 33 18 45 -5z m682 -587 c30 -9 79 -26 109
-39 30 -12 77 -26 105 -30 27 -4 74 -19 105 -35 30 -15 76 -33 100 -40 25 -6
65 -24 90 -40 25 -15 56 -31 69 -35 82 -25 265 -185 295 -259 23 -54 20 -131
-7 -196 -34 -82 -119 -190 -151 -190 -2 0 -12 7 -20 16 -12 11 -16 36 -16 91
0 66 -5 86 -40 165 -29 67 -53 104 -93 143 -57 57 -193 155 -216 155 -7 0 -43
16 -80 35 -41 21 -115 45 -196 64 -71 17 -136 38 -144 46 -8 8 -17 40 -19 73
-4 53 -2 61 19 76 28 20 23 20 90 0z m-278 -281 c26 -30 30 -68 13 -128 -12
-39 -23 -58 -39 -65 -28 -10 -212 -66 -250 -74 -75 -17 -244 -187 -269 -270
-5 -17 -8 -69 -7 -116 1 -47 1 -93 0 -102 -1 -24 -32 -23 -110 6 -128 46 -266
193 -277 294 -5 41 -1 54 28 101 64 104 214 229 308 256 14 4 50 20 80 35 34
17 88 32 140 39 47 7 105 18 130 26 25 7 88 14 141 14 79 1 99 -2 112 -16z
m333 -28 c56 -10 108 -26 139 -44 28 -15 68 -34 90 -41 22 -7 49 -20 60 -30
11 -9 36 -27 56 -38 50 -30 113 -100 142 -159 26 -51 46 -196 28 -207 -10 -6
-111 69 -111 83 0 20 -87 104 -130 126 -27 14 -65 36 -84 49 -20 13 -55 27
-79 31 -54 9 -173 52 -213 76 -57 34 -71 103 -29 144 29 29 20 29 131 10z
m-12 -445 c31 -10 81 -24 111 -29 61 -11 186 -90 204 -129 15 -31 14 -95 -1
-113 -34 -41 -123 -72 -243 -85 -113 -12 -123 -10 -163 29 -44 43 -78 57 -138
57 -40 0 -51 -5 -90 -43 -25 -24 -65 -54 -90 -66 l-45 -23 -72 32 c-88 39 -98
47 -126 109 l-23 48 20 46 c15 33 31 51 59 66 22 11 45 26 52 34 15 19 49 31
145 53 64 14 89 16 140 7 52 -9 69 -8 111 7 65 24 81 24 149 0z"/>
</g>
</svg>
