<?xml version="1.0" standalone="no"?>
<!DOCTYPE svg PUBLIC "-//W3C//DTD SVG 20010904//EN"
 "http://www.w3.org/TR/2001/REC-SVG-20010904/DTD/svg10.dtd">
<svg version="1.0" xmlns="http://www.w3.org/2000/svg"
 width="408.000000pt" height="488.000000pt" viewBox="0 0 408.000000 488.000000"
 preserveAspectRatio="xMidYMid meet">
<metadata>
Created by potrace 1.16, written by Peter Selinger 2001-2019
</metadata>
<rect x="0" y="0" width="408" height="488" fill="#ffffff"/>
<g transform="translate(0.000000,488.000000) scale(0.100000,-0.100000)"
fill="#000000" stroke="none">
<path d="M1820 4799 c-141 -10 -163 -13 -295 -48 -44 -12 -111 -26 -150 -32
-38 -6 -95 -22 -125 -36 -30 -13 -88 -33 -129 -44 -41 -10 -82 -25 -90 -33
-24 -21 -72 -42 -109 -50 -19 -3 -50 -19 -70 -34 -21 -16 -53 -35 -72 -42 -19
-8 -53 -29 -74 -47 -22 -18 -45 -33 -52 -33 -7 0 -34 -18 -59 -40 -25 -22 -51
-40 -57 -40 -19 0 -255 -248 -304 -320 -58 -85 -51 -73 -102 -180 -23 -47 -48
-114 -57 -149 -15 -62 -47 -121 -66 -121 -5 0 -9 -66 -9 -154 l0 -155 29 -31
c16 -18 36 -59 46 -93 51 -175 247 -393 479 -534 16 -10 49 -33 75 -51 25 -17
57 -37 71 -42 14 -5 66 -30 115 -55 117 -58 269 -125 284 -125 6 0 37 -13 69
-29 31 -16 85 -36 119 -45 35 -8 80 -24 100 -35 21 -10 72 -28 113 -39 42 -12
109 -37 150 -56 41 -20 80 -36 86 -36 7 0 26 -11 42 -25 16 -13 51 -34 78 -45
27 -12 61 -33 77 -48 22 -21 39 -27 90 -30 52 -3 70 1 110 22 57 31 85 32 135
7 21 -11 67 -27 103 -36 35 -9 78 -25 95 -36 18 -11 57 -28 88 -39 31 -10 69
-28 84 -39 16 -11 52 -29 80 -39 29 -11 68 -33 87 -49 19 -15 59 -48 90 -73
129 -103 184 -200 187 -332 1 -70 -1 -81 -27 -117 -19 -28 -35 -41 -51 -41
-25 0 -30 10 -44 96 -11 68 -50 130 -138 219 -75 75 -133 122 -169 136 -15 5
-48 23 -73 39 -25 16 -70 34 -100 41 -30 6 -71 20 -91 30 -86 43 -273 69 -499
69 -193 0 -346 -14 -434 -40 -210 -62 -323 -116 -436 -206 -132 -106 -193
-194 -222 -321 -18 -84 -18 -91 -2 -181 11 -65 24 -102 39 -120 12 -15 33 -49
45 -75 24 -50 144 -168 203 -198 18 -10 41 -26 51 -38 11 -12 45 -29 75 -38
31 -8 74 -28 96 -44 24 -17 60 -30 90 -34 49 -6 180 -35 260 -57 22 -6 76 -13
119 -17 98 -7 108 -18 83 -88 -21 -58 -22 -132 -3 -177 10 -23 28 -40 61 -56
41 -20 57 -22 123 -17 93 7 116 22 149 102 l25 59 -26 52 c-30 58 -33 96 -11
118 18 18 47 26 205 62 63 14 142 37 175 51 33 13 86 33 119 43 32 11 68 28
80 38 11 11 39 29 62 40 22 11 47 28 54 37 8 9 37 32 66 50 28 18 66 52 85 75
19 23 46 55 61 71 16 16 37 46 48 67 11 20 29 48 40 62 12 14 27 48 35 75 8
28 23 81 35 120 28 96 26 129 -17 253 -39 114 -96 200 -179 270 -106 89 -135
111 -162 117 -16 3 -47 21 -69 40 -22 19 -53 37 -69 41 -16 3 -52 19 -81 35
-29 16 -84 38 -123 48 -39 11 -95 31 -123 44 -29 13 -77 30 -107 37 -69 16
-106 35 -120 59 -16 31 -12 98 9 139 11 21 26 63 34 94 20 75 90 179 185 274
88 88 135 113 210 114 29 0 90 7 135 14 45 8 139 20 208 25 82 7 155 19 205
35 44 14 119 34 167 46 49 11 108 31 131 45 24 14 63 31 88 39 25 7 61 25 79
39 19 14 50 32 69 40 38 16 195 169 217 212 8 14 25 41 38 61 13 19 29 60 35
90 6 30 27 77 46 105 34 51 34 52 34 163 0 98 -2 113 -19 123 -19 12 -54 105
-65 174 -4 21 -18 53 -31 73 -14 20 -32 51 -41 69 -42 82 -282 308 -383 362
-21 11 -53 32 -72 46 -19 14 -57 34 -86 43 -28 10 -64 26 -78 38 -14 11 -57
28 -95 38 -38 10 -84 27 -103 38 -19 12 -88 32 -159 46 -70 14 -136 29 -147
35 -67 36 -678 61 -981 40z m652 -290 c12 -7 47 -13 78 -15 140 -6 273 -25
355 -50 50 -15 124 -34 166 -44 42 -9 92 -25 111 -37 19 -11 59 -28 89 -38 30
-10 69 -28 86 -42 18 -13 51 -30 74 -38 23 -8 59 -31 80 -50 22 -19 44 -35 49
-35 14 0 200 -192 200 -206 0 -7 16 -35 36 -64 30 -44 39 -69 50 -144 21 -135
3 -284 -41 -341 -13 -17 -30 -47 -38 -66 -30 -66 -183 -204 -250 -224 -23 -7
-60 -25 -81 -39 -21 -14 -57 -31 -80 -37 -22 -6 -70 -24 -106 -41 -83 -37
-134 -36 -138 4 -2 21 4 30 28 45 18 10 41 36 52 58 11 22 29 49 39 60 46 51
67 186 50 329 -7 62 -15 88 -38 120 -16 23 -35 57 -42 76 -14 41 -160 185
-237 235 -29 18 -55 38 -58 43 -3 6 -30 18 -59 27 -28 10 -67 28 -84 42 -20
14 -67 31 -120 43 -49 10 -107 26 -129 34 -144 50 -543 51 -699 2 -27 -9 -89
-25 -138 -36 -52 -11 -100 -29 -120 -43 -17 -14 -55 -32 -84 -41 -28 -10 -57
-24 -64 -32 -7 -9 -33 -26 -58 -39 -61 -31 -215 -176 -231 -217 -8 -18 -26
-51 -41 -73 -16 -22 -33 -60 -38 -85 -15 -64 -13 -227 2 -285 23 -88 165 -268
243 -308 16 -8 53 -31 83 -51 29 -20 59 -36 66 -36 7 0 39 -14 71 -31 32 -18
97 -40 144 -50 47 -10 96 -23 109 -29 52 -23 182 -40 306 -40 102 0 135 -3
153 -16 34 -23 27 -39 -32 -73 -30 -17 -67 -47 -83 -67 -15 -21 -44 -56 -64
-78 -20 -23 -43 -55 -52 -72 -9 -17 -22 -36 -31 -43 -8 -7 -22 -35 -31 -62
-20 -59 -36 -69 -113 -69 -100 0 -200 24 -427 102 -33 11 -98 33 -144 49 -46
16 -95 36 -109 45 -13 9 -56 27 -95 40 -40 13 -87 35 -107 47 -19 13 -50 29
-68 35 -18 6 -50 24 -70 40 -20 16 -48 33 -62 37 -26 8 -164 107 -176 126 -3
6 -19 18 -35 28 -67 41 -160 145 -238 266 -65 99 -100 296 -71 395 6 19 17 66
25 104 8 38 21 76 29 85 9 10 32 47 53 83 21 36 55 90 75 120 38 57 211 238
228 238 5 0 25 14 44 30 18 17 54 39 78 50 24 10 52 28 62 39 11 12 43 30 73
41 30 11 69 31 87 45 18 13 57 29 87 36 29 6 77 24 104 40 29 16 79 33 119 39
38 6 84 17 104 26 82 34 220 59 387 69 33 2 76 10 95 17 48 18 578 15 612 -3z
m-30 -683 c40 -8 93 -22 118 -31 25 -9 76 -23 113 -31 39 -8 82 -25 101 -39
18 -13 51 -31 75 -39 61 -22 166 -119 212 -196 49 -83 58 -141 30 -190 -12
-19 -32 -57 -45 -85 -38 -81 -198 -222 -297 -260 -33 -13 -74 -32 -92 -43 -18
-11 -61 -25 -97 -32 -36 -6 -73 -16 -82 -21 -54 -29 -168 -42 -348 -40 -169 2
-194 5 -290 31 -58 16 -121 32 -140 35 -51 10 -223 90 -283 132 -81 57 -116
92 -167 170 -55 83 -68 149 -51 242 17 82 125 204 220 248 30 13 67 35 83 48
16 13 53 28 85 35 32 6 86 23 121 37 86 35 138 40 419 42 173 1 262 -3 315
-13z m-397 -2161 c50 -8 111 -22 135 -30 25 -9 65 -20 90 -26 25 -5 70 -25
100 -44 31 -18 67 -36 82 -40 48 -12 160 -118 213 -202 l50 -78 0 -111 c0
-129 8 -148 75 -173 66 -24 65 -48 -6 -104 -34 -27 -76 -50 -103 -57 -25 -6
-63 -22 -83 -36 -21 -13 -57 -28 -80 -34 -37 -9 -103 -25 -284 -72 -88 -23
-123 9 -98 92 19 66 8 105 -47 154 -50 46 -86 47 -134 5 -49 -44 -62 -93 -43
-163 13 -43 13 -59 4 -77 -12 -23 -15 -24 -141 -23 -100 2 -148 7 -210 24 -44
12 -116 32 -160 44 -44 11 -96 31 -115 43 -19 12 -59 30 -88 41 -29 11 -65 32
-80 46 -15 15 -40 39 -57 55 -94 88 -108 112 -120 197 -11 84 11 166 62 235
58 77 152 161 216 193 29 15 72 37 97 51 25 13 63 27 85 31 22 3 56 13 75 21
112 48 392 66 565 38z"/>
</g>
</svg>
