<?xml version="1.0" standalone="no"?>
<!DOCTYPE svg PUBLIC "-//W3C//DTD SVG 20010904//EN"
 "http://www.w3.org/TR/2001/REC-SVG-20010904/DTD/svg10.dtd">
<svg version="1.0" xmlns="http://www.w3.org/2000/svg"
 width="416.000000pt" height="520.000000pt" viewBox="0 0 416.000000 520.000000"
 preserveAspectRatio="xMidYMid meet">
<metadata>
Created by potrace 1.16, written by Peter Selinger 2001-2019
</metadata>
<rect x="0" y="0" width="416" height="520" fill="#ffffff"/>
<g transform="translate(0.000000,520.000000) scale(0.100000,-0.100000)"
fill="#000000" stroke="none">
<path d="M2019 5121 c-49 -31 -89 -75 -89 -98 0 -8 12 -37 27 -63 27 -48 27
-49 9 -69 -11 -12 -29 -21 -41 -21 -13 0 -74 -9 -136 -20 -63 -11 -168 -30
-234 -41 -76 -13 -138 -30 -170 -46 -27 -14 -74 -34 -102 -44 -29 -10 -68 -29
-85 -42 -18 -14 -43 -28 -56 -32 -31 -9 -139 -107 -197 -179 -69 -86 -89 -172
-64 -287 9 -42 21 -61 69 -109 34 -34 73 -63 96 -70 22 -7 55 -23 75 -36 20
-12 55 -27 77 -33 46 -13 82 -51 83 -90 0 -14 4 -34 7 -44 12 -30 173 -185
206 -198 17 -7 46 -23 64 -36 17 -13 58 -29 90 -34 31 -6 91 -19 133 -30 60
-15 112 -19 244 -19 222 0 349 23 490 88 224 103 316 224 302 397 -10 112 -22
141 -90 209 -83 81 -184 136 -337 181 -230 68 -227 67 -237 160 -5 45 -2 56
16 74 25 25 76 28 127 6 19 -8 73 -21 119 -29 46 -8 115 -28 152 -45 37 -16
88 -34 113 -41 25 -6 61 -24 80 -39 20 -16 54 -38 76 -49 52 -26 192 -167 211
-211 8 -19 26 -49 39 -66 32 -43 48 -124 40 -213 -6 -81 -13 -97 -65 -162 -82
-103 -155 -162 -276 -225 -38 -20 -74 -40 -80 -45 -5 -5 -37 -18 -69 -31 -33
-12 -73 -30 -90 -40 -17 -10 -63 -25 -101 -34 -39 -9 -104 -27 -145 -40 -41
-13 -109 -26 -150 -29 -178 -15 -360 -39 -425 -56 -38 -11 -125 -28 -193 -40
-67 -11 -140 -29 -162 -40 -22 -11 -70 -27 -107 -36 -38 -8 -90 -27 -118 -41
-27 -14 -74 -34 -102 -44 -29 -10 -68 -29 -85 -43 -18 -13 -52 -29 -74 -35
-23 -6 -52 -22 -66 -36 -13 -13 -45 -33 -70 -44 -25 -11 -49 -25 -53 -31 -4
-6 -32 -27 -61 -46 -65 -41 -287 -262 -311 -307 -8 -18 -28 -48 -43 -67 -15
-19 -35 -52 -44 -73 -9 -22 -27 -52 -41 -69 -14 -16 -28 -42 -31 -56 -3 -15
-19 -55 -36 -89 -40 -85 -56 -242 -42 -420 10 -114 14 -135 42 -187 18 -32 32
-64 32 -71 0 -7 18 -35 40 -61 22 -27 40 -54 40 -61 0 -18 189 -207 226 -226
17 -9 37 -23 44 -32 8 -9 34 -27 59 -40 25 -12 55 -33 66 -45 10 -12 40 -30
66 -42 26 -11 55 -28 65 -39 9 -11 39 -26 66 -34 27 -8 67 -27 91 -44 23 -16
62 -35 87 -41 25 -7 68 -24 95 -40 28 -15 72 -33 98 -39 27 -6 72 -25 100 -40
29 -16 70 -32 92 -36 22 -4 80 -22 128 -41 48 -19 109 -37 135 -41 26 -3 77
-19 114 -35 37 -16 94 -33 125 -39 95 -18 113 -48 69 -123 -46 -80 -45 -195 3
-247 53 -58 164 -60 228 -5 40 35 44 121 10 224 -14 42 -31 109 -37 147 -18
113 -45 136 -170 150 -36 4 -110 22 -165 40 -55 19 -129 38 -163 44 -35 6 -91
24 -125 40 -34 16 -88 34 -119 40 -31 5 -81 24 -111 41 -29 16 -63 30 -75 30
-11 0 -50 15 -86 34 -35 19 -86 42 -113 52 -26 9 -63 28 -81 41 -17 13 -54 31
-80 38 -27 8 -59 26 -72 40 -13 14 -46 36 -74 50 -141 69 -380 310 -421 425
-7 19 -26 60 -41 90 -27 50 -29 62 -28 165 0 75 6 123 16 150 9 22 30 76 47
120 17 44 37 85 45 90 8 6 27 32 43 57 96 155 225 288 333 343 19 9 49 30 65
45 17 15 45 32 62 38 18 6 48 22 65 35 18 14 59 32 92 41 32 10 75 28 95 42
20 13 64 29 96 34 33 6 90 24 127 41 41 18 96 33 145 39 101 12 224 36 280 55
51 18 122 19 176 4 29 -8 42 -18 51 -42 18 -42 29 -311 14 -342 -15 -34 -47
-44 -208 -69 -114 -18 -155 -29 -186 -49 -21 -14 -57 -31 -79 -37 -68 -22
-185 -111 -251 -191 -83 -102 -114 -192 -113 -334 0 -142 29 -218 122 -320
145 -160 250 -224 489 -298 197 -62 293 -72 663 -72 339 0 497 12 635 50 52
14 131 33 175 41 44 9 107 29 140 44 33 15 76 31 95 35 19 4 64 22 100 40 36
19 82 41 104 49 39 16 67 37 166 123 112 98 210 248 230 353 6 36 18 77 26 92
19 37 19 200 -1 264 -8 27 -20 78 -26 114 -6 40 -21 82 -39 110 -16 25 -34 58
-39 73 -6 16 -30 51 -54 79 -58 69 -208 216 -243 237 -16 10 -37 28 -48 39
-10 12 -35 26 -55 33 -20 6 -47 22 -61 35 -14 12 -51 32 -82 44 -31 11 -67 30
-81 40 -14 11 -56 27 -93 35 -38 9 -96 29 -129 45 -41 20 -89 33 -149 41 -50
6 -114 20 -144 30 -30 10 -76 22 -103 25 -28 4 -60 15 -72 25 -34 27 -12 50
76 80 43 14 85 33 94 41 10 9 38 26 63 38 104 52 227 164 302 275 37 55 49 84
58 135 21 137 1 313 -43 372 -13 18 -30 49 -36 69 -7 20 -21 45 -33 55 -12 11
-33 38 -49 62 -41 65 -219 216 -280 237 -22 8 -54 26 -70 39 -26 23 -85 46
-115 46 -6 0 -36 13 -66 29 -39 21 -82 33 -144 42 -49 6 -104 17 -123 25 -18
8 -51 14 -72 14 -41 0 -69 20 -69 51 0 11 12 42 26 69 37 70 23 105 -65 162
-56 35 -66 35 -122 -1z m-28 -512 c19 -19 21 -29 16 -83 -3 -34 -9 -69 -13
-79 -12 -31 -58 -47 -141 -47 -83 0 -151 -15 -223 -48 -25 -11 -64 -25 -87
-31 -23 -6 -55 -22 -70 -35 -15 -13 -42 -30 -59 -39 -31 -16 -134 -130 -134
-148 0 -4 -9 -13 -21 -20 -39 -20 -81 -2 -151 67 -88 85 -90 106 -16 193 28
34 54 61 58 61 3 0 24 15 46 33 21 19 57 40 79 47 22 7 68 28 103 47 35 18 78
33 95 34 18 0 95 15 172 33 178 43 313 48 346 15z m409 -380 c97 -22 256 -136
296 -212 27 -51 20 -119 -17 -176 -41 -62 -149 -145 -209 -161 -25 -6 -67 -19
-95 -29 -68 -25 -140 -34 -270 -33 -110 1 -199 13 -233 31 -10 5 -49 17 -87
26 -46 10 -79 25 -102 45 -18 17 -38 30 -44 30 -22 0 -109 94 -118 128 -18 63
3 125 67 193 52 57 114 99 145 99 7 0 31 13 53 30 54 41 99 41 122 -1 26 -49
62 -88 93 -104 36 -19 122 -19 158 0 34 17 81 70 81 91 0 8 11 26 24 39 26 26
35 26 136 4z m165 -1294 c51 -14 242 -49 327 -60 26 -3 92 -21 146 -39 55 -19
118 -37 141 -41 22 -4 58 -18 78 -32 21 -14 55 -32 76 -39 21 -7 64 -29 95
-48 31 -18 71 -42 88 -52 132 -79 332 -291 334 -354 0 -8 14 -44 31 -80 28
-59 31 -72 26 -136 -3 -41 -13 -88 -25 -110 -10 -22 -27 -63 -37 -93 -39 -120
-213 -292 -343 -341 -30 -11 -68 -28 -85 -37 -61 -31 -312 -103 -415 -118 -58
-9 -112 -19 -121 -24 -42 -22 -247 -33 -516 -29 -299 5 -324 8 -558 79 -212
64 -397 197 -472 339 -31 59 -35 76 -36 151 -2 79 0 88 34 154 20 39 47 81 60
95 45 49 119 103 168 121 27 11 67 31 89 45 28 19 61 29 117 36 43 5 101 16
130 25 66 20 98 12 112 -27 20 -58 -7 -91 -109 -137 -109 -49 -180 -154 -180
-264 0 -49 46 -142 92 -187 48 -45 177 -109 246 -121 112 -19 199 -22 313 -12
123 12 154 20 259 70 113 55 152 93 230 230 11 18 15 56 15 131 l0 105 -49 83
c-28 47 -61 89 -75 97 -14 7 -43 27 -64 43 -21 17 -55 36 -75 43 -20 6 -50 21
-67 33 -41 31 -47 32 -176 51 -199 28 -238 55 -219 155 5 25 9 91 10 147 0
114 9 149 42 163 31 13 300 2 363 -15z m-280 -595 c38 -11 79 -20 89 -20 11 0
66 -23 122 -50 87 -43 111 -60 160 -115 49 -56 58 -72 62 -114 5 -53 -2 -70
-57 -143 -21 -29 -49 -53 -73 -63 -21 -8 -56 -28 -79 -45 l-41 -29 -207 1
c-221 1 -219 0 -306 59 -82 55 -105 122 -64 180 42 60 119 72 119 19 0 -45 24
-125 44 -144 11 -12 59 -37 104 -55 l84 -33 76 27 c43 15 91 36 108 46 64 39
86 147 48 226 -25 50 -152 122 -234 132 -65 8 -78 15 -90 47 -12 32 3 72 32
84 31 12 24 12 103 -10z m14 -280 c67 -34 73 -107 10 -129 -57 -20 -117 -14
-144 14 -29 28 -33 79 -9 113 20 29 89 30 143 2z"/>
</g>
</svg>
