<?xml version="1.0" standalone="no"?>
<!DOCTYPE svg PUBLIC "-//W3C//DTD SVG 20010904//EN"
 "http://www.w3.org/TR/2001/REC-SVG-20010904/DTD/svg10.dtd">
<svg version="1.0" xmlns="http://www.w3.org/2000/svg"
 width="416.000000pt" height="648.000000pt" viewBox="0 0 416.000000 648.000000"
 preserveAspectRatio="xMidYMid meet">
<metadata>
Created by potrace 1.16, written by Peter Selinger 2001-2019
</metadata>
<rect x="0" y="0" width="416" height="648" fill="#ffffff"/>
<g transform="translate(0.000000,648.000000) scale(0.100000,-0.100000)"
fill="#000000" stroke="none">
<path d="M1995 6395 c-73 -26 -87 -66 -64 -175 9 -42 8 -55 -5 -75 -13 -20
-26 -24 -83 -28 -37 -3 -138 -15 -223 -26 -123 -17 -167 -28 -215 -51 -33 -16
-82 -34 -110 -40 -27 -6 -68 -23 -90 -39 -22 -15 -54 -33 -72 -40 -17 -7 -42
-24 -55 -38 -12 -14 -39 -33 -60 -44 -20 -10 -47 -33 -59 -51 -13 -18 -31 -40
-41 -48 -20 -18 -78 -172 -78 -209 0 -14 11 -56 26 -92 19 -51 37 -78 74 -111
67 -59 140 -104 203 -122 66 -19 100 -54 132 -135 28 -72 115 -167 175 -191
19 -7 53 -26 75 -42 22 -15 63 -32 91 -37 27 -5 75 -20 105 -33 51 -22 66 -23
279 -23 191 0 234 3 285 19 33 10 86 25 119 32 99 24 215 95 294 179 96 102
105 124 100 244 -3 94 -4 98 -42 151 -49 69 -81 98 -184 165 -56 37 -102 59
-145 69 -111 26 -232 68 -253 87 -26 24 -55 109 -47 138 9 35 63 45 146 28 40
-9 95 -18 122 -22 28 -4 75 -18 105 -32 30 -13 79 -31 109 -39 29 -8 65 -24
80 -35 14 -12 53 -33 87 -48 82 -38 225 -180 266 -265 16 -34 39 -77 51 -96
17 -28 22 -50 22 -105 -1 -62 -6 -80 -39 -145 -21 -41 -57 -95 -80 -118 -45
-48 -178 -152 -193 -152 -6 0 -29 -14 -53 -31 -23 -17 -66 -39 -94 -49 -29
-10 -72 -28 -96 -40 -25 -13 -74 -31 -110 -40 -36 -10 -92 -28 -125 -41 -52
-20 -80 -23 -215 -25 -245 -3 -436 -25 -555 -64 -33 -11 -91 -24 -129 -30 -39
-6 -100 -24 -136 -40 -36 -16 -88 -34 -115 -40 -27 -6 -70 -24 -94 -41 -24
-16 -49 -29 -55 -29 -33 0 -91 -25 -120 -51 -19 -16 -53 -36 -77 -44 -24 -9
-52 -23 -62 -33 -10 -9 -38 -28 -62 -42 -147 -85 -377 -314 -465 -464 -14 -23
-35 -55 -47 -70 -13 -16 -28 -47 -34 -70 -6 -22 -19 -56 -30 -75 -34 -58 -50
-141 -56 -292 -8 -198 6 -286 65 -404 25 -49 58 -105 74 -123 15 -18 28 -37
28 -43 0 -11 100 -113 141 -144 15 -11 60 -45 100 -76 41 -31 92 -66 115 -77
22 -11 46 -28 54 -37 8 -9 43 -30 79 -46 36 -16 72 -36 81 -44 8 -7 41 -23 72
-35 31 -11 68 -30 82 -41 14 -11 49 -27 77 -35 29 -9 75 -28 103 -44 28 -15
74 -33 101 -40 28 -6 73 -24 100 -40 28 -16 75 -33 106 -38 30 -6 81 -22 112
-36 32 -14 83 -30 114 -36 66 -12 88 -28 78 -59 -4 -14 -20 -24 -48 -31 -23
-6 -67 -20 -97 -31 -30 -12 -84 -32 -120 -44 -66 -23 -212 -96 -240 -120 -8
-7 -33 -22 -56 -33 -22 -11 -60 -37 -85 -56 -24 -20 -61 -50 -82 -67 -64 -52
-143 -182 -166 -276 -26 -102 -26 -107 3 -225 15 -62 37 -117 60 -155 20 -32
36 -63 36 -68 0 -26 286 -285 314 -285 7 0 31 -14 53 -30 23 -17 72 -41 110
-54 37 -13 88 -33 113 -44 25 -11 63 -24 85 -28 22 -4 65 -19 95 -34 30 -15
80 -33 110 -40 40 -9 64 -22 86 -45 34 -36 85 -55 150 -55 33 0 53 8 93 39
l52 38 202 6 c220 6 292 16 379 53 31 13 78 28 105 34 26 6 64 22 83 35 19 13
53 32 75 41 22 9 54 29 70 45 17 15 51 46 77 69 25 22 54 57 63 78 10 20 32
57 49 81 30 42 31 47 34 168 4 144 -4 189 -50 263 -37 60 -128 153 -173 177
-16 9 -46 28 -65 43 -19 15 -57 34 -85 43 -27 8 -82 26 -120 40 -77 27 -211
47 -317 47 -37 0 -102 8 -144 17 -65 14 -87 15 -145 5 -148 -26 -159 -17 -159
121 0 109 12 145 49 153 53 12 82 28 96 53 26 50 95 109 144 126 27 9 57 25
67 36 10 11 32 28 49 39 19 12 51 53 80 102 47 79 49 84 48 159 0 75 -2 82
-42 142 -22 35 -52 73 -66 85 -51 44 -22 64 109 74 110 8 259 24 291 32 11 3
72 15 135 27 132 24 414 112 510 158 36 17 70 31 77 31 7 0 27 13 45 29 18 15
51 38 73 49 83 43 192 168 259 296 37 69 49 105 56 164 6 42 17 102 26 134 15
54 15 61 0 102 -9 24 -21 80 -26 125 -15 131 -98 282 -235 429 -60 64 -99 95
-267 209 -18 13 -58 34 -88 49 -30 14 -71 36 -90 49 -19 13 -57 29 -83 35 -27
6 -78 24 -114 40 -37 17 -98 35 -137 41 -39 6 -101 22 -137 35 -37 13 -86 24
-110 25 -64 0 -113 20 -117 45 -4 26 9 36 78 62 63 23 185 93 254 146 123 93
219 245 238 376 13 89 -1 193 -35 259 -14 26 -30 65 -36 88 -6 22 -22 51 -35
64 -12 13 -35 42 -49 64 -39 62 -146 166 -209 204 -21 12 -38 26 -38 30 0 10
-220 121 -239 121 -7 0 -48 16 -90 35 -66 29 -97 36 -216 49 -151 16 -165 22
-165 79 0 15 10 50 21 77 l21 49 -25 44 c-14 24 -33 49 -41 57 -24 19 -96 22
-141 5z m-19 -529 c8 -11 14 -42 14 -69 0 -42 -5 -54 -33 -82 -29 -29 -42 -34
-122 -44 -50 -7 -117 -22 -150 -33 -33 -11 -90 -27 -126 -37 -37 -10 -81 -29
-99 -44 -17 -15 -36 -27 -42 -27 -18 0 -130 -114 -149 -152 -15 -30 -25 -38
-47 -38 -44 1 -104 34 -149 83 -39 42 -43 52 -43 97 0 47 4 55 47 101 26 28
61 58 78 66 16 8 41 26 55 38 14 13 45 29 70 35 25 6 68 24 95 40 34 19 77 31
135 39 129 18 141 20 191 33 26 7 95 13 154 13 94 0 108 -2 121 -19z m396
-370 c163 -62 268 -139 308 -228 26 -58 25 -70 -12 -141 -39 -72 -128 -151
-191 -168 -23 -6 -58 -19 -77 -29 -125 -63 -482 -66 -601 -5 -19 10 -55 24
-81 31 -26 6 -65 25 -85 41 -21 16 -51 37 -66 46 -15 10 -40 42 -54 72 l-27
55 22 70 c21 64 29 74 96 132 60 51 88 67 147 86 118 36 135 31 171 -50 20
-42 58 -58 144 -58 66 0 108 28 152 100 46 77 59 81 154 46z m118 -1254 c166
-14 201 -19 290 -47 41 -13 109 -29 150 -35 41 -6 104 -24 140 -40 36 -16 81
-32 100 -35 19 -4 59 -20 88 -36 29 -16 77 -39 106 -50 30 -11 60 -27 67 -35
7 -9 31 -25 53 -36 83 -43 241 -191 278 -263 11 -22 31 -54 44 -70 64 -84 65
-384 2 -468 -13 -18 -36 -53 -51 -78 -25 -45 -167 -179 -189 -179 -6 0 -27
-12 -46 -26 -41 -32 -171 -89 -261 -115 -36 -10 -83 -26 -105 -34 -56 -20
-216 -52 -301 -60 -38 -3 -106 -12 -150 -20 -44 -8 -141 -15 -215 -16 -124 -2
-141 0 -209 25 -43 15 -91 41 -113 61 -24 22 -48 35 -66 35 -36 0 -119 -23
-159 -43 -45 -24 -109 -21 -168 6 -27 13 -63 27 -78 31 -74 18 -203 101 -289
187 -123 121 -152 198 -129 337 25 156 213 328 403 367 38 8 78 20 89 26 11 5
46 15 77 21 31 5 69 12 84 15 37 7 68 -26 68 -75 0 -43 -23 -82 -48 -82 -9 0
-50 -19 -91 -43 -60 -34 -82 -54 -118 -106 -39 -58 -43 -68 -43 -126 0 -55 4
-68 38 -121 59 -91 122 -137 241 -178 101 -35 106 -36 258 -36 151 0 159 1
272 37 78 25 128 47 153 67 20 17 54 43 75 57 30 20 50 47 81 111 38 76 42 91
42 159 0 65 -5 84 -36 149 -41 87 -131 181 -191 200 -21 7 -53 24 -71 37 -24
18 -87 38 -215 70 -100 25 -192 51 -203 58 -30 19 -34 57 -18 155 7 47 14 111
14 143 0 66 11 94 43 107 24 10 118 7 307 -8z m-519 -13 c21 -21 22 -29 16
-138 -3 -64 -2 -136 4 -158 9 -44 -1 -91 -24 -105 -7 -4 -28 -8 -48 -8 -60 0
-309 -68 -394 -107 -150 -69 -301 -198 -325 -277 -6 -21 -22 -55 -35 -75 -33
-51 -49 -190 -30 -263 30 -117 78 -198 167 -284 75 -74 131 -118 192 -150 110
-60 203 -96 288 -113 53 -11 107 -27 120 -37 68 -52 94 -119 83 -219 -3 -33
-1 -102 5 -154 14 -112 8 -155 -26 -177 -22 -15 -27 -15 -72 4 -26 11 -75 23
-110 27 -34 4 -104 22 -155 40 -51 18 -119 38 -152 44 -33 6 -81 22 -107 36
-27 14 -74 32 -106 40 -31 8 -84 28 -117 45 -33 16 -109 52 -170 79 -60 27
-134 65 -164 85 -29 20 -58 36 -65 36 -6 0 -27 13 -46 29 -19 15 -51 36 -70
46 -51 26 -297 276 -316 320 -8 21 -26 54 -40 75 -18 27 -30 67 -41 141 -24
152 -9 248 59 389 28 58 62 119 75 135 13 17 42 52 64 78 21 27 46 62 54 78
14 26 36 45 163 142 20 15 53 41 72 57 19 17 40 30 46 30 7 0 34 15 60 33 27
19 70 41 96 50 26 8 63 27 81 41 18 14 57 30 86 37 29 6 81 24 116 40 35 16
96 34 136 40 39 6 97 20 128 30 66 23 160 39 286 49 172 13 193 12 216 -11z
m300 -585 c24 -9 80 -26 125 -38 45 -12 94 -32 110 -45 16 -12 45 -32 64 -44
46 -30 130 -153 130 -191 0 -30 -26 -75 -87 -153 -25 -31 -46 -46 -86 -58 -28
-10 -72 -29 -97 -44 -43 -25 -50 -26 -200 -26 l-155 0 -86 42 c-53 25 -98 55
-118 79 -29 32 -33 42 -28 77 3 22 18 55 35 76 64 80 122 62 122 -39 0 -50 4
-63 35 -103 46 -60 80 -71 211 -65 120 5 133 12 188 92 35 50 38 61 33 102 -8
75 -48 122 -146 172 -46 23 -96 42 -112 42 -70 0 -110 41 -90 93 18 47 76 59
152 31z m-24 -261 c92 -42 111 -72 77 -121 -40 -57 -141 -66 -190 -17 -34 34
-33 97 1 130 28 29 60 31 112 8z m41 -1016 c22 -19 54 -39 70 -46 33 -14 108
-106 118 -145 11 -46 -54 -135 -141 -191 -28 -18 -61 -36 -73 -39 -25 -8 -87
21 -120 57 -23 24 -24 32 -23 162 2 184 23 235 97 235 22 0 45 -11 72 -33z
m-301 -697 c17 -35 16 -258 -2 -286 -10 -16 -29 -23 -70 -29 -99 -12 -310 -83
-359 -120 -17 -13 -43 -27 -59 -30 -48 -12 -191 -158 -239 -243 l-43 -77 0
-120 c0 -116 -1 -120 -22 -123 -12 -2 -31 2 -42 8 -53 28 -176 260 -186 350
-18 158 92 312 324 452 46 27 100 57 120 65 20 8 61 27 91 42 30 16 86 36 124
45 37 9 90 28 116 41 26 13 76 29 110 34 35 6 65 13 68 16 14 14 57 -2 69 -25z
m451 -450 c142 -30 344 -103 367 -134 6 -7 35 -28 65 -48 151 -97 215 -230
162 -339 -21 -43 -102 -119 -158 -147 -22 -11 -46 -28 -53 -36 -8 -9 -39 -23
-70 -32 -31 -8 -85 -28 -121 -44 -41 -18 -98 -33 -155 -40 -49 -6 -127 -20
-172 -31 -93 -21 -112 -18 -157 29 -33 35 -29 -8 -41 519 -8 345 -17 323 136
323 63 0 137 -8 197 -20z m-454 -32 c14 -19 16 -72 16 -376 0 -350 -3 -384
-34 -404 -21 -14 -111 -7 -161 11 -27 11 -88 33 -134 50 -46 16 -96 41 -110
54 -14 13 -41 34 -59 47 -47 32 -124 155 -130 207 -4 34 2 53 32 106 56 101
182 215 268 242 29 10 63 24 75 31 29 18 149 52 190 53 22 1 36 -6 47 -21z"/>
</g>
</svg>
