<?xml version="1.0" standalone="no"?>
<!DOCTYPE svg PUBLIC "-//W3C//DTD SVG 20010904//EN"
 "http://www.w3.org/TR/2001/REC-SVG-20010904/DTD/svg10.dtd">
<svg version="1.0" xmlns="http://www.w3.org/2000/svg"
 width="416.000000pt" height="704.000000pt" viewBox="0 0 416.000000 704.000000"
 preserveAspectRatio="xMidYMid meet">
<metadata>
Created by potrace 1.16, written by Peter Selinger 2001-2019
</metadata>
<rect x="0" y="0" width="416" height="704" fill="#ffffff"/>
<g transform="translate(0.000000,704.000000) scale(0.100000,-0.100000)"
fill="#000000" stroke="none">
<path d="M2025 7020 c-3 -11 -26 -33 -49 -50 -62 -42 -70 -75 -39 -165 16 -47
16 -49 -6 -66 -14 -11 -48 -19 -99 -24 -127 -10 -220 -25 -277 -45 -29 -10
-86 -23 -126 -29 -47 -8 -87 -21 -109 -36 -20 -14 -61 -33 -93 -44 -32 -10
-68 -28 -80 -39 -12 -11 -34 -26 -49 -33 -29 -15 -98 -79 -169 -155 -48 -53
-89 -153 -89 -220 0 -56 50 -163 88 -189 19 -13 40 -32 48 -43 8 -11 38 -28
67 -38 82 -27 162 -70 190 -103 14 -17 32 -52 41 -78 23 -68 152 -198 216
-218 14 -4 54 -23 90 -41 53 -27 85 -36 165 -44 55 -6 127 -16 160 -23 70 -13
92 -13 240 1 141 14 205 27 263 53 26 12 72 31 102 44 95 38 180 105 235 186
48 70 50 76 54 151 5 112 -3 138 -63 215 -49 62 -188 173 -217 173 -5 0 -55
18 -110 40 -68 27 -117 40 -149 40 -32 0 -55 6 -72 20 -29 22 -71 126 -66 161
7 55 84 60 231 15 45 -13 110 -30 145 -37 35 -6 80 -23 100 -37 20 -14 57 -32
82 -40 25 -8 59 -25 75 -37 17 -12 44 -29 60 -38 28 -14 113 -93 178 -166 39
-43 91 -143 112 -214 21 -72 16 -104 -35 -212 -30 -65 -51 -94 -102 -139 -73
-67 -182 -142 -230 -158 -18 -6 -49 -22 -68 -34 -19 -13 -60 -32 -91 -43 -31
-10 -70 -26 -88 -35 -43 -23 -244 -73 -339 -85 -42 -6 -93 -15 -112 -21 -19
-6 -75 -15 -125 -21 -190 -19 -242 -28 -298 -48 -33 -11 -82 -24 -110 -27 -29
-4 -102 -24 -164 -46 -61 -21 -118 -38 -126 -38 -7 0 -41 -14 -74 -30 -33 -17
-86 -39 -118 -50 -32 -11 -72 -31 -89 -43 -17 -13 -49 -30 -71 -37 -22 -7 -58
-28 -79 -47 -22 -18 -44 -33 -49 -33 -8 0 -63 -38 -176 -122 -49 -37 -231
-219 -245 -246 -5 -9 -19 -28 -32 -42 -13 -14 -30 -43 -39 -64 -9 -22 -29 -55
-45 -75 -15 -20 -31 -47 -35 -61 -4 -14 -20 -50 -35 -80 -55 -109 -75 -340
-46 -520 15 -88 71 -214 121 -270 13 -14 30 -38 38 -55 26 -48 154 -173 237
-230 19 -14 66 -46 104 -72 37 -27 89 -59 115 -73 26 -14 62 -36 80 -49 18
-13 52 -29 76 -36 24 -8 61 -27 84 -43 22 -16 61 -35 86 -41 24 -6 65 -24 91
-40 25 -16 64 -33 87 -36 48 -8 73 -20 102 -46 12 -10 47 -28 79 -39 32 -11
72 -31 89 -45 72 -58 155 -113 197 -129 25 -10 55 -27 66 -37 12 -11 57 -29
100 -40 94 -23 121 -40 140 -84 18 -44 18 -116 0 -140 -12 -17 -28 -20 -128
-20 -69 -1 -140 -7 -183 -17 -38 -10 -124 -27 -190 -39 -66 -12 -140 -31 -165
-44 -25 -12 -67 -30 -95 -40 -27 -10 -60 -27 -71 -37 -12 -11 -50 -38 -85 -61
-60 -40 -146 -134 -171 -187 -6 -14 -13 -89 -16 -166 -4 -129 -2 -145 17 -185
30 -62 90 -144 126 -170 17 -13 34 -29 38 -36 4 -7 27 -23 50 -35 23 -11 56
-31 73 -44 17 -13 57 -33 90 -44 32 -11 79 -31 104 -44 41 -22 152 -47 290
-66 30 -4 76 -15 102 -24 26 -8 70 -15 98 -15 62 2 109 -17 114 -45 28 -150
18 -293 -30 -436 -32 -91 -28 -127 20 -181 20 -21 36 -46 36 -54 0 -11 12 -15
48 -15 47 0 48 1 86 58 20 31 40 68 42 82 3 14 -8 93 -25 175 -59 286 -32 421
88 440 20 3 61 12 91 20 30 7 93 18 140 25 60 8 101 20 137 41 29 16 74 33
100 39 26 6 59 19 73 29 15 10 49 30 77 45 28 14 55 31 58 37 4 6 33 27 64 47
74 47 207 184 222 229 6 20 25 58 43 86 31 50 31 52 31 182 0 133 0 133 -31
176 -17 24 -38 58 -47 74 -25 49 -244 215 -282 215 -7 0 -41 16 -77 34 -36 19
-87 40 -114 47 -27 7 -74 24 -104 39 -30 15 -102 38 -160 50 -58 13 -123 29
-145 37 -22 8 -60 18 -85 24 -56 13 -70 24 -70 58 0 45 15 51 128 51 89 0 113
4 161 24 31 14 80 30 109 35 87 18 214 129 262 229 47 98 49 127 11 209 -36
76 -69 116 -112 133 -20 9 -29 19 -29 36 0 32 32 47 115 55 39 4 99 12 135 19
247 45 332 64 385 85 33 14 90 31 127 38 36 8 82 24 101 36 19 12 58 28 86 37
27 8 63 25 78 38 15 13 46 33 68 44 40 21 113 89 178 167 56 67 105 168 128
261 15 62 29 96 45 111 22 20 24 30 24 115 0 81 -3 95 -19 105 -19 12 -61 120
-61 158 0 21 -9 39 -75 163 -34 64 -305 331 -368 363 -23 12 -55 32 -70 45
-16 13 -49 29 -73 35 -24 6 -60 24 -80 40 -21 16 -59 33 -92 40 -31 6 -86 24
-122 40 -36 16 -99 35 -140 42 -41 8 -109 23 -150 35 -41 11 -115 26 -164 32
-97 12 -126 23 -126 46 0 15 71 53 101 54 27 0 202 94 264 142 33 26 93 80
134 121 71 73 82 90 139 232 21 53 21 204 -1 260 -50 127 -81 193 -101 215
-13 14 -32 41 -41 60 -29 58 -186 200 -265 240 -25 12 -55 33 -68 45 -12 13
-44 28 -70 35 -26 6 -67 24 -92 40 -31 20 -69 32 -123 40 -43 6 -103 20 -134
31 -30 10 -78 21 -106 25 -71 9 -97 26 -97 67 1 17 7 43 15 57 27 48 19 82
-35 144 -27 31 -50 61 -50 67 0 5 -13 9 -29 9 -21 0 -32 -6 -36 -20z m-35
-559 c16 -31 12 -63 -16 -120 -32 -64 -72 -91 -134 -91 -103 0 -214 -21 -265
-49 -27 -16 -68 -34 -90 -41 -60 -19 -172 -114 -201 -172 -42 -83 -77 -83
-183 -3 -77 59 -93 100 -66 170 12 34 31 56 68 84 29 21 58 45 65 54 8 9 30
21 50 28 20 6 53 22 73 36 20 13 79 35 131 48 53 13 115 32 139 41 53 19 156
30 306 32 102 2 113 0 123 -17z m390 -380 c63 -18 166 -71 214 -110 30 -26 96
-128 102 -161 5 -24 -2 -44 -35 -99 -49 -80 -53 -84 -146 -138 -108 -64 -243
-93 -430 -93 -80 0 -154 4 -164 10 -10 5 -52 14 -92 21 -49 7 -87 20 -114 37
-22 15 -56 34 -75 43 -19 9 -59 41 -87 72 -50 53 -53 58 -53 109 1 29 7 70 14
90 15 41 101 125 148 145 15 7 43 24 61 38 19 14 54 28 80 31 l47 7 67 -71
c63 -64 72 -70 120 -77 80 -11 111 10 204 138 25 33 45 34 139 8z m40 -1266
c119 -5 254 -25 350 -50 52 -14 128 -32 168 -40 39 -8 96 -27 125 -41 28 -15
81 -33 116 -41 36 -7 79 -25 97 -38 18 -14 57 -34 87 -45 30 -11 63 -30 73
-41 10 -12 32 -28 49 -36 69 -36 242 -219 282 -298 13 -27 34 -67 45 -89 26
-48 36 -193 19 -262 -21 -83 -96 -226 -143 -271 -60 -59 -119 -108 -147 -123
-13 -6 -44 -27 -68 -46 -25 -19 -52 -34 -61 -34 -9 0 -46 -14 -82 -31 -74 -36
-271 -96 -376 -115 -39 -7 -123 -18 -185 -23 -63 -6 -132 -16 -154 -24 -46
-15 -406 -7 -535 11 -41 6 -111 16 -154 22 -50 6 -102 21 -140 39 -34 17 -74
33 -91 37 -16 4 -71 29 -122 56 -74 40 -108 66 -174 136 -90 95 -115 140 -125
224 -11 92 3 161 43 220 49 72 135 156 180 174 20 9 51 26 67 39 33 25 312
105 364 105 83 0 100 -139 19 -154 -19 -4 -51 -18 -71 -31 -20 -14 -50 -32
-67 -40 -17 -9 -48 -44 -70 -77 -35 -56 -39 -67 -39 -127 0 -56 5 -74 33 -121
48 -83 119 -143 197 -167 167 -52 174 -53 321 -53 141 0 146 1 265 40 118 40
122 42 202 118 109 104 142 166 142 271 0 68 -4 84 -38 153 -42 85 -119 170
-178 194 -19 8 -53 28 -75 44 -22 15 -59 31 -82 35 -23 3 -67 14 -97 24 -30
10 -95 26 -145 36 -49 9 -98 24 -108 33 -22 19 -20 40 12 207 28 144 28 145
70 183 34 32 39 33 86 27 28 -4 79 -9 115 -10z m-518 -24 c9 -9 24 -45 34 -81
9 -36 25 -94 35 -130 10 -36 18 -87 18 -114 1 -66 -17 -86 -80 -86 -27 0 -77
-9 -111 -19 -35 -11 -103 -29 -151 -40 -48 -11 -100 -29 -116 -40 -15 -11 -51
-29 -80 -40 -29 -11 -68 -35 -87 -53 -85 -80 -154 -154 -154 -165 0 -6 -16
-41 -35 -78 -33 -65 -34 -70 -36 -193 l-2 -127 42 -80 c100 -189 250 -305 546
-421 36 -14 51 -26 53 -41 4 -26 -17 -39 -80 -48 -78 -12 -222 -126 -265 -210
-33 -66 -70 -103 -107 -110 -34 -7 -103 14 -144 44 -15 11 -54 26 -85 34 -32
9 -74 28 -93 42 -20 15 -55 33 -79 41 -24 7 -67 29 -95 48 -29 20 -58 36 -65
36 -8 0 -28 12 -46 28 -18 15 -51 38 -75 52 -110 65 -303 250 -331 319 -8 19
-25 49 -38 65 -40 54 -49 102 -50 246 0 153 14 231 52 287 14 21 32 55 39 76
8 22 25 53 39 71 14 17 49 63 77 101 78 107 190 209 304 275 24 14 54 35 66
47 13 11 40 26 60 32 20 7 53 25 72 41 20 15 60 33 89 40 28 7 77 25 108 41
31 15 88 33 125 39 38 6 110 24 159 41 69 23 126 33 240 43 166 15 222 12 247
-13z m373 -587 c177 -45 204 -55 245 -87 22 -18 54 -43 71 -57 37 -28 109
-135 109 -160 0 -57 -116 -201 -180 -221 -19 -7 -65 -28 -102 -47 -67 -35 -68
-35 -125 -22 -63 14 -72 14 -153 5 -50 -6 -62 -3 -130 29 -41 20 -80 36 -86
36 -17 0 -73 66 -80 95 -9 37 1 66 41 113 27 31 44 42 65 42 38 0 50 -23 50
-93 0 -45 5 -61 30 -92 39 -49 52 -58 125 -82 l60 -20 83 27 c45 15 84 29 86
31 2 2 23 29 46 59 40 53 41 57 35 109 -7 70 -33 112 -93 150 -63 40 -124 61
-181 61 -64 0 -91 21 -91 69 0 37 17 62 50 74 23 8 19 9 125 -19z m-9 -271
c67 -31 85 -60 60 -97 -29 -45 -61 -59 -122 -54 -69 6 -94 28 -101 92 -10 88
53 111 163 59z m169 -937 c28 -12 71 -28 96 -35 36 -10 62 -29 115 -82 61 -61
69 -74 69 -107 0 -57 -52 -113 -150 -164 -68 -34 -96 -42 -184 -53 -136 -17
-164 -12 -211 38 -32 33 -47 41 -87 44 -31 3 -64 -1 -93 -12 -76 -29 -93 -29
-149 -1 -59 30 -111 95 -111 138 0 75 80 158 202 209 126 54 150 58 308 52
120 -4 154 -9 195 -27z m-760 -486 c16 -16 34 -30 41 -30 7 0 27 -15 45 -34
25 -27 43 -36 81 -41 46 -7 78 -25 78 -45 0 -5 -11 -17 -25 -26 -22 -14 -32
-15 -65 -5 -22 6 -47 23 -56 36 -9 14 -21 25 -26 25 -5 0 -31 9 -58 21 -52 23
-107 87 -96 114 9 25 50 17 81 -15z m587 -394 c25 -13 83 -32 129 -41 46 -9
103 -27 126 -40 24 -13 69 -31 100 -40 32 -9 70 -26 85 -36 15 -11 46 -26 69
-34 88 -31 206 -122 302 -232 l47 -55 0 -81 c0 -76 -2 -84 -37 -141 -51 -80
-137 -169 -160 -164 -16 3 -19 18 -24 123 -7 133 -17 166 -74 240 -38 50 -149
155 -164 155 -4 0 -28 16 -52 35 -24 19 -57 37 -73 41 -16 3 -60 21 -97 39
-45 21 -97 37 -151 44 -46 7 -96 17 -111 23 -36 14 -57 55 -57 112 0 76 57 97
142 52z m-291 -287 c26 -26 21 -57 -19 -125 -32 -55 -69 -74 -197 -100 -79
-17 -158 -64 -247 -146 -51 -47 -61 -62 -83 -131 -28 -87 -32 -162 -10 -191 8
-11 15 -29 15 -41 0 -50 -54 -60 -106 -20 -19 14 -52 32 -75 40 -44 16 -97 59
-167 136 -57 64 -72 130 -47 215 14 48 29 70 86 129 38 40 82 78 97 86 15 7
48 28 74 45 26 17 64 35 85 39 21 4 57 15 80 26 37 17 121 37 213 52 14 2 82
5 153 6 117 1 129 -1 148 -20z m321 -13 c235 -78 342 -137 428 -238 68 -79 84
-123 78 -217 -3 -46 -9 -67 -22 -77 -27 -20 -43 -7 -62 49 -21 65 -119 171
-173 188 -20 6 -61 26 -91 44 -42 26 -74 36 -139 44 -100 13 -126 28 -153 87
-26 60 -21 114 12 131 34 17 38 17 122 -11z m-275 -451 c27 -4 84 -2 128 3
123 16 294 -16 320 -58 4 -6 25 -18 46 -27 31 -12 46 -27 64 -64 30 -59 31
-72 4 -116 -27 -43 -59 -59 -139 -67 -36 -3 -86 -14 -112 -23 -60 -21 -107 -9
-169 45 -55 48 -72 54 -128 46 -40 -6 -55 -15 -109 -72 -61 -63 -63 -64 -106
-60 -48 6 -146 66 -190 118 -35 42 -35 97 -1 138 52 61 280 162 332 146 7 -2
34 -6 60 -9z"/>
</g>
</svg>
