<?xml version="1.0" standalone="no"?>
<!DOCTYPE svg PUBLIC "-//W3C//DTD SVG 20010904//EN"
 "http://www.w3.org/TR/2001/REC-SVG-20010904/DTD/svg10.dtd">
<svg version="1.0" xmlns="http://www.w3.org/2000/svg"
 width="400.000000pt" height="496.000000pt" viewBox="0 0 400.000000 496.000000"
 preserveAspectRatio="xMidYMid meet">
<metadata>
Created by potrace 1.16, written by Peter Selinger 2001-2019
</metadata>
<rect x="0" y="0" width="400" height="496" fill="#ffffff"/>
<g transform="translate(0.000000,496.000000) scale(0.100000,-0.100000)"
fill="#000000" stroke="none">
<path d="M1871 4888 l-22 -73 26 -75 c14 -41 31 -89 37 -107 9 -26 8 -36 -4
-55 -13 -20 -29 -25 -116 -35 -55 -7 -137 -21 -183 -32 -46 -11 -127 -27 -179
-35 -53 -8 -120 -26 -150 -40 -31 -14 -85 -32 -122 -39 -36 -8 -80 -24 -98
-37 -17 -12 -57 -30 -90 -40 -32 -10 -73 -29 -92 -43 -18 -13 -50 -30 -70 -37
-21 -6 -56 -27 -79 -46 -22 -19 -45 -34 -50 -34 -5 0 -26 -15 -46 -34 -21 -18
-54 -41 -73 -51 -35 -18 -189 -169 -266 -261 -23 -27 -51 -68 -63 -91 -11 -23
-25 -45 -31 -48 -21 -13 -102 -189 -114 -249 -17 -79 -55 -182 -72 -197 -19
-16 -19 -186 0 -208 7 -9 28 -63 45 -121 38 -123 99 -247 153 -309 21 -24 38
-47 38 -52 0 -13 98 -121 128 -141 15 -10 52 -38 82 -63 30 -25 84 -65 120
-89 36 -23 71 -50 79 -59 7 -10 19 -17 26 -17 7 0 39 -18 71 -40 33 -22 75
-45 94 -51 19 -6 50 -22 68 -36 17 -13 47 -29 65 -34 17 -5 64 -25 102 -44 99
-48 243 -111 290 -125 22 -7 63 -25 90 -41 28 -15 67 -31 87 -34 20 -4 44 -15
54 -26 14 -16 15 -21 3 -35 -15 -18 -132 -75 -214 -104 -47 -16 -147 -70 -278
-148 -30 -18 -95 -72 -144 -120 -72 -70 -97 -103 -132 -173 l-43 -86 4 -124 4
-124 49 -95 c75 -148 182 -281 257 -321 21 -10 52 -32 70 -48 18 -16 56 -39
85 -51 29 -12 58 -28 64 -36 6 -8 37 -21 68 -30 31 -9 76 -27 101 -39 25 -12
70 -28 100 -35 59 -13 188 -59 257 -90 31 -14 43 -26 48 -49 l7 -31 99 0 c83
0 99 3 99 15 0 9 11 27 25 40 23 24 29 25 157 25 168 0 306 15 383 40 33 11
92 27 130 35 40 9 87 28 110 44 22 16 57 34 78 41 21 7 53 24 70 39 18 15 49
37 69 50 20 12 51 43 67 69 17 26 40 59 52 73 25 31 69 193 69 252 0 23 -12
83 -26 133 -26 92 -27 94 -113 181 -105 108 -154 146 -206 163 -22 7 -71 26
-108 42 -46 19 -103 34 -176 43 -60 8 -121 19 -137 25 -18 7 -104 11 -229 9
-110 -1 -208 2 -218 6 -10 4 -24 30 -33 61 -23 80 -8 124 69 198 34 33 73 82
87 110 23 46 30 53 79 69 30 10 70 31 88 47 19 17 38 30 42 30 5 0 32 26 60
59 68 79 84 138 70 259 -12 95 -20 117 -56 145 -25 20 -31 68 -10 85 6 5 39
13 72 17 33 4 85 20 115 35 31 16 76 33 100 40 25 6 63 24 85 39 22 15 60 35
85 44 53 20 202 157 253 232 17 27 39 59 49 73 9 13 19 45 23 70 4 26 13 59
21 73 20 40 101 86 186 108 42 10 91 30 110 44 18 13 57 32 86 42 29 9 56 23
59 31 3 8 22 24 42 37 49 29 115 103 134 149 9 22 28 43 46 53 l31 16 0 125 0
125 -34 29 c-21 19 -38 46 -46 76 -19 68 -103 167 -226 267 -33 26 -75 60 -94
76 -20 16 -60 40 -90 54 -30 13 -63 33 -73 45 -10 11 -42 26 -70 32 -29 7 -73
25 -98 41 -25 16 -71 34 -102 40 -31 5 -82 21 -112 35 -35 16 -117 36 -220 54
-91 16 -170 32 -175 35 -19 12 -276 35 -392 35 -121 0 -167 11 -169 39 -2 31
2 46 22 74 33 45 45 134 30 217 l-13 70 -122 0 -122 0 -23 -72z m601 -619 c12
-7 50 -13 83 -15 156 -6 285 -25 369 -54 49 -16 116 -34 150 -41 33 -6 80 -21
103 -34 23 -13 66 -31 95 -40 29 -10 68 -28 85 -42 18 -13 51 -30 74 -38 23
-8 59 -31 80 -50 22 -19 43 -35 48 -35 10 0 96 -82 157 -151 54 -61 71 -129
53 -218 -10 -52 -19 -68 -68 -119 -31 -32 -72 -67 -91 -77 -19 -10 -47 -28
-61 -40 -14 -11 -67 -36 -117 -54 -108 -39 -122 -35 -147 40 -10 28 -29 65
-44 82 -15 18 -36 47 -48 65 -21 35 -85 91 -163 141 -25 16 -58 39 -73 51 -15
12 -54 30 -87 40 -32 10 -74 28 -91 41 -21 15 -66 29 -124 40 -49 9 -121 24
-160 34 -38 9 -116 21 -172 25 -146 13 -167 24 -206 107 -30 65 -31 73 -32
196 0 171 -10 163 203 160 103 -1 170 -6 184 -14z m-550 -39 c22 -27 23 -71 2
-197 -17 -108 -35 -154 -70 -182 -27 -21 -95 -45 -174 -60 -183 -35 -259 -54
-294 -75 -23 -13 -67 -31 -98 -40 -51 -15 -96 -40 -252 -142 -47 -30 -156
-146 -156 -165 0 -5 -16 -33 -35 -62 -80 -120 -76 -321 8 -460 75 -123 204
-239 328 -295 37 -16 69 -34 73 -40 3 -6 23 -16 44 -22 20 -6 71 -25 112 -41
96 -37 368 -91 418 -83 47 7 87 -22 102 -74 5 -20 10 -105 10 -187 0 -202 3
-198 -138 -189 -106 5 -241 28 -274 46 -10 4 -57 19 -105 32 -108 30 -256 86
-347 131 -37 19 -74 35 -81 35 -6 0 -30 13 -53 30 -22 16 -58 36 -78 45 -21 8
-56 29 -78 46 -23 16 -72 50 -111 75 -38 25 -86 60 -105 78 -19 18 -44 39 -56
47 -18 13 -61 59 -153 165 -19 21 -42 57 -52 79 -10 22 -28 52 -39 66 -26 31
-59 167 -67 266 -4 54 0 93 15 155 12 46 23 94 26 108 3 14 19 46 35 70 16 25
32 57 36 72 4 15 18 39 31 53 13 14 40 50 58 80 44 68 167 192 243 243 32 22
64 47 71 55 7 8 27 21 45 28 18 7 49 26 70 42 21 16 58 35 83 43 25 7 57 23
71 34 14 11 51 28 82 36 31 9 85 29 121 44 36 16 83 31 105 35 22 4 93 22 159
41 74 22 160 39 230 45 61 6 113 13 116 16 3 3 27 3 54 0 36 -3 55 -11 68 -27z
m-112 -590 c10 -10 28 -37 39 -58 24 -48 84 -77 156 -76 79 1 121 20 155 70
18 26 42 47 57 50 43 11 271 -36 312 -64 19 -14 58 -31 86 -39 27 -8 61 -25
75 -38 14 -12 44 -32 68 -44 23 -12 75 -55 115 -95 60 -60 80 -89 106 -152 47
-113 51 -168 15 -238 -37 -74 -173 -212 -234 -238 -25 -11 -56 -30 -70 -43
-14 -13 -47 -29 -73 -35 -27 -6 -71 -22 -99 -36 -28 -14 -92 -33 -144 -43 -88
-17 -97 -17 -143 -1 -26 9 -62 28 -79 42 -50 42 -95 53 -161 38 -72 -16 -101
-31 -138 -73 -45 -52 -58 -56 -122 -41 -31 7 -106 22 -167 33 -111 21 -175 44
-332 124 -118 59 -248 188 -286 282 -32 80 -33 140 -5 226 36 106 113 192 258
286 36 24 81 48 101 54 19 7 53 22 76 35 22 13 83 32 135 43 51 11 114 27 139
35 67 22 136 20 160 -4z m445 -1342 c33 -18 125 -100 137 -122 38 -70 26 -138
-34 -197 -41 -40 -154 -119 -171 -119 -22 0 -90 47 -101 70 -9 18 -11 72 -7
203 7 213 7 214 99 190 31 -8 66 -20 77 -25z m-344 -703 c40 -21 49 -50 49
-160 0 -88 -1 -95 -26 -114 -14 -11 -51 -25 -82 -31 -107 -21 -332 -101 -375
-134 -18 -13 -45 -31 -62 -39 -34 -17 -126 -104 -169 -160 -35 -44 -85 -186
-86 -239 0 -21 7 -53 16 -72 22 -44 12 -86 -19 -86 -28 0 -102 74 -149 150
-19 30 -49 96 -66 146 -29 83 -31 96 -22 150 16 97 60 173 148 254 42 40 95
81 117 92 21 11 61 36 88 54 27 19 54 34 60 34 6 0 40 15 76 34 36 18 93 41
126 51 33 9 74 26 92 36 68 42 230 61 284 34z m354 -419 c161 -25 325 -66 363
-91 21 -13 57 -31 81 -40 24 -8 61 -31 82 -50 22 -19 43 -35 48 -35 5 0 32
-22 60 -50 51 -50 111 -152 111 -190 0 -69 -115 -207 -204 -244 -21 -9 -51
-27 -67 -40 -17 -14 -53 -29 -86 -36 -32 -6 -85 -24 -118 -40 -60 -29 -104
-36 -336 -56 -69 -5 -79 -4 -97 14 -30 30 -34 87 -30 480 l3 354 24 19 c28 22
47 23 166 5z m-327 -52 c22 -15 22 -16 22 -317 0 -284 -10 -416 -34 -455 -17
-27 -76 -25 -164 6 -48 17 -109 36 -137 42 -27 6 -61 22 -75 34 -14 13 -41 32
-61 42 -20 11 -56 42 -82 71 -75 86 -95 198 -51 286 23 45 160 175 214 202
119 60 247 102 320 104 14 1 36 -6 48 -15z"/>
</g>
</svg>
