<?xml version="1.0" standalone="no"?>
<!DOCTYPE svg PUBLIC "-//W3C//DTD SVG 20010904//EN"
 "http://www.w3.org/TR/2001/REC-SVG-20010904/DTD/svg10.dtd">
<svg version="1.0" xmlns="http://www.w3.org/2000/svg"
 width="416.000000pt" height="592.000000pt" viewBox="0 0 416.000000 592.000000"
 preserveAspectRatio="xMidYMid meet">
<metadata>
Created by potrace 1.16, written by Peter Selinger 2001-2019
</metadata>
<rect x="0" y="0" width="416" height="592" fill="#ffffff"/>
<g transform="translate(0.000000,592.000000) scale(0.100000,-0.100000)"
fill="#000000" stroke="none">
<path d="M2012 5849 c-87 -51 -100 -87 -57 -151 51 -75 18 -126 -72 -113 -50
6 -217 -15 -269 -36 -16 -6 -64 -17 -106 -24 -43 -8 -106 -26 -140 -40 -35
-15 -85 -36 -113 -47 -27 -11 -63 -30 -80 -42 -16 -13 -46 -31 -65 -41 -88
-45 -204 -183 -227 -270 -17 -65 -16 -120 2 -181 11 -39 29 -64 78 -111 34
-33 73 -63 87 -68 21 -6 138 -58 190 -84 18 -10 35 -42 50 -98 16 -62 151
-194 239 -235 107 -49 139 -58 296 -84 158 -27 232 -28 415 -5 140 18 192 35
359 118 51 26 169 140 193 187 26 51 35 160 18 239 -10 48 -21 69 -67 120 -30
34 -87 82 -125 106 -76 48 -302 131 -356 131 -56 0 -88 24 -101 74 -17 68 -14
113 9 136 24 24 49 25 98 4 20 -9 99 -28 176 -44 92 -19 148 -35 168 -50 16
-12 52 -28 81 -37 29 -8 63 -25 77 -38 14 -12 40 -31 59 -40 19 -10 49 -31 66
-49 18 -17 53 -51 79 -76 26 -25 56 -61 66 -81 11 -20 30 -50 44 -66 16 -20
31 -56 41 -105 28 -136 -8 -230 -135 -355 -60 -60 -181 -146 -220 -158 -14 -4
-45 -20 -70 -35 -25 -15 -63 -33 -85 -40 -22 -7 -62 -25 -90 -40 -27 -15 -70
-31 -95 -34 -54 -8 -208 -43 -270 -62 -25 -7 -133 -18 -240 -25 -130 -7 -219
-18 -265 -31 -38 -10 -129 -30 -202 -43 -72 -13 -158 -35 -190 -49 -32 -14
-80 -30 -107 -36 -27 -6 -67 -22 -91 -35 -23 -14 -67 -34 -98 -44 -31 -11 -72
-31 -89 -45 -18 -13 -52 -29 -74 -35 -23 -6 -52 -22 -65 -35 -13 -13 -44 -34
-69 -46 -25 -12 -62 -37 -82 -54 -21 -17 -61 -49 -89 -71 -93 -72 -145 -131
-244 -275 -69 -101 -66 -95 -130 -235 -23 -50 -39 -105 -45 -150 -5 -38 -16
-87 -24 -107 -20 -47 -21 -165 -1 -237 8 -30 19 -89 25 -130 8 -49 20 -90 37
-114 13 -22 31 -57 39 -78 7 -22 30 -61 51 -87 66 -82 262 -272 312 -303 27
-16 51 -36 54 -43 3 -8 28 -21 55 -30 27 -9 59 -28 72 -41 13 -13 46 -32 74
-41 28 -9 68 -30 89 -45 21 -15 60 -32 88 -38 27 -6 75 -24 107 -40 31 -15 75
-31 96 -35 22 -4 72 -20 112 -36 40 -16 134 -41 211 -55 76 -15 166 -35 200
-45 34 -10 101 -22 150 -25 110 -9 160 -21 171 -43 5 -9 12 -67 16 -129 l6
-111 -26 -21 c-23 -18 -41 -21 -123 -21 -124 0 -202 -13 -261 -44 -25 -13 -64
-29 -86 -35 -42 -12 -132 -91 -195 -174 -45 -58 -63 -144 -53 -251 8 -86 15
-105 56 -159 95 -123 193 -195 295 -217 39 -9 60 -20 82 -46 l30 -34 313 0
312 0 31 30 c22 21 53 35 110 50 44 11 95 31 115 43 19 12 47 28 61 34 15 6
42 25 60 41 19 16 49 37 66 47 41 24 136 148 153 200 7 22 24 62 36 90 58 123
14 317 -105 468 -54 68 -180 178 -229 200 -15 6 -43 21 -62 34 -43 27 -297
111 -363 119 -26 4 -58 15 -70 24 -22 17 -22 21 -21 267 1 248 7 292 37 294 7
0 127 2 267 3 251 3 396 14 455 34 17 6 77 16 134 22 70 7 138 22 205 45 56
18 119 37 141 41 22 3 63 19 90 34 28 16 72 34 98 41 27 6 66 27 89 45 22 19
46 34 54 34 36 0 236 203 269 274 6 11 25 50 44 86 71 138 72 453 2 586 -17
31 -31 63 -31 70 0 8 -15 31 -34 51 -18 21 -40 52 -49 68 -43 81 -259 264
-368 312 -24 11 -50 27 -57 36 -8 9 -42 25 -77 37 -35 12 -75 30 -89 41 -14
11 -58 28 -100 39 -41 10 -92 28 -114 39 -22 11 -97 30 -168 42 -71 11 -164
32 -207 46 -119 37 -118 72 4 113 78 27 202 94 251 135 16 14 33 25 37 25 18
0 147 124 164 157 11 20 32 53 47 75 27 36 38 81 53 208 2 19 -2 77 -10 130
-11 72 -21 106 -44 141 -16 25 -29 50 -29 56 0 15 -92 141 -147 200 -26 29
-64 63 -83 75 -19 12 -49 34 -67 49 -17 15 -42 30 -55 34 -13 4 -38 18 -56 32
-17 13 -56 32 -85 42 -28 10 -75 30 -102 44 -28 14 -88 33 -135 41 -154 28
-264 57 -282 73 -25 22 -22 58 7 101 29 42 31 69 10 99 -17 24 -114 83 -136
83 -8 0 -38 -14 -67 -31z m-12 -509 c11 -11 20 -28 20 -37 0 -21 -17 -87 -32
-125 -13 -35 -43 -43 -202 -59 -96 -9 -128 -17 -170 -39 -29 -16 -71 -33 -93
-39 -63 -17 -177 -115 -235 -202 -39 -56 -72 -52 -161 20 -81 66 -87 75 -87
128 0 31 9 45 58 92 86 83 119 108 160 121 20 7 58 25 83 41 25 16 72 34 105
40 32 6 97 22 144 36 83 25 186 38 323 41 55 2 71 -2 87 -18z m500 -422 c93
-47 142 -86 185 -148 23 -33 28 -52 29 -99 1 -54 -2 -62 -42 -114 -99 -128
-312 -210 -547 -210 -99 0 -142 5 -250 30 -144 34 -198 62 -292 152 -69 66
-76 82 -68 143 6 42 17 60 71 123 44 50 78 78 107 90 23 9 63 30 88 46 73 47
110 37 151 -39 26 -48 92 -87 149 -87 59 0 123 42 156 100 36 67 39 68 112 61
49 -4 88 -17 151 -48z m-110 -1124 c30 -9 92 -17 139 -19 178 -6 295 -23 417
-59 66 -20 132 -36 145 -36 13 0 51 -12 84 -26 33 -15 95 -39 138 -55 44 -15
86 -34 95 -42 10 -8 41 -27 70 -41 28 -14 52 -30 52 -34 0 -5 19 -19 43 -32
62 -35 165 -129 193 -177 14 -23 32 -47 41 -55 9 -7 23 -29 32 -48 9 -19 30
-57 46 -85 28 -47 30 -57 34 -173 4 -146 -1 -178 -36 -228 -14 -22 -30 -52
-36 -69 -17 -50 -147 -193 -202 -222 -16 -9 -44 -28 -62 -43 -17 -16 -46 -31
-64 -35 -18 -4 -66 -25 -106 -46 -41 -22 -81 -39 -89 -39 -8 0 -63 -15 -122
-34 -59 -19 -152 -42 -207 -51 -55 -9 -128 -25 -162 -36 -44 -14 -88 -20 -150
-20 -48 0 -157 -2 -241 -5 -177 -7 -233 -1 -268 29 l-25 22 0 395 c1 445 6
564 29 587 22 22 119 8 222 -32 47 -18 103 -39 125 -47 117 -42 254 -200 263
-303 7 -84 -10 -121 -103 -224 -136 -152 -142 -178 -59 -275 60 -71 76 -78
163 -80 l55 -1 21 41 c11 23 34 55 52 71 17 17 35 43 38 59 3 16 20 79 37 139
24 86 29 123 25 170 -6 85 -61 240 -98 283 -17 19 -36 48 -41 63 -10 29 -75
83 -154 129 -24 14 -54 36 -68 49 -14 13 -53 32 -88 42 -35 10 -97 30 -138 45
-48 17 -108 29 -165 33 -115 8 -120 15 -105 152 5 52 10 140 10 195 0 120 13
145 88 168 61 19 68 19 132 0z m-426 -46 c24 -23 24 -27 31 -225 8 -247 13
-237 -121 -246 -123 -8 -312 -67 -413 -129 -54 -33 -182 -154 -225 -212 -12
-17 -35 -65 -49 -106 -22 -62 -27 -92 -27 -173 0 -84 4 -108 30 -175 26 -68
42 -91 129 -183 71 -75 116 -114 155 -134 31 -16 63 -36 73 -47 9 -10 45 -27
79 -38 35 -10 87 -30 116 -44 29 -14 88 -29 131 -35 87 -12 111 -22 128 -52
12 -24 19 -444 7 -499 -13 -64 -53 -73 -166 -41 -37 10 -103 24 -147 30 -44 7
-124 25 -177 42 -54 16 -121 34 -150 39 -29 6 -77 23 -108 39 -30 15 -77 34
-105 40 -27 7 -70 25 -95 41 -25 15 -63 33 -86 39 -22 6 -49 21 -60 32 -10 12
-46 35 -79 51 -33 16 -87 47 -119 70 -77 54 -298 274 -321 319 -9 18 -26 43
-36 54 -19 22 -68 152 -93 251 -23 91 -20 142 18 262 19 59 37 121 41 137 3
17 17 44 29 60 13 17 31 46 41 65 10 19 33 52 51 73 19 20 34 41 34 46 0 14
231 242 271 267 21 13 40 28 44 34 3 6 30 22 58 37 29 14 65 36 80 49 15 13
47 29 70 35 23 6 61 23 85 39 23 15 66 34 95 40 29 7 77 25 107 40 33 16 94
35 146 44 50 8 113 25 140 37 47 20 211 45 316 48 36 1 53 -4 72 -21z m18
-625 c9 -10 19 -35 22 -57 9 -50 10 -877 1 -905 -10 -32 -49 -44 -90 -27 -18
8 -59 19 -92 26 -32 6 -83 24 -113 40 -30 15 -66 31 -80 35 -44 13 -153 92
-212 152 -77 80 -120 167 -126 260 -4 67 -2 77 31 145 37 76 111 162 183 210
56 39 252 117 294 118 19 1 53 5 75 9 65 14 91 12 107 -6z m275 -1902 c26 -10
66 -21 88 -25 44 -8 209 -87 240 -116 11 -9 34 -25 51 -33 31 -16 94 -80 94
-96 0 -5 15 -27 34 -50 46 -54 63 -147 48 -250 -9 -63 -15 -77 -54 -119 -59
-66 -117 -116 -155 -136 -18 -9 -48 -27 -68 -40 -19 -13 -64 -29 -101 -35 -36
-7 -82 -18 -102 -26 -54 -20 -175 -43 -268 -50 -61 -5 -104 -1 -180 15 -223
46 -315 91 -390 189 -44 56 -44 93 -2 152 58 81 91 108 192 158 92 45 109 50
193 55 108 8 133 0 133 -44 0 -40 -23 -50 -120 -50 -45 0 -95 -6 -113 -14 -34
-14 -80 -67 -97 -111 -14 -38 4 -97 42 -141 38 -43 181 -113 248 -121 50 -6
182 23 273 59 103 42 197 165 197 257 0 43 -53 152 -91 187 -19 18 -59 43 -89
58 -31 14 -69 39 -85 56 -29 30 -30 35 -30 123 1 129 9 150 62 166 1 1 24 -7
50 -18z m-7 -491 c35 -38 54 -83 46 -113 -16 -66 -94 -121 -200 -143 -69 -14
-90 -14 -154 -4 -95 17 -136 43 -140 91 -4 47 14 60 90 66 47 3 78 -1 122 -16
33 -12 67 -21 76 -21 28 0 47 32 53 89 4 29 12 59 18 67 19 23 59 16 89 -16z"/>
</g>
</svg>
