<?xml version="1.0" standalone="no"?>
<!DOCTYPE svg PUBLIC "-//W3C//DTD SVG 20010904//EN"
 "http://www.w3.org/TR/2001/REC-SVG-20010904/DTD/svg10.dtd">
<svg version="1.0" xmlns="http://www.w3.org/2000/svg"
 width="416.000000pt" height="592.000000pt" viewBox="0 0 416.000000 592.000000"
 preserveAspectRatio="xMidYMid meet">
<metadata>
Created by potrace 1.16, written by Peter Selinger 2001-2019
</metadata>
<rect x="0" y="0" width="416" height="592" fill="#ffffff"/>
<g transform="translate(0.000000,592.000000) scale(0.100000,-0.100000)"
fill="#000000" stroke="none">
<path d="M2052 5863 c-78 -38 -111 -113 -77 -173 36 -64 11 -101 -72 -106 -33
-2 -73 -8 -87 -14 -15 -5 -43 -10 -63 -10 -19 0 -58 -7 -86 -15 -29 -8 -90
-19 -136 -25 -53 -7 -104 -21 -135 -37 -28 -14 -77 -34 -108 -44 -32 -9 -70
-27 -85 -39 -15 -12 -48 -35 -73 -51 -78 -51 -143 -107 -158 -136 -8 -15 -30
-51 -49 -79 -38 -56 -51 -126 -39 -208 10 -64 107 -177 175 -203 25 -9 65 -29
89 -44 23 -15 58 -30 77 -33 36 -7 65 -44 65 -84 0 -11 13 -35 29 -55 15 -20
34 -49 40 -64 15 -33 105 -104 176 -139 28 -14 61 -31 75 -39 14 -7 67 -21
118 -30 51 -8 104 -20 118 -25 14 -6 103 -10 197 -10 317 0 506 59 668 209
121 112 153 215 108 353 -20 63 -31 81 -85 133 -110 106 -225 161 -433 211
-104 24 -131 50 -138 130 -5 54 -3 64 17 84 25 25 22 25 170 -14 52 -13 121
-29 153 -35 32 -5 72 -20 89 -32 17 -12 55 -28 84 -35 30 -7 71 -25 91 -41 21
-16 52 -35 70 -42 31 -13 203 -175 203 -191 0 -5 18 -29 39 -54 46 -53 55 -92
55 -231 1 -110 -7 -125 -128 -261 -55 -63 -268 -199 -351 -224 -22 -7 -66 -26
-97 -41 -31 -16 -92 -36 -135 -45 -43 -9 -110 -26 -148 -39 -59 -19 -108 -24
-309 -34 -160 -8 -252 -17 -280 -27 -22 -8 -114 -28 -203 -44 -99 -17 -184
-38 -217 -53 -30 -14 -81 -31 -113 -37 -32 -7 -78 -23 -103 -36 -25 -13 -72
-33 -104 -44 -33 -11 -73 -31 -90 -43 -17 -13 -51 -34 -76 -46 -25 -11 -59
-31 -77 -44 -18 -12 -47 -32 -65 -44 -18 -12 -56 -38 -84 -57 -66 -45 -196
-174 -240 -240 -19 -28 -54 -78 -79 -111 -75 -101 -155 -286 -155 -360 0 -19
-9 -61 -20 -92 -24 -68 -26 -170 -6 -252 8 -31 20 -89 26 -130 14 -83 85 -234
148 -312 20 -25 61 -75 90 -112 30 -37 57 -67 61 -67 4 0 34 -22 67 -50 32
-27 75 -62 94 -78 19 -16 54 -39 77 -51 23 -11 45 -26 48 -31 4 -6 34 -24 68
-40 33 -17 68 -37 77 -45 9 -8 41 -23 71 -34 30 -10 81 -32 113 -50 32 -17 69
-31 82 -31 12 0 51 -15 86 -33 35 -19 94 -40 133 -47 39 -7 108 -25 153 -41
46 -16 135 -35 198 -44 63 -8 123 -19 133 -25 11 -5 63 -17 116 -25 99 -16
130 -28 141 -55 3 -8 7 -48 9 -88 5 -112 1 -115 -176 -124 -158 -8 -201 -16
-251 -45 -18 -11 -49 -26 -68 -33 -32 -13 -79 -48 -155 -118 -16 -15 -45 -56
-63 -91 -29 -58 -32 -72 -32 -152 0 -83 2 -91 41 -166 22 -43 51 -85 62 -93
12 -8 40 -32 63 -52 67 -61 200 -114 324 -128 58 -7 119 -18 137 -25 51 -21
246 -17 311 6 29 10 72 19 95 19 71 0 170 20 207 42 19 11 62 29 96 39 34 11
67 26 75 35 7 8 29 24 49 34 41 21 200 183 200 203 0 8 14 33 31 57 38 52 54
144 46 270 -4 76 -10 95 -50 174 -34 67 -65 109 -119 164 -93 94 -180 161
-241 184 -26 10 -64 29 -85 43 -21 13 -70 31 -112 39 -41 8 -102 24 -134 35
-33 12 -67 21 -76 21 -10 0 -29 10 -44 21 l-27 22 3 218 c3 207 4 220 24 240
21 20 29 21 268 20 135 -1 272 3 303 8 102 18 266 43 342 52 41 6 122 25 180
44 58 19 127 39 154 45 26 5 66 24 89 40 22 17 52 30 65 30 30 0 93 28 93 42
0 5 21 19 48 31 162 75 326 292 358 473 18 104 20 232 6 354 -9 78 -18 108
-53 175 -23 44 -54 94 -69 110 -15 17 -31 37 -36 47 -15 26 -118 130 -165 166
-111 83 -183 132 -192 132 -6 0 -25 12 -44 26 -18 14 -57 33 -87 44 -29 10
-71 29 -92 43 -22 14 -65 31 -97 37 -32 6 -83 23 -113 37 -30 13 -92 31 -137
39 -45 8 -120 21 -167 29 -94 17 -135 40 -135 76 0 15 9 27 25 35 97 45 244
122 293 153 66 40 187 153 187 173 0 7 16 32 35 56 23 29 38 62 45 100 6 31
16 72 22 91 6 18 8 50 4 70 -3 20 -12 76 -20 125 -11 67 -21 98 -44 130 -16
22 -35 58 -42 79 -6 21 -26 55 -44 75 -53 62 -176 182 -185 182 -5 0 -28 15
-50 34 -23 19 -51 38 -64 42 -12 4 -40 19 -62 35 -22 15 -62 33 -88 39 -26 6
-71 23 -100 39 -35 20 -78 33 -132 40 -44 7 -109 18 -145 26 -36 8 -77 17 -92
20 -37 7 -42 34 -22 120 23 99 16 119 -61 161 -33 19 -62 34 -65 34 -3 0 -20
-8 -38 -17z m-57 -527 c41 -17 44 -41 19 -125 -24 -82 -33 -87 -166 -93 -95
-4 -125 -10 -171 -31 -30 -14 -80 -32 -110 -41 -31 -9 -68 -27 -84 -39 -15
-13 -43 -32 -61 -43 -18 -10 -62 -54 -98 -96 -48 -57 -71 -78 -89 -78 -30 0
-158 110 -175 150 -6 16 -9 39 -5 51 13 41 75 117 106 129 17 7 37 23 46 36 8
13 40 32 71 44 32 11 77 32 102 45 25 13 77 29 115 35 39 6 93 17 120 25 165
47 313 59 380 31z m-61 -440 c48 -69 92 -96 159 -96 79 0 110 19 148 92 34 63
34 63 82 66 92 6 233 -54 321 -137 58 -56 76 -93 76 -164 0 -113 -107 -211
-303 -278 -111 -38 -113 -38 -274 -39 -143 0 -171 3 -240 24 -43 13 -94 27
-114 30 -21 4 -48 15 -62 26 -14 11 -44 31 -66 43 -22 13 -63 49 -91 81 -76
87 -68 132 46 255 47 51 76 73 110 85 25 8 61 29 81 46 51 46 78 39 127 -34z
m603 -1102 c26 -9 66 -16 88 -15 22 0 63 -4 90 -9 28 -5 84 -14 126 -20 42 -6
100 -20 129 -31 29 -11 89 -27 134 -35 49 -9 96 -25 120 -40 21 -14 61 -33 89
-41 29 -8 70 -28 92 -44 22 -15 52 -31 67 -35 16 -3 38 -17 50 -31 13 -13 44
-35 69 -48 64 -33 215 -195 247 -265 14 -30 36 -69 49 -87 49 -65 51 -332 3
-407 -11 -17 -28 -47 -37 -66 -35 -70 -142 -187 -198 -217 -16 -9 -46 -30 -66
-48 -20 -18 -52 -36 -70 -40 -19 -4 -60 -20 -91 -36 -32 -16 -84 -35 -117 -43
-32 -7 -88 -26 -125 -40 -36 -15 -100 -31 -143 -36 -43 -5 -116 -16 -163 -24
-222 -39 -301 -46 -481 -46 -249 0 -233 -13 -237 198 -3 131 -1 161 11 174 17
17 128 30 282 33 55 1 113 7 128 13 16 7 46 12 67 12 21 0 50 4 63 9 13 5 77
17 140 26 64 8 133 22 154 30 181 67 240 112 303 232 48 90 47 99 -12 209 -28
52 -50 79 -72 91 -17 9 -49 29 -71 44 -24 17 -64 33 -99 40 -33 6 -89 21 -125
34 -36 13 -79 26 -96 29 -61 11 -318 26 -474 27 -191 1 -197 3 -194 81 0 29 2
122 2 206 1 165 11 207 54 217 12 3 74 6 137 8 63 1 118 4 122 5 4 1 29 -5 55
-14z m-555 -31 c19 -21 31 -137 32 -310 1 -156 -2 -161 -130 -175 -112 -12
-322 -78 -389 -123 -27 -18 -61 -35 -75 -39 -25 -6 -97 -73 -165 -153 -49 -57
-95 -201 -95 -300 0 -112 37 -218 110 -307 62 -76 193 -196 215 -196 7 0 32
-15 54 -34 25 -21 60 -38 90 -45 28 -6 76 -24 108 -40 40 -21 85 -34 142 -41
97 -13 132 -28 148 -63 7 -15 12 -110 14 -242 3 -200 2 -218 -15 -230 -31 -23
-88 -26 -151 -9 -91 25 -170 43 -283 64 -56 10 -127 30 -156 43 -30 14 -81 31
-113 37 -32 7 -83 25 -113 40 -30 16 -75 34 -100 40 -25 6 -62 22 -82 36 -21
13 -62 35 -90 49 -51 25 -67 34 -166 102 -26 18 -63 41 -82 52 -36 20 -178
156 -243 234 -20 25 -45 65 -56 89 -10 24 -26 49 -35 57 -9 7 -23 37 -31 65
-20 67 -28 273 -14 356 18 111 119 307 216 419 78 89 200 202 251 232 17 10
32 24 32 29 0 6 28 24 63 40 35 16 69 35 76 44 7 8 38 25 69 36 30 12 68 31
83 44 15 13 52 29 81 36 29 7 78 25 109 40 30 16 83 33 116 40 34 6 101 24
149 41 62 22 120 33 203 40 64 6 118 12 120 15 13 12 89 2 103 -13z m588 -642
c78 -6 146 -19 210 -39 52 -17 123 -35 157 -40 82 -14 176 -74 181 -115 5 -38
-8 -50 -91 -90 -52 -25 -97 -38 -162 -46 -49 -7 -110 -16 -135 -21 -25 -5
-154 -10 -288 -12 -218 -2 -244 0 -260 15 -14 15 -18 42 -20 172 -3 147 -2
155 18 175 21 21 28 22 149 17 69 -3 178 -10 241 -16z m-570 -11 c18 -18 20
-33 20 -157 0 -157 -9 -200 -51 -248 -43 -48 -47 -91 -15 -135 46 -63 66 -112
66 -168 0 -30 7 -78 16 -107 12 -43 13 -62 4 -94 -15 -57 -36 -65 -123 -50
-88 15 -293 93 -327 124 -14 12 -39 30 -57 39 -17 9 -61 45 -96 81 -49 48 -69
77 -82 117 -10 29 -26 70 -36 90 -27 53 -24 89 15 179 34 79 85 141 159 195
18 13 42 31 54 39 12 9 48 23 80 32 31 8 74 23 95 34 38 19 165 46 226 48 20
1 40 -7 52 -19z m308 -1941 c37 -16 96 -37 131 -45 35 -8 78 -26 95 -38 17
-13 50 -33 73 -45 22 -11 74 -57 115 -101 60 -67 76 -91 91 -143 31 -104 31
-112 1 -194 -31 -87 -89 -161 -158 -202 -23 -13 -53 -34 -68 -46 -15 -13 -53
-31 -84 -40 -31 -9 -72 -25 -92 -35 -38 -21 -91 -33 -217 -50 -187 -24 -386
-3 -520 57 -91 40 -112 57 -166 130 -75 100 -74 132 6 226 36 44 78 78 136
112 l84 50 114 -2 c116 -2 144 -10 122 -37 -8 -10 -23 -13 -44 -9 -52 8 -178
-55 -216 -108 -70 -96 -25 -202 111 -264 116 -53 239 -56 387 -10 101 32 171
90 207 173 29 64 30 115 4 188 -30 87 -59 117 -154 162 -110 53 -118 65 -114
183 3 88 4 94 28 106 37 19 53 16 128 -18z m-82 -408 c46 -28 84 -82 84 -120
0 -43 -22 -73 -83 -115 -61 -40 -152 -58 -257 -50 -80 7 -115 19 -140 52 -61
76 31 134 175 110 39 -6 83 -8 97 -5 28 7 48 48 48 98 0 16 7 32 18 38 23 14
22 14 58 -8z"/>
</g>
</svg>
