<?xml version="1.0" standalone="no"?>
<!DOCTYPE svg PUBLIC "-//W3C//DTD SVG 20010904//EN"
 "http://www.w3.org/TR/2001/REC-SVG-20010904/DTD/svg10.dtd">
<svg version="1.0" xmlns="http://www.w3.org/2000/svg"
 width="416.000000pt" height="512.000000pt" viewBox="0 0 416.000000 512.000000"
 preserveAspectRatio="xMidYMid meet">
<metadata>
Created by potrace 1.16, written by Peter Selinger 2001-2019
</metadata>
<rect x="0" y="0" width="416" height="512" fill="#ffffff"/>
<g transform="translate(0.000000,512.000000) scale(0.100000,-0.100000)"
fill="#000000" stroke="none">
<path d="M1999 5098 c-7 -12 -27 -36 -45 -54 -40 -37 -44 -80 -17 -158 18 -48
18 -48 -6 -67 -18 -14 -39 -19 -90 -19 -103 0 -231 -18 -297 -41 -32 -11 -92
-27 -133 -35 -45 -8 -93 -26 -120 -43 -25 -16 -69 -36 -98 -45 -28 -10 -57
-23 -63 -31 -6 -8 -31 -25 -54 -39 -23 -13 -73 -57 -112 -98 -88 -93 -130
-188 -121 -277 7 -75 48 -166 84 -185 15 -8 46 -28 67 -45 21 -17 60 -37 86
-45 26 -8 61 -21 77 -29 46 -24 99 -89 117 -145 12 -36 31 -63 70 -98 92 -85
134 -115 188 -133 29 -11 75 -28 101 -40 88 -38 395 -61 558 -41 131 16 306
74 374 124 17 12 49 33 73 46 43 24 103 94 141 166 28 53 29 171 1 232 -42 93
-164 206 -262 244 -27 10 -72 30 -99 43 -28 15 -82 30 -126 36 -43 5 -86 12
-96 15 -23 7 -87 135 -87 174 0 24 6 33 26 40 37 14 163 -4 246 -34 37 -14 96
-30 132 -37 39 -6 82 -22 103 -36 21 -14 55 -31 75 -39 21 -7 59 -29 84 -49
26 -19 52 -35 58 -35 12 -1 115 -100 162 -157 17 -21 49 -74 70 -118 35 -71
39 -88 39 -155 -1 -66 -5 -83 -35 -138 -59 -111 -246 -278 -351 -314 -19 -6
-50 -21 -69 -33 -19 -12 -60 -30 -90 -40 -30 -10 -80 -31 -110 -46 -40 -21
-80 -32 -148 -39 -52 -6 -109 -17 -129 -25 -19 -8 -58 -15 -85 -15 -27 0 -63
-8 -81 -17 -21 -11 -70 -19 -147 -24 -79 -5 -159 -18 -255 -42 -77 -20 -162
-38 -190 -42 -27 -4 -74 -19 -105 -35 -30 -15 -80 -33 -110 -39 -30 -6 -75
-25 -99 -41 -25 -17 -62 -33 -84 -37 -21 -3 -60 -20 -85 -37 -26 -18 -66 -40
-89 -50 -23 -10 -50 -27 -60 -38 -9 -10 -37 -28 -61 -38 -25 -11 -62 -36 -83
-55 -22 -19 -43 -35 -47 -35 -10 0 -266 -257 -289 -290 -9 -14 -23 -31 -30
-38 -8 -8 -21 -28 -30 -45 -9 -18 -31 -52 -50 -76 -18 -24 -33 -52 -33 -61 0
-9 -15 -46 -34 -81 -25 -47 -37 -87 -45 -150 -6 -48 -19 -108 -27 -133 -18
-53 -16 -85 18 -246 36 -167 86 -254 238 -409 102 -105 160 -151 264 -215 17
-10 54 -33 81 -51 129 -82 229 -132 380 -190 33 -13 89 -37 125 -54 36 -17 70
-31 77 -31 7 0 58 -18 115 -39 57 -22 132 -47 168 -55 36 -8 87 -24 114 -36
27 -11 68 -25 92 -30 61 -14 174 -78 187 -107 7 -17 7 -37 0 -71 -13 -56 -3
-183 16 -205 7 -9 32 -25 56 -37 l44 -21 48 24 c88 45 87 42 80 244 -3 98 -10
190 -16 205 -17 44 -57 58 -173 59 -70 0 -126 6 -173 20 -38 10 -115 31 -169
45 -55 14 -117 34 -139 45 -21 11 -75 29 -119 40 -45 11 -100 30 -122 41 -22
11 -66 29 -99 40 -33 10 -76 30 -96 43 -20 13 -55 31 -79 39 -24 9 -55 24 -70
34 -15 11 -47 28 -72 39 -54 24 -165 94 -241 152 -30 24 -78 60 -106 82 -44
33 -98 94 -149 168 -69 100 -88 138 -110 228 -29 118 -29 131 -4 258 28 143
28 141 55 173 14 17 32 49 40 72 8 24 30 60 48 81 79 95 96 116 121 156 14 24
45 55 69 69 23 15 59 41 79 58 87 72 107 86 159 109 29 13 60 31 67 40 8 9 37
24 65 33 29 9 75 29 102 45 28 15 86 35 129 45 44 9 104 28 133 41 36 17 90
29 166 38 61 7 141 20 177 28 150 37 236 45 272 26 11 -6 33 -40 50 -77 25
-56 31 -85 39 -198 12 -149 4 -196 -36 -234 -21 -20 -40 -25 -123 -31 -54 -4
-146 -21 -207 -38 -60 -16 -139 -35 -175 -42 -36 -6 -87 -24 -115 -39 -27 -15
-73 -35 -102 -44 -28 -10 -57 -24 -64 -32 -7 -9 -33 -26 -58 -39 -76 -39 -131
-114 -168 -228 l-32 -99 20 -57 c11 -31 24 -75 29 -99 16 -69 117 -180 211
-233 16 -9 44 -28 62 -42 19 -14 56 -32 83 -38 27 -7 80 -25 118 -41 38 -16
130 -42 205 -58 75 -16 168 -36 206 -44 125 -28 497 -41 790 -27 313 14 391
22 470 50 33 11 106 27 162 35 63 10 121 25 150 40 27 13 77 31 113 40 35 9
71 23 80 31 9 8 38 24 65 36 118 52 280 222 353 371 39 77 44 98 54 202 9 87
9 147 1 243 -11 113 -16 134 -46 192 -19 36 -38 77 -42 91 -4 13 -30 54 -58
90 -54 70 -241 260 -257 260 -5 0 -25 14 -44 30 -18 17 -51 37 -72 46 -22 9
-54 29 -71 45 -18 15 -52 33 -75 40 -23 6 -61 24 -83 39 -22 15 -58 31 -80 35
-22 3 -78 21 -125 40 -47 18 -122 40 -165 48 -190 35 -330 68 -352 83 -39 25
-25 47 42 67 109 33 274 124 387 214 76 60 140 141 180 228 37 79 38 82 38
205 0 111 -3 131 -24 176 -13 28 -27 66 -31 84 -4 18 -22 49 -40 69 -18 20
-40 52 -50 71 -24 48 -201 218 -251 241 -22 10 -52 28 -67 39 -14 11 -51 29
-80 39 -30 11 -72 31 -93 45 -25 16 -71 32 -124 42 -46 8 -118 26 -158 40 -41
13 -92 24 -113 24 -26 0 -46 7 -59 20 -24 24 -25 35 -5 90 20 56 19 79 -5 120
-11 19 -27 50 -35 68 -14 30 -19 32 -65 32 -41 0 -51 -4 -61 -22z m-13 -563
c20 -31 11 -75 -24 -117 -36 -42 -135 -88 -192 -88 -96 -1 -184 -20 -225 -49
-22 -15 -57 -34 -78 -40 -49 -16 -148 -103 -187 -164 -53 -83 -92 -83 -192 4
-56 47 -75 98 -59 156 14 49 111 141 175 165 27 10 63 30 80 43 17 13 62 31
99 39 38 9 78 21 89 27 51 28 195 48 345 48 151 1 153 1 169 -24z m414 -372
c30 -8 78 -29 105 -47 28 -18 62 -41 77 -50 15 -9 43 -41 63 -71 41 -64 46
-116 16 -180 -36 -77 -191 -195 -276 -210 -22 -4 -76 -16 -120 -26 -103 -24
-226 -24 -351 0 -54 11 -115 22 -135 26 -21 3 -53 17 -74 30 -20 14 -53 34
-73 44 -55 28 -129 112 -137 154 -16 86 58 208 159 259 22 11 51 29 63 40 51
47 145 42 176 -11 9 -15 34 -44 55 -63 43 -39 110 -56 153 -39 32 12 115 99
128 134 13 34 46 47 86 35 16 -6 55 -17 85 -25z m231 -1313 c55 -10 103 -21
108 -24 4 -3 61 -12 125 -21 82 -10 138 -24 184 -44 37 -16 85 -33 107 -37 42
-7 89 -27 115 -49 8 -7 40 -20 70 -30 30 -10 65 -27 78 -38 12 -12 42 -33 66
-47 114 -66 250 -200 282 -277 9 -21 27 -53 41 -71 51 -67 53 -319 4 -395 -12
-18 -30 -50 -40 -72 -31 -63 -167 -194 -230 -222 -30 -14 -67 -35 -82 -48 -15
-12 -52 -28 -81 -35 -29 -7 -78 -25 -108 -40 -30 -15 -89 -33 -130 -40 -41 -7
-126 -25 -188 -41 -144 -37 -334 -53 -632 -53 -293 0 -464 16 -585 55 -33 10
-94 25 -135 34 -41 8 -100 28 -131 44 -31 17 -74 33 -94 37 -21 4 -54 21 -74
39 -20 18 -47 38 -62 46 -34 19 -106 99 -119 133 -5 15 -10 56 -10 92 0 62 2
66 42 110 29 31 69 58 134 89 80 38 108 46 215 60 68 9 145 21 172 26 26 6
120 9 210 8 l162 -3 53 38 c29 21 64 58 78 82 l26 44 -25 43 c-37 64 -77 190
-77 244 0 26 7 86 16 133 8 47 21 118 29 158 20 110 10 106 214 98 102 -4 215
-15 272 -26z"/>
</g>
</svg>
