<?xml version="1.0" standalone="no"?>
<!DOCTYPE svg PUBLIC "-//W3C//DTD SVG 20010904//EN"
 "http://www.w3.org/TR/2001/REC-SVG-20010904/DTD/svg10.dtd">
<svg version="1.0" xmlns="http://www.w3.org/2000/svg"
 width="416.000000pt" height="704.000000pt" viewBox="0 0 416.000000 704.000000"
 preserveAspectRatio="xMidYMid meet">
<metadata>
Created by potrace 1.16, written by Peter Selinger 2001-2019
</metadata>
<rect x="0" y="0" width="416" height="704" fill="#ffffff"/>
<g transform="translate(0.000000,704.000000) scale(0.100000,-0.100000)"
fill="#000000" stroke="none">
<path d="M1948 6980 c-30 -63 -34 -111 -17 -175 18 -63 0 -71 -178 -80 -128
-6 -162 -12 -253 -40 -58 -19 -134 -41 -170 -50 -36 -9 -72 -23 -80 -30 -9 -8
-40 -25 -70 -38 -30 -14 -64 -35 -75 -47 -11 -12 -41 -33 -66 -45 -25 -13 -54
-36 -63 -50 -10 -15 -32 -43 -51 -63 -27 -31 -60 -99 -88 -184 -7 -19 14 -98
45 -170 17 -40 33 -56 102 -102 44 -29 105 -61 134 -71 73 -23 110 -58 148
-140 34 -72 105 -156 159 -188 17 -9 45 -28 62 -41 18 -13 50 -27 70 -31 21
-4 70 -21 108 -38 l70 -32 260 0 260 0 130 44 c149 51 243 108 323 195 71 78
92 127 92 212 0 91 -10 122 -60 186 -49 62 -155 158 -175 158 -7 0 -44 16 -82
36 -48 25 -98 41 -173 55 -95 17 -108 22 -133 51 -46 54 -72 116 -61 147 l10
26 115 -1 c106 0 120 -3 184 -32 39 -17 95 -36 125 -43 113 -25 318 -149 386
-234 16 -20 45 -55 65 -78 20 -23 53 -80 74 -126 35 -78 37 -89 33 -156 -4
-64 -10 -81 -46 -138 -77 -121 -255 -267 -382 -312 -22 -8 -52 -23 -68 -35
-15 -12 -60 -29 -98 -39 -38 -11 -98 -31 -134 -46 -61 -26 -78 -28 -280 -36
-182 -8 -227 -13 -301 -34 -48 -14 -134 -32 -191 -41 -56 -9 -130 -27 -163
-41 -33 -13 -93 -33 -133 -43 -40 -11 -103 -33 -140 -48 -37 -16 -80 -33 -97
-36 -16 -4 -48 -20 -70 -35 -22 -15 -61 -35 -86 -43 -25 -9 -65 -30 -89 -47
-24 -17 -49 -31 -56 -31 -7 0 -34 -18 -59 -40 -25 -22 -52 -40 -60 -40 -8 0
-35 -18 -60 -40 -25 -22 -51 -40 -57 -40 -17 0 -198 -191 -218 -230 -10 -19
-28 -44 -40 -55 -12 -11 -31 -38 -42 -60 -11 -22 -28 -49 -38 -60 -28 -32 -90
-192 -111 -285 -23 -104 -25 -290 -5 -388 8 -37 36 -112 61 -164 42 -87 57
-108 169 -220 67 -67 153 -145 192 -171 117 -81 173 -117 182 -117 4 0 35 -16
68 -36 32 -20 81 -45 108 -55 27 -11 62 -29 78 -40 15 -11 61 -31 102 -45 40
-13 102 -37 137 -54 35 -16 69 -30 76 -30 6 0 45 -18 85 -40 53 -28 91 -59
132 -105 32 -37 81 -80 110 -96 28 -16 62 -39 76 -50 14 -11 52 -27 85 -35 32
-9 70 -24 83 -34 13 -10 48 -24 78 -30 74 -16 87 -36 78 -125 -4 -36 -13 -73
-21 -81 -9 -9 -36 -14 -76 -14 -64 0 -210 -13 -332 -31 -214 -30 -531 -186
-604 -297 -17 -26 -37 -56 -45 -67 -9 -12 -28 -63 -42 -115 -24 -83 -26 -98
-15 -134 7 -23 19 -68 27 -101 13 -49 27 -72 82 -133 75 -85 148 -144 231
-187 31 -16 68 -38 81 -47 14 -9 53 -22 87 -28 34 -6 86 -21 115 -34 80 -35
130 -44 283 -51 221 -11 231 -22 227 -233 -3 -125 -7 -156 -33 -239 -50 -162
-36 -217 62 -243 59 -16 109 -7 138 27 22 26 23 33 18 113 -4 47 -16 127 -27
179 -35 165 -22 329 31 376 13 13 46 20 117 26 69 6 127 19 200 44 56 19 111
35 121 35 10 0 44 14 76 31 32 17 80 38 107 45 26 8 62 28 78 44 17 17 48 39
68 49 21 11 44 27 51 35 8 9 31 26 52 38 42 23 134 139 167 209 12 24 32 57
44 72 21 26 23 38 23 160 l0 132 -42 65 c-23 36 -50 75 -58 87 -20 29 -156
129 -220 163 -27 14 -63 34 -80 43 -67 37 -207 91 -319 123 -65 19 -127 39
-137 44 -9 5 -61 17 -116 25 -109 18 -136 35 -136 84 0 53 19 64 93 58 63 -5
233 13 275 29 11 4 38 20 59 36 21 15 45 28 52 28 7 0 40 24 74 53 75 63 110
131 117 228 8 100 -12 141 -113 239 -46 44 -84 85 -84 91 0 19 52 29 149 29
109 0 280 22 356 45 28 9 91 22 141 30 51 9 120 28 156 44 35 16 81 32 101 36
21 4 54 19 75 33 20 14 61 36 90 48 37 17 83 54 161 132 94 95 114 120 154
203 46 94 77 208 92 346 6 49 3 73 -14 122 -11 34 -21 78 -21 99 0 24 -15 68
-40 120 -22 44 -40 84 -40 88 0 3 -19 33 -42 66 -56 79 -209 231 -274 273 -29
18 -55 39 -59 45 -4 6 -28 20 -53 31 -25 11 -57 31 -70 44 -14 14 -47 32 -75
40 -27 8 -69 26 -92 40 -23 13 -64 29 -91 35 -27 6 -75 22 -107 36 -33 14 -96
32 -140 40 -90 16 -184 40 -234 61 -59 24 -38 72 44 103 57 21 135 67 222 132
78 58 137 129 186 224 l47 92 1 124 c2 115 0 126 -24 173 -14 28 -34 73 -43
102 -9 28 -24 57 -32 64 -9 7 -25 31 -36 53 -22 45 -186 208 -233 233 -16 9
-46 28 -65 43 -19 15 -53 33 -75 40 -22 7 -55 23 -72 37 -19 14 -67 32 -115
42 -46 10 -103 28 -128 39 -60 26 -138 42 -205 42 -84 0 -99 25 -69 114 16 46
16 51 -7 127 l-24 79 -80 0 -80 -1 -27 -59z m22 -500 c13 -13 20 -33 20 -59 0
-71 -65 -124 -171 -140 -128 -20 -289 -58 -306 -73 -10 -9 -40 -27 -68 -41
-56 -29 -150 -116 -180 -168 -34 -57 -98 -49 -178 22 -89 78 -86 152 11 244
31 30 62 55 68 55 7 0 35 16 63 35 28 19 74 40 103 46 29 6 74 22 100 35 56
28 152 44 333 54 72 4 142 8 158 8 15 1 35 -6 47 -18z m452 -387 c42 -17 105
-50 140 -74 52 -37 69 -55 97 -111 l33 -67 -18 -56 c-38 -123 -186 -231 -359
-262 -124 -23 -286 -27 -396 -10 -124 19 -274 82 -344 144 -135 121 -110 221
97 384 35 28 78 44 145 54 46 7 63 -4 94 -62 21 -38 81 -67 146 -67 42 -1 59
5 94 29 24 17 50 44 59 60 39 78 38 77 88 72 26 -2 82 -18 124 -34z m-503
-1230 c49 -40 98 -361 72 -461 -18 -64 -35 -73 -173 -87 -78 -9 -141 -21 -172
-34 -27 -12 -85 -27 -130 -35 -44 -7 -110 -25 -146 -40 -36 -15 -87 -35 -115
-43 -27 -9 -66 -28 -85 -43 -19 -15 -46 -33 -60 -40 -49 -24 -139 -128 -150
-173 -7 -23 -18 -65 -26 -94 -14 -49 -14 -56 13 -154 20 -76 35 -112 60 -141
18 -22 33 -44 33 -48 0 -10 89 -77 143 -108 22 -13 53 -33 68 -46 15 -13 45
-27 65 -31 21 -3 60 -18 88 -32 29 -15 111 -38 196 -55 80 -16 151 -35 158
-42 11 -11 6 -19 -30 -49 -24 -19 -68 -47 -98 -61 -30 -14 -81 -47 -113 -72
-47 -38 -66 -62 -102 -135 -61 -120 -86 -131 -168 -79 -27 17 -69 35 -95 41
-26 5 -67 23 -92 39 -25 15 -65 34 -90 40 -25 7 -60 23 -78 37 -19 14 -57 37
-85 52 -98 51 -152 85 -232 145 -97 73 -226 200 -250 247 -10 19 -33 53 -51
77 -18 23 -35 61 -39 84 -4 22 -14 56 -21 74 -24 56 -18 209 11 309 25 86 38
118 60 145 6 8 18 31 25 50 7 19 25 49 40 65 16 17 37 48 48 70 11 22 70 87
130 145 124 118 162 150 212 175 19 9 49 30 65 45 17 15 53 35 80 44 28 9 67
27 87 41 20 14 63 31 95 39 32 7 82 25 111 41 35 18 79 30 135 37 45 5 107 19
137 30 70 25 217 45 346 47 83 1 106 -2 123 -16z m646 -7 c70 -19 214 -46 322
-61 58 -8 105 -20 129 -34 20 -12 72 -30 115 -40 44 -10 96 -30 117 -44 20
-14 55 -31 77 -38 22 -6 62 -27 89 -46 26 -18 53 -33 58 -33 20 0 146 -116
246 -225 25 -27 48 -65 99 -165 14 -28 18 -60 18 -160 l0 -125 -49 -95 c-55
-105 -103 -166 -152 -193 -19 -9 -38 -26 -44 -36 -5 -11 -35 -29 -66 -40 -31
-12 -70 -32 -87 -45 -18 -14 -54 -30 -82 -37 -27 -6 -73 -24 -101 -40 -31 -17
-79 -33 -125 -40 -40 -6 -121 -24 -179 -40 -78 -22 -145 -32 -265 -41 -325
-23 -745 -11 -900 26 -176 42 -295 75 -325 91 -18 9 -58 26 -88 36 -73 25
-211 142 -246 209 -21 39 -28 104 -17 147 13 49 82 117 139 137 24 9 55 24 68
35 14 11 49 24 77 29 117 22 194 31 212 26 11 -3 47 3 80 13 50 16 78 18 170
12 61 -4 127 -11 147 -14 34 -7 41 -3 92 41 31 26 68 66 82 88 l27 40 -25 45
c-38 68 -78 193 -78 242 0 24 5 70 11 103 48 273 45 261 67 282 14 15 35 16
177 10 88 -3 183 -12 210 -20z m-147 -1817 c34 -6 78 -22 98 -35 19 -13 50
-30 67 -38 37 -15 102 -78 123 -119 22 -41 10 -74 -49 -139 -48 -52 -58 -58
-132 -78 -44 -12 -114 -31 -156 -42 -94 -25 -136 -19 -187 26 -83 73 -108 80
-187 46 -26 -11 -69 -20 -96 -20 -47 0 -54 4 -104 50 -29 28 -59 65 -66 82
-11 28 -10 36 16 85 31 60 49 76 146 133 90 53 185 71 344 65 66 -2 148 -9
183 -16z m-827 -413 c11 -19 35 -44 54 -54 18 -11 39 -33 47 -49 10 -21 24
-31 61 -40 26 -6 63 -24 82 -40 18 -15 44 -35 56 -44 15 -10 20 -21 16 -32
-10 -27 -44 -20 -67 13 -19 27 -27 30 -72 30 -44 0 -56 5 -89 35 -22 19 -43
35 -48 35 -20 0 -101 112 -101 139 0 53 32 56 61 7z m703 -481 c36 -8 80 -24
98 -34 18 -11 63 -27 101 -35 37 -9 89 -26 115 -40 26 -13 65 -29 87 -36 87
-28 280 -155 346 -229 66 -74 79 -106 79 -189 0 -64 -3 -72 -35 -113 -19 -24
-35 -49 -35 -55 0 -6 -27 -39 -60 -75 -51 -54 -62 -62 -77 -53 -15 10 -18 28
-19 125 0 130 -8 155 -79 254 -48 67 -154 152 -231 185 -24 11 -56 29 -72 40
-16 12 -71 32 -123 45 -124 32 -251 81 -266 102 -23 30 -11 94 21 115 18 12
80 9 150 -7z m-329 -262 c11 -11 15 -26 11 -47 -2 -17 -8 -50 -11 -73 -9 -57
-37 -77 -125 -92 -39 -6 -82 -18 -94 -26 -13 -9 -52 -27 -87 -40 -87 -35 -189
-134 -231 -225 -28 -62 -29 -69 -23 -160 3 -52 2 -101 -3 -109 -16 -23 -113 6
-173 51 -28 21 -56 38 -63 38 -24 0 -107 97 -126 148 -37 97 -22 178 48 259
94 107 262 204 407 233 33 7 76 19 95 26 50 20 139 31 257 33 82 1 105 -2 118
-16z m282 -24 c15 -6 64 -18 108 -26 53 -9 90 -22 112 -39 18 -14 52 -32 75
-40 24 -8 54 -25 68 -38 14 -13 39 -31 56 -41 29 -16 66 -65 108 -142 26 -49
33 -151 12 -191 -27 -52 -52 -41 -76 33 -19 58 -68 120 -120 150 -25 14 -60
37 -77 49 -18 13 -50 27 -70 31 -21 4 -67 19 -103 35 -36 16 -86 31 -112 35
-26 4 -54 15 -63 25 -22 24 -33 134 -15 155 15 18 57 19 97 4z m79 -458 c23
-11 66 -26 96 -35 79 -24 178 -125 178 -182 0 -49 -85 -98 -223 -129 -78 -17
-140 -19 -166 -5 -10 5 -35 26 -55 46 l-36 36 -81 -4 c-86 -3 -86 -3 -140 -80
-15 -21 -24 -23 -87 -21 -84 2 -105 12 -165 81 -40 45 -47 59 -47 94 0 37 5
47 51 89 29 26 63 52 78 57 14 6 53 19 86 30 33 11 74 26 92 33 25 10 45 11
95 1 52 -10 73 -9 118 3 66 17 147 12 206 -14z"/>
</g>
</svg>
