<?xml version="1.0" standalone="no"?>
<!DOCTYPE svg PUBLIC "-//W3C//DTD SVG 20010904//EN"
 "http://www.w3.org/TR/2001/REC-SVG-20010904/DTD/svg10.dtd">
<svg version="1.0" xmlns="http://www.w3.org/2000/svg"
 width="400.000000pt" height="576.000000pt" viewBox="0 0 400.000000 576.000000"
 preserveAspectRatio="xMidYMid meet">
<metadata>
Created by potrace 1.16, written by Peter Selinger 2001-2019
</metadata>
<rect x="0" y="0" width="400" height="576" fill="#ffffff"/>
<g transform="translate(0.000000,576.000000) scale(0.100000,-0.100000)"
fill="#000000" stroke="none">
<path d="M1969 5724 c-13 -14 -41 -34 -61 -45 -47 -24 -68 -54 -68 -100 0 -39
29 -138 54 -188 21 -41 21 -88 -1 -99 -10 -5 -47 -12 -83 -16 -134 -12 -216
-25 -265 -41 -27 -8 -101 -25 -163 -36 -63 -11 -135 -30 -160 -43 -26 -13 -74
-29 -107 -36 -33 -6 -76 -23 -97 -37 -20 -13 -58 -31 -84 -39 -27 -8 -64 -25
-84 -39 -19 -13 -55 -33 -80 -43 -25 -11 -54 -30 -65 -42 -11 -12 -40 -31 -64
-42 -25 -10 -63 -34 -85 -53 -121 -102 -147 -127 -216 -203 -41 -45 -91 -106
-112 -135 -51 -73 -145 -264 -154 -312 -5 -26 -18 -51 -40 -72 l-34 -32 0
-210 0 -210 29 -15 c29 -15 42 -40 61 -112 10 -40 25 -64 112 -173 56 -70 100
-114 179 -179 35 -29 80 -66 100 -82 20 -17 56 -37 80 -45 24 -9 57 -29 74
-44 16 -16 48 -34 70 -41 21 -7 57 -26 79 -41 21 -16 44 -29 50 -29 6 0 44
-16 84 -35 40 -19 99 -42 130 -51 31 -9 75 -27 98 -40 23 -13 64 -31 91 -39
63 -19 80 -38 109 -125 16 -50 36 -86 71 -125 61 -70 167 -150 218 -164 22 -6
59 -24 82 -40 29 -19 60 -30 101 -35 69 -8 87 -23 108 -92 19 -64 18 -100 -4
-122 -16 -16 -43 -20 -175 -26 -85 -4 -179 -13 -209 -21 -29 -8 -102 -26 -162
-40 -59 -14 -138 -41 -175 -59 -36 -18 -77 -37 -91 -41 -28 -9 -139 -96 -187
-146 -54 -58 -103 -140 -114 -191 -6 -27 -9 -89 -7 -138 2 -74 7 -93 26 -117
12 -15 34 -51 48 -80 31 -63 152 -175 221 -205 15 -7 46 -25 68 -40 22 -15 63
-34 90 -42 28 -8 78 -26 111 -40 41 -17 96 -29 165 -37 57 -6 125 -17 150 -25
25 -8 78 -14 118 -13 65 1 76 -1 97 -22 51 -52 53 -286 4 -467 -32 -115 -28
-138 26 -189 26 -24 56 -43 67 -43 23 0 118 53 138 76 20 24 13 86 -16 144
-21 41 -28 76 -37 173 -11 136 -6 254 13 285 21 34 78 53 213 74 86 12 152 29
195 47 36 16 82 32 101 36 19 4 60 21 90 40 30 18 72 38 93 45 21 6 50 22 65
34 15 13 40 30 55 38 42 21 207 188 223 224 7 17 20 37 29 44 24 20 42 59 50
110 3 25 14 68 22 96 15 50 15 55 -10 144 -23 81 -33 99 -84 157 -100 114
-292 238 -429 278 -32 9 -77 26 -99 38 -22 11 -89 33 -150 48 -60 15 -137 36
-170 48 -33 11 -81 23 -107 26 -45 6 -78 25 -78 45 0 32 99 70 181 70 27 0 68
7 91 15 24 8 66 19 95 25 28 6 66 22 84 36 18 13 53 34 77 45 53 26 145 137
161 194 16 59 13 142 -6 183 -19 41 -115 140 -153 159 -14 7 -51 22 -83 34
-64 23 -72 43 -27 66 47 24 183 74 229 84 25 5 64 22 86 38 22 15 58 34 80 41
73 24 245 171 280 240 10 19 30 49 46 67 18 21 31 52 39 90 22 118 45 140 174
167 37 7 83 25 104 38 20 14 60 33 89 42 28 9 57 24 64 32 7 9 31 25 53 36 58
29 143 120 157 169 7 22 27 53 46 69 l33 29 0 113 0 113 -28 16 c-20 11 -35
34 -51 78 -20 55 -37 77 -140 179 -138 138 -190 182 -251 209 -25 11 -51 27
-58 36 -8 9 -37 23 -65 33 -29 9 -65 26 -82 39 -16 12 -64 32 -105 44 -41 13
-91 31 -111 42 -20 10 -86 27 -145 38 -60 11 -150 31 -201 45 -97 26 -334 48
-505 46 -56 -1 -99 4 -122 14 -33 14 -36 18 -36 56 0 23 10 61 24 88 52 104
44 180 -27 224 -23 15 -53 39 -67 53 -29 31 -31 31 -61 -1z m490 -710 c53 -8
143 -24 201 -34 58 -10 130 -21 160 -24 31 -3 89 -17 130 -31 41 -14 107 -33
145 -41 39 -9 93 -28 120 -43 28 -16 73 -36 102 -45 28 -9 57 -24 64 -32 7 -9
35 -27 63 -41 28 -14 68 -40 89 -57 78 -62 200 -192 218 -231 22 -47 24 -123
5 -168 -18 -42 -140 -164 -191 -189 -22 -11 -53 -30 -70 -43 -38 -28 -157 -68
-178 -59 -9 3 -24 27 -34 52 -9 26 -39 76 -66 112 -50 66 -171 180 -192 180
-6 0 -29 15 -51 33 -21 19 -56 39 -76 46 -20 7 -52 23 -71 35 -39 27 -81 41
-147 51 -25 4 -68 16 -95 26 -75 28 -209 49 -316 49 -91 0 -96 1 -121 28 -43
45 -69 139 -75 277 -6 116 -5 123 16 144 19 19 31 21 148 21 70 0 170 -7 222
-16z m-547 -31 c19 -17 20 -25 13 -133 -6 -95 -12 -127 -37 -187 -17 -40 -38
-79 -48 -88 -9 -9 -46 -20 -81 -26 -127 -20 -377 -87 -420 -112 -24 -14 -64
-31 -89 -37 -25 -6 -67 -26 -95 -44 -27 -18 -61 -40 -75 -48 -54 -33 -173
-154 -221 -226 -69 -102 -87 -186 -71 -320 12 -95 21 -118 90 -225 36 -56 128
-143 214 -202 64 -44 217 -120 274 -135 27 -7 66 -22 87 -32 20 -10 74 -25
118 -33 73 -12 119 -34 119 -56 0 -18 -33 -38 -72 -44 -50 -8 -169 -84 -188
-120 -14 -26 -66 -55 -99 -55 -38 0 -161 38 -190 60 -17 11 -49 27 -72 35 -24
9 -64 28 -89 44 -25 16 -62 34 -83 41 -21 6 -60 27 -88 46 -28 19 -56 34 -63
34 -6 0 -27 13 -46 29 -19 15 -54 38 -77 50 -23 11 -47 30 -53 41 -6 11 -23
26 -38 34 -43 22 -191 174 -214 220 -11 22 -31 55 -44 72 -13 17 -30 62 -39
103 -8 40 -20 81 -25 91 -16 30 -12 87 16 210 16 74 34 126 49 146 13 16 31
48 40 70 9 21 27 50 39 64 13 14 33 43 45 65 32 60 99 139 164 192 31 27 73
62 93 78 20 17 60 44 88 60 29 17 68 39 85 50 111 68 162 94 201 105 25 6 70
24 100 39 30 16 71 32 90 35 19 4 82 23 140 41 98 32 161 44 335 65 39 5 81
13 95 19 34 15 97 7 122 -16z m-118 -593 c18 -6 34 -27 51 -65 29 -66 63 -85
150 -85 78 0 118 20 160 79 20 27 45 53 56 56 21 7 103 -9 154 -31 17 -7 56
-17 88 -23 32 -6 72 -20 88 -32 16 -11 57 -32 91 -45 34 -13 71 -32 82 -43 12
-10 35 -25 51 -34 17 -8 65 -50 108 -93 65 -65 80 -86 93 -132 9 -31 25 -69
35 -86 27 -45 24 -78 -17 -163 -47 -96 -152 -201 -254 -253 -24 -13 -60 -33
-80 -46 -19 -12 -62 -30 -95 -38 -33 -9 -81 -26 -107 -40 -35 -17 -76 -26
-165 -35 -65 -6 -152 -17 -193 -23 -109 -17 -270 -10 -475 22 -222 34 -504
176 -606 305 -51 64 -99 173 -99 223 0 50 24 140 50 192 19 37 119 137 183
184 63 46 225 125 290 141 34 9 91 25 127 37 55 18 126 32 192 37 9 0 28 -3
42 -9z m546 -1364 c30 -8 75 -26 100 -39 25 -14 60 -28 79 -32 37 -8 101 -66
126 -115 35 -68 -20 -174 -103 -201 -20 -6 -55 -21 -77 -34 -46 -26 -145 -45
-233 -45 -57 0 -65 3 -100 35 -21 19 -51 39 -66 45 -39 14 -101 12 -143 -5
-19 -8 -47 -15 -62 -15 -42 1 -103 34 -143 78 -32 36 -38 49 -38 87 0 42 5 51
53 102 50 53 99 82 227 134 58 23 297 27 380 5z m-832 -358 c7 -7 12 -21 12
-32 0 -10 19 -36 42 -57 22 -21 46 -49 52 -61 7 -14 28 -27 58 -36 31 -8 54
-23 68 -42 14 -20 33 -31 58 -35 78 -13 106 -41 63 -65 -36 -19 -72 -11 -102
21 -21 22 -44 34 -76 40 -30 6 -59 20 -78 38 -16 16 -39 33 -51 39 -36 19
-104 116 -104 148 0 31 15 54 35 54 6 0 16 -5 23 -12z m723 -543 c35 -14 105
-37 156 -50 51 -13 114 -35 140 -48 26 -13 62 -27 78 -31 17 -4 50 -20 75 -35
25 -15 59 -32 75 -38 47 -16 175 -106 227 -160 49 -50 87 -136 88 -198 0 -42
-35 -129 -73 -181 -18 -24 -40 -55 -50 -68 -20 -29 -82 -45 -100 -27 -8 8 -11
43 -10 99 3 126 -21 192 -103 286 -61 70 -201 176 -232 176 -8 0 -43 15 -76
34 -42 23 -98 42 -179 59 -125 26 -163 44 -177 81 -10 26 2 89 20 111 18 22
68 18 141 -10z m-337 -256 c23 -18 26 -27 26 -84 0 -95 -14 -107 -180 -156
-74 -21 -146 -48 -160 -59 -14 -11 -45 -31 -70 -44 -30 -16 -58 -42 -80 -77
-74 -111 -75 -114 -75 -239 0 -63 -4 -121 -8 -127 -12 -18 -35 -16 -65 6 -15
10 -45 24 -67 31 -60 20 -141 87 -215 181 -32 40 -35 49 -35 109 0 61 3 69 45
130 24 35 61 79 82 98 55 50 166 120 202 127 17 4 49 17 72 30 25 15 78 30
140 40 54 9 119 21 144 27 25 7 79 15 120 18 41 4 80 7 86 8 6 1 23 -7 38 -19z
m335 -35 c51 -9 107 -27 137 -44 28 -16 69 -33 91 -39 22 -6 57 -25 78 -41 21
-17 42 -30 47 -30 22 0 119 -118 134 -164 9 -26 23 -60 30 -75 32 -60 7 -106
-54 -99 -19 2 -32 13 -44 37 -22 43 -112 138 -141 147 -12 4 -40 19 -62 35
-27 19 -75 36 -149 54 -114 26 -162 49 -196 92 -22 28 -27 91 -10 124 13 23
29 24 139 3z m46 -458 c107 -27 137 -40 193 -82 65 -50 87 -89 78 -138 -9 -47
-67 -91 -139 -105 -191 -37 -233 -33 -303 28 -64 57 -155 53 -214 -7 -20 -20
-45 -49 -55 -63 -30 -40 -56 -43 -101 -13 -21 15 -54 32 -73 39 -48 16 -126
115 -117 148 6 25 68 92 128 139 49 38 168 63 283 60 50 -2 101 1 115 7 33 14
119 8 205 -13z"/>
</g>
</svg>
