<?xml version="1.0" standalone="no"?>
<!DOCTYPE svg PUBLIC "-//W3C//DTD SVG 20010904//EN"
 "http://www.w3.org/TR/2001/REC-SVG-20010904/DTD/svg10.dtd">
<svg version="1.0" xmlns="http://www.w3.org/2000/svg"
 width="400.000000pt" height="512.000000pt" viewBox="0 0 400.000000 512.000000"
 preserveAspectRatio="xMidYMid meet">
<metadata>
Created by potrace 1.16, written by Peter Selinger 2001-2019
</metadata>
<rect x="0" y="0" width="400" height="512" fill="#ffffff"/>
<g transform="translate(0.000000,512.000000) scale(0.100000,-0.100000)"
fill="#000000" stroke="none">
<path d="M1919 5093 c0 -16 -8 -48 -18 -73 -17 -40 -17 -48 -4 -85 8 -22 21
-71 28 -110 7 -38 16 -83 20 -100 4 -19 1 -37 -7 -48 -15 -20 -38 -23 -278
-46 -58 -5 -141 -21 -185 -35 -44 -14 -100 -28 -125 -32 -58 -8 -152 -36 -210
-63 -25 -11 -54 -21 -66 -21 -12 0 -47 -14 -79 -31 -32 -17 -80 -38 -106 -45
-27 -8 -61 -25 -76 -38 -15 -13 -47 -33 -71 -45 -24 -12 -64 -37 -90 -56 -26
-19 -67 -49 -92 -67 -50 -37 -229 -214 -276 -274 -17 -22 -41 -58 -52 -81 -12
-23 -26 -44 -32 -48 -5 -3 -31 -47 -56 -98 -37 -73 -52 -120 -75 -232 -32
-156 -38 -288 -15 -333 7 -15 21 -60 30 -101 17 -73 59 -155 121 -235 36 -46
219 -227 243 -240 9 -5 34 -24 55 -43 20 -18 43 -33 51 -33 8 0 33 -15 55 -34
23 -19 58 -40 79 -46 20 -7 52 -23 70 -37 18 -13 54 -32 80 -40 26 -9 66 -29
90 -44 23 -15 59 -30 80 -34 20 -3 62 -19 93 -35 31 -16 90 -38 130 -50 41
-12 88 -31 106 -41 17 -11 60 -26 95 -33 35 -8 111 -30 169 -50 59 -20 115
-36 126 -36 11 0 59 -13 107 -30 48 -16 116 -34 149 -41 151 -27 522 -157 603
-210 22 -14 54 -31 72 -37 18 -6 50 -24 70 -40 20 -16 51 -36 68 -45 38 -20
199 -178 218 -215 8 -15 21 -53 29 -84 20 -78 2 -163 -55 -260 -46 -77 -180
-218 -231 -244 -18 -9 -43 -26 -57 -39 -14 -12 -50 -31 -80 -40 -30 -10 -67
-27 -82 -38 -15 -11 -66 -28 -115 -38 -48 -11 -111 -28 -139 -40 -35 -14 -68
-19 -105 -17 -48 3 -55 6 -63 30 -8 23 -4 39 19 89 37 77 64 99 122 99 60 0
277 84 323 125 19 17 50 37 67 44 23 9 50 39 90 99 l58 86 0 90 c0 89 -1 92
-45 171 -39 68 -55 86 -110 123 -141 92 -276 146 -435 173 -105 17 -415 6
-530 -19 -120 -27 -247 -87 -323 -153 -52 -46 -142 -178 -142 -211 0 -31 -44
-66 -130 -104 -164 -73 -240 -169 -240 -303 0 -94 33 -158 131 -258 46 -47
104 -96 129 -109 25 -14 60 -36 79 -49 19 -14 44 -25 57 -25 12 0 52 -16 87
-35 39 -20 87 -37 119 -40 29 -4 105 -21 168 -37 85 -23 135 -31 193 -30 65 1
81 -2 97 -18 27 -27 25 -53 -6 -115 l-26 -51 21 -47 c12 -26 24 -61 28 -77 l6
-30 117 0 118 0 5 30 c4 16 16 50 27 74 25 56 25 66 -1 110 -25 42 -28 92 -6
113 16 16 174 55 302 74 43 7 91 22 123 40 28 16 75 34 102 40 28 6 63 21 78
34 15 12 50 34 78 48 27 14 56 33 64 42 7 9 30 25 49 36 20 10 58 42 84 71 56
61 147 186 147 201 0 6 13 31 29 56 35 55 51 137 51 267 0 113 -14 191 -40
224 -11 14 -30 43 -41 65 -22 41 -140 165 -158 165 -5 0 -28 15 -50 34 -23 19
-51 38 -64 42 -12 3 -37 17 -55 31 -17 13 -56 32 -86 43 -29 10 -71 29 -92 43
-22 14 -65 30 -96 37 -31 6 -94 27 -140 45 -46 19 -97 35 -115 35 -17 0 -80
15 -140 34 -59 19 -140 39 -178 45 -39 6 -97 20 -130 31 -33 12 -94 29 -135
39 -110 27 -303 89 -395 126 -44 19 -100 39 -125 45 -25 6 -65 24 -90 40 -25
15 -62 33 -83 39 -21 5 -54 22 -74 37 -19 14 -56 33 -81 41 -26 7 -63 26 -82
42 -20 15 -54 38 -76 49 -22 11 -46 28 -54 37 -7 9 -27 23 -44 32 -71 37 -241
194 -268 248 -11 22 -33 54 -48 70 -16 17 -34 50 -40 75 -7 25 -21 61 -33 80
-17 27 -22 55 -25 130 -4 88 -2 103 25 171 17 41 36 97 42 126 7 28 22 60 33
70 12 10 31 41 44 70 13 28 28 54 34 58 6 3 28 30 49 58 54 73 173 192 210
211 17 9 35 25 40 35 6 10 26 26 45 35 19 9 48 28 64 41 16 14 51 34 78 45 27
12 60 32 74 45 14 13 47 29 75 35 27 6 69 24 92 39 26 18 70 34 111 41 37 7
90 25 118 41 38 21 79 33 160 45 60 8 141 26 179 39 39 13 105 26 148 29 68 5
79 4 97 -14 18 -18 20 -29 14 -108 -5 -76 -15 -123 -68 -307 -14 -49 -48 -67
-167 -89 -165 -29 -265 -55 -349 -90 -47 -20 -92 -36 -101 -36 -8 0 -31 -12
-50 -26 -19 -14 -48 -31 -65 -39 -47 -19 -171 -124 -235 -197 -82 -93 -120
-186 -126 -309 -5 -95 -5 -97 35 -187 22 -49 63 -119 91 -155 47 -59 158 -153
220 -185 14 -8 51 -29 81 -47 30 -18 82 -40 115 -50 32 -9 80 -27 105 -40 26
-13 90 -30 150 -39 58 -9 148 -25 200 -36 131 -26 426 -30 525 -7 91 21 174
36 258 47 43 6 94 23 139 45 40 19 82 35 94 35 11 0 39 12 60 27 21 14 62 36
89 48 32 15 89 60 162 129 91 87 116 117 132 159 32 86 81 176 104 192 12 8
31 15 42 15 12 0 36 11 55 25 18 13 61 34 96 45 34 12 68 28 75 36 7 9 38 28
68 44 65 32 177 144 210 208 12 24 33 47 46 52 25 9 25 10 25 142 0 122 -2
134 -20 146 -11 6 -35 43 -54 80 -37 74 -157 203 -231 250 -22 14 -55 38 -73
53 -18 16 -38 29 -44 29 -5 0 -31 15 -57 34 -25 18 -64 39 -86 46 -22 7 -56
23 -76 35 -20 13 -60 31 -90 39 -29 9 -87 29 -129 45 -41 16 -107 34 -145 40
-39 6 -97 20 -130 31 -89 31 -247 50 -483 58 -229 8 -242 11 -242 66 0 45 37
217 50 230 15 15 12 48 -10 91 -11 22 -20 50 -20 62 0 23 -2 23 -120 23 l-120
0 -1 -27z m601 -613 c188 -12 285 -24 338 -44 23 -8 89 -24 146 -35 57 -11
126 -31 152 -44 27 -14 65 -28 84 -32 19 -3 60 -22 90 -40 30 -18 72 -37 92
-43 21 -6 55 -24 75 -41 21 -17 43 -31 49 -31 7 0 32 -19 58 -42 25 -24 65
-59 89 -80 23 -20 65 -69 92 -109 47 -68 50 -78 53 -144 3 -53 0 -80 -13 -104
-23 -45 -130 -148 -179 -173 -22 -11 -52 -29 -64 -39 -13 -10 -62 -30 -108
-44 l-85 -26 -34 21 c-22 14 -43 41 -61 78 -31 64 -196 232 -249 254 -16 6
-43 22 -60 34 -28 20 -75 42 -210 96 -27 11 -77 24 -110 29 -33 6 -89 19 -125
30 -41 13 -114 23 -195 29 -71 4 -137 11 -146 14 -18 8 -39 47 -39 72 0 9 -11
48 -24 87 -29 86 -50 254 -37 290 15 38 108 60 216 51 33 -3 125 -9 205 -14z
m-680 -679 c8 -10 30 -39 47 -65 40 -57 62 -66 165 -66 l80 0 58 59 c64 65 90
74 147 55 21 -8 65 -19 98 -25 33 -6 79 -21 102 -34 23 -13 66 -31 95 -40 29
-10 67 -28 83 -40 17 -12 46 -30 65 -40 85 -44 216 -190 249 -278 17 -44 24
-149 13 -189 -19 -70 -164 -225 -242 -259 -25 -11 -56 -31 -70 -44 -14 -13
-47 -30 -75 -38 -27 -8 -76 -27 -109 -41 -56 -26 -222 -59 -381 -76 -38 -4
-83 -12 -98 -19 -39 -15 -96 -14 -147 4 -23 8 -66 15 -95 15 -48 0 -185 23
-310 51 -65 15 -215 80 -257 112 -18 13 -43 28 -56 32 -36 11 -148 111 -176
157 -63 106 -68 124 -64 227 3 91 6 99 42 158 67 108 200 219 324 269 29 12
64 29 78 38 25 17 149 49 254 65 30 5 71 16 90 25 39 17 68 13 90 -13z m399
-2251 c10 -5 52 -14 92 -20 53 -8 90 -21 131 -46 31 -19 60 -34 65 -34 5 0 32
-24 61 -53 69 -70 85 -125 61 -210 -32 -117 -322 -277 -380 -211 -9 11 -19 41
-22 67 -4 39 -12 57 -43 89 -22 22 -53 47 -71 54 -41 18 -144 18 -186 1 -42
-18 -103 -87 -112 -126 -4 -18 -17 -38 -29 -46 -21 -14 -29 -13 -92 11 -69 26
-154 92 -182 142 -7 13 -16 55 -19 93 l-6 70 44 45 c24 25 61 54 81 65 20 10
53 30 73 44 21 13 53 27 74 31 20 3 70 15 111 24 83 21 318 27 349 10z m-1012
-486 c92 -112 146 -156 259 -210 71 -34 114 -47 190 -59 55 -8 114 -15 132
-15 46 0 83 -21 125 -73 45 -55 57 -85 46 -114 -12 -32 -44 -37 -203 -30 -112
5 -163 12 -246 36 -58 16 -130 34 -159 40 -30 7 -70 23 -88 37 -18 13 -51 31
-73 39 -55 20 -162 116 -189 171 -23 44 -23 47 -6 90 12 31 29 53 54 68 20 13
45 33 55 45 31 34 60 27 103 -25z"/>
</g>
</svg>
