<?xml version="1.0" standalone="no"?>
<!DOCTYPE svg PUBLIC "-//W3C//DTD SVG 20010904//EN"
 "http://www.w3.org/TR/2001/REC-SVG-20010904/DTD/svg10.dtd">
<svg version="1.0" xmlns="http://www.w3.org/2000/svg"
 width="408.000000pt" height="520.000000pt" viewBox="0 0 408.000000 520.000000"
 preserveAspectRatio="xMidYMid meet">
<metadata>
Created by potrace 1.16, written by Peter Selinger 2001-2019
</metadata>
<rect x="0" y="0" width="408" height="520" fill="#ffffff"/>
<g transform="translate(0.000000,520.000000) scale(0.100000,-0.100000)"
fill="#000000" stroke="none">
<path d="M1950 5183 c0 -10 -14 -38 -30 -63 -35 -52 -36 -68 -13 -133 16 -43
16 -51 2 -75 l-15 -27 -160 -7 c-143 -6 -171 -11 -248 -37 -48 -17 -115 -35
-149 -41 -34 -6 -78 -22 -97 -35 -19 -13 -56 -33 -81 -44 -78 -33 -264 -179
-275 -215 -3 -12 -20 -43 -37 -71 -30 -46 -32 -56 -32 -140 l0 -90 48 -62 c27
-35 52 -63 56 -63 4 0 25 -16 46 -35 28 -24 56 -38 95 -46 91 -18 116 -34 143
-93 40 -84 92 -159 136 -196 103 -88 106 -89 283 -161 87 -34 348 -52 523 -35
101 10 318 81 400 130 92 56 161 130 202 216 42 90 43 124 8 209 -35 84 -57
113 -141 181 -97 79 -225 138 -337 154 -97 15 -115 26 -168 105 -31 48 -37 87
-15 116 12 16 22 17 100 12 55 -5 117 -18 172 -37 46 -16 110 -34 141 -39 32
-6 71 -22 90 -37 18 -14 55 -32 81 -41 26 -8 63 -27 82 -42 19 -15 48 -35 64
-45 39 -25 136 -121 136 -135 0 -6 14 -26 32 -46 35 -41 88 -188 88 -246 0
-55 -36 -147 -80 -204 -71 -92 -235 -219 -319 -246 -20 -7 -52 -22 -72 -35
-20 -12 -56 -28 -80 -35 -24 -7 -81 -28 -127 -46 -55 -22 -113 -37 -170 -44
-80 -9 -181 -31 -292 -64 -25 -7 -101 -16 -168 -20 -92 -4 -142 -12 -195 -30
-40 -13 -121 -32 -182 -41 -74 -11 -128 -25 -165 -44 -30 -15 -82 -33 -115
-40 -33 -6 -76 -23 -97 -37 -20 -13 -58 -31 -85 -39 -26 -8 -66 -27 -88 -43
-22 -15 -57 -34 -77 -40 -21 -7 -56 -28 -79 -47 -22 -19 -47 -34 -55 -34 -8 0
-33 -17 -57 -38 -23 -22 -51 -44 -61 -49 -38 -21 -258 -249 -278 -288 -11 -22
-30 -51 -43 -65 -36 -41 -104 -175 -116 -230 -8 -38 -19 -57 -45 -78 l-34 -27
0 -237 c0 -193 3 -238 13 -238 23 0 48 -36 68 -95 30 -92 67 -143 205 -280
142 -142 200 -192 254 -220 19 -10 47 -28 62 -41 15 -12 49 -30 77 -39 27 -8
56 -24 66 -35 10 -11 46 -29 80 -40 34 -11 71 -30 80 -40 10 -11 48 -29 85
-40 37 -11 79 -29 94 -41 14 -11 56 -29 93 -39 38 -10 93 -30 123 -43 30 -13
73 -27 95 -31 22 -4 74 -21 115 -37 41 -17 109 -37 150 -45 120 -22 241 -67
263 -96 17 -23 18 -28 3 -89 -9 -35 -30 -91 -46 -124 -38 -78 -32 -103 32
-158 27 -23 56 -54 64 -69 12 -22 22 -28 49 -28 28 0 38 5 47 25 6 13 28 36
49 50 22 14 41 36 45 51 12 47 -4 160 -32 230 -14 37 -33 108 -40 157 -7 50
-20 97 -27 104 -7 7 -42 18 -78 24 -35 5 -104 23 -154 39 -49 16 -120 36 -158
44 -37 9 -85 25 -106 35 -21 11 -68 27 -104 35 -37 9 -93 29 -125 45 -31 15
-82 34 -111 40 -30 6 -70 23 -89 38 -19 14 -54 32 -78 39 -24 7 -60 25 -79 39
-19 15 -53 33 -77 40 -24 7 -67 29 -97 49 -29 20 -58 36 -65 36 -6 0 -27 13
-46 28 -19 16 -56 40 -82 55 -27 16 -48 32 -48 37 0 5 -17 20 -38 34 -56 36
-191 175 -218 226 -13 25 -33 57 -45 71 -36 45 -69 182 -69 285 0 51 5 105 11
121 5 15 17 59 25 96 9 44 24 81 39 99 14 17 32 47 41 66 22 53 88 135 186
232 98 96 162 151 198 170 14 7 41 25 60 40 19 15 56 35 82 43 26 9 62 27 80
40 18 14 53 30 78 37 25 6 61 22 82 35 20 13 78 35 130 48 51 13 119 34 151
46 31 12 111 27 176 35 65 8 128 19 139 25 11 6 43 11 70 11 27 0 69 7 92 15
62 22 578 22 640 0 23 -8 65 -15 92 -15 27 0 59 -5 70 -11 11 -6 74 -17 139
-25 65 -8 145 -23 176 -35 32 -12 97 -32 144 -44 47 -12 103 -34 125 -48 21
-14 58 -30 81 -37 23 -6 55 -21 71 -35 15 -13 53 -34 83 -48 41 -18 83 -53
172 -142 65 -65 127 -137 137 -159 11 -23 29 -55 40 -72 21 -33 55 -204 45
-233 -2 -9 -9 -47 -14 -84 -7 -48 -18 -79 -36 -103 -15 -19 -33 -55 -42 -81
-13 -36 -43 -73 -144 -175 -84 -84 -144 -136 -172 -148 -24 -11 -55 -28 -69
-39 -36 -29 -168 -93 -273 -134 -123 -47 -117 -46 -225 -67 -52 -11 -124 -27
-160 -35 -149 -37 -432 -49 -640 -27 -164 16 -426 69 -477 95 -15 8 -67 27
-114 41 -47 14 -100 37 -118 50 -19 14 -46 28 -61 31 -15 3 -45 21 -66 39 -22
18 -58 43 -80 54 -54 27 -269 244 -294 296 -11 23 -29 55 -40 72 -26 40 -44
177 -35 265 9 91 -6 125 -79 168 -52 31 -61 33 -114 27 -67 -8 -100 -28 -125
-79 -23 -45 -24 -76 -8 -197 9 -77 19 -110 51 -172 22 -43 40 -84 40 -92 0
-20 73 -108 171 -206 103 -102 160 -150 215 -178 22 -11 46 -27 53 -36 7 -8
38 -25 69 -36 30 -12 68 -32 83 -45 16 -13 52 -28 81 -34 29 -7 72 -23 96 -37
23 -14 75 -32 115 -40 40 -8 99 -23 132 -34 86 -28 201 -48 345 -60 69 -6 168
-16 220 -22 94 -10 123 -9 370 11 241 20 296 28 430 65 159 43 183 51 315 104
113 46 230 105 260 131 11 10 38 28 60 41 75 45 198 158 291 267 61 73 123
203 134 282 5 36 18 89 29 118 20 51 20 52 1 108 -11 32 -24 94 -30 139 -11
89 -63 205 -126 281 -113 135 -127 150 -269 269 -22 19 -65 45 -95 59 -30 13
-64 34 -74 46 -11 11 -25 21 -31 21 -7 0 -44 16 -81 35 -38 19 -105 44 -148
56 -44 11 -98 31 -120 44 -27 16 -71 28 -130 36 -50 6 -115 20 -145 31 -31 10
-83 21 -116 25 -60 6 -108 23 -120 43 -12 20 17 40 89 62 80 24 196 82 261
131 24 17 56 40 72 49 99 62 213 194 234 272 6 22 17 63 25 90 18 64 18 154
-1 208 -8 24 -19 67 -25 96 -7 29 -22 65 -35 80 -12 15 -32 48 -44 73 -24 51
-248 279 -274 279 -8 0 -34 16 -57 35 -23 19 -60 40 -83 46 -23 6 -62 23 -87
39 -25 15 -65 31 -89 35 -24 4 -81 20 -127 35 -46 16 -118 34 -161 41 -43 6
-86 16 -95 21 -22 11 -23 44 -2 94 23 56 13 106 -30 154 -20 22 -36 45 -36 50
0 6 -28 10 -65 10 -55 0 -65 -3 -65 -17z m-13 -549 c42 -27 19 -126 -44 -182
-21 -19 -32 -22 -68 -16 -24 3 -51 1 -63 -5 -11 -6 -64 -18 -119 -26 -67 -11
-109 -23 -133 -40 -19 -13 -55 -31 -80 -41 -53 -21 -128 -87 -188 -166 -54
-72 -79 -75 -145 -20 -62 51 -117 120 -117 145 0 11 12 38 26 58 32 47 131
134 164 144 14 4 38 18 53 31 15 13 47 29 70 35 23 6 74 21 112 34 109 37 200
55 278 56 40 1 83 5 97 10 34 11 130 2 157 -17z m422 -379 c111 -42 154 -68
213 -125 105 -102 109 -211 10 -309 -57 -56 -196 -128 -272 -140 -30 -5 -104
-17 -163 -27 -89 -15 -114 -16 -140 -6 -18 7 -77 17 -132 23 -94 10 -175 34
-189 57 -3 6 -28 18 -55 27 -36 11 -65 33 -109 79 -90 94 -92 132 -12 239 44
58 157 143 219 165 63 22 90 16 135 -31 50 -53 134 -107 166 -107 38 0 118 58
146 106 48 81 78 89 183 49z"/>
</g>
</svg>
