<?xml version="1.0" standalone="no"?>
<!DOCTYPE svg PUBLIC "-//W3C//DTD SVG 20010904//EN"
 "http://www.w3.org/TR/2001/REC-SVG-20010904/DTD/svg10.dtd">
<svg version="1.0" xmlns="http://www.w3.org/2000/svg"
 width="880.000000pt" height="528.000000pt" viewBox="0 0 880.000000 528.000000"
 preserveAspectRatio="xMidYMid meet">
<metadata>
Created by potrace 1.16, written by Peter Selinger 2001-2019
</metadata>
<rect x="0" y="0" width="880" height="528" fill="#ffffff"/>
<g transform="translate(0.000000,528.000000) scale(0.100000,-0.100000)"
fill="#000000" stroke="none">
<path d="M3735 5233 c-29 -81 -30 -111 -4 -162 20 -39 24 -68 31 -201 4 -85
12 -179 18 -209 5 -30 10 -192 10 -360 0 -279 -2 -310 -19 -348 -29 -63 -59
-78 -126 -65 -58 12 -75 9 -115 -18 -19 -14 -57 -19 -160 -25 -190 -10 -265
-21 -313 -49 -28 -16 -72 -28 -130 -35 -59 -8 -114 -23 -167 -46 -43 -19 -89
-35 -102 -35 -12 0 -52 -14 -88 -31 -36 -17 -87 -39 -115 -49 -27 -9 -72 -31
-99 -49 -28 -17 -55 -31 -61 -31 -5 0 -34 -16 -62 -35 -29 -19 -55 -35 -59
-35 -4 0 -33 -20 -63 -44 -31 -24 -71 -51 -89 -60 -53 -27 -279 -254 -329
-331 -26 -38 -54 -79 -64 -90 -9 -11 -22 -40 -29 -64 -19 -73 -89 -143 -189
-193 -47 -23 -103 -57 -124 -75 l-37 -33 -625 0 -625 0 0 -114 0 -113 68 -6
c37 -4 319 -7 628 -7 l560 0 30 -31 c16 -16 71 -51 122 -76 l93 -45 56 -112
c135 -272 305 -455 572 -619 25 -16 56 -38 68 -49 11 -11 41 -24 65 -29 25 -6
56 -23 75 -41 21 -20 48 -33 79 -39 27 -5 64 -22 84 -37 20 -17 63 -35 102
-45 37 -9 91 -27 121 -42 31 -14 90 -30 138 -36 59 -8 94 -19 121 -37 31 -20
61 -27 159 -39 90 -10 133 -20 167 -38 35 -19 62 -25 106 -25 55 0 61 -2 92
-37 40 -44 35 -40 96 -93 35 -31 59 -43 90 -47 67 -9 98 -28 98 -62 0 -15 -4
-41 -9 -57 -5 -16 -12 -176 -15 -356 l-6 -328 121 0 121 0 -7 379 c-8 378 -8
378 14 400 16 16 33 21 75 21 76 0 99 11 180 89 l71 69 135 7 c188 9 264 21
318 50 29 16 64 25 92 25 90 1 191 20 260 49 38 17 98 35 132 41 34 7 80 22
103 35 22 13 63 30 90 38 28 8 77 31 109 51 33 20 70 36 83 36 28 0 74 22 92
44 7 8 37 22 66 31 30 8 67 27 84 40 16 14 52 32 79 40 27 8 66 28 87 45 21
16 48 30 61 30 35 0 74 18 111 50 19 17 43 30 55 30 12 0 51 13 87 30 146 65
259 113 311 131 30 11 71 31 90 44 20 14 63 30 95 36 32 6 86 25 120 41 33 17
87 37 120 45 33 8 69 20 80 27 24 16 106 42 159 51 22 4 60 17 85 30 25 14 93
34 150 45 60 12 122 32 146 46 29 16 57 24 91 24 80 0 182 27 232 60 42 28 52
30 136 30 50 1 124 5 164 9 63 8 79 13 106 40 32 31 33 31 138 31 58 0 126 3
152 6 l46 7 0 113 0 114 -665 0 c-638 0 -666 1 -684 19 -10 10 -23 25 -27 33
-5 8 -29 26 -54 41 -104 61 -104 61 -271 60 l-157 -1 -93 -45 c-52 -25 -107
-59 -123 -76 -26 -27 -36 -31 -84 -31 -50 0 -58 4 -101 43 -65 57 -163 107
-215 107 -52 1 -73 13 -124 72 -27 32 -42 61 -47 90 -4 25 -18 54 -33 70 -14
15 -35 43 -46 61 -67 109 -176 233 -235 269 -20 12 -53 37 -74 55 -20 18 -41
33 -47 33 -5 0 -32 19 -59 43 -56 48 -131 96 -178 114 -18 6 -50 25 -70 42
-21 16 -56 33 -78 36 -22 4 -65 22 -97 41 -37 23 -76 37 -117 42 -38 6 -70 16
-84 29 -35 32 -57 40 -137 47 -45 4 -97 17 -128 31 -69 32 -140 44 -314 54
-99 6 -155 14 -183 26 -24 11 -80 21 -139 25 -93 6 -100 8 -120 34 -12 15 -36
43 -53 62 -18 19 -33 40 -34 47 0 7 -1 125 -1 263 0 212 3 256 16 283 30 57
49 241 50 476 l1 220 -121 3 -121 3 -18 -48z m13 -1500 c5 -10 12 -129 15
-264 8 -294 16 -275 -124 -290 -52 -6 -114 -20 -139 -31 -26 -11 -88 -24 -147
-30 -91 -10 -106 -14 -135 -40 -18 -16 -42 -31 -53 -33 -11 -2 -35 -6 -53 -9
-59 -10 -196 -102 -288 -194 -64 -65 -96 -106 -125 -163 -62 -125 -43 -119
-379 -119 l-288 0 -30 34 c-17 19 -49 45 -72 58 -23 13 -55 30 -71 40 -17 9
-62 19 -100 23 -75 8 -97 25 -83 68 9 31 104 170 167 244 59 71 262 253 281
253 7 0 32 14 55 31 67 48 363 196 426 213 31 8 74 27 95 41 27 19 59 29 107
35 38 5 107 23 153 40 63 24 113 34 195 41 61 5 134 14 164 19 30 6 80 10 111
10 31 0 80 9 110 20 74 26 195 28 208 3z m467 -33 c33 -5 118 -12 188 -16 119
-6 131 -9 173 -36 34 -23 63 -33 127 -40 61 -8 97 -19 142 -44 38 -21 82 -36
118 -40 44 -5 65 -14 95 -40 25 -21 55 -36 82 -40 26 -4 56 -19 76 -36 19 -17
55 -36 81 -44 26 -8 61 -28 78 -44 32 -31 68 -58 150 -114 28 -19 57 -42 65
-51 7 -9 31 -25 52 -36 21 -11 38 -23 38 -28 0 -5 16 -24 36 -43 20 -18 46
-54 60 -80 13 -26 28 -49 34 -53 6 -3 20 -25 31 -48 12 -23 34 -53 50 -68 27
-25 44 -79 37 -115 -2 -10 -39 -42 -82 -71 l-79 -53 -374 0 -374 0 -24 26
c-14 15 -25 32 -25 38 0 6 -11 34 -24 63 -29 61 -195 231 -253 258 -21 9 -53
29 -72 43 -18 13 -53 31 -78 38 -25 8 -69 27 -99 44 -42 25 -74 34 -146 42
-51 6 -125 21 -165 34 -39 13 -78 24 -87 24 -9 0 -24 8 -35 19 -17 17 -18 33
-14 232 3 118 9 229 15 247 16 52 40 56 203 32z m-5 -730 c87 -10 141 -24 201
-56 19 -9 55 -23 81 -30 49 -13 84 -38 221 -163 95 -86 113 -112 97 -141 -10
-19 -21 -20 -284 -20 l-274 0 -42 35 c-23 19 -58 39 -79 45 -20 5 -50 23 -65
39 -16 16 -41 35 -57 41 -43 18 -51 61 -29 160 24 106 31 114 95 106 27 -4 88
-11 135 -16z m-436 -6 c12 -12 16 -37 16 -112 0 -53 -4 -102 -8 -108 -10 -16
-42 -30 -83 -38 -19 -3 -50 -17 -69 -31 -18 -13 -57 -31 -85 -40 -29 -8 -59
-22 -66 -31 -30 -37 -73 -44 -261 -44 -267 0 -285 15 -164 138 42 42 76 80 76
84 0 4 21 13 46 19 25 7 63 26 84 44 25 21 55 35 83 39 26 4 53 16 63 27 30
34 69 49 126 50 29 0 71 4 93 8 69 15 132 12 149 -5z m4176 -629 c10 -12 10
-21 2 -40 -19 -41 -50 -52 -162 -58 -73 -3 -122 -11 -160 -26 -61 -24 -238
-71 -267 -71 -10 0 -37 -13 -60 -29 -28 -19 -61 -30 -100 -35 -32 -4 -87 -20
-123 -36 -36 -16 -89 -34 -118 -39 -29 -6 -79 -24 -111 -41 -33 -16 -81 -34
-106 -40 -26 -6 -75 -23 -108 -39 -34 -16 -87 -36 -117 -45 -30 -9 -75 -30
-100 -46 -25 -16 -55 -30 -67 -30 -34 0 -73 -18 -110 -50 -23 -20 -44 -30 -67
-30 -19 0 -64 -17 -107 -39 -41 -21 -87 -41 -104 -45 -16 -4 -54 -23 -85 -41
-30 -19 -72 -37 -93 -41 -20 -3 -52 -17 -70 -30 -43 -32 -65 -42 -109 -49 -20
-3 -55 -21 -77 -39 -29 -24 -53 -35 -91 -39 -31 -4 -75 -19 -108 -38 -41 -23
-81 -35 -145 -45 -66 -10 -100 -21 -133 -42 -39 -27 -55 -30 -156 -36 -144 -9
-277 -32 -331 -56 -31 -15 -65 -20 -131 -20 l-88 0 -85 77 -84 76 -82 7 c-83
7 -126 21 -128 43 -1 7 0 84 1 172 1 135 4 163 18 176 11 11 48 20 108 26 69
8 100 16 124 33 28 20 113 37 192 40 9 0 35 16 58 35 23 19 53 35 67 35 30 0
58 14 100 51 17 15 45 30 61 34 66 14 229 191 264 287 11 33 33 72 49 89 l27
29 357 0 c372 0 389 -2 425 -45 7 -8 59 -38 114 -65 l102 -50 148 0 c150 0
184 7 215 44 8 9 31 21 52 26 21 6 59 28 84 50 42 36 52 40 100 40 48 0 57 -3
87 -36 19 -20 73 -55 127 -81 l95 -46 165 7 164 7 75 47 c41 26 82 58 90 71
30 45 62 50 288 51 178 0 214 -2 224 -15z m-5318 -16 c29 -16 65 -59 78 -94
38 -100 81 -162 164 -236 60 -54 188 -134 249 -155 23 -8 58 -26 77 -39 20
-14 58 -27 90 -31 30 -4 93 -21 140 -37 74 -26 104 -31 228 -36 184 -8 184 -8
177 -148 -6 -100 -19 -170 -42 -215 -7 -16 -15 -28 -16 -28 -1 0 -32 -11 -68
-23 -68 -24 -90 -38 -181 -116 -48 -40 -54 -43 -98 -39 -26 3 -60 14 -76 25
-19 13 -52 23 -89 26 -176 15 -269 31 -365 62 -58 19 -136 39 -175 45 -47 8
-84 21 -114 41 -24 16 -52 29 -62 29 -27 0 -390 187 -424 219 -16 15 -48 40
-70 56 -52 37 -285 265 -285 278 0 6 -18 33 -39 61 -61 79 -84 150 -62 185 5
8 38 16 85 21 63 6 87 14 139 45 34 21 78 55 98 76 l37 39 292 0 c195 0 298
-4 312 -11z m832 -29 c26 -21 62 -42 80 -46 19 -3 59 -21 88 -40 45 -29 61
-34 114 -34 44 0 65 -5 75 -16 20 -25 22 -273 1 -296 -21 -24 -54 -23 -87 4
-28 22 -58 29 -210 48 -55 7 -102 21 -151 45 -39 19 -91 39 -115 44 -28 6 -53
20 -69 40 -14 16 -38 36 -55 44 -38 19 -175 163 -176 185 -2 29 3 47 14 54 7
4 110 8 229 8 l217 0 45 -40z m1346 25 c7 -9 10 -28 6 -48 -8 -41 -121 -162
-186 -199 -25 -14 -54 -35 -64 -47 -11 -12 -38 -26 -60 -32 -23 -6 -58 -22
-79 -36 -39 -27 -162 -52 -254 -53 -30 0 -50 -7 -74 -27 -40 -34 -94 -37 -119
-6 -15 19 -17 39 -13 145 l4 123 42 39 c23 21 62 49 87 61 25 13 52 35 60 50
8 15 24 31 35 36 11 4 151 8 311 8 247 1 293 -1 304 -14z"/>
</g>
</svg>
