<?xml version="1.0" standalone="no"?>
<!DOCTYPE svg PUBLIC "-//W3C//DTD SVG 20010904//EN"
 "http://www.w3.org/TR/2001/REC-SVG-20010904/DTD/svg10.dtd">
<svg version="1.0" xmlns="http://www.w3.org/2000/svg"
 width="976.000000pt" height="568.000000pt" viewBox="0 0 976.000000 568.000000"
 preserveAspectRatio="xMidYMid meet">
<metadata>
Created by potrace 1.16, written by Peter Selinger 2001-2019
</metadata>
<rect x="0" y="0" width="976" height="568" fill="#ffffff"/>
<g transform="translate(0.000000,568.000000) scale(0.100000,-0.100000)"
fill="#000000" stroke="none">
<path d="M4695 5633 c-29 -81 -30 -111 -4 -162 20 -39 24 -68 31 -201 4 -85
12 -179 18 -209 5 -30 10 -192 10 -360 0 -279 -2 -310 -19 -348 -29 -63 -59
-78 -126 -65 -58 12 -74 9 -115 -18 -18 -12 -57 -19 -135 -24 -92 -5 -119 -11
-173 -36 -44 -21 -80 -30 -114 -30 -32 0 -75 -10 -121 -30 -44 -18 -88 -29
-112 -28 -53 2 -133 -45 -160 -94 -14 -27 -35 -43 -85 -67 -36 -16 -74 -33
-85 -36 -20 -5 -122 -101 -179 -168 -17 -19 -35 -51 -40 -72 -9 -29 -24 -46
-71 -78 -46 -32 -66 -55 -86 -95 -14 -29 -40 -65 -57 -80 -28 -24 -33 -35 -41
-104 -7 -65 -14 -83 -42 -118 -33 -41 -34 -44 -31 -128 4 -137 125 -122 -997
-122 -531 0 -972 -4 -979 -8 -20 -14 -29 -63 -22 -131 11 -112 -93 -101 1004
-101 1022 0 965 3 999 -52 9 -14 26 -29 37 -33 11 -4 27 -20 36 -36 8 -16 26
-35 39 -41 14 -6 34 -26 45 -45 18 -31 23 -33 75 -33 53 0 56 -1 80 -40 24
-39 27 -40 80 -40 52 0 56 -2 80 -39 l26 -39 170 -4 170 -4 35 -37 35 -37 130
0 129 0 26 -41 26 -41 293 3 c230 3 297 1 307 -9 20 -20 20 -351 0 -374 -8
-10 -21 -18 -28 -18 -7 0 -28 -13 -47 -30 -37 -32 -76 -50 -110 -50 -12 0 -48
-18 -81 -40 -52 -36 -65 -40 -118 -40 -69 0 -108 -17 -139 -62 -45 -66 -71
-87 -115 -94 -52 -8 -61 -17 -73 -78 -6 -31 -19 -59 -39 -79 -20 -20 -35 -50
-42 -82 -7 -33 -22 -62 -43 -83 l-32 -33 -3 -169 -3 -169 35 -36 c32 -32 36
-42 36 -87 0 -77 19 -125 70 -178 37 -39 54 -48 93 -54 36 -6 59 -17 89 -44
l41 -37 251 -3 c153 -2 256 -8 264 -14 8 -8 12 -51 12 -154 l0 -144 80 0 80 0
0 143 c0 170 3 177 91 177 47 0 62 6 113 40 53 36 65 40 120 40 61 0 64 1 155
62 18 13 46 18 92 18 61 0 68 3 107 36 28 23 56 38 82 41 25 4 54 18 80 40 26
22 55 37 80 40 25 4 54 18 78 39 21 18 52 36 68 39 16 4 38 9 48 12 11 3 52
36 91 73 47 45 83 70 106 75 64 14 90 34 116 92 15 33 37 62 53 71 14 8 36 30
48 49 12 18 30 33 40 33 31 0 78 37 111 88 32 50 67 72 116 72 15 0 31 13 49
40 14 22 34 40 43 40 9 0 49 33 88 74 65 67 77 75 121 82 47 7 55 13 199 161
149 153 150 154 205 162 40 6 59 15 75 34 22 28 63 47 101 47 16 0 37 13 57
35 26 29 43 37 87 44 40 6 59 15 75 34 22 28 63 47 102 47 15 0 36 12 53 30
16 17 46 38 67 46 21 9 55 32 76 50 28 25 46 34 73 34 32 0 46 10 115 76 70
69 84 78 129 85 39 6 58 16 84 43 25 27 42 36 65 36 39 0 60 10 99 50 22 22
40 30 66 30 26 0 46 10 81 40 l46 40 174 0 175 0 17 28 c32 51 35 52 227 52
100 0 198 3 219 6 l37 7 0 113 0 114 -1106 0 -1106 0 -47 43 c-65 57 -163 107
-215 107 -52 1 -73 13 -124 72 -27 32 -42 61 -47 90 -4 25 -18 54 -33 70 -14
15 -35 43 -46 61 -45 73 -93 134 -145 183 l-54 52 32 55 c35 62 44 67 107 67
40 0 47 3 64 33 11 19 31 39 45 45 14 7 29 22 34 34 11 32 4 177 -10 194 -7 9
-32 14 -70 14 -55 0 -59 -2 -74 -30 -8 -16 -29 -37 -46 -45 -16 -9 -35 -27
-41 -41 -7 -14 -24 -32 -40 -40 -15 -8 -35 -28 -43 -44 -17 -33 -27 -36 -141
-45 l-80 -6 -50 39 c-27 22 -66 45 -86 51 -20 7 -42 19 -49 27 -18 22 -64 44
-92 44 -13 0 -32 9 -42 20 -15 17 -16 24 -7 45 6 14 18 25 26 25 8 0 27 15 43
34 15 18 38 39 50 45 13 6 30 25 38 42 9 16 27 34 41 39 30 12 47 54 40 98 -9
57 -18 62 -127 62 l-99 0 -19 -31 c-11 -17 -33 -39 -49 -49 -17 -10 -33 -28
-37 -39 -3 -12 -20 -28 -36 -36 -16 -9 -35 -28 -44 -44 -24 -48 -96 -66 -198
-51 -45 6 -104 21 -132 32 -80 33 -160 47 -320 57 -105 6 -162 14 -190 26 -24
11 -80 21 -139 25 -93 6 -100 8 -120 34 -12 15 -36 43 -53 62 -18 19 -33 40
-34 47 0 7 -1 125 -1 263 0 212 3 256 16 283 30 57 49 241 50 476 l1 220 -121
3 -121 3 -18 -48z m13 -1500 c5 -10 12 -129 15 -264 8 -294 16 -275 -124 -290
-52 -6 -114 -20 -139 -31 -26 -11 -88 -24 -147 -30 -91 -10 -106 -14 -135 -40
-18 -16 -42 -31 -53 -33 -11 -2 -35 -6 -53 -9 -59 -10 -196 -102 -288 -194
-64 -65 -96 -106 -125 -163 -60 -121 -55 -119 -293 -119 -267 0 -251 -12 -244
175 7 161 18 197 73 233 31 19 35 27 35 64 0 48 22 78 57 78 13 0 35 11 48 24
22 22 24 31 19 70 -7 45 -7 45 57 105 49 45 85 69 153 98 79 34 92 43 117 83
35 57 98 90 170 90 37 0 67 9 121 36 53 27 79 34 100 30 19 -4 47 1 76 14 68
29 168 50 237 50 35 0 84 8 115 20 74 26 195 28 208 3z m467 -33 c33 -5 118
-12 188 -16 119 -6 131 -9 173 -37 37 -24 63 -32 145 -42 66 -8 105 -17 116
-28 15 -15 13 -20 -21 -70 -21 -30 -49 -60 -62 -66 -13 -6 -28 -21 -33 -33
-11 -32 -4 -177 10 -194 7 -9 32 -14 70 -14 55 0 59 2 74 30 8 16 29 37 45 45
16 8 36 28 45 44 8 16 24 32 35 36 11 4 28 19 37 33 26 42 43 52 94 52 39 0
54 -6 87 -34 23 -18 60 -38 84 -44 27 -7 55 -24 76 -47 19 -19 40 -35 47 -35
7 0 23 -8 36 -18 l22 -19 -31 -55 c-17 -30 -43 -60 -56 -66 -14 -6 -32 -25
-41 -42 -9 -17 -27 -35 -41 -40 -30 -12 -47 -54 -40 -98 9 -57 18 -62 128 -62
l99 0 19 33 c11 19 31 39 45 45 13 6 31 25 39 41 17 31 31 39 81 41 51 3 55 1
74 -43 10 -23 29 -56 43 -72 14 -17 33 -46 43 -65 10 -19 30 -46 46 -61 27
-25 44 -79 37 -115 -2 -10 -39 -42 -82 -71 l-79 -53 -374 0 -374 0 -24 26
c-14 15 -25 32 -25 38 0 6 -11 34 -24 63 -29 61 -195 231 -253 258 -21 9 -53
29 -72 43 -18 13 -53 31 -78 38 -25 8 -69 27 -99 44 -42 25 -74 34 -146 42
-51 6 -125 21 -165 34 -39 13 -78 24 -87 24 -9 0 -24 8 -35 19 -17 17 -18 33
-14 232 3 118 9 229 15 247 16 52 40 56 203 32z m-5 -730 c87 -10 141 -24 201
-56 19 -9 55 -23 81 -30 49 -13 84 -38 221 -163 95 -86 113 -112 97 -141 -10
-19 -21 -20 -284 -20 l-274 0 -42 35 c-23 19 -58 39 -79 45 -20 5 -50 23 -65
39 -16 16 -41 35 -57 41 -43 18 -51 61 -29 160 24 106 31 114 95 106 27 -4 88
-11 135 -16z m-436 -6 c12 -12 16 -37 16 -112 0 -53 -4 -102 -8 -108 -10 -16
-42 -30 -83 -38 -19 -3 -50 -17 -69 -31 -18 -13 -57 -31 -85 -40 -29 -8 -59
-22 -66 -31 -30 -37 -73 -44 -261 -44 -267 0 -285 15 -164 138 42 42 76 80 76
84 0 4 21 13 46 19 25 7 63 26 84 44 25 21 55 35 83 39 26 4 53 16 63 27 30
34 69 49 126 50 29 0 71 4 93 8 69 15 132 12 149 -5z m3316 -625 c19 -5 98
-14 175 -19 126 -8 144 -7 194 11 54 19 134 25 165 13 16 -6 22 -50 8 -70 -11
-17 -48 -34 -75 -34 -13 0 -46 -16 -73 -35 -27 -19 -64 -38 -82 -41 -18 -4
-43 -19 -56 -35 -27 -31 -63 -49 -102 -49 -17 0 -31 -11 -49 -40 -14 -22 -32
-40 -41 -40 -14 0 -80 -63 -131 -124 -22 -26 -23 -26 -59 -11 -54 22 -62 19
-87 -32 -24 -51 -54 -73 -103 -73 -25 0 -36 -8 -58 -40 -26 -39 -27 -40 -86
-40 -54 0 -61 -3 -81 -30 -22 -29 -64 -50 -102 -50 -20 0 -95 -71 -136 -129
-12 -16 -29 -32 -39 -35 -10 -3 -26 -20 -36 -37 -10 -16 -28 -35 -39 -40 -12
-6 -32 -26 -45 -44 -12 -19 -27 -35 -33 -35 -7 0 -29 -15 -50 -34 -26 -24 -51
-37 -83 -41 -37 -6 -49 -13 -70 -45 -16 -24 -35 -39 -54 -43 -17 -3 -46 -20
-65 -37 -19 -16 -48 -33 -65 -36 -21 -4 -39 -19 -57 -45 -14 -22 -31 -39 -39
-39 -7 0 -25 -18 -40 -40 -14 -22 -33 -40 -42 -40 -32 0 -76 -33 -104 -78 -17
-26 -70 -87 -120 -137 -86 -86 -91 -89 -135 -90 -42 0 -50 -4 -84 -44 -35 -41
-42 -44 -94 -49 -46 -4 -64 -11 -97 -39 -26 -22 -55 -37 -80 -40 -25 -4 -54
-18 -80 -40 -26 -22 -55 -37 -80 -40 -25 -4 -54 -18 -78 -39 -22 -18 -57 -37
-79 -42 -21 -5 -63 -25 -92 -46 -47 -32 -60 -36 -116 -36 -50 0 -68 -5 -96
-25 -75 -55 -162 -72 -204 -41 -19 14 -20 31 -17 542 3 604 -3 564 89 564 41
0 63 6 91 25 20 14 48 25 62 25 14 1 52 7 85 15 33 8 77 15 97 15 29 0 47 8
77 36 25 22 54 37 78 41 21 3 53 19 71 35 26 22 42 28 80 28 63 0 140 25 172
55 34 33 71 45 137 45 47 0 60 4 90 30 27 24 43 30 80 30 64 0 122 19 161 52
25 22 43 28 78 28 95 0 134 17 206 92 l67 69 49 -7 c48 -6 49 -6 72 31 12 20
53 67 91 104 53 54 69 76 74 107 15 92 31 100 215 110 113 7 154 18 179 48 8
9 31 21 52 26 21 6 59 29 85 51 l46 40 152 -6 c119 -5 160 -3 196 8 55 18 114
21 160 6z m-4197 -11 l527 1 45 -39 c25 -22 61 -42 79 -46 19 -3 59 -21 88
-40 45 -29 61 -34 114 -34 80 0 87 -9 91 -118 4 -138 22 -129 -276 -131 l-250
-1 -25 39 -25 39 -211 3 -211 4 -35 38 -35 37 -130 0 -129 0 -25 40 c-24 38
-28 40 -76 40 -46 0 -53 3 -86 40 -20 22 -42 40 -49 40 -14 0 -34 30 -34 49 0
6 9 20 21 32 17 17 27 19 62 13 23 -4 279 -7 570 -6z m1917 -13 c23 -28 3 -77
-59 -142 -71 -73 -80 -79 -151 -88 -86 -11 -132 -24 -173 -52 -39 -27 -162
-52 -254 -53 -30 0 -50 -7 -74 -27 -40 -34 -94 -37 -119 -5 -15 18 -17 35 -13
104 5 82 5 83 46 122 23 21 62 49 87 61 25 13 52 35 60 50 8 15 24 31 35 36
11 4 151 8 311 8 247 1 293 -1 304 -14z m978 -5 c42 -26 52 -54 52 -148 -1
-93 -10 -114 -75 -174 -62 -57 -89 -68 -166 -68 -58 0 -59 -1 -84 -40 -18 -29
-32 -40 -49 -40 -14 0 -45 -16 -70 -35 -25 -19 -67 -40 -92 -45 -25 -6 -63
-24 -84 -41 -35 -29 -45 -31 -140 -36 -94 -6 -105 -8 -135 -34 -43 -38 -75
-49 -145 -49 -51 0 -64 -4 -93 -30 -45 -39 -77 -50 -149 -50 -54 0 -63 -3 -88
-30 -29 -31 -67 -50 -102 -50 -11 0 -36 -14 -56 -31 -35 -31 -38 -31 -104 -25
-52 5 -76 2 -98 -9 -16 -8 -40 -15 -53 -15 -81 0 -118 199 -64 340 13 35 28
65 33 67 5 1 44 7 86 12 52 6 87 16 108 31 28 20 114 38 192 40 9 0 34 15 56
34 24 20 57 36 81 40 21 3 52 17 68 30 16 14 54 35 84 49 30 13 60 31 68 40 7
10 38 24 68 33 62 18 101 61 128 144 9 27 29 63 45 80 l28 30 359 0 c340 0
360 -1 391 -20z m-1964 -1129 c15 -17 16 -64 14 -574 -3 -518 -4 -558 -21
-574 -15 -16 -41 -18 -194 -21 -97 -2 -187 -1 -199 2 -13 4 -38 19 -56 35 -20
17 -51 31 -78 36 -35 6 -56 19 -97 59 -47 44 -55 58 -62 104 -6 38 -17 62 -38
85 -42 44 -46 65 -38 174 6 85 10 98 36 128 16 18 29 44 29 58 0 55 13 88 40
102 17 9 34 31 45 57 23 59 49 85 107 104 27 9 56 26 64 39 16 25 61 45 100
45 13 0 41 16 62 35 26 23 53 37 81 41 29 5 58 19 88 45 49 44 90 50 117 20z"/>
</g>
</svg>
