<?xml version="1.0" standalone="no"?>
<!DOCTYPE svg PUBLIC "-//W3C//DTD SVG 20010904//EN"
 "http://www.w3.org/TR/2001/REC-SVG-20010904/DTD/svg10.dtd">
<svg version="1.0" xmlns="http://www.w3.org/2000/svg"
 width="408.000000pt" height="720.000000pt" viewBox="0 0 408.000000 720.000000"
 preserveAspectRatio="xMidYMid meet">
<metadata>
Created by potrace 1.16, written by Peter Selinger 2001-2019
</metadata>
<rect x="0" y="0" width="408" height="720" fill="#ffffff"/>
<g transform="translate(0.000000,720.000000) scale(0.100000,-0.100000)"
fill="#000000" stroke="none">
<path d="M1960 7119 c-65 -26 -89 -78 -70 -150 16 -57 15 -106 -1 -125 -10
-12 -26 -14 -85 -9 -53 5 -85 3 -121 -8 -26 -9 -95 -21 -152 -26 -69 -8 -124
-20 -165 -37 -33 -14 -83 -32 -110 -40 -27 -8 -66 -25 -85 -38 -20 -14 -54
-33 -76 -42 -22 -9 -53 -29 -70 -45 -16 -15 -52 -47 -79 -71 -27 -24 -69 -73
-93 -111 -37 -55 -46 -78 -50 -126 -10 -104 2 -143 63 -215 31 -36 65 -68 77
-72 12 -3 44 -20 70 -37 27 -16 73 -36 104 -43 31 -7 60 -17 65 -22 5 -5 15
-32 23 -60 7 -28 24 -66 37 -83 41 -55 135 -147 170 -165 18 -9 46 -27 61 -40
16 -13 36 -24 46 -24 25 0 212 -50 236 -63 25 -13 375 -10 412 4 13 5 70 18
126 30 62 12 117 30 139 45 21 13 62 35 90 47 33 15 80 50 123 93 60 58 74 79
94 137 28 79 25 131 -9 222 -28 73 -104 157 -174 192 -28 14 -66 36 -86 49
-19 13 -62 30 -95 39 -128 33 -243 76 -265 100 -27 29 -39 119 -21 154 13 24
50 28 84 9 12 -6 69 -18 127 -25 71 -9 126 -23 170 -43 36 -16 90 -36 121 -44
31 -9 62 -23 70 -32 7 -8 36 -27 63 -41 28 -14 66 -39 84 -54 18 -16 36 -29
40 -29 11 0 110 -120 152 -185 64 -99 77 -246 31 -350 -31 -71 -201 -230 -296
-278 -28 -13 -68 -34 -90 -46 -21 -11 -44 -21 -50 -21 -6 0 -33 -14 -59 -30
-26 -17 -78 -37 -114 -46 -37 -8 -94 -26 -127 -40 -47 -21 -92 -29 -210 -40
-82 -7 -177 -13 -210 -14 -54 0 -141 -14 -250 -41 -22 -5 -83 -16 -135 -25
-52 -8 -142 -30 -200 -49 -58 -19 -123 -37 -145 -41 -22 -3 -60 -19 -85 -34
-25 -16 -65 -33 -90 -40 -25 -6 -63 -24 -85 -39 -22 -16 -63 -36 -92 -45 -28
-9 -57 -24 -64 -32 -7 -9 -34 -26 -60 -40 -26 -13 -51 -29 -54 -35 -4 -6 -30
-25 -59 -44 -67 -42 -298 -270 -321 -315 -10 -19 -31 -50 -46 -68 -16 -18 -29
-39 -29 -46 0 -7 -13 -33 -30 -57 -16 -24 -35 -62 -40 -84 -19 -72 -32 -96
-61 -111 l-29 -15 0 -248 0 -249 34 -34 c19 -19 39 -52 45 -75 6 -22 25 -58
42 -79 17 -22 38 -52 46 -67 15 -30 179 -195 255 -258 24 -19 61 -46 83 -59
22 -13 51 -33 65 -45 14 -12 40 -27 57 -33 18 -6 48 -22 65 -36 18 -13 60 -36
93 -51 32 -14 66 -32 75 -39 8 -7 33 -19 55 -26 22 -7 65 -25 95 -40 30 -15
82 -35 114 -44 33 -10 75 -29 95 -42 20 -13 53 -29 74 -35 30 -8 41 -18 54
-47 34 -81 46 -100 97 -153 65 -67 136 -117 199 -141 27 -10 61 -28 76 -39 15
-11 58 -26 96 -34 78 -17 101 -33 115 -84 17 -63 13 -115 -13 -139 -21 -20
-34 -22 -138 -22 -173 0 -481 -62 -558 -113 -20 -13 -57 -31 -83 -40 -84 -28
-217 -147 -276 -246 -77 -130 -81 -280 -9 -391 73 -112 150 -189 239 -237 23
-12 58 -34 78 -48 20 -14 59 -31 86 -39 27 -8 76 -25 109 -39 36 -15 106 -32
175 -42 63 -8 130 -20 149 -26 21 -7 61 -9 103 -5 79 7 101 -1 124 -46 37 -71
28 -310 -16 -475 -11 -40 -20 -82 -20 -94 0 -26 96 -119 122 -119 20 0 129 74
142 97 13 23 0 89 -30 163 -25 58 -28 80 -32 216 -5 165 4 215 41 238 26 16
131 42 207 51 99 11 164 27 210 50 25 13 66 28 90 35 25 6 63 24 85 40 22 15
58 33 80 39 22 6 58 26 79 46 22 19 43 35 48 35 17 0 167 141 189 177 12 21
32 49 45 63 36 39 84 196 84 274 0 129 -77 254 -230 371 -72 55 -229 138 -305
160 -33 9 -78 26 -100 37 -22 12 -98 36 -170 54 -301 77 -315 82 -315 113 0
32 27 43 133 57 56 7 120 20 140 29 21 9 61 20 89 25 65 13 194 96 236 153 17
23 41 54 53 69 18 22 23 44 27 112 2 47 1 97 -2 112 -4 14 -47 67 -97 116 -53
53 -89 97 -87 106 4 20 31 27 163 43 56 6 153 28 220 49 66 21 136 41 155 45
19 4 58 20 87 36 28 15 72 34 97 40 26 6 65 27 89 45 23 19 47 34 53 34 7 0
36 16 65 36 30 20 65 42 79 49 23 12 168 152 246 236 17 19 52 78 77 133 56
117 70 204 62 383 -6 154 -19 216 -55 273 -17 26 -30 51 -30 57 0 40 -257 314
-330 353 -19 10 -43 27 -53 38 -10 10 -37 28 -60 38 -23 10 -64 33 -91 51 -26
18 -59 33 -71 33 -13 0 -54 16 -90 36 -37 19 -93 40 -124 45 -31 6 -86 24
-123 40 -49 21 -101 34 -190 45 -182 23 -189 24 -195 40 -11 29 75 94 157 119
14 4 45 22 70 39 25 18 58 38 75 45 54 23 206 161 237 216 10 17 26 41 38 55
30 38 43 129 37 280 -4 138 -14 179 -47 215 -11 11 -26 40 -34 63 -9 23 -35
66 -58 94 -57 68 -176 188 -187 188 -5 0 -28 15 -50 34 -23 19 -58 40 -79 46
-20 7 -52 24 -70 37 -19 14 -59 33 -90 43 -32 10 -95 32 -142 48 -54 19 -116
32 -170 36 -149 12 -171 27 -150 107 7 23 12 67 12 98 1 47 -3 58 -26 77 -25
22 -85 44 -116 43 -8 0 -26 -5 -40 -10z m-42 -535 c16 -11 22 -25 22 -55 0
-44 -19 -98 -41 -115 -8 -7 -59 -17 -114 -23 -140 -15 -307 -72 -405 -139 -44
-30 -102 -83 -139 -127 -36 -41 -71 -75 -80 -75 -28 0 -97 49 -143 103 -65 75
-64 100 3 177 29 32 63 63 76 69 14 6 41 24 61 40 20 16 55 34 77 41 22 7 63
24 90 38 114 57 538 105 593 66z m503 -408 c125 -60 203 -137 214 -209 13 -87
1 -114 -84 -197 -42 -42 -92 -82 -111 -89 -19 -7 -62 -24 -95 -37 -112 -44
-348 -58 -475 -29 -116 27 -249 76 -282 103 -111 93 -140 127 -145 172 -4 40
0 52 37 110 24 36 49 69 56 73 8 4 34 25 58 47 25 21 60 41 78 45 18 4 50 18
70 32 47 32 69 25 102 -32 47 -79 120 -112 210 -94 74 16 92 30 106 89 7 27
19 55 29 60 35 23 132 4 232 -44z m41 -1190 c51 -8 147 -20 213 -26 75 -7 154
-22 210 -40 50 -15 122 -35 162 -44 40 -8 89 -26 110 -40 21 -14 56 -28 78
-32 38 -6 149 -63 218 -111 18 -13 45 -31 61 -40 95 -59 207 -179 256 -278 16
-33 39 -76 50 -95 17 -30 20 -52 20 -165 l0 -130 -43 -91 c-50 -106 -79 -144
-206 -271 -92 -90 -125 -114 -270 -195 -283 -159 -634 -241 -1031 -242 -217
-1 -396 17 -496 48 -43 14 -110 32 -147 40 -37 9 -100 30 -140 47 -40 17 -86
35 -104 40 -18 6 -45 21 -61 34 -16 13 -54 34 -85 45 -31 12 -60 27 -64 34 -5
7 -34 29 -66 49 -78 50 -219 195 -247 254 -12 27 -33 62 -46 80 -32 43 -46
114 -48 249 -1 103 -3 114 -29 152 -41 62 -69 77 -144 74 -81 -2 -112 -17
-140 -67 -40 -70 -44 -100 -23 -168 10 -34 24 -91 29 -127 7 -43 20 -78 39
-105 16 -22 34 -56 41 -76 6 -20 21 -45 33 -55 11 -11 32 -37 45 -59 33 -53
199 -211 243 -231 19 -9 46 -27 60 -40 14 -12 42 -30 64 -39 21 -9 61 -32 88
-51 28 -19 61 -34 73 -34 13 0 53 -16 89 -35 36 -19 85 -38 108 -41 24 -4 65
-15 92 -26 27 -10 87 -28 133 -39 106 -24 125 -34 121 -62 -3 -22 -15 -28 -94
-47 -49 -12 -101 -48 -164 -113 -62 -63 -109 -97 -136 -97 -13 0 -39 9 -58 21
-20 11 -62 28 -93 36 -32 8 -78 27 -103 43 -25 15 -62 33 -82 38 -20 6 -52 22
-71 36 -18 14 -49 31 -68 37 -19 6 -50 24 -71 40 -20 16 -55 36 -77 45 -23 9
-47 24 -54 34 -6 9 -26 26 -43 36 -78 48 -254 216 -281 269 -8 17 -26 41 -38
55 -32 35 -105 265 -105 330 0 34 10 74 29 119 16 37 32 83 36 102 9 43 64
143 131 239 87 123 257 281 369 341 22 12 54 32 70 44 17 12 51 29 77 38 26 9
62 27 80 40 18 14 58 30 88 37 30 7 74 25 97 40 30 19 67 31 120 39 43 6 119
25 169 41 61 19 132 33 220 41 71 7 161 18 199 24 103 18 493 18 607 1z m-153
-1957 c36 -5 89 -21 118 -34 29 -14 58 -25 64 -25 52 0 179 -129 179 -182 0
-70 -51 -121 -178 -178 -85 -38 -102 -42 -200 -47 l-107 -6 -45 38 c-24 20
-55 41 -68 46 -39 15 -101 10 -142 -11 -50 -25 -71 -25 -123 1 -91 46 -140
118 -123 183 9 37 110 132 153 147 21 6 61 23 88 37 28 14 61 28 75 33 37 11
236 10 309 -2z m-788 -415 c8 -9 31 -27 51 -40 21 -14 38 -30 38 -38 0 -19 31
-43 65 -51 17 -4 46 -25 66 -46 30 -32 44 -39 74 -39 69 0 101 -39 51 -61 -36
-17 -92 -3 -113 27 -13 18 -34 29 -67 35 -33 6 -61 21 -93 49 -25 22 -49 40
-53 40 -14 0 -82 110 -76 125 7 20 40 19 57 -1z m737 -500 c29 -13 82 -31 119
-40 86 -21 266 -90 312 -118 20 -12 57 -30 82 -39 55 -21 192 -119 233 -168
40 -47 76 -127 76 -170 0 -57 -44 -163 -95 -228 -49 -63 -67 -75 -95 -66 -24
8 -30 38 -24 105 5 49 2 64 -34 141 -22 47 -61 109 -86 139 -49 57 -195 167
-236 176 -14 4 -52 21 -85 39 -40 21 -92 38 -155 49 -52 9 -108 20 -123 22
-46 9 -82 91 -67 154 13 54 63 55 178 4z m-374 -235 c28 -13 46 -55 46 -108 0
-80 -32 -103 -216 -156 -88 -26 -123 -42 -175 -80 -67 -49 -152 -145 -170
-192 -6 -16 -9 -76 -7 -142 4 -141 -3 -149 -84 -108 -29 14 -64 31 -78 36 -51
21 -145 99 -172 142 -72 114 -75 156 -20 245 20 33 60 83 87 110 50 49 168
125 215 139 14 4 45 18 70 31 45 23 248 63 326 65 21 0 55 7 74 14 44 17 72
18 104 4z m338 -45 c52 -9 112 -26 135 -39 23 -13 65 -31 92 -40 27 -9 66 -29
87 -46 20 -16 41 -29 46 -29 21 0 118 -111 147 -167 24 -49 31 -75 31 -123 l0
-60 -31 0 c-32 0 -43 9 -129 113 -25 30 -65 67 -90 81 -25 15 -56 35 -70 46
-14 11 -59 26 -101 35 -125 25 -173 43 -215 79 -36 31 -39 38 -39 83 0 47 16
83 36 83 5 0 51 -7 101 -16z m-11 -443 c35 -11 88 -24 117 -30 72 -15 100 -31
172 -99 57 -55 61 -62 58 -98 -3 -34 -9 -43 -57 -76 -35 -25 -68 -39 -100 -43
-25 -3 -79 -13 -118 -22 -84 -19 -95 -16 -167 46 -89 77 -138 71 -239 -28 -82
-81 -98 -85 -160 -42 -23 15 -54 35 -69 44 -34 21 -88 99 -88 127 0 81 130
177 273 200 42 7 105 10 140 7 53 -4 121 8 173 32 1 1 30 -8 65 -18z"/>
</g>
</svg>
