<?xml version="1.0" standalone="no"?>
<!DOCTYPE svg PUBLIC "-//W3C//DTD SVG 20010904//EN"
 "http://www.w3.org/TR/2001/REC-SVG-20010904/DTD/svg10.dtd">
<svg version="1.0" xmlns="http://www.w3.org/2000/svg"
 width="408.000000pt" height="504.000000pt" viewBox="0 0 408.000000 504.000000"
 preserveAspectRatio="xMidYMid meet">
<metadata>
Created by potrace 1.16, written by Peter Selinger 2001-2019
</metadata>
<rect x="0" y="0" width="408" height="504" fill="#ffffff"/>
<g transform="translate(0.000000,504.000000) scale(0.100000,-0.100000)"
fill="#000000" stroke="none">
<path d="M1921 4982 c-30 -71 -30 -102 -2 -222 23 -100 22 -133 -7 -149 -20
-11 -114 -26 -287 -46 -148 -18 -167 -22 -230 -50 -28 -12 -82 -28 -120 -35
-39 -6 -93 -25 -122 -41 -29 -16 -74 -33 -100 -39 -26 -6 -66 -23 -88 -39 -22
-15 -63 -36 -92 -45 -28 -9 -57 -24 -64 -32 -7 -9 -34 -26 -59 -39 -25 -13
-52 -31 -60 -40 -7 -9 -32 -26 -54 -37 -23 -11 -56 -34 -73 -51 -18 -18 -59
-54 -90 -82 -88 -76 -212 -223 -233 -276 -7 -19 -23 -45 -36 -59 -34 -37 -113
-240 -124 -320 -14 -96 -14 -247 -2 -358 9 -77 18 -107 57 -187 43 -87 59
-107 179 -228 72 -72 152 -147 176 -165 71 -53 182 -122 196 -122 6 0 31 -15
53 -34 23 -19 56 -38 73 -41 18 -4 58 -22 88 -40 30 -19 71 -37 90 -40 19 -4
62 -22 95 -40 33 -18 85 -38 115 -45 30 -7 78 -25 105 -40 28 -15 66 -31 86
-34 20 -4 85 -24 145 -46 97 -35 134 -58 134 -82 0 -17 -52 -40 -110 -48 -33
-5 -80 -20 -103 -33 -23 -14 -66 -32 -94 -40 -29 -9 -68 -27 -85 -40 -18 -14
-57 -32 -86 -42 -29 -9 -56 -24 -59 -32 -3 -8 -29 -27 -57 -43 -58 -33 -160
-132 -211 -206 -67 -95 -69 -104 -69 -279 l-1 -160 53 -105 c59 -116 106 -184
168 -245 58 -57 135 -120 164 -135 14 -7 38 -23 53 -36 15 -13 47 -29 70 -35
23 -6 60 -24 82 -39 22 -16 60 -32 84 -35 24 -4 76 -18 115 -32 39 -13 105
-31 146 -39 41 -8 81 -21 89 -28 7 -8 17 -36 22 -62 6 -33 16 -54 31 -64 50
-34 78 -63 78 -81 0 -17 8 -19 94 -19 92 0 94 1 100 25 4 14 22 35 41 48 37
24 47 40 64 103 11 43 40 64 86 64 49 0 207 32 249 50 24 10 69 23 102 30 32
6 79 25 104 40 25 16 64 33 88 40 23 6 56 24 72 40 17 17 48 39 68 49 41 21
182 163 182 183 0 7 17 37 38 67 l37 55 0 151 0 151 -44 74 c-45 76 -150 190
-174 190 -7 0 -35 14 -63 32 -45 29 -115 53 -304 106 -97 27 -242 42 -401 42
-165 0 -162 -3 -171 137 -8 128 -2 143 69 168 26 10 75 30 108 46 33 15 79 30
103 34 26 4 57 19 83 41 23 19 45 34 50 34 5 0 29 27 54 61 69 93 58 152 -45
261 -40 42 -50 59 -48 82 3 25 10 31 55 47 28 9 84 22 125 29 46 7 87 20 111
36 21 14 67 34 101 45 35 10 69 26 77 35 7 8 33 26 59 39 25 13 89 67 143 120
73 74 101 110 116 149 11 28 29 69 40 91 12 21 21 49 21 61 0 36 33 66 101 90
35 12 97 34 137 48 40 14 87 36 105 49 17 14 49 30 70 37 50 16 144 99 200
175 39 55 51 106 50 230 -1 129 -10 176 -49 242 -39 63 -240 265 -309 308 -16
11 -44 31 -62 46 -17 15 -49 32 -70 39 -21 7 -56 25 -78 41 -22 15 -60 33 -85
39 -25 7 -65 24 -90 40 -31 19 -69 32 -123 40 -43 6 -101 22 -130 34 -73 32
-127 44 -237 52 -52 4 -112 13 -134 20 -21 8 -64 14 -95 14 -31 0 -72 5 -91
11 -19 6 -88 12 -153 13 -163 2 -169 12 -121 182 l26 92 -26 48 c-14 27 -26
59 -26 71 0 22 -3 23 -102 23 l-103 0 -24 -58z m679 -662 c112 -8 177 -18 234
-36 43 -13 120 -31 170 -40 54 -9 114 -27 146 -43 30 -16 73 -32 94 -35 22 -4
73 -25 114 -47 40 -21 80 -39 88 -39 8 0 31 -15 51 -34 21 -18 52 -40 68 -49
38 -19 195 -165 195 -181 0 -6 16 -36 35 -66 21 -32 35 -67 35 -85 0 -54 -104
-202 -164 -232 -17 -8 -44 -28 -61 -43 -16 -15 -45 -32 -62 -38 -18 -6 -49
-23 -69 -38 -72 -55 -120 -29 -186 101 -42 83 -210 243 -280 267 -18 6 -54 26
-80 43 -26 18 -64 36 -85 40 -21 3 -67 20 -104 35 -72 32 -278 69 -436 79 -74
5 -96 10 -112 26 -28 29 -90 271 -90 355 -1 46 10 60 50 70 43 9 250 5 449
-10z m-644 -8 c41 -27 40 -97 -1 -232 -13 -41 -27 -92 -30 -112 -8 -44 -44
-83 -88 -97 -18 -6 -81 -17 -142 -25 -119 -17 -298 -74 -440 -142 -176 -83
-332 -232 -394 -376 -33 -77 -36 -90 -35 -183 0 -91 3 -107 33 -175 18 -41 45
-90 60 -109 14 -18 38 -50 52 -70 48 -65 253 -204 348 -236 30 -10 69 -26 86
-36 18 -11 74 -28 126 -39 52 -11 127 -29 167 -40 40 -11 99 -20 132 -20 91 0
104 -18 114 -155 3 -38 8 -100 12 -136 5 -59 4 -69 -15 -88 -27 -27 -79 -27
-130 -2 -21 11 -76 26 -122 34 -46 9 -113 27 -149 41 -36 14 -94 32 -129 41
-36 9 -85 27 -111 40 -25 13 -73 31 -105 40 -33 10 -78 30 -100 45 -22 15 -58
33 -80 40 -22 7 -54 23 -72 36 -17 13 -56 33 -87 44 -31 12 -59 27 -63 35 -5
7 -29 26 -55 41 -88 54 -163 108 -181 130 -10 13 -25 25 -35 28 -23 8 -202
218 -202 238 0 6 -16 45 -35 88 -45 99 -55 193 -31 295 9 38 23 79 31 91 7 12
21 48 31 80 9 32 28 72 41 88 13 16 33 47 45 70 43 85 209 257 323 333 22 15
54 39 70 54 17 14 45 31 62 37 18 6 48 22 65 35 18 14 51 30 73 37 22 7 57 23
77 37 20 14 70 33 111 44 40 10 98 30 128 43 30 14 86 30 124 36 39 6 111 23
160 37 124 36 330 56 361 35z m-118 -614 c91 -114 129 -138 222 -138 52 0 74
12 147 84 l53 50 80 -12 c44 -6 111 -25 149 -41 38 -17 92 -36 120 -42 28 -6
64 -21 79 -34 15 -12 45 -32 67 -43 54 -27 174 -139 231 -215 43 -56 48 -68
57 -144 12 -100 3 -138 -50 -209 -41 -54 -144 -154 -160 -154 -6 0 -32 -16
-58 -36 -26 -20 -66 -42 -89 -49 -23 -7 -58 -24 -79 -38 -22 -15 -64 -30 -104
-36 -38 -7 -88 -18 -113 -25 -110 -33 -202 -46 -335 -48 -199 -3 -293 6 -429
41 -65 17 -128 31 -141 31 -12 0 -48 14 -80 31 -33 17 -75 37 -95 44 -43 15
-160 94 -213 144 -21 20 -60 67 -85 105 l-47 69 0 107 0 106 44 72 c48 79 154
184 211 209 19 8 46 23 60 33 79 56 297 129 388 130 20 1 51 7 67 15 45 20 83
18 103 -7z m428 -1418 c19 -16 51 -34 72 -40 48 -12 75 -41 75 -80 0 -39 -25
-65 -79 -84 -25 -8 -56 -24 -71 -35 -35 -28 -87 -28 -107 1 -23 33 -23 224 1
250 25 27 70 23 109 -12z m-322 -526 c11 -10 16 -34 16 -68 0 -30 3 -67 6 -84
9 -43 -27 -77 -98 -91 -30 -7 -72 -21 -94 -33 -21 -11 -63 -29 -92 -39 -68
-23 -126 -69 -192 -150 -39 -47 -47 -70 -55 -160 -12 -134 17 -212 116 -308
73 -70 106 -88 200 -105 125 -23 165 -45 179 -97 14 -52 2 -90 -34 -107 -24
-12 -34 -12 -74 4 -26 10 -93 28 -149 40 -57 12 -118 31 -136 42 -18 10 -57
27 -86 37 -28 9 -64 27 -79 40 -15 12 -46 32 -69 43 -23 12 -45 26 -48 32 -4
6 -31 28 -61 50 -32 25 -62 57 -75 83 -12 23 -33 56 -48 72 -30 33 -71 147
-71 198 0 17 10 61 22 96 20 54 37 78 119 161 57 59 111 105 134 115 22 9 49
25 60 35 12 11 47 29 79 40 31 10 71 30 87 44 16 14 54 30 86 37 32 6 74 21
93 32 80 47 235 71 264 41z m521 -335 c44 -5 118 -21 165 -34 47 -13 101 -27
120 -30 50 -10 187 -81 241 -126 25 -21 63 -66 84 -101 32 -52 39 -74 43 -130
5 -74 -8 -125 -42 -166 -13 -15 -30 -40 -38 -57 -38 -72 -247 -194 -378 -221
-41 -9 -106 -26 -145 -39 -52 -17 -104 -25 -201 -30 l-132 -6 -21 27 c-23 29
-26 60 -11 115 14 51 30 61 102 63 35 1 131 13 213 25 118 18 160 29 195 49
25 15 63 36 85 47 46 23 64 61 64 140 1 102 -48 161 -153 186 -28 7 -76 20
-106 31 -30 10 -108 25 -175 33 -204 26 -232 39 -255 123 -14 56 2 92 50 109
37 13 146 10 295 -8z m-517 -61 c7 -7 12 -24 12 -38 0 -25 -8 -38 -77 -130
-48 -63 -45 -92 22 -175 77 -97 73 -125 -16 -125 -28 0 -54 10 -88 33 -27 17
-62 39 -78 48 -32 17 -93 114 -93 145 0 11 15 46 33 79 31 58 49 74 172 155
33 22 95 26 113 8z m612 -358 c34 -24 34 -66 -1 -92 -35 -26 -334 -58 -374
-40 -57 26 -53 97 7 128 47 24 118 32 238 27 78 -4 111 -9 130 -23z"/>
</g>
</svg>
