<?xml version="1.0" standalone="no"?>
<!DOCTYPE svg PUBLIC "-//W3C//DTD SVG 20010904//EN"
 "http://www.w3.org/TR/2001/REC-SVG-20010904/DTD/svg10.dtd">
<svg version="1.0" xmlns="http://www.w3.org/2000/svg"
 width="408.000000pt" height="496.000000pt" viewBox="0 0 408.000000 496.000000"
 preserveAspectRatio="xMidYMid meet">
<metadata>
Created by potrace 1.16, written by Peter Selinger 2001-2019
</metadata>
<rect x="0" y="0" width="408" height="496" fill="#ffffff"/>
<g transform="translate(0.000000,496.000000) scale(0.100000,-0.100000)"
fill="#000000" stroke="none">
<path d="M1964 4861 c-43 -26 -58 -75 -49 -159 4 -37 16 -88 27 -114 47 -111
15 -129 -327 -179 -144 -21 -186 -31 -239 -54 -30 -13 -85 -29 -123 -36 -41
-7 -86 -22 -113 -39 -25 -16 -65 -33 -90 -40 -25 -6 -63 -24 -85 -39 -22 -16
-63 -36 -92 -45 -28 -9 -57 -24 -64 -32 -7 -9 -34 -26 -60 -40 -26 -13 -51
-29 -54 -35 -4 -6 -31 -26 -61 -45 -72 -46 -297 -269 -322 -320 -11 -22 -28
-46 -37 -54 -9 -8 -26 -32 -37 -54 -11 -23 -31 -54 -44 -69 -13 -15 -28 -47
-34 -70 -6 -23 -24 -71 -39 -107 -63 -143 -58 -470 8 -595 17 -32 31 -64 31
-71 0 -8 15 -31 34 -51 18 -21 40 -52 49 -69 21 -42 184 -202 227 -224 19 -10
44 -28 55 -40 11 -12 38 -31 60 -42 22 -12 53 -31 68 -44 16 -13 34 -24 42
-24 7 0 36 -16 65 -36 28 -19 70 -42 92 -50 22 -8 64 -28 93 -44 29 -17 59
-30 66 -30 8 0 50 -16 94 -36 44 -20 105 -42 134 -51 30 -8 76 -25 102 -39 26
-13 83 -33 126 -45 43 -12 92 -30 109 -40 17 -10 64 -26 105 -34 41 -9 101
-28 134 -44 33 -16 75 -34 93 -41 54 -21 61 -40 56 -144 -9 -164 -5 -160 -194
-161 -186 -1 -337 -20 -440 -55 -47 -16 -108 -34 -137 -40 -28 -6 -73 -27
-100 -46 -26 -19 -54 -34 -61 -34 -8 0 -42 -27 -76 -60 -44 -42 -67 -73 -75
-102 -7 -23 -24 -58 -37 -77 -22 -33 -24 -45 -24 -159 0 -121 1 -125 38 -209
31 -71 50 -99 119 -168 45 -46 99 -93 120 -103 21 -11 55 -34 76 -50 21 -17
52 -34 70 -37 18 -4 52 -19 77 -33 63 -36 340 -101 435 -102 120 -1 215 -39
215 -86 0 -11 20 -14 89 -14 l89 0 7 31 c12 52 39 63 270 114 66 15 154 42
195 60 41 18 90 36 108 40 18 4 45 17 60 29 15 13 43 31 62 41 19 10 52 33 73
51 20 19 41 34 46 34 14 0 131 120 171 177 19 26 57 91 83 143 48 93 49 98 54
205 10 198 -17 264 -173 419 -100 101 -168 153 -231 177 -23 9 -55 26 -71 38
-17 12 -61 33 -97 46 -37 14 -85 35 -107 46 -23 12 -64 28 -92 36 -28 8 -64
23 -81 33 -16 10 -61 26 -100 35 -38 8 -90 29 -115 44 -52 33 -64 36 -185 51
-49 6 -125 22 -169 36 -43 13 -109 29 -147 34 -37 5 -94 21 -125 35 -32 14
-90 33 -129 42 -38 8 -95 28 -125 43 -30 15 -71 31 -90 35 -19 4 -59 20 -89
37 -30 17 -75 36 -101 44 -26 8 -64 25 -84 39 -21 14 -52 31 -70 39 -18 7 -54
30 -80 50 -26 20 -53 36 -60 36 -7 0 -23 12 -37 26 -13 14 -45 36 -70 49 -25
13 -52 31 -60 41 -8 9 -31 29 -51 44 -35 26 -68 63 -162 184 -39 49 -82 151
-114 266 -12 46 -13 67 -3 124 6 38 21 90 32 115 11 25 24 64 29 87 10 44 28
74 154 260 37 55 203 214 258 248 18 11 48 33 66 48 18 15 39 28 46 28 8 0 36
15 62 33 27 19 67 40 89 46 22 7 56 24 77 38 20 13 61 31 90 39 30 7 84 27
120 44 36 16 97 34 135 40 37 6 104 22 148 35 101 30 183 45 254 45 31 1 75 4
97 9 53 10 71 0 80 -45 16 -88 -46 -326 -99 -381 -15 -16 -42 -25 -87 -32
-166 -25 -249 -44 -303 -67 -32 -14 -90 -34 -129 -45 -39 -11 -84 -29 -98 -39
-15 -11 -47 -28 -71 -39 -80 -34 -219 -158 -285 -252 -42 -60 -84 -200 -84
-280 0 -81 40 -207 87 -271 52 -72 209 -214 267 -242 28 -14 67 -34 86 -45 79
-46 212 -93 340 -121 223 -48 237 -49 500 -51 256 -1 279 1 415 37 28 7 82 18
120 24 39 6 92 23 120 37 27 14 74 34 102 44 29 10 68 29 85 42 18 14 43 28
56 32 12 3 43 24 67 45 24 21 53 41 63 44 30 10 113 114 133 167 11 27 30 66
43 87 13 20 27 56 31 79 4 24 14 51 23 61 19 22 157 76 217 86 22 4 58 20 80
35 22 16 57 33 78 39 38 11 93 52 175 134 46 45 72 92 72 129 0 12 12 47 26
79 l26 58 -21 58 c-11 33 -25 85 -31 116 -8 41 -24 75 -57 120 -55 76 -225
242 -270 263 -17 8 -50 31 -72 49 -23 19 -51 38 -63 42 -13 4 -45 22 -71 40
-27 19 -60 34 -72 34 -13 0 -53 16 -90 35 -38 20 -98 42 -139 50 -40 7 -100
25 -134 39 -40 17 -101 30 -179 40 -65 8 -131 19 -146 25 -16 6 -48 11 -71 11
-24 0 -61 6 -83 14 -30 10 -80 13 -194 11 -182 -4 -199 1 -199 66 0 22 13 71
30 111 17 38 30 82 30 98 0 32 -49 108 -81 126 -37 21 -138 17 -175 -5z m711
-700 c175 -19 199 -24 268 -47 38 -13 96 -28 130 -35 34 -6 89 -23 123 -39 35
-16 87 -35 117 -44 30 -9 65 -24 79 -35 13 -11 49 -31 79 -46 185 -87 369
-288 369 -402 0 -23 -5 -54 -10 -68 -17 -45 -112 -146 -160 -170 -25 -13 -56
-35 -69 -49 -13 -14 -40 -29 -59 -32 -19 -4 -50 -20 -68 -37 -55 -47 -99 -38
-125 26 -7 18 -22 46 -34 62 -12 17 -27 44 -34 62 -17 43 -177 189 -236 214
-17 8 -44 23 -60 36 -29 21 -135 64 -255 103 -45 15 -280 59 -460 86 -41 6
-75 26 -89 52 -14 26 -61 260 -61 303 0 40 14 56 57 68 38 11 375 5 498 -8z
m-826 -615 c13 -7 36 -31 50 -52 29 -43 116 -92 164 -93 44 -1 144 54 170 94
27 43 51 50 114 37 27 -6 70 -14 98 -17 27 -4 74 -19 105 -35 30 -15 73 -33
95 -40 22 -7 53 -22 69 -34 16 -11 51 -32 77 -46 56 -29 159 -107 159 -119 0
-5 17 -31 39 -58 29 -37 44 -70 60 -133 26 -103 26 -116 1 -183 -16 -43 -38
-71 -106 -136 -47 -45 -100 -89 -117 -98 -18 -8 -46 -28 -63 -43 -18 -15 -49
-31 -70 -34 -21 -4 -63 -21 -94 -36 -36 -19 -94 -36 -170 -50 -63 -11 -137
-27 -165 -36 -110 -36 -434 -29 -566 12 -25 8 -75 19 -110 25 -78 12 -257 84
-340 136 -104 64 -202 164 -245 249 -32 64 -38 84 -37 137 0 52 7 75 41 143
79 156 230 268 494 366 44 16 240 55 283 56 22 1 51 -5 64 -12z m454 -1942
c49 -8 114 -26 145 -40 31 -14 88 -36 126 -49 68 -25 180 -82 224 -116 13 -10
42 -27 66 -38 54 -27 171 -141 216 -211 35 -55 35 -56 35 -170 l0 -115 -37
-48 c-21 -27 -38 -53 -38 -59 0 -24 -150 -182 -195 -205 -16 -8 -41 -25 -55
-38 -14 -12 -48 -30 -75 -39 -28 -9 -67 -27 -87 -41 -20 -14 -67 -32 -104 -41
-37 -8 -83 -22 -102 -30 -35 -14 -124 -33 -201 -41 -30 -4 -46 -1 -52 8 -14
23 -10 65 9 81 22 20 86 52 137 68 87 28 218 147 250 227 10 26 39 61 77 94
33 29 67 67 74 85 19 44 18 136 -1 182 -33 78 -170 192 -261 216 -114 31 -275
83 -284 92 -11 11 -14 40 -12 132 2 57 6 76 22 92 24 24 14 24 123 4z m-338
-389 c49 -48 26 -91 -60 -110 -67 -15 -189 -56 -232 -79 -51 -26 -141 -129
-149 -170 -10 -56 1 -163 20 -188 59 -82 76 -100 120 -133 27 -21 99 -57 160
-82 128 -52 136 -57 136 -89 0 -36 -29 -44 -150 -44 -114 0 -193 13 -335 55
-44 13 -92 26 -106 29 -14 3 -41 16 -61 30 -19 13 -52 29 -72 36 -54 17 -169
122 -218 199 -42 64 -43 68 -43 147 1 69 4 87 26 120 13 22 31 52 39 67 19 39
100 94 195 135 122 52 152 60 254 72 52 6 101 15 110 20 9 5 89 10 179 10 160
0 163 0 187 -25z m342 -20 c98 -26 203 -73 241 -109 53 -48 71 -135 32 -156
-29 -16 -56 -4 -110 46 -50 46 -100 72 -225 113 -60 20 -83 32 -94 52 -13 24
-13 29 2 53 22 32 38 32 154 1z m-350 -213 c22 -14 33 -63 33 -145 0 -149 -23
-184 -111 -174 -56 7 -184 69 -199 96 -15 29 -12 83 5 109 26 36 96 79 165
100 73 23 90 25 107 14z m329 -31 c53 -24 108 -74 124 -110 9 -23 9 -38 0 -66
-10 -30 -21 -41 -59 -57 -25 -10 -62 -28 -82 -39 -46 -24 -71 -24 -100 0 -22
17 -24 28 -27 130 -5 135 6 161 66 161 20 0 55 -9 78 -19z"/>
</g>
</svg>
