<?xml version="1.0" standalone="no"?>
<!DOCTYPE svg PUBLIC "-//W3C//DTD SVG 20010904//EN"
 "http://www.w3.org/TR/2001/REC-SVG-20010904/DTD/svg10.dtd">
<svg version="1.0" xmlns="http://www.w3.org/2000/svg"
 width="416.000000pt" height="368.000000pt" viewBox="0 0 416.000000 368.000000"
 preserveAspectRatio="xMidYMid meet">
<metadata>
Created by potrace 1.16, written by Peter Selinger 2001-2019
</metadata>
<rect x="0" y="0" width="416" height="368" fill="#ffffff"/>
<g transform="translate(0.000000,368.000000) scale(0.100000,-0.100000)"
fill="#000000" stroke="none">
<path d="M1960 3662 c0 -10 -18 -43 -40 -72 -34 -46 -40 -61 -40 -104 0 -33 9
-70 25 -103 34 -75 46 -122 35 -143 -12 -22 -77 -37 -200 -46 -56 -4 -125 -16
-169 -31 -40 -13 -117 -31 -170 -39 -57 -10 -112 -26 -136 -39 -23 -13 -70
-31 -105 -40 -36 -9 -82 -28 -104 -42 -21 -14 -63 -33 -92 -43 -30 -11 -69
-30 -86 -43 -18 -14 -50 -30 -70 -37 -21 -6 -56 -27 -79 -46 -22 -19 -45 -34
-49 -34 -5 0 -29 -17 -54 -37 -25 -21 -71 -58 -102 -83 -76 -61 -100 -85 -159
-159 -27 -35 -64 -80 -81 -100 -17 -20 -39 -52 -49 -71 -10 -19 -28 -48 -41
-63 -13 -16 -27 -41 -30 -55 -3 -15 -21 -58 -40 -97 -46 -96 -64 -274 -46
-462 11 -117 15 -132 57 -218 25 -51 55 -101 66 -111 12 -11 30 -37 41 -59 29
-57 180 -199 270 -253 20 -12 39 -29 42 -37 3 -9 27 -25 53 -36 27 -11 57 -29
68 -39 11 -10 42 -28 69 -40 27 -11 60 -31 72 -44 13 -12 43 -28 66 -35 24 -7
72 -28 107 -47 35 -19 72 -34 82 -34 9 0 46 -15 81 -34 35 -18 79 -37 98 -41
19 -4 70 -22 113 -41 43 -19 85 -34 94 -34 9 0 69 -18 133 -39 63 -22 145 -45
180 -50 69 -12 138 -31 183 -52 18 -8 31 -25 38 -50 11 -34 8 -44 -30 -126
-45 -98 -47 -111 -30 -196 l12 -57 137 0 137 0 12 57 c17 84 14 102 -25 183
-32 65 -37 88 -43 177 -4 56 -13 108 -20 116 -6 9 -35 21 -64 27 -29 7 -100
27 -159 46 -59 19 -117 34 -129 34 -11 0 -55 14 -97 31 -43 17 -103 37 -135
45 -32 8 -89 27 -126 43 -37 16 -92 36 -122 45 -31 8 -68 25 -83 37 -15 11
-49 27 -76 34 -26 7 -64 25 -83 39 -19 14 -56 34 -83 43 -27 9 -66 29 -87 44
-21 15 -51 30 -66 34 -16 3 -46 21 -67 39 -22 18 -50 39 -64 46 -38 20 -90 65
-202 178 -133 133 -162 168 -178 217 -7 22 -23 58 -36 81 -51 90 -51 300 1
388 14 24 31 63 39 87 7 24 30 69 50 99 20 30 51 77 69 104 44 67 156 185 192
203 17 9 49 32 71 52 49 42 90 70 159 107 28 15 62 37 77 49 15 13 51 28 80
35 29 7 83 27 120 46 37 19 75 34 85 34 10 0 63 16 118 35 60 22 135 39 190
45 49 6 110 17 135 25 63 20 176 39 233 40 37 0 52 -5 63 -20 18 -25 18 -74
-2 -120 -21 -51 -36 -151 -29 -186 4 -19 24 -41 58 -66 72 -52 110 -51 174 3
70 60 74 85 29 213 -40 116 -44 152 -19 177 15 15 37 16 218 10 152 -5 216
-11 265 -26 36 -10 136 -30 222 -44 95 -16 178 -35 211 -50 30 -13 79 -29 108
-35 30 -7 71 -23 93 -37 21 -14 64 -35 94 -45 31 -11 65 -28 77 -38 11 -11 42
-29 68 -41 26 -12 52 -31 58 -41 5 -10 24 -26 41 -35 32 -17 96 -79 131 -129
12 -16 34 -43 49 -58 15 -16 28 -36 28 -46 0 -9 16 -50 36 -91 44 -91 56 -199
31 -265 -9 -22 -28 -75 -44 -117 -16 -43 -40 -90 -55 -105 -14 -15 -33 -42
-41 -59 -22 -43 -124 -145 -189 -188 -29 -19 -64 -43 -78 -52 -101 -68 -130
-85 -167 -98 -22 -8 -58 -26 -80 -40 -21 -13 -63 -31 -93 -40 -30 -8 -86 -26
-125 -40 -71 -25 -149 -42 -355 -76 -88 -15 -163 -20 -320 -20 -206 0 -247 5
-518 55 -100 18 -345 99 -384 126 -15 11 -45 26 -68 34 -23 8 -59 28 -80 45
-21 16 -43 30 -49 30 -6 0 -33 20 -61 45 -28 25 -54 45 -59 45 -16 0 -164 156
-183 194 -11 23 -31 55 -44 72 -13 18 -33 67 -46 110 -22 78 -25 123 -13 219
6 49 6 51 -46 109 -90 100 -149 107 -232 27 -78 -74 -91 -114 -63 -196 8 -22
24 -83 36 -137 16 -70 31 -109 56 -144 19 -26 34 -53 34 -59 0 -6 15 -29 33
-51 19 -21 42 -54 52 -72 17 -29 80 -85 166 -149 16 -12 45 -35 65 -52 19 -17
41 -31 48 -31 8 0 33 -16 56 -35 23 -19 62 -40 86 -46 25 -6 60 -24 80 -39 19
-16 57 -33 85 -39 27 -6 71 -22 97 -35 26 -13 108 -38 182 -55 74 -17 160 -38
190 -46 152 -39 607 -58 832 -34 187 19 232 26 373 63 231 60 491 165 585 236
19 15 47 33 61 41 42 22 171 123 211 165 100 105 165 209 209 333 24 68 40
232 28 291 -4 25 -8 68 -9 96 0 37 -9 68 -35 120 -19 38 -35 74 -35 81 0 7
-13 27 -29 45 -15 18 -36 49 -46 68 -21 42 -180 202 -244 247 -25 18 -70 46
-98 64 -29 17 -55 35 -58 40 -10 15 -208 105 -259 118 -27 7 -68 23 -91 36
-23 14 -78 32 -124 40 -45 9 -132 29 -194 46 -124 33 -279 48 -479 49 -70 0
-139 5 -153 10 -33 12 -31 25 15 150 46 124 46 118 1 204 -23 42 -41 83 -41
91 0 12 -22 15 -120 15 -109 0 -120 -2 -120 -18z"/>
</g>
</svg>
