<?xml version="1.0" standalone="no"?>
<!DOCTYPE svg PUBLIC "-//W3C//DTD SVG 20010904//EN"
 "http://www.w3.org/TR/2001/REC-SVG-20010904/DTD/svg10.dtd">
<svg version="1.0" xmlns="http://www.w3.org/2000/svg"
 width="408.000000pt" height="344.000000pt" viewBox="0 0 408.000000 344.000000"
 preserveAspectRatio="xMidYMid meet">
<metadata>
Created by potrace 1.16, written by Peter Selinger 2001-2019
</metadata>
<rect x="0" y="0" width="408" height="344" fill="#ffffff"/>
<g transform="translate(0.000000,344.000000) scale(0.100000,-0.100000)"
fill="#000000" stroke="none">
<path d="M2000 3351 c-55 -30 -73 -56 -78 -114 -4 -49 -1 -56 32 -96 45 -54
63 -109 50 -158 -13 -52 -55 -78 -141 -86 -37 -4 -119 -11 -181 -17 -77 -7
-139 -19 -198 -40 -47 -16 -113 -34 -147 -41 -34 -6 -91 -23 -127 -39 -36 -15
-89 -35 -118 -44 -29 -8 -64 -24 -78 -35 -14 -11 -49 -27 -77 -37 -29 -9 -72
-32 -96 -51 -24 -18 -50 -33 -57 -33 -7 0 -28 -13 -46 -29 -18 -15 -47 -36
-65 -44 -17 -9 -52 -34 -76 -54 -25 -21 -73 -60 -107 -88 -58 -47 -100 -95
-162 -188 -15 -22 -39 -52 -52 -66 -13 -14 -31 -43 -40 -64 -9 -22 -27 -52
-41 -69 -14 -16 -32 -55 -41 -86 -9 -31 -25 -71 -35 -88 -33 -55 -52 -235 -40
-385 10 -115 14 -136 44 -196 19 -38 37 -79 40 -93 4 -14 21 -43 39 -65 49
-59 239 -245 289 -283 64 -49 180 -122 193 -122 6 0 31 -16 55 -35 24 -19 49
-35 56 -35 7 0 52 -20 101 -45 48 -25 95 -45 104 -45 10 0 46 -16 82 -34 36
-19 87 -40 114 -47 27 -7 74 -24 105 -40 30 -15 94 -37 142 -48 48 -11 102
-28 119 -37 17 -9 68 -26 112 -39 78 -21 208 -82 272 -128 18 -12 46 -30 63
-39 17 -9 36 -29 41 -43 9 -23 14 -25 70 -25 49 0 62 3 67 18 4 9 26 41 50 70
52 64 54 95 15 167 -40 73 -52 77 -224 69 -165 -7 -275 5 -373 41 -33 12 -96
34 -140 48 -174 56 -285 96 -307 111 -13 9 -50 25 -81 35 -32 11 -70 29 -85
40 -16 11 -51 28 -79 39 -28 11 -66 31 -85 46 -19 14 -39 26 -44 26 -14 0
-141 83 -199 129 -27 23 -71 58 -97 78 -43 35 -71 68 -136 156 -13 18 -34 43
-47 57 -13 14 -31 51 -40 84 -10 32 -26 74 -38 93 -13 23 -22 59 -25 106 -4
64 0 86 37 199 24 72 53 140 67 157 13 16 31 46 40 67 26 62 164 221 200 230
25 6 89 -6 196 -37 36 -11 97 -22 135 -26 37 -3 76 -10 86 -15 26 -13 20 -45
-14 -75 -17 -16 -38 -41 -46 -58 -9 -16 -26 -42 -39 -57 -12 -16 -34 -65 -48
-110 -78 -247 28 -499 268 -635 26 -16 62 -40 79 -55 17 -16 47 -30 67 -34 19
-3 67 -21 105 -40 39 -19 77 -34 86 -34 8 0 51 -9 94 -21 197 -51 331 -63 750
-63 391 0 441 2 530 20 39 7 133 25 211 38 152 26 355 86 450 133 32 16 75 36
94 43 69 27 257 197 306 277 10 16 28 44 41 64 13 19 32 69 43 110 27 96 71
218 81 225 5 3 9 32 9 65 0 50 -4 64 -24 82 -17 16 -29 48 -45 119 -23 107
-75 218 -144 307 -62 80 -146 165 -194 194 -23 14 -44 31 -48 37 -3 6 -24 19
-45 30 -21 11 -53 33 -72 50 -18 17 -51 35 -73 41 -22 6 -58 24 -80 39 -22 16
-60 34 -85 40 -24 7 -69 24 -100 40 -30 15 -86 33 -125 40 -38 7 -94 24 -124
37 -30 13 -88 28 -130 34 -42 5 -134 17 -206 26 -71 9 -191 18 -265 19 -113 3
-138 6 -160 22 -47 35 -36 109 33 216 38 60 39 103 2 151 -49 65 -125 83 -195
46z m492 -761 c24 -5 133 -18 243 -29 147 -14 213 -25 249 -41 27 -11 90 -27
140 -36 54 -9 108 -25 133 -40 23 -13 65 -29 95 -35 29 -6 59 -16 66 -22 20
-16 10 -50 -18 -64 -52 -27 -207 -81 -250 -88 -25 -4 -65 -20 -90 -35 -25 -16
-66 -34 -93 -41 -26 -6 -64 -24 -84 -40 -45 -36 -83 -37 -142 -2 -49 29 -144
57 -331 99 -106 24 -133 26 -360 26 -254 0 -407 -15 -483 -47 -20 -8 -69 -22
-107 -30 -39 -8 -85 -22 -102 -31 -18 -9 -43 -14 -62 -11 -47 8 -166 52 -207
76 -21 12 -65 26 -100 32 -72 11 -91 23 -87 53 4 25 142 98 221 116 28 7 71
23 95 37 23 13 81 33 130 43 48 11 119 30 158 44 52 19 114 29 240 40 93 8
180 19 194 25 32 13 496 14 552 1z m-126 -510 c197 -30 234 -45 234 -93 -1
-31 -18 -51 -68 -76 -53 -27 -245 -216 -300 -296 -22 -33 -57 -91 -77 -130
-38 -76 -57 -95 -91 -95 -25 0 -44 26 -67 93 -9 26 -30 64 -46 85 -17 20 -31
43 -31 50 0 15 -34 54 -136 155 -115 113 -127 124 -171 146 -48 24 -67 52 -59
87 5 19 20 27 79 45 39 12 105 25 146 30 40 5 76 11 79 14 3 3 90 5 192 5 137
0 223 -5 316 -20z m1435 -19 c13 -10 30 -36 37 -57 7 -22 25 -66 40 -99 24
-53 27 -71 26 -160 -2 -110 -7 -133 -54 -244 -42 -101 -107 -197 -166 -246
-76 -63 -165 -121 -209 -135 -22 -7 -62 -24 -90 -38 -73 -37 -371 -111 -478
-119 -65 -5 -107 13 -107 47 0 19 9 24 74 35 106 18 304 208 342 329 9 28 19
94 21 146 6 125 -14 188 -93 299 -97 135 -99 140 -81 158 9 10 47 18 100 24
46 5 96 13 111 19 30 11 202 47 256 53 19 2 83 5 141 5 90 2 110 -1 130 -17z
m-856 -204 c60 -44 137 -136 161 -192 28 -67 34 -143 19 -216 -17 -81 -26 -99
-71 -154 -79 -94 -148 -154 -199 -172 -37 -12 -50 -23 -61 -48 -12 -29 -18
-33 -70 -39 -35 -4 -78 -18 -108 -35 -68 -39 -184 -61 -318 -61 -104 0 -110 1
-135 26 -20 20 -24 32 -19 57 3 18 10 68 16 112 8 54 20 96 40 130 15 27 33
68 39 90 6 22 27 63 48 91 21 28 53 71 71 95 18 24 58 67 89 94 31 28 75 66
97 86 23 20 52 40 66 44 14 4 45 23 69 41 24 19 51 34 60 34 9 0 36 14 61 30
25 16 54 30 65 30 12 0 48 -20 80 -43z m-1576 -6 c46 -16 93 -39 105 -49 11
-11 37 -28 56 -37 72 -36 265 -221 308 -294 15 -25 37 -61 49 -80 13 -19 28
-52 34 -75 6 -22 21 -66 34 -96 33 -78 52 -201 37 -234 -10 -23 -18 -26 -62
-26 -60 0 -236 27 -261 40 -9 6 -55 19 -101 29 -79 19 -271 101 -284 122 -3 5
-23 21 -45 34 -21 14 -72 58 -112 99 -63 65 -77 86 -106 160 l-34 86 28 75
c16 45 47 101 78 141 55 71 152 148 177 140 8 -3 53 -19 99 -35z"/>
</g>
</svg>
