<?xml version="1.0" standalone="no"?>
<!DOCTYPE svg PUBLIC "-//W3C//DTD SVG 20010904//EN"
 "http://www.w3.org/TR/2001/REC-SVG-20010904/DTD/svg10.dtd">
<svg version="1.0" xmlns="http://www.w3.org/2000/svg"
 width="408.000000pt" height="288.000000pt" viewBox="0 0 408.000000 288.000000"
 preserveAspectRatio="xMidYMid meet">
<metadata>
Created by potrace 1.16, written by Peter Selinger 2001-2019
</metadata>
<rect x="0" y="0" width="408" height="288" fill="#ffffff"/>
<g transform="translate(0.000000,288.000000) scale(0.100000,-0.100000)"
fill="#000000" stroke="none">
<path d="M1940 2825 c-14 -7 -81 -16 -155 -19 -141 -8 -243 -24 -374 -62 -46
-13 -92 -24 -103 -24 -11 0 -56 -16 -100 -35 -45 -20 -104 -41 -132 -46 -28
-6 -69 -23 -91 -38 -22 -16 -63 -36 -92 -45 -28 -9 -57 -24 -65 -33 -7 -9 -36
-27 -65 -39 -66 -29 -178 -110 -291 -209 -81 -71 -214 -220 -235 -263 -9 -20
-26 -45 -37 -57 -10 -11 -26 -38 -35 -59 -9 -21 -27 -55 -40 -75 -13 -20 -35
-85 -50 -146 -19 -77 -34 -118 -51 -136 -22 -23 -24 -33 -24 -133 0 -98 2
-110 24 -139 13 -18 34 -63 46 -102 31 -98 80 -182 165 -283 86 -104 106 -122
208 -193 44 -30 100 -69 125 -88 25 -18 61 -40 81 -48 19 -8 49 -25 65 -38 17
-13 51 -31 76 -41 25 -9 56 -25 70 -35 29 -19 188 -91 265 -118 28 -10 70 -28
94 -40 41 -21 114 -48 286 -106 44 -15 112 -40 150 -55 39 -15 93 -31 120 -35
71 -11 113 -30 127 -59 11 -26 12 -26 129 -26 l119 0 6 26 c13 50 -3 189 -35
298 -34 119 -43 257 -18 273 6 4 111 6 232 4 172 -2 233 0 280 12 33 8 101 18
150 21 95 7 226 34 310 65 28 10 70 22 95 26 25 4 65 20 90 35 25 16 65 33 90
40 25 6 63 24 85 39 22 15 54 33 72 40 17 7 40 22 50 33 10 11 38 31 63 43 43
22 282 252 303 291 5 11 21 36 35 56 13 21 33 68 43 105 13 48 27 76 49 95
l30 28 0 164 0 164 -28 30 c-18 19 -37 58 -50 105 -12 40 -30 85 -40 98 -10
13 -30 44 -44 69 -49 83 -235 258 -343 320 -24 14 -52 33 -62 43 -11 9 -42 24
-69 34 -27 9 -67 29 -89 44 -22 15 -60 33 -85 39 -24 7 -69 24 -100 40 -30 15
-89 33 -130 40 -41 6 -109 22 -150 35 -90 28 -188 42 -342 51 -62 3 -133 12
-158 20 -61 19 -413 19 -450 -1z m590 -291 c47 -8 99 -19 115 -24 17 -6 77
-16 135 -25 58 -8 134 -26 170 -40 36 -14 94 -33 130 -41 36 -9 88 -28 115
-44 28 -15 68 -33 90 -40 42 -14 69 -30 250 -153 94 -64 207 -207 235 -297 10
-30 27 -75 39 -100 29 -63 27 -131 -5 -200 -14 -30 -33 -77 -41 -103 -40 -132
-256 -349 -428 -431 -27 -13 -58 -33 -69 -44 -11 -13 -41 -26 -75 -33 -31 -6
-76 -24 -99 -39 -24 -16 -69 -34 -100 -40 -32 -6 -97 -25 -147 -41 -68 -23
-127 -34 -240 -45 -82 -8 -169 -19 -193 -24 -23 -6 -98 -10 -166 -10 -154 0
-151 -2 -151 129 0 81 5 111 34 198 32 99 35 104 113 182 l79 80 94 21 c51 12
120 25 152 30 32 4 71 13 86 19 16 6 61 11 101 11 40 0 122 5 182 11 99 10
118 15 210 59 101 49 101 49 150 127 l49 78 -2 82 c-2 75 -5 87 -34 130 -49
74 -129 151 -184 179 -27 14 -66 34 -85 44 -19 11 -47 20 -61 20 -14 0 -59 8
-100 18 -214 54 -177 50 -590 58 -312 6 -456 -5 -543 -41 -21 -9 -78 -25 -127
-35 -49 -11 -109 -31 -132 -45 -24 -14 -64 -31 -88 -38 -25 -8 -64 -28 -88
-45 -24 -18 -50 -32 -57 -32 -7 0 -32 -15 -57 -34 -24 -19 -54 -39 -66 -45
-41 -23 -146 -123 -166 -160 -11 -21 -32 -53 -47 -72 -37 -49 -70 -160 -70
-244 -1 -131 56 -281 146 -384 41 -46 205 -171 257 -195 30 -14 70 -34 89 -45
63 -36 171 -81 234 -97 108 -27 290 -86 314 -100 27 -17 29 -58 8 -184 -16
-99 -29 -137 -58 -168 -26 -27 -48 -28 -119 -3 -30 11 -100 29 -155 40 -54 11
-139 34 -189 51 -49 17 -117 38 -150 46 -32 9 -77 26 -100 39 -22 13 -64 30
-94 39 -30 9 -73 27 -98 41 -24 14 -60 32 -81 39 -20 8 -61 30 -91 50 -29 20
-58 36 -63 36 -9 0 -34 17 -178 122 -145 107 -215 188 -294 339 -55 106 -70
180 -63 308 4 80 11 111 35 167 17 38 33 81 37 95 4 14 23 47 43 71 20 25 45
59 55 74 70 114 150 204 232 260 106 73 121 83 152 108 17 15 53 36 80 48 26
11 62 31 78 44 17 12 50 27 75 34 25 6 70 24 100 40 31 16 74 32 95 36 22 4
84 22 138 40 54 18 119 36 145 39 75 10 263 44 312 57 104 28 632 29 790 2z
m-205 -533 c153 -9 221 -17 290 -36 50 -13 126 -32 170 -41 72 -14 195 -65
231 -95 21 -17 17 -47 -10 -64 -21 -14 -76 -23 -286 -44 -41 -5 -142 -18 -225
-30 -202 -30 -274 -64 -399 -190 -48 -48 -98 -110 -112 -137 -14 -27 -32 -62
-40 -77 -19 -34 -33 -178 -34 -336 0 -139 -7 -151 -85 -151 -28 0 -89 12 -136
26 -46 14 -120 36 -164 49 -181 51 -419 207 -485 318 -17 29 -41 68 -53 87
-19 31 -22 49 -22 146 0 111 0 111 36 165 74 110 219 238 294 258 22 6 57 22
77 36 20 14 61 30 90 36 29 6 80 21 114 34 60 23 139 37 304 54 93 10 146 9
445 -8z"/>
</g>
</svg>
