<?xml version="1.0" standalone="no"?>
<!DOCTYPE svg PUBLIC "-//W3C//DTD SVG 20010904//EN"
 "http://www.w3.org/TR/2001/REC-SVG-20010904/DTD/svg10.dtd">
<svg version="1.0" xmlns="http://www.w3.org/2000/svg"
 width="416.000000pt" height="584.000000pt" viewBox="0 0 416.000000 584.000000"
 preserveAspectRatio="xMidYMid meet">
<metadata>
Created by potrace 1.16, written by Peter Selinger 2001-2019
</metadata>
<rect x="0" y="0" width="416" height="584" fill="#ffffff"/>
<g transform="translate(0.000000,584.000000) scale(0.100000,-0.100000)"
fill="#000000" stroke="none">
<path d="M1972 5763 c-26 -5 -87 -65 -109 -107 -21 -40 -10 -125 22 -180 37
-64 66 -146 59 -168 -8 -25 -53 -44 -129 -53 -32 -4 -86 -15 -120 -26 -33 -10
-98 -23 -145 -28 -48 -6 -126 -25 -180 -44 -52 -19 -115 -38 -140 -42 -25 -4
-65 -20 -90 -35 -25 -16 -65 -33 -90 -40 -25 -6 -63 -24 -85 -40 -22 -15 -59
-33 -81 -39 -23 -6 -53 -22 -66 -36 -14 -14 -46 -34 -71 -45 -25 -11 -49 -25
-53 -31 -3 -6 -30 -26 -58 -44 -61 -39 -316 -287 -316 -307 0 -7 -13 -29 -29
-48 -15 -19 -36 -51 -46 -70 -10 -19 -30 -51 -45 -70 -15 -19 -36 -62 -48 -95
-11 -33 -30 -85 -41 -115 -10 -30 -26 -102 -35 -160 -16 -107 -16 -118 15
-285 36 -191 244 -446 492 -602 15 -10 51 -35 79 -55 27 -21 55 -38 62 -38 6
0 37 -18 70 -40 32 -22 64 -40 70 -40 7 0 34 -14 61 -31 28 -17 68 -38 89 -46
22 -7 61 -26 86 -42 25 -16 62 -34 83 -41 21 -6 66 -29 100 -50 55 -33 69 -48
120 -134 47 -78 73 -108 130 -153 42 -34 93 -64 125 -75 29 -9 66 -28 82 -42
19 -15 49 -27 82 -31 78 -11 102 -27 127 -84 32 -75 36 -107 17 -136 -16 -24
-20 -25 -134 -26 -132 -1 -157 -4 -366 -49 -107 -23 -167 -41 -213 -66 -36
-19 -73 -34 -84 -34 -10 0 -36 -15 -56 -34 -21 -18 -54 -42 -74 -52 -20 -11
-60 -44 -88 -75 -109 -120 -139 -279 -86 -446 22 -68 33 -86 87 -141 108 -109
122 -121 158 -134 19 -6 53 -24 74 -40 21 -15 43 -28 49 -28 5 0 45 -16 89
-36 83 -37 269 -77 433 -93 95 -10 171 -35 189 -65 8 -11 19 -57 25 -101 12
-76 11 -87 -18 -215 -17 -74 -34 -162 -37 -196 l-7 -62 62 -61 c34 -34 66 -61
71 -61 5 0 35 25 66 56 l56 57 -4 71 c-3 39 -15 103 -27 141 -26 86 -40 229
-30 303 14 105 57 133 239 158 69 9 154 28 190 42 36 13 95 35 133 48 37 13
82 34 100 47 17 14 48 30 68 36 20 6 47 23 60 37 13 14 42 35 64 46 67 34 226
210 249 275 7 21 23 54 35 73 18 30 21 51 21 144 l0 109 -42 76 c-44 81 -124
168 -179 197 -19 9 -50 31 -70 49 -20 18 -52 36 -70 40 -19 4 -54 20 -79 35
-25 16 -67 34 -95 41 -27 7 -75 24 -105 39 -30 15 -100 37 -155 49 -55 12
-127 30 -160 40 -33 10 -79 24 -102 30 -48 13 -69 41 -54 70 14 25 32 31 99
31 31 0 100 12 152 26 52 14 116 31 142 38 26 7 63 27 83 44 19 18 41 32 48
32 7 0 36 24 64 52 81 82 112 201 78 299 -24 70 -35 85 -81 119 -61 44 -73 68
-44 92 12 10 38 18 59 18 20 0 59 9 86 19 28 11 102 27 165 37 81 12 131 25
170 45 31 16 80 33 110 39 30 6 73 23 95 38 23 16 63 36 89 45 27 9 63 27 80
40 17 12 44 28 61 36 42 18 92 61 214 182 132 133 167 176 185 226 8 22 25 62
39 89 44 87 57 244 37 429 -8 70 -18 105 -44 155 -18 36 -37 76 -41 90 -20 65
-247 309 -325 350 -19 10 -44 28 -55 40 -11 12 -44 33 -73 46 -29 13 -64 32
-78 43 -14 11 -49 27 -77 35 -29 8 -67 26 -85 40 -19 14 -61 29 -100 37 -36 6
-93 25 -127 40 -38 18 -91 32 -145 39 -47 5 -101 14 -120 20 -19 5 -49 10 -66
10 -17 0 -59 9 -93 20 -34 11 -79 19 -99 19 -20 0 -113 3 -205 7 -188 7 -203
13 -194 70 3 17 22 57 43 88 33 51 38 65 42 135 5 93 -7 124 -69 166 -34 25
-53 30 -108 31 -36 1 -76 0 -89 -3z m298 -773 c19 -6 78 -12 130 -14 229 -10
352 -26 462 -61 59 -19 122 -35 140 -35 18 0 60 -12 93 -26 33 -15 94 -39 135
-54 41 -14 93 -39 114 -53 21 -15 45 -27 52 -27 7 0 28 -13 46 -29 18 -15 52
-38 75 -49 69 -36 218 -205 275 -313 l50 -94 -4 -135 -3 -135 -49 -90 c-41
-77 -67 -108 -174 -214 -85 -83 -141 -130 -172 -143 -25 -11 -56 -30 -70 -42
-14 -13 -47 -31 -73 -39 -26 -9 -61 -27 -77 -41 -18 -15 -53 -29 -87 -35 -32
-6 -83 -24 -115 -41 -40 -21 -85 -34 -160 -45 -56 -8 -140 -27 -185 -41 -76
-24 -97 -26 -290 -27 l-208 -2 -25 49 c-35 72 -37 140 -6 276 21 97 30 119 54
140 16 14 36 37 45 52 10 15 32 35 50 44 17 9 44 27 58 41 31 28 90 39 304 53
256 18 349 28 444 50 110 24 99 19 174 84 76 66 89 92 95 197 8 142 -5 175
-105 274 -46 46 -94 87 -106 91 -12 3 -53 19 -90 36 -73 31 -192 58 -262 58
-23 0 -62 7 -85 15 -26 9 -75 14 -129 14 -47 -1 -99 4 -116 11 -16 6 -87 12
-156 13 -153 2 -160 6 -183 109 -23 100 -21 134 9 163 27 27 66 32 125 15z
m-310 -30 c28 -15 32 -54 14 -127 -30 -122 -80 -182 -151 -183 -62 -1 -187
-30 -250 -58 -38 -17 -81 -33 -98 -37 -16 -3 -48 -19 -70 -34 -22 -16 -58 -34
-80 -41 -22 -7 -56 -25 -75 -40 -19 -15 -49 -34 -65 -43 -40 -20 -212 -193
-221 -220 -3 -12 -23 -49 -43 -81 l-36 -59 0 -146 0 -146 44 -87 c53 -107 116
-182 209 -250 84 -63 185 -128 196 -128 5 0 38 -15 75 -34 36 -18 98 -43 136
-55 39 -13 100 -37 135 -54 54 -27 65 -36 65 -57 0 -22 -7 -27 -60 -40 -72
-18 -168 -76 -236 -144 -40 -40 -53 -47 -76 -43 -104 19 -189 42 -263 71 -47
19 -96 37 -110 41 -61 18 -257 120 -354 184 -21 14 -56 37 -77 51 -64 43 -187
159 -246 233 -89 111 -143 262 -143 397 0 62 7 95 39 185 21 61 49 128 62 150
13 22 31 52 39 66 81 142 290 347 423 415 18 10 46 27 62 39 17 12 51 29 77
38 26 9 63 27 81 41 18 14 58 30 88 37 29 6 71 23 92 37 26 17 69 31 135 44
53 9 140 29 192 43 52 14 146 30 209 35 63 6 117 13 120 16 8 9 139 -4 161
-16z m346 -524 c27 -8 110 -19 184 -26 190 -16 266 -29 332 -56 31 -13 76 -26
100 -30 74 -11 107 -38 108 -85 0 -15 -6 -31 -13 -37 -17 -15 -152 -42 -205
-42 -62 0 -228 -28 -297 -50 -33 -10 -85 -24 -115 -30 -30 -6 -80 -26 -110
-45 -30 -19 -60 -35 -67 -35 -20 0 -128 -110 -152 -155 -11 -22 -30 -51 -41
-65 -22 -28 -45 -125 -66 -280 -17 -124 -39 -216 -60 -247 -17 -27 -61 -30
-103 -9 -15 8 -67 22 -116 31 -49 9 -114 28 -144 42 -31 14 -80 33 -108 43
-29 11 -68 30 -85 43 -18 14 -48 32 -65 41 -167 84 -283 257 -283 420 0 64 5
82 35 142 49 98 163 210 243 238 22 8 57 26 79 40 21 13 61 30 88 37 28 6 73
24 101 40 39 22 73 31 149 40 55 6 111 17 126 25 39 19 56 18 113 -11 73 -37
161 -35 241 5 70 35 66 34 131 16z m10 -1407 c43 -6 98 -21 124 -34 25 -13 65
-28 88 -34 31 -9 61 -30 107 -76 80 -79 84 -105 28 -184 -31 -43 -50 -58 -98
-78 -119 -50 -162 -61 -264 -68 l-104 -7 -42 45 c-54 59 -102 68 -193 38 -34
-12 -71 -21 -82 -21 -62 0 -180 102 -180 155 0 25 58 105 108 150 36 31 152
84 187 85 11 1 40 9 65 20 53 21 145 25 256 9z m-756 -407 c12 -10 37 -43 54
-72 28 -48 38 -56 78 -68 35 -10 51 -21 67 -47 19 -33 23 -35 74 -35 55 0 77
-12 77 -42 0 -51 -107 -42 -135 11 -12 24 -23 30 -65 36 -40 5 -59 15 -85 41
-19 19 -41 34 -48 34 -33 0 -104 124 -85 147 15 18 42 16 68 -5z m701 -507
c33 -14 95 -33 137 -41 42 -9 96 -26 119 -39 24 -13 68 -31 100 -40 31 -9 72
-27 92 -41 20 -13 40 -24 46 -24 20 0 172 -96 222 -140 28 -25 68 -72 89 -105
35 -54 39 -66 39 -125 0 -71 -9 -89 -110 -227 -38 -52 -51 -63 -75 -63 -37 0
-40 12 -37 125 1 78 -1 95 -20 125 -12 19 -33 55 -47 80 -44 82 -211 221 -301
251 -28 9 -73 28 -100 42 -29 15 -91 33 -145 42 -125 22 -146 30 -161 68 -17
41 -17 100 0 121 20 24 82 20 152 -9z m-329 -272 c15 -15 28 -37 28 -49 0 -28
-43 -126 -63 -142 -8 -7 -69 -24 -134 -37 -73 -16 -127 -33 -143 -45 -14 -11
-47 -35 -75 -54 -64 -42 -74 -55 -123 -147 -50 -94 -64 -178 -37 -228 9 -18
15 -42 13 -54 -2 -18 -9 -22 -35 -21 -17 1 -44 11 -60 22 -15 11 -47 25 -71
32 -24 8 -72 38 -111 71 -58 49 -72 68 -95 123 -32 80 -32 102 -4 178 38 106
118 174 313 267 137 65 247 90 403 92 37 0 76 4 87 9 39 17 78 11 107 -17z
m403 -40 c33 -13 87 -34 120 -45 33 -11 69 -28 80 -38 11 -9 36 -26 56 -38 47
-28 129 -116 161 -172 27 -47 43 -150 32 -196 -10 -40 -40 -29 -77 29 -41 62
-152 171 -187 182 -14 4 -44 21 -66 37 -31 22 -68 35 -138 49 -53 10 -110 25
-125 34 -68 35 -101 163 -48 185 33 14 124 2 192 -27z m-18 -437 c81 -15 126
-38 215 -106 65 -50 50 -161 -26 -202 -10 -6 -64 -16 -120 -24 -56 -7 -119
-16 -142 -20 -38 -6 -44 -3 -91 39 -42 37 -60 46 -105 51 -71 9 -91 0 -136
-59 -41 -55 -98 -83 -144 -72 -35 9 -145 102 -163 138 -8 15 -15 47 -15 70 0
34 6 47 33 72 57 54 127 90 211 109 70 16 90 17 148 7 58 -10 73 -10 105 4 43
18 101 17 230 -7z"/>
</g>
</svg>
