<?xml version="1.0" standalone="no"?>
<!DOCTYPE svg PUBLIC "-//W3C//DTD SVG 20010904//EN"
 "http://www.w3.org/TR/2001/REC-SVG-20010904/DTD/svg10.dtd">
<svg version="1.0" xmlns="http://www.w3.org/2000/svg"
 width="408.000000pt" height="408.000000pt" viewBox="0 0 408.000000 408.000000"
 preserveAspectRatio="xMidYMid meet">
<metadata>
Created by potrace 1.16, written by Peter Selinger 2001-2019
</metadata>
<rect x="0" y="0" width="408" height="408" fill="#ffffff"/>
<g transform="translate(0.000000,408.000000) scale(0.100000,-0.100000)"
fill="#000000" stroke="none">
<path d="M2000 4011 c-58 -24 -68 -32 -88 -74 -40 -78 -39 -114 2 -211 53
-123 35 -166 -71 -166 -28 0 -63 -4 -78 -10 -14 -5 -81 -16 -148 -24 -77 -10
-155 -26 -212 -46 -49 -16 -119 -35 -155 -41 -38 -7 -83 -23 -110 -39 -25 -16
-65 -33 -90 -40 -25 -6 -63 -24 -85 -39 -22 -16 -63 -36 -92 -45 -28 -9 -57
-24 -64 -32 -7 -9 -34 -26 -59 -39 -25 -13 -52 -31 -60 -40 -7 -9 -32 -26 -54
-37 -46 -22 -61 -35 -194 -168 -51 -50 -109 -117 -130 -147 -148 -220 -152
-226 -152 -242 0 -7 -15 -48 -34 -90 -46 -103 -63 -255 -46 -421 10 -104 15
-123 56 -206 37 -75 63 -111 146 -199 103 -108 174 -169 252 -215 23 -14 55
-35 70 -47 15 -12 44 -27 64 -34 20 -6 55 -24 77 -40 22 -15 54 -31 70 -35 17
-4 62 -24 101 -45 39 -22 79 -39 90 -39 10 0 55 -16 98 -35 43 -19 104 -39
135 -46 31 -6 81 -22 111 -36 30 -13 84 -31 120 -39 36 -8 99 -26 140 -39 41
-14 116 -34 165 -45 139 -33 205 -59 224 -91 14 -23 16 -55 15 -211 -3 -248
-15 -379 -40 -413 -44 -63 -54 -81 -54 -100 0 -32 27 -63 63 -70 46 -10 77
-32 77 -55 0 -17 7 -20 44 -20 39 0 47 4 58 28 8 17 37 40 79 62 37 19 81 44
99 55 58 35 181 147 236 213 67 82 89 161 73 262 -12 79 -19 91 -88 163 -69
72 -214 159 -294 176 -32 7 -70 23 -85 36 -26 22 -27 28 -32 143 -3 78 -10
125 -18 135 -20 23 -11 59 18 75 18 9 49 12 107 8 46 -3 176 -1 289 5 173 8
216 13 277 34 40 13 117 31 172 40 64 10 115 25 142 41 23 13 72 31 110 40 37
8 84 26 103 39 19 13 55 31 79 40 25 8 58 26 75 39 17 13 46 31 64 40 49 25
196 141 253 199 78 79 156 197 180 273 13 41 34 81 51 97 l28 29 0 179 0 180
-29 25 c-17 14 -32 33 -35 42 -3 9 -9 35 -15 57 -25 96 -199 314 -299 375 -15
9 -33 25 -41 34 -8 10 -28 24 -45 33 -17 9 -47 28 -66 43 -19 15 -53 33 -75
40 -22 7 -62 28 -89 47 -26 18 -59 33 -71 33 -13 0 -53 16 -90 35 -38 21 -98
42 -141 50 -40 8 -106 25 -144 39 -39 14 -112 31 -163 36 -51 6 -119 15 -152
21 -33 6 -96 15 -140 19 -136 14 -249 32 -262 43 -21 15 -15 47 22 136 19 45
35 90 35 98 0 24 -41 131 -54 142 -15 12 -140 61 -152 60 -5 -1 -38 -13 -74
-28z m458 -703 c18 -5 63 -11 100 -13 148 -8 282 -26 372 -50 52 -14 127 -32
165 -39 84 -18 100 -23 145 -52 19 -12 59 -27 89 -33 30 -6 70 -24 90 -39 20
-16 51 -34 70 -42 18 -7 51 -28 73 -47 22 -18 44 -33 48 -33 16 0 138 -114
177 -165 22 -27 60 -93 86 -145 54 -111 64 -171 48 -304 -8 -72 -18 -103 -51
-168 -93 -179 -184 -276 -401 -427 -52 -36 -84 -52 -100 -49 -30 4 -30 20 7
155 l28 101 -23 99 c-27 111 -35 128 -94 200 -44 53 -141 143 -156 143 -4 0
-28 16 -53 34 -25 19 -58 38 -74 42 -16 3 -60 20 -97 36 -73 31 -193 58 -262
58 -23 0 -62 7 -86 15 -32 12 -78 15 -164 14 -127 -2 -151 5 -265 71 -54 32
-102 15 -196 -72 -23 -21 -47 -31 -95 -39 -35 -6 -86 -23 -114 -39 -27 -15
-79 -34 -115 -40 -36 -7 -87 -25 -115 -40 -27 -16 -69 -33 -91 -39 -23 -6 -59
-25 -80 -42 -22 -17 -53 -37 -71 -44 -18 -8 -83 -65 -146 -127 -97 -96 -122
-128 -168 -213 l-54 -100 0 -155 0 -155 37 -59 c56 -89 49 -134 -15 -100 -17
9 -50 26 -72 37 -22 11 -49 28 -60 38 -11 10 -38 26 -60 35 -22 9 -57 30 -77
48 -20 17 -62 51 -93 76 -106 86 -207 200 -226 258 -6 20 -25 60 -41 88 -36
65 -44 129 -28 225 13 79 79 251 109 284 10 11 27 36 36 55 10 19 32 53 49 75
44 55 218 229 252 251 16 11 48 33 71 50 22 17 53 34 68 38 15 4 43 18 61 32
18 14 55 34 82 44 27 11 66 30 86 44 20 13 59 29 87 35 28 6 81 24 118 40 36
16 96 34 132 40 36 6 92 20 124 31 78 27 199 48 321 56 95 6 103 5 123 -15 28
-28 27 -56 -6 -127 -69 -151 -1 -287 136 -271 38 4 52 12 79 43 54 62 59 96
26 184 -37 100 -43 181 -16 208 18 18 30 20 128 15 60 -3 124 -9 142 -15z
m-30 -952 c86 -19 173 -38 192 -41 19 -4 54 -17 77 -30 23 -13 65 -31 92 -40
27 -9 66 -29 87 -46 20 -16 41 -29 46 -29 19 0 122 -107 139 -145 25 -53 24
-73 -7 -150 -22 -55 -37 -75 -96 -125 -38 -33 -86 -67 -106 -76 -20 -8 -48
-26 -62 -39 -14 -13 -45 -29 -70 -35 -25 -7 -72 -25 -105 -41 -72 -34 -198
-54 -342 -54 -99 0 -103 1 -132 29 -43 41 -46 58 -19 113 22 47 23 56 24 353
1 300 5 340 36 377 17 21 78 15 246 -21z m-428 -42 c12 -12 15 -44 15 -157 0
-100 4 -149 13 -166 10 -16 15 -74 16 -195 2 -94 6 -183 10 -198 7 -24 4 -30
-25 -47 -46 -28 -95 -26 -181 8 -40 15 -91 34 -113 41 -22 7 -54 23 -71 35
-16 13 -46 30 -66 38 -60 25 -151 126 -176 194 -29 78 -28 98 7 175 32 72 133
175 191 197 48 18 70 28 105 51 32 20 205 51 240 43 11 -3 27 -12 35 -19z
m-748 -224 c-16 -130 -14 -178 14 -260 30 -91 81 -158 184 -241 94 -76 333
-178 480 -205 42 -8 68 -20 96 -45 19 -17 20 -29 19 -146 -2 -110 -5 -128 -21
-140 -29 -21 -80 -15 -188 21 -56 19 -123 40 -151 46 -27 6 -72 23 -100 37
-27 14 -71 31 -96 38 -25 7 -69 29 -98 49 -29 20 -59 36 -67 36 -7 0 -28 13
-46 29 -18 15 -46 35 -63 44 -54 28 -142 129 -182 207 -33 66 -38 84 -38 145
0 57 6 85 34 150 46 109 102 194 153 233 49 38 74 38 70 2z m1040 -1294 c43
-20 97 -55 132 -87 51 -48 59 -59 63 -101 3 -26 3 -58 -1 -72 -10 -40 -108
-133 -153 -145 -22 -6 -50 -22 -63 -36 -26 -27 -80 -34 -97 -12 -10 12 -28
277 -26 394 1 104 26 114 145 59z"/>
</g>
</svg>
