<?xml version="1.0" standalone="no"?>
<!DOCTYPE svg PUBLIC "-//W3C//DTD SVG 20010904//EN"
 "http://www.w3.org/TR/2001/REC-SVG-20010904/DTD/svg10.dtd">
<svg version="1.0" xmlns="http://www.w3.org/2000/svg"
 width="408.000000pt" height="576.000000pt" viewBox="0 0 408.000000 576.000000"
 preserveAspectRatio="xMidYMid meet">
<metadata>
Created by potrace 1.16, written by Peter Selinger 2001-2019
</metadata>
<rect x="0" y="0" width="408" height="576" fill="#ffffff"/>
<g transform="translate(0.000000,576.000000) scale(0.100000,-0.100000)"
fill="#000000" stroke="none">
<path d="M1941 5725 c-7 -19 -27 -46 -46 -61 -74 -56 -74 -157 2 -268 37 -55
41 -76 16 -99 -21 -18 -112 -36 -148 -29 -14 2 -54 -5 -88 -16 -34 -11 -120
-30 -192 -42 -82 -14 -155 -32 -197 -51 -36 -16 -95 -35 -131 -43 -36 -7 -79
-23 -97 -36 -17 -12 -57 -30 -90 -40 -32 -10 -73 -29 -92 -43 -18 -13 -50 -30
-70 -37 -21 -6 -56 -27 -79 -46 -22 -19 -46 -34 -53 -34 -6 0 -33 -18 -60 -40
-26 -22 -52 -40 -57 -40 -13 0 -216 -206 -267 -270 -84 -108 -109 -146 -154
-240 -25 -52 -51 -120 -57 -150 -17 -81 -50 -177 -67 -190 -10 -9 -14 -36 -14
-102 0 -83 2 -91 25 -111 19 -16 31 -46 49 -119 29 -118 71 -190 181 -312 93
-105 155 -163 199 -189 17 -11 35 -26 40 -34 4 -8 31 -25 60 -38 28 -13 62
-34 75 -49 13 -14 40 -31 60 -37 20 -6 51 -23 70 -37 18 -13 53 -31 77 -38 25
-7 64 -27 87 -43 23 -16 62 -35 87 -41 25 -7 65 -25 90 -40 25 -16 67 -34 95
-40 76 -17 144 -59 185 -115 21 -27 41 -61 45 -74 10 -32 78 -105 124 -133 20
-12 52 -34 71 -49 19 -15 59 -34 88 -42 29 -9 65 -25 81 -36 15 -11 50 -25 77
-31 58 -13 81 -31 105 -85 24 -52 24 -97 0 -126 -19 -23 -25 -24 -203 -30
-191 -7 -173 -3 -441 -78 -37 -10 -84 -29 -105 -43 -20 -13 -53 -30 -72 -38
-19 -7 -48 -25 -65 -40 -16 -15 -44 -35 -62 -44 -18 -9 -40 -28 -50 -42 -10
-14 -31 -41 -46 -59 -40 -48 -87 -186 -87 -255 0 -80 41 -190 92 -252 83 -99
170 -173 230 -194 23 -8 53 -24 65 -36 12 -12 53 -29 90 -39 38 -10 96 -29
130 -43 62 -26 191 -45 313 -46 84 0 130 -17 177 -65 l43 -42 0 -116 c0 -93
-5 -131 -26 -203 -28 -97 -40 -197 -30 -239 5 -20 20 -33 61 -51 l54 -25 51
22 c28 12 57 31 65 43 22 31 18 97 -15 236 -41 170 -42 292 -4 369 15 29 36
56 48 61 11 4 71 12 131 18 87 7 126 16 180 40 39 16 93 35 120 40 49 11 215
89 265 125 14 10 45 31 70 48 124 81 201 167 272 306 42 83 64 188 54 257 -3
23 -25 78 -48 124 -41 81 -93 140 -189 212 -41 31 -201 113 -255 130 -21 7
-64 25 -94 40 -30 15 -99 38 -154 50 -54 12 -117 31 -140 41 -23 10 -76 23
-117 29 -118 18 -148 52 -94 106 22 22 32 25 64 19 60 -10 276 39 326 73 23
16 56 34 74 40 52 18 135 109 165 180 32 77 33 123 1 209 -25 70 -55 105 -152
174 -24 16 -43 34 -43 39 0 19 38 29 145 39 75 7 146 21 223 45 63 20 123 36
135 36 12 0 51 14 87 31 36 17 88 38 115 46 28 8 61 23 75 33 14 10 50 30 80
45 30 15 68 38 84 52 15 13 43 30 60 37 18 7 86 66 152 129 135 130 201 226
228 335 15 59 50 122 68 122 4 0 8 56 8 125 l0 125 -34 50 c-19 28 -40 76 -47
107 -7 30 -23 71 -36 90 -12 18 -30 48 -39 66 -18 35 -41 61 -135 156 -89 88
-118 114 -161 140 -21 12 -38 26 -38 31 0 4 -21 18 -47 31 -27 13 -66 36 -87
51 -21 15 -44 28 -51 28 -6 0 -47 17 -91 39 -43 21 -104 44 -134 51 -30 7 -85
25 -122 41 -36 16 -101 34 -144 40 -43 6 -119 21 -169 34 -117 31 -252 45
-419 45 -109 0 -138 3 -150 16 -24 23 -19 68 9 102 38 46 55 95 55 162 0 66 2
62 -84 139 -14 13 -26 32 -26 42 0 17 -8 19 -88 19 l-88 0 -13 -35z m442 -710
c32 -8 78 -15 102 -15 24 0 97 -9 162 -19 65 -11 150 -22 188 -26 39 -4 93
-17 123 -31 29 -13 90 -30 135 -39 48 -9 97 -25 118 -40 20 -13 63 -31 95 -40
33 -10 75 -29 94 -44 19 -14 48 -32 65 -40 29 -12 51 -29 161 -124 59 -52 118
-117 171 -192 37 -51 83 -200 83 -269 0 -76 -44 -241 -74 -277 -15 -17 -35
-48 -46 -68 -45 -90 -315 -321 -420 -361 -19 -7 -53 -24 -75 -36 -22 -12 -67
-30 -100 -39 -33 -10 -77 -26 -98 -37 -21 -10 -100 -33 -174 -49 -75 -16 -140
-32 -146 -36 -41 -25 -554 -42 -712 -23 -55 6 -131 22 -170 35 -38 12 -94 26
-124 30 -29 4 -100 25 -156 46 -57 21 -110 39 -118 39 -8 0 -33 14 -55 30 -23
17 -64 39 -91 49 -28 10 -67 33 -88 50 -21 17 -44 31 -51 31 -7 0 -75 62 -151
139 -111 112 -139 146 -150 182 -7 24 -24 67 -39 94 -23 45 -26 64 -31 197 -7
169 -7 169 -100 206 -68 28 -81 27 -141 -3 -76 -39 -85 -59 -85 -195 0 -111 1
-119 32 -181 18 -35 40 -84 48 -109 9 -24 24 -54 34 -65 10 -11 25 -32 32 -47
16 -31 162 -182 235 -244 27 -23 68 -51 91 -62 23 -12 45 -27 49 -33 3 -6 32
-22 62 -36 31 -13 68 -35 84 -48 15 -13 51 -28 80 -34 29 -7 72 -23 96 -37 23
-14 71 -31 105 -38 34 -8 90 -23 124 -35 34 -11 71 -21 81 -21 27 0 72 -38 72
-60 0 -23 -16 -36 -65 -49 -48 -12 -148 -87 -201 -149 -50 -59 -75 -67 -129
-43 -24 10 -58 22 -76 26 -19 4 -55 18 -81 31 -26 13 -74 34 -105 45 -32 12
-73 32 -90 46 -18 13 -52 31 -75 39 -24 8 -54 26 -68 39 -14 13 -41 31 -61 39
-20 8 -50 26 -65 39 -16 13 -46 33 -68 45 -41 24 -62 42 -169 149 -107 107
-117 119 -142 172 -13 27 -29 52 -35 56 -42 26 -70 230 -51 378 14 109 35 156
148 329 43 67 207 240 293 309 25 20 63 45 86 57 22 11 46 27 53 36 7 8 38 25
68 36 30 11 69 31 86 44 18 14 55 30 82 36 28 7 69 23 93 37 23 13 79 32 125
42 45 10 102 28 127 38 62 27 80 31 234 48 74 8 147 20 161 25 14 6 46 10 71
10 60 0 89 -28 80 -79 -34 -206 -32 -267 14 -313 25 -24 36 -28 88 -28 72 0
103 20 127 84 16 41 16 51 1 137 -34 197 -21 229 92 229 37 0 94 -7 125 -15z
m-33 -1975 c113 -11 251 -80 314 -156 68 -84 66 -95 -54 -227 -4 -5 -33 -15
-64 -23 -30 -8 -71 -23 -88 -34 -37 -21 -195 -44 -238 -35 -15 3 -37 20 -49
36 -42 56 -119 73 -201 44 -23 -8 -61 -15 -83 -15 -36 0 -47 6 -104 63 -71 72
-78 97 -42 157 33 55 70 90 124 117 28 14 62 34 78 45 15 11 63 26 110 33 79
13 132 12 297 -5z m-763 -417 c30 -48 133 -143 155 -143 11 0 34 -15 52 -34
20 -21 45 -36 68 -40 46 -8 66 -37 42 -60 -16 -17 -52 -21 -69 -8 -6 4 -18 19
-28 35 -13 20 -26 27 -48 27 -38 0 -60 12 -123 64 -116 96 -150 151 -108 175
27 16 40 13 59 -16z m694 -487 c26 -8 60 -21 75 -29 16 -8 67 -24 114 -37 47
-12 106 -32 133 -45 26 -14 65 -29 87 -35 37 -10 97 -42 181 -97 70 -46 170
-139 207 -193 34 -51 37 -61 37 -125 0 -74 -6 -87 -102 -204 -15 -19 -36 -47
-45 -63 -19 -30 -60 -39 -75 -15 -4 6 -8 62 -8 122 l0 111 -42 69 c-63 105
-201 230 -283 256 -19 7 -51 22 -71 35 -20 12 -79 34 -130 48 -240 64 -259 73
-259 123 0 29 25 79 42 86 25 10 94 7 139 -7z m-356 -250 c35 -15 35 -15 35
-79 0 -84 -27 -128 -85 -140 -40 -8 -73 -18 -200 -63 -92 -32 -214 -139 -241
-212 -10 -26 -27 -62 -37 -80 -23 -40 -24 -94 -2 -149 17 -43 17 -89 0 -86
-14 3 -114 42 -150 60 -130 61 -235 192 -235 293 0 58 32 125 89 183 58 60
167 139 211 152 14 4 50 20 80 35 33 16 95 34 152 44 54 9 109 21 123 26 15 6
54 10 88 11 34 1 73 5 87 9 37 12 47 11 85 -4z m374 -51 c46 -8 102 -25 125
-38 22 -14 58 -30 79 -37 21 -6 58 -27 82 -45 24 -19 57 -41 73 -49 27 -14 62
-63 117 -164 26 -49 27 -147 2 -185 -10 -15 -23 -25 -29 -21 -5 4 -21 32 -35
63 -26 61 -90 133 -138 158 -16 9 -46 28 -65 43 -31 24 -101 49 -274 96 -56
16 -72 27 -92 65 -14 29 -19 85 -8 113 8 20 53 21 163 1z m5 -443 c24 -11 63
-23 87 -27 56 -9 73 -19 125 -69 75 -72 83 -129 26 -186 -31 -31 -49 -40 -112
-53 -41 -9 -108 -18 -149 -22 l-74 -5 -38 41 c-35 38 -45 43 -94 47 -89 7
-122 -3 -152 -49 -29 -44 -68 -69 -106 -69 -69 0 -207 101 -222 162 -12 46 11
91 71 141 31 26 68 50 83 53 14 3 62 17 107 31 76 24 82 25 112 9 42 -22 91
-20 127 5 25 17 40 20 97 15 37 -3 87 -14 112 -24z"/>
</g>
</svg>
