<?xml version="1.0" standalone="no"?>
<!DOCTYPE svg PUBLIC "-//W3C//DTD SVG 20010904//EN"
 "http://www.w3.org/TR/2001/REC-SVG-20010904/DTD/svg10.dtd">
<svg version="1.0" xmlns="http://www.w3.org/2000/svg"
 width="400.000000pt" height="296.000000pt" viewBox="0 0 400.000000 296.000000"
 preserveAspectRatio="xMidYMid meet">
<metadata>
Created by potrace 1.16, written by Peter Selinger 2001-2019
</metadata>
<rect x="0" y="0" width="400" height="296" fill="#ffffff"/>
<g transform="translate(0.000000,296.000000) scale(0.100000,-0.100000)"
fill="#000000" stroke="none">
<path d="M1835 2825 c-22 -7 -108 -17 -190 -23 -124 -9 -166 -16 -238 -41 -49
-17 -116 -35 -150 -42 -34 -6 -91 -23 -127 -39 -36 -15 -89 -35 -118 -44 -29
-8 -64 -24 -78 -35 -14 -11 -49 -27 -77 -37 -29 -9 -72 -32 -96 -51 -24 -18
-50 -33 -56 -33 -7 0 -31 -15 -54 -32 -42 -34 -92 -72 -166 -123 -68 -48 -203
-194 -249 -270 -10 -16 -29 -41 -42 -55 -13 -14 -30 -45 -38 -68 -9 -24 -24
-56 -35 -70 -11 -15 -29 -63 -42 -106 -14 -49 -33 -89 -51 -108 l-28 -30 0
-173 0 -174 30 -21 c21 -15 34 -38 49 -85 10 -35 40 -95 65 -134 53 -79 263
-286 312 -307 18 -7 45 -24 60 -37 16 -13 49 -35 74 -47 25 -13 59 -33 76 -46
17 -13 35 -24 41 -24 5 0 35 -16 67 -35 32 -19 81 -42 108 -50 27 -8 73 -28
101 -44 29 -16 68 -32 87 -36 19 -4 69 -22 110 -40 41 -19 101 -41 134 -50 32
-10 73 -25 90 -35 17 -10 60 -26 96 -35 36 -9 85 -29 110 -45 25 -16 65 -34
90 -40 25 -7 57 -21 73 -32 15 -11 54 -30 85 -42 40 -15 63 -32 77 -54 14 -22
28 -31 48 -32 16 0 27 5 27 13 0 22 31 44 80 57 94 25 101 62 40 237 -39 114
-40 118 -40 258 0 78 5 156 11 174 13 37 46 56 111 66 28 4 65 20 94 41 26 19
53 34 59 34 6 0 29 15 51 33 21 19 54 42 72 53 35 20 82 77 143 173 30 47 43
59 85 73 82 27 173 47 291 63 62 8 147 26 190 40 43 13 119 34 168 45 50 12
104 29 120 38 17 10 53 26 80 36 28 11 61 27 75 36 14 10 45 28 70 40 55 28
166 133 190 180 26 51 60 167 60 204 0 42 -54 198 -88 254 -35 59 -186 217
-237 250 -22 14 -44 31 -49 39 -4 8 -31 25 -60 38 -28 12 -59 32 -70 43 -10
12 -41 29 -69 38 -28 9 -69 29 -89 45 -21 15 -62 33 -91 39 -28 7 -77 25 -107
41 -31 16 -87 33 -130 40 -41 6 -104 22 -140 35 -69 26 -239 53 -331 54 -31 0
-76 7 -99 15 -57 20 -504 20 -565 0z m975 -305 c74 -17 166 -36 204 -41 38 -5
94 -21 125 -35 31 -14 82 -32 114 -40 32 -8 75 -25 95 -39 20 -14 60 -32 88
-41 28 -8 60 -24 70 -36 11 -11 32 -29 48 -38 85 -53 172 -142 226 -232 37
-62 40 -73 40 -140 0 -66 -3 -78 -32 -123 -64 -97 -217 -196 -363 -235 -44
-12 -115 -32 -157 -46 -73 -22 -230 -45 -419 -60 -84 -6 -87 -6 -103 18 -9 13
-20 67 -26 123 -10 85 -18 113 -55 188 -49 102 -153 224 -212 252 -21 10 -56
30 -78 46 -31 21 -63 31 -140 43 -55 9 -129 21 -165 27 -57 9 -78 8 -178 -14
-62 -14 -123 -32 -137 -41 -45 -30 -144 -154 -150 -190 -4 -19 -5 -77 -3 -129
3 -90 5 -97 39 -148 20 -30 44 -68 53 -86 10 -20 35 -42 68 -60 70 -37 103
-101 124 -239 29 -188 29 -209 3 -228 -43 -30 -281 -14 -381 25 -26 10 -77 25
-114 34 -36 8 -79 24 -94 35 -15 11 -47 28 -71 39 -49 21 -201 163 -241 226
-16 24 -37 86 -52 153 l-27 112 20 73 c11 39 22 95 26 124 4 31 16 64 32 85
13 18 36 56 49 83 47 99 145 201 260 271 19 11 44 30 56 41 13 12 46 31 73 43
28 12 59 30 71 41 11 10 49 28 85 40 35 11 94 34 131 50 36 16 78 29 92 29 15
0 75 15 134 34 59 19 118 37 132 40 14 2 156 3 315 1 284 -3 293 -4 425 -35z
m-1656 -136 c9 -3 16 -13 16 -20 0 -8 -48 -63 -107 -122 -130 -130 -164 -172
-193 -240 -12 -28 -28 -56 -36 -62 -7 -7 -18 -37 -24 -68 -6 -31 -20 -97 -31
-147 -24 -113 -24 -189 0 -279 10 -39 23 -92 30 -119 6 -26 24 -66 41 -89 16
-22 30 -47 30 -55 0 -8 33 -45 73 -84 39 -38 83 -81 97 -94 14 -13 43 -32 65
-41 22 -9 54 -29 71 -44 18 -15 55 -33 85 -40 30 -7 79 -26 110 -42 41 -21 81
-31 145 -39 49 -5 114 -17 144 -25 40 -12 75 -14 128 -10 68 6 74 5 97 -18 25
-25 25 -28 25 -181 0 -173 -9 -209 -57 -221 -43 -11 -385 54 -486 92 -49 19
-116 41 -149 49 -33 9 -76 27 -97 40 -20 13 -54 28 -76 34 -22 6 -89 36 -150
67 -60 31 -132 68 -160 82 -27 13 -59 32 -70 42 -11 10 -38 28 -59 40 -51 28
-222 179 -264 233 -90 115 -105 142 -128 229 -25 95 -33 233 -14 268 5 10 17
51 25 91 10 47 25 86 43 108 15 19 38 54 52 77 60 101 186 241 260 289 19 12
46 34 59 49 14 14 30 26 36 26 7 0 32 15 56 33 24 19 61 39 81 46 20 7 53 25
73 41 20 16 60 36 88 45 29 8 70 26 92 40 42 26 53 29 79 19z m1076 -601 c102
-41 145 -79 203 -183 40 -73 42 -78 42 -165 0 -86 -2 -93 -35 -145 -45 -71
-214 -237 -248 -243 -39 -7 -69 8 -74 38 -3 14 3 58 13 97 11 40 19 94 19 122
1 28 7 87 15 131 20 111 10 143 -58 193 -29 21 -73 47 -100 56 -49 19 -67 39
-67 78 0 38 16 52 67 59 71 10 128 0 223 -38z"/>
</g>
</svg>
