<?xml version="1.0" standalone="no"?>
<!DOCTYPE svg PUBLIC "-//W3C//DTD SVG 20010904//EN"
 "http://www.w3.org/TR/2001/REC-SVG-20010904/DTD/svg10.dtd">
<svg version="1.0" xmlns="http://www.w3.org/2000/svg"
 width="408.000000pt" height="536.000000pt" viewBox="0 0 408.000000 536.000000"
 preserveAspectRatio="xMidYMid meet">
<metadata>
Created by potrace 1.16, written by Peter Selinger 2001-2019
</metadata>
<rect x="0" y="0" width="408" height="536" fill="#ffffff"/>
<g transform="translate(0.000000,536.000000) scale(0.100000,-0.100000)"
fill="#000000" stroke="none">
<path d="M1926 5335 c-3 -13 -24 -42 -46 -64 -38 -37 -40 -43 -40 -98 0 -36 6
-70 18 -90 9 -17 27 -50 40 -72 12 -22 25 -67 28 -100 10 -91 3 -95 -192 -108
-134 -10 -173 -16 -249 -42 -49 -17 -118 -36 -154 -42 -36 -5 -94 -23 -127
-39 -34 -16 -83 -34 -110 -40 -27 -6 -67 -23 -89 -39 -22 -15 -61 -35 -87 -44
-26 -8 -62 -27 -80 -40 -18 -14 -51 -32 -73 -42 -22 -9 -51 -27 -65 -39 -14
-13 -41 -32 -60 -41 -19 -10 -53 -32 -74 -49 -61 -48 -239 -229 -259 -262 -17
-29 -41 -65 -94 -138 -60 -84 -119 -217 -133 -301 -6 -38 -18 -92 -26 -119
-20 -70 -18 -191 5 -257 10 -30 21 -71 25 -93 10 -51 75 -176 122 -234 117
-144 340 -330 452 -378 19 -7 51 -27 72 -44 21 -16 42 -30 46 -30 9 0 185 -80
289 -130 62 -30 172 -70 330 -120 50 -16 128 -42 175 -59 47 -17 93 -31 103
-31 10 0 66 -15 125 -34 59 -18 163 -48 232 -65 258 -65 435 -122 519 -166 25
-13 75 -38 111 -55 106 -51 147 -74 172 -96 13 -12 42 -33 65 -47 64 -40 135
-143 168 -242 l29 -85 -29 -88 c-30 -93 -100 -212 -141 -239 -14 -9 -30 -26
-37 -38 -14 -27 -87 -86 -142 -116 -22 -12 -54 -33 -72 -46 -17 -14 -53 -30
-80 -38 -26 -7 -82 -27 -125 -44 -42 -17 -89 -31 -105 -31 -15 -1 -53 -9 -83
-20 -30 -11 -67 -19 -82 -20 -61 0 -62 85 -2 199 33 62 35 74 29 119 -11 84
-99 178 -170 182 -60 4 -73 -1 -133 -47 -71 -54 -87 -87 -80 -170 4 -40 13
-66 37 -99 38 -55 59 -142 43 -179 -17 -37 -67 -41 -212 -16 -273 47 -296 53
-381 92 -47 21 -93 39 -101 39 -25 0 -133 86 -198 158 -48 54 -65 81 -85 143
l-26 77 22 72 c15 49 34 86 63 119 50 59 150 151 164 151 5 0 33 16 60 35 28
19 73 40 99 45 26 6 68 20 93 32 76 34 181 48 382 48 135 0 206 -4 255 -16
103 -24 242 -75 272 -99 14 -12 45 -32 67 -43 24 -12 66 -50 97 -88 59 -71 74
-110 84 -223 7 -86 46 -152 104 -175 53 -21 63 -20 119 10 62 34 75 64 75 174
0 79 -3 92 -43 179 -24 52 -58 112 -75 134 -47 60 -137 147 -191 185 -66 46
-223 110 -309 127 -40 8 -85 19 -100 24 -16 6 -49 11 -74 11 -26 0 -70 8 -100
17 -47 15 -64 15 -141 4 -48 -7 -118 -16 -157 -20 -38 -4 -82 -13 -97 -19 -15
-6 -67 -16 -115 -22 -61 -7 -107 -20 -148 -40 -33 -16 -79 -34 -102 -40 -23
-6 -60 -26 -83 -45 -23 -19 -48 -35 -56 -35 -21 0 -172 -137 -202 -184 -14
-22 -36 -53 -48 -68 -25 -31 -64 -182 -64 -247 0 -64 39 -192 70 -231 15 -20
36 -53 48 -75 11 -22 42 -56 68 -75 131 -96 218 -150 256 -161 24 -6 65 -22
92 -36 28 -14 96 -34 155 -44 58 -11 113 -22 121 -25 18 -7 134 -22 249 -33
122 -12 125 -18 89 -231 -20 -120 -17 -151 18 -196 17 -21 34 -47 37 -56 5
-14 18 -18 56 -18 42 0 52 4 62 23 7 12 27 39 45 60 21 23 34 47 34 65 0 43
-27 204 -39 235 -16 41 -13 82 7 106 16 20 153 55 295 76 27 3 83 21 126 40
42 18 91 36 108 39 17 4 53 23 80 42 26 19 56 34 66 34 18 0 176 138 251 218
23 24 51 65 63 90 13 25 30 53 39 63 15 16 32 73 67 221 11 50 10 57 -28 208
-15 60 -69 150 -122 203 -36 37 -134 117 -144 117 -5 0 -26 15 -46 33 -21 19
-53 39 -72 46 -19 6 -55 24 -80 40 -25 16 -59 33 -76 37 -16 4 -56 20 -87 35
-31 16 -90 37 -130 48 -41 11 -95 29 -120 40 -25 10 -91 28 -148 40 -56 12
-137 32 -179 45 -42 13 -106 29 -141 35 -60 10 -185 47 -370 108 -41 14 -116
37 -165 52 -50 15 -102 35 -116 44 -14 10 -50 24 -79 33 -78 23 -339 153 -445
221 -124 80 -154 104 -252 198 -100 95 -182 201 -198 255 -4 14 -18 45 -31 70
-21 40 -24 60 -25 170 -1 105 1 132 18 170 11 25 27 70 36 100 9 30 28 71 42
90 14 19 35 53 45 75 36 73 101 155 192 238 49 45 97 86 106 91 9 5 40 26 68
47 28 22 56 39 61 39 6 0 34 15 61 34 28 18 70 40 94 48 24 8 60 27 81 41 21
14 60 30 88 36 28 6 82 25 119 41 38 17 102 35 144 41 42 5 102 19 133 30 67
23 210 45 346 54 l97 6 11 -28 c8 -20 8 -47 0 -98 -20 -120 -20 -129 -8 -164
9 -25 24 -41 57 -58 57 -29 70 -28 130 2 66 34 79 73 60 183 -27 159 -21 167
123 166 255 -3 463 -24 587 -59 47 -14 116 -29 153 -34 39 -6 91 -22 120 -37
29 -15 77 -33 107 -40 56 -13 133 -53 218 -112 26 -18 61 -39 77 -46 39 -18
190 -167 222 -220 14 -23 34 -50 44 -62 20 -22 55 -141 69 -238 7 -49 6 -69
-10 -113 -10 -30 -22 -75 -26 -100 -4 -28 -17 -57 -34 -77 -15 -17 -37 -49
-49 -71 -51 -95 -152 -195 -246 -246 -22 -12 -53 -34 -70 -49 -16 -15 -41 -31
-55 -35 -14 -4 -47 -22 -75 -40 -27 -18 -66 -37 -85 -40 -19 -4 -64 -23 -99
-41 -35 -19 -76 -34 -91 -34 -16 0 -56 -9 -91 -20 -170 -51 -353 -75 -589 -74
-230 0 -479 27 -539 59 -16 8 -71 21 -121 30 -60 9 -108 23 -137 40 -24 15
-67 33 -95 42 -29 8 -66 26 -83 39 -17 13 -50 30 -73 38 -23 8 -63 31 -88 51
-26 19 -52 35 -59 35 -6 0 -67 55 -134 122 -111 110 -127 130 -166 212 -56
118 -65 154 -65 254 0 46 -4 92 -10 102 -5 10 -33 37 -62 60 -49 39 -57 42
-100 38 -89 -9 -158 -85 -158 -173 1 -94 27 -242 48 -273 12 -16 30 -54 42
-84 11 -31 28 -62 36 -69 9 -7 24 -29 34 -49 24 -48 261 -275 314 -302 23 -11
50 -29 61 -39 11 -10 38 -26 60 -35 22 -9 58 -29 80 -44 22 -16 64 -33 94 -39
30 -7 77 -25 106 -41 30 -17 78 -33 119 -40 38 -6 76 -15 86 -20 9 -5 68 -21
131 -37 l114 -28 430 0 c370 0 444 3 530 18 55 10 118 25 140 33 22 9 80 24
129 35 48 10 102 27 120 38 17 10 58 26 91 36 33 9 78 29 100 44 22 16 63 36
91 45 29 9 60 26 70 38 11 11 34 27 53 35 34 14 58 33 184 141 122 104 248
293 267 399 6 35 17 82 25 104 22 60 19 186 -4 240 -10 24 -22 66 -26 94 -8
55 -69 176 -124 244 -67 82 -175 192 -211 213 -19 12 -52 37 -73 55 -20 18
-43 33 -50 33 -7 0 -29 13 -48 29 -20 17 -59 39 -87 49 -29 11 -65 31 -82 45
-16 14 -52 30 -80 36 -27 6 -79 24 -115 40 -35 16 -99 37 -141 45 -43 9 -109
28 -148 42 -48 17 -108 28 -186 35 -63 5 -158 16 -210 25 -52 8 -129 14 -171
13 -43 -1 -86 4 -99 11 -21 11 -22 17 -17 77 4 49 12 76 36 114 25 41 31 62
33 119 3 67 2 70 -34 107 -20 21 -40 50 -43 66 l-7 27 -103 0 c-101 0 -103 0
-109 -25z"/>
</g>
</svg>
