<?xml version="1.0" standalone="no"?>
<!DOCTYPE svg PUBLIC "-//W3C//DTD SVG 20010904//EN"
 "http://www.w3.org/TR/2001/REC-SVG-20010904/DTD/svg10.dtd">
<svg version="1.0" xmlns="http://www.w3.org/2000/svg"
 width="416.000000pt" height="608.000000pt" viewBox="0 0 416.000000 608.000000"
 preserveAspectRatio="xMidYMid meet">
<metadata>
Created by potrace 1.16, written by Peter Selinger 2001-2019
</metadata>
<rect x="0" y="0" width="416" height="608" fill="#ffffff"/>
<g transform="translate(0.000000,608.000000) scale(0.100000,-0.100000)"
fill="#000000" stroke="none">
<path d="M2020 6065 c0 -8 -21 -38 -46 -66 l-46 -52 7 -61 c5 -46 13 -68 36
-93 16 -19 29 -44 29 -56 0 -42 -20 -54 -100 -61 -149 -12 -226 -24 -283 -45
-32 -11 -86 -25 -120 -31 -34 -6 -87 -24 -117 -40 -30 -15 -74 -33 -97 -39
-23 -6 -60 -27 -83 -46 -23 -19 -46 -35 -51 -35 -5 0 -46 -35 -90 -77 -101
-96 -165 -191 -179 -263 -13 -67 -13 -252 0 -308 17 -70 187 -264 271 -307 19
-10 52 -30 74 -45 22 -15 72 -37 110 -50 39 -13 86 -31 105 -41 19 -10 102
-29 183 -44 137 -24 166 -26 370 -22 189 4 241 8 350 30 77 16 144 36 170 51
23 13 59 29 79 34 58 16 153 80 226 154 119 118 147 163 177 276 l16 63 -38
67 c-37 63 -41 67 -97 84 -57 18 -59 17 -114 -5 -42 -16 -64 -33 -86 -64 -26
-38 -30 -54 -36 -142 l-7 -100 -57 -75 c-30 -41 -73 -84 -93 -97 -21 -12 -53
-35 -71 -51 -18 -15 -40 -28 -48 -28 -9 0 -46 -13 -84 -30 -90 -40 -223 -54
-445 -48 -143 4 -180 9 -230 27 -33 12 -94 33 -135 45 -119 37 -204 90 -305
191 -50 50 -98 106 -108 127 -20 43 -24 196 -5 231 34 65 114 154 158 177 19
10 47 30 63 44 15 14 49 32 75 40 26 8 74 26 107 41 41 18 95 31 170 40 61 8
133 22 162 31 44 15 58 16 93 5 36 -11 44 -19 74 -79 48 -95 64 -112 113 -119
83 -11 141 26 168 107 9 28 24 54 34 59 33 18 246 -18 312 -53 24 -13 69 -31
100 -40 31 -8 67 -24 80 -35 13 -10 40 -27 60 -37 72 -38 133 -85 181 -138 26
-30 48 -58 48 -63 0 -4 16 -27 35 -51 47 -60 61 -130 47 -244 -6 -48 -18 -100
-26 -116 -18 -34 -175 -192 -192 -192 -6 0 -31 -15 -55 -33 -24 -19 -59 -39
-78 -45 -19 -7 -55 -25 -80 -41 -25 -16 -62 -32 -81 -36 -19 -4 -73 -22 -120
-40 -100 -39 -192 -59 -225 -51 -15 4 -35 24 -51 51 -14 25 -33 49 -41 54 -9
5 -46 6 -82 4 l-66 -5 -85 -88 -85 -88 -105 -5 c-71 -4 -143 -16 -220 -37 -63
-17 -146 -35 -185 -41 -38 -6 -95 -24 -125 -39 -30 -15 -80 -33 -110 -39 -30
-7 -80 -27 -110 -46 -30 -19 -62 -35 -73 -35 -24 0 -55 -16 -87 -45 -14 -12
-41 -28 -61 -34 -20 -7 -45 -21 -55 -32 -11 -12 -37 -30 -59 -42 -53 -26 -105
-71 -230 -192 -56 -55 -111 -118 -122 -140 -12 -22 -31 -49 -43 -60 -12 -11
-31 -38 -42 -60 -11 -22 -29 -50 -40 -61 -10 -12 -30 -50 -42 -85 -13 -35 -33
-86 -44 -114 -29 -73 -44 -251 -31 -381 8 -90 16 -121 55 -212 25 -59 61 -123
80 -144 19 -21 34 -42 34 -46 0 -12 164 -173 190 -187 11 -6 36 -24 53 -39 62
-53 154 -113 190 -125 21 -7 51 -24 67 -37 16 -14 57 -36 91 -49 34 -14 69
-31 78 -39 9 -8 43 -22 76 -31 33 -10 83 -30 110 -45 28 -15 73 -33 100 -39
28 -7 75 -25 105 -40 30 -16 82 -34 115 -41 33 -7 85 -23 115 -37 30 -13 88
-31 129 -39 41 -8 104 -25 140 -38 36 -13 92 -29 124 -36 90 -18 88 -14 83
-301 -11 -629 -22 -862 -40 -904 -15 -35 -16 -48 -5 -103 l13 -62 138 0 c135
0 139 1 147 23 12 31 27 41 90 62 30 10 70 28 89 41 19 13 50 28 68 33 19 5
51 23 72 39 20 16 51 36 67 45 34 17 202 180 254 246 18 24 42 68 52 99 10 32
27 75 38 97 31 58 25 113 -28 276 -19 58 -33 77 -109 155 -106 108 -155 147
-207 164 -22 7 -54 23 -70 36 -30 23 -99 50 -255 101 -130 43 -138 48 -150 94
-16 60 -9 491 8 512 11 13 54 16 290 20 332 6 517 27 737 86 149 39 347 108
395 136 14 8 53 28 87 45 47 22 90 58 171 139 96 95 115 120 155 202 52 107
67 176 67 321 0 148 -17 243 -56 314 -19 33 -34 68 -34 77 0 26 -145 196 -225
265 -112 96 -146 121 -182 132 -21 7 -51 25 -68 40 -16 15 -46 33 -65 39 -19
6 -55 22 -78 36 -24 14 -71 32 -105 41 -34 9 -80 27 -103 40 -26 15 -83 32
-155 45 -124 22 -196 48 -206 75 -12 31 19 66 73 84 28 10 73 34 100 54 187
137 259 211 319 332 40 80 46 100 51 180 4 54 2 110 -5 142 -14 69 -79 220
-107 252 -12 14 -30 39 -40 55 -35 56 -139 167 -174 185 -19 10 -46 29 -58 43
-13 14 -38 31 -55 38 -18 7 -47 25 -64 40 -18 16 -52 33 -75 39 -24 5 -68 23
-98 39 -30 16 -82 34 -115 41 -33 6 -87 20 -120 30 -33 11 -94 24 -135 31 -80
11 -120 30 -120 54 0 9 11 32 24 53 28 43 50 138 40 177 -4 15 -24 47 -45 72
-22 24 -39 48 -39 54 0 5 -34 9 -75 9 -59 0 -75 -3 -75 -15z m669 -2236 c48
-6 127 -21 176 -34 50 -14 131 -31 181 -39 53 -8 110 -24 140 -39 27 -15 72
-31 99 -37 28 -6 70 -24 95 -39 25 -16 62 -34 83 -41 21 -6 50 -23 65 -37 15
-14 43 -33 63 -44 51 -26 224 -199 250 -251 12 -24 32 -56 44 -73 32 -41 44
-94 51 -205 6 -102 -6 -204 -30 -248 -8 -15 -28 -54 -46 -87 -38 -74 -114
-152 -200 -209 -67 -43 -215 -119 -260 -131 -14 -4 -54 -20 -90 -35 -36 -16
-87 -31 -115 -35 -27 -4 -95 -20 -150 -35 -139 -38 -302 -54 -565 -54 -230 -1
-267 3 -294 29 -22 23 -23 328 0 363 31 47 153 76 364 87 190 10 291 23 387
50 49 13 114 29 145 35 41 8 70 22 99 46 23 19 50 39 60 44 24 14 99 156 99
190 0 16 -18 62 -40 103 -32 59 -51 81 -92 108 -28 19 -63 42 -77 51 -14 10
-34 18 -45 18 -10 0 -53 16 -96 35 -48 22 -107 39 -155 46 -42 6 -112 20 -154
31 -75 20 -180 33 -377 46 -62 4 -107 12 -118 21 -20 17 -21 65 0 196 22 141
22 143 44 165 18 18 34 20 197 20 97 0 215 -5 262 -11z m-714 -24 c24 -24 25
-28 25 -183 0 -111 -4 -163 -12 -175 -18 -23 -82 -44 -223 -72 -136 -27 -147
-31 -193 -61 -18 -13 -56 -30 -84 -40 -43 -14 -71 -36 -164 -130 -92 -93 -116
-122 -128 -161 -8 -27 -24 -74 -35 -105 -33 -89 -29 -191 10 -281 16 -40 34
-81 38 -92 33 -79 204 -241 281 -266 19 -6 49 -22 67 -35 41 -31 278 -112 362
-124 35 -5 71 -16 80 -25 14 -13 16 -53 19 -259 3 -214 1 -246 -13 -260 -25
-25 -84 -19 -166 15 -41 16 -116 39 -167 49 -51 10 -107 28 -125 39 -18 11
-62 26 -99 35 -37 9 -91 29 -120 45 -29 16 -69 32 -88 36 -19 4 -59 20 -89 37
-30 17 -77 37 -105 45 -28 8 -62 25 -76 39 -14 13 -45 30 -70 39 -25 9 -56 27
-70 40 -14 13 -41 31 -60 39 -20 8 -44 24 -55 36 -11 12 -37 31 -57 41 -51 26
-233 209 -259 261 -11 24 -32 54 -44 68 -14 15 -32 59 -46 110 -29 110 -34
162 -19 202 6 18 17 68 25 110 9 52 22 88 39 111 14 18 32 51 40 73 15 44 65
117 141 204 63 73 219 212 265 235 19 9 46 28 60 41 14 13 44 30 68 38 23 8
57 26 75 40 17 13 52 29 77 36 25 6 65 25 88 40 24 16 69 34 100 41 32 6 84
24 117 39 40 19 91 32 154 40 52 7 113 19 135 27 50 18 175 41 234 42 33 1 49
-5 67 -24z m512 -656 c15 -6 66 -12 113 -13 209 -8 319 -23 387 -55 36 -17 73
-31 82 -31 35 0 61 -29 61 -69 0 -53 -33 -85 -111 -109 -35 -11 -90 -30 -123
-42 -123 -45 -594 -38 -672 10 -41 26 -54 64 -54 161 0 83 11 126 37 147 21
15 239 17 280 1z m-488 -35 c17 -22 21 -41 21 -108 0 -104 -11 -141 -57 -188
-36 -37 -38 -42 -38 -103 0 -60 2 -66 37 -102 20 -21 42 -51 47 -66 14 -35 14
-287 2 -320 -14 -37 -61 -44 -112 -18 -22 12 -61 26 -87 32 -26 5 -64 21 -85
35 -22 14 -57 32 -79 40 -61 21 -169 115 -246 211 -60 77 -77 223 -37 319 7
18 50 68 94 112 64 63 91 82 126 91 24 6 61 21 82 33 39 24 185 55 265 57 39
1 50 -3 67 -25z m281 -1835 c25 -5 61 -21 81 -34 20 -13 59 -30 87 -39 29 -8
67 -26 84 -39 18 -14 52 -34 75 -46 23 -12 73 -52 111 -90 53 -54 74 -84 95
-138 15 -38 27 -75 27 -83 0 -8 -11 -49 -26 -92 -22 -68 -33 -84 -102 -153
-42 -42 -93 -85 -113 -95 -19 -10 -41 -25 -48 -34 -7 -8 -37 -24 -66 -35 -29
-11 -73 -33 -99 -50 -97 -61 -160 -51 -195 28 -21 50 -22 58 -19 467 3 398 4
416 22 430 23 17 27 17 86 3z"/>
</g>
</svg>
