<?xml version="1.0" standalone="no"?>
<!DOCTYPE svg PUBLIC "-//W3C//DTD SVG 20010904//EN"
 "http://www.w3.org/TR/2001/REC-SVG-20010904/DTD/svg10.dtd">
<svg version="1.0" xmlns="http://www.w3.org/2000/svg"
 width="464.000000pt" height="528.000000pt" viewBox="0 0 464.000000 528.000000"
 preserveAspectRatio="xMidYMid meet">
<metadata>
Created by potrace 1.16, written by Peter Selinger 2001-2019
</metadata>
<rect x="0" y="0" width="464" height="528" fill="#ffffff"/>
<g transform="translate(0.000000,528.000000) scale(0.100000,-0.100000)"
fill="#000000" stroke="none">
<path d="M2181 5215 l-31 -64 10 -225 c6 -123 8 -231 4 -239 -9 -26 -56 -37
-140 -34 -73 3 -85 6 -115 31 -49 42 -128 76 -174 76 -23 0 -68 10 -100 22
-54 20 -79 22 -250 23 -104 0 -211 -4 -237 -8 -44 -8 -99 -42 -164 -103 -28
-27 -41 -102 -25 -154 17 -57 85 -123 161 -155 160 -68 157 -67 370 -63 l196
3 49 31 c28 18 60 35 72 38 11 4 33 22 47 41 15 19 42 47 62 61 33 26 41 27
127 25 148 -3 161 -20 158 -201 -1 -84 3 -147 13 -191 13 -54 16 -166 18 -633
3 -646 15 -565 -89 -629 -28 -18 -77 -50 -108 -72 -31 -22 -80 -53 -109 -70
-60 -35 -127 -77 -194 -121 -26 -17 -64 -36 -84 -43 -20 -7 -55 -26 -78 -42
-23 -17 -61 -37 -83 -45 -23 -8 -53 -26 -67 -39 -14 -13 -45 -31 -70 -40 -24
-8 -51 -22 -60 -30 -9 -8 -43 -28 -76 -44 -32 -16 -67 -38 -78 -49 -10 -12
-35 -27 -55 -33 -20 -7 -52 -25 -72 -40 -20 -16 -49 -33 -64 -39 -15 -6 -42
-22 -59 -36 -17 -14 -53 -40 -81 -59 -27 -19 -73 -50 -100 -69 -55 -36 -200
-177 -251 -242 -17 -22 -44 -64 -59 -94 -15 -30 -36 -65 -46 -78 -10 -13 -23
-47 -29 -76 -13 -65 -32 -83 -132 -126 -61 -26 -82 -41 -107 -77 -17 -24 -42
-48 -56 -53 -23 -9 -25 -15 -25 -69 0 -51 3 -61 20 -66 11 -4 38 -30 60 -60
43 -59 84 -95 109 -95 61 -2 176 -83 211 -149 36 -68 177 -199 268 -249 26
-14 57 -35 69 -47 12 -12 40 -27 61 -33 22 -7 56 -25 77 -42 21 -16 56 -35 79
-41 22 -6 66 -24 97 -39 30 -16 83 -36 117 -44 33 -9 83 -26 109 -37 26 -11
84 -29 128 -39 44 -11 113 -30 154 -44 40 -14 110 -30 155 -36 109 -13 262
-85 279 -130 l11 -30 288 0 288 0 9 23 c5 13 15 28 23 35 25 20 267 102 303
102 13 0 75 18 137 39 62 22 138 44 168 51 30 6 64 17 76 24 11 8 40 20 65 27
127 36 459 182 529 234 18 14 39 25 46 25 7 0 31 16 54 35 23 19 46 35 51 35
18 0 173 157 227 230 31 41 59 79 63 83 3 5 26 13 50 18 43 10 109 46 154 84
13 11 35 49 49 84 l25 64 -35 73 -35 73 -97 47 c-79 38 -111 48 -172 53 l-75
6 -68 68 c-38 37 -83 75 -100 84 -18 8 -50 28 -72 44 -22 15 -60 33 -85 39
-25 7 -67 25 -95 40 -27 16 -72 31 -100 35 -27 3 -68 12 -90 20 -203 70 -508
78 -703 19 -45 -13 -108 -29 -140 -35 -31 -6 -82 -23 -112 -38 -30 -16 -71
-34 -91 -40 -20 -6 -47 -23 -59 -36 -24 -25 -54 -32 -78 -17 -10 7 -13 134
-13 629 -1 552 1 624 15 652 9 17 21 31 26 31 8 0 67 44 188 142 128 104 384
373 417 438 10 19 33 52 51 73 19 20 34 44 34 52 0 8 14 30 30 49 17 19 38 56
47 83 9 26 29 66 44 88 15 22 31 58 35 80 4 22 22 80 41 130 19 49 38 123 43
165 17 128 25 137 141 160 35 7 66 21 86 38 16 15 43 36 59 48 28 20 29 24 29
102 l0 81 -58 59 c-53 54 -66 61 -135 80 -43 11 -102 28 -132 37 -39 13 -88
17 -170 17 -108 -1 -122 -4 -230 -42 -63 -22 -116 -40 -117 -40 -1 0 -16 -20
-33 -45 -42 -61 -74 -75 -178 -81 -146 -7 -168 16 -152 159 6 45 10 142 10
215 0 124 -2 137 -27 192 l-28 59 -106 1 -107 0 -31 -65z m-674 -580 c16 -23
1 -53 -30 -59 -56 -12 -205 -16 -230 -7 -33 13 -36 46 -5 62 59 32 242 34 265
4z m1913 -35 c0 -13 -7 -20 -20 -20 -13 0 -20 7 -20 20 0 13 7 20 20 20 13 0
20 -7 20 -20z m-635 -120 c43 -22 88 -40 99 -40 19 0 96 -27 152 -52 12 -6 27
-21 33 -35 17 -38 13 -198 -8 -288 -10 -44 -22 -98 -26 -119 -3 -22 -19 -65
-34 -95 -16 -31 -34 -74 -41 -96 -7 -22 -23 -55 -37 -72 -13 -18 -30 -51 -38
-74 -8 -22 -30 -59 -50 -81 -19 -23 -35 -45 -35 -50 0 -13 -157 -188 -216
-241 -30 -27 -68 -68 -84 -92 -52 -76 -100 -68 -103 16 -1 24 2 252 7 507 6
339 12 477 22 515 8 30 14 101 14 168 0 109 1 118 25 143 23 25 28 26 133 26
107 0 110 -1 187 -40z m-540 -1730 c11 -18 7 -1274 -5 -1304 -5 -15 -21 -42
-35 -60 -14 -18 -32 -54 -41 -80 -9 -26 -26 -52 -38 -59 -23 -13 -567 -7 -931
10 -183 9 -216 16 -243 55 -21 29 -44 37 -135 47 -99 12 -141 29 -162 71 -21
41 -19 72 10 111 14 19 34 52 44 74 11 22 79 99 150 170 141 140 188 182 254
227 23 15 69 48 102 73 33 25 81 59 107 75 25 17 49 37 52 45 3 8 27 26 55 39
27 14 52 30 56 36 4 6 27 22 53 35 26 14 66 40 88 58 23 17 56 41 74 52 58 35
126 79 166 108 22 15 71 49 109 74 39 26 102 70 140 100 67 51 115 67 130 43z
m1332 -1138 c61 -11 130 -30 153 -42 23 -11 70 -30 104 -41 97 -29 111 -63 40
-99 -90 -45 -153 -87 -186 -124 l-36 -41 -274 -8 c-150 -4 -400 -10 -555 -13
-266 -4 -283 -4 -292 14 -21 40 61 146 149 192 14 7 37 23 52 36 15 12 51 30
79 39 29 10 68 27 88 38 19 12 89 33 155 48 107 25 137 28 266 25 92 -2 185
-11 257 -24z m-1392 -548 l55 -55 0 -220 c0 -132 -4 -228 -10 -240 -15 -27
-54 -44 -137 -59 -40 -7 -84 -20 -97 -29 -13 -9 -42 -29 -64 -44 -40 -29 -41
-29 -239 -34 -237 -6 -378 13 -531 72 -216 83 -357 184 -466 333 -32 44 -37
57 -29 75 10 21 85 58 183 90 20 7 63 40 102 79 36 37 70 69 75 69 52 9 327
16 676 17 l427 2 55 -56z m1391 45 c56 2 65 -1 96 -28 19 -16 56 -35 84 -42
27 -6 74 -25 104 -40 30 -16 65 -29 78 -29 29 0 62 -34 62 -65 0 -13 -15 -41
-32 -61 -18 -21 -42 -51 -53 -69 -40 -62 -140 -140 -310 -241 -70 -42 -321
-123 -424 -137 -188 -26 -496 -3 -631 47 -36 14 -77 27 -92 31 -52 11 -56 28
-60 297 -1 135 -1 248 2 251 3 2 30 26 60 52 l54 48 501 -8 c275 -4 528 -7
561 -6z m-1174 -900 c-10 -9 -73 -29 -91 -29 -9 0 -23 5 -31 10 -13 8 -13 11
-1 19 16 10 135 10 123 0z"/>
</g>
</svg>
