<?xml version="1.0" standalone="no"?>
<!DOCTYPE svg PUBLIC "-//W3C//DTD SVG 20010904//EN"
 "http://www.w3.org/TR/2001/REC-SVG-20010904/DTD/svg10.dtd">
<svg version="1.0" xmlns="http://www.w3.org/2000/svg"
 width="392.000000pt" height="400.000000pt" viewBox="0 0 392.000000 400.000000"
 preserveAspectRatio="xMidYMid meet">
<metadata>
Created by potrace 1.16, written by Peter Selinger 2001-2019
</metadata>
<rect x="0" y="0" width="392" height="400" fill="#ffffff"/>
<g transform="translate(0.000000,400.000000) scale(0.100000,-0.100000)"
fill="#000000" stroke="none">
<path d="M1847 3993 c-4 -3 -7 -14 -7 -24 0 -10 -14 -34 -32 -54 -25 -29 -32
-46 -34 -88 -8 -138 -25 -232 -53 -282 -16 -27 -34 -75 -40 -104 -7 -30 -23
-70 -36 -88 -14 -17 -34 -53 -45 -79 -11 -26 -33 -62 -48 -81 -15 -18 -41 -50
-57 -71 -17 -20 -43 -56 -58 -79 -41 -64 -208 -227 -347 -338 -164 -131 -495
-461 -541 -538 -19 -32 -47 -84 -64 -115 -16 -32 -40 -70 -52 -85 -12 -15 -26
-49 -32 -75 -24 -114 -103 -241 -150 -243 -9 0 -45 -14 -81 -32 -52 -26 -70
-41 -88 -75 -13 -23 -37 -49 -53 -57 -25 -13 -29 -22 -29 -55 0 -29 5 -40 19
-45 11 -3 31 -25 44 -48 39 -66 116 -125 179 -137 62 -12 116 -58 154 -132 13
-26 29 -50 35 -53 6 -4 26 -30 44 -59 34 -53 251 -279 318 -331 95 -74 293
-206 342 -228 22 -10 51 -29 65 -41 14 -13 43 -29 65 -36 22 -7 54 -24 71 -36
17 -13 50 -30 73 -39 24 -8 60 -28 81 -45 21 -17 51 -36 67 -43 15 -6 48 -24
73 -39 105 -62 463 -62 605 1 39 16 89 35 113 41 23 6 57 23 75 39 17 15 54
35 81 44 27 9 63 27 80 40 17 13 54 32 82 41 28 9 61 28 74 41 13 13 39 30 59
36 20 7 51 25 69 40 18 16 47 36 65 45 17 9 65 42 106 73 40 31 85 65 100 76
32 23 200 193 249 251 52 61 116 155 140 204 36 73 67 99 185 159 l111 56 25
68 24 68 -27 69 c-29 73 -24 68 -160 147 -12 7 -41 15 -66 18 -97 12 -110 17
-162 52 -29 19 -87 68 -128 108 -41 40 -95 83 -120 95 -25 13 -56 31 -69 41
-13 11 -31 19 -40 19 -9 0 -43 12 -76 26 -180 75 -588 89 -716 23 -22 -11 -69
-29 -103 -40 -35 -10 -69 -26 -77 -35 -7 -8 -26 -22 -42 -30 -25 -14 -31 -14
-51 0 -22 14 -23 17 -20 193 1 98 7 198 13 223 6 25 11 124 11 220 0 102 5
192 12 215 6 22 12 99 13 170 4 239 25 609 40 685 8 41 15 111 16 155 2 72 0
84 -24 119 -15 21 -27 49 -27 62 0 24 -1 24 -108 24 -60 0 -112 -3 -115 -7z
m-18 -857 c6 -8 14 -51 16 -97 2 -46 9 -172 15 -279 6 -107 13 -376 16 -598
l5 -402 -36 -98 c-26 -71 -46 -106 -71 -130 l-35 -33 -366 3 -365 3 -38 44
c-38 44 -38 44 -125 52 -143 13 -255 81 -255 155 0 12 7 41 16 65 8 24 21 80
29 124 9 56 22 95 43 128 16 26 33 62 36 80 3 18 27 58 54 89 122 146 157 185
191 213 20 16 75 64 123 107 48 43 91 78 96 78 4 0 28 17 54 38 25 20 59 45
74 54 16 10 54 38 84 63 30 25 73 58 95 73 95 63 231 185 251 223 29 56 68 75
93 45z m1101 -1250 c117 -30 172 -50 219 -78 78 -46 111 -95 79 -114 -7 -5
-37 -11 -67 -15 -31 -4 -66 -17 -80 -28 -14 -12 -43 -30 -64 -41 -21 -12 -48
-37 -59 -56 -11 -19 -28 -39 -38 -44 -11 -6 -164 -10 -378 -10 -345 0 -360 1
-377 20 -13 15 -16 30 -12 60 6 50 87 142 157 179 25 13 57 34 72 47 15 12 54
28 85 34 32 6 79 20 105 31 112 46 219 50 358 15z m-1143 -539 c12 -7 39 -32
60 -56 l37 -44 -3 -296 c-3 -315 -6 -334 -54 -366 -12 -8 -49 -17 -82 -21 -69
-8 -89 -16 -128 -53 -28 -25 -32 -26 -160 -26 -126 0 -135 2 -202 32 -38 17
-86 34 -105 38 -31 7 -73 30 -175 99 -22 14 -64 42 -93 62 -32 21 -66 56 -87
89 -19 30 -39 57 -45 60 -6 4 -22 30 -36 58 -15 29 -36 62 -48 75 -32 35 -30
126 3 153 13 10 33 19 46 19 13 0 53 9 90 21 69 21 131 67 162 120 9 15 26 32
37 38 32 15 755 14 783 -2z m1177 -22 c27 -30 42 -37 92 -45 67 -10 209 -72
218 -96 14 -37 4 -85 -34 -160 -22 -43 -40 -84 -40 -90 0 -41 -233 -274 -305
-305 -17 -7 -44 -24 -62 -37 -17 -13 -53 -29 -80 -37 -26 -7 -70 -21 -98 -32
-91 -36 -216 -47 -365 -33 -124 12 -134 14 -188 50 -31 20 -63 44 -70 52 -10
12 -13 90 -13 332 l-1 316 37 43 c74 84 30 77 477 77 l399 0 33 -35z m-906
-1007 c7 -7 12 -21 12 -33 0 -36 -20 -45 -98 -45 -81 0 -112 11 -112 40 0 25
13 32 79 40 87 11 106 11 119 -2z"/>
</g>
</svg>
