<?xml version="1.0" standalone="no"?>
<!DOCTYPE svg PUBLIC "-//W3C//DTD SVG 20010904//EN"
 "http://www.w3.org/TR/2001/REC-SVG-20010904/DTD/svg10.dtd">
<svg version="1.0" xmlns="http://www.w3.org/2000/svg"
 width="456.000000pt" height="880.000000pt" viewBox="0 0 456.000000 880.000000"
 preserveAspectRatio="xMidYMid meet">
<metadata>
Created by potrace 1.16, written by Peter Selinger 2001-2019
</metadata>
<rect x="0" y="0" width="456" height="880" fill="#ffffff"/>
<g transform="translate(0.000000,880.000000) scale(0.100000,-0.100000)"
fill="#000000" stroke="none">
<path d="M2200 8778 c-5 -13 -25 -45 -44 -72 -41 -56 -43 -77 -20 -186 8 -41
14 -111 14 -155 -1 -44 1 -103 5 -130 10 -73 2 -77 -145 -73 l-120 3 -34 37
c-37 40 -49 44 -142 51 -34 3 -83 15 -110 27 -67 29 -197 44 -329 36 -104 -5
-115 -8 -202 -50 -92 -45 -93 -45 -125 -110 l-32 -65 30 -73 c23 -55 38 -77
60 -88 16 -8 52 -29 79 -47 36 -23 71 -35 124 -44 91 -14 464 -8 503 9 42 17
121 81 146 118 29 44 74 56 187 52 l90 -3 19 -39 c16 -33 20 -68 23 -230 2
-105 8 -204 13 -220 6 -16 10 -125 10 -242 0 -145 4 -222 12 -241 8 -19 13
-114 14 -305 3 -322 11 -294 -113 -376 -43 -28 -91 -62 -108 -75 -16 -13 -50
-35 -75 -47 -25 -13 -61 -36 -80 -51 -19 -16 -40 -29 -46 -29 -7 0 -36 -16
-65 -36 -30 -20 -67 -41 -84 -46 -16 -6 -47 -24 -67 -40 -21 -16 -56 -35 -79
-43 -22 -8 -52 -24 -66 -35 -15 -11 -47 -30 -72 -41 -25 -11 -55 -29 -66 -39
-11 -11 -40 -26 -63 -34 -23 -8 -59 -28 -80 -44 -20 -17 -54 -35 -75 -42 -21
-7 -53 -25 -71 -40 -18 -16 -51 -36 -74 -45 -24 -10 -47 -25 -52 -35 -5 -10
-26 -25 -47 -35 -21 -10 -73 -46 -116 -79 -43 -34 -90 -69 -104 -78 -35 -22
-201 -197 -218 -228 -7 -14 -29 -49 -49 -79 -20 -29 -36 -61 -36 -70 0 -9 -16
-49 -35 -89 -28 -60 -41 -76 -69 -87 -20 -8 -45 -15 -57 -15 -13 0 -39 -18
-63 -44 -23 -25 -53 -48 -68 -51 l-28 -7 0 -104 c0 -102 0 -104 25 -110 14 -3
39 -24 56 -45 17 -22 43 -42 57 -46 15 -3 59 -23 98 -43 67 -34 106 -69 147
-130 37 -54 194 -203 239 -226 26 -13 49 -28 53 -34 4 -6 30 -22 58 -37 29
-14 66 -36 82 -48 17 -12 53 -30 80 -40 28 -10 71 -29 97 -42 69 -34 261 -101
343 -120 89 -20 105 -28 105 -56 -1 -29 -29 -62 -77 -90 -43 -24 -111 -74
-178 -127 -195 -157 -264 -221 -307 -283 -29 -43 -77 -108 -123 -164 -14 -17
-30 -46 -36 -65 -6 -18 -35 -56 -67 -86 -44 -41 -71 -57 -117 -70 -75 -21
-127 -70 -143 -133 -6 -25 -9 -56 -6 -69 25 -105 14 -91 146 -189 10 -8 55
-20 99 -27 97 -15 141 -40 254 -141 47 -42 104 -87 126 -100 22 -12 52 -31 67
-41 15 -11 45 -25 67 -32 22 -7 58 -23 81 -36 56 -33 212 -54 399 -54 193 1
286 13 350 46 28 14 74 35 104 45 30 11 62 26 72 35 10 9 28 14 41 12 42 -6
45 -56 36 -758 -3 -206 -8 -307 -17 -333 -8 -24 -11 -65 -9 -105 4 -48 0 -84
-14 -126 -10 -32 -17 -79 -17 -105 3 -91 -22 -337 -41 -398 -15 -47 -17 -69
-9 -95 23 -77 43 -102 106 -136 l62 -33 68 33 c37 18 75 44 85 58 12 17 22 65
32 157 11 104 21 146 45 201 17 38 36 92 41 120 6 27 27 73 46 103 18 29 34
59 34 65 0 7 15 32 33 56 18 24 43 60 56 81 12 20 26 37 31 37 5 0 18 16 31
36 12 20 79 94 148 163 124 124 194 187 407 366 146 123 234 215 325 345 18
25 42 56 54 70 12 14 27 40 33 57 6 18 22 48 37 67 14 18 36 64 49 102 13 38
31 85 39 104 9 19 21 54 27 77 11 45 24 56 80 68 19 4 65 25 102 46 52 31 74
51 102 96 21 33 36 70 36 88 0 42 -72 145 -118 169 -20 10 -50 29 -65 42 -16
13 -46 27 -68 30 -45 8 -94 57 -134 135 -13 25 -31 52 -41 60 -9 8 -32 37 -49
64 -65 100 -266 287 -414 384 -20 13 -46 33 -59 44 -13 12 -49 35 -80 52 -64
34 -102 85 -82 110 6 8 46 22 88 31 42 9 98 27 124 40 25 13 79 32 118 43 40
11 91 31 114 44 22 14 66 32 97 41 31 9 62 22 68 30 7 8 37 26 68 41 31 15 68
36 82 47 14 11 41 26 59 34 66 27 240 186 291 265 52 79 109 127 165 138 31 6
59 20 86 45 22 20 49 36 60 36 19 0 20 7 20 125 0 125 0 126 -25 135 -14 5
-38 19 -53 30 -51 38 -184 90 -229 90 -62 0 -88 14 -172 89 -42 38 -99 80
-127 94 -27 14 -56 32 -63 40 -6 9 -35 21 -64 27 -29 7 -88 28 -133 46 -44 18
-110 38 -145 43 -35 6 -80 15 -99 21 -70 20 -262 31 -380 21 -160 -13 -374
-56 -410 -81 -29 -20 -60 -33 -111 -44 -14 -3 -43 -19 -64 -36 -38 -30 -106
-42 -120 -21 -3 5 -6 282 -6 616 0 603 0 606 21 641 12 19 38 47 58 62 21 15
75 58 120 97 46 38 94 77 106 85 39 26 258 254 284 295 14 22 40 57 58 78 19
20 34 41 34 46 0 6 18 30 39 55 22 25 43 56 46 68 4 13 18 38 32 56 13 17 33
57 43 87 10 30 30 73 43 97 14 24 30 72 37 108 6 36 23 91 36 123 13 33 29 87
35 120 15 82 30 104 81 118 131 35 136 38 186 102 38 50 47 70 47 102 0 56
-51 123 -132 176 -54 35 -79 43 -151 54 -48 8 -100 18 -115 24 -40 16 -177 14
-225 -3 -22 -8 -66 -17 -98 -21 -76 -10 -95 -20 -178 -100 l-69 -67 -114 4
c-107 3 -116 5 -134 27 -16 20 -18 34 -13 90 3 36 11 82 17 101 5 19 11 93 12
164 l2 128 -43 45 c-24 24 -44 53 -44 64 0 17 -8 19 -85 19 -79 0 -86 -2 -95
-22z m-702 -624 c30 -21 25 -55 -9 -71 -39 -19 -197 -18 -242 0 -38 16 -50 48
-25 63 42 26 242 32 276 8z m1256 -175 c51 -31 88 -44 147 -55 140 -24 155
-43 152 -191 -2 -136 -19 -246 -48 -310 -13 -28 -31 -77 -40 -109 -9 -31 -27
-72 -41 -89 -13 -17 -30 -49 -38 -71 -33 -92 -156 -251 -342 -441 -105 -106
-145 -133 -171 -111 -9 7 -12 19 -7 32 4 12 11 156 15 321 11 480 28 988 34
1013 9 37 57 51 171 52 100 0 100 0 168 -41z m-545 -1743 c9 -10 12 -185 13
-650 l1 -636 -27 -39 c-15 -21 -33 -63 -41 -91 -8 -29 -19 -58 -25 -64 -8 -8
-138 -10 -438 -9 -674 4 -683 4 -728 35 -63 43 -135 78 -161 78 -46 0 -152 32
-170 52 -16 18 -16 23 -1 83 10 38 31 82 53 110 19 26 35 50 35 55 0 11 257
264 318 313 95 77 138 107 185 132 26 14 47 30 47 35 0 5 20 21 44 35 23 14
52 35 62 46 10 12 42 31 69 44 28 12 61 34 74 49 14 14 30 26 37 26 7 0 33 18
58 39 25 22 56 43 68 46 13 4 41 20 63 36 50 37 149 107 260 184 157 109 181
120 204 91z m1306 -1114 c48 -6 118 -25 173 -46 50 -20 97 -36 104 -36 23 0
76 -38 83 -59 11 -35 -12 -58 -85 -86 -54 -21 -78 -37 -106 -70 -19 -24 -43
-47 -52 -51 -34 -16 -1110 -45 -1129 -31 -7 5 -13 19 -13 32 0 29 127 158 183
186 23 12 56 32 74 45 17 13 57 31 88 39 32 8 77 26 101 40 30 17 70 29 126
36 45 6 85 13 88 15 7 8 272 -2 365 -14z m-1347 -556 l49 -55 7 -199 c8 -220
1 -276 -37 -292 -12 -5 -53 -14 -91 -19 -53 -8 -82 -19 -120 -45 -105 -72
-120 -76 -333 -76 -174 0 -206 3 -331 29 -76 16 -156 38 -178 48 -21 11 -62
28 -90 37 -28 9 -66 28 -85 42 -19 14 -48 31 -65 39 -51 21 -149 103 -172 143
-11 20 -34 50 -51 66 -22 21 -31 39 -31 62 0 38 13 50 65 59 66 13 211 92 241
134 45 60 47 61 183 62 69 1 137 5 151 9 14 4 208 8 431 9 l407 1 50 -54z
m1217 36 l230 -7 108 -52 c59 -29 127 -57 150 -63 73 -19 77 -21 87 -40 8 -15
3 -34 -24 -87 -52 -102 -186 -232 -298 -289 -26 -13 -49 -28 -53 -34 -3 -5
-32 -17 -63 -26 -31 -9 -77 -27 -102 -40 -25 -12 -85 -30 -135 -39 -49 -9
-121 -23 -159 -31 -92 -19 -281 -19 -336 1 -24 8 -89 19 -144 24 -128 12 -194
32 -231 71 -29 30 -30 35 -37 158 -4 70 -10 170 -14 222 -8 120 4 152 77 210
l52 41 331 -5 c182 -3 435 -9 561 -14z m-1458 -1046 c27 -18 68 -32 118 -41
43 -7 84 -20 92 -27 21 -21 45 -182 37 -253 -4 -44 -1 -74 12 -110 25 -74 23
-274 -4 -335 -39 -89 -18 -85 -411 -88 -425 -4 -437 -3 -497 49 -33 28 -54 39
-78 39 -50 0 -188 48 -209 71 -26 32 -22 98 9 145 14 21 32 56 39 79 26 86
161 242 276 320 75 50 192 107 249 120 30 8 84 20 120 29 36 8 76 19 90 25 41
18 111 7 157 -23z m970 15 c32 -11 93 -29 136 -40 108 -29 216 -90 317 -179
100 -89 150 -144 175 -192 9 -19 29 -50 42 -68 19 -25 27 -51 31 -98 6 -85 -6
-99 -93 -107 -35 -3 -78 -12 -97 -20 -30 -13 -96 -73 -155 -142 l-23 -26 -373
3 -374 3 -35 27 c-48 36 -72 100 -64 165 3 26 10 151 16 277 6 127 15 247 21
268 12 45 36 63 104 78 28 6 61 18 75 27 56 37 77 43 157 43 56 0 102 -6 140
-19z m-812 -1023 c51 -23 25 -85 -79 -188 -81 -81 -121 -109 -172 -120 -27 -6
-80 -25 -119 -42 -64 -29 -80 -32 -200 -36 -154 -5 -229 8 -351 63 -94 43
-134 78 -134 117 0 32 16 43 80 53 25 4 56 13 70 20 29 16 120 101 120 113 0
26 59 31 402 31 251 1 365 -2 383 -11z m1193 -29 c36 -38 42 -41 118 -50 57
-7 98 -20 149 -45 102 -52 105 -57 98 -162 -3 -48 -10 -95 -14 -104 -5 -9 -16
-49 -24 -88 -8 -40 -24 -84 -34 -99 -10 -14 -28 -46 -41 -70 -58 -115 -203
-277 -352 -393 -45 -35 -97 -76 -116 -92 -38 -33 -141 -107 -186 -134 -17 -9
-41 -28 -54 -41 -14 -13 -37 -31 -52 -40 -78 -48 -253 -211 -285 -268 -30 -50
-56 -56 -82 -16 -24 37 -33 209 -41 838 l-7 510 31 80 c53 136 81 192 100 204
13 7 143 10 387 11 l368 0 37 -41z"/>
</g>
</svg>
