<?xml version="1.0" standalone="no"?>
<!DOCTYPE svg PUBLIC "-//W3C//DTD SVG 20010904//EN"
 "http://www.w3.org/TR/2001/REC-SVG-20010904/DTD/svg10.dtd">
<svg version="1.0" xmlns="http://www.w3.org/2000/svg"
 width="408.000000pt" height="416.000000pt" viewBox="0 0 408.000000 416.000000"
 preserveAspectRatio="xMidYMid meet">
<metadata>
Created by potrace 1.16, written by Peter Selinger 2001-2019
</metadata>
<rect x="0" y="0" width="408" height="416" fill="#ffffff"/>
<g transform="translate(0.000000,416.000000) scale(0.100000,-0.100000)"
fill="#000000" stroke="none">
<path d="M1895 4128 c-13 -43 -62 -68 -136 -68 -30 0 -75 -6 -100 -14 -24 -8
-96 -22 -159 -31 -63 -9 -149 -28 -190 -42 -41 -14 -113 -36 -160 -49 -47 -13
-110 -37 -140 -53 -30 -16 -75 -34 -99 -41 -25 -6 -58 -22 -75 -35 -17 -12
-51 -31 -76 -42 -25 -11 -51 -27 -59 -37 -8 -9 -35 -26 -60 -37 -26 -11 -58
-32 -73 -47 -14 -15 -55 -49 -89 -77 -35 -27 -89 -78 -119 -113 -30 -35 -66
-73 -78 -85 -13 -12 -35 -43 -48 -69 -13 -26 -28 -50 -34 -53 -6 -4 -24 -32
-40 -63 -15 -32 -40 -79 -54 -106 -14 -27 -26 -59 -26 -71 0 -38 -22 -89 -51
-120 l-29 -31 0 -176 0 -176 34 -34 c21 -21 39 -54 49 -88 9 -30 30 -75 47
-100 16 -25 30 -49 30 -53 0 -24 155 -187 201 -212 14 -8 34 -25 43 -39 9 -14
38 -37 64 -50 27 -14 54 -32 61 -40 8 -9 34 -25 59 -36 25 -11 55 -31 68 -43
13 -13 43 -29 66 -36 24 -8 61 -26 83 -42 22 -15 58 -31 80 -35 22 -3 61 -20
87 -36 26 -16 73 -37 105 -45 32 -8 81 -27 108 -43 28 -16 77 -33 109 -39 33
-6 87 -24 120 -40 34 -16 90 -35 125 -41 35 -6 96 -24 135 -39 39 -16 98 -32
131 -36 82 -10 121 -28 140 -64 14 -27 15 -75 11 -383 -2 -194 -9 -447 -14
-563 -6 -135 -6 -236 1 -282 l9 -73 128 0 c128 0 128 0 134 25 7 27 42 49 96
60 19 4 54 18 76 31 23 13 67 33 98 44 30 12 60 29 65 37 5 9 31 30 59 47 79
49 160 114 179 144 9 15 34 45 54 68 20 23 40 52 44 65 4 13 19 39 32 57 53
71 53 293 0 364 -13 18 -28 44 -32 58 -11 34 -139 165 -202 206 -28 19 -54 38
-57 43 -4 5 -30 17 -59 27 -28 9 -70 29 -92 45 -22 15 -58 31 -80 35 -60 10
-241 83 -260 104 -15 17 -17 46 -17 254 0 129 3 243 6 254 12 37 47 42 300 42
168 0 268 4 322 14 44 8 144 24 224 36 80 12 174 33 210 46 36 12 103 33 150
44 47 12 105 33 130 47 25 14 69 33 97 44 29 10 68 29 85 42 18 14 47 32 63
40 17 8 67 49 112 91 110 103 178 228 214 396 7 31 18 54 30 60 16 9 19 22 19
91 0 73 -2 82 -25 102 -19 16 -32 47 -50 120 -24 97 -64 176 -130 260 -42 54
-145 156 -197 195 -113 85 -144 105 -186 123 -25 11 -55 30 -67 43 -13 14 -43
28 -75 35 -30 6 -69 23 -88 38 -20 15 -62 32 -101 40 -36 7 -90 25 -121 39
-92 43 -590 124 -758 124 -45 0 -92 33 -92 65 0 13 -21 15 -143 15 l-143 0 -9
-32z m644 -314 c53 -8 143 -24 201 -34 58 -10 132 -21 164 -25 32 -3 91 -18
130 -34 39 -16 91 -32 116 -36 25 -4 74 -22 110 -40 36 -18 83 -38 105 -45 22
-7 52 -24 66 -37 15 -14 49 -35 75 -48 60 -28 207 -164 274 -253 41 -54 59
-92 91 -192 l41 -125 -21 -94 c-49 -213 -169 -380 -330 -460 -31 -15 -74 -37
-96 -49 -79 -42 -181 -83 -255 -102 -41 -10 -102 -28 -135 -40 -33 -12 -116
-29 -185 -36 -69 -8 -152 -20 -185 -26 -33 -5 -154 -13 -270 -17 -321 -10
-318 -12 -316 231 2 206 0 202 152 224 57 8 142 19 189 23 47 5 99 13 115 19
17 5 97 15 179 22 82 6 168 18 190 27 23 8 77 28 121 43 70 25 86 36 137 92
31 35 62 79 68 98 15 53 12 121 -8 156 -33 61 -93 133 -115 139 -12 4 -44 22
-72 40 -32 22 -73 38 -115 46 -36 6 -76 17 -90 24 -58 29 -132 47 -247 61 -67
8 -135 19 -150 25 -16 6 -81 9 -154 7 -141 -3 -152 0 -169 61 -25 89 2 322 41
354 28 23 213 24 348 1z m-658 -14 c43 -24 54 -66 54 -215 0 -164 -12 -201
-68 -209 -17 -2 -71 -10 -118 -16 -47 -6 -112 -23 -145 -37 -32 -14 -81 -33
-107 -44 -26 -11 -71 -35 -99 -54 -27 -19 -54 -35 -59 -35 -18 0 -125 -104
-149 -145 -14 -24 -33 -54 -42 -67 -29 -40 -51 -181 -44 -284 8 -127 22 -184
55 -219 16 -16 36 -44 44 -61 16 -32 135 -139 224 -203 26 -19 72 -42 103 -51
30 -10 80 -29 110 -43 30 -15 96 -33 145 -42 50 -8 103 -20 118 -26 52 -22 57
-47 57 -288 0 -261 2 -256 -94 -249 -56 5 -248 60 -386 110 -30 11 -90 31
-132 43 -42 13 -98 35 -125 48 -26 14 -80 34 -119 46 -39 11 -79 30 -89 41 -9
10 -40 27 -69 36 -28 9 -62 27 -76 40 -14 13 -45 30 -69 39 -24 8 -61 30 -81
48 -21 17 -53 42 -72 54 -105 69 -138 96 -188 150 -90 99 -129 149 -151 195
-11 24 -31 63 -45 88 -22 40 -24 55 -24 175 1 148 8 191 43 243 14 20 30 55
37 76 7 22 28 59 46 83 19 25 34 49 34 54 0 14 158 190 211 234 97 82 125 102
159 120 19 10 51 30 70 45 19 15 56 35 82 43 26 9 62 27 80 40 18 14 59 32 92
41 32 10 75 28 95 41 20 14 70 31 111 39 41 8 109 26 150 41 41 14 115 30 165
35 84 10 203 35 214 45 7 8 31 6 52 -5z m614 -680 c205 -11 307 -25 379 -50
29 -10 78 -23 108 -29 90 -19 132 -84 86 -134 -39 -42 -191 -104 -283 -113
-106 -12 -418 -10 -523 2 -113 13 -116 17 -120 155 -2 61 -1 121 2 134 10 39
52 56 121 50 33 -3 137 -9 230 -15z m-550 -24 c22 -22 23 -28 18 -127 -6 -113
-15 -139 -70 -199 -51 -57 -49 -92 8 -166 24 -32 48 -65 53 -73 5 -8 9 -87 9
-174 0 -144 -2 -161 -18 -173 -28 -21 -75 -17 -126 10 -24 13 -71 31 -104 40
-32 8 -77 29 -101 45 -23 17 -47 31 -53 31 -5 0 -30 17 -55 38 -24 20 -63 52
-85 70 -23 19 -55 59 -71 90 -17 31 -39 73 -50 92 -13 22 -20 53 -20 86 0 110
44 185 169 290 51 42 76 56 120 65 31 6 73 20 95 31 48 24 145 46 209 47 38 1
53 -4 72 -23z m323 -1860 c26 -13 68 -29 92 -36 25 -6 59 -23 76 -36 18 -13
50 -31 73 -40 23 -9 47 -24 54 -33 6 -9 26 -27 43 -39 97 -68 176 -181 182
-262 4 -59 -4 -84 -56 -170 -35 -59 -164 -186 -216 -212 -22 -11 -56 -33 -76
-48 -19 -15 -58 -35 -87 -44 -28 -10 -57 -24 -64 -32 -21 -25 -70 -46 -94 -40
-55 14 -54 11 -53 360 0 211 -4 336 -11 357 -14 43 -21 258 -9 282 13 26 88
23 146 -7z"/>
</g>
</svg>
