<?xml version="1.0" standalone="no"?>
<!DOCTYPE svg PUBLIC "-//W3C//DTD SVG 20010904//EN"
 "http://www.w3.org/TR/2001/REC-SVG-20010904/DTD/svg10.dtd">
<svg version="1.0" xmlns="http://www.w3.org/2000/svg"
 width="408.000000pt" height="584.000000pt" viewBox="0 0 408.000000 584.000000"
 preserveAspectRatio="xMidYMid meet">
<metadata>
Created by potrace 1.16, written by Peter Selinger 2001-2019
</metadata>
<rect x="0" y="0" width="408" height="584" fill="#ffffff"/>
<g transform="translate(0.000000,584.000000) scale(0.100000,-0.100000)"
fill="#000000" stroke="none">
<path d="M1933 5804 c-10 -22 -42 -53 -76 -77 -55 -39 -61 -40 -170 -49 -70
-5 -142 -18 -192 -34 -43 -14 -122 -32 -175 -41 -58 -9 -111 -25 -137 -39 -23
-13 -72 -31 -110 -39 -38 -9 -86 -29 -108 -44 -22 -16 -65 -36 -96 -45 -31 -8
-63 -23 -70 -32 -8 -10 -41 -29 -74 -44 -33 -15 -66 -35 -74 -44 -8 -10 -31
-26 -52 -36 -48 -25 -312 -281 -356 -345 -19 -27 -43 -63 -54 -80 -53 -78 -92
-155 -106 -210 -19 -74 -38 -111 -63 -128 -19 -11 -20 -24 -20 -219 0 -199 1
-207 20 -213 27 -9 45 -39 59 -101 20 -86 134 -241 245 -333 123 -103 161
-131 173 -131 7 0 30 -15 50 -33 21 -18 57 -41 80 -51 23 -10 50 -27 59 -38
10 -10 41 -25 70 -34 29 -8 72 -28 96 -44 24 -16 50 -30 58 -30 9 0 49 -16 90
-36 41 -20 102 -43 135 -51 32 -8 82 -28 110 -43 27 -16 70 -31 95 -35 25 -4
74 -20 110 -35 36 -15 103 -36 150 -45 47 -9 112 -28 145 -42 33 -13 82 -28
109 -34 106 -20 128 -58 96 -165 -16 -54 -19 -84 -14 -127 4 -35 2 -67 -5 -84
-14 -34 -109 -97 -169 -113 -23 -6 -55 -23 -72 -38 -16 -15 -58 -52 -93 -82
-35 -30 -76 -77 -93 -104 -16 -27 -35 -59 -41 -70 -8 -12 -13 -57 -13 -106 0
-50 5 -93 13 -105 6 -12 21 -37 32 -55 30 -52 135 -148 175 -161 19 -6 49 -22
67 -35 17 -13 55 -29 85 -35 29 -5 63 -15 76 -21 33 -17 45 -76 40 -206 -4
-152 -6 -154 -162 -145 -77 4 -130 2 -162 -7 -27 -6 -116 -18 -199 -25 -129
-11 -159 -17 -215 -43 -36 -17 -83 -33 -103 -37 -21 -4 -52 -18 -70 -31 -17
-13 -50 -33 -72 -45 -57 -31 -134 -113 -183 -195 -34 -57 -44 -86 -53 -151
-16 -108 0 -241 34 -292 14 -20 34 -52 45 -71 27 -47 147 -162 192 -185 19
-10 48 -28 63 -41 15 -13 44 -26 65 -30 20 -3 65 -19 99 -36 51 -24 89 -32
195 -44 73 -9 153 -21 178 -27 25 -7 96 -12 159 -13 104 -1 116 -3 132 -23 16
-20 26 -21 148 -21 129 0 131 0 131 23 0 41 26 60 100 72 25 4 72 18 106 30
33 13 87 28 120 35 32 7 84 25 114 41 30 16 74 34 98 39 23 6 57 24 75 39 17
16 50 36 72 45 22 10 51 28 65 41 14 12 40 32 59 43 35 21 72 65 164 192 42
59 62 100 90 189 21 62 37 131 37 152 0 63 -64 232 -114 302 -58 80 -71 93
-150 147 -37 25 -88 61 -114 81 -26 20 -64 41 -84 48 -21 7 -52 23 -71 35 -19
13 -58 31 -88 41 -30 10 -72 28 -94 41 -22 12 -58 26 -80 29 -104 18 -114 81
-18 110 30 9 128 66 183 107 24 18 87 76 140 130 82 83 100 108 133 181 36 82
37 90 37 198 0 108 -1 115 -35 186 -57 117 -196 256 -301 299 -22 9 -51 27
-65 41 -16 14 -51 30 -89 39 -35 8 -86 28 -114 44 -29 16 -75 32 -106 36 -40
5 -62 14 -82 35 l-28 27 0 245 c0 226 1 247 19 268 19 24 21 24 283 30 287 6
483 26 643 65 183 44 286 74 308 88 12 8 53 24 90 35 38 12 81 29 95 40 15 10
51 31 80 45 112 56 240 182 306 299 20 37 50 114 67 172 27 93 30 118 27 208
-2 70 -11 127 -27 182 -27 90 -108 264 -127 272 -7 2 -24 22 -38 43 -21 32
-117 121 -247 229 -19 17 -48 35 -64 41 -15 6 -44 23 -64 39 -20 15 -59 36
-88 45 -28 10 -64 26 -78 38 -14 11 -57 28 -95 38 -38 10 -85 27 -104 39 -20
13 -79 29 -148 42 -62 11 -129 26 -148 35 -65 27 -284 55 -465 58 -85 1 -93 3
-139 35 -31 22 -54 47 -65 72 l-16 39 -87 0 -86 0 -19 -36z m-48 -376 c28 -12
28 -14 44 -133 15 -105 14 -204 -2 -235 -15 -30 -94 -59 -247 -90 -68 -14
-119 -30 -144 -47 -21 -13 -63 -33 -93 -44 -60 -20 -93 -44 -183 -134 -99 -99
-127 -140 -140 -201 -7 -31 -18 -71 -26 -90 -8 -18 -14 -57 -14 -86 0 -73 52
-253 82 -286 13 -15 36 -46 51 -69 14 -23 43 -54 63 -70 20 -15 54 -43 74 -60
21 -18 41 -33 46 -33 5 0 38 -18 74 -40 36 -22 72 -40 81 -40 9 0 61 -18 115
-39 56 -22 131 -44 173 -50 122 -16 119 -11 121 -281 1 -124 2 -230 1 -237 -4
-42 -73 -55 -139 -27 -57 24 -155 53 -219 65 -31 6 -79 22 -105 35 -26 13 -71
29 -100 35 -29 6 -87 26 -128 44 -41 19 -94 39 -116 45 -23 5 -58 21 -78 35
-20 13 -60 31 -90 40 -29 9 -63 27 -76 40 -13 13 -44 32 -69 41 -25 9 -62 29
-81 44 -19 15 -51 35 -70 45 -88 45 -302 246 -357 335 -9 14 -31 48 -50 77
-50 75 -67 198 -48 335 9 63 21 111 34 131 22 34 28 45 60 117 23 49 53 95 98
149 15 19 39 51 53 71 14 21 60 66 103 101 152 125 197 156 282 197 33 16 66
36 73 45 8 9 37 24 65 33 29 9 75 29 102 44 28 15 75 33 105 40 30 6 84 24
120 40 36 16 97 33 135 39 76 11 357 70 364 77 8 7 30 4 56 -8z m840 -12 c42
-17 74 -24 241 -55 56 -11 132 -33 170 -49 38 -17 86 -33 107 -37 21 -4 54
-18 73 -32 20 -13 59 -33 87 -43 27 -11 62 -30 76 -43 14 -14 38 -31 53 -39
34 -17 228 -196 228 -210 0 -6 16 -32 35 -57 83 -113 110 -318 61 -469 -39
-125 -121 -236 -239 -326 -52 -39 -199 -116 -262 -136 -22 -7 -63 -23 -90 -36
-28 -13 -75 -28 -105 -34 -30 -6 -109 -24 -175 -40 -160 -39 -249 -49 -510
-57 -229 -6 -321 3 -346 33 -9 11 -12 63 -12 180 l0 166 35 35 c42 41 64 46
353 68 240 18 257 20 390 54 61 16 127 32 147 35 20 4 56 22 78 41 23 19 46
35 50 35 5 0 29 31 54 69 42 63 46 74 46 131 0 56 -4 68 -41 123 -22 34 -54
70 -72 80 -18 11 -43 30 -56 43 -13 13 -40 26 -60 30 -20 3 -67 21 -106 39
-50 24 -96 37 -160 45 -49 6 -119 20 -155 31 -36 11 -119 25 -185 31 -66 5
-153 13 -193 17 -103 9 -103 8 -98 198 3 124 7 158 21 180 l17 26 252 -5 c197
-5 260 -9 291 -22z m-200 -676 c50 -5 140 -13 200 -19 126 -11 182 -24 233
-51 21 -10 52 -24 70 -31 42 -15 55 -39 41 -76 -19 -52 -50 -72 -162 -109
-148 -47 -244 -58 -467 -50 -217 7 -255 14 -292 56 -27 29 -28 35 -28 139 0
105 1 109 27 136 l28 27 130 -6 c71 -3 171 -10 220 -16z m-602 -31 c13 -17 17
-40 17 -108 0 -106 -12 -152 -56 -209 -44 -58 -45 -99 -4 -145 41 -48 51 -78
61 -192 5 -55 12 -128 15 -163 4 -43 3 -67 -6 -77 -17 -20 -69 -19 -127 4 -26
10 -64 21 -84 25 -19 3 -55 19 -80 34 -24 16 -59 34 -78 40 -61 21 -203 153
-261 243 -34 53 -35 56 -35 159 l0 105 37 50 c59 81 129 143 183 164 28 10 73
31 100 45 53 27 217 58 270 50 17 -2 38 -14 48 -25z m357 -1854 c27 -14 76
-35 107 -46 32 -12 69 -32 83 -44 14 -13 42 -30 63 -39 60 -25 166 -124 193
-181 13 -27 33 -66 45 -85 15 -26 19 -45 14 -73 -18 -119 -198 -330 -331 -388
-27 -12 -63 -32 -80 -44 -17 -13 -49 -28 -71 -34 -22 -6 -52 -20 -66 -31 -14
-11 -35 -20 -47 -20 -28 0 -54 60 -45 107 4 20 0 56 -10 89 -13 47 -16 115
-16 421 0 264 3 369 12 379 19 23 93 17 149 -11z m-360 -545 c18 -18 19 -33
18 -224 0 -218 -3 -230 -49 -241 -20 -5 -35 1 -67 29 -23 19 -58 40 -78 46
-27 9 -45 27 -75 73 -21 33 -39 71 -39 85 0 37 59 132 93 151 16 9 52 35 79
59 54 47 87 53 118 22z m370 -745 c27 -14 81 -32 120 -40 38 -8 93 -28 122
-44 29 -16 69 -32 89 -36 19 -4 53 -17 75 -30 21 -14 58 -33 80 -44 100 -47
226 -157 292 -255 46 -69 47 -69 47 -155 0 -110 -33 -200 -116 -311 -55 -75
-92 -102 -118 -86 -5 4 -9 55 -8 119 1 98 -2 117 -21 152 -55 99 -94 155 -122
177 -17 13 -53 42 -81 66 -27 23 -56 42 -63 42 -7 0 -32 14 -56 31 -23 17 -70
39 -104 49 -33 10 -95 30 -136 44 -41 14 -87 27 -101 30 -15 3 -37 14 -50 24
-21 18 -23 26 -23 138 -1 101 1 121 16 136 27 27 98 23 158 -7z m-379 -444
c23 -19 24 -24 23 -158 -1 -235 -22 -597 -35 -626 -7 -14 -20 -29 -29 -32 -21
-7 -237 12 -298 26 -24 5 -62 19 -84 30 -23 12 -65 27 -95 35 -30 8 -69 25
-86 38 -18 13 -48 31 -67 39 -48 20 -176 150 -190 193 -14 43 -6 81 25 114 12
14 29 37 36 52 14 27 123 128 138 128 5 0 31 15 58 34 26 18 60 37 73 41 14 4
59 22 100 40 88 40 201 62 321 64 72 1 91 -2 110 -18z m407 -41 c54 -22 104
-40 110 -40 5 0 34 -18 63 -40 30 -22 59 -40 65 -40 19 0 125 -121 145 -165
11 -24 19 -64 19 -100 0 -56 -4 -67 -45 -130 -25 -37 -58 -78 -74 -89 -16 -12
-44 -33 -62 -47 -49 -37 -185 -97 -251 -110 -72 -15 -103 -7 -116 28 -23 61
-40 716 -19 741 10 13 42 30 58 31 4 1 52 -17 107 -39z"/>
</g>
</svg>
