<?xml version="1.0" standalone="no"?>
<!DOCTYPE svg PUBLIC "-//W3C//DTD SVG 20010904//EN"
 "http://www.w3.org/TR/2001/REC-SVG-20010904/DTD/svg10.dtd">
<svg version="1.0" xmlns="http://www.w3.org/2000/svg"
 width="408.000000pt" height="632.000000pt" viewBox="0 0 408.000000 632.000000"
 preserveAspectRatio="xMidYMid meet">
<metadata>
Created by potrace 1.16, written by Peter Selinger 2001-2019
</metadata>
<rect x="0" y="0" width="408" height="632" fill="#ffffff"/>
<g transform="translate(0.000000,632.000000) scale(0.100000,-0.100000)"
fill="#000000" stroke="none">
<path d="M1930 6291 c-6 -16 -25 -35 -40 -41 -41 -17 -157 -92 -205 -132 -22
-18 -65 -60 -97 -93 -49 -51 -62 -72 -83 -138 -33 -103 -32 -152 5 -241 25
-60 41 -82 98 -132 37 -33 83 -66 102 -74 19 -7 50 -24 68 -38 19 -13 57 -30
85 -38 70 -18 90 -41 97 -112 7 -74 -2 -117 -30 -147 -21 -23 -30 -24 -164
-28 -203 -6 -421 -39 -505 -76 -36 -17 -85 -35 -108 -41 -23 -6 -55 -21 -70
-34 -15 -13 -44 -31 -63 -41 -54 -27 -118 -94 -153 -159 -18 -32 -39 -70 -47
-85 -12 -20 -15 -61 -15 -178 0 -142 1 -153 23 -180 12 -15 34 -51 47 -78 48
-96 174 -203 315 -266 68 -30 75 -35 78 -53 6 -28 -15 -43 -81 -56 -34 -6 -80
-23 -102 -36 -22 -13 -64 -28 -92 -34 -29 -6 -68 -24 -87 -40 -20 -15 -56 -33
-81 -39 -24 -6 -59 -24 -77 -40 -18 -15 -54 -37 -79 -48 -26 -12 -50 -26 -53
-32 -4 -6 -31 -27 -59 -46 -95 -65 -120 -85 -176 -145 -83 -89 -116 -131 -139
-175 -11 -22 -29 -49 -41 -59 -31 -28 -108 -188 -122 -254 -8 -41 -20 -65 -45
-90 l-34 -34 0 -210 0 -209 30 -25 c20 -18 36 -46 50 -92 51 -164 189 -340
394 -502 31 -25 71 -57 90 -72 18 -15 55 -37 82 -48 27 -12 60 -32 74 -44 14
-13 42 -29 62 -35 20 -7 53 -23 72 -36 20 -13 66 -33 103 -45 37 -11 83 -30
101 -40 18 -11 68 -28 112 -39 43 -11 97 -29 119 -40 22 -12 82 -28 133 -37
51 -8 144 -29 207 -46 72 -19 155 -33 222 -37 63 -4 114 -13 123 -20 21 -18
36 -75 36 -139 0 -43 -5 -58 -25 -77 -22 -23 -32 -25 -109 -25 -62 0 -106 -7
-163 -24 -43 -14 -98 -30 -123 -36 -43 -11 -210 -114 -210 -129 0 -4 -20 -30
-43 -58 -55 -64 -73 -136 -63 -250 9 -96 20 -123 85 -200 63 -75 177 -141 291
-168 56 -14 81 -25 100 -47 l24 -28 273 0 c263 0 272 1 278 20 9 29 52 48 136
61 48 7 99 25 153 52 102 51 140 81 243 186 80 81 84 87 113 178 24 75 30 111
30 183 0 108 -35 232 -84 294 -53 69 -199 207 -241 228 -22 12 -53 31 -68 44
-15 13 -47 28 -70 34 -23 6 -69 24 -102 40 -41 20 -87 33 -148 40 -49 6 -106
18 -128 27 -65 26 -69 42 -69 287 0 211 0 215 22 230 25 18 105 21 153 7 32
-9 392 3 567 19 59 5 133 18 165 29 32 10 105 27 163 36 65 11 130 28 170 47
36 16 88 34 115 39 28 5 68 22 91 38 22 15 63 36 91 45 28 9 59 26 69 37 11
12 35 30 54 40 87 46 223 217 250 315 8 27 27 61 47 80 l33 33 0 211 c0 168
-3 210 -13 210 -24 0 -57 46 -70 97 -28 105 -192 294 -348 398 -17 11 -48 34
-70 52 -21 17 -63 39 -92 47 -30 9 -62 24 -71 35 -10 11 -41 28 -70 37 -28 9
-73 29 -101 44 -27 16 -79 33 -115 39 -72 12 -234 64 -256 82 -11 9 -21 59
-11 59 23 0 117 47 158 80 60 47 159 151 179 190 7 14 26 41 40 60 15 19 45
87 66 150 47 140 52 230 16 295 -12 22 -30 63 -40 90 -33 89 -152 232 -227
272 -16 9 -46 28 -65 43 -19 15 -53 33 -75 40 -22 7 -55 23 -72 37 -18 13 -63
34 -100 47 -279 98 -429 144 -496 152 -72 8 -93 32 -82 91 4 21 7 90 6 153 -1
82 3 128 14 159 8 24 15 76 15 115 0 39 7 96 15 126 21 76 19 104 -10 158 -14
26 -25 55 -25 64 0 16 -12 18 -119 18 l-119 0 -12 -29z m-26 -333 c18 -29 28
-121 31 -281 3 -115 1 -128 -15 -137 -31 -16 -54 -12 -90 19 -19 15 -48 35
-65 44 -68 35 -113 116 -101 181 4 23 24 50 61 85 29 28 58 51 63 51 5 0 26
14 47 30 45 36 50 37 69 8z m366 -713 c14 -15 43 -28 79 -36 31 -6 85 -25 121
-41 36 -17 90 -39 120 -49 30 -11 63 -28 75 -38 11 -11 42 -29 69 -41 48 -20
67 -33 169 -120 126 -107 195 -222 182 -303 -18 -105 -54 -192 -108 -257 -100
-122 -262 -248 -364 -284 -21 -7 -55 -25 -75 -38 -48 -33 -199 -62 -269 -53
-77 11 -102 38 -107 116 -5 81 16 114 81 124 100 15 147 30 219 72 43 25 85
57 94 72 9 14 27 38 41 52 71 77 67 275 -8 370 -65 82 -152 158 -194 170 -22
6 -60 23 -85 39 -25 16 -63 32 -85 36 -22 3 -46 11 -52 17 -17 13 -18 188 -1
205 21 21 72 14 98 -13z m-294 -389 c39 -54 0 -142 -73 -163 -38 -11 -177 -33
-324 -51 -105 -13 -207 -71 -239 -137 -41 -84 -2 -153 120 -219 65 -35 150
-53 392 -81 104 -12 134 -65 87 -158 -34 -67 -57 -87 -101 -87 -22 0 -59 -5
-82 -11 -37 -9 -57 -7 -142 16 -55 15 -123 33 -152 40 -29 7 -69 24 -90 38
-20 14 -54 30 -74 36 -20 7 -42 19 -50 28 -7 9 -33 29 -58 45 -46 29 -119 116
-147 178 -21 47 -21 192 -1 241 22 50 106 134 159 158 24 11 55 30 69 41 14
11 61 27 105 36 44 9 93 23 110 32 48 24 189 41 338 39 125 -2 140 -4 153 -21z
m289 -31 c28 -14 58 -25 67 -25 9 0 47 -29 84 -64 65 -62 67 -67 72 -120 2
-30 2 -66 -2 -80 -8 -34 -109 -134 -143 -142 -15 -4 -49 -17 -75 -30 -58 -29
-82 -30 -108 -4 -36 36 -21 108 34 159 31 29 50 82 40 113 -3 13 -26 44 -50
70 -50 53 -57 95 -24 128 26 26 44 25 105 -5z m-341 -299 c39 -16 66 -67 66
-123 0 -47 -7 -59 -43 -72 -40 -15 -84 -14 -237 8 -220 32 -300 76 -247 136
41 46 115 63 280 64 104 1 157 -3 181 -13z m569 -766 c105 -5 197 -15 225 -23
61 -19 171 -44 249 -56 34 -5 92 -23 130 -39 37 -16 92 -35 121 -42 29 -7 66
-23 82 -37 16 -13 51 -31 77 -40 26 -8 59 -26 73 -39 14 -12 44 -31 67 -41 49
-21 218 -174 240 -218 9 -16 30 -46 46 -66 17 -19 41 -67 54 -105 13 -38 31
-89 39 -114 21 -60 13 -148 -18 -225 -14 -33 -32 -81 -42 -107 -12 -33 -43
-73 -104 -135 -114 -116 -143 -138 -201 -158 -27 -9 -56 -24 -66 -35 -10 -11
-34 -24 -54 -31 -20 -6 -74 -26 -121 -44 -47 -18 -134 -43 -195 -55 -60 -11
-144 -30 -185 -41 -131 -35 -553 -55 -710 -35 -95 12 -110 25 -110 89 0 28 7
83 15 122 8 38 15 84 15 101 0 18 9 42 19 55 18 23 25 24 232 31 264 9 378 22
494 58 50 15 114 31 143 35 32 4 64 16 80 30 15 12 41 29 57 38 17 8 53 39 81
69 45 47 52 62 62 117 11 59 6 123 -14 176 -11 30 -95 111 -124 120 -14 4 -55
23 -91 41 -44 23 -90 37 -140 44 -164 22 -216 31 -264 47 -28 9 -90 17 -140
19 -205 5 -335 16 -346 30 -14 17 -15 62 -2 199 8 89 15 119 36 155 15 25 27
53 27 63 0 27 47 70 68 62 9 -4 97 -11 195 -15z m-633 -25 c41 -21 59 -61 71
-157 5 -46 17 -115 26 -155 19 -83 9 -125 -36 -147 -31 -16 -196 -62 -268 -76
-29 -5 -75 -21 -103 -35 -27 -14 -73 -34 -102 -45 -40 -15 -77 -42 -144 -107
-82 -79 -96 -98 -132 -178 -69 -155 -67 -256 8 -419 33 -69 51 -94 132 -171
100 -96 136 -122 208 -155 25 -12 72 -34 105 -50 33 -16 98 -38 145 -50 259
-67 240 -43 240 -305 0 -135 -4 -213 -12 -230 -14 -30 -44 -40 -101 -31 -23 3
-89 13 -145 21 -57 8 -134 26 -170 39 -37 13 -101 29 -142 35 -44 7 -98 23
-130 40 -30 15 -80 34 -110 40 -30 6 -75 25 -100 40 -25 16 -68 36 -97 45 -28
10 -63 26 -76 36 -13 10 -49 30 -80 44 -31 14 -57 29 -57 34 0 5 -21 21 -47
36 -27 15 -70 43 -98 62 -66 47 -222 201 -242 239 -9 17 -29 46 -44 65 -15 19
-33 55 -39 80 -7 25 -23 71 -36 103 -15 36 -27 88 -31 136 -5 70 -3 87 25 167
17 49 38 114 46 145 9 31 23 62 32 70 8 7 27 35 41 63 14 28 40 68 57 89 54
68 280 288 311 304 17 9 46 28 65 43 19 15 52 35 73 44 22 9 52 27 68 41 17
13 48 29 71 35 22 6 69 27 105 46 36 19 72 34 81 34 9 0 71 18 137 40 66 22
158 46 205 55 47 8 112 23 145 34 74 24 107 26 145 6z m505 -625 c108 -9 226
-28 315 -49 25 -6 85 -18 133 -25 57 -10 102 -23 125 -38 21 -13 56 -30 80
-36 72 -22 90 -82 38 -131 -12 -11 -64 -32 -119 -46 -53 -14 -114 -33 -134
-41 -27 -12 -96 -17 -292 -21 -221 -5 -264 -4 -313 11 -68 20 -82 39 -74 105
3 25 9 91 12 146 9 147 3 144 229 125z m-407 -19 c21 -13 32 -74 39 -212 l6
-127 -41 -40 c-69 -68 -70 -154 -4 -226 l40 -43 6 -134 c8 -151 1 -187 -37
-209 -25 -14 -30 -13 -74 11 -27 15 -82 34 -123 42 -171 36 -354 169 -452 329
-37 59 -38 65 -38 153 0 91 0 91 44 158 24 37 64 86 89 110 64 63 182 123 286
147 47 11 109 26 136 34 57 17 104 19 123 7z m335 -1963 c72 -14 121 -30 145
-46 20 -13 55 -31 77 -39 22 -7 51 -24 65 -37 14 -13 45 -36 68 -50 24 -15 51
-41 60 -58 10 -17 33 -54 52 -82 34 -50 35 -53 35 -152 0 -99 -1 -103 -31
-140 -17 -22 -38 -54 -48 -71 -9 -18 -30 -40 -46 -48 -16 -8 -45 -29 -64 -45
-18 -17 -51 -36 -73 -44 -21 -7 -56 -25 -77 -39 -21 -15 -54 -29 -75 -32 -20
-4 -72 -15 -115 -26 -44 -10 -95 -19 -114 -19 -19 0 -52 -5 -74 -12 -47 -14
-177 1 -336 38 -81 19 -115 33 -164 66 -85 58 -125 104 -138 159 -18 75 -2
115 82 198 62 61 79 72 126 83 30 6 71 23 91 37 33 24 43 26 131 23 104 -3
134 -16 105 -45 -11 -11 -32 -16 -73 -15 -96 2 -132 -14 -190 -83 -59 -69 -64
-96 -37 -187 15 -48 20 -54 88 -94 l72 -43 155 0 155 0 83 40 c156 73 213 184
172 335 -17 63 -106 145 -203 185 -59 25 -75 37 -89 65 -30 59 -21 168 16 192
18 12 55 9 169 -14z m-115 -393 c85 -36 116 -101 81 -171 -24 -51 -49 -68
-142 -100 -84 -29 -181 -32 -253 -8 -63 21 -84 40 -84 76 0 65 104 111 182 82
103 -38 122 -31 131 52 5 53 20 84 39 84 5 0 25 -7 46 -15z"/>
</g>
</svg>
