<?xml version="1.0" standalone="no"?>
<!DOCTYPE svg PUBLIC "-//W3C//DTD SVG 20010904//EN"
 "http://www.w3.org/TR/2001/REC-SVG-20010904/DTD/svg10.dtd">
<svg version="1.0" xmlns="http://www.w3.org/2000/svg"
 width="408.000000pt" height="664.000000pt" viewBox="0 0 408.000000 664.000000"
 preserveAspectRatio="xMidYMid meet">
<metadata>
Created by potrace 1.16, written by Peter Selinger 2001-2019
</metadata>
<rect x="0" y="0" width="408" height="664" fill="#ffffff"/>
<g transform="translate(0.000000,664.000000) scale(0.100000,-0.100000)"
fill="#000000" stroke="none">
<path d="M1920 6601 c-8 -29 -18 -43 -43 -54 -70 -32 -166 -56 -249 -61 -91
-6 -183 -24 -259 -51 -24 -9 -75 -23 -113 -31 -38 -8 -96 -26 -130 -40 -33
-14 -86 -34 -118 -44 -31 -10 -71 -29 -90 -43 -18 -13 -56 -32 -85 -41 -28
-10 -57 -24 -65 -33 -7 -9 -36 -26 -63 -39 -28 -12 -57 -30 -65 -39 -8 -10
-33 -29 -55 -43 -78 -49 -265 -220 -265 -242 0 -5 -15 -26 -33 -46 -84 -97
-186 -286 -211 -397 -19 -83 -30 -104 -56 -112 -19 -6 -20 -15 -20 -161 l0
-154 30 -28 c22 -19 36 -47 49 -94 10 -38 30 -86 45 -108 14 -22 26 -44 26
-50 0 -17 153 -182 224 -240 36 -30 87 -72 112 -92 25 -21 51 -38 57 -38 7 0
29 -14 49 -30 20 -17 56 -37 79 -45 22 -8 56 -28 74 -44 20 -17 54 -33 85 -40
29 -6 71 -24 94 -40 22 -16 57 -33 76 -36 19 -4 61 -20 92 -36 31 -16 92 -38
135 -49 43 -12 92 -30 110 -41 17 -11 63 -26 102 -35 39 -8 96 -25 126 -39 30
-13 96 -33 147 -44 119 -25 199 -55 227 -85 19 -21 24 -38 26 -103 2 -43 -1
-86 -7 -96 -13 -25 -68 -57 -98 -57 -14 0 -44 -9 -65 -21 -22 -11 -63 -29 -92
-40 -28 -11 -57 -27 -64 -35 -7 -9 -34 -26 -60 -39 -70 -36 -194 -174 -234
-261 -60 -131 -67 -163 -63 -292 4 -117 4 -117 52 -215 39 -79 62 -112 124
-173 42 -42 97 -87 122 -102 25 -14 59 -35 75 -47 17 -12 55 -30 85 -40 67
-22 155 -69 193 -103 21 -20 27 -35 27 -66 0 -23 -4 -46 -8 -53 -13 -20 -61
-33 -122 -33 -63 0 -148 -11 -290 -37 -47 -9 -111 -20 -144 -24 -32 -5 -79
-20 -105 -34 -25 -14 -72 -34 -104 -45 -33 -11 -74 -33 -93 -50 -19 -16 -41
-30 -49 -30 -8 0 -45 -30 -83 -67 -49 -48 -81 -93 -113 -153 l-44 -85 0 -111
c0 -110 0 -111 36 -170 20 -32 39 -68 43 -79 14 -43 195 -208 242 -219 15 -4
42 -20 60 -35 18 -16 55 -34 85 -41 30 -7 77 -25 106 -40 38 -20 78 -31 155
-40 56 -6 123 -18 147 -26 26 -8 86 -14 143 -14 93 0 99 -1 128 -27 43 -40 52
-100 35 -238 -8 -66 -23 -137 -39 -178 -33 -85 -33 -109 1 -179 l28 -57 88 0
c84 -1 87 0 87 22 0 12 7 43 14 69 13 42 12 59 -5 169 -11 68 -25 131 -30 140
-5 10 -9 58 -9 107 0 76 3 94 23 122 38 57 63 68 191 85 92 13 132 23 174 46
30 16 60 29 66 29 30 0 88 23 114 45 16 13 54 33 84 45 31 11 62 28 69 36 7 9
31 25 53 36 117 60 262 214 337 357 l44 85 0 122 0 121 -36 54 c-20 30 -44 68
-53 86 -8 17 -30 40 -48 51 -19 12 -45 33 -58 47 -14 15 -46 37 -71 50 -25 13
-51 30 -58 39 -7 8 -36 23 -64 32 -29 9 -73 27 -99 40 -75 38 -245 95 -473
160 -98 28 -141 45 -175 71 -45 35 -45 35 -122 28 -68 -5 -86 -3 -149 20 -141
51 -304 156 -373 240 -46 57 -98 182 -111 267 -6 38 -2 57 23 114 16 38 33 80
37 94 20 68 75 118 115 105 10 -3 26 -25 35 -48 9 -23 29 -55 43 -70 27 -29
203 -119 255 -131 16 -4 40 -18 54 -32 28 -28 28 -23 -2 -194 -13 -74 -14
-102 -6 -132 21 -70 105 -104 181 -74 22 9 62 21 88 27 26 5 67 23 92 39 25
15 70 35 101 44 30 8 64 25 74 36 10 11 39 30 63 40 24 11 60 33 78 50 19 16
39 30 45 30 20 0 209 198 221 231 6 18 25 55 42 83 30 48 31 52 30 175 l0 126
-43 80 c-24 44 -62 100 -85 125 -54 58 -155 140 -171 140 -7 0 -32 15 -57 34
-24 19 -64 40 -89 46 -24 7 -66 24 -94 40 -27 15 -85 35 -129 43 -96 20 -122
36 -135 84 -12 41 -15 430 -5 482 4 17 15 36 26 42 11 6 119 12 256 14 256 3
456 17 512 34 19 6 103 25 185 42 84 17 187 46 233 65 45 19 88 34 96 34 21 0
222 105 257 134 17 14 35 26 39 26 18 0 142 124 160 159 10 20 32 53 48 74 19
23 35 60 42 94 16 74 36 120 60 135 18 12 20 24 20 144 0 107 -3 134 -16 145
-22 18 -51 78 -65 132 -11 44 -62 132 -131 227 -41 55 -107 120 -175 171 -28
21 -54 43 -58 49 -3 6 -25 20 -48 32 -23 11 -54 31 -69 44 -15 12 -44 28 -65
35 -20 6 -54 24 -75 40 -21 15 -62 33 -91 39 -28 7 -77 25 -107 41 -30 15 -83
33 -117 39 -34 6 -99 24 -145 40 -53 18 -124 33 -194 40 -60 6 -140 18 -179
26 -43 10 -107 14 -171 12 -100 -3 -103 -2 -146 27 -27 20 -46 42 -53 63 l-9
32 -118 0 -117 0 -11 -39z m480 -337 c34 -8 80 -14 103 -12 100 7 340 -24 438
-57 39 -14 98 -29 132 -36 34 -6 89 -23 123 -39 35 -16 87 -35 117 -44 30 -9
61 -23 68 -33 8 -9 38 -27 68 -40 78 -35 193 -129 294 -242 72 -80 78 -90 128
-216 28 -69 32 -93 33 -175 0 -79 -3 -103 -23 -145 -12 -27 -29 -71 -37 -96
-8 -26 -21 -53 -30 -60 -9 -8 -28 -32 -42 -54 -83 -135 -374 -291 -667 -356
-323 -73 -306 -71 -655 -95 -47 -3 -125 -2 -174 4 -128 14 -130 17 -135 188
-4 163 3 216 32 249 20 22 33 25 172 35 230 17 422 40 490 58 22 6 72 16 110
22 92 14 218 77 282 142 l48 49 4 81 c5 119 -6 144 -95 222 -41 36 -81 66 -88
66 -7 0 -42 15 -77 34 -35 18 -93 38 -129 45 -36 7 -92 21 -125 31 -112 35
-352 65 -497 61 -65 -2 -80 1 -97 18 -28 28 -35 80 -22 167 6 41 11 100 11
130 0 48 4 60 29 85 26 26 36 29 89 29 33 0 88 -7 122 -16z m-488 -31 c12 -11
18 -30 18 -57 0 -23 6 -66 14 -96 7 -30 16 -85 20 -121 9 -92 -2 -103 -128
-128 -112 -23 -323 -88 -346 -107 -9 -7 -38 -23 -65 -35 -28 -12 -63 -34 -80
-50 -16 -15 -52 -47 -78 -71 -27 -23 -60 -63 -73 -88 -13 -25 -33 -56 -44 -70
-27 -34 -40 -112 -40 -234 0 -173 37 -261 161 -385 81 -81 144 -126 213 -151
29 -11 67 -31 86 -45 19 -14 39 -25 46 -25 21 0 296 -81 315 -93 10 -6 22 -18
25 -27 4 -8 6 -116 5 -240 -2 -189 -5 -228 -18 -242 -22 -24 -55 -22 -138 7
-38 13 -80 25 -93 25 -13 0 -54 12 -90 27 -37 14 -107 39 -157 54 -175 54
-295 99 -332 123 -21 14 -60 30 -87 36 -27 6 -68 24 -90 40 -22 17 -45 30 -51
30 -6 0 -42 20 -79 45 -38 25 -74 45 -80 45 -6 0 -27 13 -46 28 -19 16 -55 41
-79 57 -71 44 -287 268 -302 312 -7 21 -27 69 -46 108 -31 65 -33 77 -33 170
0 101 17 185 45 229 8 12 23 46 35 78 11 31 28 62 36 69 9 7 25 31 36 53 11
22 35 59 52 81 51 66 228 236 267 255 19 10 42 26 50 36 8 9 39 28 69 41 30
14 66 35 80 48 14 13 48 30 75 38 28 8 67 26 88 40 21 14 60 30 87 36 28 6 72
22 98 36 27 14 84 32 127 40 44 9 113 26 155 39 85 27 211 48 324 54 16 1 38
-5 48 -15z m588 -658 c30 -8 78 -15 105 -15 28 0 82 -6 120 -15 39 -8 112 -20
163 -26 82 -11 101 -17 153 -52 78 -52 80 -77 9 -130 -62 -46 -72 -50 -190
-76 -236 -50 -362 -61 -443 -37 -30 9 -78 16 -105 16 -55 0 -137 30 -158 58
-16 21 -19 198 -4 239 6 15 18 34 27 41 24 18 253 16 323 -3z m-562 -22 c17
-15 21 -34 25 -120 l5 -101 -50 -84 c-28 -45 -51 -95 -51 -110 0 -15 11 -42
25 -60 55 -73 62 -96 69 -243 3 -77 3 -150 -2 -161 -19 -53 -130 -49 -248 11
-37 18 -77 36 -91 40 -36 11 -147 92 -203 148 -27 27 -57 67 -68 90 -10 23
-28 58 -39 77 -15 26 -20 53 -20 105 0 61 4 77 33 124 42 70 130 159 175 178
20 8 50 26 67 39 21 16 60 29 116 39 46 8 102 21 124 30 55 20 109 19 133 -2z
m338 -1869 c42 -14 93 -36 113 -49 20 -12 54 -28 76 -35 22 -7 51 -23 65 -35
14 -13 39 -30 55 -38 46 -25 126 -108 170 -178 35 -57 40 -71 40 -124 -1 -51
-6 -70 -40 -130 -44 -76 -131 -169 -210 -221 -27 -18 -61 -42 -75 -53 -14 -11
-30 -21 -36 -21 -5 0 -31 -13 -56 -29 -25 -16 -78 -40 -118 -52 l-72 -24 -24
28 c-27 32 -33 101 -11 130 7 10 40 24 77 32 139 29 284 117 326 198 18 34 20
189 4 232 -30 78 -206 188 -324 201 -81 10 -100 29 -94 100 4 50 27 94 49 94
5 0 43 -12 85 -26z m-327 -353 c17 -17 19 -29 14 -103 -3 -45 -10 -89 -16 -95
-5 -8 -31 -13 -59 -13 -45 0 -54 4 -89 39 -27 27 -39 47 -39 67 0 38 6 45 60
80 78 50 99 55 129 25z m352 -36 c53 -35 69 -51 69 -69 0 -54 -86 -115 -162
-116 -56 0 -73 31 -65 120 3 38 11 78 17 89 18 35 64 27 141 -24z m89 -1261
c80 -25 179 -61 220 -80 42 -19 83 -34 92 -34 8 0 42 -18 74 -40 33 -22 64
-40 71 -40 6 0 29 -15 52 -32 22 -18 55 -42 73 -53 18 -11 41 -34 51 -50 10
-17 34 -55 53 -85 42 -67 43 -103 5 -178 -16 -31 -36 -73 -45 -93 -18 -39 -86
-85 -111 -75 -11 4 -15 24 -15 78 -1 88 -32 190 -75 245 -64 82 -132 146 -180
170 -27 14 -57 31 -65 39 -15 12 -117 58 -204 90 -22 8 -71 19 -110 25 -39 6
-79 16 -89 21 -24 12 -49 71 -40 95 20 57 57 57 243 -3z m-458 -214 c29 -8 39
-18 48 -45 14 -42 0 -124 -30 -172 -25 -42 -57 -57 -160 -78 -61 -12 -100 -26
-137 -51 -29 -19 -58 -34 -65 -34 -6 0 -39 -29 -73 -64 -68 -71 -82 -104 -92
-229 -7 -85 -25 -100 -81 -66 -20 12 -53 27 -73 34 -46 17 -139 86 -176 133
-49 61 -55 80 -51 146 3 53 9 69 38 106 72 90 159 160 230 185 22 8 55 25 73
39 21 17 56 29 102 36 39 6 92 17 119 25 27 8 66 15 85 16 20 0 52 7 71 14 43
16 122 19 172 5z m368 -55 c39 -8 90 -26 114 -40 23 -13 60 -31 83 -39 94 -33
216 -156 253 -255 22 -61 22 -122 -1 -136 -14 -10 -103 51 -133 90 -15 20 -59
51 -104 74 -89 47 -109 54 -212 72 -105 17 -125 29 -144 86 -19 55 -21 134 -4
151 16 16 62 15 148 -3z m-312 -376 c34 -26 88 -24 137 6 50 31 81 31 155 0
33 -14 67 -25 77 -25 90 -3 233 -132 233 -211 0 -31 -37 -87 -68 -103 -15 -7
-95 -19 -178 -26 l-150 -12 -51 31 c-28 17 -62 31 -77 31 -15 0 -67 -20 -116
-44 -88 -44 -89 -44 -173 -39 -107 7 -163 32 -194 88 -73 129 35 251 286 321
53 15 85 10 119 -17z"/>
</g>
</svg>
