<?xml version="1.0" standalone="no"?>
<!DOCTYPE svg PUBLIC "-//W3C//DTD SVG 20010904//EN"
 "http://www.w3.org/TR/2001/REC-SVG-20010904/DTD/svg10.dtd">
<svg version="1.0" xmlns="http://www.w3.org/2000/svg"
 width="408.000000pt" height="288.000000pt" viewBox="0 0 408.000000 288.000000"
 preserveAspectRatio="xMidYMid meet">
<metadata>
Created by potrace 1.16, written by Peter Selinger 2001-2019
</metadata>
<rect x="0" y="0" width="408" height="288" fill="#ffffff"/>
<g transform="translate(0.000000,288.000000) scale(0.100000,-0.100000)"
fill="#000000" stroke="none">
<path d="M2087 2857 c-25 -19 -39 -22 -113 -20 -55 1 -95 -3 -119 -12 -19 -9
-90 -20 -157 -25 -145 -12 -210 -24 -298 -54 -36 -13 -90 -26 -120 -30 -31 -4
-77 -20 -106 -36 -28 -16 -74 -34 -103 -41 -28 -6 -65 -22 -81 -35 -16 -14
-55 -34 -86 -44 -32 -11 -67 -29 -79 -39 -11 -11 -40 -29 -65 -40 -59 -27
-128 -75 -217 -152 -39 -34 -88 -72 -107 -86 -20 -13 -36 -27 -36 -32 0 -4
-32 -45 -70 -89 -39 -45 -78 -99 -87 -119 -8 -21 -31 -55 -49 -76 -19 -20 -34
-43 -34 -51 0 -7 -14 -40 -32 -72 -29 -56 -65 -187 -75 -282 -4 -31 -12 -47
-29 -59 -20 -13 -24 -24 -24 -63 0 -40 4 -50 25 -64 18 -12 25 -25 25 -49 0
-17 7 -54 15 -81 8 -27 15 -61 15 -75 1 -66 108 -228 232 -350 81 -81 121
-112 173 -139 22 -11 49 -30 60 -42 11 -13 40 -31 64 -41 24 -11 56 -30 72
-43 16 -13 50 -32 78 -41 27 -8 57 -25 67 -36 9 -11 43 -27 73 -35 31 -9 76
-28 101 -43 25 -15 63 -32 85 -39 22 -6 78 -27 125 -46 47 -20 93 -36 102 -36
10 0 65 -18 123 -40 58 -22 113 -40 122 -40 9 0 69 -16 133 -36 200 -64 202
-64 214 -95 l10 -29 123 0 123 0 0 73 c0 39 -9 105 -20 146 -17 63 -20 107
-20 282 0 189 2 209 19 230 19 24 21 24 283 30 332 8 506 24 703 64 147 30
310 77 349 100 23 13 65 29 93 35 32 7 69 25 95 46 24 18 48 34 55 34 21 0
170 138 218 201 25 33 55 86 67 117 12 31 34 70 50 85 l28 29 0 227 0 228 -25
11 c-26 12 -48 48 -59 97 -15 65 -91 171 -196 274 -149 146 -151 148 -202 171
-25 11 -51 27 -59 36 -7 9 -40 29 -73 45 -33 16 -67 36 -76 44 -9 8 -47 25
-86 38 -38 14 -98 36 -134 50 -143 55 -290 90 -445 106 -60 7 -130 17 -155 24
-25 6 -85 12 -133 12 -80 0 -91 2 -107 23 -17 20 -26 22 -117 21 -85 0 -102
-3 -126 -22z m174 -343 c29 -10 86 -17 164 -19 204 -5 413 -32 506 -64 31 -10
88 -24 127 -30 39 -6 106 -26 149 -45 43 -19 95 -37 115 -41 20 -4 61 -22 90
-41 29 -19 58 -34 65 -34 7 0 27 -13 45 -29 18 -15 52 -38 74 -49 23 -12 81
-63 129 -114 71 -76 96 -112 136 -194 49 -101 49 -102 49 -203 0 -87 -3 -109
-24 -149 -13 -26 -31 -70 -40 -97 -32 -99 -176 -242 -290 -288 -28 -12 -62
-29 -75 -39 -13 -10 -49 -26 -80 -34 -31 -9 -81 -27 -112 -40 -32 -13 -106
-32 -167 -43 -60 -11 -145 -29 -188 -39 -118 -29 -221 -37 -517 -37 -327 0
-309 -8 -301 138 3 51 7 102 10 114 7 34 50 50 163 63 189 21 398 116 523 238
56 54 108 174 108 250 0 79 -39 201 -77 241 -99 105 -139 141 -167 152 -17 7
-46 25 -63 40 -18 16 -52 33 -74 39 -23 7 -65 24 -93 40 -36 20 -77 32 -136
40 -141 19 -156 32 -167 137 -7 61 8 105 45 133 30 24 20 23 73 4z m-336 -30
c30 -12 46 -59 39 -121 -10 -95 -31 -112 -149 -128 -27 -4 -73 -19 -101 -35
-28 -16 -70 -33 -93 -40 -22 -6 -56 -23 -74 -39 -17 -15 -47 -33 -65 -40 -17
-8 -68 -49 -112 -93 -62 -62 -83 -91 -94 -127 -28 -95 -62 -147 -118 -181 -72
-44 -103 -74 -146 -145 -35 -57 -37 -65 -37 -146 0 -79 3 -90 39 -160 21 -41
57 -93 80 -117 59 -62 160 -131 238 -163 37 -15 77 -33 90 -40 46 -26 355
-102 461 -115 28 -3 58 -14 73 -27 l25 -22 1 -230 c1 -158 -2 -237 -10 -252
-21 -39 -65 -45 -182 -24 -58 11 -126 28 -151 39 -26 11 -75 28 -110 38 -35
10 -91 30 -124 46 -33 15 -70 28 -82 28 -12 0 -52 16 -89 35 -38 20 -93 43
-124 51 -30 9 -70 27 -87 41 -18 13 -52 31 -75 39 -24 8 -54 26 -68 39 -14 13
-45 31 -69 40 -24 8 -61 31 -82 50 -22 19 -44 35 -49 35 -16 0 -191 158 -240
217 -92 109 -102 124 -121 174 -11 28 -29 70 -41 92 -14 28 -22 68 -25 122 -5
74 -2 90 36 207 24 72 53 140 67 157 13 16 31 46 40 68 9 21 33 56 53 79 20
23 56 66 81 97 25 31 48 57 53 57 4 0 27 18 50 39 52 48 128 103 182 132 22
12 54 32 70 44 17 12 48 28 70 35 22 7 67 27 100 46 33 18 78 36 100 40 22 4
65 19 95 35 30 15 87 33 125 39 39 6 104 21 145 34 106 34 124 38 225 46 129
10 161 11 180 4z m390 -534 c32 -11 74 -20 94 -20 57 -1 123 -19 156 -44 16
-13 49 -33 72 -44 52 -27 74 -56 102 -130 l23 -60 -22 -50 c-46 -107 -205
-214 -375 -252 -158 -36 -189 -37 -220 -6 l-25 25 -2 233 c-1 128 -1 246 0
263 3 33 23 59 67 86 38 24 58 24 130 -1z m-355 -10 c11 -11 20 -32 21 -47 4
-139 0 -515 -6 -532 -12 -39 -39 -44 -123 -23 -42 11 -95 23 -117 27 -54 9
-176 79 -241 139 -41 37 -58 61 -71 102 -16 51 -16 57 0 108 22 68 48 101 100
128 23 11 56 32 74 45 22 17 58 29 122 39 50 8 101 19 113 24 42 16 106 12
128 -10z m-710 -370 c11 -6 28 -29 38 -53 60 -131 341 -288 567 -316 123 -15
125 -17 125 -157 0 -162 -4 -164 -215 -109 -49 13 -110 27 -135 30 -70 11
-277 92 -332 131 -28 18 -54 34 -58 34 -4 0 -31 27 -60 60 -40 46 -56 74 -71
130 -19 67 -19 73 -4 119 11 34 31 64 65 95 54 51 53 50 80 36z"/>
</g>
</svg>
