<?xml version="1.0" standalone="no"?>
<!DOCTYPE svg PUBLIC "-//W3C//DTD SVG 20010904//EN"
 "http://www.w3.org/TR/2001/REC-SVG-20010904/DTD/svg10.dtd">
<svg version="1.0" xmlns="http://www.w3.org/2000/svg"
 width="408.000000pt" height="304.000000pt" viewBox="0 0 408.000000 304.000000"
 preserveAspectRatio="xMidYMid meet">
<metadata>
Created by potrace 1.16, written by Peter Selinger 2001-2019
</metadata>
<rect x="0" y="0" width="408" height="304" fill="#ffffff"/>
<g transform="translate(0.000000,304.000000) scale(0.100000,-0.100000)"
fill="#000000" stroke="none">
<path d="M2016 3016 c-3 -13 -25 -36 -48 -51 -24 -15 -53 -37 -66 -49 -20 -18
-44 -22 -170 -32 -104 -8 -170 -19 -227 -37 -44 -13 -117 -32 -163 -42 -45 -9
-111 -30 -147 -46 -36 -16 -89 -34 -118 -40 -28 -6 -70 -23 -92 -39 -22 -15
-60 -33 -83 -39 -23 -7 -58 -25 -76 -42 -19 -16 -49 -35 -67 -41 -33 -11 -120
-69 -188 -125 -70 -57 -239 -229 -254 -259 -9 -17 -23 -37 -32 -44 -9 -8 -28
-37 -42 -64 -14 -28 -36 -64 -49 -79 -13 -15 -28 -47 -34 -70 -6 -23 -22 -63
-36 -89 -17 -34 -29 -80 -39 -155 -28 -212 -14 -386 41 -503 64 -137 103 -189
225 -304 113 -105 129 -119 164 -141 17 -10 41 -29 55 -41 14 -13 45 -30 70
-39 25 -9 58 -29 75 -44 16 -16 48 -34 70 -41 22 -7 56 -23 75 -36 19 -12 64
-32 99 -44 35 -12 87 -33 114 -47 28 -14 72 -32 99 -40 27 -7 63 -22 81 -33
17 -10 77 -30 132 -45 55 -14 110 -32 122 -40 12 -8 65 -26 117 -40 53 -13
113 -33 134 -44 21 -11 56 -22 77 -26 22 -4 73 -25 113 -47 67 -37 79 -40 133
-36 98 7 128 52 95 145 -18 51 -38 211 -30 241 4 12 -1 55 -9 95 -22 100 -30
352 -11 368 23 19 78 12 130 -15 41 -22 62 -26 132 -26 186 0 331 40 582 160
36 17 94 48 130 70 36 21 83 49 105 61 22 11 63 38 90 59 28 20 81 59 119 86
38 27 83 63 100 81 17 17 59 55 92 85 73 63 207 215 230 261 9 17 49 69 89
114 80 90 91 116 80 200 -5 42 -14 63 -40 91 -18 21 -41 55 -53 77 -23 46
-193 220 -237 242 -16 9 -47 31 -68 49 -20 19 -43 34 -51 34 -8 0 -33 16 -56
35 -23 19 -62 40 -86 46 -25 6 -60 24 -80 39 -19 16 -58 33 -86 40 -28 6 -74
23 -102 39 -28 16 -82 34 -121 41 -38 7 -99 23 -135 36 -82 28 -153 41 -310
54 -68 6 -142 15 -164 21 -22 6 -58 8 -79 5 -32 -6 -51 -1 -101 25 -68 35
-106 66 -106 86 0 9 -16 13 -54 13 -48 0 -54 -2 -60 -24z m601 -423 c26 -9 71
-17 98 -19 168 -8 285 -25 370 -54 49 -16 118 -35 152 -41 36 -6 79 -22 101
-36 20 -14 57 -33 82 -41 25 -8 61 -28 81 -43 19 -15 48 -31 64 -35 33 -8 135
-99 135 -120 0 -26 -42 -35 -198 -45 -86 -5 -200 -19 -252 -30 -199 -43 -227
-48 -280 -54 -30 -3 -104 -21 -165 -39 -60 -19 -131 -39 -158 -45 -26 -6 -64
-22 -85 -35 -20 -14 -57 -30 -82 -36 -25 -7 -66 -27 -91 -46 -26 -19 -52 -34
-59 -34 -7 0 -36 -25 -65 -55 -58 -60 -87 -68 -108 -32 -16 26 -16 329 1 600
15 240 14 239 242 247 85 4 158 7 162 8 4 1 29 -6 55 -15z m-661 -44 c7 -6 18
-28 24 -48 11 -37 30 -356 34 -585 3 -114 1 -131 -15 -147 -29 -29 -58 -23
-99 21 -20 22 -52 45 -71 51 -19 7 -49 23 -67 36 -17 13 -58 33 -89 44 -31 10
-75 30 -98 44 -24 13 -64 29 -91 35 -27 6 -76 22 -108 36 -32 15 -109 35 -170
45 -61 10 -145 27 -186 38 -41 11 -97 23 -125 26 -61 9 -95 29 -95 56 0 15 14
27 56 45 31 13 72 36 92 49 20 14 44 25 52 25 9 0 39 15 68 34 29 19 70 37 90
41 20 4 71 22 114 40 42 19 103 39 136 45 33 6 99 24 148 40 60 21 125 34 203
41 64 6 117 12 119 14 6 5 63 -13 78 -26z m1467 -654 c33 -8 101 -15 156 -15
85 0 100 -3 116 -20 16 -18 17 -25 6 -63 -10 -33 -42 -72 -155 -185 -77 -79
-163 -159 -191 -178 -27 -18 -88 -60 -135 -94 -46 -33 -94 -63 -105 -66 -11
-4 -33 -16 -50 -28 -42 -31 -210 -111 -271 -129 -28 -8 -64 -22 -80 -30 -57
-29 -185 -49 -290 -46 -91 4 -104 7 -136 31 -20 15 -53 51 -74 80 -38 52 -39
54 -42 154 l-4 101 43 89 c44 92 88 144 184 217 28 20 68 42 90 47 22 6 67 24
100 40 48 23 96 34 235 54 97 14 198 26 225 27 28 0 77 6 110 14 81 18 199 18
268 0z m-2408 -54 c161 -12 245 -25 306 -47 24 -8 83 -23 132 -33 52 -11 102
-29 125 -44 20 -13 60 -30 89 -37 28 -6 60 -21 70 -32 10 -11 31 -27 46 -35
38 -19 122 -104 172 -173 l40 -55 0 -110 0 -110 -45 -58 c-55 -72 -153 -127
-224 -127 -52 0 -289 72 -326 99 -14 10 -46 29 -70 41 -25 13 -58 34 -75 47
-16 13 -44 34 -62 46 -93 64 -163 125 -305 269 -87 87 -158 163 -158 168 0 5
-22 35 -50 65 -57 63 -66 103 -28 129 24 17 86 17 363 -3z m-553 -238 c90
-107 116 -132 240 -236 126 -107 167 -140 203 -162 17 -11 47 -34 68 -52 20
-18 43 -33 50 -33 7 0 29 -13 49 -30 20 -16 57 -39 83 -50 26 -11 60 -31 76
-44 16 -14 43 -27 61 -31 18 -4 56 -20 83 -35 80 -46 180 -65 335 -65 129 0
139 1 189 28 63 32 92 34 116 7 13 -15 16 -28 10 -62 -3 -24 -9 -142 -13 -263
-8 -234 -13 -260 -57 -271 -37 -9 -158 13 -295 56 -69 21 -145 44 -170 51 -25
6 -63 20 -85 32 -22 11 -65 28 -95 38 -69 22 -236 95 -270 118 -14 10 -50 28
-81 40 -31 12 -67 33 -79 46 -12 13 -35 27 -49 30 -15 3 -49 24 -75 45 -27 22
-53 40 -58 40 -24 0 -298 264 -298 286 0 7 -16 34 -35 62 -25 37 -43 83 -65
171 l-31 122 20 72 c11 40 23 89 26 109 6 42 27 68 54 68 11 0 50 -38 93 -87z"/>
</g>
</svg>
