<?xml version="1.0" standalone="no"?>
<!DOCTYPE svg PUBLIC "-//W3C//DTD SVG 20010904//EN"
 "http://www.w3.org/TR/2001/REC-SVG-20010904/DTD/svg10.dtd">
<svg version="1.0" xmlns="http://www.w3.org/2000/svg"
 width="408.000000pt" height="424.000000pt" viewBox="0 0 408.000000 424.000000"
 preserveAspectRatio="xMidYMid meet">
<metadata>
Created by potrace 1.16, written by Peter Selinger 2001-2019
</metadata>
<rect x="0" y="0" width="408" height="424" fill="#ffffff"/>
<g transform="translate(0.000000,424.000000) scale(0.100000,-0.100000)"
fill="#000000" stroke="none">
<path d="M2020 4161 c-45 -9 -69 -23 -99 -55 -20 -21 -34 -26 -75 -26 -59 0
-247 -33 -291 -50 -16 -7 -76 -20 -132 -30 -56 -10 -128 -30 -160 -44 -32 -14
-80 -30 -108 -36 -27 -6 -70 -24 -95 -40 -25 -15 -70 -35 -101 -44 -31 -9 -62
-22 -68 -30 -7 -8 -38 -26 -69 -41 -31 -15 -66 -35 -77 -44 -11 -10 -37 -27
-58 -39 -21 -12 -51 -33 -65 -47 -69 -62 -120 -103 -154 -124 -20 -12 -47 -39
-59 -59 -13 -20 -39 -56 -58 -78 -67 -77 -101 -122 -113 -151 -7 -15 -27 -50
-45 -77 -18 -26 -33 -56 -33 -65 0 -9 -13 -44 -29 -78 -37 -78 -51 -151 -51
-267 0 -162 15 -257 49 -321 17 -32 31 -64 31 -71 0 -7 18 -34 40 -59 22 -25
40 -50 40 -56 0 -27 157 -177 225 -215 17 -9 45 -30 64 -47 19 -16 49 -36 67
-43 17 -7 45 -24 60 -37 16 -13 49 -34 74 -47 25 -12 56 -30 70 -40 14 -9 41
-22 60 -29 19 -8 73 -30 120 -51 139 -61 190 -81 291 -115 52 -18 109 -40 125
-48 17 -9 78 -27 135 -42 57 -14 127 -35 154 -45 28 -11 77 -25 109 -31 114
-21 182 -47 194 -74 14 -31 16 -816 3 -965 -7 -76 -15 -106 -40 -154 -35 -66
-39 -113 -13 -146 40 -50 258 -35 367 25 33 18 72 35 87 39 14 3 39 17 55 30
16 14 54 36 84 51 147 70 304 217 414 389 17 26 20 52 23 166 5 156 -4 202
-52 258 -18 22 -39 54 -46 72 -13 30 -53 62 -174 137 -28 17 -66 43 -84 57
-19 13 -57 30 -85 36 -28 6 -70 21 -92 35 -39 22 -115 45 -199 60 -21 3 -49
17 -62 30 -20 20 -24 34 -24 84 0 33 -6 80 -14 103 -8 24 -16 77 -20 120 -5
65 -3 80 13 100 18 21 29 24 143 30 190 10 269 19 313 33 22 8 92 24 155 36
78 15 135 33 178 56 35 18 72 33 82 33 10 0 40 15 66 33 27 18 63 39 80 46 36
14 201 176 222 218 8 15 23 37 32 48 10 11 25 47 34 80 19 75 54 108 133 130
32 9 69 22 83 30 14 8 54 30 90 50 123 67 242 183 255 247 3 18 18 62 32 96
l26 64 -22 54 c-13 29 -28 78 -35 107 -7 30 -30 83 -52 117 -44 72 -221 252
-270 275 -18 8 -51 31 -73 49 -23 19 -51 38 -64 42 -12 3 -37 17 -55 31 -18
13 -54 31 -80 40 -26 9 -61 26 -79 40 -18 13 -65 31 -105 40 -40 9 -98 28
-128 43 -30 15 -95 34 -145 43 -49 9 -132 27 -184 41 -71 20 -137 28 -275 36
-225 13 -231 14 -297 49 -60 32 -116 43 -169 32z m490 -395 c199 -9 332 -24
415 -46 39 -11 115 -26 170 -35 67 -10 118 -25 155 -44 30 -15 79 -33 108 -40
53 -11 106 -39 278 -146 40 -25 117 -98 165 -156 32 -40 89 -162 89 -192 0
-28 -60 -137 -95 -171 -53 -54 -191 -132 -253 -145 -65 -13 -86 -4 -102 43
-27 82 -178 249 -266 294 -22 11 -46 27 -53 36 -7 8 -38 25 -69 36 -32 11 -77
31 -102 44 -25 13 -83 32 -130 41 -47 9 -119 28 -160 42 -67 22 -98 25 -280
30 -164 4 -209 9 -222 21 -21 18 -24 118 -8 266 15 142 4 139 360 122z m-531
-31 c13 -13 17 -45 19 -181 4 -194 2 -198 -82 -208 -94 -11 -390 -86 -431
-110 -22 -13 -62 -31 -90 -40 -27 -9 -70 -30 -95 -46 -25 -16 -50 -30 -56 -30
-20 0 -162 -129 -211 -192 -65 -83 -62 -77 -84 -168 -16 -69 -17 -91 -8 -162
6 -46 15 -99 21 -118 16 -50 113 -186 157 -217 20 -15 53 -42 73 -60 21 -18
59 -44 85 -58 26 -14 59 -32 73 -40 88 -52 487 -165 578 -165 73 0 78 -12 84
-201 8 -227 -2 -238 -161 -184 -41 14 -123 36 -182 50 -60 13 -126 33 -147 44
-21 11 -68 27 -103 35 -35 8 -93 28 -129 45 -36 17 -71 31 -79 31 -28 0 -239
99 -351 165 -36 21 -81 47 -100 57 -113 60 -308 235 -387 348 -51 72 -113 244
-113 311 0 23 11 73 25 112 13 40 29 94 35 121 6 27 22 63 36 79 14 17 35 51
47 76 29 61 265 298 335 336 29 15 52 32 52 36 0 5 24 21 53 35 28 15 62 35
75 45 13 10 48 25 79 34 31 9 79 29 107 45 28 15 76 34 106 40 30 7 89 26 132
41 42 16 103 33 135 38 32 6 112 22 178 37 213 47 292 51 324 19z m17 -570
c12 -28 14 -120 14 -534 l0 -500 -26 -20 c-15 -12 -38 -21 -53 -21 -72 0 -407
80 -448 107 -12 8 -46 25 -75 37 -178 72 -314 218 -346 372 -7 30 -8 64 -3 80
18 64 76 162 124 212 55 56 165 135 207 147 14 4 45 20 70 35 29 18 101 43
205 69 170 43 192 47 268 50 46 1 49 -1 63 -34z m457 -1 c39 -14 105 -32 145
-40 41 -8 87 -23 103 -35 16 -11 57 -32 91 -45 34 -13 71 -32 82 -43 12 -10
35 -25 51 -34 53 -27 184 -166 193 -206 5 -20 15 -56 21 -81 24 -86 23 -103
-4 -165 -31 -71 -119 -166 -186 -200 -25 -13 -51 -30 -57 -38 -7 -8 -27 -20
-45 -27 -18 -7 -67 -28 -109 -47 -42 -18 -121 -43 -175 -54 -54 -12 -119 -29
-145 -40 -66 -26 -260 -31 -283 -8 -15 15 -17 59 -16 418 0 340 3 409 16 449
12 35 15 64 9 120 -6 63 -4 76 12 94 18 19 26 20 122 13 68 -4 127 -15 175
-31z m-185 -1853 c20 -10 62 -26 93 -35 31 -8 67 -24 80 -34 13 -10 44 -26 68
-36 25 -10 59 -29 77 -44 17 -15 45 -34 61 -43 52 -28 140 -145 152 -201 16
-71 13 -117 -8 -163 -25 -53 -144 -181 -190 -205 -21 -10 -43 -25 -50 -34 -7
-8 -37 -24 -67 -36 -30 -11 -68 -30 -85 -42 -30 -22 -123 -55 -185 -65 -20 -3
-35 0 -40 8 -20 33 -33 244 -33 564 -1 293 1 344 15 363 19 28 61 29 112 3z"/>
</g>
</svg>
