<?xml version="1.0" standalone="no"?>
<!DOCTYPE svg PUBLIC "-//W3C//DTD SVG 20010904//EN"
 "http://www.w3.org/TR/2001/REC-SVG-20010904/DTD/svg10.dtd">
<svg version="1.0" xmlns="http://www.w3.org/2000/svg"
 width="416.000000pt" height="416.000000pt" viewBox="0 0 416.000000 416.000000"
 preserveAspectRatio="xMidYMid meet">
<metadata>
Created by potrace 1.16, written by Peter Selinger 2001-2019
</metadata>
<rect x="0" y="0" width="416" height="416" fill="#ffffff"/>
<g transform="translate(0.000000,416.000000) scale(0.100000,-0.100000)"
fill="#000000" stroke="none">
<path d="M1651 4146 c-19 -22 -126 -55 -232 -71 -53 -8 -118 -24 -143 -35 -26
-11 -75 -27 -109 -36 -34 -8 -80 -27 -102 -40 -23 -13 -67 -33 -98 -43 -31
-11 -72 -31 -89 -44 -18 -14 -50 -30 -70 -37 -21 -6 -56 -27 -79 -46 -22 -19
-45 -34 -50 -34 -5 0 -26 -15 -46 -34 -21 -18 -51 -40 -68 -49 -71 -37 -325
-312 -325 -352 0 -6 -16 -29 -35 -51 -19 -21 -40 -55 -46 -74 -7 -19 -25 -61
-40 -92 -16 -31 -34 -89 -40 -128 -6 -40 -17 -86 -24 -103 -16 -39 -14 -282 2
-312 6 -11 17 -49 24 -85 15 -82 76 -196 148 -279 66 -74 296 -281 314 -281 7
0 29 -13 48 -29 20 -17 60 -41 90 -54 30 -13 60 -31 67 -40 8 -9 37 -23 65
-33 29 -9 67 -28 86 -42 18 -13 53 -30 77 -38 24 -7 64 -25 89 -39 24 -15 66
-33 92 -40 27 -8 86 -30 133 -49 47 -20 93 -36 102 -36 10 0 64 -17 120 -39
57 -21 123 -41 146 -45 24 -4 69 -17 100 -30 32 -13 86 -30 122 -37 101 -20
110 -33 110 -173 0 -69 -5 -126 -12 -143 -9 -19 -15 -129 -20 -343 -4 -173
-11 -369 -16 -435 -5 -66 -6 -155 -4 -197 l5 -78 111 0 111 0 15 33 c13 28 23
34 75 45 33 7 78 22 100 34 22 12 66 34 97 49 31 16 59 33 63 39 3 6 25 20 48
32 57 29 103 67 209 174 74 75 98 109 136 185 47 94 47 94 47 200 0 104 -1
107 -44 200 -45 94 -49 99 -196 238 -16 16 -54 39 -83 51 -29 13 -59 32 -67
44 -23 32 -19 88 10 127 14 19 33 47 42 63 21 33 76 102 133 166 23 25 58 66
78 92 233 293 271 336 323 363 14 8 70 21 123 30 54 8 118 26 144 39 26 13 68
29 92 36 25 6 63 24 85 40 22 15 58 33 80 39 22 6 54 23 72 38 183 157 221
203 283 328 44 90 60 183 60 340 -1 148 -15 228 -54 298 -19 34 -37 73 -41 87
-20 64 -245 309 -320 347 -22 12 -49 31 -60 43 -11 13 -40 31 -64 41 -24 11
-57 31 -73 44 -16 14 -53 32 -82 40 -29 9 -67 26 -85 39 -18 14 -56 30 -84 37
-28 6 -76 22 -108 35 -31 13 -88 28 -125 34 -164 24 -235 43 -254 67 l-18 23
-530 0 c-447 0 -531 -2 -541 -14z m958 -317 c48 -6 118 -19 156 -30 39 -10
114 -25 169 -34 55 -9 128 -28 165 -44 36 -16 90 -34 119 -41 29 -7 69 -23 89
-37 21 -14 58 -32 84 -39 25 -8 54 -23 65 -35 10 -12 39 -31 64 -44 52 -26
220 -187 244 -233 9 -17 27 -47 40 -66 39 -58 58 -159 52 -275 -6 -121 -20
-176 -52 -215 -14 -16 -34 -45 -44 -66 -24 -46 -174 -183 -217 -198 -18 -6
-48 -22 -65 -35 -18 -14 -71 -37 -118 -51 -109 -34 -114 -30 -94 74 42 210 31
417 -26 497 -17 23 -30 45 -30 51 0 19 -145 174 -179 192 -20 10 -47 30 -60
44 -13 14 -40 31 -60 37 -20 6 -51 23 -69 36 -19 14 -59 33 -90 43 -32 10 -90
30 -131 44 -84 30 -217 48 -343 47 -120 -1 -123 4 -114 177 8 153 18 187 54
201 37 13 287 13 391 0z m-708 -15 c11 -13 37 -219 38 -306 1 -44 -28 -64
-102 -72 -38 -4 -90 -19 -125 -36 -33 -15 -85 -33 -115 -40 -31 -6 -73 -24
-94 -39 -21 -15 -53 -32 -71 -39 -18 -6 -51 -26 -73 -44 -88 -71 -145 -123
-166 -151 -12 -16 -31 -36 -42 -43 -11 -8 -25 -31 -31 -52 -7 -20 -24 -57 -38
-82 -24 -42 -25 -52 -23 -170 2 -120 3 -128 36 -197 59 -123 166 -226 342
-327 76 -44 348 -136 402 -136 51 0 105 -17 125 -38 14 -16 16 -51 18 -254 3
-279 4 -274 -83 -264 -32 3 -91 19 -131 35 -41 16 -99 34 -130 40 -31 5 -83
21 -115 35 -33 14 -82 30 -109 37 -27 7 -74 24 -105 40 -30 15 -82 35 -115 44
-32 10 -77 30 -99 46 -22 15 -57 31 -78 35 -20 3 -52 17 -70 30 -17 13 -56 35
-86 49 -29 14 -69 38 -87 55 -19 16 -41 30 -49 30 -8 0 -29 13 -47 29 -18 15
-51 39 -73 53 -51 32 -184 163 -212 208 -12 19 -31 40 -42 47 -11 7 -26 36
-35 66 -9 30 -24 65 -34 78 -32 41 -42 88 -42 194 0 101 17 185 45 229 8 12
23 46 35 78 11 31 28 62 36 69 9 7 25 31 36 53 31 61 73 111 183 220 63 62
117 106 145 118 25 10 59 32 75 47 17 16 45 33 62 39 18 6 48 22 65 36 18 13
53 29 78 36 25 6 65 25 88 40 24 16 69 34 100 41 32 6 84 24 117 39 40 19 91
32 154 40 52 7 113 19 135 27 49 18 183 41 247 42 31 1 51 -4 60 -15z m585
-628 c49 -7 110 -22 135 -33 24 -11 75 -26 111 -32 43 -9 86 -25 120 -47 29
-19 57 -34 64 -34 17 0 181 -166 201 -203 25 -46 29 -203 9 -300 -16 -79 -89
-239 -123 -269 -12 -11 -63 -24 -143 -37 -69 -11 -163 -27 -210 -35 -101 -16
-312 -36 -390 -36 -70 0 -128 16 -138 38 -9 20 3 729 15 875 7 80 12 101 27
113 26 18 199 19 322 0z m-538 -19 c31 -32 37 -141 32 -560 -4 -348 -7 -409
-20 -417 -25 -16 -102 -11 -160 11 -30 11 -86 29 -123 39 -38 10 -85 29 -105
42 -21 14 -58 34 -83 47 -65 30 -198 163 -239 236 -29 53 -33 69 -34 140 -1
79 0 81 45 150 53 80 138 157 206 187 27 11 62 31 79 44 17 12 60 30 95 38 35
9 98 27 139 40 81 27 142 28 168 3z m893 -1097 c30 -17 23 -39 -33 -100 -47
-50 -82 -91 -193 -228 -17 -20 -43 -55 -58 -77 -97 -142 -170 -235 -189 -241
-19 -6 -157 20 -201 38 -15 6 -32 19 -37 29 -6 10 -10 129 -10 273 0 243 1
257 20 276 19 19 34 20 283 21 144 1 276 5 292 9 45 11 104 11 126 0z m-573
-796 c28 -19 28 -42 -3 -95 -14 -24 -25 -52 -25 -62 0 -10 -14 -32 -31 -49
-27 -27 -32 -29 -45 -16 -19 18 -35 160 -23 201 5 17 14 34 21 39 17 11 77 1
106 -18z m220 -88 c15 -8 36 -23 46 -35 11 -12 26 -21 33 -21 24 0 138 -117
178 -182 31 -50 39 -72 42 -127 4 -54 1 -72 -16 -101 -12 -19 -32 -57 -45 -85
-23 -50 -104 -133 -161 -168 -17 -9 -45 -28 -64 -42 -19 -14 -46 -28 -60 -31
-14 -4 -42 -19 -61 -34 -19 -15 -59 -35 -87 -44 -29 -10 -55 -22 -58 -27 -4
-5 -15 -9 -26 -9 -46 0 -53 129 -13 236 14 37 34 111 45 165 10 54 33 129 49
168 17 38 30 79 30 89 0 11 13 45 29 75 16 31 36 80 45 110 14 47 32 69 64 76
2 1 15 -5 30 -13z"/>
</g>
</svg>
