<?xml version="1.0" standalone="no"?>
<!DOCTYPE svg PUBLIC "-//W3C//DTD SVG 20010904//EN"
 "http://www.w3.org/TR/2001/REC-SVG-20010904/DTD/svg10.dtd">
<svg version="1.0" xmlns="http://www.w3.org/2000/svg"
 width="408.000000pt" height="584.000000pt" viewBox="0 0 408.000000 584.000000"
 preserveAspectRatio="xMidYMid meet">
<metadata>
Created by potrace 1.16, written by Peter Selinger 2001-2019
</metadata>
<rect x="0" y="0" width="408" height="584" fill="#ffffff"/>
<g transform="translate(0.000000,584.000000) scale(0.100000,-0.100000)"
fill="#000000" stroke="none">
<path d="M2000 5773 c-25 -9 -64 -30 -87 -48 -39 -30 -51 -33 -165 -43 -68 -7
-166 -24 -218 -38 -52 -15 -131 -34 -175 -44 -44 -9 -102 -28 -130 -42 -27
-14 -79 -33 -113 -42 -35 -9 -75 -25 -89 -36 -13 -10 -50 -29 -81 -40 -31 -12
-70 -32 -87 -44 -16 -13 -51 -32 -78 -44 -26 -11 -47 -26 -47 -31 0 -6 -24
-25 -52 -42 -101 -58 -232 -174 -305 -269 -23 -30 -58 -75 -77 -100 -20 -25
-46 -65 -59 -90 -13 -25 -35 -63 -50 -84 -15 -21 -27 -47 -27 -56 0 -10 -14
-44 -31 -76 -55 -106 -74 -352 -39 -532 5 -29 23 -81 40 -115 16 -34 30 -67
30 -74 0 -6 18 -33 40 -60 163 -195 160 -191 299 -291 25 -19 57 -44 72 -58
14 -13 30 -24 36 -24 6 0 33 -15 61 -34 27 -19 79 -48 115 -64 35 -16 67 -34
71 -40 3 -6 30 -18 59 -28 28 -9 75 -29 102 -45 28 -15 70 -33 95 -39 25 -6
79 -26 120 -45 80 -35 178 -70 325 -115 50 -15 113 -37 142 -48 29 -12 83 -28
120 -37 108 -25 152 -45 169 -76 10 -20 14 -62 14 -139 0 -157 -15 -180 -116
-180 -28 0 -52 -8 -75 -25 -19 -14 -54 -35 -79 -46 -51 -25 -181 -146 -212
-199 -11 -19 -32 -52 -45 -72 -23 -34 -25 -45 -21 -125 3 -83 6 -92 46 -158
46 -75 100 -121 207 -175 33 -17 76 -39 95 -50 19 -11 42 -20 51 -20 36 0 80
-24 94 -51 11 -20 15 -62 15 -149 0 -115 -1 -122 -25 -145 l-24 -25 -220 0
c-126 0 -231 -4 -247 -10 -14 -6 -74 -17 -133 -26 -77 -11 -120 -23 -157 -44
-28 -16 -69 -33 -91 -39 -22 -6 -57 -25 -78 -41 -21 -17 -42 -30 -47 -30 -17
0 -129 -114 -149 -150 -11 -19 -28 -46 -39 -60 -48 -61 -49 -346 -1 -410 10
-14 28 -44 39 -67 24 -46 164 -178 220 -207 20 -10 49 -29 64 -41 15 -13 50
-28 78 -34 27 -6 78 -22 112 -36 89 -36 163 -46 418 -52 289 -7 467 7 620 48
63 17 135 36 160 41 25 6 73 23 107 38 34 16 86 35 116 44 30 9 61 23 68 32 8
10 35 27 61 39 73 34 245 185 295 258 15 23 40 58 54 77 15 19 43 87 64 151
32 103 36 124 29 175 -12 98 -55 209 -104 271 -62 78 -148 160 -191 183 -20
10 -50 31 -67 45 -17 14 -47 32 -69 41 -21 9 -58 28 -83 44 -25 15 -67 35 -95
44 -64 21 -145 66 -159 89 -17 26 4 50 58 67 26 9 70 31 98 50 77 54 205 167
235 208 15 20 37 48 49 62 37 42 74 179 74 273 -1 107 -41 228 -96 290 -77 85
-140 144 -174 162 -19 10 -47 28 -62 41 -15 12 -51 29 -80 38 -29 8 -68 26
-86 40 -20 14 -59 29 -97 35 -35 6 -87 22 -117 35 -29 13 -65 26 -81 30 -15 3
-36 15 -47 26 -18 18 -20 34 -20 189 0 209 1 212 111 223 319 33 491 63 579
102 41 19 92 37 112 40 21 4 51 18 67 32 16 13 46 31 66 40 89 37 261 197 292
272 8 19 25 51 38 71 12 20 26 54 30 76 7 44 30 75 53 75 8 0 38 13 67 30 29
16 72 37 96 45 24 9 50 22 59 30 10 9 37 25 62 38 104 50 196 161 237 283 l30
90 -28 115 c-46 186 -127 307 -295 439 -31 25 -74 59 -94 76 -20 18 -54 39
-75 48 -22 9 -52 27 -68 40 -16 13 -45 30 -66 37 -21 6 -56 24 -78 40 -22 15
-64 32 -92 38 -29 6 -82 24 -117 40 -35 16 -101 36 -146 45 -46 10 -117 28
-159 42 -55 18 -116 28 -216 35 -215 15 -339 36 -436 75 -96 38 -105 39 -169
17z m685 -412 c91 -7 192 -20 233 -32 40 -10 124 -30 187 -43 63 -14 133 -35
157 -49 24 -13 66 -30 93 -37 28 -6 64 -22 81 -35 17 -13 55 -33 83 -44 66
-25 167 -109 275 -228 39 -44 85 -154 86 -205 0 -85 -151 -255 -259 -289 -20
-6 -53 -22 -73 -36 -50 -34 -84 -26 -104 25 -46 119 -191 285 -294 337 -19 10
-48 28 -63 41 -15 13 -46 28 -69 35 -23 6 -64 23 -92 39 -28 15 -82 33 -121
40 -38 7 -95 21 -125 32 -69 24 -274 48 -404 48 -137 0 -136 -1 -136 156 0
136 13 217 39 243 15 15 38 17 182 16 90 -1 236 -7 324 -14z m-714 -28 c19
-18 21 -36 26 -181 7 -197 2 -212 -75 -212 -27 0 -86 -11 -131 -25 -45 -13
-110 -29 -144 -35 -59 -11 -219 -71 -282 -107 -16 -9 -55 -30 -85 -45 -104
-54 -300 -254 -315 -323 -4 -17 -16 -59 -27 -94 -24 -74 -21 -121 15 -246 45
-156 156 -274 367 -390 36 -19 81 -44 100 -55 19 -11 43 -20 53 -20 10 0 59
-16 110 -36 65 -25 130 -41 224 -54 145 -20 169 -29 183 -66 13 -33 13 -315 1
-347 -14 -36 -43 -41 -89 -18 -22 11 -91 31 -153 44 -63 14 -150 37 -194 51
-274 92 -354 121 -405 149 -25 14 -59 28 -76 31 -16 4 -59 25 -95 46 -35 22
-69 40 -75 40 -6 0 -29 13 -51 29 -22 16 -55 37 -74 46 -19 10 -46 29 -61 43
-15 14 -43 35 -62 46 -102 63 -221 179 -259 251 -8 17 -27 43 -41 58 -15 16
-34 58 -46 100 -12 40 -30 96 -42 126 -22 57 -22 63 17 191 9 30 23 81 31 113
8 32 29 77 47 102 17 24 42 59 54 77 67 101 97 139 150 193 70 71 136 126 179
148 17 9 37 23 45 33 8 9 41 29 74 44 33 15 66 34 73 43 8 9 37 23 65 33 29 9
72 29 97 44 25 16 74 34 110 41 36 6 91 25 122 41 36 17 87 32 135 39 43 5
107 20 143 31 148 49 323 59 361 21z m-4 -551 c6 -4 17 -20 22 -35 14 -36 15
-1035 1 -1071 -12 -34 -42 -48 -73 -37 -14 6 -69 17 -123 26 -55 8 -115 18
-133 21 -19 3 -56 16 -82 30 -26 13 -69 28 -94 34 -26 6 -66 23 -89 39 -22 16
-60 38 -83 50 -61 30 -175 150 -217 227 -32 57 -36 74 -38 140 -1 67 3 81 35
148 22 43 59 96 90 127 67 68 174 145 229 165 23 8 62 26 85 40 24 14 76 31
116 39 39 8 117 26 172 39 104 25 162 31 182 18z m424 -21 c57 -16 127 -32
154 -36 61 -8 129 -31 145 -50 6 -8 35 -21 63 -31 29 -9 66 -27 82 -39 17 -12
48 -31 70 -43 67 -35 200 -180 211 -231 3 -14 12 -52 20 -84 19 -78 18 -106
-6 -169 -28 -74 -164 -209 -245 -242 -22 -9 -49 -26 -61 -37 -11 -10 -52 -30
-90 -44 -38 -13 -101 -35 -139 -49 -39 -14 -102 -28 -140 -31 -39 -4 -103 -16
-142 -27 -64 -18 -78 -19 -118 -8 -79 22 -75 -9 -75 573 0 348 4 525 11 538
25 47 114 50 260 10z m-114 -1953 c38 -12 82 -32 99 -45 17 -12 49 -29 72 -37
23 -8 63 -31 88 -51 26 -19 51 -35 56 -35 19 0 119 -105 139 -144 11 -23 29
-57 39 -76 30 -54 26 -106 -14 -170 -19 -30 -43 -68 -53 -84 -32 -52 -227
-214 -313 -261 -189 -102 -210 -107 -237 -54 -15 29 -18 915 -3 954 12 32 38
32 127 3z m-317 -478 c30 -16 35 -88 15 -183 -13 -59 -16 -105 -12 -168 4 -67
2 -91 -9 -108 -21 -30 -71 -28 -115 5 -19 14 -50 32 -69 40 -19 8 -45 25 -58
36 -35 34 -84 116 -84 142 0 32 75 132 115 152 17 9 46 27 62 40 23 17 89 44
133 53 2 1 12 -4 22 -9z m357 -761 c48 -17 119 -40 156 -51 38 -10 94 -31 125
-47 31 -16 68 -32 82 -36 14 -4 44 -21 67 -36 23 -16 46 -29 51 -29 18 0 145
-101 201 -158 31 -33 71 -89 90 -125 32 -63 33 -72 29 -144 -4 -68 -10 -89
-50 -163 -72 -139 -120 -203 -172 -230 -25 -14 -48 -21 -52 -17 -5 4 -2 40 6
80 22 112 18 152 -20 241 -30 68 -48 93 -124 168 -54 53 -108 97 -135 109 -25
11 -52 26 -61 34 -8 8 -53 28 -100 45 -47 18 -107 40 -135 51 -27 10 -62 18
-76 19 -15 0 -38 9 -52 20 -23 18 -26 29 -30 108 -3 48 -8 104 -12 125 -5 24
-3 42 5 52 21 25 108 19 207 -16z m-387 -428 c29 -21 38 -68 19 -103 -9 -16
-12 -101 -10 -313 1 -159 -3 -312 -8 -340 -13 -68 -40 -89 -106 -81 -157 18
-263 39 -314 61 -31 13 -78 29 -105 35 -27 6 -67 24 -90 40 -22 16 -53 32 -69
36 -15 3 -64 43 -111 90 -85 84 -105 120 -91 165 19 60 148 205 208 235 18 9
43 27 57 39 14 13 51 31 82 40 32 9 60 21 63 26 14 21 69 40 162 54 54 9 123
22 153 30 64 16 125 11 160 -14z m395 -48 c33 -13 80 -31 105 -40 115 -40 266
-176 289 -260 17 -58 13 -143 -8 -188 -24 -54 -160 -191 -213 -215 -24 -11
-57 -30 -75 -41 -40 -25 -204 -52 -239 -39 -34 13 -42 42 -41 155 0 55 -5 118
-11 140 -13 45 -19 476 -7 495 22 35 103 33 200 -7z"/>
</g>
</svg>
